<svg viewBox="-16 -32 880 192" width="880" height="192" xmlns="http://www.w3.org/2000/svg"><desc>Generated with https://github.com/Platane/snk</desc><style>:root{--cb:#1b1f230a;--cs:purple;--ce:#161b22;--c0:#161b22;--c1:#01311f;--c2:#034525;--c3:#0f6d31;--c4:#00c647}.c{shape-rendering:geometricPrecision;fill:var(--ce);stroke-width:1px;stroke:var(--cb);animation:none 38700ms linear infinite;width:12px;height:12px}@keyframes c0{0.77%{fill:var(--c1)}0.79%,100%{fill:var(--ce)}}.c.c0{fill:var(--c1);animation-name:c0}@keyframes c1{3.61%{fill:var(--c1)}3.63%,100%{fill:var(--ce)}}.c.c1{fill:var(--c1);animation-name:c1}@keyframes c2{2.57%{fill:var(--c1)}2.59%,100%{fill:var(--ce)}}.c.c2{fill:var(--c1);animation-name:c2}@keyframes c3{3.35%{fill:var(--c1)}3.37%,100%{fill:var(--ce)}}.c.c3{fill:var(--c1);animation-name:c3}@keyframes c4{2.06%{fill:var(--c1)}2.08%,100%{fill:var(--ce)}}.c.c4{fill:var(--c1);animation-name:c4}@keyframes c5{20.92%{fill:var(--c1)}20.94%,100%{fill:var(--ce)}}.c.c5{fill:var(--c1);animation-name:c5}@keyframes c6{5.42%{fill:var(--c1)}5.44%,100%{fill:var(--ce)}}.c.c6{fill:var(--c1);animation-name:c6}@keyframes c7{5.16%{fill:var(--c1)}5.18%,100%{fill:var(--ce)}}.c.c7{fill:var(--c1);animation-name:c7}@keyframes c8{19.63%{fill:var(--c1)}19.65%,100%{fill:var(--ce)}}.c.c8{fill:var(--c1);animation-name:c8}@keyframes c9{19.37%{fill:var(--c1)}19.39%,100%{fill:var(--ce)}}.c.c9{fill:var(--c1);animation-name:c9}@keyframes ca{19.11%{fill:var(--c1)}19.13%,100%{fill:var(--ce)}}.c.ca{fill:var(--c1);animation-name:ca}@keyframes cb{19.89%{fill:var(--c1)}19.91%,100%{fill:var(--ce)}}.c.cb{fill:var(--c1);animation-name:cb}@keyframes cc{6.45%{fill:var(--c1)}6.47%,100%{fill:var(--ce)}}.c.cc{fill:var(--c1);animation-name:cc}@keyframes cd{6.19%{fill:var(--c1)}6.21%,100%{fill:var(--ce)}}.c.cd{fill:var(--c1);animation-name:cd}@keyframes ce{5.93%{fill:var(--c1)}5.95%,100%{fill:var(--ce)}}.c.ce{fill:var(--c1);animation-name:ce}@keyframes cf{18.08%{fill:var(--c1)}18.1%,100%{fill:var(--ce)}}.c.cf{fill:var(--c1);animation-name:cf}@keyframes cg{17.82%{fill:var(--c1)}17.84%,100%{fill:var(--ce)}}.c.cg{fill:var(--c1);animation-name:cg}@keyframes ch{6.71%{fill:var(--c1)}6.73%,100%{fill:var(--ce)}}.c.ch{fill:var(--c1);animation-name:ch}@keyframes ci{17.04%{fill:var(--c1)}17.06%,100%{fill:var(--ce)}}.c.ci{fill:var(--c1);animation-name:ci}@keyframes cj{17.3%{fill:var(--c1)}17.32%,100%{fill:var(--ce)}}.c.cj{fill:var(--c1);animation-name:cj}@keyframes ck{7.74%{fill:var(--c1)}7.76%,100%{fill:var(--ce)}}.c.ck{fill:var(--c1);animation-name:ck}@keyframes cl{7.48%{fill:var(--c1)}7.5%,100%{fill:var(--ce)}}.c.cl{fill:var(--c1);animation-name:cl}@keyframes cm{7.23%{fill:var(--c1)}7.25%,100%{fill:var(--ce)}}.c.cm{fill:var(--c1);animation-name:cm}@keyframes cn{16.27%{fill:var(--c1)}16.29%,100%{fill:var(--ce)}}.c.cn{fill:var(--c1);animation-name:cn}@keyframes co{16.53%{fill:var(--c1)}16.55%,100%{fill:var(--ce)}}.c.co{fill:var(--c1);animation-name:co}@keyframes cp{8.52%{fill:var(--c1)}8.54%,100%{fill:var(--ce)}}.c.cp{fill:var(--c1);animation-name:cp}@keyframes cq{15.75%{fill:var(--c1)}15.77%,100%{fill:var(--ce)}}.c.cq{fill:var(--c1);animation-name:cq}@keyframes cr{15.49%{fill:var(--c1)}15.51%,100%{fill:var(--ce)}}.c.cr{fill:var(--c1);animation-name:cr}@keyframes cs{24.02%{fill:var(--c1)}24.04%,100%{fill:var(--ce)}}.c.cs{fill:var(--c1);animation-name:cs}@keyframes ct{71.31%{fill:var(--c2)}71.33%,100%{fill:var(--ce)}}.c.ct{fill:var(--c2);animation-name:ct}@keyframes cu{25.05%{fill:var(--c1)}25.07%,100%{fill:var(--ce)}}.c.cu{fill:var(--c1);animation-name:cu}@keyframes cv{9.29%{fill:var(--c1)}9.31%,100%{fill:var(--ce)}}.c.cv{fill:var(--c1);animation-name:cv}@keyframes cw{9.03%{fill:var(--c1)}9.05%,100%{fill:var(--ce)}}.c.cw{fill:var(--c1);animation-name:cw}@keyframes cx{14.98%{fill:var(--c1)}15%,100%{fill:var(--ce)}}.c.cx{fill:var(--c1);animation-name:cx}@keyframes cy{15.24%{fill:var(--c1)}15.26%,100%{fill:var(--ce)}}.c.cy{fill:var(--c1);animation-name:cy}@keyframes cz{24.28%{fill:var(--c1)}24.3%,100%{fill:var(--ce)}}.c.cz{fill:var(--c1);animation-name:cz}@keyframes c10{24.54%{fill:var(--c1)}24.56%,100%{fill:var(--ce)}}.c.c10{fill:var(--c1);animation-name:c10}@keyframes c11{24.8%{fill:var(--c1)}24.82%,100%{fill:var(--ce)}}.c.c11{fill:var(--c1);animation-name:c11}@keyframes c12{9.81%{fill:var(--c1)}9.83%,100%{fill:var(--ce)}}.c.c12{fill:var(--c1);animation-name:c12}@keyframes c13{10.33%{fill:var(--c1)}10.35%,100%{fill:var(--ce)}}.c.c13{fill:var(--c1);animation-name:c13}@keyframes c14{10.58%{fill:var(--c1)}10.6%,100%{fill:var(--ce)}}.c.c14{fill:var(--c1);animation-name:c14}@keyframes c15{10.84%{fill:var(--c1)}10.86%,100%{fill:var(--ce)}}.c.c15{fill:var(--c1);animation-name:c15}@keyframes c16{26.35%{fill:var(--c1)}26.37%,100%{fill:var(--ce)}}.c.c16{fill:var(--c1);animation-name:c16}@keyframes c17{11.1%{fill:var(--c1)}11.12%,100%{fill:var(--ce)}}.c.c17{fill:var(--c1);animation-name:c17}@keyframes c18{11.62%{fill:var(--c1)}11.64%,100%{fill:var(--ce)}}.c.c18{fill:var(--c1);animation-name:c18}@keyframes c19{11.36%{fill:var(--c1)}11.38%,100%{fill:var(--ce)}}.c.c19{fill:var(--c1);animation-name:c19}@keyframes c1a{13.17%{fill:var(--c1)}13.19%,100%{fill:var(--ce)}}.c.c1a{fill:var(--c1);animation-name:c1a}@keyframes c1b{12.39%{fill:var(--c1)}12.41%,100%{fill:var(--ce)}}.c.c1b{fill:var(--c1);animation-name:c1b}@keyframes c1c{12.13%{fill:var(--c1)}12.15%,100%{fill:var(--ce)}}.c.c1c{fill:var(--c1);animation-name:c1c}@keyframes c1d{12.65%{fill:var(--c1)}12.67%,100%{fill:var(--ce)}}.c.c1d{fill:var(--c1);animation-name:c1d}@keyframes c1e{28.93%{fill:var(--c1)}28.95%,100%{fill:var(--ce)}}.c.c1e{fill:var(--c1);animation-name:c1e}@keyframes c1f{27.64%{fill:var(--c1)}27.66%,100%{fill:var(--ce)}}.c.c1f{fill:var(--c1);animation-name:c1f}@keyframes c1g{28.67%{fill:var(--c1)}28.69%,100%{fill:var(--ce)}}.c.c1g{fill:var(--c1);animation-name:c1g}@keyframes c1h{27.9%{fill:var(--c1)}27.92%,100%{fill:var(--ce)}}.c.c1h{fill:var(--c1);animation-name:c1h}@keyframes c1i{28.41%{fill:var(--c1)}28.43%,100%{fill:var(--ce)}}.c.c1i{fill:var(--c1);animation-name:c1i}@keyframes c1j{28.16%{fill:var(--c1)}28.18%,100%{fill:var(--ce)}}.c.c1j{fill:var(--c1);animation-name:c1j}@keyframes c1k{34.62%{fill:var(--c1)}34.64%,100%{fill:var(--ce)}}.c.c1k{fill:var(--c1);animation-name:c1k}@keyframes c1l{33.84%{fill:var(--c1)}33.86%,100%{fill:var(--ce)}}.c.c1l{fill:var(--c1);animation-name:c1l}@keyframes c1m{33.06%{fill:var(--c1)}33.08%,100%{fill:var(--ce)}}.c.c1m{fill:var(--c1);animation-name:c1m}@keyframes c1n{33.58%{fill:var(--c1)}33.6%,100%{fill:var(--ce)}}.c.c1n{fill:var(--c1);animation-name:c1n}@keyframes c1o{33.32%{fill:var(--c1)}33.34%,100%{fill:var(--ce)}}.c.c1o{fill:var(--c1);animation-name:c1o}@keyframes c1p{54.25%{fill:var(--c2)}54.27%,100%{fill:var(--ce)}}.c.c1p{fill:var(--c2);animation-name:c1p}@keyframes c1q{31.26%{fill:var(--c1)}31.28%,100%{fill:var(--ce)}}.c.c1q{fill:var(--c1);animation-name:c1q}@keyframes c1r{30.48%{fill:var(--c1)}30.5%,100%{fill:var(--ce)}}.c.c1r{fill:var(--c1);animation-name:c1r}@keyframes c1s{31.77%{fill:var(--c1)}31.79%,100%{fill:var(--ce)}}.c.c1s{fill:var(--c1);animation-name:c1s}@keyframes c1t{31%{fill:var(--c1)}31.02%,100%{fill:var(--ce)}}.c.c1t{fill:var(--c1);animation-name:c1t}@keyframes c1u{30.74%{fill:var(--c1)}30.76%,100%{fill:var(--ce)}}.c.c1u{fill:var(--c1);animation-name:c1u}@keyframes c1v{74.93%{fill:var(--c3)}74.95%,100%{fill:var(--ce)}}.c.c1v{fill:var(--c3);animation-name:c1v}@keyframes c1w{52.7%{fill:var(--c2)}52.72%,100%{fill:var(--ce)}}.c.c1w{fill:var(--c2);animation-name:c1w}@keyframes c1x{55.55%{fill:var(--c2)}55.57%,100%{fill:var(--ce)}}.c.c1x{fill:var(--c2);animation-name:c1x}@keyframes c1y{36.17%{fill:var(--c1)}36.19%,100%{fill:var(--ce)}}.c.c1y{fill:var(--c1);animation-name:c1y}@keyframes c1z{39.52%{fill:var(--c1)}39.54%,100%{fill:var(--ce)}}.c.c1z{fill:var(--c1);animation-name:c1z}@keyframes c20{38.75%{fill:var(--c1)}38.77%,100%{fill:var(--ce)}}.c.c20{fill:var(--c1);animation-name:c20}@keyframes c21{36.42%{fill:var(--c1)}36.44%,100%{fill:var(--ce)}}.c.c21{fill:var(--c1);animation-name:c21}@keyframes c22{80.09%{fill:var(--c4)}80.11%,100%{fill:var(--ce)}}.c.c22{fill:var(--c4);animation-name:c22}@keyframes c23{38.23%{fill:var(--c1)}38.25%,100%{fill:var(--ce)}}.c.c23{fill:var(--c1);animation-name:c23}@keyframes c24{37.72%{fill:var(--c1)}37.74%,100%{fill:var(--ce)}}.c.c24{fill:var(--c1);animation-name:c24}@keyframes c25{50.89%{fill:var(--c1)}50.91%,100%{fill:var(--ce)}}.c.c25{fill:var(--c1);animation-name:c25}@keyframes c26{50.38%{fill:var(--c1)}50.4%,100%{fill:var(--ce)}}.c.c26{fill:var(--c1);animation-name:c26}@keyframes c27{49.34%{fill:var(--c1)}49.36%,100%{fill:var(--ce)}}.c.c27{fill:var(--c1);animation-name:c27}@keyframes c28{49.09%{fill:var(--c1)}49.11%,100%{fill:var(--ce)}}.c.c28{fill:var(--c1);animation-name:c28}@keyframes c29{41.85%{fill:var(--c1)}41.87%,100%{fill:var(--ce)}}.c.c29{fill:var(--c1);animation-name:c29}@keyframes c2a{78.28%{fill:var(--c3)}78.3%,100%{fill:var(--ce)}}.c.c2a{fill:var(--c3);animation-name:c2a}@keyframes c2b{78.03%{fill:var(--c3)}78.05%,100%{fill:var(--ce)}}.c.c2b{fill:var(--c3);animation-name:c2b}@keyframes c2c{49.86%{fill:var(--c1)}49.88%,100%{fill:var(--ce)}}.c.c2c{fill:var(--c1);animation-name:c2c}@keyframes c2d{42.37%{fill:var(--c1)}42.39%,100%{fill:var(--ce)}}.c.c2d{fill:var(--c1);animation-name:c2d}@keyframes c2e{42.63%{fill:var(--c1)}42.65%,100%{fill:var(--ce)}}.c.c2e{fill:var(--c1);animation-name:c2e}@keyframes c2f{48.05%{fill:var(--c1)}48.07%,100%{fill:var(--ce)}}.c.c2f{fill:var(--c1);animation-name:c2f}@keyframes c2g{43.14%{fill:var(--c1)}43.16%,100%{fill:var(--ce)}}.c.c2g{fill:var(--c1);animation-name:c2g}@keyframes c2h{45.98%{fill:var(--c1)}46%,100%{fill:var(--ce)}}.c.c2h{fill:var(--c1);animation-name:c2h}@keyframes c2i{44.95%{fill:var(--c1)}44.97%,100%{fill:var(--ce)}}.c.c2i{fill:var(--c1);animation-name:c2i}@keyframes c2j{45.21%{fill:var(--c1)}45.23%,100%{fill:var(--ce)}}.c.c2j{fill:var(--c1);animation-name:c2j}@keyframes c2k{45.73%{fill:var(--c1)}45.75%,100%{fill:var(--ce)}}.c.c2k{fill:var(--c1);animation-name:c2k}@keyframes c2l{60.71%{fill:var(--c2)}60.73%,100%{fill:var(--ce)}}.c.c2l{fill:var(--c2);animation-name:c2l}@keyframes c2m{85.52%{fill:var(--c4)}85.54%,100%{fill:var(--ce)}}.c.c2m{fill:var(--c4);animation-name:c2m}@keyframes c2n{85.26%{fill:var(--c4)}85.28%,100%{fill:var(--ce)}}.c.c2n{fill:var(--c4);animation-name:c2n}.u{transform-origin:0 0;transform:scale(0,1);animation:none linear 38700ms infinite}@keyframes u0{0.77%{transform:scale(0.000,1)}0.79%,2.06%{transform:scale(0.012,1)}2.08%,2.57%{transform:scale(0.024,1)}2.59%,3.35%{transform:scale(0.035,1)}3.37%,3.61%{transform:scale(0.047,1)}3.63%,5.16%{transform:scale(0.059,1)}5.18%,5.42%{transform:scale(0.071,1)}5.44%,5.93%{transform:scale(0.082,1)}5.95%,6.19%{transform:scale(0.094,1)}6.21%,6.45%{transform:scale(0.106,1)}6.47%,6.71%{transform:scale(0.118,1)}6.73%,7.23%{transform:scale(0.129,1)}7.25%,7.48%{transform:scale(0.141,1)}7.5%,7.74%{transform:scale(0.153,1)}7.76%,8.52%{transform:scale(0.165,1)}8.54%,9.03%{transform:scale(0.176,1)}9.05%,9.29%{transform:scale(0.188,1)}9.31%,9.81%{transform:scale(0.200,1)}9.83%,10.33%{transform:scale(0.212,1)}10.35%,10.58%{transform:scale(0.224,1)}10.6%,10.84%{transform:scale(0.235,1)}10.86%,11.1%{transform:scale(0.247,1)}11.12%,11.36%{transform:scale(0.259,1)}11.38%,11.62%{transform:scale(0.271,1)}11.64%,12.13%{transform:scale(0.282,1)}12.15%,12.39%{transform:scale(0.294,1)}12.41%,12.65%{transform:scale(0.306,1)}12.67%,13.17%{transform:scale(0.318,1)}13.19%,14.98%{transform:scale(0.329,1)}15%,15.24%{transform:scale(0.341,1)}15.26%,15.49%{transform:scale(0.353,1)}15.51%,15.75%{transform:scale(0.365,1)}15.77%,16.27%{transform:scale(0.376,1)}16.29%,16.53%{transform:scale(0.388,1)}16.55%,17.04%{transform:scale(0.400,1)}17.06%,17.3%{transform:scale(0.412,1)}17.32%,17.82%{transform:scale(0.424,1)}17.84%,18.08%{transform:scale(0.435,1)}18.1%,19.11%{transform:scale(0.447,1)}19.13%,19.37%{transform:scale(0.459,1)}19.39%,19.63%{transform:scale(0.471,1)}19.65%,19.89%{transform:scale(0.482,1)}19.91%,20.92%{transform:scale(0.494,1)}20.94%,24.02%{transform:scale(0.506,1)}24.04%,24.28%{transform:scale(0.518,1)}24.3%,24.54%{transform:scale(0.529,1)}24.56%,24.8%{transform:scale(0.541,1)}24.82%,25.05%{transform:scale(0.553,1)}25.07%,26.35%{transform:scale(0.565,1)}26.37%,27.64%{transform:scale(0.576,1)}27.66%,27.9%{transform:scale(0.588,1)}27.92%,28.16%{transform:scale(0.600,1)}28.18%,28.41%{transform:scale(0.612,1)}28.43%,28.67%{transform:scale(0.624,1)}28.69%,28.93%{transform:scale(0.635,1)}28.95%,30.48%{transform:scale(0.647,1)}30.5%,30.74%{transform:scale(0.659,1)}30.76%,31%{transform:scale(0.671,1)}31.02%,31.26%{transform:scale(0.682,1)}31.28%,31.77%{transform:scale(0.694,1)}31.79%,33.06%{transform:scale(0.706,1)}33.08%,33.32%{transform:scale(0.718,1)}33.34%,33.58%{transform:scale(0.729,1)}33.6%,33.84%{transform:scale(0.741,1)}33.86%,34.62%{transform:scale(0.753,1)}34.64%,36.17%{transform:scale(0.765,1)}36.19%,36.42%{transform:scale(0.776,1)}36.44%,37.72%{transform:scale(0.788,1)}37.74%,38.23%{transform:scale(0.800,1)}38.25%,38.75%{transform:scale(0.812,1)}38.77%,39.52%{transform:scale(0.824,1)}39.54%,41.85%{transform:scale(0.835,1)}41.87%,42.37%{transform:scale(0.847,1)}42.39%,42.63%{transform:scale(0.859,1)}42.65%,43.14%{transform:scale(0.871,1)}43.16%,44.95%{transform:scale(0.882,1)}44.97%,45.21%{transform:scale(0.894,1)}45.23%,45.73%{transform:scale(0.906,1)}45.75%,45.98%{transform:scale(0.918,1)}46%,48.05%{transform:scale(0.929,1)}48.07%,49.09%{transform:scale(0.941,1)}49.11%,49.34%{transform:scale(0.953,1)}49.36%,49.86%{transform:scale(0.965,1)}49.88%,50.38%{transform:scale(0.976,1)}50.4%,50.89%{transform:scale(0.988,1)}50.91%,100%{transform:scale(1.000,1)}}.u.u0{fill:var(--c1);animation-name:u0;transform-origin:0.0px 0}@keyframes u1{52.7%{transform:scale(0.000,1)}52.72%,54.25%{transform:scale(0.200,1)}54.27%,55.55%{transform:scale(0.400,1)}55.57%,60.71%{transform:scale(0.600,1)}60.73%,71.31%{transform:scale(0.800,1)}71.33%,100%{transform:scale(1.000,1)}}.u.u1{fill:var(--c2);animation-name:u1;transform-origin:750.8px 0}@keyframes u2{74.93%{transform:scale(0.000,1)}74.95%,78.03%{transform:scale(0.333,1)}78.05%,78.28%{transform:scale(0.667,1)}78.3%,100%{transform:scale(1.000,1)}}.u.u2{fill:var(--c3);animation-name:u2;transform-origin:795.0px 0}@keyframes u3{80.09%{transform:scale(0.000,1)}80.11%,85.26%{transform:scale(0.333,1)}85.28%,85.52%{transform:scale(0.667,1)}85.54%,100%{transform:scale(1.000,1)}}.u.u3{fill:var(--c4);animation-name:u3;transform-origin:821.5px 0}.s{shape-rendering:geometricPrecision;fill:var(--cs);animation:none linear 38700ms infinite}@keyframes s0{0%,99.74%{transform:translate(0px,-16px)}0.26%{transform:translate(0px,0px)}0.52%{transform:translate(16px,0px)}0.78%{transform:translate(16px,16px)}1.81%{transform:translate(80px,16px)}2.07%{transform:translate(80px,32px)}2.33%{transform:translate(64px,32px)}3.36%{transform:translate(64px,96px)}3.62%{transform:translate(48px,96px)}3.88%{transform:translate(48px,80px)}5.17%{transform:translate(128px,80px)}5.43%{transform:translate(128px,64px)}5.94%{transform:translate(160px,64px)}6.46%,18.86%{transform:translate(160px,32px)}7.24%{transform:translate(208px,32px)}7.75%{transform:translate(208px,0px)}8.27%{transform:translate(240px,0px)}8.53%{transform:translate(240px,16px)}9.04%{transform:translate(272px,16px)}9.3%,14.47%{transform:translate(272px,0px)}9.82%{transform:translate(304px,0px)}10.85%{transform:translate(304px,64px)}11.37%{transform:translate(336px,64px)}11.63%{transform:translate(336px,48px)}11.89%{transform:translate(352px,48px)}12.4%{transform:translate(352px,16px)}12.66%{transform:translate(368px,16px)}12.92%{transform:translate(368px,0px)}15.25%{transform:translate(272px,48px)}16.28%{transform:translate(208px,48px)}16.54%{transform:translate(208px,64px)}16.8%{transform:translate(192px,64px)}17.31%{transform:translate(192px,96px)}17.83%{transform:translate(160px,96px)}19.12%{transform:translate(144px,32px)}19.64%{transform:translate(144px,0px)}19.9%{transform:translate(160px,0px)}20.16%{transform:translate(160px,-16px)}20.67%{transform:translate(128px,-16px)}20.93%{transform:translate(128px,0px)}23%{transform:translate(256px,0px)}24.03%{transform:translate(256px,64px)}24.29%{transform:translate(272px,64px)}24.81%{transform:translate(272px,96px)}25.06%{transform:translate(256px,96px)}25.32%{transform:translate(256px,112px)}26.1%{transform:translate(304px,112px)}26.36%{transform:translate(304px,96px)}28.17%{transform:translate(416px,96px)}28.42%{transform:translate(416px,80px)}28.94%{transform:translate(384px,80px)}29.2%{transform:translate(384px,64px)}30.75%{transform:translate(480px,64px)}31.01%{transform:translate(480px,48px)}31.27%{transform:translate(464px,48px)}31.78%{transform:translate(464px,80px)}32.04%{transform:translate(448px,80px)}33.07%,35.14%{transform:translate(448px,16px)}33.33%{transform:translate(464px,16px)}33.59%{transform:translate(464px,0px)}34.11%{transform:translate(432px,0px)}34.63%{transform:translate(432px,32px)}34.88%{transform:translate(448px,32px)}36.95%{transform:translate(560px,16px)}37.73%{transform:translate(560px,64px)}37.98%{transform:translate(544px,64px)}38.24%{transform:translate(544px,80px)}38.76%{transform:translate(512px,80px)}39.79%{transform:translate(512px,16px)}42.89%{transform:translate(704px,16px)}43.15%{transform:translate(704px,0px)}44.7%{transform:translate(800px,0px)}45.74%{transform:translate(800px,64px)}47.55%{transform:translate(688px,64px)}48.06%{transform:translate(688px,96px)}49.1%{transform:translate(624px,96px)}49.35%{transform:translate(624px,80px)}49.61%,77.52%{transform:translate(640px,80px)}49.87%{transform:translate(640px,64px)}50.65%{transform:translate(592px,64px)}50.9%{transform:translate(592px,80px)}52.45%{transform:translate(496px,80px)}52.71%{transform:translate(496px,96px)}53.23%{transform:translate(464px,96px)}54.26%{transform:translate(464px,32px)}55.04%{transform:translate(512px,32px)}55.56%{transform:translate(512px,0px)}60.72%{transform:translate(832px,0px)}60.98%{transform:translate(832px,16px)}70.28%{transform:translate(256px,16px)}71.32%{transform:translate(256px,80px)}78.29%{transform:translate(640px,32px)}80.1%{transform:translate(528px,32px)}80.36%{transform:translate(528px,48px)}85.27%{transform:translate(832px,48px)}85.53%{transform:translate(832px,32px)}98.19%{transform:translate(48px,32px)}98.97%{transform:translate(48px,-16px)}}.s.s0{transform:translate(0px,-16px);animation-name:s0}@keyframes s1{0%,99.74%{transform:translate(16px,-16px)}0.26%{transform:translate(0px,-16px)}0.52%{transform:translate(0px,0px)}0.78%{transform:translate(16px,0px)}1.03%{transform:translate(16px,16px)}2.07%{transform:translate(80px,16px)}2.33%{transform:translate(80px,32px)}2.58%{transform:translate(64px,32px)}3.62%{transform:translate(64px,96px)}3.88%{transform:translate(48px,96px)}4.13%{transform:translate(48px,80px)}5.43%{transform:translate(128px,80px)}5.68%{transform:translate(128px,64px)}6.2%{transform:translate(160px,64px)}6.72%,19.12%{transform:translate(160px,32px)}7.49%{transform:translate(208px,32px)}8.01%{transform:translate(208px,0px)}8.53%{transform:translate(240px,0px)}8.79%{transform:translate(240px,16px)}9.3%{transform:translate(272px,16px)}9.56%,14.73%{transform:translate(272px,0px)}10.08%{transform:translate(304px,0px)}11.11%{transform:translate(304px,64px)}11.63%{transform:translate(336px,64px)}11.89%{transform:translate(336px,48px)}12.14%{transform:translate(352px,48px)}12.66%{transform:translate(352px,16px)}12.92%{transform:translate(368px,16px)}13.18%{transform:translate(368px,0px)}15.5%{transform:translate(272px,48px)}16.54%{transform:translate(208px,48px)}16.8%{transform:translate(208px,64px)}17.05%{transform:translate(192px,64px)}17.57%{transform:translate(192px,96px)}18.09%{transform:translate(160px,96px)}19.38%{transform:translate(144px,32px)}19.9%{transform:translate(144px,0px)}20.16%{transform:translate(160px,0px)}20.41%{transform:translate(160px,-16px)}20.93%{transform:translate(128px,-16px)}21.19%{transform:translate(128px,0px)}23.26%{transform:translate(256px,0px)}24.29%{transform:translate(256px,64px)}24.55%{transform:translate(272px,64px)}25.06%{transform:translate(272px,96px)}25.32%{transform:translate(256px,96px)}25.58%{transform:translate(256px,112px)}26.36%{transform:translate(304px,112px)}26.61%{transform:translate(304px,96px)}28.42%{transform:translate(416px,96px)}28.68%{transform:translate(416px,80px)}29.2%{transform:translate(384px,80px)}29.46%{transform:translate(384px,64px)}31.01%{transform:translate(480px,64px)}31.27%{transform:translate(480px,48px)}31.52%{transform:translate(464px,48px)}32.04%{transform:translate(464px,80px)}32.3%{transform:translate(448px,80px)}33.33%,35.4%{transform:translate(448px,16px)}33.59%{transform:translate(464px,16px)}33.85%{transform:translate(464px,0px)}34.37%{transform:translate(432px,0px)}34.88%{transform:translate(432px,32px)}35.14%{transform:translate(448px,32px)}37.21%{transform:translate(560px,16px)}37.98%{transform:translate(560px,64px)}38.24%{transform:translate(544px,64px)}38.5%{transform:translate(544px,80px)}39.02%{transform:translate(512px,80px)}40.05%{transform:translate(512px,16px)}43.15%{transform:translate(704px,16px)}43.41%{transform:translate(704px,0px)}44.96%{transform:translate(800px,0px)}45.99%{transform:translate(800px,64px)}47.8%{transform:translate(688px,64px)}48.32%{transform:translate(688px,96px)}49.35%{transform:translate(624px,96px)}49.61%{transform:translate(624px,80px)}49.87%,77.78%{transform:translate(640px,80px)}50.13%{transform:translate(640px,64px)}50.9%{transform:translate(592px,64px)}51.16%{transform:translate(592px,80px)}52.71%{transform:translate(496px,80px)}52.97%{transform:translate(496px,96px)}53.49%{transform:translate(464px,96px)}54.52%{transform:translate(464px,32px)}55.3%{transform:translate(512px,32px)}55.81%{transform:translate(512px,0px)}60.98%{transform:translate(832px,0px)}61.24%{transform:translate(832px,16px)}70.54%{transform:translate(256px,16px)}71.58%{transform:translate(256px,80px)}78.55%{transform:translate(640px,32px)}80.36%{transform:translate(528px,32px)}80.62%{transform:translate(528px,48px)}85.53%{transform:translate(832px,48px)}85.79%{transform:translate(832px,32px)}98.45%{transform:translate(48px,32px)}99.22%{transform:translate(48px,-16px)}}.s.s1{transform:translate(16px,-16px);animation-name:s1}@keyframes s2{0%,99.74%{transform:translate(32px,-16px)}0.52%{transform:translate(0px,-16px)}0.78%{transform:translate(0px,0px)}1.03%{transform:translate(16px,0px)}1.29%{transform:translate(16px,16px)}2.33%{transform:translate(80px,16px)}2.58%{transform:translate(80px,32px)}2.84%{transform:translate(64px,32px)}3.88%{transform:translate(64px,96px)}4.13%{transform:translate(48px,96px)}4.39%{transform:translate(48px,80px)}5.68%{transform:translate(128px,80px)}5.94%{transform:translate(128px,64px)}6.46%{transform:translate(160px,64px)}6.98%,19.38%{transform:translate(160px,32px)}7.75%{transform:translate(208px,32px)}8.27%{transform:translate(208px,0px)}8.79%{transform:translate(240px,0px)}9.04%{transform:translate(240px,16px)}9.56%{transform:translate(272px,16px)}9.82%,14.99%{transform:translate(272px,0px)}10.34%{transform:translate(304px,0px)}11.37%{transform:translate(304px,64px)}11.89%{transform:translate(336px,64px)}12.14%{transform:translate(336px,48px)}12.4%{transform:translate(352px,48px)}12.92%{transform:translate(352px,16px)}13.18%{transform:translate(368px,16px)}13.44%{transform:translate(368px,0px)}15.76%{transform:translate(272px,48px)}16.8%{transform:translate(208px,48px)}17.05%{transform:translate(208px,64px)}17.31%{transform:translate(192px,64px)}17.83%{transform:translate(192px,96px)}18.35%{transform:translate(160px,96px)}19.64%{transform:translate(144px,32px)}20.16%{transform:translate(144px,0px)}20.41%{transform:translate(160px,0px)}20.67%{transform:translate(160px,-16px)}21.19%{transform:translate(128px,-16px)}21.45%{transform:translate(128px,0px)}23.51%{transform:translate(256px,0px)}24.55%{transform:translate(256px,64px)}24.81%{transform:translate(272px,64px)}25.32%{transform:translate(272px,96px)}25.58%{transform:translate(256px,96px)}25.84%{transform:translate(256px,112px)}26.61%{transform:translate(304px,112px)}26.87%{transform:translate(304px,96px)}28.68%{transform:translate(416px,96px)}28.94%{transform:translate(416px,80px)}29.46%{transform:translate(384px,80px)}29.72%{transform:translate(384px,64px)}31.27%{transform:translate(480px,64px)}31.52%{transform:translate(480px,48px)}31.78%{transform:translate(464px,48px)}32.3%{transform:translate(464px,80px)}32.56%{transform:translate(448px,80px)}33.59%,35.66%{transform:translate(448px,16px)}33.85%{transform:translate(464px,16px)}34.11%{transform:translate(464px,0px)}34.63%{transform:translate(432px,0px)}35.14%{transform:translate(432px,32px)}35.4%{transform:translate(448px,32px)}37.47%{transform:translate(560px,16px)}38.24%{transform:translate(560px,64px)}38.5%{transform:translate(544px,64px)}38.76%{transform:translate(544px,80px)}39.28%{transform:translate(512px,80px)}40.31%{transform:translate(512px,16px)}43.41%{transform:translate(704px,16px)}43.67%{transform:translate(704px,0px)}45.22%{transform:translate(800px,0px)}46.25%{transform:translate(800px,64px)}48.06%{transform:translate(688px,64px)}48.58%{transform:translate(688px,96px)}49.61%{transform:translate(624px,96px)}49.87%{transform:translate(624px,80px)}50.13%,78.04%{transform:translate(640px,80px)}50.39%{transform:translate(640px,64px)}51.16%{transform:translate(592px,64px)}51.42%{transform:translate(592px,80px)}52.97%{transform:translate(496px,80px)}53.23%{transform:translate(496px,96px)}53.75%{transform:translate(464px,96px)}54.78%{transform:translate(464px,32px)}55.56%{transform:translate(512px,32px)}56.07%{transform:translate(512px,0px)}61.24%{transform:translate(832px,0px)}61.5%{transform:translate(832px,16px)}70.8%{transform:translate(256px,16px)}71.83%{transform:translate(256px,80px)}78.81%{transform:translate(640px,32px)}80.62%{transform:translate(528px,32px)}80.88%{transform:translate(528px,48px)}85.79%{transform:translate(832px,48px)}86.05%{transform:translate(832px,32px)}98.71%{transform:translate(48px,32px)}99.48%{transform:translate(48px,-16px)}}.s.s2{transform:translate(32px,-16px);animation-name:s2}@keyframes s3{0%,99.74%{transform:translate(48px,-16px)}0.78%{transform:translate(0px,-16px)}1.03%{transform:translate(0px,0px)}1.29%{transform:translate(16px,0px)}1.55%{transform:translate(16px,16px)}2.58%{transform:translate(80px,16px)}2.84%{transform:translate(80px,32px)}3.1%{transform:translate(64px,32px)}4.13%{transform:translate(64px,96px)}4.39%{transform:translate(48px,96px)}4.65%{transform:translate(48px,80px)}5.94%{transform:translate(128px,80px)}6.2%{transform:translate(128px,64px)}6.72%{transform:translate(160px,64px)}7.24%,19.64%{transform:translate(160px,32px)}8.01%{transform:translate(208px,32px)}8.53%{transform:translate(208px,0px)}9.04%{transform:translate(240px,0px)}9.3%{transform:translate(240px,16px)}9.82%{transform:translate(272px,16px)}10.08%,15.25%{transform:translate(272px,0px)}10.59%{transform:translate(304px,0px)}11.63%{transform:translate(304px,64px)}12.14%{transform:translate(336px,64px)}12.4%{transform:translate(336px,48px)}12.66%{transform:translate(352px,48px)}13.18%{transform:translate(352px,16px)}13.44%{transform:translate(368px,16px)}13.7%{transform:translate(368px,0px)}16.02%{transform:translate(272px,48px)}17.05%{transform:translate(208px,48px)}17.31%{transform:translate(208px,64px)}17.57%{transform:translate(192px,64px)}18.09%{transform:translate(192px,96px)}18.6%{transform:translate(160px,96px)}19.9%{transform:translate(144px,32px)}20.41%{transform:translate(144px,0px)}20.67%{transform:translate(160px,0px)}20.93%{transform:translate(160px,-16px)}21.45%{transform:translate(128px,-16px)}21.71%{transform:translate(128px,0px)}23.77%{transform:translate(256px,0px)}24.81%{transform:translate(256px,64px)}25.06%{transform:translate(272px,64px)}25.58%{transform:translate(272px,96px)}25.84%{transform:translate(256px,96px)}26.1%{transform:translate(256px,112px)}26.87%{transform:translate(304px,112px)}27.13%{transform:translate(304px,96px)}28.94%{transform:translate(416px,96px)}29.2%{transform:translate(416px,80px)}29.72%{transform:translate(384px,80px)}29.97%{transform:translate(384px,64px)}31.52%{transform:translate(480px,64px)}31.78%{transform:translate(480px,48px)}32.04%{transform:translate(464px,48px)}32.56%{transform:translate(464px,80px)}32.82%{transform:translate(448px,80px)}33.85%,35.92%{transform:translate(448px,16px)}34.11%{transform:translate(464px,16px)}34.37%{transform:translate(464px,0px)}34.88%{transform:translate(432px,0px)}35.4%{transform:translate(432px,32px)}35.66%{transform:translate(448px,32px)}37.73%{transform:translate(560px,16px)}38.5%{transform:translate(560px,64px)}38.76%{transform:translate(544px,64px)}39.02%{transform:translate(544px,80px)}39.53%{transform:translate(512px,80px)}40.57%{transform:translate(512px,16px)}43.67%{transform:translate(704px,16px)}43.93%{transform:translate(704px,0px)}45.48%{transform:translate(800px,0px)}46.51%{transform:translate(800px,64px)}48.32%{transform:translate(688px,64px)}48.84%{transform:translate(688px,96px)}49.87%{transform:translate(624px,96px)}50.13%{transform:translate(624px,80px)}50.39%,78.29%{transform:translate(640px,80px)}50.65%{transform:translate(640px,64px)}51.42%{transform:translate(592px,64px)}51.68%{transform:translate(592px,80px)}53.23%{transform:translate(496px,80px)}53.49%{transform:translate(496px,96px)}54.01%{transform:translate(464px,96px)}55.04%{transform:translate(464px,32px)}55.81%{transform:translate(512px,32px)}56.33%{transform:translate(512px,0px)}61.5%{transform:translate(832px,0px)}61.76%{transform:translate(832px,16px)}71.06%{transform:translate(256px,16px)}72.09%{transform:translate(256px,80px)}79.07%{transform:translate(640px,32px)}80.88%{transform:translate(528px,32px)}81.14%{transform:translate(528px,48px)}86.05%{transform:translate(832px,48px)}86.3%{transform:translate(832px,32px)}98.97%{transform:translate(48px,32px)}}.s.s3{transform:translate(48px,-16px);animation-name:s3}</style><rect class="c" x="2" y="2" rx="2" ry="2"/><rect class="c" x="2" y="18" rx="2" ry="2"/><rect class="c" x="2" y="34" rx="2" ry="2"/><rect class="c" x="2" y="50" rx="2" ry="2"/><rect class="c" x="2" y="66" rx="2" ry="2"/><rect class="c" x="2" y="82" rx="2" ry="2"/><rect class="c" x="2" y="98" rx="2" ry="2"/><rect class="c" x="18" y="2" rx="2" ry="2"/><rect class="c c0" x="18" y="18" rx="2" ry="2"/><rect class="c" x="18" y="34" rx="2" ry="2"/><rect class="c" x="18" y="50" rx="2" ry="2"/><rect class="c" x="18" y="66" rx="2" ry="2"/><rect class="c" x="18" y="82" rx="2" ry="2"/><rect class="c" x="18" y="98" rx="2" ry="2"/><rect class="c" x="34" y="2" rx="2" ry="2"/><rect class="c" x="34" y="18" rx="2" ry="2"/><rect class="c" x="34" y="34" rx="2" ry="2"/><rect class="c" x="34" y="50" rx="2" ry="2"/><rect class="c" x="34" y="66" rx="2" ry="2"/><rect class="c" x="34" y="82" rx="2" ry="2"/><rect class="c" x="34" y="98" rx="2" ry="2"/><rect class="c" x="50" y="2" rx="2" ry="2"/><rect class="c" x="50" y="18" rx="2" ry="2"/><rect class="c" x="50" y="34" rx="2" ry="2"/><rect class="c" x="50" y="50" rx="2" ry="2"/><rect class="c" x="50" y="66" rx="2" ry="2"/><rect class="c" x="50" y="82" rx="2" ry="2"/><rect class="c c1" x="50" y="98" rx="2" ry="2"/><rect class="c" x="66" y="2" rx="2" ry="2"/><rect class="c" x="66" y="18" rx="2" ry="2"/><rect class="c" x="66" y="34" rx="2" ry="2"/><rect class="c c2" x="66" y="50" rx="2" ry="2"/><rect class="c" x="66" y="66" rx="2" ry="2"/><rect class="c" x="66" y="82" rx="2" ry="2"/><rect class="c c3" x="66" y="98" rx="2" ry="2"/><rect class="c" x="82" y="2" rx="2" ry="2"/><rect class="c" x="82" y="18" rx="2" ry="2"/><rect class="c c4" x="82" y="34" rx="2" ry="2"/><rect class="c" x="82" y="50" rx="2" ry="2"/><rect class="c" x="82" y="66" rx="2" ry="2"/><rect class="c" x="82" y="82" rx="2" ry="2"/><rect class="c" x="82" y="98" rx="2" ry="2"/><rect class="c" x="98" y="2" rx="2" ry="2"/><rect class="c" x="98" y="18" rx="2" ry="2"/><rect class="c" x="98" y="34" rx="2" ry="2"/><rect class="c" x="98" y="50" rx="2" ry="2"/><rect class="c" x="98" y="66" rx="2" ry="2"/><rect class="c" x="98" y="82" rx="2" ry="2"/><rect class="c" x="98" y="98" rx="2" ry="2"/><rect class="c" x="114" y="2" rx="2" ry="2"/><rect class="c" x="114" y="18" rx="2" ry="2"/><rect class="c" x="114" y="34" rx="2" ry="2"/><rect class="c" x="114" y="50" rx="2" ry="2"/><rect class="c" x="114" y="66" rx="2" ry="2"/><rect class="c" x="114" y="82" rx="2" ry="2"/><rect class="c" x="114" y="98" rx="2" ry="2"/><rect class="c c5" x="130" y="2" rx="2" ry="2"/><rect class="c" x="130" y="18" rx="2" ry="2"/><rect class="c" x="130" y="34" rx="2" ry="2"/><rect class="c" x="130" y="50" rx="2" ry="2"/><rect class="c c6" x="130" y="66" rx="2" ry="2"/><rect class="c c7" x="130" y="82" rx="2" ry="2"/><rect class="c" x="130" y="98" rx="2" ry="2"/><rect class="c c8" x="146" y="2" rx="2" ry="2"/><rect class="c c9" x="146" y="18" rx="2" ry="2"/><rect class="c ca" x="146" y="34" rx="2" ry="2"/><rect class="c" x="146" y="50" rx="2" ry="2"/><rect class="c" x="146" y="66" rx="2" ry="2"/><rect class="c" x="146" y="82" rx="2" ry="2"/><rect class="c" x="146" y="98" rx="2" ry="2"/><rect class="c cb" x="162" y="2" rx="2" ry="2"/><rect class="c" x="162" y="18" rx="2" ry="2"/><rect class="c cc" x="162" y="34" rx="2" ry="2"/><rect class="c cd" x="162" y="50" rx="2" ry="2"/><rect class="c ce" x="162" y="66" rx="2" ry="2"/><rect class="c cf" x="162" y="82" rx="2" ry="2"/><rect class="c cg" x="162" y="98" rx="2" ry="2"/><rect class="c" x="178" y="2" rx="2" ry="2"/><rect class="c" x="178" y="18" rx="2" ry="2"/><rect class="c ch" x="178" y="34" rx="2" ry="2"/><rect class="c" x="178" y="50" rx="2" ry="2"/><rect class="c" x="178" y="66" rx="2" ry="2"/><rect class="c" x="178" y="82" rx="2" ry="2"/><rect class="c" x="178" y="98" rx="2" ry="2"/><rect class="c" x="194" y="2" rx="2" ry="2"/><rect class="c" x="194" y="18" rx="2" ry="2"/><rect class="c" x="194" y="34" rx="2" ry="2"/><rect class="c" x="194" y="50" rx="2" ry="2"/><rect class="c" x="194" y="66" rx="2" ry="2"/><rect class="c ci" x="194" y="82" rx="2" ry="2"/><rect class="c cj" x="194" y="98" rx="2" ry="2"/><rect class="c ck" x="210" y="2" rx="2" ry="2"/><rect class="c cl" x="210" y="18" rx="2" ry="2"/><rect class="c cm" x="210" y="34" rx="2" ry="2"/><rect class="c cn" x="210" y="50" rx="2" ry="2"/><rect class="c co" x="210" y="66" rx="2" ry="2"/><rect class="c" x="210" y="82" rx="2" ry="2"/><rect class="c" x="210" y="98" rx="2" ry="2"/><rect class="c" x="226" y="2" rx="2" ry="2"/><rect class="c" x="226" y="18" rx="2" ry="2"/><rect class="c" x="226" y="34" rx="2" ry="2"/><rect class="c" x="226" y="50" rx="2" ry="2"/><rect class="c" x="226" y="66" rx="2" ry="2"/><rect class="c" x="226" y="82" rx="2" ry="2"/><rect class="c" x="226" y="98" rx="2" ry="2"/><rect class="c" x="242" y="2" rx="2" ry="2"/><rect class="c cp" x="242" y="18" rx="2" ry="2"/><rect class="c" x="242" y="34" rx="2" ry="2"/><rect class="c cq" x="242" y="50" rx="2" ry="2"/><rect class="c" x="242" y="66" rx="2" ry="2"/><rect class="c" x="242" y="82" rx="2" ry="2"/><rect class="c" x="242" y="98" rx="2" ry="2"/><rect class="c" x="258" y="2" rx="2" ry="2"/><rect class="c" x="258" y="18" rx="2" ry="2"/><rect class="c" x="258" y="34" rx="2" ry="2"/><rect class="c cr" x="258" y="50" rx="2" ry="2"/><rect class="c cs" x="258" y="66" rx="2" ry="2"/><rect class="c ct" x="258" y="82" rx="2" ry="2"/><rect class="c cu" x="258" y="98" rx="2" ry="2"/><rect class="c cv" x="274" y="2" rx="2" ry="2"/><rect class="c cw" x="274" y="18" rx="2" ry="2"/><rect class="c cx" x="274" y="34" rx="2" ry="2"/><rect class="c cy" x="274" y="50" rx="2" ry="2"/><rect class="c cz" x="274" y="66" rx="2" ry="2"/><rect class="c c10" x="274" y="82" rx="2" ry="2"/><rect class="c c11" x="274" y="98" rx="2" ry="2"/><rect class="c" x="290" y="2" rx="2" ry="2"/><rect class="c" x="290" y="18" rx="2" ry="2"/><rect class="c" x="290" y="34" rx="2" ry="2"/><rect class="c" x="290" y="50" rx="2" ry="2"/><rect class="c" x="290" y="66" rx="2" ry="2"/><rect class="c" x="290" y="82" rx="2" ry="2"/><rect class="c" x="290" y="98" rx="2" ry="2"/><rect class="c c12" x="306" y="2" rx="2" ry="2"/><rect class="c" x="306" y="18" rx="2" ry="2"/><rect class="c c13" x="306" y="34" rx="2" ry="2"/><rect class="c c14" x="306" y="50" rx="2" ry="2"/><rect class="c c15" x="306" y="66" rx="2" ry="2"/><rect class="c" x="306" y="82" rx="2" ry="2"/><rect class="c c16" x="306" y="98" rx="2" ry="2"/><rect class="c" x="322" y="2" rx="2" ry="2"/><rect class="c" x="322" y="18" rx="2" ry="2"/><rect class="c" x="322" y="34" rx="2" ry="2"/><rect class="c" x="322" y="50" rx="2" ry="2"/><rect class="c c17" x="322" y="66" rx="2" ry="2"/><rect class="c" x="322" y="82" rx="2" ry="2"/><rect class="c" x="322" y="98" rx="2" ry="2"/><rect class="c" x="338" y="2" rx="2" ry="2"/><rect class="c" x="338" y="18" rx="2" ry="2"/><rect class="c" x="338" y="34" rx="2" ry="2"/><rect class="c c18" x="338" y="50" rx="2" ry="2"/><rect class="c c19" x="338" y="66" rx="2" ry="2"/><rect class="c" x="338" y="82" rx="2" ry="2"/><rect class="c" x="338" y="98" rx="2" ry="2"/><rect class="c c1a" x="354" y="2" rx="2" ry="2"/><rect class="c c1b" x="354" y="18" rx="2" ry="2"/><rect class="c c1c" x="354" y="34" rx="2" ry="2"/><rect class="c" x="354" y="50" rx="2" ry="2"/><rect class="c" x="354" y="66" rx="2" ry="2"/><rect class="c" x="354" y="82" rx="2" ry="2"/><rect class="c" x="354" y="98" rx="2" ry="2"/><rect class="c" x="370" y="2" rx="2" ry="2"/><rect class="c c1d" x="370" y="18" rx="2" ry="2"/><rect class="c" x="370" y="34" rx="2" ry="2"/><rect class="c" x="370" y="50" rx="2" ry="2"/><rect class="c" x="370" y="66" rx="2" ry="2"/><rect class="c" x="370" y="82" rx="2" ry="2"/><rect class="c" x="370" y="98" rx="2" ry="2"/><rect class="c" x="386" y="2" rx="2" ry="2"/><rect class="c" x="386" y="18" rx="2" ry="2"/><rect class="c" x="386" y="34" rx="2" ry="2"/><rect class="c" x="386" y="50" rx="2" ry="2"/><rect class="c" x="386" y="66" rx="2" ry="2"/><rect class="c c1e" x="386" y="82" rx="2" ry="2"/><rect class="c c1f" x="386" y="98" rx="2" ry="2"/><rect class="c" x="402" y="2" rx="2" ry="2"/><rect class="c" x="402" y="18" rx="2" ry="2"/><rect class="c" x="402" y="34" rx="2" ry="2"/><rect class="c" x="402" y="50" rx="2" ry="2"/><rect class="c" x="402" y="66" rx="2" ry="2"/><rect class="c c1g" x="402" y="82" rx="2" ry="2"/><rect class="c c1h" x="402" y="98" rx="2" ry="2"/><rect class="c" x="418" y="2" rx="2" ry="2"/><rect class="c" x="418" y="18" rx="2" ry="2"/><rect class="c" x="418" y="34" rx="2" ry="2"/><rect class="c" x="418" y="50" rx="2" ry="2"/><rect class="c" x="418" y="66" rx="2" ry="2"/><rect class="c c1i" x="418" y="82" rx="2" ry="2"/><rect class="c c1j" x="418" y="98" rx="2" ry="2"/><rect class="c" x="434" y="2" rx="2" ry="2"/><rect class="c" x="434" y="18" rx="2" ry="2"/><rect class="c c1k" x="434" y="34" rx="2" ry="2"/><rect class="c" x="434" y="50" rx="2" ry="2"/><rect class="c" x="434" y="66" rx="2" ry="2"/><rect class="c" x="434" y="82" rx="2" ry="2"/><rect class="c" x="434" y="98" rx="2" ry="2"/><rect class="c c1l" x="450" y="2" rx="2" ry="2"/><rect class="c c1m" x="450" y="18" rx="2" ry="2"/><rect class="c" x="450" y="34" rx="2" ry="2"/><rect class="c" x="450" y="50" rx="2" ry="2"/><rect class="c" x="450" y="66" rx="2" ry="2"/><rect class="c" x="450" y="82" rx="2" ry="2"/><rect class="c" x="450" y="98" rx="2" ry="2"/><rect class="c c1n" x="466" y="2" rx="2" ry="2"/><rect class="c c1o" x="466" y="18" rx="2" ry="2"/><rect class="c c1p" x="466" y="34" rx="2" ry="2"/><rect class="c c1q" x="466" y="50" rx="2" ry="2"/><rect class="c c1r" x="466" y="66" rx="2" ry="2"/><rect class="c c1s" x="466" y="82" rx="2" ry="2"/><rect class="c" x="466" y="98" rx="2" ry="2"/><rect class="c" x="482" y="2" rx="2" ry="2"/><rect class="c" x="482" y="18" rx="2" ry="2"/><rect class="c" x="482" y="34" rx="2" ry="2"/><rect class="c c1t" x="482" y="50" rx="2" ry="2"/><rect class="c c1u" x="482" y="66" rx="2" ry="2"/><rect class="c c1v" x="482" y="82" rx="2" ry="2"/><rect class="c" x="482" y="98" rx="2" ry="2"/><rect class="c" x="498" y="2" rx="2" ry="2"/><rect class="c" x="498" y="18" rx="2" ry="2"/><rect class="c" x="498" y="34" rx="2" ry="2"/><rect class="c" x="498" y="50" rx="2" ry="2"/><rect class="c" x="498" y="66" rx="2" ry="2"/><rect class="c" x="498" y="82" rx="2" ry="2"/><rect class="c c1w" x="498" y="98" rx="2" ry="2"/><rect class="c c1x" x="514" y="2" rx="2" ry="2"/><rect class="c c1y" x="514" y="18" rx="2" ry="2"/><rect class="c c1z" x="514" y="34" rx="2" ry="2"/><rect class="c" x="514" y="50" rx="2" ry="2"/><rect class="c" x="514" y="66" rx="2" ry="2"/><rect class="c c20" x="514" y="82" rx="2" ry="2"/><rect class="c" x="514" y="98" rx="2" ry="2"/><rect class="c" x="530" y="2" rx="2" ry="2"/><rect class="c c21" x="530" y="18" rx="2" ry="2"/><rect class="c c22" x="530" y="34" rx="2" ry="2"/><rect class="c" x="530" y="50" rx="2" ry="2"/><rect class="c" x="530" y="66" rx="2" ry="2"/><rect class="c" x="530" y="82" rx="2" ry="2"/><rect class="c" x="530" y="98" rx="2" ry="2"/><rect class="c" x="546" y="2" rx="2" ry="2"/><rect class="c" x="546" y="18" rx="2" ry="2"/><rect class="c" x="546" y="34" rx="2" ry="2"/><rect class="c" x="546" y="50" rx="2" ry="2"/><rect class="c" x="546" y="66" rx="2" ry="2"/><rect class="c c23" x="546" y="82" rx="2" ry="2"/><rect class="c" x="546" y="98" rx="2" ry="2"/><rect class="c" x="562" y="2" rx="2" ry="2"/><rect class="c" x="562" y="18" rx="2" ry="2"/><rect class="c" x="562" y="34" rx="2" ry="2"/><rect class="c" x="562" y="50" rx="2" ry="2"/><rect class="c c24" x="562" y="66" rx="2" ry="2"/><rect class="c" x="562" y="82" rx="2" ry="2"/><rect class="c" x="562" y="98" rx="2" ry="2"/><rect class="c" x="578" y="2" rx="2" ry="2"/><rect class="c" x="578" y="18" rx="2" ry="2"/><rect class="c" x="578" y="34" rx="2" ry="2"/><rect class="c" x="578" y="50" rx="2" ry="2"/><rect class="c" x="578" y="66" rx="2" ry="2"/><rect class="c" x="578" y="82" rx="2" ry="2"/><rect class="c" x="578" y="98" rx="2" ry="2"/><rect class="c" x="594" y="2" rx="2" ry="2"/><rect class="c" x="594" y="18" rx="2" ry="2"/><rect class="c" x="594" y="34" rx="2" ry="2"/><rect class="c" x="594" y="50" rx="2" ry="2"/><rect class="c" x="594" y="66" rx="2" ry="2"/><rect class="c c25" x="594" y="82" rx="2" ry="2"/><rect class="c" x="594" y="98" rx="2" ry="2"/><rect class="c" x="610" y="2" rx="2" ry="2"/><rect class="c" x="610" y="18" rx="2" ry="2"/><rect class="c" x="610" y="34" rx="2" ry="2"/><rect class="c" x="610" y="50" rx="2" ry="2"/><rect class="c c26" x="610" y="66" rx="2" ry="2"/><rect class="c" x="610" y="82" rx="2" ry="2"/><rect class="c" x="610" y="98" rx="2" ry="2"/><rect class="c" x="626" y="2" rx="2" ry="2"/><rect class="c" x="626" y="18" rx="2" ry="2"/><rect class="c" x="626" y="34" rx="2" ry="2"/><rect class="c" x="626" y="50" rx="2" ry="2"/><rect class="c" x="626" y="66" rx="2" ry="2"/><rect class="c c27" x="626" y="82" rx="2" ry="2"/><rect class="c c28" x="626" y="98" rx="2" ry="2"/><rect class="c" x="642" y="2" rx="2" ry="2"/><rect class="c c29" x="642" y="18" rx="2" ry="2"/><rect class="c c2a" x="642" y="34" rx="2" ry="2"/><rect class="c c2b" x="642" y="50" rx="2" ry="2"/><rect class="c c2c" x="642" y="66" rx="2" ry="2"/><rect class="c" x="642" y="82" rx="2" ry="2"/><rect class="c" x="642" y="98" rx="2" ry="2"/><rect class="c" x="658" y="2" rx="2" ry="2"/><rect class="c" x="658" y="18" rx="2" ry="2"/><rect class="c" x="658" y="34" rx="2" ry="2"/><rect class="c" x="658" y="50" rx="2" ry="2"/><rect class="c" x="658" y="66" rx="2" ry="2"/><rect class="c" x="658" y="82" rx="2" ry="2"/><rect class="c" x="658" y="98" rx="2" ry="2"/><rect class="c" x="674" y="2" rx="2" ry="2"/><rect class="c c2d" x="674" y="18" rx="2" ry="2"/><rect class="c" x="674" y="34" rx="2" ry="2"/><rect class="c" x="674" y="50" rx="2" ry="2"/><rect class="c" x="674" y="66" rx="2" ry="2"/><rect class="c" x="674" y="82" rx="2" ry="2"/><rect class="c" x="674" y="98" rx="2" ry="2"/><rect class="c" x="690" y="2" rx="2" ry="2"/><rect class="c c2e" x="690" y="18" rx="2" ry="2"/><rect class="c" x="690" y="34" rx="2" ry="2"/><rect class="c" x="690" y="50" rx="2" ry="2"/><rect class="c" x="690" y="66" rx="2" ry="2"/><rect class="c" x="690" y="82" rx="2" ry="2"/><rect class="c c2f" x="690" y="98" rx="2" ry="2"/><rect class="c c2g" x="706" y="2" rx="2" ry="2"/><rect class="c" x="706" y="18" rx="2" ry="2"/><rect class="c" x="706" y="34" rx="2" ry="2"/><rect class="c" x="706" y="50" rx="2" ry="2"/><rect class="c" x="706" y="66" rx="2" ry="2"/><rect class="c" x="706" y="82" rx="2" ry="2"/><rect class="c" x="706" y="98" rx="2" ry="2"/><rect class="c" x="722" y="2" rx="2" ry="2"/><rect class="c" x="722" y="18" rx="2" ry="2"/><rect class="c" x="722" y="34" rx="2" ry="2"/><rect class="c" x="722" y="50" rx="2" ry="2"/><rect class="c" x="722" y="66" rx="2" ry="2"/><rect class="c" x="722" y="82" rx="2" ry="2"/><rect class="c" x="722" y="98" rx="2" ry="2"/><rect class="c" x="738" y="2" rx="2" ry="2"/><rect class="c" x="738" y="18" rx="2" ry="2"/><rect class="c" x="738" y="34" rx="2" ry="2"/><rect class="c" x="738" y="50" rx="2" ry="2"/><rect class="c" x="738" y="66" rx="2" ry="2"/><rect class="c" x="738" y="82" rx="2" ry="2"/><rect class="c" x="738" y="98" rx="2" ry="2"/><rect class="c" x="754" y="2" rx="2" ry="2"/><rect class="c" x="754" y="18" rx="2" ry="2"/><rect class="c" x="754" y="34" rx="2" ry="2"/><rect class="c" x="754" y="50" rx="2" ry="2"/><rect class="c" x="754" y="66" rx="2" ry="2"/><rect class="c" x="754" y="82" rx="2" ry="2"/><rect class="c" x="754" y="98" rx="2" ry="2"/><rect class="c" x="770" y="2" rx="2" ry="2"/><rect class="c" x="770" y="18" rx="2" ry="2"/><rect class="c" x="770" y="34" rx="2" ry="2"/><rect class="c" x="770" y="50" rx="2" ry="2"/><rect class="c" x="770" y="66" rx="2" ry="2"/><rect class="c" x="770" y="82" rx="2" ry="2"/><rect class="c" x="770" y="98" rx="2" ry="2"/><rect class="c" x="786" y="2" rx="2" ry="2"/><rect class="c" x="786" y="18" rx="2" ry="2"/><rect class="c" x="786" y="34" rx="2" ry="2"/><rect class="c" x="786" y="50" rx="2" ry="2"/><rect class="c c2h" x="786" y="66" rx="2" ry="2"/><rect class="c" x="786" y="82" rx="2" ry="2"/><rect class="c" x="786" y="98" rx="2" ry="2"/><rect class="c" x="802" y="2" rx="2" ry="2"/><rect class="c c2i" x="802" y="18" rx="2" ry="2"/><rect class="c c2j" x="802" y="34" rx="2" ry="2"/><rect class="c" x="802" y="50" rx="2" ry="2"/><rect class="c c2k" x="802" y="66" rx="2" ry="2"/><rect class="c" x="802" y="82" rx="2" ry="2"/><rect class="c" x="802" y="98" rx="2" ry="2"/><rect class="c" x="818" y="2" rx="2" ry="2"/><rect class="c" x="818" y="18" rx="2" ry="2"/><rect class="c" x="818" y="34" rx="2" ry="2"/><rect class="c" x="818" y="50" rx="2" ry="2"/><rect class="c" x="818" y="66" rx="2" ry="2"/><rect class="c" x="818" y="82" rx="2" ry="2"/><rect class="c" x="818" y="98" rx="2" ry="2"/><rect class="c c2l" x="834" y="2" rx="2" ry="2"/><rect class="c" x="834" y="18" rx="2" ry="2"/><rect class="c c2m" x="834" y="34" rx="2" ry="2"/><rect class="c c2n" x="834" y="50" rx="2" ry="2"/><rect class="u u0" height="12" width="751.4" x="0.0" y="144"/><rect class="u u1" height="12" width="44.8" x="750.8" y="144"/><rect class="u u2" height="12" width="27.1" x="795.0" y="144"/><rect class="u u3" height="12" width="27.1" x="821.5" y="144"/><rect class="s s0" x="0.8" y="0.8" width="14.4" height="14.4" rx="4.5" ry="4.5"/><rect class="s s1" x="1.8" y="1.8" width="12.3" height="12.3" rx="4.1" ry="4.1"/><rect class="s s2" x="2.6" y="2.6" width="10.8" height="10.8" rx="3.6" ry="3.6"/><rect class="s s3" x="3.0" y="3.0" width="9.9" height="9.9" rx="3.3" ry="3.3"/></svg>