<svg viewBox="-16 -32 880 192" width="880" height="192" xmlns="http://www.w3.org/2000/svg"><desc>Generated with https://github.com/Platane/snk</desc><style>:root{--cb:#1b1f230a;--cs:purple;--ce:#161b22;--c0:#161b22;--c1:#01311f;--c2:#034525;--c3:#0f6d31;--c4:#00c647}.c{shape-rendering:geometricPrecision;fill:var(--ce);stroke-width:1px;stroke:var(--cb);animation:none 32300ms linear infinite;width:12px;height:12px}@keyframes c0{0.92%{fill:var(--c1)}0.94%,100%{fill:var(--ce)}}.c.c0{fill:var(--c1);animation-name:c0}@keyframes c1{4.32%{fill:var(--c1)}4.34%,100%{fill:var(--ce)}}.c.c1{fill:var(--c1);animation-name:c1}@keyframes c2{3.09%{fill:var(--c1)}3.11%,100%{fill:var(--ce)}}.c.c2{fill:var(--c1);animation-name:c2}@keyframes c3{4.01%{fill:var(--c1)}4.03%,100%{fill:var(--ce)}}.c.c3{fill:var(--c1);animation-name:c3}@keyframes c4{2.47%{fill:var(--c1)}2.49%,100%{fill:var(--ce)}}.c.c4{fill:var(--c1);animation-name:c4}@keyframes c5{25.07%{fill:var(--c1)}25.09%,100%{fill:var(--ce)}}.c.c5{fill:var(--c1);animation-name:c5}@keyframes c6{6.49%{fill:var(--c1)}6.51%,100%{fill:var(--ce)}}.c.c6{fill:var(--c1);animation-name:c6}@keyframes c7{6.18%{fill:var(--c1)}6.2%,100%{fill:var(--ce)}}.c.c7{fill:var(--c1);animation-name:c7}@keyframes c8{23.52%{fill:var(--c1)}23.54%,100%{fill:var(--ce)}}.c.c8{fill:var(--c1);animation-name:c8}@keyframes c9{23.21%{fill:var(--c1)}23.23%,100%{fill:var(--ce)}}.c.c9{fill:var(--c1);animation-name:c9}@keyframes ca{22.9%{fill:var(--c1)}22.92%,100%{fill:var(--ce)}}.c.ca{fill:var(--c1);animation-name:ca}@keyframes cb{23.83%{fill:var(--c1)}23.85%,100%{fill:var(--ce)}}.c.cb{fill:var(--c1);animation-name:cb}@keyframes cc{7.73%{fill:var(--c1)}7.75%,100%{fill:var(--ce)}}.c.cc{fill:var(--c1);animation-name:cc}@keyframes cd{7.42%{fill:var(--c1)}7.44%,100%{fill:var(--ce)}}.c.cd{fill:var(--c1);animation-name:cd}@keyframes ce{7.11%{fill:var(--c1)}7.13%,100%{fill:var(--ce)}}.c.ce{fill:var(--c1);animation-name:ce}@keyframes cf{21.66%{fill:var(--c1)}21.68%,100%{fill:var(--ce)}}.c.cf{fill:var(--c1);animation-name:cf}@keyframes cg{21.35%{fill:var(--c1)}21.37%,100%{fill:var(--ce)}}.c.cg{fill:var(--c1);animation-name:cg}@keyframes ch{8.04%{fill:var(--c1)}8.06%,100%{fill:var(--ce)}}.c.ch{fill:var(--c1);animation-name:ch}@keyframes ci{20.42%{fill:var(--c1)}20.44%,100%{fill:var(--ce)}}.c.ci{fill:var(--c1);animation-name:ci}@keyframes cj{20.73%{fill:var(--c1)}20.75%,100%{fill:var(--ce)}}.c.cj{fill:var(--c1);animation-name:cj}@keyframes ck{9.28%{fill:var(--c1)}9.3%,100%{fill:var(--ce)}}.c.ck{fill:var(--c1);animation-name:ck}@keyframes cl{8.97%{fill:var(--c1)}8.99%,100%{fill:var(--ce)}}.c.cl{fill:var(--c1);animation-name:cl}@keyframes cm{8.66%{fill:var(--c1)}8.68%,100%{fill:var(--ce)}}.c.cm{fill:var(--c1);animation-name:cm}@keyframes cn{19.49%{fill:var(--c1)}19.51%,100%{fill:var(--ce)}}.c.cn{fill:var(--c1);animation-name:cn}@keyframes co{19.8%{fill:var(--c1)}19.82%,100%{fill:var(--ce)}}.c.co{fill:var(--c1);animation-name:co}@keyframes cp{10.21%{fill:var(--c1)}10.23%,100%{fill:var(--ce)}}.c.cp{fill:var(--c1);animation-name:cp}@keyframes cq{18.88%{fill:var(--c1)}18.9%,100%{fill:var(--ce)}}.c.cq{fill:var(--c1);animation-name:cq}@keyframes cr{18.57%{fill:var(--c1)}18.59%,100%{fill:var(--ce)}}.c.cr{fill:var(--c1);animation-name:cr}@keyframes cs{28.78%{fill:var(--c1)}28.8%,100%{fill:var(--ce)}}.c.cs{fill:var(--c1);animation-name:cs}@keyframes ct{29.71%{fill:var(--c1)}29.73%,100%{fill:var(--ce)}}.c.ct{fill:var(--c1);animation-name:ct}@keyframes cu{30.02%{fill:var(--c1)}30.04%,100%{fill:var(--ce)}}.c.cu{fill:var(--c1);animation-name:cu}@keyframes cv{11.14%{fill:var(--c1)}11.16%,100%{fill:var(--ce)}}.c.cv{fill:var(--c1);animation-name:cv}@keyframes cw{10.83%{fill:var(--c1)}10.85%,100%{fill:var(--ce)}}.c.cw{fill:var(--c1);animation-name:cw}@keyframes cx{17.95%{fill:var(--c1)}17.97%,100%{fill:var(--ce)}}.c.cx{fill:var(--c1);animation-name:cx}@keyframes cy{18.26%{fill:var(--c1)}18.28%,100%{fill:var(--ce)}}.c.cy{fill:var(--c1);animation-name:cy}@keyframes cz{29.09%{fill:var(--c1)}29.11%,100%{fill:var(--ce)}}.c.cz{fill:var(--c1);animation-name:cz}@keyframes c10{29.4%{fill:var(--c1)}29.42%,100%{fill:var(--ce)}}.c.c10{fill:var(--c1);animation-name:c10}@keyframes c11{30.33%{fill:var(--c1)}30.35%,100%{fill:var(--ce)}}.c.c11{fill:var(--c1);animation-name:c11}@keyframes c12{11.75%{fill:var(--c1)}11.77%,100%{fill:var(--ce)}}.c.c12{fill:var(--c1);animation-name:c12}@keyframes c13{12.37%{fill:var(--c1)}12.39%,100%{fill:var(--ce)}}.c.c13{fill:var(--c1);animation-name:c13}@keyframes c14{12.68%{fill:var(--c1)}12.7%,100%{fill:var(--ce)}}.c.c14{fill:var(--c1);animation-name:c14}@keyframes c15{12.99%{fill:var(--c1)}13.01%,100%{fill:var(--ce)}}.c.c15{fill:var(--c1);animation-name:c15}@keyframes c16{30.95%{fill:var(--c1)}30.97%,100%{fill:var(--ce)}}.c.c16{fill:var(--c1);animation-name:c16}@keyframes c17{13.3%{fill:var(--c1)}13.32%,100%{fill:var(--ce)}}.c.c17{fill:var(--c1);animation-name:c17}@keyframes c18{13.92%{fill:var(--c1)}13.94%,100%{fill:var(--ce)}}.c.c18{fill:var(--c1);animation-name:c18}@keyframes c19{13.61%{fill:var(--c1)}13.63%,100%{fill:var(--ce)}}.c.c19{fill:var(--c1);animation-name:c19}@keyframes c1a{15.78%{fill:var(--c1)}15.8%,100%{fill:var(--ce)}}.c.c1a{fill:var(--c1);animation-name:c1a}@keyframes c1b{14.85%{fill:var(--c1)}14.87%,100%{fill:var(--ce)}}.c.c1b{fill:var(--c1);animation-name:c1b}@keyframes c1c{14.54%{fill:var(--c1)}14.56%,100%{fill:var(--ce)}}.c.c1c{fill:var(--c1);animation-name:c1c}@keyframes c1d{15.16%{fill:var(--c1)}15.18%,100%{fill:var(--ce)}}.c.c1d{fill:var(--c1);animation-name:c1d}@keyframes c1e{34.05%{fill:var(--c1)}34.07%,100%{fill:var(--ce)}}.c.c1e{fill:var(--c1);animation-name:c1e}@keyframes c1f{32.5%{fill:var(--c1)}32.52%,100%{fill:var(--ce)}}.c.c1f{fill:var(--c1);animation-name:c1f}@keyframes c1g{33.74%{fill:var(--c1)}33.76%,100%{fill:var(--ce)}}.c.c1g{fill:var(--c1);animation-name:c1g}@keyframes c1h{32.81%{fill:var(--c1)}32.83%,100%{fill:var(--ce)}}.c.c1h{fill:var(--c1);animation-name:c1h}@keyframes c1i{33.43%{fill:var(--c1)}33.45%,100%{fill:var(--ce)}}.c.c1i{fill:var(--c1);animation-name:c1i}@keyframes c1j{33.12%{fill:var(--c1)}33.14%,100%{fill:var(--ce)}}.c.c1j{fill:var(--c1);animation-name:c1j}@keyframes c1k{39%{fill:var(--c1)}39.02%,100%{fill:var(--ce)}}.c.c1k{fill:var(--c1);animation-name:c1k}@keyframes c1l{38.07%{fill:var(--c1)}38.09%,100%{fill:var(--ce)}}.c.c1l{fill:var(--c1);animation-name:c1l}@keyframes c1m{38.38%{fill:var(--c1)}38.4%,100%{fill:var(--ce)}}.c.c1m{fill:var(--c1);animation-name:c1m}@keyframes c1n{37.76%{fill:var(--c1)}37.78%,100%{fill:var(--ce)}}.c.c1n{fill:var(--c1);animation-name:c1n}@keyframes c1o{37.45%{fill:var(--c1)}37.47%,100%{fill:var(--ce)}}.c.c1o{fill:var(--c1);animation-name:c1o}@keyframes c1p{37.14%{fill:var(--c1)}37.16%,100%{fill:var(--ce)}}.c.c1p{fill:var(--c1);animation-name:c1p}@keyframes c1q{36.83%{fill:var(--c1)}36.85%,100%{fill:var(--ce)}}.c.c1q{fill:var(--c1);animation-name:c1q}@keyframes c1r{35.9%{fill:var(--c1)}35.92%,100%{fill:var(--ce)}}.c.c1r{fill:var(--c1);animation-name:c1r}@keyframes c1s{67.17%{fill:var(--c1)}67.19%,100%{fill:var(--ce)}}.c.c1s{fill:var(--c1);animation-name:c1s}@keyframes c1t{36.52%{fill:var(--c1)}36.54%,100%{fill:var(--ce)}}.c.c1t{fill:var(--c1);animation-name:c1t}@keyframes c1u{36.21%{fill:var(--c1)}36.23%,100%{fill:var(--ce)}}.c.c1u{fill:var(--c1);animation-name:c1u}@keyframes c1v{67.48%{fill:var(--c2)}67.5%,100%{fill:var(--ce)}}.c.c1v{fill:var(--c2);animation-name:c1v}@keyframes c1w{68.1%{fill:var(--c2)}68.12%,100%{fill:var(--ce)}}.c.c1w{fill:var(--c2);animation-name:c1w}@keyframes c1x{41.79%{fill:var(--c1)}41.81%,100%{fill:var(--ce)}}.c.c1x{fill:var(--c1);animation-name:c1x}@keyframes c1y{40.86%{fill:var(--c1)}40.88%,100%{fill:var(--ce)}}.c.c1y{fill:var(--c1);animation-name:c1y}@keyframes c1z{40.55%{fill:var(--c1)}40.57%,100%{fill:var(--ce)}}.c.c1z{fill:var(--c1);animation-name:c1z}@keyframes c20{43.33%{fill:var(--c1)}43.35%,100%{fill:var(--ce)}}.c.c20{fill:var(--c1);animation-name:c20}@keyframes c21{41.17%{fill:var(--c1)}41.19%,100%{fill:var(--ce)}}.c.c21{fill:var(--c1);animation-name:c21}@keyframes c22{74.29%{fill:var(--c3)}74.31%,100%{fill:var(--ce)}}.c.c22{fill:var(--c3);animation-name:c22}@keyframes c23{43.95%{fill:var(--c1)}43.97%,100%{fill:var(--ce)}}.c.c23{fill:var(--c1);animation-name:c23}@keyframes c24{44.57%{fill:var(--c1)}44.59%,100%{fill:var(--ce)}}.c.c24{fill:var(--c1);animation-name:c24}@keyframes c25{47.98%{fill:var(--c1)}48%,100%{fill:var(--ce)}}.c.c25{fill:var(--c1);animation-name:c25}@keyframes c26{45.5%{fill:var(--c1)}45.52%,100%{fill:var(--ce)}}.c.c26{fill:var(--c1);animation-name:c26}@keyframes c27{46.74%{fill:var(--c1)}46.76%,100%{fill:var(--ce)}}.c.c27{fill:var(--c1);animation-name:c27}@keyframes c28{47.05%{fill:var(--c1)}47.07%,100%{fill:var(--ce)}}.c.c28{fill:var(--c1);animation-name:c28}@keyframes c29{50.14%{fill:var(--c1)}50.16%,100%{fill:var(--ce)}}.c.c29{fill:var(--c1);animation-name:c29}@keyframes c2a{72.13%{fill:var(--c2)}72.15%,100%{fill:var(--ce)}}.c.c2a{fill:var(--c2);animation-name:c2a}@keyframes c2b{71.82%{fill:var(--c2)}71.84%,100%{fill:var(--ce)}}.c.c2b{fill:var(--c2);animation-name:c2b}@keyframes c2c{46.12%{fill:var(--c1)}46.14%,100%{fill:var(--ce)}}.c.c2c{fill:var(--c1);animation-name:c2c}@keyframes c2d{50.76%{fill:var(--c1)}50.78%,100%{fill:var(--ce)}}.c.c2d{fill:var(--c1);animation-name:c2d}@keyframes c2e{51.07%{fill:var(--c1)}51.09%,100%{fill:var(--ce)}}.c.c2e{fill:var(--c1);animation-name:c2e}@keyframes c2f{61.91%{fill:var(--c1)}61.93%,100%{fill:var(--ce)}}.c.c2f{fill:var(--c1);animation-name:c2f}@keyframes c2g{51.69%{fill:var(--c1)}51.71%,100%{fill:var(--ce)}}.c.c2g{fill:var(--c1);animation-name:c2g}@keyframes c2h{55.1%{fill:var(--c1)}55.12%,100%{fill:var(--ce)}}.c.c2h{fill:var(--c1);animation-name:c2h}@keyframes c2i{53.86%{fill:var(--c1)}53.88%,100%{fill:var(--ce)}}.c.c2i{fill:var(--c1);animation-name:c2i}@keyframes c2j{54.17%{fill:var(--c1)}54.19%,100%{fill:var(--ce)}}.c.c2j{fill:var(--c1);animation-name:c2j}@keyframes c2k{54.79%{fill:var(--c1)}54.81%,100%{fill:var(--ce)}}.c.c2k{fill:var(--c1);animation-name:c2k}@keyframes c2l{57.27%{fill:var(--c1)}57.29%,100%{fill:var(--ce)}}.c.c2l{fill:var(--c1);animation-name:c2l}@keyframes c2m{80.79%{fill:var(--c4)}80.81%,100%{fill:var(--ce)}}.c.c2m{fill:var(--c4);animation-name:c2m}@keyframes c2n{80.49%{fill:var(--c4)}80.51%,100%{fill:var(--ce)}}.c.c2n{fill:var(--c4);animation-name:c2n}@keyframes c2o{82.03%{fill:var(--c4)}82.05%,100%{fill:var(--ce)}}.c.c2o{fill:var(--c4);animation-name:c2o}.u{transform-origin:0 0;transform:scale(0,1);animation:none linear 32300ms infinite}@keyframes u0{0.92%{transform:scale(0.000,1)}0.94%,2.47%{transform:scale(0.011,1)}2.49%,3.09%{transform:scale(0.022,1)}3.11%,4.01%{transform:scale(0.034,1)}4.03%,4.32%{transform:scale(0.045,1)}4.34%,6.18%{transform:scale(0.056,1)}6.2%,6.49%{transform:scale(0.067,1)}6.51%,7.11%{transform:scale(0.079,1)}7.13%,7.42%{transform:scale(0.090,1)}7.44%,7.73%{transform:scale(0.101,1)}7.75%,8.04%{transform:scale(0.112,1)}8.06%,8.66%{transform:scale(0.124,1)}8.68%,8.97%{transform:scale(0.135,1)}8.99%,9.28%{transform:scale(0.146,1)}9.3%,10.21%{transform:scale(0.157,1)}10.23%,10.83%{transform:scale(0.169,1)}10.85%,11.14%{transform:scale(0.180,1)}11.16%,11.75%{transform:scale(0.191,1)}11.77%,12.37%{transform:scale(0.202,1)}12.39%,12.68%{transform:scale(0.213,1)}12.7%,12.99%{transform:scale(0.225,1)}13.01%,13.3%{transform:scale(0.236,1)}13.32%,13.61%{transform:scale(0.247,1)}13.63%,13.92%{transform:scale(0.258,1)}13.94%,14.54%{transform:scale(0.270,1)}14.56%,14.85%{transform:scale(0.281,1)}14.87%,15.16%{transform:scale(0.292,1)}15.18%,15.78%{transform:scale(0.303,1)}15.8%,17.95%{transform:scale(0.315,1)}17.97%,18.26%{transform:scale(0.326,1)}18.28%,18.57%{transform:scale(0.337,1)}18.59%,18.88%{transform:scale(0.348,1)}18.9%,19.49%{transform:scale(0.360,1)}19.51%,19.8%{transform:scale(0.371,1)}19.82%,20.42%{transform:scale(0.382,1)}20.44%,20.73%{transform:scale(0.393,1)}20.75%,21.35%{transform:scale(0.404,1)}21.37%,21.66%{transform:scale(0.416,1)}21.68%,22.9%{transform:scale(0.427,1)}22.92%,23.21%{transform:scale(0.438,1)}23.23%,23.52%{transform:scale(0.449,1)}23.54%,23.83%{transform:scale(0.461,1)}23.85%,25.07%{transform:scale(0.472,1)}25.09%,28.78%{transform:scale(0.483,1)}28.8%,29.09%{transform:scale(0.494,1)}29.11%,29.4%{transform:scale(0.506,1)}29.42%,29.71%{transform:scale(0.517,1)}29.73%,30.02%{transform:scale(0.528,1)}30.04%,30.33%{transform:scale(0.539,1)}30.35%,30.95%{transform:scale(0.551,1)}30.97%,32.5%{transform:scale(0.562,1)}32.52%,32.81%{transform:scale(0.573,1)}32.83%,33.12%{transform:scale(0.584,1)}33.14%,33.43%{transform:scale(0.596,1)}33.45%,33.74%{transform:scale(0.607,1)}33.76%,34.05%{transform:scale(0.618,1)}34.07%,35.9%{transform:scale(0.629,1)}35.92%,36.21%{transform:scale(0.640,1)}36.23%,36.52%{transform:scale(0.652,1)}36.54%,36.83%{transform:scale(0.663,1)}36.85%,37.14%{transform:scale(0.674,1)}37.16%,37.45%{transform:scale(0.685,1)}37.47%,37.76%{transform:scale(0.697,1)}37.78%,38.07%{transform:scale(0.708,1)}38.09%,38.38%{transform:scale(0.719,1)}38.4%,39%{transform:scale(0.730,1)}39.02%,40.55%{transform:scale(0.742,1)}40.57%,40.86%{transform:scale(0.753,1)}40.88%,41.17%{transform:scale(0.764,1)}41.19%,41.79%{transform:scale(0.775,1)}41.81%,43.33%{transform:scale(0.787,1)}43.35%,43.95%{transform:scale(0.798,1)}43.97%,44.57%{transform:scale(0.809,1)}44.59%,45.5%{transform:scale(0.820,1)}45.52%,46.12%{transform:scale(0.831,1)}46.14%,46.74%{transform:scale(0.843,1)}46.76%,47.05%{transform:scale(0.854,1)}47.07%,47.98%{transform:scale(0.865,1)}48%,50.14%{transform:scale(0.876,1)}50.16%,50.76%{transform:scale(0.888,1)}50.78%,51.07%{transform:scale(0.899,1)}51.09%,51.69%{transform:scale(0.910,1)}51.71%,53.86%{transform:scale(0.921,1)}53.88%,54.17%{transform:scale(0.933,1)}54.19%,54.79%{transform:scale(0.944,1)}54.81%,55.1%{transform:scale(0.955,1)}55.12%,57.27%{transform:scale(0.966,1)}57.29%,61.91%{transform:scale(0.978,1)}61.93%,67.17%{transform:scale(0.989,1)}67.19%,100%{transform:scale(1.000,1)}}.u.u0{fill:var(--c1);animation-name:u0;transform-origin:0.0px 0}@keyframes u1{67.48%{transform:scale(0.000,1)}67.5%,68.1%{transform:scale(0.250,1)}68.12%,71.82%{transform:scale(0.500,1)}71.84%,72.13%{transform:scale(0.750,1)}72.15%,100%{transform:scale(1.000,1)}}.u.u1{fill:var(--c2);animation-name:u1;transform-origin:778.1px 0}@keyframes u2{74.29%{transform:scale(0.000,1)}74.31%,100%{transform:scale(1.000,1)}}.u.u2{fill:var(--c3);animation-name:u2;transform-origin:813.0px 0}@keyframes u3{80.49%{transform:scale(0.000,1)}80.51%,80.79%{transform:scale(0.333,1)}80.81%,82.03%{transform:scale(0.667,1)}82.05%,100%{transform:scale(1.000,1)}}.u.u3{fill:var(--c4);animation-name:u3;transform-origin:821.8px 0}.s{shape-rendering:geometricPrecision;fill:var(--cs);animation:none linear 32300ms infinite}@keyframes s0{0%,99.69%{transform:translate(0px,-16px)}0.31%{transform:translate(0px,0px)}0.62%{transform:translate(16px,0px)}0.93%{transform:translate(16px,16px)}2.17%{transform:translate(80px,16px)}2.48%{transform:translate(80px,32px)}2.79%{transform:translate(64px,32px)}4.02%{transform:translate(64px,96px)}4.33%{transform:translate(48px,96px)}4.64%{transform:translate(48px,80px)}6.19%{transform:translate(128px,80px)}6.5%{transform:translate(128px,64px)}7.12%{transform:translate(160px,64px)}7.74%,22.6%{transform:translate(160px,32px)}8.67%{transform:translate(208px,32px)}9.29%{transform:translate(208px,0px)}9.91%{transform:translate(240px,0px)}10.22%{transform:translate(240px,16px)}10.84%{transform:translate(272px,16px)}11.15%,17.34%{transform:translate(272px,0px)}11.76%{transform:translate(304px,0px)}13%{transform:translate(304px,64px)}13.62%{transform:translate(336px,64px)}13.93%{transform:translate(336px,48px)}14.24%{transform:translate(352px,48px)}14.86%{transform:translate(352px,16px)}15.17%{transform:translate(368px,16px)}15.48%{transform:translate(368px,0px)}18.27%{transform:translate(272px,48px)}19.5%{transform:translate(208px,48px)}19.81%{transform:translate(208px,64px)}20.12%{transform:translate(192px,64px)}20.74%{transform:translate(192px,96px)}21.36%{transform:translate(160px,96px)}22.91%{transform:translate(144px,32px)}23.53%{transform:translate(144px,0px)}23.84%{transform:translate(160px,0px)}24.15%{transform:translate(160px,-16px)}24.77%{transform:translate(128px,-16px)}25.08%{transform:translate(128px,0px)}27.55%{transform:translate(256px,0px)}28.79%{transform:translate(256px,64px)}29.1%{transform:translate(272px,64px)}29.41%{transform:translate(272px,80px)}29.72%{transform:translate(256px,80px)}30.03%{transform:translate(256px,96px)}33.13%{transform:translate(416px,96px)}33.44%{transform:translate(416px,80px)}34.06%{transform:translate(384px,80px)}34.37%{transform:translate(384px,64px)}36.22%{transform:translate(480px,64px)}36.53%{transform:translate(480px,48px)}36.84%{transform:translate(464px,48px)}37.77%{transform:translate(464px,0px)}38.08%{transform:translate(448px,0px)}38.39%{transform:translate(448px,16px)}38.7%{transform:translate(432px,16px)}39.01%{transform:translate(432px,32px)}40.56%{transform:translate(512px,32px)}40.87%{transform:translate(512px,16px)}41.18%{transform:translate(528px,16px)}41.49%{transform:translate(528px,0px)}41.8%{transform:translate(512px,0px)}43.34%{transform:translate(512px,80px)}44.27%{transform:translate(560px,80px)}44.58%{transform:translate(560px,64px)}46.13%{transform:translate(640px,64px)}46.44%{transform:translate(640px,80px)}46.75%{transform:translate(624px,80px)}47.06%{transform:translate(624px,96px)}47.37%{transform:translate(608px,96px)}47.68%{transform:translate(608px,80px)}47.99%{transform:translate(592px,80px)}48.3%{transform:translate(592px,64px)}48.92%{transform:translate(624px,64px)}49.85%{transform:translate(624px,16px)}51.39%{transform:translate(704px,16px)}51.7%{transform:translate(704px,0px)}53.56%{transform:translate(800px,0px)}54.8%{transform:translate(800px,64px)}55.11%{transform:translate(784px,64px)}55.42%{transform:translate(784px,48px)}56.04%{transform:translate(816px,48px)}56.66%{transform:translate(816px,16px)}56.97%{transform:translate(832px,16px)}57.28%{transform:translate(832px,0px)}60.06%{transform:translate(688px,0px)}61.92%{transform:translate(688px,96px)}62.23%{transform:translate(672px,96px)}62.85%{transform:translate(672px,64px)}66.87%{transform:translate(464px,64px)}67.18%{transform:translate(464px,80px)}67.8%{transform:translate(496px,80px)}68.11%{transform:translate(496px,96px)}70.9%{transform:translate(640px,96px)}72.14%{transform:translate(640px,32px)}74.3%{transform:translate(528px,32px)}74.61%{transform:translate(528px,48px)}80.5%,81.73%{transform:translate(832px,48px)}80.8%{transform:translate(832px,32px)}81.11%{transform:translate(848px,32px)}81.42%{transform:translate(848px,48px)}82.04%{transform:translate(832px,64px)}95.98%{transform:translate(112px,64px)}96.59%{transform:translate(112px,32px)}97.83%{transform:translate(48px,32px)}98.76%{transform:translate(48px,-16px)}}.s.s0{transform:translate(0px,-16px);animation-name:s0}@keyframes s1{0%,99.69%{transform:translate(16px,-16px)}0.31%{transform:translate(0px,-16px)}0.62%{transform:translate(0px,0px)}0.93%{transform:translate(16px,0px)}1.24%{transform:translate(16px,16px)}2.48%{transform:translate(80px,16px)}2.79%{transform:translate(80px,32px)}3.1%{transform:translate(64px,32px)}4.33%{transform:translate(64px,96px)}4.64%{transform:translate(48px,96px)}4.95%{transform:translate(48px,80px)}6.5%{transform:translate(128px,80px)}6.81%{transform:translate(128px,64px)}7.43%{transform:translate(160px,64px)}8.05%,22.91%{transform:translate(160px,32px)}8.98%{transform:translate(208px,32px)}9.6%{transform:translate(208px,0px)}10.22%{transform:translate(240px,0px)}10.53%{transform:translate(240px,16px)}11.15%{transform:translate(272px,16px)}11.46%,17.65%{transform:translate(272px,0px)}12.07%{transform:translate(304px,0px)}13.31%{transform:translate(304px,64px)}13.93%{transform:translate(336px,64px)}14.24%{transform:translate(336px,48px)}14.55%{transform:translate(352px,48px)}15.17%{transform:translate(352px,16px)}15.48%{transform:translate(368px,16px)}15.79%{transform:translate(368px,0px)}18.58%{transform:translate(272px,48px)}19.81%{transform:translate(208px,48px)}20.12%{transform:translate(208px,64px)}20.43%{transform:translate(192px,64px)}21.05%{transform:translate(192px,96px)}21.67%{transform:translate(160px,96px)}23.22%{transform:translate(144px,32px)}23.84%{transform:translate(144px,0px)}24.15%{transform:translate(160px,0px)}24.46%{transform:translate(160px,-16px)}25.08%{transform:translate(128px,-16px)}25.39%{transform:translate(128px,0px)}27.86%{transform:translate(256px,0px)}29.1%{transform:translate(256px,64px)}29.41%{transform:translate(272px,64px)}29.72%{transform:translate(272px,80px)}30.03%{transform:translate(256px,80px)}30.34%{transform:translate(256px,96px)}33.44%{transform:translate(416px,96px)}33.75%{transform:translate(416px,80px)}34.37%{transform:translate(384px,80px)}34.67%{transform:translate(384px,64px)}36.53%{transform:translate(480px,64px)}36.84%{transform:translate(480px,48px)}37.15%{transform:translate(464px,48px)}38.08%{transform:translate(464px,0px)}38.39%{transform:translate(448px,0px)}38.7%{transform:translate(448px,16px)}39.01%{transform:translate(432px,16px)}39.32%{transform:translate(432px,32px)}40.87%{transform:translate(512px,32px)}41.18%{transform:translate(512px,16px)}41.49%{transform:translate(528px,16px)}41.8%{transform:translate(528px,0px)}42.11%{transform:translate(512px,0px)}43.65%{transform:translate(512px,80px)}44.58%{transform:translate(560px,80px)}44.89%{transform:translate(560px,64px)}46.44%{transform:translate(640px,64px)}46.75%{transform:translate(640px,80px)}47.06%{transform:translate(624px,80px)}47.37%{transform:translate(624px,96px)}47.68%{transform:translate(608px,96px)}47.99%{transform:translate(608px,80px)}48.3%{transform:translate(592px,80px)}48.61%{transform:translate(592px,64px)}49.23%{transform:translate(624px,64px)}50.15%{transform:translate(624px,16px)}51.7%{transform:translate(704px,16px)}52.01%{transform:translate(704px,0px)}53.87%{transform:translate(800px,0px)}55.11%{transform:translate(800px,64px)}55.42%{transform:translate(784px,64px)}55.73%{transform:translate(784px,48px)}56.35%{transform:translate(816px,48px)}56.97%{transform:translate(816px,16px)}57.28%{transform:translate(832px,16px)}57.59%{transform:translate(832px,0px)}60.37%{transform:translate(688px,0px)}62.23%{transform:translate(688px,96px)}62.54%{transform:translate(672px,96px)}63.16%{transform:translate(672px,64px)}67.18%{transform:translate(464px,64px)}67.49%{transform:translate(464px,80px)}68.11%{transform:translate(496px,80px)}68.42%{transform:translate(496px,96px)}71.21%{transform:translate(640px,96px)}72.45%{transform:translate(640px,32px)}74.61%{transform:translate(528px,32px)}74.92%{transform:translate(528px,48px)}80.8%,82.04%{transform:translate(832px,48px)}81.11%{transform:translate(832px,32px)}81.42%{transform:translate(848px,32px)}81.73%{transform:translate(848px,48px)}82.35%{transform:translate(832px,64px)}96.28%{transform:translate(112px,64px)}96.9%{transform:translate(112px,32px)}98.14%{transform:translate(48px,32px)}99.07%{transform:translate(48px,-16px)}}.s.s1{transform:translate(16px,-16px);animation-name:s1}@keyframes s2{0%,99.69%{transform:translate(32px,-16px)}0.62%{transform:translate(0px,-16px)}0.93%{transform:translate(0px,0px)}1.24%{transform:translate(16px,0px)}1.55%{transform:translate(16px,16px)}2.79%{transform:translate(80px,16px)}3.1%{transform:translate(80px,32px)}3.41%{transform:translate(64px,32px)}4.64%{transform:translate(64px,96px)}4.95%{transform:translate(48px,96px)}5.26%{transform:translate(48px,80px)}6.81%{transform:translate(128px,80px)}7.12%{transform:translate(128px,64px)}7.74%{transform:translate(160px,64px)}8.36%,23.22%{transform:translate(160px,32px)}9.29%{transform:translate(208px,32px)}9.91%{transform:translate(208px,0px)}10.53%{transform:translate(240px,0px)}10.84%{transform:translate(240px,16px)}11.46%{transform:translate(272px,16px)}11.76%,17.96%{transform:translate(272px,0px)}12.38%{transform:translate(304px,0px)}13.62%{transform:translate(304px,64px)}14.24%{transform:translate(336px,64px)}14.55%{transform:translate(336px,48px)}14.86%{transform:translate(352px,48px)}15.48%{transform:translate(352px,16px)}15.79%{transform:translate(368px,16px)}16.1%{transform:translate(368px,0px)}18.89%{transform:translate(272px,48px)}20.12%{transform:translate(208px,48px)}20.43%{transform:translate(208px,64px)}20.74%{transform:translate(192px,64px)}21.36%{transform:translate(192px,96px)}21.98%{transform:translate(160px,96px)}23.53%{transform:translate(144px,32px)}24.15%{transform:translate(144px,0px)}24.46%{transform:translate(160px,0px)}24.77%{transform:translate(160px,-16px)}25.39%{transform:translate(128px,-16px)}25.7%{transform:translate(128px,0px)}28.17%{transform:translate(256px,0px)}29.41%{transform:translate(256px,64px)}29.72%{transform:translate(272px,64px)}30.03%{transform:translate(272px,80px)}30.34%{transform:translate(256px,80px)}30.65%{transform:translate(256px,96px)}33.75%{transform:translate(416px,96px)}34.06%{transform:translate(416px,80px)}34.67%{transform:translate(384px,80px)}34.98%{transform:translate(384px,64px)}36.84%{transform:translate(480px,64px)}37.15%{transform:translate(480px,48px)}37.46%{transform:translate(464px,48px)}38.39%{transform:translate(464px,0px)}38.7%{transform:translate(448px,0px)}39.01%{transform:translate(448px,16px)}39.32%{transform:translate(432px,16px)}39.63%{transform:translate(432px,32px)}41.18%{transform:translate(512px,32px)}41.49%{transform:translate(512px,16px)}41.8%{transform:translate(528px,16px)}42.11%{transform:translate(528px,0px)}42.41%{transform:translate(512px,0px)}43.96%{transform:translate(512px,80px)}44.89%{transform:translate(560px,80px)}45.2%{transform:translate(560px,64px)}46.75%{transform:translate(640px,64px)}47.06%{transform:translate(640px,80px)}47.37%{transform:translate(624px,80px)}47.68%{transform:translate(624px,96px)}47.99%{transform:translate(608px,96px)}48.3%{transform:translate(608px,80px)}48.61%{transform:translate(592px,80px)}48.92%{transform:translate(592px,64px)}49.54%{transform:translate(624px,64px)}50.46%{transform:translate(624px,16px)}52.01%{transform:translate(704px,16px)}52.32%{transform:translate(704px,0px)}54.18%{transform:translate(800px,0px)}55.42%{transform:translate(800px,64px)}55.73%{transform:translate(784px,64px)}56.04%{transform:translate(784px,48px)}56.66%{transform:translate(816px,48px)}57.28%{transform:translate(816px,16px)}57.59%{transform:translate(832px,16px)}57.89%{transform:translate(832px,0px)}60.68%{transform:translate(688px,0px)}62.54%{transform:translate(688px,96px)}62.85%{transform:translate(672px,96px)}63.47%{transform:translate(672px,64px)}67.49%{transform:translate(464px,64px)}67.8%{transform:translate(464px,80px)}68.42%{transform:translate(496px,80px)}68.73%{transform:translate(496px,96px)}71.52%{transform:translate(640px,96px)}72.76%{transform:translate(640px,32px)}74.92%{transform:translate(528px,32px)}75.23%{transform:translate(528px,48px)}81.11%,82.35%{transform:translate(832px,48px)}81.42%{transform:translate(832px,32px)}81.73%{transform:translate(848px,32px)}82.04%{transform:translate(848px,48px)}82.66%{transform:translate(832px,64px)}96.59%{transform:translate(112px,64px)}97.21%{transform:translate(112px,32px)}98.45%{transform:translate(48px,32px)}99.38%{transform:translate(48px,-16px)}}.s.s2{transform:translate(32px,-16px);animation-name:s2}@keyframes s3{0%,99.69%{transform:translate(48px,-16px)}0.93%{transform:translate(0px,-16px)}1.24%{transform:translate(0px,0px)}1.55%{transform:translate(16px,0px)}1.86%{transform:translate(16px,16px)}3.1%{transform:translate(80px,16px)}3.41%{transform:translate(80px,32px)}3.72%{transform:translate(64px,32px)}4.95%{transform:translate(64px,96px)}5.26%{transform:translate(48px,96px)}5.57%{transform:translate(48px,80px)}7.12%{transform:translate(128px,80px)}7.43%{transform:translate(128px,64px)}8.05%{transform:translate(160px,64px)}8.67%,23.53%{transform:translate(160px,32px)}9.6%{transform:translate(208px,32px)}10.22%{transform:translate(208px,0px)}10.84%{transform:translate(240px,0px)}11.15%{transform:translate(240px,16px)}11.76%{transform:translate(272px,16px)}12.07%,18.27%{transform:translate(272px,0px)}12.69%{transform:translate(304px,0px)}13.93%{transform:translate(304px,64px)}14.55%{transform:translate(336px,64px)}14.86%{transform:translate(336px,48px)}15.17%{transform:translate(352px,48px)}15.79%{transform:translate(352px,16px)}16.1%{transform:translate(368px,16px)}16.41%{transform:translate(368px,0px)}19.2%{transform:translate(272px,48px)}20.43%{transform:translate(208px,48px)}20.74%{transform:translate(208px,64px)}21.05%{transform:translate(192px,64px)}21.67%{transform:translate(192px,96px)}22.29%{transform:translate(160px,96px)}23.84%{transform:translate(144px,32px)}24.46%{transform:translate(144px,0px)}24.77%{transform:translate(160px,0px)}25.08%{transform:translate(160px,-16px)}25.7%{transform:translate(128px,-16px)}26.01%{transform:translate(128px,0px)}28.48%{transform:translate(256px,0px)}29.72%{transform:translate(256px,64px)}30.03%{transform:translate(272px,64px)}30.34%{transform:translate(272px,80px)}30.65%{transform:translate(256px,80px)}30.96%{transform:translate(256px,96px)}34.06%{transform:translate(416px,96px)}34.37%{transform:translate(416px,80px)}34.98%{transform:translate(384px,80px)}35.29%{transform:translate(384px,64px)}37.15%{transform:translate(480px,64px)}37.46%{transform:translate(480px,48px)}37.77%{transform:translate(464px,48px)}38.7%{transform:translate(464px,0px)}39.01%{transform:translate(448px,0px)}39.32%{transform:translate(448px,16px)}39.63%{transform:translate(432px,16px)}39.94%{transform:translate(432px,32px)}41.49%{transform:translate(512px,32px)}41.8%{transform:translate(512px,16px)}42.11%{transform:translate(528px,16px)}42.41%{transform:translate(528px,0px)}42.72%{transform:translate(512px,0px)}44.27%{transform:translate(512px,80px)}45.2%{transform:translate(560px,80px)}45.51%{transform:translate(560px,64px)}47.06%{transform:translate(640px,64px)}47.37%{transform:translate(640px,80px)}47.68%{transform:translate(624px,80px)}47.99%{transform:translate(624px,96px)}48.3%{transform:translate(608px,96px)}48.61%{transform:translate(608px,80px)}48.92%{transform:translate(592px,80px)}49.23%{transform:translate(592px,64px)}49.85%{transform:translate(624px,64px)}50.77%{transform:translate(624px,16px)}52.32%{transform:translate(704px,16px)}52.63%{transform:translate(704px,0px)}54.49%{transform:translate(800px,0px)}55.73%{transform:translate(800px,64px)}56.04%{transform:translate(784px,64px)}56.35%{transform:translate(784px,48px)}56.97%{transform:translate(816px,48px)}57.59%{transform:translate(816px,16px)}57.89%{transform:translate(832px,16px)}58.2%{transform:translate(832px,0px)}60.99%{transform:translate(688px,0px)}62.85%{transform:translate(688px,96px)}63.16%{transform:translate(672px,96px)}63.78%{transform:translate(672px,64px)}67.8%{transform:translate(464px,64px)}68.11%{transform:translate(464px,80px)}68.73%{transform:translate(496px,80px)}69.04%{transform:translate(496px,96px)}71.83%{transform:translate(640px,96px)}73.07%{transform:translate(640px,32px)}75.23%{transform:translate(528px,32px)}75.54%{transform:translate(528px,48px)}81.42%,82.66%{transform:translate(832px,48px)}81.73%{transform:translate(832px,32px)}82.04%{transform:translate(848px,32px)}82.35%{transform:translate(848px,48px)}82.97%{transform:translate(832px,64px)}96.9%{transform:translate(112px,64px)}97.52%{transform:translate(112px,32px)}98.76%{transform:translate(48px,32px)}}.s.s3{transform:translate(48px,-16px);animation-name:s3}</style><rect class="c" x="2" y="2" rx="2" ry="2"/><rect class="c" x="2" y="18" rx="2" ry="2"/><rect class="c" x="2" y="34" rx="2" ry="2"/><rect class="c" x="2" y="50" rx="2" ry="2"/><rect class="c" x="2" y="66" rx="2" ry="2"/><rect class="c" x="2" y="82" rx="2" ry="2"/><rect class="c" x="2" y="98" rx="2" ry="2"/><rect class="c" x="18" y="2" rx="2" ry="2"/><rect class="c c0" x="18" y="18" rx="2" ry="2"/><rect class="c" x="18" y="34" rx="2" ry="2"/><rect class="c" x="18" y="50" rx="2" ry="2"/><rect class="c" x="18" y="66" rx="2" ry="2"/><rect class="c" x="18" y="82" rx="2" ry="2"/><rect class="c" x="18" y="98" rx="2" ry="2"/><rect class="c" x="34" y="2" rx="2" ry="2"/><rect class="c" x="34" y="18" rx="2" ry="2"/><rect class="c" x="34" y="34" rx="2" ry="2"/><rect class="c" x="34" y="50" rx="2" ry="2"/><rect class="c" x="34" y="66" rx="2" ry="2"/><rect class="c" x="34" y="82" rx="2" ry="2"/><rect class="c" x="34" y="98" rx="2" ry="2"/><rect class="c" x="50" y="2" rx="2" ry="2"/><rect class="c" x="50" y="18" rx="2" ry="2"/><rect class="c" x="50" y="34" rx="2" ry="2"/><rect class="c" x="50" y="50" rx="2" ry="2"/><rect class="c" x="50" y="66" rx="2" ry="2"/><rect class="c" x="50" y="82" rx="2" ry="2"/><rect class="c c1" x="50" y="98" rx="2" ry="2"/><rect class="c" x="66" y="2" rx="2" ry="2"/><rect class="c" x="66" y="18" rx="2" ry="2"/><rect class="c" x="66" y="34" rx="2" ry="2"/><rect class="c c2" x="66" y="50" rx="2" ry="2"/><rect class="c" x="66" y="66" rx="2" ry="2"/><rect class="c" x="66" y="82" rx="2" ry="2"/><rect class="c c3" x="66" y="98" rx="2" ry="2"/><rect class="c" x="82" y="2" rx="2" ry="2"/><rect class="c" x="82" y="18" rx="2" ry="2"/><rect class="c c4" x="82" y="34" rx="2" ry="2"/><rect class="c" x="82" y="50" rx="2" ry="2"/><rect class="c" x="82" y="66" rx="2" ry="2"/><rect class="c" x="82" y="82" rx="2" ry="2"/><rect class="c" x="82" y="98" rx="2" ry="2"/><rect class="c" x="98" y="2" rx="2" ry="2"/><rect class="c" x="98" y="18" rx="2" ry="2"/><rect class="c" x="98" y="34" rx="2" ry="2"/><rect class="c" x="98" y="50" rx="2" ry="2"/><rect class="c" x="98" y="66" rx="2" ry="2"/><rect class="c" x="98" y="82" rx="2" ry="2"/><rect class="c" x="98" y="98" rx="2" ry="2"/><rect class="c" x="114" y="2" rx="2" ry="2"/><rect class="c" x="114" y="18" rx="2" ry="2"/><rect class="c" x="114" y="34" rx="2" ry="2"/><rect class="c" x="114" y="50" rx="2" ry="2"/><rect class="c" x="114" y="66" rx="2" ry="2"/><rect class="c" x="114" y="82" rx="2" ry="2"/><rect class="c" x="114" y="98" rx="2" ry="2"/><rect class="c c5" x="130" y="2" rx="2" ry="2"/><rect class="c" x="130" y="18" rx="2" ry="2"/><rect class="c" x="130" y="34" rx="2" ry="2"/><rect class="c" x="130" y="50" rx="2" ry="2"/><rect class="c c6" x="130" y="66" rx="2" ry="2"/><rect class="c c7" x="130" y="82" rx="2" ry="2"/><rect class="c" x="130" y="98" rx="2" ry="2"/><rect class="c c8" x="146" y="2" rx="2" ry="2"/><rect class="c c9" x="146" y="18" rx="2" ry="2"/><rect class="c ca" x="146" y="34" rx="2" ry="2"/><rect class="c" x="146" y="50" rx="2" ry="2"/><rect class="c" x="146" y="66" rx="2" ry="2"/><rect class="c" x="146" y="82" rx="2" ry="2"/><rect class="c" x="146" y="98" rx="2" ry="2"/><rect class="c cb" x="162" y="2" rx="2" ry="2"/><rect class="c" x="162" y="18" rx="2" ry="2"/><rect class="c cc" x="162" y="34" rx="2" ry="2"/><rect class="c cd" x="162" y="50" rx="2" ry="2"/><rect class="c ce" x="162" y="66" rx="2" ry="2"/><rect class="c cf" x="162" y="82" rx="2" ry="2"/><rect class="c cg" x="162" y="98" rx="2" ry="2"/><rect class="c" x="178" y="2" rx="2" ry="2"/><rect class="c" x="178" y="18" rx="2" ry="2"/><rect class="c ch" x="178" y="34" rx="2" ry="2"/><rect class="c" x="178" y="50" rx="2" ry="2"/><rect class="c" x="178" y="66" rx="2" ry="2"/><rect class="c" x="178" y="82" rx="2" ry="2"/><rect class="c" x="178" y="98" rx="2" ry="2"/><rect class="c" x="194" y="2" rx="2" ry="2"/><rect class="c" x="194" y="18" rx="2" ry="2"/><rect class="c" x="194" y="34" rx="2" ry="2"/><rect class="c" x="194" y="50" rx="2" ry="2"/><rect class="c" x="194" y="66" rx="2" ry="2"/><rect class="c ci" x="194" y="82" rx="2" ry="2"/><rect class="c cj" x="194" y="98" rx="2" ry="2"/><rect class="c ck" x="210" y="2" rx="2" ry="2"/><rect class="c cl" x="210" y="18" rx="2" ry="2"/><rect class="c cm" x="210" y="34" rx="2" ry="2"/><rect class="c cn" x="210" y="50" rx="2" ry="2"/><rect class="c co" x="210" y="66" rx="2" ry="2"/><rect class="c" x="210" y="82" rx="2" ry="2"/><rect class="c" x="210" y="98" rx="2" ry="2"/><rect class="c" x="226" y="2" rx="2" ry="2"/><rect class="c" x="226" y="18" rx="2" ry="2"/><rect class="c" x="226" y="34" rx="2" ry="2"/><rect class="c" x="226" y="50" rx="2" ry="2"/><rect class="c" x="226" y="66" rx="2" ry="2"/><rect class="c" x="226" y="82" rx="2" ry="2"/><rect class="c" x="226" y="98" rx="2" ry="2"/><rect class="c" x="242" y="2" rx="2" ry="2"/><rect class="c cp" x="242" y="18" rx="2" ry="2"/><rect class="c" x="242" y="34" rx="2" ry="2"/><rect class="c cq" x="242" y="50" rx="2" ry="2"/><rect class="c" x="242" y="66" rx="2" ry="2"/><rect class="c" x="242" y="82" rx="2" ry="2"/><rect class="c" x="242" y="98" rx="2" ry="2"/><rect class="c" x="258" y="2" rx="2" ry="2"/><rect class="c" x="258" y="18" rx="2" ry="2"/><rect class="c" x="258" y="34" rx="2" ry="2"/><rect class="c cr" x="258" y="50" rx="2" ry="2"/><rect class="c cs" x="258" y="66" rx="2" ry="2"/><rect class="c ct" x="258" y="82" rx="2" ry="2"/><rect class="c cu" x="258" y="98" rx="2" ry="2"/><rect class="c cv" x="274" y="2" rx="2" ry="2"/><rect class="c cw" x="274" y="18" rx="2" ry="2"/><rect class="c cx" x="274" y="34" rx="2" ry="2"/><rect class="c cy" x="274" y="50" rx="2" ry="2"/><rect class="c cz" x="274" y="66" rx="2" ry="2"/><rect class="c c10" x="274" y="82" rx="2" ry="2"/><rect class="c c11" x="274" y="98" rx="2" ry="2"/><rect class="c" x="290" y="2" rx="2" ry="2"/><rect class="c" x="290" y="18" rx="2" ry="2"/><rect class="c" x="290" y="34" rx="2" ry="2"/><rect class="c" x="290" y="50" rx="2" ry="2"/><rect class="c" x="290" y="66" rx="2" ry="2"/><rect class="c" x="290" y="82" rx="2" ry="2"/><rect class="c" x="290" y="98" rx="2" ry="2"/><rect class="c c12" x="306" y="2" rx="2" ry="2"/><rect class="c" x="306" y="18" rx="2" ry="2"/><rect class="c c13" x="306" y="34" rx="2" ry="2"/><rect class="c c14" x="306" y="50" rx="2" ry="2"/><rect class="c c15" x="306" y="66" rx="2" ry="2"/><rect class="c" x="306" y="82" rx="2" ry="2"/><rect class="c c16" x="306" y="98" rx="2" ry="2"/><rect class="c" x="322" y="2" rx="2" ry="2"/><rect class="c" x="322" y="18" rx="2" ry="2"/><rect class="c" x="322" y="34" rx="2" ry="2"/><rect class="c" x="322" y="50" rx="2" ry="2"/><rect class="c c17" x="322" y="66" rx="2" ry="2"/><rect class="c" x="322" y="82" rx="2" ry="2"/><rect class="c" x="322" y="98" rx="2" ry="2"/><rect class="c" x="338" y="2" rx="2" ry="2"/><rect class="c" x="338" y="18" rx="2" ry="2"/><rect class="c" x="338" y="34" rx="2" ry="2"/><rect class="c c18" x="338" y="50" rx="2" ry="2"/><rect class="c c19" x="338" y="66" rx="2" ry="2"/><rect class="c" x="338" y="82" rx="2" ry="2"/><rect class="c" x="338" y="98" rx="2" ry="2"/><rect class="c c1a" x="354" y="2" rx="2" ry="2"/><rect class="c c1b" x="354" y="18" rx="2" ry="2"/><rect class="c c1c" x="354" y="34" rx="2" ry="2"/><rect class="c" x="354" y="50" rx="2" ry="2"/><rect class="c" x="354" y="66" rx="2" ry="2"/><rect class="c" x="354" y="82" rx="2" ry="2"/><rect class="c" x="354" y="98" rx="2" ry="2"/><rect class="c" x="370" y="2" rx="2" ry="2"/><rect class="c c1d" x="370" y="18" rx="2" ry="2"/><rect class="c" x="370" y="34" rx="2" ry="2"/><rect class="c" x="370" y="50" rx="2" ry="2"/><rect class="c" x="370" y="66" rx="2" ry="2"/><rect class="c" x="370" y="82" rx="2" ry="2"/><rect class="c" x="370" y="98" rx="2" ry="2"/><rect class="c" x="386" y="2" rx="2" ry="2"/><rect class="c" x="386" y="18" rx="2" ry="2"/><rect class="c" x="386" y="34" rx="2" ry="2"/><rect class="c" x="386" y="50" rx="2" ry="2"/><rect class="c" x="386" y="66" rx="2" ry="2"/><rect class="c c1e" x="386" y="82" rx="2" ry="2"/><rect class="c c1f" x="386" y="98" rx="2" ry="2"/><rect class="c" x="402" y="2" rx="2" ry="2"/><rect class="c" x="402" y="18" rx="2" ry="2"/><rect class="c" x="402" y="34" rx="2" ry="2"/><rect class="c" x="402" y="50" rx="2" ry="2"/><rect class="c" x="402" y="66" rx="2" ry="2"/><rect class="c c1g" x="402" y="82" rx="2" ry="2"/><rect class="c c1h" x="402" y="98" rx="2" ry="2"/><rect class="c" x="418" y="2" rx="2" ry="2"/><rect class="c" x="418" y="18" rx="2" ry="2"/><rect class="c" x="418" y="34" rx="2" ry="2"/><rect class="c" x="418" y="50" rx="2" ry="2"/><rect class="c" x="418" y="66" rx="2" ry="2"/><rect class="c c1i" x="418" y="82" rx="2" ry="2"/><rect class="c c1j" x="418" y="98" rx="2" ry="2"/><rect class="c" x="434" y="2" rx="2" ry="2"/><rect class="c" x="434" y="18" rx="2" ry="2"/><rect class="c c1k" x="434" y="34" rx="2" ry="2"/><rect class="c" x="434" y="50" rx="2" ry="2"/><rect class="c" x="434" y="66" rx="2" ry="2"/><rect class="c" x="434" y="82" rx="2" ry="2"/><rect class="c" x="434" y="98" rx="2" ry="2"/><rect class="c c1l" x="450" y="2" rx="2" ry="2"/><rect class="c c1m" x="450" y="18" rx="2" ry="2"/><rect class="c" x="450" y="34" rx="2" ry="2"/><rect class="c" x="450" y="50" rx="2" ry="2"/><rect class="c" x="450" y="66" rx="2" ry="2"/><rect class="c" x="450" y="82" rx="2" ry="2"/><rect class="c" x="450" y="98" rx="2" ry="2"/><rect class="c c1n" x="466" y="2" rx="2" ry="2"/><rect class="c c1o" x="466" y="18" rx="2" ry="2"/><rect class="c c1p" x="466" y="34" rx="2" ry="2"/><rect class="c c1q" x="466" y="50" rx="2" ry="2"/><rect class="c c1r" x="466" y="66" rx="2" ry="2"/><rect class="c c1s" x="466" y="82" rx="2" ry="2"/><rect class="c" x="466" y="98" rx="2" ry="2"/><rect class="c" x="482" y="2" rx="2" ry="2"/><rect class="c" x="482" y="18" rx="2" ry="2"/><rect class="c" x="482" y="34" rx="2" ry="2"/><rect class="c c1t" x="482" y="50" rx="2" ry="2"/><rect class="c c1u" x="482" y="66" rx="2" ry="2"/><rect class="c c1v" x="482" y="82" rx="2" ry="2"/><rect class="c" x="482" y="98" rx="2" ry="2"/><rect class="c" x="498" y="2" rx="2" ry="2"/><rect class="c" x="498" y="18" rx="2" ry="2"/><rect class="c" x="498" y="34" rx="2" ry="2"/><rect class="c" x="498" y="50" rx="2" ry="2"/><rect class="c" x="498" y="66" rx="2" ry="2"/><rect class="c" x="498" y="82" rx="2" ry="2"/><rect class="c c1w" x="498" y="98" rx="2" ry="2"/><rect class="c c1x" x="514" y="2" rx="2" ry="2"/><rect class="c c1y" x="514" y="18" rx="2" ry="2"/><rect class="c c1z" x="514" y="34" rx="2" ry="2"/><rect class="c" x="514" y="50" rx="2" ry="2"/><rect class="c" x="514" y="66" rx="2" ry="2"/><rect class="c c20" x="514" y="82" rx="2" ry="2"/><rect class="c" x="514" y="98" rx="2" ry="2"/><rect class="c" x="530" y="2" rx="2" ry="2"/><rect class="c c21" x="530" y="18" rx="2" ry="2"/><rect class="c c22" x="530" y="34" rx="2" ry="2"/><rect class="c" x="530" y="50" rx="2" ry="2"/><rect class="c" x="530" y="66" rx="2" ry="2"/><rect class="c" x="530" y="82" rx="2" ry="2"/><rect class="c" x="530" y="98" rx="2" ry="2"/><rect class="c" x="546" y="2" rx="2" ry="2"/><rect class="c" x="546" y="18" rx="2" ry="2"/><rect class="c" x="546" y="34" rx="2" ry="2"/><rect class="c" x="546" y="50" rx="2" ry="2"/><rect class="c" x="546" y="66" rx="2" ry="2"/><rect class="c c23" x="546" y="82" rx="2" ry="2"/><rect class="c" x="546" y="98" rx="2" ry="2"/><rect class="c" x="562" y="2" rx="2" ry="2"/><rect class="c" x="562" y="18" rx="2" ry="2"/><rect class="c" x="562" y="34" rx="2" ry="2"/><rect class="c" x="562" y="50" rx="2" ry="2"/><rect class="c c24" x="562" y="66" rx="2" ry="2"/><rect class="c" x="562" y="82" rx="2" ry="2"/><rect class="c" x="562" y="98" rx="2" ry="2"/><rect class="c" x="578" y="2" rx="2" ry="2"/><rect class="c" x="578" y="18" rx="2" ry="2"/><rect class="c" x="578" y="34" rx="2" ry="2"/><rect class="c" x="578" y="50" rx="2" ry="2"/><rect class="c" x="578" y="66" rx="2" ry="2"/><rect class="c" x="578" y="82" rx="2" ry="2"/><rect class="c" x="578" y="98" rx="2" ry="2"/><rect class="c" x="594" y="2" rx="2" ry="2"/><rect class="c" x="594" y="18" rx="2" ry="2"/><rect class="c" x="594" y="34" rx="2" ry="2"/><rect class="c" x="594" y="50" rx="2" ry="2"/><rect class="c" x="594" y="66" rx="2" ry="2"/><rect class="c c25" x="594" y="82" rx="2" ry="2"/><rect class="c" x="594" y="98" rx="2" ry="2"/><rect class="c" x="610" y="2" rx="2" ry="2"/><rect class="c" x="610" y="18" rx="2" ry="2"/><rect class="c" x="610" y="34" rx="2" ry="2"/><rect class="c" x="610" y="50" rx="2" ry="2"/><rect class="c c26" x="610" y="66" rx="2" ry="2"/><rect class="c" x="610" y="82" rx="2" ry="2"/><rect class="c" x="610" y="98" rx="2" ry="2"/><rect class="c" x="626" y="2" rx="2" ry="2"/><rect class="c" x="626" y="18" rx="2" ry="2"/><rect class="c" x="626" y="34" rx="2" ry="2"/><rect class="c" x="626" y="50" rx="2" ry="2"/><rect class="c" x="626" y="66" rx="2" ry="2"/><rect class="c c27" x="626" y="82" rx="2" ry="2"/><rect class="c c28" x="626" y="98" rx="2" ry="2"/><rect class="c" x="642" y="2" rx="2" ry="2"/><rect class="c c29" x="642" y="18" rx="2" ry="2"/><rect class="c c2a" x="642" y="34" rx="2" ry="2"/><rect class="c c2b" x="642" y="50" rx="2" ry="2"/><rect class="c c2c" x="642" y="66" rx="2" ry="2"/><rect class="c" x="642" y="82" rx="2" ry="2"/><rect class="c" x="642" y="98" rx="2" ry="2"/><rect class="c" x="658" y="2" rx="2" ry="2"/><rect class="c" x="658" y="18" rx="2" ry="2"/><rect class="c" x="658" y="34" rx="2" ry="2"/><rect class="c" x="658" y="50" rx="2" ry="2"/><rect class="c" x="658" y="66" rx="2" ry="2"/><rect class="c" x="658" y="82" rx="2" ry="2"/><rect class="c" x="658" y="98" rx="2" ry="2"/><rect class="c" x="674" y="2" rx="2" ry="2"/><rect class="c c2d" x="674" y="18" rx="2" ry="2"/><rect class="c" x="674" y="34" rx="2" ry="2"/><rect class="c" x="674" y="50" rx="2" ry="2"/><rect class="c" x="674" y="66" rx="2" ry="2"/><rect class="c" x="674" y="82" rx="2" ry="2"/><rect class="c" x="674" y="98" rx="2" ry="2"/><rect class="c" x="690" y="2" rx="2" ry="2"/><rect class="c c2e" x="690" y="18" rx="2" ry="2"/><rect class="c" x="690" y="34" rx="2" ry="2"/><rect class="c" x="690" y="50" rx="2" ry="2"/><rect class="c" x="690" y="66" rx="2" ry="2"/><rect class="c" x="690" y="82" rx="2" ry="2"/><rect class="c c2f" x="690" y="98" rx="2" ry="2"/><rect class="c c2g" x="706" y="2" rx="2" ry="2"/><rect class="c" x="706" y="18" rx="2" ry="2"/><rect class="c" x="706" y="34" rx="2" ry="2"/><rect class="c" x="706" y="50" rx="2" ry="2"/><rect class="c" x="706" y="66" rx="2" ry="2"/><rect class="c" x="706" y="82" rx="2" ry="2"/><rect class="c" x="706" y="98" rx="2" ry="2"/><rect class="c" x="722" y="2" rx="2" ry="2"/><rect class="c" x="722" y="18" rx="2" ry="2"/><rect class="c" x="722" y="34" rx="2" ry="2"/><rect class="c" x="722" y="50" rx="2" ry="2"/><rect class="c" x="722" y="66" rx="2" ry="2"/><rect class="c" x="722" y="82" rx="2" ry="2"/><rect class="c" x="722" y="98" rx="2" ry="2"/><rect class="c" x="738" y="2" rx="2" ry="2"/><rect class="c" x="738" y="18" rx="2" ry="2"/><rect class="c" x="738" y="34" rx="2" ry="2"/><rect class="c" x="738" y="50" rx="2" ry="2"/><rect class="c" x="738" y="66" rx="2" ry="2"/><rect class="c" x="738" y="82" rx="2" ry="2"/><rect class="c" x="738" y="98" rx="2" ry="2"/><rect class="c" x="754" y="2" rx="2" ry="2"/><rect class="c" x="754" y="18" rx="2" ry="2"/><rect class="c" x="754" y="34" rx="2" ry="2"/><rect class="c" x="754" y="50" rx="2" ry="2"/><rect class="c" x="754" y="66" rx="2" ry="2"/><rect class="c" x="754" y="82" rx="2" ry="2"/><rect class="c" x="754" y="98" rx="2" ry="2"/><rect class="c" x="770" y="2" rx="2" ry="2"/><rect class="c" x="770" y="18" rx="2" ry="2"/><rect class="c" x="770" y="34" rx="2" ry="2"/><rect class="c" x="770" y="50" rx="2" ry="2"/><rect class="c" x="770" y="66" rx="2" ry="2"/><rect class="c" x="770" y="82" rx="2" ry="2"/><rect class="c" x="770" y="98" rx="2" ry="2"/><rect class="c" x="786" y="2" rx="2" ry="2"/><rect class="c" x="786" y="18" rx="2" ry="2"/><rect class="c" x="786" y="34" rx="2" ry="2"/><rect class="c" x="786" y="50" rx="2" ry="2"/><rect class="c c2h" x="786" y="66" rx="2" ry="2"/><rect class="c" x="786" y="82" rx="2" ry="2"/><rect class="c" x="786" y="98" rx="2" ry="2"/><rect class="c" x="802" y="2" rx="2" ry="2"/><rect class="c c2i" x="802" y="18" rx="2" ry="2"/><rect class="c c2j" x="802" y="34" rx="2" ry="2"/><rect class="c" x="802" y="50" rx="2" ry="2"/><rect class="c c2k" x="802" y="66" rx="2" ry="2"/><rect class="c" x="802" y="82" rx="2" ry="2"/><rect class="c" x="802" y="98" rx="2" ry="2"/><rect class="c" x="818" y="2" rx="2" ry="2"/><rect class="c" x="818" y="18" rx="2" ry="2"/><rect class="c" x="818" y="34" rx="2" ry="2"/><rect class="c" x="818" y="50" rx="2" ry="2"/><rect class="c" x="818" y="66" rx="2" ry="2"/><rect class="c" x="818" y="82" rx="2" ry="2"/><rect class="c" x="818" y="98" rx="2" ry="2"/><rect class="c c2l" x="834" y="2" rx="2" ry="2"/><rect class="c" x="834" y="18" rx="2" ry="2"/><rect class="c c2m" x="834" y="34" rx="2" ry="2"/><rect class="c c2n" x="834" y="50" rx="2" ry="2"/><rect class="c c2o" x="834" y="66" rx="2" ry="2"/><rect class="u u0" height="12" width="778.7" x="0.0" y="144"/><rect class="u u1" height="12" width="35.6" x="778.1" y="144"/><rect class="u u2" height="12" width="9.3" x="813.0" y="144"/><rect class="u u3" height="12" width="26.8" x="821.8" y="144"/><rect class="s s0" x="0.8" y="0.8" width="14.4" height="14.4" rx="4.5" ry="4.5"/><rect class="s s1" x="1.8" y="1.8" width="12.3" height="12.3" rx="4.1" ry="4.1"/><rect class="s s2" x="2.6" y="2.6" width="10.8" height="10.8" rx="3.6" ry="3.6"/><rect class="s s3" x="3.0" y="3.0" width="9.9" height="9.9" rx="3.3" ry="3.3"/></svg>