<svg viewBox="-16 -32 880 192" width="880" height="192" xmlns="http://www.w3.org/2000/svg"><desc>Generated with https://github.com/Platane/snk</desc><style>:root{--cb:#1b1f230a;--cs:purple;--ce:#161b22;--c0:#161b22;--c1:#01311f;--c2:#034525;--c3:#0f6d31;--c4:#00c647}.c{shape-rendering:geometricPrecision;fill:var(--ce);stroke-width:1px;stroke:var(--cb);animation:none 37100ms linear infinite;width:12px;height:12px}@keyframes c0{0.8%{fill:var(--c1)}0.82%,100%{fill:var(--ce)}}.c.c0{fill:var(--c1);animation-name:c0}@keyframes c1{66.3%{fill:var(--c2)}66.32%,100%{fill:var(--ce)}}.c.c1{fill:var(--c2);animation-name:c1}@keyframes c2{2.69%{fill:var(--c1)}2.71%,100%{fill:var(--ce)}}.c.c2{fill:var(--c1);animation-name:c2}@keyframes c3{3.49%{fill:var(--c1)}3.51%,100%{fill:var(--ce)}}.c.c3{fill:var(--c1);animation-name:c3}@keyframes c4{2.15%{fill:var(--c1)}2.17%,100%{fill:var(--ce)}}.c.c4{fill:var(--c1);animation-name:c4}@keyframes c5{20.21%{fill:var(--c1)}20.23%,100%{fill:var(--ce)}}.c.c5{fill:var(--c1);animation-name:c5}@keyframes c6{5.11%{fill:var(--c1)}5.13%,100%{fill:var(--ce)}}.c.c6{fill:var(--c1);animation-name:c6}@keyframes c7{4.84%{fill:var(--c1)}4.86%,100%{fill:var(--ce)}}.c.c7{fill:var(--c1);animation-name:c7}@keyframes c8{19.94%{fill:var(--c1)}19.96%,100%{fill:var(--ce)}}.c.c8{fill:var(--c1);animation-name:c8}@keyframes c9{20.74%{fill:var(--c1)}20.76%,100%{fill:var(--ce)}}.c.c9{fill:var(--c1);animation-name:c9}@keyframes ca{63.6%{fill:var(--c2)}63.62%,100%{fill:var(--ce)}}.c.ca{fill:var(--c2);animation-name:ca}@keyframes cb{19.67%{fill:var(--c1)}19.69%,100%{fill:var(--ce)}}.c.cb{fill:var(--c1);animation-name:cb}@keyframes cc{6.19%{fill:var(--c1)}6.21%,100%{fill:var(--ce)}}.c.cc{fill:var(--c1);animation-name:cc}@keyframes cd{5.92%{fill:var(--c1)}5.94%,100%{fill:var(--ce)}}.c.cd{fill:var(--c1);animation-name:cd}@keyframes ce{5.65%{fill:var(--c1)}5.67%,100%{fill:var(--ce)}}.c.ce{fill:var(--c1);animation-name:ce}@keyframes cf{18.32%{fill:var(--c1)}18.34%,100%{fill:var(--ce)}}.c.cf{fill:var(--c1);animation-name:cf}@keyframes cg{18.05%{fill:var(--c1)}18.07%,100%{fill:var(--ce)}}.c.cg{fill:var(--c1);animation-name:cg}@keyframes ch{6.46%{fill:var(--c1)}6.48%,100%{fill:var(--ce)}}.c.ch{fill:var(--c1);animation-name:ch}@keyframes ci{17.24%{fill:var(--c1)}17.26%,100%{fill:var(--ce)}}.c.ci{fill:var(--c1);animation-name:ci}@keyframes cj{17.51%{fill:var(--c1)}17.53%,100%{fill:var(--ce)}}.c.cj{fill:var(--c1);animation-name:cj}@keyframes ck{7.54%{fill:var(--c1)}7.56%,100%{fill:var(--ce)}}.c.ck{fill:var(--c1);animation-name:ck}@keyframes cl{7.27%{fill:var(--c1)}7.29%,100%{fill:var(--ce)}}.c.cl{fill:var(--c1);animation-name:cl}@keyframes cm{7%{fill:var(--c1)}7.02%,100%{fill:var(--ce)}}.c.cm{fill:var(--c1);animation-name:cm}@keyframes cn{16.43%{fill:var(--c1)}16.45%,100%{fill:var(--ce)}}.c.cn{fill:var(--c1);animation-name:cn}@keyframes co{16.7%{fill:var(--c1)}16.72%,100%{fill:var(--ce)}}.c.co{fill:var(--c1);animation-name:co}@keyframes cp{8.35%{fill:var(--c1)}8.37%,100%{fill:var(--ce)}}.c.cp{fill:var(--c1);animation-name:cp}@keyframes cq{15.89%{fill:var(--c1)}15.91%,100%{fill:var(--ce)}}.c.cq{fill:var(--c1);animation-name:cq}@keyframes cr{15.62%{fill:var(--c1)}15.64%,100%{fill:var(--ce)}}.c.cr{fill:var(--c1);animation-name:cr}@keyframes cs{23.44%{fill:var(--c1)}23.46%,100%{fill:var(--ce)}}.c.cs{fill:var(--c1);animation-name:cs}@keyframes ct{60.91%{fill:var(--c2)}60.93%,100%{fill:var(--ce)}}.c.ct{fill:var(--c2);animation-name:ct}@keyframes cu{24.52%{fill:var(--c1)}24.54%,100%{fill:var(--ce)}}.c.cu{fill:var(--c1);animation-name:cu}@keyframes cv{9.15%{fill:var(--c1)}9.17%,100%{fill:var(--ce)}}.c.cv{fill:var(--c1);animation-name:cv}@keyframes cw{8.88%{fill:var(--c1)}8.9%,100%{fill:var(--ce)}}.c.cw{fill:var(--c1);animation-name:cw}@keyframes cx{15.08%{fill:var(--c1)}15.1%,100%{fill:var(--ce)}}.c.cx{fill:var(--c1);animation-name:cx}@keyframes cy{15.35%{fill:var(--c1)}15.37%,100%{fill:var(--ce)}}.c.cy{fill:var(--c1);animation-name:cy}@keyframes cz{23.71%{fill:var(--c1)}23.73%,100%{fill:var(--ce)}}.c.cz{fill:var(--c1);animation-name:cz}@keyframes c10{23.98%{fill:var(--c1)}24%,100%{fill:var(--ce)}}.c.c10{fill:var(--c1);animation-name:c10}@keyframes c11{24.25%{fill:var(--c1)}24.27%,100%{fill:var(--ce)}}.c.c11{fill:var(--c1);animation-name:c11}@keyframes c12{9.69%{fill:var(--c1)}9.71%,100%{fill:var(--ce)}}.c.c12{fill:var(--c1);animation-name:c12}@keyframes c13{10.23%{fill:var(--c1)}10.25%,100%{fill:var(--ce)}}.c.c13{fill:var(--c1);animation-name:c13}@keyframes c14{10.5%{fill:var(--c1)}10.52%,100%{fill:var(--ce)}}.c.c14{fill:var(--c1);animation-name:c14}@keyframes c15{10.77%{fill:var(--c1)}10.79%,100%{fill:var(--ce)}}.c.c15{fill:var(--c1);animation-name:c15}@keyframes c16{25.87%{fill:var(--c1)}25.89%,100%{fill:var(--ce)}}.c.c16{fill:var(--c1);animation-name:c16}@keyframes c17{11.04%{fill:var(--c1)}11.06%,100%{fill:var(--ce)}}.c.c17{fill:var(--c1);animation-name:c17}@keyframes c18{11.58%{fill:var(--c1)}11.6%,100%{fill:var(--ce)}}.c.c18{fill:var(--c1);animation-name:c18}@keyframes c19{11.31%{fill:var(--c1)}11.33%,100%{fill:var(--ce)}}.c.c19{fill:var(--c1);animation-name:c19}@keyframes c1a{13.2%{fill:var(--c1)}13.22%,100%{fill:var(--ce)}}.c.c1a{fill:var(--c1);animation-name:c1a}@keyframes c1b{12.39%{fill:var(--c1)}12.41%,100%{fill:var(--ce)}}.c.c1b{fill:var(--c1);animation-name:c1b}@keyframes c1c{58.48%{fill:var(--c2)}58.5%,100%{fill:var(--ce)}}.c.c1c{fill:var(--c2);animation-name:c1c}@keyframes c1d{12.66%{fill:var(--c1)}12.68%,100%{fill:var(--ce)}}.c.c1d{fill:var(--c1);animation-name:c1d}@keyframes c1e{28.56%{fill:var(--c1)}28.58%,100%{fill:var(--ce)}}.c.c1e{fill:var(--c1);animation-name:c1e}@keyframes c1f{27.21%{fill:var(--c1)}27.23%,100%{fill:var(--ce)}}.c.c1f{fill:var(--c1);animation-name:c1f}@keyframes c1g{28.29%{fill:var(--c1)}28.31%,100%{fill:var(--ce)}}.c.c1g{fill:var(--c1);animation-name:c1g}@keyframes c1h{27.48%{fill:var(--c1)}27.5%,100%{fill:var(--ce)}}.c.c1h{fill:var(--c1);animation-name:c1h}@keyframes c1i{28.02%{fill:var(--c1)}28.04%,100%{fill:var(--ce)}}.c.c1i{fill:var(--c1);animation-name:c1i}@keyframes c1j{27.75%{fill:var(--c1)}27.77%,100%{fill:var(--ce)}}.c.c1j{fill:var(--c1);animation-name:c1j}@keyframes c1k{33.41%{fill:var(--c1)}33.43%,100%{fill:var(--ce)}}.c.c1k{fill:var(--c1);animation-name:c1k}@keyframes c1l{32.6%{fill:var(--c1)}32.62%,100%{fill:var(--ce)}}.c.c1l{fill:var(--c1);animation-name:c1l}@keyframes c1m{31.8%{fill:var(--c1)}31.82%,100%{fill:var(--ce)}}.c.c1m{fill:var(--c1);animation-name:c1m}@keyframes c1n{32.34%{fill:var(--c1)}32.36%,100%{fill:var(--ce)}}.c.c1n{fill:var(--c1);animation-name:c1n}@keyframes c1o{32.07%{fill:var(--c1)}32.09%,100%{fill:var(--ce)}}.c.c1o{fill:var(--c1);animation-name:c1o}@keyframes c1p{54.98%{fill:var(--c2)}55%,100%{fill:var(--ce)}}.c.c1p{fill:var(--c2);animation-name:c1p}@keyframes c1q{30.99%{fill:var(--c1)}31.01%,100%{fill:var(--ce)}}.c.c1q{fill:var(--c1);animation-name:c1q}@keyframes c1r{30.18%{fill:var(--c1)}30.2%,100%{fill:var(--ce)}}.c.c1r{fill:var(--c1);animation-name:c1r}@keyframes c1s{55.79%{fill:var(--c2)}55.81%,100%{fill:var(--ce)}}.c.c1s{fill:var(--c2);animation-name:c1s}@keyframes c1t{30.72%{fill:var(--c1)}30.74%,100%{fill:var(--ce)}}.c.c1t{fill:var(--c1);animation-name:c1t}@keyframes c1u{30.45%{fill:var(--c1)}30.47%,100%{fill:var(--ce)}}.c.c1u{fill:var(--c1);animation-name:c1u}@keyframes c1v{88.94%{fill:var(--c4)}88.96%,100%{fill:var(--ce)}}.c.c1v{fill:var(--c4);animation-name:c1v}@keyframes c1w{89.48%{fill:var(--c4)}89.5%,100%{fill:var(--ce)}}.c.c1w{fill:var(--c4);animation-name:c1w}@keyframes c1x{53.63%{fill:var(--c2)}53.65%,100%{fill:var(--ce)}}.c.c1x{fill:var(--c2);animation-name:c1x}@keyframes c1y{35.03%{fill:var(--c1)}35.05%,100%{fill:var(--ce)}}.c.c1y{fill:var(--c1);animation-name:c1y}@keyframes c1z{38.53%{fill:var(--c1)}38.55%,100%{fill:var(--ce)}}.c.c1z{fill:var(--c1);animation-name:c1z}@keyframes c20{37.73%{fill:var(--c1)}37.75%,100%{fill:var(--ce)}}.c.c20{fill:var(--c1);animation-name:c20}@keyframes c21{35.3%{fill:var(--c1)}35.32%,100%{fill:var(--ce)}}.c.c21{fill:var(--c1);animation-name:c21}@keyframes c22{87.32%{fill:var(--c4)}87.34%,100%{fill:var(--ce)}}.c.c22{fill:var(--c4);animation-name:c22}@keyframes c23{37.19%{fill:var(--c1)}37.21%,100%{fill:var(--ce)}}.c.c23{fill:var(--c1);animation-name:c23}@keyframes c24{36.65%{fill:var(--c1)}36.67%,100%{fill:var(--ce)}}.c.c24{fill:var(--c1);animation-name:c24}@keyframes c25{50.93%{fill:var(--c1)}50.95%,100%{fill:var(--ce)}}.c.c25{fill:var(--c1);animation-name:c25}@keyframes c26{50.39%{fill:var(--c1)}50.41%,100%{fill:var(--ce)}}.c.c26{fill:var(--c1);animation-name:c26}@keyframes c27{49.32%{fill:var(--c1)}49.34%,100%{fill:var(--ce)}}.c.c27{fill:var(--c1);animation-name:c27}@keyframes c28{49.05%{fill:var(--c1)}49.07%,100%{fill:var(--ce)}}.c.c28{fill:var(--c1);animation-name:c28}@keyframes c29{40.96%{fill:var(--c1)}40.98%,100%{fill:var(--ce)}}.c.c29{fill:var(--c1);animation-name:c29}@keyframes c2a{84.9%{fill:var(--c4)}84.92%,100%{fill:var(--ce)}}.c.c2a{fill:var(--c4);animation-name:c2a}@keyframes c2b{85.17%{fill:var(--c4)}85.19%,100%{fill:var(--ce)}}.c.c2b{fill:var(--c4);animation-name:c2b}@keyframes c2c{49.86%{fill:var(--c1)}49.88%,100%{fill:var(--ce)}}.c.c2c{fill:var(--c1);animation-name:c2c}@keyframes c2d{41.5%{fill:var(--c1)}41.52%,100%{fill:var(--ce)}}.c.c2d{fill:var(--c1);animation-name:c2d}@keyframes c2e{41.77%{fill:var(--c1)}41.79%,100%{fill:var(--ce)}}.c.c2e{fill:var(--c1);animation-name:c2e}@keyframes c2f{47.97%{fill:var(--c1)}47.99%,100%{fill:var(--ce)}}.c.c2f{fill:var(--c1);animation-name:c2f}@keyframes c2g{42.31%{fill:var(--c1)}42.33%,100%{fill:var(--ce)}}.c.c2g{fill:var(--c1);animation-name:c2g}@keyframes c2h{45.27%{fill:var(--c1)}45.29%,100%{fill:var(--ce)}}.c.c2h{fill:var(--c1);animation-name:c2h}@keyframes c2i{44.19%{fill:var(--c1)}44.21%,100%{fill:var(--ce)}}.c.c2i{fill:var(--c1);animation-name:c2i}@keyframes c2j{80.04%{fill:var(--c2)}80.06%,100%{fill:var(--ce)}}.c.c2j{fill:var(--c2);animation-name:c2j}@keyframes c2k{45.54%{fill:var(--c1)}45.56%,100%{fill:var(--ce)}}.c.c2k{fill:var(--c1);animation-name:c2k}@keyframes c2l{81.12%{fill:var(--c2)}81.14%,100%{fill:var(--ce)}}.c.c2l{fill:var(--c2);animation-name:c2l}@keyframes c2m{80.58%{fill:var(--c2)}80.6%,100%{fill:var(--ce)}}.c.c2m{fill:var(--c2);animation-name:c2m}.u{transform-origin:0 0;transform:scale(0,1);animation:none linear 37100ms infinite}@keyframes u0{0.8%{transform:scale(0.000,1)}0.82%,2.15%{transform:scale(0.013,1)}2.17%,2.69%{transform:scale(0.025,1)}2.71%,3.49%{transform:scale(0.037,1)}3.51%,4.84%{transform:scale(0.050,1)}4.86%,5.11%{transform:scale(0.063,1)}5.13%,5.65%{transform:scale(0.075,1)}5.67%,5.92%{transform:scale(0.087,1)}5.94%,6.19%{transform:scale(0.100,1)}6.21%,6.46%{transform:scale(0.113,1)}6.48%,7%{transform:scale(0.125,1)}7.02%,7.27%{transform:scale(0.138,1)}7.29%,7.54%{transform:scale(0.150,1)}7.56%,8.35%{transform:scale(0.163,1)}8.37%,8.88%{transform:scale(0.175,1)}8.9%,9.15%{transform:scale(0.188,1)}9.17%,9.69%{transform:scale(0.200,1)}9.71%,10.23%{transform:scale(0.212,1)}10.25%,10.5%{transform:scale(0.225,1)}10.52%,10.77%{transform:scale(0.237,1)}10.79%,11.04%{transform:scale(0.250,1)}11.06%,11.31%{transform:scale(0.263,1)}11.33%,11.58%{transform:scale(0.275,1)}11.6%,12.39%{transform:scale(0.287,1)}12.41%,12.66%{transform:scale(0.300,1)}12.68%,13.2%{transform:scale(0.313,1)}13.22%,15.08%{transform:scale(0.325,1)}15.1%,15.35%{transform:scale(0.338,1)}15.37%,15.62%{transform:scale(0.350,1)}15.64%,15.89%{transform:scale(0.362,1)}15.91%,16.43%{transform:scale(0.375,1)}16.45%,16.7%{transform:scale(0.388,1)}16.72%,17.24%{transform:scale(0.400,1)}17.26%,17.51%{transform:scale(0.412,1)}17.53%,18.05%{transform:scale(0.425,1)}18.07%,18.32%{transform:scale(0.438,1)}18.34%,19.67%{transform:scale(0.450,1)}19.69%,19.94%{transform:scale(0.463,1)}19.96%,20.21%{transform:scale(0.475,1)}20.23%,20.74%{transform:scale(0.487,1)}20.76%,23.44%{transform:scale(0.500,1)}23.46%,23.71%{transform:scale(0.512,1)}23.73%,23.98%{transform:scale(0.525,1)}24%,24.25%{transform:scale(0.537,1)}24.27%,24.52%{transform:scale(0.550,1)}24.54%,25.87%{transform:scale(0.563,1)}25.89%,27.21%{transform:scale(0.575,1)}27.23%,27.48%{transform:scale(0.588,1)}27.5%,27.75%{transform:scale(0.600,1)}27.77%,28.02%{transform:scale(0.613,1)}28.04%,28.29%{transform:scale(0.625,1)}28.31%,28.56%{transform:scale(0.637,1)}28.58%,30.18%{transform:scale(0.650,1)}30.2%,30.45%{transform:scale(0.662,1)}30.47%,30.72%{transform:scale(0.675,1)}30.74%,30.99%{transform:scale(0.688,1)}31.01%,31.8%{transform:scale(0.700,1)}31.82%,32.07%{transform:scale(0.713,1)}32.09%,32.34%{transform:scale(0.725,1)}32.36%,32.6%{transform:scale(0.738,1)}32.62%,33.41%{transform:scale(0.750,1)}33.43%,35.03%{transform:scale(0.762,1)}35.05%,35.3%{transform:scale(0.775,1)}35.32%,36.65%{transform:scale(0.787,1)}36.67%,37.19%{transform:scale(0.800,1)}37.21%,37.73%{transform:scale(0.813,1)}37.75%,38.53%{transform:scale(0.825,1)}38.55%,40.96%{transform:scale(0.838,1)}40.98%,41.5%{transform:scale(0.850,1)}41.52%,41.77%{transform:scale(0.863,1)}41.79%,42.31%{transform:scale(0.875,1)}42.33%,44.19%{transform:scale(0.887,1)}44.21%,45.27%{transform:scale(0.900,1)}45.29%,45.54%{transform:scale(0.912,1)}45.56%,47.97%{transform:scale(0.925,1)}47.99%,49.05%{transform:scale(0.938,1)}49.07%,49.32%{transform:scale(0.950,1)}49.34%,49.86%{transform:scale(0.963,1)}49.88%,50.39%{transform:scale(0.975,1)}50.41%,50.93%{transform:scale(0.988,1)}50.95%,100%{transform:scale(1.000,1)}}.u.u0{fill:var(--c1);animation-name:u0;transform-origin:0.0px 0}@keyframes u1{53.63%{transform:scale(0.000,1)}53.65%,54.98%{transform:scale(0.100,1)}55%,55.79%{transform:scale(0.200,1)}55.81%,58.48%{transform:scale(0.300,1)}58.5%,60.91%{transform:scale(0.400,1)}60.93%,63.6%{transform:scale(0.500,1)}63.62%,66.3%{transform:scale(0.600,1)}66.32%,80.04%{transform:scale(0.700,1)}80.06%,80.58%{transform:scale(0.800,1)}80.6%,81.12%{transform:scale(0.900,1)}81.14%,100%{transform:scale(1.000,1)}}.u.u1{fill:var(--c2);animation-name:u1;transform-origin:714.1px 0}@keyframes u2{84.9%{transform:scale(0.000,1)}84.92%,85.17%{transform:scale(0.200,1)}85.19%,87.32%{transform:scale(0.400,1)}87.34%,88.94%{transform:scale(0.600,1)}88.96%,89.48%{transform:scale(0.800,1)}89.5%,100%{transform:scale(1.000,1)}}.u.u2{fill:var(--c4);animation-name:u2;transform-origin:803.4px 0}.s{shape-rendering:geometricPrecision;fill:var(--cs);animation:none linear 37100ms infinite}@keyframes s0{0%,99.73%{transform:translate(0px,-16px)}0.27%{transform:translate(0px,0px)}0.54%{transform:translate(16px,0px)}0.81%{transform:translate(16px,16px)}1.89%{transform:translate(80px,16px)}2.16%{transform:translate(80px,32px)}2.43%{transform:translate(64px,32px)}3.5%{transform:translate(64px,96px)}4.58%{transform:translate(128px,96px)}5.12%{transform:translate(128px,64px)}5.66%{transform:translate(160px,64px)}6.2%{transform:translate(160px,32px)}7.01%{transform:translate(208px,32px)}7.55%{transform:translate(208px,0px)}8.09%{transform:translate(240px,0px)}8.36%{transform:translate(240px,16px)}8.89%{transform:translate(272px,16px)}9.16%,14.56%{transform:translate(272px,0px)}9.7%{transform:translate(304px,0px)}10.78%{transform:translate(304px,64px)}11.32%{transform:translate(336px,64px)}12.13%{transform:translate(336px,16px)}12.67%{transform:translate(368px,16px)}12.94%{transform:translate(368px,0px)}15.36%{transform:translate(272px,48px)}16.44%{transform:translate(208px,48px)}16.71%{transform:translate(208px,64px)}16.98%{transform:translate(192px,64px)}17.52%{transform:translate(192px,96px)}18.06%{transform:translate(160px,96px)}19.68%{transform:translate(160px,0px)}20.22%{transform:translate(128px,0px)}20.49%{transform:translate(128px,16px)}22.64%{transform:translate(256px,16px)}23.45%,94.07%{transform:translate(256px,64px)}23.72%{transform:translate(272px,64px)}24.26%,93.26%{transform:translate(272px,96px)}24.53%{transform:translate(256px,96px)}24.8%{transform:translate(256px,112px)}25.61%{transform:translate(304px,112px)}25.88%{transform:translate(304px,96px)}27.76%{transform:translate(416px,96px)}28.03%{transform:translate(416px,80px)}28.57%{transform:translate(384px,80px)}28.84%{transform:translate(384px,64px)}30.46%{transform:translate(480px,64px)}30.73%{transform:translate(480px,48px)}31.27%{transform:translate(448px,48px)}31.81%,33.96%{transform:translate(448px,16px)}32.08%{transform:translate(464px,16px)}32.35%,54.45%{transform:translate(464px,0px)}32.88%{transform:translate(432px,0px)}33.42%{transform:translate(432px,32px)}33.69%,56.87%{transform:translate(448px,32px)}35.85%{transform:translate(560px,16px)}36.66%{transform:translate(560px,64px)}36.93%{transform:translate(544px,64px)}37.2%{transform:translate(544px,80px)}37.74%{transform:translate(512px,80px)}38.81%{transform:translate(512px,16px)}42.05%{transform:translate(704px,16px)}42.32%{transform:translate(704px,0px)}43.94%{transform:translate(800px,0px)}44.2%{transform:translate(800px,16px)}44.47%{transform:translate(784px,16px)}45.28%{transform:translate(784px,64px)}45.55%,79.51%{transform:translate(800px,64px)}45.82%{transform:translate(800px,80px)}47.71%{transform:translate(688px,80px)}47.98%{transform:translate(688px,96px)}49.06%{transform:translate(624px,96px)}49.33%{transform:translate(624px,80px)}49.6%{transform:translate(640px,80px)}49.87%{transform:translate(640px,64px)}50.67%{transform:translate(592px,64px)}50.94%{transform:translate(592px,80px)}51.21%{transform:translate(576px,80px)}52.56%{transform:translate(576px,0px)}55.8%{transform:translate(464px,80px)}56.06%{transform:translate(448px,80px)}60.11%{transform:translate(256px,32px)}60.92%,93.8%{transform:translate(256px,80px)}61.19%{transform:translate(240px,80px)}61.99%{transform:translate(240px,32px)}65.23%{transform:translate(48px,32px)}66.31%{transform:translate(48px,96px)}73.32%{transform:translate(464px,96px)}73.85%{transform:translate(464px,64px)}80.05%{transform:translate(800px,32px)}80.59%{transform:translate(832px,32px)}81.13%{transform:translate(832px,0px)}84.37%{transform:translate(640px,0px)}85.18%{transform:translate(640px,48px)}85.44%{transform:translate(624px,48px)}85.71%{transform:translate(624px,32px)}88.14%{transform:translate(480px,32px)}88.95%{transform:translate(480px,80px)}89.22%{transform:translate(496px,80px)}89.49%{transform:translate(496px,96px)}93.53%{transform:translate(272px,80px)}94.61%{transform:translate(224px,64px)}94.88%{transform:translate(224px,48px)}95.42%{transform:translate(192px,48px)}95.69%{transform:translate(192px,32px)}97.04%{transform:translate(112px,32px)}97.3%{transform:translate(112px,16px)}97.57%{transform:translate(96px,16px)}97.84%{transform:translate(96px,0px)}98.38%{transform:translate(64px,0px)}98.65%{transform:translate(64px,-16px)}}.s.s0{transform:translate(0px,-16px);animation-name:s0}@keyframes s1{0%,99.73%{transform:translate(16px,-16px)}0.27%{transform:translate(0px,-16px)}0.54%{transform:translate(0px,0px)}0.81%{transform:translate(16px,0px)}1.08%{transform:translate(16px,16px)}2.16%{transform:translate(80px,16px)}2.43%{transform:translate(80px,32px)}2.7%{transform:translate(64px,32px)}3.77%{transform:translate(64px,96px)}4.85%{transform:translate(128px,96px)}5.39%{transform:translate(128px,64px)}5.93%{transform:translate(160px,64px)}6.47%{transform:translate(160px,32px)}7.28%{transform:translate(208px,32px)}7.82%{transform:translate(208px,0px)}8.36%{transform:translate(240px,0px)}8.63%{transform:translate(240px,16px)}9.16%{transform:translate(272px,16px)}9.43%,14.82%{transform:translate(272px,0px)}9.97%{transform:translate(304px,0px)}11.05%{transform:translate(304px,64px)}11.59%{transform:translate(336px,64px)}12.4%{transform:translate(336px,16px)}12.94%{transform:translate(368px,16px)}13.21%{transform:translate(368px,0px)}15.63%{transform:translate(272px,48px)}16.71%{transform:translate(208px,48px)}16.98%{transform:translate(208px,64px)}17.25%{transform:translate(192px,64px)}17.79%{transform:translate(192px,96px)}18.33%{transform:translate(160px,96px)}19.95%{transform:translate(160px,0px)}20.49%{transform:translate(128px,0px)}20.75%{transform:translate(128px,16px)}22.91%{transform:translate(256px,16px)}23.72%,94.34%{transform:translate(256px,64px)}23.99%{transform:translate(272px,64px)}24.53%,93.53%{transform:translate(272px,96px)}24.8%{transform:translate(256px,96px)}25.07%{transform:translate(256px,112px)}25.88%{transform:translate(304px,112px)}26.15%{transform:translate(304px,96px)}28.03%{transform:translate(416px,96px)}28.3%{transform:translate(416px,80px)}28.84%{transform:translate(384px,80px)}29.11%{transform:translate(384px,64px)}30.73%{transform:translate(480px,64px)}31%{transform:translate(480px,48px)}31.54%{transform:translate(448px,48px)}32.08%,34.23%{transform:translate(448px,16px)}32.35%{transform:translate(464px,16px)}32.61%,54.72%{transform:translate(464px,0px)}33.15%{transform:translate(432px,0px)}33.69%{transform:translate(432px,32px)}33.96%,57.14%{transform:translate(448px,32px)}36.12%{transform:translate(560px,16px)}36.93%{transform:translate(560px,64px)}37.2%{transform:translate(544px,64px)}37.47%{transform:translate(544px,80px)}38.01%{transform:translate(512px,80px)}39.08%{transform:translate(512px,16px)}42.32%{transform:translate(704px,16px)}42.59%{transform:translate(704px,0px)}44.2%{transform:translate(800px,0px)}44.47%{transform:translate(800px,16px)}44.74%{transform:translate(784px,16px)}45.55%{transform:translate(784px,64px)}45.82%,79.78%{transform:translate(800px,64px)}46.09%{transform:translate(800px,80px)}47.98%{transform:translate(688px,80px)}48.25%{transform:translate(688px,96px)}49.33%{transform:translate(624px,96px)}49.6%{transform:translate(624px,80px)}49.87%{transform:translate(640px,80px)}50.13%{transform:translate(640px,64px)}50.94%{transform:translate(592px,64px)}51.21%{transform:translate(592px,80px)}51.48%{transform:translate(576px,80px)}52.83%{transform:translate(576px,0px)}56.06%{transform:translate(464px,80px)}56.33%{transform:translate(448px,80px)}60.38%{transform:translate(256px,32px)}61.19%,94.07%{transform:translate(256px,80px)}61.46%{transform:translate(240px,80px)}62.26%{transform:translate(240px,32px)}65.5%{transform:translate(48px,32px)}66.58%{transform:translate(48px,96px)}73.58%{transform:translate(464px,96px)}74.12%{transform:translate(464px,64px)}80.32%{transform:translate(800px,32px)}80.86%{transform:translate(832px,32px)}81.4%{transform:translate(832px,0px)}84.64%{transform:translate(640px,0px)}85.44%{transform:translate(640px,48px)}85.71%{transform:translate(624px,48px)}85.98%{transform:translate(624px,32px)}88.41%{transform:translate(480px,32px)}89.22%{transform:translate(480px,80px)}89.49%{transform:translate(496px,80px)}89.76%{transform:translate(496px,96px)}93.8%{transform:translate(272px,80px)}94.88%{transform:translate(224px,64px)}95.15%{transform:translate(224px,48px)}95.69%{transform:translate(192px,48px)}95.96%{transform:translate(192px,32px)}97.3%{transform:translate(112px,32px)}97.57%{transform:translate(112px,16px)}97.84%{transform:translate(96px,16px)}98.11%{transform:translate(96px,0px)}98.65%{transform:translate(64px,0px)}98.92%{transform:translate(64px,-16px)}}.s.s1{transform:translate(16px,-16px);animation-name:s1}@keyframes s2{0%,99.73%{transform:translate(32px,-16px)}0.54%{transform:translate(0px,-16px)}0.81%{transform:translate(0px,0px)}1.08%{transform:translate(16px,0px)}1.35%{transform:translate(16px,16px)}2.43%{transform:translate(80px,16px)}2.7%{transform:translate(80px,32px)}2.96%{transform:translate(64px,32px)}4.04%{transform:translate(64px,96px)}5.12%{transform:translate(128px,96px)}5.66%{transform:translate(128px,64px)}6.2%{transform:translate(160px,64px)}6.74%{transform:translate(160px,32px)}7.55%{transform:translate(208px,32px)}8.09%{transform:translate(208px,0px)}8.63%{transform:translate(240px,0px)}8.89%{transform:translate(240px,16px)}9.43%{transform:translate(272px,16px)}9.7%,15.09%{transform:translate(272px,0px)}10.24%{transform:translate(304px,0px)}11.32%{transform:translate(304px,64px)}11.86%{transform:translate(336px,64px)}12.67%{transform:translate(336px,16px)}13.21%{transform:translate(368px,16px)}13.48%{transform:translate(368px,0px)}15.9%{transform:translate(272px,48px)}16.98%{transform:translate(208px,48px)}17.25%{transform:translate(208px,64px)}17.52%{transform:translate(192px,64px)}18.06%{transform:translate(192px,96px)}18.6%{transform:translate(160px,96px)}20.22%{transform:translate(160px,0px)}20.75%{transform:translate(128px,0px)}21.02%{transform:translate(128px,16px)}23.18%{transform:translate(256px,16px)}23.99%,94.61%{transform:translate(256px,64px)}24.26%{transform:translate(272px,64px)}24.8%,93.8%{transform:translate(272px,96px)}25.07%{transform:translate(256px,96px)}25.34%{transform:translate(256px,112px)}26.15%{transform:translate(304px,112px)}26.42%{transform:translate(304px,96px)}28.3%{transform:translate(416px,96px)}28.57%{transform:translate(416px,80px)}29.11%{transform:translate(384px,80px)}29.38%{transform:translate(384px,64px)}31%{transform:translate(480px,64px)}31.27%{transform:translate(480px,48px)}31.81%{transform:translate(448px,48px)}32.35%,34.5%{transform:translate(448px,16px)}32.61%{transform:translate(464px,16px)}32.88%,54.99%{transform:translate(464px,0px)}33.42%{transform:translate(432px,0px)}33.96%{transform:translate(432px,32px)}34.23%,57.41%{transform:translate(448px,32px)}36.39%{transform:translate(560px,16px)}37.2%{transform:translate(560px,64px)}37.47%{transform:translate(544px,64px)}37.74%{transform:translate(544px,80px)}38.27%{transform:translate(512px,80px)}39.35%{transform:translate(512px,16px)}42.59%{transform:translate(704px,16px)}42.86%{transform:translate(704px,0px)}44.47%{transform:translate(800px,0px)}44.74%{transform:translate(800px,16px)}45.01%{transform:translate(784px,16px)}45.82%{transform:translate(784px,64px)}46.09%,80.05%{transform:translate(800px,64px)}46.36%{transform:translate(800px,80px)}48.25%{transform:translate(688px,80px)}48.52%{transform:translate(688px,96px)}49.6%{transform:translate(624px,96px)}49.87%{transform:translate(624px,80px)}50.13%{transform:translate(640px,80px)}50.4%{transform:translate(640px,64px)}51.21%{transform:translate(592px,64px)}51.48%{transform:translate(592px,80px)}51.75%{transform:translate(576px,80px)}53.1%{transform:translate(576px,0px)}56.33%{transform:translate(464px,80px)}56.6%{transform:translate(448px,80px)}60.65%{transform:translate(256px,32px)}61.46%,94.34%{transform:translate(256px,80px)}61.73%{transform:translate(240px,80px)}62.53%{transform:translate(240px,32px)}65.77%{transform:translate(48px,32px)}66.85%{transform:translate(48px,96px)}73.85%{transform:translate(464px,96px)}74.39%{transform:translate(464px,64px)}80.59%{transform:translate(800px,32px)}81.13%{transform:translate(832px,32px)}81.67%{transform:translate(832px,0px)}84.91%{transform:translate(640px,0px)}85.71%{transform:translate(640px,48px)}85.98%{transform:translate(624px,48px)}86.25%{transform:translate(624px,32px)}88.68%{transform:translate(480px,32px)}89.49%{transform:translate(480px,80px)}89.76%{transform:translate(496px,80px)}90.03%{transform:translate(496px,96px)}94.07%{transform:translate(272px,80px)}95.15%{transform:translate(224px,64px)}95.42%{transform:translate(224px,48px)}95.96%{transform:translate(192px,48px)}96.23%{transform:translate(192px,32px)}97.57%{transform:translate(112px,32px)}97.84%{transform:translate(112px,16px)}98.11%{transform:translate(96px,16px)}98.38%{transform:translate(96px,0px)}98.92%{transform:translate(64px,0px)}99.19%{transform:translate(64px,-16px)}}.s.s2{transform:translate(32px,-16px);animation-name:s2}@keyframes s3{0%,99.73%{transform:translate(48px,-16px)}0.81%{transform:translate(0px,-16px)}1.08%{transform:translate(0px,0px)}1.35%{transform:translate(16px,0px)}1.62%{transform:translate(16px,16px)}2.7%{transform:translate(80px,16px)}2.96%{transform:translate(80px,32px)}3.23%{transform:translate(64px,32px)}4.31%{transform:translate(64px,96px)}5.39%{transform:translate(128px,96px)}5.93%{transform:translate(128px,64px)}6.47%{transform:translate(160px,64px)}7.01%{transform:translate(160px,32px)}7.82%{transform:translate(208px,32px)}8.36%{transform:translate(208px,0px)}8.89%{transform:translate(240px,0px)}9.16%{transform:translate(240px,16px)}9.7%{transform:translate(272px,16px)}9.97%,15.36%{transform:translate(272px,0px)}10.51%{transform:translate(304px,0px)}11.59%{transform:translate(304px,64px)}12.13%{transform:translate(336px,64px)}12.94%{transform:translate(336px,16px)}13.48%{transform:translate(368px,16px)}13.75%{transform:translate(368px,0px)}16.17%{transform:translate(272px,48px)}17.25%{transform:translate(208px,48px)}17.52%{transform:translate(208px,64px)}17.79%{transform:translate(192px,64px)}18.33%{transform:translate(192px,96px)}18.87%{transform:translate(160px,96px)}20.49%{transform:translate(160px,0px)}21.02%{transform:translate(128px,0px)}21.29%{transform:translate(128px,16px)}23.45%{transform:translate(256px,16px)}24.26%,94.88%{transform:translate(256px,64px)}24.53%{transform:translate(272px,64px)}25.07%,94.07%{transform:translate(272px,96px)}25.34%{transform:translate(256px,96px)}25.61%{transform:translate(256px,112px)}26.42%{transform:translate(304px,112px)}26.68%{transform:translate(304px,96px)}28.57%{transform:translate(416px,96px)}28.84%{transform:translate(416px,80px)}29.38%{transform:translate(384px,80px)}29.65%{transform:translate(384px,64px)}31.27%{transform:translate(480px,64px)}31.54%{transform:translate(480px,48px)}32.08%{transform:translate(448px,48px)}32.61%,34.77%{transform:translate(448px,16px)}32.88%{transform:translate(464px,16px)}33.15%,55.26%{transform:translate(464px,0px)}33.69%{transform:translate(432px,0px)}34.23%{transform:translate(432px,32px)}34.5%,57.68%{transform:translate(448px,32px)}36.66%{transform:translate(560px,16px)}37.47%{transform:translate(560px,64px)}37.74%{transform:translate(544px,64px)}38.01%{transform:translate(544px,80px)}38.54%{transform:translate(512px,80px)}39.62%{transform:translate(512px,16px)}42.86%{transform:translate(704px,16px)}43.13%{transform:translate(704px,0px)}44.74%{transform:translate(800px,0px)}45.01%{transform:translate(800px,16px)}45.28%{transform:translate(784px,16px)}46.09%{transform:translate(784px,64px)}46.36%,80.32%{transform:translate(800px,64px)}46.63%{transform:translate(800px,80px)}48.52%{transform:translate(688px,80px)}48.79%{transform:translate(688px,96px)}49.87%{transform:translate(624px,96px)}50.13%{transform:translate(624px,80px)}50.4%{transform:translate(640px,80px)}50.67%{transform:translate(640px,64px)}51.48%{transform:translate(592px,64px)}51.75%{transform:translate(592px,80px)}52.02%{transform:translate(576px,80px)}53.37%{transform:translate(576px,0px)}56.6%{transform:translate(464px,80px)}56.87%{transform:translate(448px,80px)}60.92%{transform:translate(256px,32px)}61.73%,94.61%{transform:translate(256px,80px)}61.99%{transform:translate(240px,80px)}62.8%{transform:translate(240px,32px)}66.04%{transform:translate(48px,32px)}67.12%{transform:translate(48px,96px)}74.12%{transform:translate(464px,96px)}74.66%{transform:translate(464px,64px)}80.86%{transform:translate(800px,32px)}81.4%{transform:translate(832px,32px)}81.94%{transform:translate(832px,0px)}85.18%{transform:translate(640px,0px)}85.98%{transform:translate(640px,48px)}86.25%{transform:translate(624px,48px)}86.52%{transform:translate(624px,32px)}88.95%{transform:translate(480px,32px)}89.76%{transform:translate(480px,80px)}90.03%{transform:translate(496px,80px)}90.3%{transform:translate(496px,96px)}94.34%{transform:translate(272px,80px)}95.42%{transform:translate(224px,64px)}95.69%{transform:translate(224px,48px)}96.23%{transform:translate(192px,48px)}96.5%{transform:translate(192px,32px)}97.84%{transform:translate(112px,32px)}98.11%{transform:translate(112px,16px)}98.38%{transform:translate(96px,16px)}98.65%{transform:translate(96px,0px)}99.19%{transform:translate(64px,0px)}99.46%{transform:translate(64px,-16px)}}.s.s3{transform:translate(48px,-16px);animation-name:s3}</style><rect class="c" x="2" y="2" rx="2" ry="2"/><rect class="c" x="2" y="18" rx="2" ry="2"/><rect class="c" x="2" y="34" rx="2" ry="2"/><rect class="c" x="2" y="50" rx="2" ry="2"/><rect class="c" x="2" y="66" rx="2" ry="2"/><rect class="c" x="2" y="82" rx="2" ry="2"/><rect class="c" x="2" y="98" rx="2" ry="2"/><rect class="c" x="18" y="2" rx="2" ry="2"/><rect class="c c0" x="18" y="18" rx="2" ry="2"/><rect class="c" x="18" y="34" rx="2" ry="2"/><rect class="c" x="18" y="50" rx="2" ry="2"/><rect class="c" x="18" y="66" rx="2" ry="2"/><rect class="c" x="18" y="82" rx="2" ry="2"/><rect class="c" x="18" y="98" rx="2" ry="2"/><rect class="c" x="34" y="2" rx="2" ry="2"/><rect class="c" x="34" y="18" rx="2" ry="2"/><rect class="c" x="34" y="34" rx="2" ry="2"/><rect class="c" x="34" y="50" rx="2" ry="2"/><rect class="c" x="34" y="66" rx="2" ry="2"/><rect class="c" x="34" y="82" rx="2" ry="2"/><rect class="c" x="34" y="98" rx="2" ry="2"/><rect class="c" x="50" y="2" rx="2" ry="2"/><rect class="c" x="50" y="18" rx="2" ry="2"/><rect class="c" x="50" y="34" rx="2" ry="2"/><rect class="c" x="50" y="50" rx="2" ry="2"/><rect class="c" x="50" y="66" rx="2" ry="2"/><rect class="c" x="50" y="82" rx="2" ry="2"/><rect class="c c1" x="50" y="98" rx="2" ry="2"/><rect class="c" x="66" y="2" rx="2" ry="2"/><rect class="c" x="66" y="18" rx="2" ry="2"/><rect class="c" x="66" y="34" rx="2" ry="2"/><rect class="c c2" x="66" y="50" rx="2" ry="2"/><rect class="c" x="66" y="66" rx="2" ry="2"/><rect class="c" x="66" y="82" rx="2" ry="2"/><rect class="c c3" x="66" y="98" rx="2" ry="2"/><rect class="c" x="82" y="2" rx="2" ry="2"/><rect class="c" x="82" y="18" rx="2" ry="2"/><rect class="c c4" x="82" y="34" rx="2" ry="2"/><rect class="c" x="82" y="50" rx="2" ry="2"/><rect class="c" x="82" y="66" rx="2" ry="2"/><rect class="c" x="82" y="82" rx="2" ry="2"/><rect class="c" x="82" y="98" rx="2" ry="2"/><rect class="c" x="98" y="2" rx="2" ry="2"/><rect class="c" x="98" y="18" rx="2" ry="2"/><rect class="c" x="98" y="34" rx="2" ry="2"/><rect class="c" x="98" y="50" rx="2" ry="2"/><rect class="c" x="98" y="66" rx="2" ry="2"/><rect class="c" x="98" y="82" rx="2" ry="2"/><rect class="c" x="98" y="98" rx="2" ry="2"/><rect class="c" x="114" y="2" rx="2" ry="2"/><rect class="c" x="114" y="18" rx="2" ry="2"/><rect class="c" x="114" y="34" rx="2" ry="2"/><rect class="c" x="114" y="50" rx="2" ry="2"/><rect class="c" x="114" y="66" rx="2" ry="2"/><rect class="c" x="114" y="82" rx="2" ry="2"/><rect class="c" x="114" y="98" rx="2" ry="2"/><rect class="c c5" x="130" y="2" rx="2" ry="2"/><rect class="c" x="130" y="18" rx="2" ry="2"/><rect class="c" x="130" y="34" rx="2" ry="2"/><rect class="c" x="130" y="50" rx="2" ry="2"/><rect class="c c6" x="130" y="66" rx="2" ry="2"/><rect class="c c7" x="130" y="82" rx="2" ry="2"/><rect class="c" x="130" y="98" rx="2" ry="2"/><rect class="c c8" x="146" y="2" rx="2" ry="2"/><rect class="c c9" x="146" y="18" rx="2" ry="2"/><rect class="c ca" x="146" y="34" rx="2" ry="2"/><rect class="c" x="146" y="50" rx="2" ry="2"/><rect class="c" x="146" y="66" rx="2" ry="2"/><rect class="c" x="146" y="82" rx="2" ry="2"/><rect class="c" x="146" y="98" rx="2" ry="2"/><rect class="c cb" x="162" y="2" rx="2" ry="2"/><rect class="c" x="162" y="18" rx="2" ry="2"/><rect class="c cc" x="162" y="34" rx="2" ry="2"/><rect class="c cd" x="162" y="50" rx="2" ry="2"/><rect class="c ce" x="162" y="66" rx="2" ry="2"/><rect class="c cf" x="162" y="82" rx="2" ry="2"/><rect class="c cg" x="162" y="98" rx="2" ry="2"/><rect class="c" x="178" y="2" rx="2" ry="2"/><rect class="c" x="178" y="18" rx="2" ry="2"/><rect class="c ch" x="178" y="34" rx="2" ry="2"/><rect class="c" x="178" y="50" rx="2" ry="2"/><rect class="c" x="178" y="66" rx="2" ry="2"/><rect class="c" x="178" y="82" rx="2" ry="2"/><rect class="c" x="178" y="98" rx="2" ry="2"/><rect class="c" x="194" y="2" rx="2" ry="2"/><rect class="c" x="194" y="18" rx="2" ry="2"/><rect class="c" x="194" y="34" rx="2" ry="2"/><rect class="c" x="194" y="50" rx="2" ry="2"/><rect class="c" x="194" y="66" rx="2" ry="2"/><rect class="c ci" x="194" y="82" rx="2" ry="2"/><rect class="c cj" x="194" y="98" rx="2" ry="2"/><rect class="c ck" x="210" y="2" rx="2" ry="2"/><rect class="c cl" x="210" y="18" rx="2" ry="2"/><rect class="c cm" x="210" y="34" rx="2" ry="2"/><rect class="c cn" x="210" y="50" rx="2" ry="2"/><rect class="c co" x="210" y="66" rx="2" ry="2"/><rect class="c" x="210" y="82" rx="2" ry="2"/><rect class="c" x="210" y="98" rx="2" ry="2"/><rect class="c" x="226" y="2" rx="2" ry="2"/><rect class="c" x="226" y="18" rx="2" ry="2"/><rect class="c" x="226" y="34" rx="2" ry="2"/><rect class="c" x="226" y="50" rx="2" ry="2"/><rect class="c" x="226" y="66" rx="2" ry="2"/><rect class="c" x="226" y="82" rx="2" ry="2"/><rect class="c" x="226" y="98" rx="2" ry="2"/><rect class="c" x="242" y="2" rx="2" ry="2"/><rect class="c cp" x="242" y="18" rx="2" ry="2"/><rect class="c" x="242" y="34" rx="2" ry="2"/><rect class="c cq" x="242" y="50" rx="2" ry="2"/><rect class="c" x="242" y="66" rx="2" ry="2"/><rect class="c" x="242" y="82" rx="2" ry="2"/><rect class="c" x="242" y="98" rx="2" ry="2"/><rect class="c" x="258" y="2" rx="2" ry="2"/><rect class="c" x="258" y="18" rx="2" ry="2"/><rect class="c" x="258" y="34" rx="2" ry="2"/><rect class="c cr" x="258" y="50" rx="2" ry="2"/><rect class="c cs" x="258" y="66" rx="2" ry="2"/><rect class="c ct" x="258" y="82" rx="2" ry="2"/><rect class="c cu" x="258" y="98" rx="2" ry="2"/><rect class="c cv" x="274" y="2" rx="2" ry="2"/><rect class="c cw" x="274" y="18" rx="2" ry="2"/><rect class="c cx" x="274" y="34" rx="2" ry="2"/><rect class="c cy" x="274" y="50" rx="2" ry="2"/><rect class="c cz" x="274" y="66" rx="2" ry="2"/><rect class="c c10" x="274" y="82" rx="2" ry="2"/><rect class="c c11" x="274" y="98" rx="2" ry="2"/><rect class="c" x="290" y="2" rx="2" ry="2"/><rect class="c" x="290" y="18" rx="2" ry="2"/><rect class="c" x="290" y="34" rx="2" ry="2"/><rect class="c" x="290" y="50" rx="2" ry="2"/><rect class="c" x="290" y="66" rx="2" ry="2"/><rect class="c" x="290" y="82" rx="2" ry="2"/><rect class="c" x="290" y="98" rx="2" ry="2"/><rect class="c c12" x="306" y="2" rx="2" ry="2"/><rect class="c" x="306" y="18" rx="2" ry="2"/><rect class="c c13" x="306" y="34" rx="2" ry="2"/><rect class="c c14" x="306" y="50" rx="2" ry="2"/><rect class="c c15" x="306" y="66" rx="2" ry="2"/><rect class="c" x="306" y="82" rx="2" ry="2"/><rect class="c c16" x="306" y="98" rx="2" ry="2"/><rect class="c" x="322" y="2" rx="2" ry="2"/><rect class="c" x="322" y="18" rx="2" ry="2"/><rect class="c" x="322" y="34" rx="2" ry="2"/><rect class="c" x="322" y="50" rx="2" ry="2"/><rect class="c c17" x="322" y="66" rx="2" ry="2"/><rect class="c" x="322" y="82" rx="2" ry="2"/><rect class="c" x="322" y="98" rx="2" ry="2"/><rect class="c" x="338" y="2" rx="2" ry="2"/><rect class="c" x="338" y="18" rx="2" ry="2"/><rect class="c" x="338" y="34" rx="2" ry="2"/><rect class="c c18" x="338" y="50" rx="2" ry="2"/><rect class="c c19" x="338" y="66" rx="2" ry="2"/><rect class="c" x="338" y="82" rx="2" ry="2"/><rect class="c" x="338" y="98" rx="2" ry="2"/><rect class="c c1a" x="354" y="2" rx="2" ry="2"/><rect class="c c1b" x="354" y="18" rx="2" ry="2"/><rect class="c c1c" x="354" y="34" rx="2" ry="2"/><rect class="c" x="354" y="50" rx="2" ry="2"/><rect class="c" x="354" y="66" rx="2" ry="2"/><rect class="c" x="354" y="82" rx="2" ry="2"/><rect class="c" x="354" y="98" rx="2" ry="2"/><rect class="c" x="370" y="2" rx="2" ry="2"/><rect class="c c1d" x="370" y="18" rx="2" ry="2"/><rect class="c" x="370" y="34" rx="2" ry="2"/><rect class="c" x="370" y="50" rx="2" ry="2"/><rect class="c" x="370" y="66" rx="2" ry="2"/><rect class="c" x="370" y="82" rx="2" ry="2"/><rect class="c" x="370" y="98" rx="2" ry="2"/><rect class="c" x="386" y="2" rx="2" ry="2"/><rect class="c" x="386" y="18" rx="2" ry="2"/><rect class="c" x="386" y="34" rx="2" ry="2"/><rect class="c" x="386" y="50" rx="2" ry="2"/><rect class="c" x="386" y="66" rx="2" ry="2"/><rect class="c c1e" x="386" y="82" rx="2" ry="2"/><rect class="c c1f" x="386" y="98" rx="2" ry="2"/><rect class="c" x="402" y="2" rx="2" ry="2"/><rect class="c" x="402" y="18" rx="2" ry="2"/><rect class="c" x="402" y="34" rx="2" ry="2"/><rect class="c" x="402" y="50" rx="2" ry="2"/><rect class="c" x="402" y="66" rx="2" ry="2"/><rect class="c c1g" x="402" y="82" rx="2" ry="2"/><rect class="c c1h" x="402" y="98" rx="2" ry="2"/><rect class="c" x="418" y="2" rx="2" ry="2"/><rect class="c" x="418" y="18" rx="2" ry="2"/><rect class="c" x="418" y="34" rx="2" ry="2"/><rect class="c" x="418" y="50" rx="2" ry="2"/><rect class="c" x="418" y="66" rx="2" ry="2"/><rect class="c c1i" x="418" y="82" rx="2" ry="2"/><rect class="c c1j" x="418" y="98" rx="2" ry="2"/><rect class="c" x="434" y="2" rx="2" ry="2"/><rect class="c" x="434" y="18" rx="2" ry="2"/><rect class="c c1k" x="434" y="34" rx="2" ry="2"/><rect class="c" x="434" y="50" rx="2" ry="2"/><rect class="c" x="434" y="66" rx="2" ry="2"/><rect class="c" x="434" y="82" rx="2" ry="2"/><rect class="c" x="434" y="98" rx="2" ry="2"/><rect class="c c1l" x="450" y="2" rx="2" ry="2"/><rect class="c c1m" x="450" y="18" rx="2" ry="2"/><rect class="c" x="450" y="34" rx="2" ry="2"/><rect class="c" x="450" y="50" rx="2" ry="2"/><rect class="c" x="450" y="66" rx="2" ry="2"/><rect class="c" x="450" y="82" rx="2" ry="2"/><rect class="c" x="450" y="98" rx="2" ry="2"/><rect class="c c1n" x="466" y="2" rx="2" ry="2"/><rect class="c c1o" x="466" y="18" rx="2" ry="2"/><rect class="c c1p" x="466" y="34" rx="2" ry="2"/><rect class="c c1q" x="466" y="50" rx="2" ry="2"/><rect class="c c1r" x="466" y="66" rx="2" ry="2"/><rect class="c c1s" x="466" y="82" rx="2" ry="2"/><rect class="c" x="466" y="98" rx="2" ry="2"/><rect class="c" x="482" y="2" rx="2" ry="2"/><rect class="c" x="482" y="18" rx="2" ry="2"/><rect class="c" x="482" y="34" rx="2" ry="2"/><rect class="c c1t" x="482" y="50" rx="2" ry="2"/><rect class="c c1u" x="482" y="66" rx="2" ry="2"/><rect class="c c1v" x="482" y="82" rx="2" ry="2"/><rect class="c" x="482" y="98" rx="2" ry="2"/><rect class="c" x="498" y="2" rx="2" ry="2"/><rect class="c" x="498" y="18" rx="2" ry="2"/><rect class="c" x="498" y="34" rx="2" ry="2"/><rect class="c" x="498" y="50" rx="2" ry="2"/><rect class="c" x="498" y="66" rx="2" ry="2"/><rect class="c" x="498" y="82" rx="2" ry="2"/><rect class="c c1w" x="498" y="98" rx="2" ry="2"/><rect class="c c1x" x="514" y="2" rx="2" ry="2"/><rect class="c c1y" x="514" y="18" rx="2" ry="2"/><rect class="c c1z" x="514" y="34" rx="2" ry="2"/><rect class="c" x="514" y="50" rx="2" ry="2"/><rect class="c" x="514" y="66" rx="2" ry="2"/><rect class="c c20" x="514" y="82" rx="2" ry="2"/><rect class="c" x="514" y="98" rx="2" ry="2"/><rect class="c" x="530" y="2" rx="2" ry="2"/><rect class="c c21" x="530" y="18" rx="2" ry="2"/><rect class="c c22" x="530" y="34" rx="2" ry="2"/><rect class="c" x="530" y="50" rx="2" ry="2"/><rect class="c" x="530" y="66" rx="2" ry="2"/><rect class="c" x="530" y="82" rx="2" ry="2"/><rect class="c" x="530" y="98" rx="2" ry="2"/><rect class="c" x="546" y="2" rx="2" ry="2"/><rect class="c" x="546" y="18" rx="2" ry="2"/><rect class="c" x="546" y="34" rx="2" ry="2"/><rect class="c" x="546" y="50" rx="2" ry="2"/><rect class="c" x="546" y="66" rx="2" ry="2"/><rect class="c c23" x="546" y="82" rx="2" ry="2"/><rect class="c" x="546" y="98" rx="2" ry="2"/><rect class="c" x="562" y="2" rx="2" ry="2"/><rect class="c" x="562" y="18" rx="2" ry="2"/><rect class="c" x="562" y="34" rx="2" ry="2"/><rect class="c" x="562" y="50" rx="2" ry="2"/><rect class="c c24" x="562" y="66" rx="2" ry="2"/><rect class="c" x="562" y="82" rx="2" ry="2"/><rect class="c" x="562" y="98" rx="2" ry="2"/><rect class="c" x="578" y="2" rx="2" ry="2"/><rect class="c" x="578" y="18" rx="2" ry="2"/><rect class="c" x="578" y="34" rx="2" ry="2"/><rect class="c" x="578" y="50" rx="2" ry="2"/><rect class="c" x="578" y="66" rx="2" ry="2"/><rect class="c" x="578" y="82" rx="2" ry="2"/><rect class="c" x="578" y="98" rx="2" ry="2"/><rect class="c" x="594" y="2" rx="2" ry="2"/><rect class="c" x="594" y="18" rx="2" ry="2"/><rect class="c" x="594" y="34" rx="2" ry="2"/><rect class="c" x="594" y="50" rx="2" ry="2"/><rect class="c" x="594" y="66" rx="2" ry="2"/><rect class="c c25" x="594" y="82" rx="2" ry="2"/><rect class="c" x="594" y="98" rx="2" ry="2"/><rect class="c" x="610" y="2" rx="2" ry="2"/><rect class="c" x="610" y="18" rx="2" ry="2"/><rect class="c" x="610" y="34" rx="2" ry="2"/><rect class="c" x="610" y="50" rx="2" ry="2"/><rect class="c c26" x="610" y="66" rx="2" ry="2"/><rect class="c" x="610" y="82" rx="2" ry="2"/><rect class="c" x="610" y="98" rx="2" ry="2"/><rect class="c" x="626" y="2" rx="2" ry="2"/><rect class="c" x="626" y="18" rx="2" ry="2"/><rect class="c" x="626" y="34" rx="2" ry="2"/><rect class="c" x="626" y="50" rx="2" ry="2"/><rect class="c" x="626" y="66" rx="2" ry="2"/><rect class="c c27" x="626" y="82" rx="2" ry="2"/><rect class="c c28" x="626" y="98" rx="2" ry="2"/><rect class="c" x="642" y="2" rx="2" ry="2"/><rect class="c c29" x="642" y="18" rx="2" ry="2"/><rect class="c c2a" x="642" y="34" rx="2" ry="2"/><rect class="c c2b" x="642" y="50" rx="2" ry="2"/><rect class="c c2c" x="642" y="66" rx="2" ry="2"/><rect class="c" x="642" y="82" rx="2" ry="2"/><rect class="c" x="642" y="98" rx="2" ry="2"/><rect class="c" x="658" y="2" rx="2" ry="2"/><rect class="c" x="658" y="18" rx="2" ry="2"/><rect class="c" x="658" y="34" rx="2" ry="2"/><rect class="c" x="658" y="50" rx="2" ry="2"/><rect class="c" x="658" y="66" rx="2" ry="2"/><rect class="c" x="658" y="82" rx="2" ry="2"/><rect class="c" x="658" y="98" rx="2" ry="2"/><rect class="c" x="674" y="2" rx="2" ry="2"/><rect class="c c2d" x="674" y="18" rx="2" ry="2"/><rect class="c" x="674" y="34" rx="2" ry="2"/><rect class="c" x="674" y="50" rx="2" ry="2"/><rect class="c" x="674" y="66" rx="2" ry="2"/><rect class="c" x="674" y="82" rx="2" ry="2"/><rect class="c" x="674" y="98" rx="2" ry="2"/><rect class="c" x="690" y="2" rx="2" ry="2"/><rect class="c c2e" x="690" y="18" rx="2" ry="2"/><rect class="c" x="690" y="34" rx="2" ry="2"/><rect class="c" x="690" y="50" rx="2" ry="2"/><rect class="c" x="690" y="66" rx="2" ry="2"/><rect class="c" x="690" y="82" rx="2" ry="2"/><rect class="c c2f" x="690" y="98" rx="2" ry="2"/><rect class="c c2g" x="706" y="2" rx="2" ry="2"/><rect class="c" x="706" y="18" rx="2" ry="2"/><rect class="c" x="706" y="34" rx="2" ry="2"/><rect class="c" x="706" y="50" rx="2" ry="2"/><rect class="c" x="706" y="66" rx="2" ry="2"/><rect class="c" x="706" y="82" rx="2" ry="2"/><rect class="c" x="706" y="98" rx="2" ry="2"/><rect class="c" x="722" y="2" rx="2" ry="2"/><rect class="c" x="722" y="18" rx="2" ry="2"/><rect class="c" x="722" y="34" rx="2" ry="2"/><rect class="c" x="722" y="50" rx="2" ry="2"/><rect class="c" x="722" y="66" rx="2" ry="2"/><rect class="c" x="722" y="82" rx="2" ry="2"/><rect class="c" x="722" y="98" rx="2" ry="2"/><rect class="c" x="738" y="2" rx="2" ry="2"/><rect class="c" x="738" y="18" rx="2" ry="2"/><rect class="c" x="738" y="34" rx="2" ry="2"/><rect class="c" x="738" y="50" rx="2" ry="2"/><rect class="c" x="738" y="66" rx="2" ry="2"/><rect class="c" x="738" y="82" rx="2" ry="2"/><rect class="c" x="738" y="98" rx="2" ry="2"/><rect class="c" x="754" y="2" rx="2" ry="2"/><rect class="c" x="754" y="18" rx="2" ry="2"/><rect class="c" x="754" y="34" rx="2" ry="2"/><rect class="c" x="754" y="50" rx="2" ry="2"/><rect class="c" x="754" y="66" rx="2" ry="2"/><rect class="c" x="754" y="82" rx="2" ry="2"/><rect class="c" x="754" y="98" rx="2" ry="2"/><rect class="c" x="770" y="2" rx="2" ry="2"/><rect class="c" x="770" y="18" rx="2" ry="2"/><rect class="c" x="770" y="34" rx="2" ry="2"/><rect class="c" x="770" y="50" rx="2" ry="2"/><rect class="c" x="770" y="66" rx="2" ry="2"/><rect class="c" x="770" y="82" rx="2" ry="2"/><rect class="c" x="770" y="98" rx="2" ry="2"/><rect class="c" x="786" y="2" rx="2" ry="2"/><rect class="c" x="786" y="18" rx="2" ry="2"/><rect class="c" x="786" y="34" rx="2" ry="2"/><rect class="c" x="786" y="50" rx="2" ry="2"/><rect class="c c2h" x="786" y="66" rx="2" ry="2"/><rect class="c" x="786" y="82" rx="2" ry="2"/><rect class="c" x="786" y="98" rx="2" ry="2"/><rect class="c" x="802" y="2" rx="2" ry="2"/><rect class="c c2i" x="802" y="18" rx="2" ry="2"/><rect class="c c2j" x="802" y="34" rx="2" ry="2"/><rect class="c" x="802" y="50" rx="2" ry="2"/><rect class="c c2k" x="802" y="66" rx="2" ry="2"/><rect class="c" x="802" y="82" rx="2" ry="2"/><rect class="c" x="802" y="98" rx="2" ry="2"/><rect class="c" x="818" y="2" rx="2" ry="2"/><rect class="c" x="818" y="18" rx="2" ry="2"/><rect class="c" x="818" y="34" rx="2" ry="2"/><rect class="c" x="818" y="50" rx="2" ry="2"/><rect class="c" x="818" y="66" rx="2" ry="2"/><rect class="c" x="818" y="82" rx="2" ry="2"/><rect class="c" x="818" y="98" rx="2" ry="2"/><rect class="c c2l" x="834" y="2" rx="2" ry="2"/><rect class="c" x="834" y="18" rx="2" ry="2"/><rect class="c c2m" x="834" y="34" rx="2" ry="2"/><rect class="u u0" height="12" width="714.7" x="0.0" y="144"/><rect class="u u1" height="12" width="89.9" x="714.1" y="144"/><rect class="u u2" height="12" width="45.2" x="803.4" y="144"/><rect class="s s0" x="0.8" y="0.8" width="14.4" height="14.4" rx="4.5" ry="4.5"/><rect class="s s1" x="1.8" y="1.8" width="12.3" height="12.3" rx="4.1" ry="4.1"/><rect class="s s2" x="2.6" y="2.6" width="10.8" height="10.8" rx="3.6" ry="3.6"/><rect class="s s3" x="3.0" y="3.0" width="9.9" height="9.9" rx="3.3" ry="3.3"/></svg>