<svg viewBox="-16 -32 880 192" width="880" height="192" xmlns="http://www.w3.org/2000/svg"><desc>Generated with https://github.com/Platane/snk</desc><style>:root{--cb:#1b1f230a;--cs:purple;--ce:#161b22;--c0:#161b22;--c1:#01311f;--c2:#034525;--c3:#0f6d31;--c4:#00c647}.c{shape-rendering:geometricPrecision;fill:var(--ce);stroke-width:1px;stroke:var(--cb);animation:none 39300ms linear infinite;width:12px;height:12px}@keyframes c0{0.75%{fill:var(--c1)}0.77%,100%{fill:var(--ce)}}.c.c0{fill:var(--c1);animation-name:c0}@keyframes c1{3.55%{fill:var(--c1)}3.57%,100%{fill:var(--ce)}}.c.c1{fill:var(--c1);animation-name:c1}@keyframes c2{2.53%{fill:var(--c1)}2.55%,100%{fill:var(--ce)}}.c.c2{fill:var(--c1);animation-name:c2}@keyframes c3{3.3%{fill:var(--c1)}3.32%,100%{fill:var(--ce)}}.c.c3{fill:var(--c1);animation-name:c3}@keyframes c4{2.03%{fill:var(--c1)}2.05%,100%{fill:var(--ce)}}.c.c4{fill:var(--c1);animation-name:c4}@keyframes c5{19.58%{fill:var(--c1)}19.6%,100%{fill:var(--ce)}}.c.c5{fill:var(--c1);animation-name:c5}@keyframes c6{5.33%{fill:var(--c1)}5.35%,100%{fill:var(--ce)}}.c.c6{fill:var(--c1);animation-name:c6}@keyframes c7{5.08%{fill:var(--c1)}5.1%,100%{fill:var(--ce)}}.c.c7{fill:var(--c1);animation-name:c7}@keyframes c8{19.33%{fill:var(--c1)}19.35%,100%{fill:var(--ce)}}.c.c8{fill:var(--c1);animation-name:c8}@keyframes c9{20.09%{fill:var(--c1)}20.11%,100%{fill:var(--ce)}}.c.c9{fill:var(--c1);animation-name:c9}@keyframes ca{60.04%{fill:var(--c2)}60.06%,100%{fill:var(--ce)}}.c.ca{fill:var(--c2);animation-name:ca}@keyframes cb{19.07%{fill:var(--c1)}19.09%,100%{fill:var(--ce)}}.c.cb{fill:var(--c1);animation-name:cb}@keyframes cc{6.35%{fill:var(--c1)}6.37%,100%{fill:var(--ce)}}.c.cc{fill:var(--c1);animation-name:cc}@keyframes cd{6.1%{fill:var(--c1)}6.12%,100%{fill:var(--ce)}}.c.cd{fill:var(--c1);animation-name:cd}@keyframes ce{5.84%{fill:var(--c1)}5.86%,100%{fill:var(--ce)}}.c.ce{fill:var(--c1);animation-name:ce}@keyframes cf{17.8%{fill:var(--c1)}17.82%,100%{fill:var(--ce)}}.c.cf{fill:var(--c1);animation-name:cf}@keyframes cg{17.55%{fill:var(--c1)}17.57%,100%{fill:var(--ce)}}.c.cg{fill:var(--c1);animation-name:cg}@keyframes ch{6.61%{fill:var(--c1)}6.63%,100%{fill:var(--ce)}}.c.ch{fill:var(--c1);animation-name:ch}@keyframes ci{16.78%{fill:var(--c1)}16.8%,100%{fill:var(--ce)}}.c.ci{fill:var(--c1);animation-name:ci}@keyframes cj{17.04%{fill:var(--c1)}17.06%,100%{fill:var(--ce)}}.c.cj{fill:var(--c1);animation-name:cj}@keyframes ck{7.62%{fill:var(--c1)}7.64%,100%{fill:var(--ce)}}.c.ck{fill:var(--c1);animation-name:ck}@keyframes cl{7.37%{fill:var(--c1)}7.39%,100%{fill:var(--ce)}}.c.cl{fill:var(--c1);animation-name:cl}@keyframes cm{7.11%{fill:var(--c1)}7.13%,100%{fill:var(--ce)}}.c.cm{fill:var(--c1);animation-name:cm}@keyframes cn{16.02%{fill:var(--c1)}16.04%,100%{fill:var(--ce)}}.c.cn{fill:var(--c1);animation-name:cn}@keyframes co{16.27%{fill:var(--c1)}16.29%,100%{fill:var(--ce)}}.c.co{fill:var(--c1);animation-name:co}@keyframes cp{8.39%{fill:var(--c1)}8.41%,100%{fill:var(--ce)}}.c.cp{fill:var(--c1);animation-name:cp}@keyframes cq{15.51%{fill:var(--c1)}15.53%,100%{fill:var(--ce)}}.c.cq{fill:var(--c1);animation-name:cq}@keyframes cr{15.26%{fill:var(--c1)}15.28%,100%{fill:var(--ce)}}.c.cr{fill:var(--c1);animation-name:cr}@keyframes cs{22.64%{fill:var(--c1)}22.66%,100%{fill:var(--ce)}}.c.cs{fill:var(--c1);animation-name:cs}@keyframes ct{57.5%{fill:var(--c2)}57.52%,100%{fill:var(--ce)}}.c.ct{fill:var(--c2);animation-name:ct}@keyframes cu{23.65%{fill:var(--c1)}23.67%,100%{fill:var(--ce)}}.c.cu{fill:var(--c1);animation-name:cu}@keyframes cv{9.15%{fill:var(--c1)}9.17%,100%{fill:var(--ce)}}.c.cv{fill:var(--c1);animation-name:cv}@keyframes cw{8.9%{fill:var(--c1)}8.92%,100%{fill:var(--ce)}}.c.cw{fill:var(--c1);animation-name:cw}@keyframes cx{14.75%{fill:var(--c1)}14.77%,100%{fill:var(--ce)}}.c.cx{fill:var(--c1);animation-name:cx}@keyframes cy{15%{fill:var(--c1)}15.02%,100%{fill:var(--ce)}}.c.cy{fill:var(--c1);animation-name:cy}@keyframes cz{22.89%{fill:var(--c1)}22.91%,100%{fill:var(--ce)}}.c.cz{fill:var(--c1);animation-name:cz}@keyframes c10{23.15%{fill:var(--c1)}23.17%,100%{fill:var(--ce)}}.c.c10{fill:var(--c1);animation-name:c10}@keyframes c11{23.4%{fill:var(--c1)}23.42%,100%{fill:var(--ce)}}.c.c11{fill:var(--c1);animation-name:c11}@keyframes c12{9.66%{fill:var(--c1)}9.68%,100%{fill:var(--ce)}}.c.c12{fill:var(--c1);animation-name:c12}@keyframes c13{10.17%{fill:var(--c1)}10.19%,100%{fill:var(--ce)}}.c.c13{fill:var(--c1);animation-name:c13}@keyframes c14{10.42%{fill:var(--c1)}10.44%,100%{fill:var(--ce)}}.c.c14{fill:var(--c1);animation-name:c14}@keyframes c15{10.68%{fill:var(--c1)}10.7%,100%{fill:var(--ce)}}.c.c15{fill:var(--c1);animation-name:c15}@keyframes c16{24.93%{fill:var(--c1)}24.95%,100%{fill:var(--ce)}}.c.c16{fill:var(--c1);animation-name:c16}@keyframes c17{10.93%{fill:var(--c1)}10.95%,100%{fill:var(--ce)}}.c.c17{fill:var(--c1);animation-name:c17}@keyframes c18{11.44%{fill:var(--c1)}11.46%,100%{fill:var(--ce)}}.c.c18{fill:var(--c1);animation-name:c18}@keyframes c19{11.19%{fill:var(--c1)}11.21%,100%{fill:var(--ce)}}.c.c19{fill:var(--c1);animation-name:c19}@keyframes c1a{12.97%{fill:var(--c1)}12.99%,100%{fill:var(--ce)}}.c.c1a{fill:var(--c1);animation-name:c1a}@keyframes c1b{12.2%{fill:var(--c1)}12.22%,100%{fill:var(--ce)}}.c.c1b{fill:var(--c1);animation-name:c1b}@keyframes c1c{55.21%{fill:var(--c2)}55.23%,100%{fill:var(--ce)}}.c.c1c{fill:var(--c2);animation-name:c1c}@keyframes c1d{12.46%{fill:var(--c1)}12.48%,100%{fill:var(--ce)}}.c.c1d{fill:var(--c1);animation-name:c1d}@keyframes c1e{27.47%{fill:var(--c1)}27.49%,100%{fill:var(--ce)}}.c.c1e{fill:var(--c1);animation-name:c1e}@keyframes c1f{26.2%{fill:var(--c1)}26.22%,100%{fill:var(--ce)}}.c.c1f{fill:var(--c1);animation-name:c1f}@keyframes c1g{27.22%{fill:var(--c1)}27.24%,100%{fill:var(--ce)}}.c.c1g{fill:var(--c1);animation-name:c1g}@keyframes c1h{26.45%{fill:var(--c1)}26.47%,100%{fill:var(--ce)}}.c.c1h{fill:var(--c1);animation-name:c1h}@keyframes c1i{26.96%{fill:var(--c1)}26.98%,100%{fill:var(--ce)}}.c.c1i{fill:var(--c1);animation-name:c1i}@keyframes c1j{26.71%{fill:var(--c1)}26.73%,100%{fill:var(--ce)}}.c.c1j{fill:var(--c1);animation-name:c1j}@keyframes c1k{32.05%{fill:var(--c1)}32.07%,100%{fill:var(--ce)}}.c.c1k{fill:var(--c1);animation-name:c1k}@keyframes c1l{31.29%{fill:var(--c1)}31.31%,100%{fill:var(--ce)}}.c.c1l{fill:var(--c1);animation-name:c1l}@keyframes c1m{30.52%{fill:var(--c1)}30.54%,100%{fill:var(--ce)}}.c.c1m{fill:var(--c1);animation-name:c1m}@keyframes c1n{31.03%{fill:var(--c1)}31.05%,100%{fill:var(--ce)}}.c.c1n{fill:var(--c1);animation-name:c1n}@keyframes c1o{30.78%{fill:var(--c1)}30.8%,100%{fill:var(--ce)}}.c.c1o{fill:var(--c1);animation-name:c1o}@keyframes c1p{51.9%{fill:var(--c2)}51.92%,100%{fill:var(--ce)}}.c.c1p{fill:var(--c2);animation-name:c1p}@keyframes c1q{29.76%{fill:var(--c1)}29.78%,100%{fill:var(--ce)}}.c.c1q{fill:var(--c1);animation-name:c1q}@keyframes c1r{29%{fill:var(--c1)}29.02%,100%{fill:var(--ce)}}.c.c1r{fill:var(--c1);animation-name:c1r}@keyframes c1s{52.66%{fill:var(--c2)}52.68%,100%{fill:var(--ce)}}.c.c1s{fill:var(--c2);animation-name:c1s}@keyframes c1t{29.51%{fill:var(--c1)}29.53%,100%{fill:var(--ce)}}.c.c1t{fill:var(--c1);animation-name:c1t}@keyframes c1u{29.25%{fill:var(--c1)}29.27%,100%{fill:var(--ce)}}.c.c1u{fill:var(--c1);animation-name:c1u}@keyframes c1v{78.87%{fill:var(--c4)}78.89%,100%{fill:var(--ce)}}.c.c1v{fill:var(--c4);animation-name:c1v}@keyframes c1w{78.36%{fill:var(--c3)}78.38%,100%{fill:var(--ce)}}.c.c1w{fill:var(--c3);animation-name:c1w}@keyframes c1x{50.63%{fill:var(--c2)}50.65%,100%{fill:var(--ce)}}.c.c1x{fill:var(--c2);animation-name:c1x}@keyframes c1y{33.58%{fill:var(--c1)}33.6%,100%{fill:var(--ce)}}.c.c1y{fill:var(--c1);animation-name:c1y}@keyframes c1z{36.89%{fill:var(--c1)}36.91%,100%{fill:var(--ce)}}.c.c1z{fill:var(--c1);animation-name:c1z}@keyframes c20{36.12%{fill:var(--c1)}36.14%,100%{fill:var(--ce)}}.c.c20{fill:var(--c1);animation-name:c20}@keyframes c21{33.83%{fill:var(--c1)}33.85%,100%{fill:var(--ce)}}.c.c21{fill:var(--c1);animation-name:c21}@keyframes c22{80.4%{fill:var(--c4)}80.42%,100%{fill:var(--ce)}}.c.c22{fill:var(--c4);animation-name:c22}@keyframes c23{35.61%{fill:var(--c1)}35.63%,100%{fill:var(--ce)}}.c.c23{fill:var(--c1);animation-name:c23}@keyframes c24{35.1%{fill:var(--c1)}35.12%,100%{fill:var(--ce)}}.c.c24{fill:var(--c1);animation-name:c24}@keyframes c25{48.08%{fill:var(--c1)}48.1%,100%{fill:var(--ce)}}.c.c25{fill:var(--c1);animation-name:c25}@keyframes c26{47.57%{fill:var(--c1)}47.59%,100%{fill:var(--ce)}}.c.c26{fill:var(--c1);animation-name:c26}@keyframes c27{46.55%{fill:var(--c1)}46.57%,100%{fill:var(--ce)}}.c.c27{fill:var(--c1);animation-name:c27}@keyframes c28{46.3%{fill:var(--c1)}46.32%,100%{fill:var(--ce)}}.c.c28{fill:var(--c1);animation-name:c28}@keyframes c29{39.18%{fill:var(--c1)}39.2%,100%{fill:var(--ce)}}.c.c29{fill:var(--c1);animation-name:c29}@keyframes c2a{82.18%{fill:var(--c4)}82.2%,100%{fill:var(--ce)}}.c.c2a{fill:var(--c4);animation-name:c2a}@keyframes c2b{82.43%{fill:var(--c4)}82.45%,100%{fill:var(--ce)}}.c.c2b{fill:var(--c4);animation-name:c2b}@keyframes c2c{47.06%{fill:var(--c1)}47.08%,100%{fill:var(--ce)}}.c.c2c{fill:var(--c1);animation-name:c2c}@keyframes c2d{39.68%{fill:var(--c1)}39.7%,100%{fill:var(--ce)}}.c.c2d{fill:var(--c1);animation-name:c2d}@keyframes c2e{39.94%{fill:var(--c1)}39.96%,100%{fill:var(--ce)}}.c.c2e{fill:var(--c1);animation-name:c2e}@keyframes c2f{45.28%{fill:var(--c1)}45.3%,100%{fill:var(--ce)}}.c.c2f{fill:var(--c1);animation-name:c2f}@keyframes c2g{40.45%{fill:var(--c1)}40.47%,100%{fill:var(--ce)}}.c.c2g{fill:var(--c1);animation-name:c2g}@keyframes c2h{43.25%{fill:var(--c1)}43.27%,100%{fill:var(--ce)}}.c.c2h{fill:var(--c1);animation-name:c2h}@keyframes c2i{42.23%{fill:var(--c1)}42.25%,100%{fill:var(--ce)}}.c.c2i{fill:var(--c1);animation-name:c2i}@keyframes c2j{42.48%{fill:var(--c1)}42.5%,100%{fill:var(--ce)}}.c.c2j{fill:var(--c1);animation-name:c2j}@keyframes c2k{42.99%{fill:var(--c1)}43.01%,100%{fill:var(--ce)}}.c.c2k{fill:var(--c1);animation-name:c2k}@keyframes c2l{71.49%{fill:var(--c2)}71.51%,100%{fill:var(--ce)}}.c.c2l{fill:var(--c2);animation-name:c2l}@keyframes c2m{85.74%{fill:var(--c4)}85.76%,100%{fill:var(--ce)}}.c.c2m{fill:var(--c4);animation-name:c2m}.u{transform-origin:0 0;transform:scale(0,1);animation:none linear 39300ms infinite}@keyframes u0{0.75%{transform:scale(0.000,1)}0.77%,2.03%{transform:scale(0.012,1)}2.05%,2.53%{transform:scale(0.024,1)}2.55%,3.3%{transform:scale(0.037,1)}3.32%,3.55%{transform:scale(0.049,1)}3.57%,5.08%{transform:scale(0.061,1)}5.1%,5.33%{transform:scale(0.073,1)}5.35%,5.84%{transform:scale(0.085,1)}5.86%,6.1%{transform:scale(0.098,1)}6.12%,6.35%{transform:scale(0.110,1)}6.37%,6.61%{transform:scale(0.122,1)}6.63%,7.11%{transform:scale(0.134,1)}7.13%,7.37%{transform:scale(0.146,1)}7.39%,7.62%{transform:scale(0.159,1)}7.64%,8.39%{transform:scale(0.171,1)}8.41%,8.9%{transform:scale(0.183,1)}8.92%,9.15%{transform:scale(0.195,1)}9.17%,9.66%{transform:scale(0.207,1)}9.68%,10.17%{transform:scale(0.220,1)}10.19%,10.42%{transform:scale(0.232,1)}10.44%,10.68%{transform:scale(0.244,1)}10.7%,10.93%{transform:scale(0.256,1)}10.95%,11.19%{transform:scale(0.268,1)}11.21%,11.44%{transform:scale(0.280,1)}11.46%,12.2%{transform:scale(0.293,1)}12.22%,12.46%{transform:scale(0.305,1)}12.48%,12.97%{transform:scale(0.317,1)}12.99%,14.75%{transform:scale(0.329,1)}14.77%,15%{transform:scale(0.341,1)}15.02%,15.26%{transform:scale(0.354,1)}15.28%,15.51%{transform:scale(0.366,1)}15.53%,16.02%{transform:scale(0.378,1)}16.04%,16.27%{transform:scale(0.390,1)}16.29%,16.78%{transform:scale(0.402,1)}16.8%,17.04%{transform:scale(0.415,1)}17.06%,17.55%{transform:scale(0.427,1)}17.57%,17.8%{transform:scale(0.439,1)}17.82%,19.07%{transform:scale(0.451,1)}19.09%,19.33%{transform:scale(0.463,1)}19.35%,19.58%{transform:scale(0.476,1)}19.6%,20.09%{transform:scale(0.488,1)}20.11%,22.64%{transform:scale(0.500,1)}22.66%,22.89%{transform:scale(0.512,1)}22.91%,23.15%{transform:scale(0.524,1)}23.17%,23.4%{transform:scale(0.537,1)}23.42%,23.65%{transform:scale(0.549,1)}23.67%,24.93%{transform:scale(0.561,1)}24.95%,26.2%{transform:scale(0.573,1)}26.22%,26.45%{transform:scale(0.585,1)}26.47%,26.71%{transform:scale(0.598,1)}26.73%,26.96%{transform:scale(0.610,1)}26.98%,27.22%{transform:scale(0.622,1)}27.24%,27.47%{transform:scale(0.634,1)}27.49%,29%{transform:scale(0.646,1)}29.02%,29.25%{transform:scale(0.659,1)}29.27%,29.51%{transform:scale(0.671,1)}29.53%,29.76%{transform:scale(0.683,1)}29.78%,30.52%{transform:scale(0.695,1)}30.54%,30.78%{transform:scale(0.707,1)}30.8%,31.03%{transform:scale(0.720,1)}31.05%,31.29%{transform:scale(0.732,1)}31.31%,32.05%{transform:scale(0.744,1)}32.07%,33.58%{transform:scale(0.756,1)}33.6%,33.83%{transform:scale(0.768,1)}33.85%,35.1%{transform:scale(0.780,1)}35.12%,35.61%{transform:scale(0.793,1)}35.63%,36.12%{transform:scale(0.805,1)}36.14%,36.89%{transform:scale(0.817,1)}36.91%,39.18%{transform:scale(0.829,1)}39.2%,39.68%{transform:scale(0.841,1)}39.7%,39.94%{transform:scale(0.854,1)}39.96%,40.45%{transform:scale(0.866,1)}40.47%,42.23%{transform:scale(0.878,1)}42.25%,42.48%{transform:scale(0.890,1)}42.5%,42.99%{transform:scale(0.902,1)}43.01%,43.25%{transform:scale(0.915,1)}43.27%,45.28%{transform:scale(0.927,1)}45.3%,46.3%{transform:scale(0.939,1)}46.32%,46.55%{transform:scale(0.951,1)}46.57%,47.06%{transform:scale(0.963,1)}47.08%,47.57%{transform:scale(0.976,1)}47.59%,48.08%{transform:scale(0.988,1)}48.1%,100%{transform:scale(1.000,1)}}.u.u0{fill:var(--c1);animation-name:u0;transform-origin:0.0px 0}@keyframes u1{50.63%{transform:scale(0.000,1)}50.65%,51.9%{transform:scale(0.143,1)}51.92%,52.66%{transform:scale(0.286,1)}52.68%,55.21%{transform:scale(0.429,1)}55.23%,57.5%{transform:scale(0.571,1)}57.52%,60.04%{transform:scale(0.714,1)}60.06%,71.49%{transform:scale(0.857,1)}71.51%,100%{transform:scale(1.000,1)}}.u.u1{fill:var(--c2);animation-name:u1;transform-origin:732.0px 0}@keyframes u2{78.36%{transform:scale(0.000,1)}78.38%,100%{transform:scale(1.000,1)}}.u.u2{fill:var(--c3);animation-name:u2;transform-origin:794.4px 0}@keyframes u3{78.87%{transform:scale(0.000,1)}78.89%,80.4%{transform:scale(0.200,1)}80.42%,82.18%{transform:scale(0.400,1)}82.2%,82.43%{transform:scale(0.600,1)}82.45%,85.74%{transform:scale(0.800,1)}85.76%,100%{transform:scale(1.000,1)}}.u.u3{fill:var(--c4);animation-name:u3;transform-origin:803.4px 0}.s{shape-rendering:geometricPrecision;fill:var(--cs);animation:none linear 39300ms infinite}@keyframes s0{0%,99.75%{transform:translate(0px,-16px)}0.25%{transform:translate(0px,0px)}0.51%{transform:translate(16px,0px)}0.76%{transform:translate(16px,16px)}1.78%{transform:translate(80px,16px)}2.04%{transform:translate(80px,32px)}2.29%{transform:translate(64px,32px)}3.31%{transform:translate(64px,96px)}3.56%{transform:translate(48px,96px)}3.82%{transform:translate(48px,80px)}5.09%{transform:translate(128px,80px)}5.34%{transform:translate(128px,64px)}5.85%{transform:translate(160px,64px)}6.36%{transform:translate(160px,32px)}7.12%{transform:translate(208px,32px)}7.63%{transform:translate(208px,0px)}8.14%{transform:translate(240px,0px)}8.4%{transform:translate(240px,16px)}8.91%{transform:translate(272px,16px)}9.16%,14.25%{transform:translate(272px,0px)}9.67%{transform:translate(304px,0px)}10.69%{transform:translate(304px,64px)}11.2%{transform:translate(336px,64px)}11.96%{transform:translate(336px,16px)}12.47%{transform:translate(368px,16px)}12.72%{transform:translate(368px,0px)}15.01%{transform:translate(272px,48px)}16.03%{transform:translate(208px,48px)}16.28%{transform:translate(208px,64px)}16.54%{transform:translate(192px,64px)}17.05%{transform:translate(192px,96px)}17.56%{transform:translate(160px,96px)}19.08%{transform:translate(160px,0px)}19.59%{transform:translate(128px,0px)}19.85%{transform:translate(128px,16px)}21.88%{transform:translate(256px,16px)}22.65%{transform:translate(256px,64px)}22.9%{transform:translate(272px,64px)}23.41%{transform:translate(272px,96px)}23.66%{transform:translate(256px,96px)}23.92%{transform:translate(256px,112px)}24.68%{transform:translate(304px,112px)}24.94%{transform:translate(304px,96px)}26.72%{transform:translate(416px,96px)}26.97%{transform:translate(416px,80px)}27.48%{transform:translate(384px,80px)}27.74%{transform:translate(384px,64px)}29.26%{transform:translate(480px,64px)}29.52%{transform:translate(480px,48px)}30.03%{transform:translate(448px,48px)}30.53%,32.57%{transform:translate(448px,16px)}30.79%{transform:translate(464px,16px)}31.04%,51.4%{transform:translate(464px,0px)}31.55%{transform:translate(432px,0px)}32.06%{transform:translate(432px,32px)}32.32%,53.69%{transform:translate(448px,32px)}34.35%{transform:translate(560px,16px)}35.11%{transform:translate(560px,64px)}35.37%{transform:translate(544px,64px)}35.62%{transform:translate(544px,80px)}36.13%{transform:translate(512px,80px)}37.15%{transform:translate(512px,16px)}40.2%{transform:translate(704px,16px)}40.46%{transform:translate(704px,0px)}41.98%{transform:translate(800px,0px)}43%{transform:translate(800px,64px)}44.78%{transform:translate(688px,64px)}45.29%{transform:translate(688px,96px)}46.31%{transform:translate(624px,96px)}46.56%{transform:translate(624px,80px)}46.82%{transform:translate(640px,80px)}47.07%{transform:translate(640px,64px)}47.84%{transform:translate(592px,64px)}48.09%{transform:translate(592px,80px)}48.35%{transform:translate(576px,80px)}49.62%{transform:translate(576px,0px)}52.67%{transform:translate(464px,80px)}52.93%{transform:translate(448px,80px)}56.74%{transform:translate(256px,32px)}57.51%{transform:translate(256px,80px)}57.76%{transform:translate(240px,80px)}58.52%{transform:translate(240px,32px)}60.05%{transform:translate(144px,32px)}60.31%{transform:translate(144px,16px)}71.25%{transform:translate(832px,16px)}71.5%{transform:translate(832px,0px)}76.84%{transform:translate(496px,0px)}78.37%{transform:translate(496px,96px)}78.63%{transform:translate(480px,96px)}78.88%{transform:translate(480px,80px)}79.64%{transform:translate(528px,80px)}80.41%{transform:translate(528px,32px)}82.19%{transform:translate(640px,32px)}82.44%{transform:translate(640px,48px)}85.5%{transform:translate(832px,48px)}85.75%{transform:translate(832px,32px)}98.22%{transform:translate(48px,32px)}98.98%{transform:translate(48px,-16px)}}.s.s0{transform:translate(0px,-16px);animation-name:s0}@keyframes s1{0%,99.75%{transform:translate(16px,-16px)}0.25%{transform:translate(0px,-16px)}0.51%{transform:translate(0px,0px)}0.76%{transform:translate(16px,0px)}1.02%{transform:translate(16px,16px)}2.04%{transform:translate(80px,16px)}2.29%{transform:translate(80px,32px)}2.54%{transform:translate(64px,32px)}3.56%{transform:translate(64px,96px)}3.82%{transform:translate(48px,96px)}4.07%{transform:translate(48px,80px)}5.34%{transform:translate(128px,80px)}5.6%{transform:translate(128px,64px)}6.11%{transform:translate(160px,64px)}6.62%{transform:translate(160px,32px)}7.38%{transform:translate(208px,32px)}7.89%{transform:translate(208px,0px)}8.4%{transform:translate(240px,0px)}8.65%{transform:translate(240px,16px)}9.16%{transform:translate(272px,16px)}9.41%,14.5%{transform:translate(272px,0px)}9.92%{transform:translate(304px,0px)}10.94%{transform:translate(304px,64px)}11.45%{transform:translate(336px,64px)}12.21%{transform:translate(336px,16px)}12.72%{transform:translate(368px,16px)}12.98%{transform:translate(368px,0px)}15.27%{transform:translate(272px,48px)}16.28%{transform:translate(208px,48px)}16.54%{transform:translate(208px,64px)}16.79%{transform:translate(192px,64px)}17.3%{transform:translate(192px,96px)}17.81%{transform:translate(160px,96px)}19.34%{transform:translate(160px,0px)}19.85%{transform:translate(128px,0px)}20.1%{transform:translate(128px,16px)}22.14%{transform:translate(256px,16px)}22.9%{transform:translate(256px,64px)}23.16%{transform:translate(272px,64px)}23.66%{transform:translate(272px,96px)}23.92%{transform:translate(256px,96px)}24.17%{transform:translate(256px,112px)}24.94%{transform:translate(304px,112px)}25.19%{transform:translate(304px,96px)}26.97%{transform:translate(416px,96px)}27.23%{transform:translate(416px,80px)}27.74%{transform:translate(384px,80px)}27.99%{transform:translate(384px,64px)}29.52%{transform:translate(480px,64px)}29.77%{transform:translate(480px,48px)}30.28%{transform:translate(448px,48px)}30.79%,32.82%{transform:translate(448px,16px)}31.04%{transform:translate(464px,16px)}31.3%,51.65%{transform:translate(464px,0px)}31.81%{transform:translate(432px,0px)}32.32%{transform:translate(432px,32px)}32.57%,53.94%{transform:translate(448px,32px)}34.61%{transform:translate(560px,16px)}35.37%{transform:translate(560px,64px)}35.62%{transform:translate(544px,64px)}35.88%{transform:translate(544px,80px)}36.39%{transform:translate(512px,80px)}37.4%{transform:translate(512px,16px)}40.46%{transform:translate(704px,16px)}40.71%{transform:translate(704px,0px)}42.24%{transform:translate(800px,0px)}43.26%{transform:translate(800px,64px)}45.04%{transform:translate(688px,64px)}45.55%{transform:translate(688px,96px)}46.56%{transform:translate(624px,96px)}46.82%{transform:translate(624px,80px)}47.07%{transform:translate(640px,80px)}47.33%{transform:translate(640px,64px)}48.09%{transform:translate(592px,64px)}48.35%{transform:translate(592px,80px)}48.6%{transform:translate(576px,80px)}49.87%{transform:translate(576px,0px)}52.93%{transform:translate(464px,80px)}53.18%{transform:translate(448px,80px)}57%{transform:translate(256px,32px)}57.76%{transform:translate(256px,80px)}58.02%{transform:translate(240px,80px)}58.78%{transform:translate(240px,32px)}60.31%{transform:translate(144px,32px)}60.56%{transform:translate(144px,16px)}71.5%{transform:translate(832px,16px)}71.76%{transform:translate(832px,0px)}77.1%{transform:translate(496px,0px)}78.63%{transform:translate(496px,96px)}78.88%{transform:translate(480px,96px)}79.13%{transform:translate(480px,80px)}79.9%{transform:translate(528px,80px)}80.66%{transform:translate(528px,32px)}82.44%{transform:translate(640px,32px)}82.7%{transform:translate(640px,48px)}85.75%{transform:translate(832px,48px)}86.01%{transform:translate(832px,32px)}98.47%{transform:translate(48px,32px)}99.24%{transform:translate(48px,-16px)}}.s.s1{transform:translate(16px,-16px);animation-name:s1}@keyframes s2{0%,99.75%{transform:translate(32px,-16px)}0.51%{transform:translate(0px,-16px)}0.76%{transform:translate(0px,0px)}1.02%{transform:translate(16px,0px)}1.27%{transform:translate(16px,16px)}2.29%{transform:translate(80px,16px)}2.54%{transform:translate(80px,32px)}2.8%{transform:translate(64px,32px)}3.82%{transform:translate(64px,96px)}4.07%{transform:translate(48px,96px)}4.33%{transform:translate(48px,80px)}5.6%{transform:translate(128px,80px)}5.85%{transform:translate(128px,64px)}6.36%{transform:translate(160px,64px)}6.87%{transform:translate(160px,32px)}7.63%{transform:translate(208px,32px)}8.14%{transform:translate(208px,0px)}8.65%{transform:translate(240px,0px)}8.91%{transform:translate(240px,16px)}9.41%{transform:translate(272px,16px)}9.67%,14.76%{transform:translate(272px,0px)}10.18%{transform:translate(304px,0px)}11.2%{transform:translate(304px,64px)}11.7%{transform:translate(336px,64px)}12.47%{transform:translate(336px,16px)}12.98%{transform:translate(368px,16px)}13.23%{transform:translate(368px,0px)}15.52%{transform:translate(272px,48px)}16.54%{transform:translate(208px,48px)}16.79%{transform:translate(208px,64px)}17.05%{transform:translate(192px,64px)}17.56%{transform:translate(192px,96px)}18.07%{transform:translate(160px,96px)}19.59%{transform:translate(160px,0px)}20.1%{transform:translate(128px,0px)}20.36%{transform:translate(128px,16px)}22.39%{transform:translate(256px,16px)}23.16%{transform:translate(256px,64px)}23.41%{transform:translate(272px,64px)}23.92%{transform:translate(272px,96px)}24.17%{transform:translate(256px,96px)}24.43%{transform:translate(256px,112px)}25.19%{transform:translate(304px,112px)}25.45%{transform:translate(304px,96px)}27.23%{transform:translate(416px,96px)}27.48%{transform:translate(416px,80px)}27.99%{transform:translate(384px,80px)}28.24%{transform:translate(384px,64px)}29.77%{transform:translate(480px,64px)}30.03%{transform:translate(480px,48px)}30.53%{transform:translate(448px,48px)}31.04%,33.08%{transform:translate(448px,16px)}31.3%{transform:translate(464px,16px)}31.55%,51.91%{transform:translate(464px,0px)}32.06%{transform:translate(432px,0px)}32.57%{transform:translate(432px,32px)}32.82%,54.2%{transform:translate(448px,32px)}34.86%{transform:translate(560px,16px)}35.62%{transform:translate(560px,64px)}35.88%{transform:translate(544px,64px)}36.13%{transform:translate(544px,80px)}36.64%{transform:translate(512px,80px)}37.66%{transform:translate(512px,16px)}40.71%{transform:translate(704px,16px)}40.97%{transform:translate(704px,0px)}42.49%{transform:translate(800px,0px)}43.51%{transform:translate(800px,64px)}45.29%{transform:translate(688px,64px)}45.8%{transform:translate(688px,96px)}46.82%{transform:translate(624px,96px)}47.07%{transform:translate(624px,80px)}47.33%{transform:translate(640px,80px)}47.58%{transform:translate(640px,64px)}48.35%{transform:translate(592px,64px)}48.6%{transform:translate(592px,80px)}48.85%{transform:translate(576px,80px)}50.13%{transform:translate(576px,0px)}53.18%{transform:translate(464px,80px)}53.44%{transform:translate(448px,80px)}57.25%{transform:translate(256px,32px)}58.02%{transform:translate(256px,80px)}58.27%{transform:translate(240px,80px)}59.03%{transform:translate(240px,32px)}60.56%{transform:translate(144px,32px)}60.81%{transform:translate(144px,16px)}71.76%{transform:translate(832px,16px)}72.01%{transform:translate(832px,0px)}77.35%{transform:translate(496px,0px)}78.88%{transform:translate(496px,96px)}79.13%{transform:translate(480px,96px)}79.39%{transform:translate(480px,80px)}80.15%{transform:translate(528px,80px)}80.92%{transform:translate(528px,32px)}82.7%{transform:translate(640px,32px)}82.95%{transform:translate(640px,48px)}86.01%{transform:translate(832px,48px)}86.26%{transform:translate(832px,32px)}98.73%{transform:translate(48px,32px)}99.49%{transform:translate(48px,-16px)}}.s.s2{transform:translate(32px,-16px);animation-name:s2}@keyframes s3{0%,99.75%{transform:translate(48px,-16px)}0.76%{transform:translate(0px,-16px)}1.02%{transform:translate(0px,0px)}1.27%{transform:translate(16px,0px)}1.53%{transform:translate(16px,16px)}2.54%{transform:translate(80px,16px)}2.8%{transform:translate(80px,32px)}3.05%{transform:translate(64px,32px)}4.07%{transform:translate(64px,96px)}4.33%{transform:translate(48px,96px)}4.58%{transform:translate(48px,80px)}5.85%{transform:translate(128px,80px)}6.11%{transform:translate(128px,64px)}6.62%{transform:translate(160px,64px)}7.12%{transform:translate(160px,32px)}7.89%{transform:translate(208px,32px)}8.4%{transform:translate(208px,0px)}8.91%{transform:translate(240px,0px)}9.16%{transform:translate(240px,16px)}9.67%{transform:translate(272px,16px)}9.92%,15.01%{transform:translate(272px,0px)}10.43%{transform:translate(304px,0px)}11.45%{transform:translate(304px,64px)}11.96%{transform:translate(336px,64px)}12.72%{transform:translate(336px,16px)}13.23%{transform:translate(368px,16px)}13.49%{transform:translate(368px,0px)}15.78%{transform:translate(272px,48px)}16.79%{transform:translate(208px,48px)}17.05%{transform:translate(208px,64px)}17.3%{transform:translate(192px,64px)}17.81%{transform:translate(192px,96px)}18.32%{transform:translate(160px,96px)}19.85%{transform:translate(160px,0px)}20.36%{transform:translate(128px,0px)}20.61%{transform:translate(128px,16px)}22.65%{transform:translate(256px,16px)}23.41%{transform:translate(256px,64px)}23.66%{transform:translate(272px,64px)}24.17%{transform:translate(272px,96px)}24.43%{transform:translate(256px,96px)}24.68%{transform:translate(256px,112px)}25.45%{transform:translate(304px,112px)}25.7%{transform:translate(304px,96px)}27.48%{transform:translate(416px,96px)}27.74%{transform:translate(416px,80px)}28.24%{transform:translate(384px,80px)}28.5%{transform:translate(384px,64px)}30.03%{transform:translate(480px,64px)}30.28%{transform:translate(480px,48px)}30.79%{transform:translate(448px,48px)}31.3%,33.33%{transform:translate(448px,16px)}31.55%{transform:translate(464px,16px)}31.81%,52.16%{transform:translate(464px,0px)}32.32%{transform:translate(432px,0px)}32.82%{transform:translate(432px,32px)}33.08%,54.45%{transform:translate(448px,32px)}35.11%{transform:translate(560px,16px)}35.88%{transform:translate(560px,64px)}36.13%{transform:translate(544px,64px)}36.39%{transform:translate(544px,80px)}36.9%{transform:translate(512px,80px)}37.91%{transform:translate(512px,16px)}40.97%{transform:translate(704px,16px)}41.22%{transform:translate(704px,0px)}42.75%{transform:translate(800px,0px)}43.77%{transform:translate(800px,64px)}45.55%{transform:translate(688px,64px)}46.06%{transform:translate(688px,96px)}47.07%{transform:translate(624px,96px)}47.33%{transform:translate(624px,80px)}47.58%{transform:translate(640px,80px)}47.84%{transform:translate(640px,64px)}48.6%{transform:translate(592px,64px)}48.85%{transform:translate(592px,80px)}49.11%{transform:translate(576px,80px)}50.38%{transform:translate(576px,0px)}53.44%{transform:translate(464px,80px)}53.69%{transform:translate(448px,80px)}57.51%{transform:translate(256px,32px)}58.27%{transform:translate(256px,80px)}58.52%{transform:translate(240px,80px)}59.29%{transform:translate(240px,32px)}60.81%{transform:translate(144px,32px)}61.07%{transform:translate(144px,16px)}72.01%{transform:translate(832px,16px)}72.26%{transform:translate(832px,0px)}77.61%{transform:translate(496px,0px)}79.13%{transform:translate(496px,96px)}79.39%{transform:translate(480px,96px)}79.64%{transform:translate(480px,80px)}80.41%{transform:translate(528px,80px)}81.17%{transform:translate(528px,32px)}82.95%{transform:translate(640px,32px)}83.21%{transform:translate(640px,48px)}86.26%{transform:translate(832px,48px)}86.51%{transform:translate(832px,32px)}98.98%{transform:translate(48px,32px)}}.s.s3{transform:translate(48px,-16px);animation-name:s3}</style><rect class="c" x="2" y="2" rx="2" ry="2"/><rect class="c" x="2" y="18" rx="2" ry="2"/><rect class="c" x="2" y="34" rx="2" ry="2"/><rect class="c" x="2" y="50" rx="2" ry="2"/><rect class="c" x="2" y="66" rx="2" ry="2"/><rect class="c" x="2" y="82" rx="2" ry="2"/><rect class="c" x="2" y="98" rx="2" ry="2"/><rect class="c" x="18" y="2" rx="2" ry="2"/><rect class="c c0" x="18" y="18" rx="2" ry="2"/><rect class="c" x="18" y="34" rx="2" ry="2"/><rect class="c" x="18" y="50" rx="2" ry="2"/><rect class="c" x="18" y="66" rx="2" ry="2"/><rect class="c" x="18" y="82" rx="2" ry="2"/><rect class="c" x="18" y="98" rx="2" ry="2"/><rect class="c" x="34" y="2" rx="2" ry="2"/><rect class="c" x="34" y="18" rx="2" ry="2"/><rect class="c" x="34" y="34" rx="2" ry="2"/><rect class="c" x="34" y="50" rx="2" ry="2"/><rect class="c" x="34" y="66" rx="2" ry="2"/><rect class="c" x="34" y="82" rx="2" ry="2"/><rect class="c" x="34" y="98" rx="2" ry="2"/><rect class="c" x="50" y="2" rx="2" ry="2"/><rect class="c" x="50" y="18" rx="2" ry="2"/><rect class="c" x="50" y="34" rx="2" ry="2"/><rect class="c" x="50" y="50" rx="2" ry="2"/><rect class="c" x="50" y="66" rx="2" ry="2"/><rect class="c" x="50" y="82" rx="2" ry="2"/><rect class="c c1" x="50" y="98" rx="2" ry="2"/><rect class="c" x="66" y="2" rx="2" ry="2"/><rect class="c" x="66" y="18" rx="2" ry="2"/><rect class="c" x="66" y="34" rx="2" ry="2"/><rect class="c c2" x="66" y="50" rx="2" ry="2"/><rect class="c" x="66" y="66" rx="2" ry="2"/><rect class="c" x="66" y="82" rx="2" ry="2"/><rect class="c c3" x="66" y="98" rx="2" ry="2"/><rect class="c" x="82" y="2" rx="2" ry="2"/><rect class="c" x="82" y="18" rx="2" ry="2"/><rect class="c c4" x="82" y="34" rx="2" ry="2"/><rect class="c" x="82" y="50" rx="2" ry="2"/><rect class="c" x="82" y="66" rx="2" ry="2"/><rect class="c" x="82" y="82" rx="2" ry="2"/><rect class="c" x="82" y="98" rx="2" ry="2"/><rect class="c" x="98" y="2" rx="2" ry="2"/><rect class="c" x="98" y="18" rx="2" ry="2"/><rect class="c" x="98" y="34" rx="2" ry="2"/><rect class="c" x="98" y="50" rx="2" ry="2"/><rect class="c" x="98" y="66" rx="2" ry="2"/><rect class="c" x="98" y="82" rx="2" ry="2"/><rect class="c" x="98" y="98" rx="2" ry="2"/><rect class="c" x="114" y="2" rx="2" ry="2"/><rect class="c" x="114" y="18" rx="2" ry="2"/><rect class="c" x="114" y="34" rx="2" ry="2"/><rect class="c" x="114" y="50" rx="2" ry="2"/><rect class="c" x="114" y="66" rx="2" ry="2"/><rect class="c" x="114" y="82" rx="2" ry="2"/><rect class="c" x="114" y="98" rx="2" ry="2"/><rect class="c c5" x="130" y="2" rx="2" ry="2"/><rect class="c" x="130" y="18" rx="2" ry="2"/><rect class="c" x="130" y="34" rx="2" ry="2"/><rect class="c" x="130" y="50" rx="2" ry="2"/><rect class="c c6" x="130" y="66" rx="2" ry="2"/><rect class="c c7" x="130" y="82" rx="2" ry="2"/><rect class="c" x="130" y="98" rx="2" ry="2"/><rect class="c c8" x="146" y="2" rx="2" ry="2"/><rect class="c c9" x="146" y="18" rx="2" ry="2"/><rect class="c ca" x="146" y="34" rx="2" ry="2"/><rect class="c" x="146" y="50" rx="2" ry="2"/><rect class="c" x="146" y="66" rx="2" ry="2"/><rect class="c" x="146" y="82" rx="2" ry="2"/><rect class="c" x="146" y="98" rx="2" ry="2"/><rect class="c cb" x="162" y="2" rx="2" ry="2"/><rect class="c" x="162" y="18" rx="2" ry="2"/><rect class="c cc" x="162" y="34" rx="2" ry="2"/><rect class="c cd" x="162" y="50" rx="2" ry="2"/><rect class="c ce" x="162" y="66" rx="2" ry="2"/><rect class="c cf" x="162" y="82" rx="2" ry="2"/><rect class="c cg" x="162" y="98" rx="2" ry="2"/><rect class="c" x="178" y="2" rx="2" ry="2"/><rect class="c" x="178" y="18" rx="2" ry="2"/><rect class="c ch" x="178" y="34" rx="2" ry="2"/><rect class="c" x="178" y="50" rx="2" ry="2"/><rect class="c" x="178" y="66" rx="2" ry="2"/><rect class="c" x="178" y="82" rx="2" ry="2"/><rect class="c" x="178" y="98" rx="2" ry="2"/><rect class="c" x="194" y="2" rx="2" ry="2"/><rect class="c" x="194" y="18" rx="2" ry="2"/><rect class="c" x="194" y="34" rx="2" ry="2"/><rect class="c" x="194" y="50" rx="2" ry="2"/><rect class="c" x="194" y="66" rx="2" ry="2"/><rect class="c ci" x="194" y="82" rx="2" ry="2"/><rect class="c cj" x="194" y="98" rx="2" ry="2"/><rect class="c ck" x="210" y="2" rx="2" ry="2"/><rect class="c cl" x="210" y="18" rx="2" ry="2"/><rect class="c cm" x="210" y="34" rx="2" ry="2"/><rect class="c cn" x="210" y="50" rx="2" ry="2"/><rect class="c co" x="210" y="66" rx="2" ry="2"/><rect class="c" x="210" y="82" rx="2" ry="2"/><rect class="c" x="210" y="98" rx="2" ry="2"/><rect class="c" x="226" y="2" rx="2" ry="2"/><rect class="c" x="226" y="18" rx="2" ry="2"/><rect class="c" x="226" y="34" rx="2" ry="2"/><rect class="c" x="226" y="50" rx="2" ry="2"/><rect class="c" x="226" y="66" rx="2" ry="2"/><rect class="c" x="226" y="82" rx="2" ry="2"/><rect class="c" x="226" y="98" rx="2" ry="2"/><rect class="c" x="242" y="2" rx="2" ry="2"/><rect class="c cp" x="242" y="18" rx="2" ry="2"/><rect class="c" x="242" y="34" rx="2" ry="2"/><rect class="c cq" x="242" y="50" rx="2" ry="2"/><rect class="c" x="242" y="66" rx="2" ry="2"/><rect class="c" x="242" y="82" rx="2" ry="2"/><rect class="c" x="242" y="98" rx="2" ry="2"/><rect class="c" x="258" y="2" rx="2" ry="2"/><rect class="c" x="258" y="18" rx="2" ry="2"/><rect class="c" x="258" y="34" rx="2" ry="2"/><rect class="c cr" x="258" y="50" rx="2" ry="2"/><rect class="c cs" x="258" y="66" rx="2" ry="2"/><rect class="c ct" x="258" y="82" rx="2" ry="2"/><rect class="c cu" x="258" y="98" rx="2" ry="2"/><rect class="c cv" x="274" y="2" rx="2" ry="2"/><rect class="c cw" x="274" y="18" rx="2" ry="2"/><rect class="c cx" x="274" y="34" rx="2" ry="2"/><rect class="c cy" x="274" y="50" rx="2" ry="2"/><rect class="c cz" x="274" y="66" rx="2" ry="2"/><rect class="c c10" x="274" y="82" rx="2" ry="2"/><rect class="c c11" x="274" y="98" rx="2" ry="2"/><rect class="c" x="290" y="2" rx="2" ry="2"/><rect class="c" x="290" y="18" rx="2" ry="2"/><rect class="c" x="290" y="34" rx="2" ry="2"/><rect class="c" x="290" y="50" rx="2" ry="2"/><rect class="c" x="290" y="66" rx="2" ry="2"/><rect class="c" x="290" y="82" rx="2" ry="2"/><rect class="c" x="290" y="98" rx="2" ry="2"/><rect class="c c12" x="306" y="2" rx="2" ry="2"/><rect class="c" x="306" y="18" rx="2" ry="2"/><rect class="c c13" x="306" y="34" rx="2" ry="2"/><rect class="c c14" x="306" y="50" rx="2" ry="2"/><rect class="c c15" x="306" y="66" rx="2" ry="2"/><rect class="c" x="306" y="82" rx="2" ry="2"/><rect class="c c16" x="306" y="98" rx="2" ry="2"/><rect class="c" x="322" y="2" rx="2" ry="2"/><rect class="c" x="322" y="18" rx="2" ry="2"/><rect class="c" x="322" y="34" rx="2" ry="2"/><rect class="c" x="322" y="50" rx="2" ry="2"/><rect class="c c17" x="322" y="66" rx="2" ry="2"/><rect class="c" x="322" y="82" rx="2" ry="2"/><rect class="c" x="322" y="98" rx="2" ry="2"/><rect class="c" x="338" y="2" rx="2" ry="2"/><rect class="c" x="338" y="18" rx="2" ry="2"/><rect class="c" x="338" y="34" rx="2" ry="2"/><rect class="c c18" x="338" y="50" rx="2" ry="2"/><rect class="c c19" x="338" y="66" rx="2" ry="2"/><rect class="c" x="338" y="82" rx="2" ry="2"/><rect class="c" x="338" y="98" rx="2" ry="2"/><rect class="c c1a" x="354" y="2" rx="2" ry="2"/><rect class="c c1b" x="354" y="18" rx="2" ry="2"/><rect class="c c1c" x="354" y="34" rx="2" ry="2"/><rect class="c" x="354" y="50" rx="2" ry="2"/><rect class="c" x="354" y="66" rx="2" ry="2"/><rect class="c" x="354" y="82" rx="2" ry="2"/><rect class="c" x="354" y="98" rx="2" ry="2"/><rect class="c" x="370" y="2" rx="2" ry="2"/><rect class="c c1d" x="370" y="18" rx="2" ry="2"/><rect class="c" x="370" y="34" rx="2" ry="2"/><rect class="c" x="370" y="50" rx="2" ry="2"/><rect class="c" x="370" y="66" rx="2" ry="2"/><rect class="c" x="370" y="82" rx="2" ry="2"/><rect class="c" x="370" y="98" rx="2" ry="2"/><rect class="c" x="386" y="2" rx="2" ry="2"/><rect class="c" x="386" y="18" rx="2" ry="2"/><rect class="c" x="386" y="34" rx="2" ry="2"/><rect class="c" x="386" y="50" rx="2" ry="2"/><rect class="c" x="386" y="66" rx="2" ry="2"/><rect class="c c1e" x="386" y="82" rx="2" ry="2"/><rect class="c c1f" x="386" y="98" rx="2" ry="2"/><rect class="c" x="402" y="2" rx="2" ry="2"/><rect class="c" x="402" y="18" rx="2" ry="2"/><rect class="c" x="402" y="34" rx="2" ry="2"/><rect class="c" x="402" y="50" rx="2" ry="2"/><rect class="c" x="402" y="66" rx="2" ry="2"/><rect class="c c1g" x="402" y="82" rx="2" ry="2"/><rect class="c c1h" x="402" y="98" rx="2" ry="2"/><rect class="c" x="418" y="2" rx="2" ry="2"/><rect class="c" x="418" y="18" rx="2" ry="2"/><rect class="c" x="418" y="34" rx="2" ry="2"/><rect class="c" x="418" y="50" rx="2" ry="2"/><rect class="c" x="418" y="66" rx="2" ry="2"/><rect class="c c1i" x="418" y="82" rx="2" ry="2"/><rect class="c c1j" x="418" y="98" rx="2" ry="2"/><rect class="c" x="434" y="2" rx="2" ry="2"/><rect class="c" x="434" y="18" rx="2" ry="2"/><rect class="c c1k" x="434" y="34" rx="2" ry="2"/><rect class="c" x="434" y="50" rx="2" ry="2"/><rect class="c" x="434" y="66" rx="2" ry="2"/><rect class="c" x="434" y="82" rx="2" ry="2"/><rect class="c" x="434" y="98" rx="2" ry="2"/><rect class="c c1l" x="450" y="2" rx="2" ry="2"/><rect class="c c1m" x="450" y="18" rx="2" ry="2"/><rect class="c" x="450" y="34" rx="2" ry="2"/><rect class="c" x="450" y="50" rx="2" ry="2"/><rect class="c" x="450" y="66" rx="2" ry="2"/><rect class="c" x="450" y="82" rx="2" ry="2"/><rect class="c" x="450" y="98" rx="2" ry="2"/><rect class="c c1n" x="466" y="2" rx="2" ry="2"/><rect class="c c1o" x="466" y="18" rx="2" ry="2"/><rect class="c c1p" x="466" y="34" rx="2" ry="2"/><rect class="c c1q" x="466" y="50" rx="2" ry="2"/><rect class="c c1r" x="466" y="66" rx="2" ry="2"/><rect class="c c1s" x="466" y="82" rx="2" ry="2"/><rect class="c" x="466" y="98" rx="2" ry="2"/><rect class="c" x="482" y="2" rx="2" ry="2"/><rect class="c" x="482" y="18" rx="2" ry="2"/><rect class="c" x="482" y="34" rx="2" ry="2"/><rect class="c c1t" x="482" y="50" rx="2" ry="2"/><rect class="c c1u" x="482" y="66" rx="2" ry="2"/><rect class="c c1v" x="482" y="82" rx="2" ry="2"/><rect class="c" x="482" y="98" rx="2" ry="2"/><rect class="c" x="498" y="2" rx="2" ry="2"/><rect class="c" x="498" y="18" rx="2" ry="2"/><rect class="c" x="498" y="34" rx="2" ry="2"/><rect class="c" x="498" y="50" rx="2" ry="2"/><rect class="c" x="498" y="66" rx="2" ry="2"/><rect class="c" x="498" y="82" rx="2" ry="2"/><rect class="c c1w" x="498" y="98" rx="2" ry="2"/><rect class="c c1x" x="514" y="2" rx="2" ry="2"/><rect class="c c1y" x="514" y="18" rx="2" ry="2"/><rect class="c c1z" x="514" y="34" rx="2" ry="2"/><rect class="c" x="514" y="50" rx="2" ry="2"/><rect class="c" x="514" y="66" rx="2" ry="2"/><rect class="c c20" x="514" y="82" rx="2" ry="2"/><rect class="c" x="514" y="98" rx="2" ry="2"/><rect class="c" x="530" y="2" rx="2" ry="2"/><rect class="c c21" x="530" y="18" rx="2" ry="2"/><rect class="c c22" x="530" y="34" rx="2" ry="2"/><rect class="c" x="530" y="50" rx="2" ry="2"/><rect class="c" x="530" y="66" rx="2" ry="2"/><rect class="c" x="530" y="82" rx="2" ry="2"/><rect class="c" x="530" y="98" rx="2" ry="2"/><rect class="c" x="546" y="2" rx="2" ry="2"/><rect class="c" x="546" y="18" rx="2" ry="2"/><rect class="c" x="546" y="34" rx="2" ry="2"/><rect class="c" x="546" y="50" rx="2" ry="2"/><rect class="c" x="546" y="66" rx="2" ry="2"/><rect class="c c23" x="546" y="82" rx="2" ry="2"/><rect class="c" x="546" y="98" rx="2" ry="2"/><rect class="c" x="562" y="2" rx="2" ry="2"/><rect class="c" x="562" y="18" rx="2" ry="2"/><rect class="c" x="562" y="34" rx="2" ry="2"/><rect class="c" x="562" y="50" rx="2" ry="2"/><rect class="c c24" x="562" y="66" rx="2" ry="2"/><rect class="c" x="562" y="82" rx="2" ry="2"/><rect class="c" x="562" y="98" rx="2" ry="2"/><rect class="c" x="578" y="2" rx="2" ry="2"/><rect class="c" x="578" y="18" rx="2" ry="2"/><rect class="c" x="578" y="34" rx="2" ry="2"/><rect class="c" x="578" y="50" rx="2" ry="2"/><rect class="c" x="578" y="66" rx="2" ry="2"/><rect class="c" x="578" y="82" rx="2" ry="2"/><rect class="c" x="578" y="98" rx="2" ry="2"/><rect class="c" x="594" y="2" rx="2" ry="2"/><rect class="c" x="594" y="18" rx="2" ry="2"/><rect class="c" x="594" y="34" rx="2" ry="2"/><rect class="c" x="594" y="50" rx="2" ry="2"/><rect class="c" x="594" y="66" rx="2" ry="2"/><rect class="c c25" x="594" y="82" rx="2" ry="2"/><rect class="c" x="594" y="98" rx="2" ry="2"/><rect class="c" x="610" y="2" rx="2" ry="2"/><rect class="c" x="610" y="18" rx="2" ry="2"/><rect class="c" x="610" y="34" rx="2" ry="2"/><rect class="c" x="610" y="50" rx="2" ry="2"/><rect class="c c26" x="610" y="66" rx="2" ry="2"/><rect class="c" x="610" y="82" rx="2" ry="2"/><rect class="c" x="610" y="98" rx="2" ry="2"/><rect class="c" x="626" y="2" rx="2" ry="2"/><rect class="c" x="626" y="18" rx="2" ry="2"/><rect class="c" x="626" y="34" rx="2" ry="2"/><rect class="c" x="626" y="50" rx="2" ry="2"/><rect class="c" x="626" y="66" rx="2" ry="2"/><rect class="c c27" x="626" y="82" rx="2" ry="2"/><rect class="c c28" x="626" y="98" rx="2" ry="2"/><rect class="c" x="642" y="2" rx="2" ry="2"/><rect class="c c29" x="642" y="18" rx="2" ry="2"/><rect class="c c2a" x="642" y="34" rx="2" ry="2"/><rect class="c c2b" x="642" y="50" rx="2" ry="2"/><rect class="c c2c" x="642" y="66" rx="2" ry="2"/><rect class="c" x="642" y="82" rx="2" ry="2"/><rect class="c" x="642" y="98" rx="2" ry="2"/><rect class="c" x="658" y="2" rx="2" ry="2"/><rect class="c" x="658" y="18" rx="2" ry="2"/><rect class="c" x="658" y="34" rx="2" ry="2"/><rect class="c" x="658" y="50" rx="2" ry="2"/><rect class="c" x="658" y="66" rx="2" ry="2"/><rect class="c" x="658" y="82" rx="2" ry="2"/><rect class="c" x="658" y="98" rx="2" ry="2"/><rect class="c" x="674" y="2" rx="2" ry="2"/><rect class="c c2d" x="674" y="18" rx="2" ry="2"/><rect class="c" x="674" y="34" rx="2" ry="2"/><rect class="c" x="674" y="50" rx="2" ry="2"/><rect class="c" x="674" y="66" rx="2" ry="2"/><rect class="c" x="674" y="82" rx="2" ry="2"/><rect class="c" x="674" y="98" rx="2" ry="2"/><rect class="c" x="690" y="2" rx="2" ry="2"/><rect class="c c2e" x="690" y="18" rx="2" ry="2"/><rect class="c" x="690" y="34" rx="2" ry="2"/><rect class="c" x="690" y="50" rx="2" ry="2"/><rect class="c" x="690" y="66" rx="2" ry="2"/><rect class="c" x="690" y="82" rx="2" ry="2"/><rect class="c c2f" x="690" y="98" rx="2" ry="2"/><rect class="c c2g" x="706" y="2" rx="2" ry="2"/><rect class="c" x="706" y="18" rx="2" ry="2"/><rect class="c" x="706" y="34" rx="2" ry="2"/><rect class="c" x="706" y="50" rx="2" ry="2"/><rect class="c" x="706" y="66" rx="2" ry="2"/><rect class="c" x="706" y="82" rx="2" ry="2"/><rect class="c" x="706" y="98" rx="2" ry="2"/><rect class="c" x="722" y="2" rx="2" ry="2"/><rect class="c" x="722" y="18" rx="2" ry="2"/><rect class="c" x="722" y="34" rx="2" ry="2"/><rect class="c" x="722" y="50" rx="2" ry="2"/><rect class="c" x="722" y="66" rx="2" ry="2"/><rect class="c" x="722" y="82" rx="2" ry="2"/><rect class="c" x="722" y="98" rx="2" ry="2"/><rect class="c" x="738" y="2" rx="2" ry="2"/><rect class="c" x="738" y="18" rx="2" ry="2"/><rect class="c" x="738" y="34" rx="2" ry="2"/><rect class="c" x="738" y="50" rx="2" ry="2"/><rect class="c" x="738" y="66" rx="2" ry="2"/><rect class="c" x="738" y="82" rx="2" ry="2"/><rect class="c" x="738" y="98" rx="2" ry="2"/><rect class="c" x="754" y="2" rx="2" ry="2"/><rect class="c" x="754" y="18" rx="2" ry="2"/><rect class="c" x="754" y="34" rx="2" ry="2"/><rect class="c" x="754" y="50" rx="2" ry="2"/><rect class="c" x="754" y="66" rx="2" ry="2"/><rect class="c" x="754" y="82" rx="2" ry="2"/><rect class="c" x="754" y="98" rx="2" ry="2"/><rect class="c" x="770" y="2" rx="2" ry="2"/><rect class="c" x="770" y="18" rx="2" ry="2"/><rect class="c" x="770" y="34" rx="2" ry="2"/><rect class="c" x="770" y="50" rx="2" ry="2"/><rect class="c" x="770" y="66" rx="2" ry="2"/><rect class="c" x="770" y="82" rx="2" ry="2"/><rect class="c" x="770" y="98" rx="2" ry="2"/><rect class="c" x="786" y="2" rx="2" ry="2"/><rect class="c" x="786" y="18" rx="2" ry="2"/><rect class="c" x="786" y="34" rx="2" ry="2"/><rect class="c" x="786" y="50" rx="2" ry="2"/><rect class="c c2h" x="786" y="66" rx="2" ry="2"/><rect class="c" x="786" y="82" rx="2" ry="2"/><rect class="c" x="786" y="98" rx="2" ry="2"/><rect class="c" x="802" y="2" rx="2" ry="2"/><rect class="c c2i" x="802" y="18" rx="2" ry="2"/><rect class="c c2j" x="802" y="34" rx="2" ry="2"/><rect class="c" x="802" y="50" rx="2" ry="2"/><rect class="c c2k" x="802" y="66" rx="2" ry="2"/><rect class="c" x="802" y="82" rx="2" ry="2"/><rect class="c" x="802" y="98" rx="2" ry="2"/><rect class="c" x="818" y="2" rx="2" ry="2"/><rect class="c" x="818" y="18" rx="2" ry="2"/><rect class="c" x="818" y="34" rx="2" ry="2"/><rect class="c" x="818" y="50" rx="2" ry="2"/><rect class="c" x="818" y="66" rx="2" ry="2"/><rect class="c" x="818" y="82" rx="2" ry="2"/><rect class="c" x="818" y="98" rx="2" ry="2"/><rect class="c c2l" x="834" y="2" rx="2" ry="2"/><rect class="c" x="834" y="18" rx="2" ry="2"/><rect class="c c2m" x="834" y="34" rx="2" ry="2"/><rect class="u u0" height="12" width="732.6" x="0.0" y="144"/><rect class="u u1" height="12" width="63.1" x="732.0" y="144"/><rect class="u u2" height="12" width="9.5" x="794.4" y="144"/><rect class="u u3" height="12" width="45.2" x="803.4" y="144"/><rect class="s s0" x="0.8" y="0.8" width="14.4" height="14.4" rx="4.5" ry="4.5"/><rect class="s s1" x="1.8" y="1.8" width="12.3" height="12.3" rx="4.1" ry="4.1"/><rect class="s s2" x="2.6" y="2.6" width="10.8" height="10.8" rx="3.6" ry="3.6"/><rect class="s s3" x="3.0" y="3.0" width="9.9" height="9.9" rx="3.3" ry="3.3"/></svg>