<svg viewBox="-16 -32 880 192" width="880" height="192" xmlns="http://www.w3.org/2000/svg"><desc>Generated with https://github.com/Platane/snk</desc><style>:root{--cb:#1b1f230a;--cs:purple;--ce:#ebedf0;--c0:#ebedf0;--c1:#9be9a8;--c2:#40c463;--c3:#30a14e;--c4:#216e39}.c{shape-rendering:geometricPrecision;fill:var(--ce);stroke-width:1px;stroke:var(--cb);animation:none 40300ms linear infinite;width:12px;height:12px}@keyframes c0{0.49%{fill:var(--c1)}0.51%,100%{fill:var(--ce)}}.c.c0{fill:var(--c1);animation-name:c0}@keyframes c1{3.22%{fill:var(--c1)}3.24%,100%{fill:var(--ce)}}.c.c1{fill:var(--c1);animation-name:c1}@keyframes c2{2.22%{fill:var(--c1)}2.24%,100%{fill:var(--ce)}}.c.c2{fill:var(--c1);animation-name:c2}@keyframes c3{2.97%{fill:var(--c1)}2.99%,100%{fill:var(--ce)}}.c.c3{fill:var(--c1);animation-name:c3}@keyframes c4{1.73%{fill:var(--c1)}1.75%,100%{fill:var(--ce)}}.c.c4{fill:var(--c1);animation-name:c4}@keyframes c5{18.85%{fill:var(--c1)}18.87%,100%{fill:var(--ce)}}.c.c5{fill:var(--c1);animation-name:c5}@keyframes c6{4.95%{fill:var(--c1)}4.97%,100%{fill:var(--ce)}}.c.c6{fill:var(--c1);animation-name:c6}@keyframes c7{4.7%{fill:var(--c1)}4.72%,100%{fill:var(--ce)}}.c.c7{fill:var(--c1);animation-name:c7}@keyframes c8{18.6%{fill:var(--c1)}18.62%,100%{fill:var(--ce)}}.c.c8{fill:var(--c1);animation-name:c8}@keyframes c9{19.34%{fill:var(--c1)}19.36%,100%{fill:var(--ce)}}.c.c9{fill:var(--c1);animation-name:c9}@keyframes ca{57.81%{fill:var(--c2)}57.83%,100%{fill:var(--ce)}}.c.ca{fill:var(--c2);animation-name:ca}@keyframes cb{18.35%{fill:var(--c1)}18.37%,100%{fill:var(--ce)}}.c.cb{fill:var(--c1);animation-name:cb}@keyframes cc{5.95%{fill:var(--c1)}5.97%,100%{fill:var(--ce)}}.c.cc{fill:var(--c1);animation-name:cc}@keyframes cd{5.7%{fill:var(--c1)}5.72%,100%{fill:var(--ce)}}.c.cd{fill:var(--c1);animation-name:cd}@keyframes ce{5.45%{fill:var(--c1)}5.47%,100%{fill:var(--ce)}}.c.ce{fill:var(--c1);animation-name:ce}@keyframes cf{17.11%{fill:var(--c1)}17.13%,100%{fill:var(--ce)}}.c.cf{fill:var(--c1);animation-name:cf}@keyframes cg{16.86%{fill:var(--c1)}16.88%,100%{fill:var(--ce)}}.c.cg{fill:var(--c1);animation-name:cg}@keyframes ch{6.19%{fill:var(--c1)}6.21%,100%{fill:var(--ce)}}.c.ch{fill:var(--c1);animation-name:ch}@keyframes ci{16.12%{fill:var(--c1)}16.14%,100%{fill:var(--ce)}}.c.ci{fill:var(--c1);animation-name:ci}@keyframes cj{16.37%{fill:var(--c1)}16.39%,100%{fill:var(--ce)}}.c.cj{fill:var(--c1);animation-name:cj}@keyframes ck{7.19%{fill:var(--c1)}7.21%,100%{fill:var(--ce)}}.c.ck{fill:var(--c1);animation-name:ck}@keyframes cl{6.94%{fill:var(--c1)}6.96%,100%{fill:var(--ce)}}.c.cl{fill:var(--c1);animation-name:cl}@keyframes cm{6.69%{fill:var(--c1)}6.71%,100%{fill:var(--ce)}}.c.cm{fill:var(--c1);animation-name:cm}@keyframes cn{15.37%{fill:var(--c1)}15.39%,100%{fill:var(--ce)}}.c.cn{fill:var(--c1);animation-name:cn}@keyframes co{15.62%{fill:var(--c1)}15.64%,100%{fill:var(--ce)}}.c.co{fill:var(--c1);animation-name:co}@keyframes cp{7.93%{fill:var(--c1)}7.95%,100%{fill:var(--ce)}}.c.cp{fill:var(--c1);animation-name:cp}@keyframes cq{14.88%{fill:var(--c1)}14.9%,100%{fill:var(--ce)}}.c.cq{fill:var(--c1);animation-name:cq}@keyframes cr{14.63%{fill:var(--c1)}14.65%,100%{fill:var(--ce)}}.c.cr{fill:var(--c1);animation-name:cr}@keyframes cs{21.83%{fill:var(--c1)}21.85%,100%{fill:var(--ce)}}.c.cs{fill:var(--c1);animation-name:cs}@keyframes ct{55.32%{fill:var(--c2)}55.34%,100%{fill:var(--ce)}}.c.ct{fill:var(--c2);animation-name:ct}@keyframes cu{22.82%{fill:var(--c1)}22.84%,100%{fill:var(--ce)}}.c.cu{fill:var(--c1);animation-name:cu}@keyframes cv{8.67%{fill:var(--c1)}8.69%,100%{fill:var(--ce)}}.c.cv{fill:var(--c1);animation-name:cv}@keyframes cw{8.43%{fill:var(--c1)}8.45%,100%{fill:var(--ce)}}.c.cw{fill:var(--c1);animation-name:cw}@keyframes cx{14.13%{fill:var(--c1)}14.15%,100%{fill:var(--ce)}}.c.cx{fill:var(--c1);animation-name:cx}@keyframes cy{14.38%{fill:var(--c1)}14.4%,100%{fill:var(--ce)}}.c.cy{fill:var(--c1);animation-name:cy}@keyframes cz{22.07%{fill:var(--c1)}22.09%,100%{fill:var(--ce)}}.c.cz{fill:var(--c1);animation-name:cz}@keyframes c10{22.32%{fill:var(--c1)}22.34%,100%{fill:var(--ce)}}.c.c10{fill:var(--c1);animation-name:c10}@keyframes c11{22.57%{fill:var(--c1)}22.59%,100%{fill:var(--ce)}}.c.c11{fill:var(--c1);animation-name:c11}@keyframes c12{9.17%{fill:var(--c1)}9.19%,100%{fill:var(--ce)}}.c.c12{fill:var(--c1);animation-name:c12}@keyframes c13{9.67%{fill:var(--c1)}9.69%,100%{fill:var(--ce)}}.c.c13{fill:var(--c1);animation-name:c13}@keyframes c14{9.92%{fill:var(--c1)}9.94%,100%{fill:var(--ce)}}.c.c14{fill:var(--c1);animation-name:c14}@keyframes c15{10.16%{fill:var(--c1)}10.18%,100%{fill:var(--ce)}}.c.c15{fill:var(--c1);animation-name:c15}@keyframes c16{24.06%{fill:var(--c1)}24.08%,100%{fill:var(--ce)}}.c.c16{fill:var(--c1);animation-name:c16}@keyframes c17{10.41%{fill:var(--c1)}10.43%,100%{fill:var(--ce)}}.c.c17{fill:var(--c1);animation-name:c17}@keyframes c18{10.91%{fill:var(--c1)}10.93%,100%{fill:var(--ce)}}.c.c18{fill:var(--c1);animation-name:c18}@keyframes c19{10.66%{fill:var(--c1)}10.68%,100%{fill:var(--ce)}}.c.c19{fill:var(--c1);animation-name:c19}@keyframes c1a{12.4%{fill:var(--c1)}12.42%,100%{fill:var(--ce)}}.c.c1a{fill:var(--c1);animation-name:c1a}@keyframes c1b{11.65%{fill:var(--c1)}11.67%,100%{fill:var(--ce)}}.c.c1b{fill:var(--c1);animation-name:c1b}@keyframes c1c{53.09%{fill:var(--c2)}53.11%,100%{fill:var(--ce)}}.c.c1c{fill:var(--c2);animation-name:c1c}@keyframes c1d{11.9%{fill:var(--c1)}11.92%,100%{fill:var(--ce)}}.c.c1d{fill:var(--c1);animation-name:c1d}@keyframes c1e{26.54%{fill:var(--c1)}26.56%,100%{fill:var(--ce)}}.c.c1e{fill:var(--c1);animation-name:c1e}@keyframes c1f{25.3%{fill:var(--c1)}25.32%,100%{fill:var(--ce)}}.c.c1f{fill:var(--c1);animation-name:c1f}@keyframes c1g{26.29%{fill:var(--c1)}26.31%,100%{fill:var(--ce)}}.c.c1g{fill:var(--c1);animation-name:c1g}@keyframes c1h{25.55%{fill:var(--c1)}25.57%,100%{fill:var(--ce)}}.c.c1h{fill:var(--c1);animation-name:c1h}@keyframes c1i{26.04%{fill:var(--c1)}26.06%,100%{fill:var(--ce)}}.c.c1i{fill:var(--c1);animation-name:c1i}@keyframes c1j{25.8%{fill:var(--c1)}25.82%,100%{fill:var(--ce)}}.c.c1j{fill:var(--c1);animation-name:c1j}@keyframes c1k{32%{fill:var(--c1)}32.02%,100%{fill:var(--ce)}}.c.c1k{fill:var(--c1);animation-name:c1k}@keyframes c1l{31.26%{fill:var(--c1)}31.28%,100%{fill:var(--ce)}}.c.c1l{fill:var(--c1);animation-name:c1l}@keyframes c1m{30.51%{fill:var(--c1)}30.53%,100%{fill:var(--ce)}}.c.c1m{fill:var(--c1);animation-name:c1m}@keyframes c1n{31.01%{fill:var(--c1)}31.03%,100%{fill:var(--ce)}}.c.c1n{fill:var(--c1);animation-name:c1n}@keyframes c1o{30.76%{fill:var(--c1)}30.78%,100%{fill:var(--ce)}}.c.c1o{fill:var(--c1);animation-name:c1o}@keyframes c1p{51.35%{fill:var(--c2)}51.37%,100%{fill:var(--ce)}}.c.c1p{fill:var(--c2);animation-name:c1p}@keyframes c1q{28.77%{fill:var(--c1)}28.79%,100%{fill:var(--ce)}}.c.c1q{fill:var(--c1);animation-name:c1q}@keyframes c1r{28.03%{fill:var(--c1)}28.05%,100%{fill:var(--ce)}}.c.c1r{fill:var(--c1);animation-name:c1r}@keyframes c1s{29.27%{fill:var(--c1)}29.29%,100%{fill:var(--ce)}}.c.c1s{fill:var(--c1);animation-name:c1s}@keyframes c1t{28.53%{fill:var(--c1)}28.55%,100%{fill:var(--ce)}}.c.c1t{fill:var(--c1);animation-name:c1t}@keyframes c1u{28.28%{fill:var(--c1)}28.3%,100%{fill:var(--ce)}}.c.c1u{fill:var(--c1);animation-name:c1u}@keyframes c1v{78.15%{fill:var(--c3)}78.17%,100%{fill:var(--ce)}}.c.c1v{fill:var(--c3);animation-name:c1v}@keyframes c1w{78.65%{fill:var(--c3)}78.67%,100%{fill:var(--ce)}}.c.c1w{fill:var(--c3);animation-name:c1w}@keyframes c1x{50.11%{fill:var(--c2)}50.13%,100%{fill:var(--ce)}}.c.c1x{fill:var(--c2);animation-name:c1x}@keyframes c1y{33.49%{fill:var(--c1)}33.51%,100%{fill:var(--ce)}}.c.c1y{fill:var(--c1);animation-name:c1y}@keyframes c1z{36.71%{fill:var(--c1)}36.73%,100%{fill:var(--ce)}}.c.c1z{fill:var(--c1);animation-name:c1z}@keyframes c20{35.97%{fill:var(--c1)}35.99%,100%{fill:var(--ce)}}.c.c20{fill:var(--c1);animation-name:c20}@keyframes c21{33.74%{fill:var(--c1)}33.76%,100%{fill:var(--ce)}}.c.c21{fill:var(--c1);animation-name:c21}@keyframes c22{80.14%{fill:var(--c4)}80.16%,100%{fill:var(--ce)}}.c.c22{fill:var(--c4);animation-name:c22}@keyframes c23{35.47%{fill:var(--c1)}35.49%,100%{fill:var(--ce)}}.c.c23{fill:var(--c1);animation-name:c23}@keyframes c24{34.98%{fill:var(--c1)}35%,100%{fill:var(--ce)}}.c.c24{fill:var(--c1);animation-name:c24}@keyframes c25{47.63%{fill:var(--c1)}47.65%,100%{fill:var(--ce)}}.c.c25{fill:var(--c1);animation-name:c25}@keyframes c26{47.14%{fill:var(--c1)}47.16%,100%{fill:var(--ce)}}.c.c26{fill:var(--c1);animation-name:c26}@keyframes c27{46.14%{fill:var(--c1)}46.16%,100%{fill:var(--ce)}}.c.c27{fill:var(--c1);animation-name:c27}@keyframes c28{45.9%{fill:var(--c1)}45.92%,100%{fill:var(--ce)}}.c.c28{fill:var(--c1);animation-name:c28}@keyframes c29{38.95%{fill:var(--c1)}38.97%,100%{fill:var(--ce)}}.c.c29{fill:var(--c1);animation-name:c29}@keyframes c2a{74.93%{fill:var(--c3)}74.95%,100%{fill:var(--ce)}}.c.c2a{fill:var(--c3);animation-name:c2a}@keyframes c2b{74.68%{fill:var(--c3)}74.7%,100%{fill:var(--ce)}}.c.c2b{fill:var(--c3);animation-name:c2b}@keyframes c2c{46.64%{fill:var(--c1)}46.66%,100%{fill:var(--ce)}}.c.c2c{fill:var(--c1);animation-name:c2c}@keyframes c2d{39.44%{fill:var(--c1)}39.46%,100%{fill:var(--ce)}}.c.c2d{fill:var(--c1);animation-name:c2d}@keyframes c2e{39.69%{fill:var(--c1)}39.71%,100%{fill:var(--ce)}}.c.c2e{fill:var(--c1);animation-name:c2e}@keyframes c2f{44.9%{fill:var(--c1)}44.92%,100%{fill:var(--ce)}}.c.c2f{fill:var(--c1);animation-name:c2f}@keyframes c2g{40.19%{fill:var(--c1)}40.21%,100%{fill:var(--ce)}}.c.c2g{fill:var(--c1);animation-name:c2g}@keyframes c2h{42.92%{fill:var(--c1)}42.94%,100%{fill:var(--ce)}}.c.c2h{fill:var(--c1);animation-name:c2h}@keyframes c2i{41.93%{fill:var(--c1)}41.95%,100%{fill:var(--ce)}}.c.c2i{fill:var(--c1);animation-name:c2i}@keyframes c2j{42.17%{fill:var(--c1)}42.19%,100%{fill:var(--ce)}}.c.c2j{fill:var(--c1);animation-name:c2j}@keyframes c2k{42.67%{fill:var(--c1)}42.69%,100%{fill:var(--ce)}}.c.c2k{fill:var(--c1);animation-name:c2k}@keyframes c2l{68.97%{fill:var(--c2)}68.99%,100%{fill:var(--ce)}}.c.c2l{fill:var(--c2);animation-name:c2l}@keyframes c2m{84.85%{fill:var(--c4)}84.87%,100%{fill:var(--ce)}}.c.c2m{fill:var(--c4);animation-name:c2m}@keyframes c2n{85.1%{fill:var(--c4)}85.12%,100%{fill:var(--ce)}}.c.c2n{fill:var(--c4);animation-name:c2n}@keyframes c2o{85.35%{fill:var(--c4)}85.37%,100%{fill:var(--ce)}}.c.c2o{fill:var(--c4);animation-name:c2o}@keyframes c2p{85.6%{fill:var(--c4)}85.62%,100%{fill:var(--ce)}}.c.c2p{fill:var(--c4);animation-name:c2p}@keyframes c2q{70.96%{fill:var(--c3)}70.98%,100%{fill:var(--ce)}}.c.c2q{fill:var(--c3);animation-name:c2q}@keyframes c2r{69.22%{fill:var(--c2)}69.24%,100%{fill:var(--ce)}}.c.c2r{fill:var(--c2);animation-name:c2r}.u{transform-origin:0 0;transform:scale(0,1);animation:none linear 40300ms infinite}@keyframes u0{0.49%{transform:scale(0.000,1)}0.51%,1.73%{transform:scale(0.012,1)}1.75%,2.22%{transform:scale(0.024,1)}2.24%,2.97%{transform:scale(0.036,1)}2.99%,3.22%{transform:scale(0.048,1)}3.24%,4.7%{transform:scale(0.060,1)}4.72%,4.95%{transform:scale(0.072,1)}4.97%,5.45%{transform:scale(0.084,1)}5.47%,5.7%{transform:scale(0.096,1)}5.72%,5.95%{transform:scale(0.108,1)}5.97%,6.19%{transform:scale(0.120,1)}6.21%,6.69%{transform:scale(0.133,1)}6.71%,6.94%{transform:scale(0.145,1)}6.96%,7.19%{transform:scale(0.157,1)}7.21%,7.93%{transform:scale(0.169,1)}7.95%,8.43%{transform:scale(0.181,1)}8.45%,8.67%{transform:scale(0.193,1)}8.69%,9.17%{transform:scale(0.205,1)}9.19%,9.67%{transform:scale(0.217,1)}9.69%,9.92%{transform:scale(0.229,1)}9.94%,10.16%{transform:scale(0.241,1)}10.18%,10.41%{transform:scale(0.253,1)}10.43%,10.66%{transform:scale(0.265,1)}10.68%,10.91%{transform:scale(0.277,1)}10.93%,11.65%{transform:scale(0.289,1)}11.67%,11.9%{transform:scale(0.301,1)}11.92%,12.4%{transform:scale(0.313,1)}12.42%,14.13%{transform:scale(0.325,1)}14.15%,14.38%{transform:scale(0.337,1)}14.4%,14.63%{transform:scale(0.349,1)}14.65%,14.88%{transform:scale(0.361,1)}14.9%,15.37%{transform:scale(0.373,1)}15.39%,15.62%{transform:scale(0.386,1)}15.64%,16.12%{transform:scale(0.398,1)}16.14%,16.37%{transform:scale(0.410,1)}16.39%,16.86%{transform:scale(0.422,1)}16.88%,17.11%{transform:scale(0.434,1)}17.13%,18.35%{transform:scale(0.446,1)}18.37%,18.6%{transform:scale(0.458,1)}18.62%,18.85%{transform:scale(0.470,1)}18.87%,19.34%{transform:scale(0.482,1)}19.36%,21.83%{transform:scale(0.494,1)}21.85%,22.07%{transform:scale(0.506,1)}22.09%,22.32%{transform:scale(0.518,1)}22.34%,22.57%{transform:scale(0.530,1)}22.59%,22.82%{transform:scale(0.542,1)}22.84%,24.06%{transform:scale(0.554,1)}24.08%,25.3%{transform:scale(0.566,1)}25.32%,25.55%{transform:scale(0.578,1)}25.57%,25.8%{transform:scale(0.590,1)}25.82%,26.04%{transform:scale(0.602,1)}26.06%,26.29%{transform:scale(0.614,1)}26.31%,26.54%{transform:scale(0.627,1)}26.56%,28.03%{transform:scale(0.639,1)}28.05%,28.28%{transform:scale(0.651,1)}28.3%,28.53%{transform:scale(0.663,1)}28.55%,28.77%{transform:scale(0.675,1)}28.79%,29.27%{transform:scale(0.687,1)}29.29%,30.51%{transform:scale(0.699,1)}30.53%,30.76%{transform:scale(0.711,1)}30.78%,31.01%{transform:scale(0.723,1)}31.03%,31.26%{transform:scale(0.735,1)}31.28%,32%{transform:scale(0.747,1)}32.02%,33.49%{transform:scale(0.759,1)}33.51%,33.74%{transform:scale(0.771,1)}33.76%,34.98%{transform:scale(0.783,1)}35%,35.47%{transform:scale(0.795,1)}35.49%,35.97%{transform:scale(0.807,1)}35.99%,36.71%{transform:scale(0.819,1)}36.73%,38.95%{transform:scale(0.831,1)}38.97%,39.44%{transform:scale(0.843,1)}39.46%,39.69%{transform:scale(0.855,1)}39.71%,40.19%{transform:scale(0.867,1)}40.21%,41.93%{transform:scale(0.880,1)}41.95%,42.17%{transform:scale(0.892,1)}42.19%,42.67%{transform:scale(0.904,1)}42.69%,42.92%{transform:scale(0.916,1)}42.94%,44.9%{transform:scale(0.928,1)}44.92%,45.9%{transform:scale(0.940,1)}45.92%,46.14%{transform:scale(0.952,1)}46.16%,46.64%{transform:scale(0.964,1)}46.66%,47.14%{transform:scale(0.976,1)}47.16%,47.63%{transform:scale(0.988,1)}47.65%,100%{transform:scale(1.000,1)}}.u.u0{fill:var(--c1);animation-name:u0;transform-origin:0.0px 0}@keyframes u1{50.11%{transform:scale(0.000,1)}50.13%,51.35%{transform:scale(0.143,1)}51.37%,53.09%{transform:scale(0.286,1)}53.11%,55.32%{transform:scale(0.429,1)}55.34%,57.81%{transform:scale(0.571,1)}57.83%,68.97%{transform:scale(0.714,1)}68.99%,69.22%{transform:scale(0.857,1)}69.24%,100%{transform:scale(1.000,1)}}.u.u1{fill:var(--c2);animation-name:u1;transform-origin:703.8px 0}@keyframes u2{70.96%{transform:scale(0.000,1)}70.98%,74.68%{transform:scale(0.200,1)}74.7%,74.93%{transform:scale(0.400,1)}74.95%,78.15%{transform:scale(0.600,1)}78.17%,78.65%{transform:scale(0.800,1)}78.67%,100%{transform:scale(1.000,1)}}.u.u2{fill:var(--c3);animation-name:u2;transform-origin:763.2px 0}@keyframes u3{80.14%{transform:scale(0.000,1)}80.16%,84.85%{transform:scale(0.200,1)}84.87%,85.1%{transform:scale(0.400,1)}85.12%,85.35%{transform:scale(0.600,1)}85.37%,85.6%{transform:scale(0.800,1)}85.62%,100%{transform:scale(1.000,1)}}.u.u3{fill:var(--c4);animation-name:u3;transform-origin:805.6px 0}.s{shape-rendering:geometricPrecision;fill:var(--cs);animation:none linear 40300ms infinite}@keyframes s0{0%,99.75%{transform:translate(0px,-16px)}0.5%{transform:translate(0px,16px)}1.49%{transform:translate(64px,16px)}1.74%{transform:translate(64px,32px)}1.99%{transform:translate(48px,32px)}2.98%{transform:translate(48px,96px)}3.23%{transform:translate(32px,96px)}3.47%{transform:translate(32px,80px)}4.71%{transform:translate(112px,80px)}4.96%{transform:translate(112px,64px)}5.46%{transform:translate(144px,64px)}5.96%{transform:translate(144px,32px)}6.7%{transform:translate(192px,32px)}7.2%{transform:translate(192px,0px)}7.69%{transform:translate(224px,0px)}7.94%{transform:translate(224px,16px)}8.44%{transform:translate(256px,16px)}8.68%,13.65%{transform:translate(256px,0px)}9.18%{transform:translate(288px,0px)}10.17%{transform:translate(288px,64px)}10.67%{transform:translate(320px,64px)}11.41%{transform:translate(320px,16px)}11.91%{transform:translate(352px,16px)}12.16%{transform:translate(352px,0px)}14.39%{transform:translate(256px,48px)}15.38%{transform:translate(192px,48px)}15.63%{transform:translate(192px,64px)}15.88%{transform:translate(176px,64px)}16.38%{transform:translate(176px,96px)}16.87%{transform:translate(144px,96px)}18.36%{transform:translate(144px,0px)}18.86%{transform:translate(112px,0px)}19.11%{transform:translate(112px,16px)}21.09%{transform:translate(240px,16px)}21.84%{transform:translate(240px,64px)}22.08%{transform:translate(256px,64px)}22.58%{transform:translate(256px,96px)}22.83%{transform:translate(240px,96px)}23.08%{transform:translate(240px,112px)}23.82%{transform:translate(288px,112px)}24.07%{transform:translate(288px,96px)}25.81%{transform:translate(400px,96px)}26.05%{transform:translate(400px,80px)}26.55%{transform:translate(368px,80px)}26.8%{transform:translate(368px,64px)}28.29%{transform:translate(464px,64px)}28.54%,77.67%{transform:translate(464px,48px)}28.78%{transform:translate(448px,48px)}29.28%{transform:translate(448px,80px)}29.53%{transform:translate(432px,80px)}30.52%,32.51%{transform:translate(432px,16px)}30.77%{transform:translate(448px,16px)}31.02%,50.87%{transform:translate(448px,0px)}31.51%{transform:translate(416px,0px)}32.01%{transform:translate(416px,32px)}32.26%{transform:translate(432px,32px)}34.24%{transform:translate(544px,16px)}34.99%{transform:translate(544px,64px)}35.24%{transform:translate(528px,64px)}35.48%{transform:translate(528px,80px)}35.98%{transform:translate(496px,80px)}36.97%{transform:translate(496px,16px)}39.95%{transform:translate(688px,16px)}40.2%{transform:translate(688px,0px)}41.69%{transform:translate(784px,0px)}42.68%{transform:translate(784px,64px)}44.42%{transform:translate(672px,64px)}44.91%{transform:translate(672px,96px)}45.91%{transform:translate(608px,96px)}46.15%{transform:translate(608px,80px)}46.4%{transform:translate(624px,80px)}46.65%{transform:translate(624px,64px)}47.39%{transform:translate(576px,64px)}47.64%{transform:translate(576px,80px)}47.89%{transform:translate(560px,80px)}49.13%{transform:translate(560px,0px)}51.36%{transform:translate(448px,32px)}54.59%{transform:translate(240px,32px)}55.33%{transform:translate(240px,80px)}55.58%{transform:translate(224px,80px)}56.33%{transform:translate(224px,32px)}57.82%{transform:translate(128px,32px)}58.06%{transform:translate(128px,16px)}68.73%{transform:translate(816px,16px)}68.98%{transform:translate(816px,0px)}69.23%{transform:translate(832px,0px)}70.72%{transform:translate(832px,96px)}71.22%{transform:translate(800px,96px)}71.96%{transform:translate(800px,48px)}74.69%{transform:translate(624px,48px)}74.94%{transform:translate(624px,32px)}76.43%{transform:translate(528px,32px)}76.67%{transform:translate(528px,48px)}78.16%{transform:translate(464px,80px)}78.41%{transform:translate(480px,80px)}78.66%{transform:translate(480px,96px)}79.16%{transform:translate(512px,96px)}80.15%{transform:translate(512px,32px)}84.86%{transform:translate(816px,32px)}85.61%{transform:translate(816px,80px)}97.02%{transform:translate(80px,80px)}97.52%{transform:translate(80px,48px)}98.01%{transform:translate(48px,48px)}99.01%{transform:translate(48px,-16px)}}.s.s0{transform:translate(0px,-16px);animation-name:s0}@keyframes s1{0%,99.75%{transform:translate(16px,-16px)}0.25%{transform:translate(0px,-16px)}0.74%{transform:translate(0px,16px)}1.74%{transform:translate(64px,16px)}1.99%{transform:translate(64px,32px)}2.23%{transform:translate(48px,32px)}3.23%{transform:translate(48px,96px)}3.47%{transform:translate(32px,96px)}3.72%{transform:translate(32px,80px)}4.96%{transform:translate(112px,80px)}5.21%{transform:translate(112px,64px)}5.71%{transform:translate(144px,64px)}6.2%{transform:translate(144px,32px)}6.95%{transform:translate(192px,32px)}7.44%{transform:translate(192px,0px)}7.94%{transform:translate(224px,0px)}8.19%{transform:translate(224px,16px)}8.68%{transform:translate(256px,16px)}8.93%,13.9%{transform:translate(256px,0px)}9.43%{transform:translate(288px,0px)}10.42%{transform:translate(288px,64px)}10.92%{transform:translate(320px,64px)}11.66%{transform:translate(320px,16px)}12.16%{transform:translate(352px,16px)}12.41%{transform:translate(352px,0px)}14.64%{transform:translate(256px,48px)}15.63%{transform:translate(192px,48px)}15.88%{transform:translate(192px,64px)}16.13%{transform:translate(176px,64px)}16.63%{transform:translate(176px,96px)}17.12%{transform:translate(144px,96px)}18.61%{transform:translate(144px,0px)}19.11%{transform:translate(112px,0px)}19.35%{transform:translate(112px,16px)}21.34%{transform:translate(240px,16px)}22.08%{transform:translate(240px,64px)}22.33%{transform:translate(256px,64px)}22.83%{transform:translate(256px,96px)}23.08%{transform:translate(240px,96px)}23.33%{transform:translate(240px,112px)}24.07%{transform:translate(288px,112px)}24.32%{transform:translate(288px,96px)}26.05%{transform:translate(400px,96px)}26.3%{transform:translate(400px,80px)}26.8%{transform:translate(368px,80px)}27.05%{transform:translate(368px,64px)}28.54%{transform:translate(464px,64px)}28.78%,77.92%{transform:translate(464px,48px)}29.03%{transform:translate(448px,48px)}29.53%{transform:translate(448px,80px)}29.78%{transform:translate(432px,80px)}30.77%,32.75%{transform:translate(432px,16px)}31.02%{transform:translate(448px,16px)}31.27%,51.12%{transform:translate(448px,0px)}31.76%{transform:translate(416px,0px)}32.26%{transform:translate(416px,32px)}32.51%{transform:translate(432px,32px)}34.49%{transform:translate(544px,16px)}35.24%{transform:translate(544px,64px)}35.48%{transform:translate(528px,64px)}35.73%{transform:translate(528px,80px)}36.23%{transform:translate(496px,80px)}37.22%{transform:translate(496px,16px)}40.2%{transform:translate(688px,16px)}40.45%{transform:translate(688px,0px)}41.94%{transform:translate(784px,0px)}42.93%{transform:translate(784px,64px)}44.67%{transform:translate(672px,64px)}45.16%{transform:translate(672px,96px)}46.15%{transform:translate(608px,96px)}46.4%{transform:translate(608px,80px)}46.65%{transform:translate(624px,80px)}46.9%{transform:translate(624px,64px)}47.64%{transform:translate(576px,64px)}47.89%{transform:translate(576px,80px)}48.14%{transform:translate(560px,80px)}49.38%{transform:translate(560px,0px)}51.61%{transform:translate(448px,32px)}54.84%{transform:translate(240px,32px)}55.58%{transform:translate(240px,80px)}55.83%{transform:translate(224px,80px)}56.58%{transform:translate(224px,32px)}58.06%{transform:translate(128px,32px)}58.31%{transform:translate(128px,16px)}68.98%{transform:translate(816px,16px)}69.23%{transform:translate(816px,0px)}69.48%{transform:translate(832px,0px)}70.97%{transform:translate(832px,96px)}71.46%{transform:translate(800px,96px)}72.21%{transform:translate(800px,48px)}74.94%{transform:translate(624px,48px)}75.19%{transform:translate(624px,32px)}76.67%{transform:translate(528px,32px)}76.92%{transform:translate(528px,48px)}78.41%{transform:translate(464px,80px)}78.66%{transform:translate(480px,80px)}78.91%{transform:translate(480px,96px)}79.4%{transform:translate(512px,96px)}80.4%{transform:translate(512px,32px)}85.11%{transform:translate(816px,32px)}85.86%{transform:translate(816px,80px)}97.27%{transform:translate(80px,80px)}97.77%{transform:translate(80px,48px)}98.26%{transform:translate(48px,48px)}99.26%{transform:translate(48px,-16px)}}.s.s1{transform:translate(16px,-16px);animation-name:s1}@keyframes s2{0%,99.75%{transform:translate(32px,-16px)}0.5%{transform:translate(0px,-16px)}0.99%{transform:translate(0px,16px)}1.99%{transform:translate(64px,16px)}2.23%{transform:translate(64px,32px)}2.48%{transform:translate(48px,32px)}3.47%{transform:translate(48px,96px)}3.72%{transform:translate(32px,96px)}3.97%{transform:translate(32px,80px)}5.21%{transform:translate(112px,80px)}5.46%{transform:translate(112px,64px)}5.96%{transform:translate(144px,64px)}6.45%{transform:translate(144px,32px)}7.2%{transform:translate(192px,32px)}7.69%{transform:translate(192px,0px)}8.19%{transform:translate(224px,0px)}8.44%{transform:translate(224px,16px)}8.93%{transform:translate(256px,16px)}9.18%,14.14%{transform:translate(256px,0px)}9.68%{transform:translate(288px,0px)}10.67%{transform:translate(288px,64px)}11.17%{transform:translate(320px,64px)}11.91%{transform:translate(320px,16px)}12.41%{transform:translate(352px,16px)}12.66%{transform:translate(352px,0px)}14.89%{transform:translate(256px,48px)}15.88%{transform:translate(192px,48px)}16.13%{transform:translate(192px,64px)}16.38%{transform:translate(176px,64px)}16.87%{transform:translate(176px,96px)}17.37%{transform:translate(144px,96px)}18.86%{transform:translate(144px,0px)}19.35%{transform:translate(112px,0px)}19.6%{transform:translate(112px,16px)}21.59%{transform:translate(240px,16px)}22.33%{transform:translate(240px,64px)}22.58%{transform:translate(256px,64px)}23.08%{transform:translate(256px,96px)}23.33%{transform:translate(240px,96px)}23.57%{transform:translate(240px,112px)}24.32%{transform:translate(288px,112px)}24.57%{transform:translate(288px,96px)}26.3%{transform:translate(400px,96px)}26.55%{transform:translate(400px,80px)}27.05%{transform:translate(368px,80px)}27.3%{transform:translate(368px,64px)}28.78%{transform:translate(464px,64px)}29.03%,78.16%{transform:translate(464px,48px)}29.28%{transform:translate(448px,48px)}29.78%{transform:translate(448px,80px)}30.02%{transform:translate(432px,80px)}31.02%,33%{transform:translate(432px,16px)}31.27%{transform:translate(448px,16px)}31.51%,51.36%{transform:translate(448px,0px)}32.01%{transform:translate(416px,0px)}32.51%{transform:translate(416px,32px)}32.75%{transform:translate(432px,32px)}34.74%{transform:translate(544px,16px)}35.48%{transform:translate(544px,64px)}35.73%{transform:translate(528px,64px)}35.98%{transform:translate(528px,80px)}36.48%{transform:translate(496px,80px)}37.47%{transform:translate(496px,16px)}40.45%{transform:translate(688px,16px)}40.69%{transform:translate(688px,0px)}42.18%{transform:translate(784px,0px)}43.18%{transform:translate(784px,64px)}44.91%{transform:translate(672px,64px)}45.41%{transform:translate(672px,96px)}46.4%{transform:translate(608px,96px)}46.65%{transform:translate(608px,80px)}46.9%{transform:translate(624px,80px)}47.15%{transform:translate(624px,64px)}47.89%{transform:translate(576px,64px)}48.14%{transform:translate(576px,80px)}48.39%{transform:translate(560px,80px)}49.63%{transform:translate(560px,0px)}51.86%{transform:translate(448px,32px)}55.09%{transform:translate(240px,32px)}55.83%{transform:translate(240px,80px)}56.08%{transform:translate(224px,80px)}56.82%{transform:translate(224px,32px)}58.31%{transform:translate(128px,32px)}58.56%{transform:translate(128px,16px)}69.23%{transform:translate(816px,16px)}69.48%{transform:translate(816px,0px)}69.73%{transform:translate(832px,0px)}71.22%{transform:translate(832px,96px)}71.71%{transform:translate(800px,96px)}72.46%{transform:translate(800px,48px)}75.19%{transform:translate(624px,48px)}75.43%{transform:translate(624px,32px)}76.92%{transform:translate(528px,32px)}77.17%{transform:translate(528px,48px)}78.66%{transform:translate(464px,80px)}78.91%{transform:translate(480px,80px)}79.16%{transform:translate(480px,96px)}79.65%{transform:translate(512px,96px)}80.65%{transform:translate(512px,32px)}85.36%{transform:translate(816px,32px)}86.1%{transform:translate(816px,80px)}97.52%{transform:translate(80px,80px)}98.01%{transform:translate(80px,48px)}98.51%{transform:translate(48px,48px)}99.5%{transform:translate(48px,-16px)}}.s.s2{transform:translate(32px,-16px);animation-name:s2}@keyframes s3{0%,99.75%{transform:translate(48px,-16px)}0.74%{transform:translate(0px,-16px)}1.24%{transform:translate(0px,16px)}2.23%{transform:translate(64px,16px)}2.48%{transform:translate(64px,32px)}2.73%{transform:translate(48px,32px)}3.72%{transform:translate(48px,96px)}3.97%{transform:translate(32px,96px)}4.22%{transform:translate(32px,80px)}5.46%{transform:translate(112px,80px)}5.71%{transform:translate(112px,64px)}6.2%{transform:translate(144px,64px)}6.7%{transform:translate(144px,32px)}7.44%{transform:translate(192px,32px)}7.94%{transform:translate(192px,0px)}8.44%{transform:translate(224px,0px)}8.68%{transform:translate(224px,16px)}9.18%{transform:translate(256px,16px)}9.43%,14.39%{transform:translate(256px,0px)}9.93%{transform:translate(288px,0px)}10.92%{transform:translate(288px,64px)}11.41%{transform:translate(320px,64px)}12.16%{transform:translate(320px,16px)}12.66%{transform:translate(352px,16px)}12.9%{transform:translate(352px,0px)}15.14%{transform:translate(256px,48px)}16.13%{transform:translate(192px,48px)}16.38%{transform:translate(192px,64px)}16.63%{transform:translate(176px,64px)}17.12%{transform:translate(176px,96px)}17.62%{transform:translate(144px,96px)}19.11%{transform:translate(144px,0px)}19.6%{transform:translate(112px,0px)}19.85%{transform:translate(112px,16px)}21.84%{transform:translate(240px,16px)}22.58%{transform:translate(240px,64px)}22.83%{transform:translate(256px,64px)}23.33%{transform:translate(256px,96px)}23.57%{transform:translate(240px,96px)}23.82%{transform:translate(240px,112px)}24.57%{transform:translate(288px,112px)}24.81%{transform:translate(288px,96px)}26.55%{transform:translate(400px,96px)}26.8%{transform:translate(400px,80px)}27.3%{transform:translate(368px,80px)}27.54%{transform:translate(368px,64px)}29.03%{transform:translate(464px,64px)}29.28%,78.41%{transform:translate(464px,48px)}29.53%{transform:translate(448px,48px)}30.02%{transform:translate(448px,80px)}30.27%{transform:translate(432px,80px)}31.27%,33.25%{transform:translate(432px,16px)}31.51%{transform:translate(448px,16px)}31.76%,51.61%{transform:translate(448px,0px)}32.26%{transform:translate(416px,0px)}32.75%{transform:translate(416px,32px)}33%{transform:translate(432px,32px)}34.99%{transform:translate(544px,16px)}35.73%{transform:translate(544px,64px)}35.98%{transform:translate(528px,64px)}36.23%{transform:translate(528px,80px)}36.72%{transform:translate(496px,80px)}37.72%{transform:translate(496px,16px)}40.69%{transform:translate(688px,16px)}40.94%{transform:translate(688px,0px)}42.43%{transform:translate(784px,0px)}43.42%{transform:translate(784px,64px)}45.16%{transform:translate(672px,64px)}45.66%{transform:translate(672px,96px)}46.65%{transform:translate(608px,96px)}46.9%{transform:translate(608px,80px)}47.15%{transform:translate(624px,80px)}47.39%{transform:translate(624px,64px)}48.14%{transform:translate(576px,64px)}48.39%{transform:translate(576px,80px)}48.64%{transform:translate(560px,80px)}49.88%{transform:translate(560px,0px)}52.11%{transform:translate(448px,32px)}55.33%{transform:translate(240px,32px)}56.08%{transform:translate(240px,80px)}56.33%{transform:translate(224px,80px)}57.07%{transform:translate(224px,32px)}58.56%{transform:translate(128px,32px)}58.81%{transform:translate(128px,16px)}69.48%{transform:translate(816px,16px)}69.73%{transform:translate(816px,0px)}69.98%{transform:translate(832px,0px)}71.46%{transform:translate(832px,96px)}71.96%{transform:translate(800px,96px)}72.7%{transform:translate(800px,48px)}75.43%{transform:translate(624px,48px)}75.68%{transform:translate(624px,32px)}77.17%{transform:translate(528px,32px)}77.42%{transform:translate(528px,48px)}78.91%{transform:translate(464px,80px)}79.16%{transform:translate(480px,80px)}79.4%{transform:translate(480px,96px)}79.9%{transform:translate(512px,96px)}80.89%{transform:translate(512px,32px)}85.61%{transform:translate(816px,32px)}86.35%{transform:translate(816px,80px)}97.77%{transform:translate(80px,80px)}98.26%{transform:translate(80px,48px)}98.76%{transform:translate(48px,48px)}}.s.s3{transform:translate(48px,-16px);animation-name:s3}</style><rect class="c" x="2" y="2" rx="2" ry="2"/><rect class="c c0" x="2" y="18" rx="2" ry="2"/><rect class="c" x="2" y="34" rx="2" ry="2"/><rect class="c" x="2" y="50" rx="2" ry="2"/><rect class="c" x="2" y="66" rx="2" ry="2"/><rect class="c" x="2" y="82" rx="2" ry="2"/><rect class="c" x="2" y="98" rx="2" ry="2"/><rect class="c" x="18" y="2" rx="2" ry="2"/><rect class="c" x="18" y="18" rx="2" ry="2"/><rect class="c" x="18" y="34" rx="2" ry="2"/><rect class="c" x="18" y="50" rx="2" ry="2"/><rect class="c" x="18" y="66" rx="2" ry="2"/><rect class="c" x="18" y="82" rx="2" ry="2"/><rect class="c" x="18" y="98" rx="2" ry="2"/><rect class="c" x="34" y="2" rx="2" ry="2"/><rect class="c" x="34" y="18" rx="2" ry="2"/><rect class="c" x="34" y="34" rx="2" ry="2"/><rect class="c" x="34" y="50" rx="2" ry="2"/><rect class="c" x="34" y="66" rx="2" ry="2"/><rect class="c" x="34" y="82" rx="2" ry="2"/><rect class="c c1" x="34" y="98" rx="2" ry="2"/><rect class="c" x="50" y="2" rx="2" ry="2"/><rect class="c" x="50" y="18" rx="2" ry="2"/><rect class="c" x="50" y="34" rx="2" ry="2"/><rect class="c c2" x="50" y="50" rx="2" ry="2"/><rect class="c" x="50" y="66" rx="2" ry="2"/><rect class="c" x="50" y="82" rx="2" ry="2"/><rect class="c c3" x="50" y="98" rx="2" ry="2"/><rect class="c" x="66" y="2" rx="2" ry="2"/><rect class="c" x="66" y="18" rx="2" ry="2"/><rect class="c c4" x="66" y="34" rx="2" ry="2"/><rect class="c" x="66" y="50" rx="2" ry="2"/><rect class="c" x="66" y="66" rx="2" ry="2"/><rect class="c" x="66" y="82" rx="2" ry="2"/><rect class="c" x="66" y="98" rx="2" ry="2"/><rect class="c" x="82" y="2" rx="2" ry="2"/><rect class="c" x="82" y="18" rx="2" ry="2"/><rect class="c" x="82" y="34" rx="2" ry="2"/><rect class="c" x="82" y="50" rx="2" ry="2"/><rect class="c" x="82" y="66" rx="2" ry="2"/><rect class="c" x="82" y="82" rx="2" ry="2"/><rect class="c" x="82" y="98" rx="2" ry="2"/><rect class="c" x="98" y="2" rx="2" ry="2"/><rect class="c" x="98" y="18" rx="2" ry="2"/><rect class="c" x="98" y="34" rx="2" ry="2"/><rect class="c" x="98" y="50" rx="2" ry="2"/><rect class="c" x="98" y="66" rx="2" ry="2"/><rect class="c" x="98" y="82" rx="2" ry="2"/><rect class="c" x="98" y="98" rx="2" ry="2"/><rect class="c c5" x="114" y="2" rx="2" ry="2"/><rect class="c" x="114" y="18" rx="2" ry="2"/><rect class="c" x="114" y="34" rx="2" ry="2"/><rect class="c" x="114" y="50" rx="2" ry="2"/><rect class="c c6" x="114" y="66" rx="2" ry="2"/><rect class="c c7" x="114" y="82" rx="2" ry="2"/><rect class="c" x="114" y="98" rx="2" ry="2"/><rect class="c c8" x="130" y="2" rx="2" ry="2"/><rect class="c c9" x="130" y="18" rx="2" ry="2"/><rect class="c ca" x="130" y="34" rx="2" ry="2"/><rect class="c" x="130" y="50" rx="2" ry="2"/><rect class="c" x="130" y="66" rx="2" ry="2"/><rect class="c" x="130" y="82" rx="2" ry="2"/><rect class="c" x="130" y="98" rx="2" ry="2"/><rect class="c cb" x="146" y="2" rx="2" ry="2"/><rect class="c" x="146" y="18" rx="2" ry="2"/><rect class="c cc" x="146" y="34" rx="2" ry="2"/><rect class="c cd" x="146" y="50" rx="2" ry="2"/><rect class="c ce" x="146" y="66" rx="2" ry="2"/><rect class="c cf" x="146" y="82" rx="2" ry="2"/><rect class="c cg" x="146" y="98" rx="2" ry="2"/><rect class="c" x="162" y="2" rx="2" ry="2"/><rect class="c" x="162" y="18" rx="2" ry="2"/><rect class="c ch" x="162" y="34" rx="2" ry="2"/><rect class="c" x="162" y="50" rx="2" ry="2"/><rect class="c" x="162" y="66" rx="2" ry="2"/><rect class="c" x="162" y="82" rx="2" ry="2"/><rect class="c" x="162" y="98" rx="2" ry="2"/><rect class="c" x="178" y="2" rx="2" ry="2"/><rect class="c" x="178" y="18" rx="2" ry="2"/><rect class="c" x="178" y="34" rx="2" ry="2"/><rect class="c" x="178" y="50" rx="2" ry="2"/><rect class="c" x="178" y="66" rx="2" ry="2"/><rect class="c ci" x="178" y="82" rx="2" ry="2"/><rect class="c cj" x="178" y="98" rx="2" ry="2"/><rect class="c ck" x="194" y="2" rx="2" ry="2"/><rect class="c cl" x="194" y="18" rx="2" ry="2"/><rect class="c cm" x="194" y="34" rx="2" ry="2"/><rect class="c cn" x="194" y="50" rx="2" ry="2"/><rect class="c co" x="194" y="66" rx="2" ry="2"/><rect class="c" x="194" y="82" rx="2" ry="2"/><rect class="c" x="194" y="98" rx="2" ry="2"/><rect class="c" x="210" y="2" rx="2" ry="2"/><rect class="c" x="210" y="18" rx="2" ry="2"/><rect class="c" x="210" y="34" rx="2" ry="2"/><rect class="c" x="210" y="50" rx="2" ry="2"/><rect class="c" x="210" y="66" rx="2" ry="2"/><rect class="c" x="210" y="82" rx="2" ry="2"/><rect class="c" x="210" y="98" rx="2" ry="2"/><rect class="c" x="226" y="2" rx="2" ry="2"/><rect class="c cp" x="226" y="18" rx="2" ry="2"/><rect class="c" x="226" y="34" rx="2" ry="2"/><rect class="c cq" x="226" y="50" rx="2" ry="2"/><rect class="c" x="226" y="66" rx="2" ry="2"/><rect class="c" x="226" y="82" rx="2" ry="2"/><rect class="c" x="226" y="98" rx="2" ry="2"/><rect class="c" x="242" y="2" rx="2" ry="2"/><rect class="c" x="242" y="18" rx="2" ry="2"/><rect class="c" x="242" y="34" rx="2" ry="2"/><rect class="c cr" x="242" y="50" rx="2" ry="2"/><rect class="c cs" x="242" y="66" rx="2" ry="2"/><rect class="c ct" x="242" y="82" rx="2" ry="2"/><rect class="c cu" x="242" y="98" rx="2" ry="2"/><rect class="c cv" x="258" y="2" rx="2" ry="2"/><rect class="c cw" x="258" y="18" rx="2" ry="2"/><rect class="c cx" x="258" y="34" rx="2" ry="2"/><rect class="c cy" x="258" y="50" rx="2" ry="2"/><rect class="c cz" x="258" y="66" rx="2" ry="2"/><rect class="c c10" x="258" y="82" rx="2" ry="2"/><rect class="c c11" x="258" y="98" rx="2" ry="2"/><rect class="c" x="274" y="2" rx="2" ry="2"/><rect class="c" x="274" y="18" rx="2" ry="2"/><rect class="c" x="274" y="34" rx="2" ry="2"/><rect class="c" x="274" y="50" rx="2" ry="2"/><rect class="c" x="274" y="66" rx="2" ry="2"/><rect class="c" x="274" y="82" rx="2" ry="2"/><rect class="c" x="274" y="98" rx="2" ry="2"/><rect class="c c12" x="290" y="2" rx="2" ry="2"/><rect class="c" x="290" y="18" rx="2" ry="2"/><rect class="c c13" x="290" y="34" rx="2" ry="2"/><rect class="c c14" x="290" y="50" rx="2" ry="2"/><rect class="c c15" x="290" y="66" rx="2" ry="2"/><rect class="c" x="290" y="82" rx="2" ry="2"/><rect class="c c16" x="290" y="98" rx="2" ry="2"/><rect class="c" x="306" y="2" rx="2" ry="2"/><rect class="c" x="306" y="18" rx="2" ry="2"/><rect class="c" x="306" y="34" rx="2" ry="2"/><rect class="c" x="306" y="50" rx="2" ry="2"/><rect class="c c17" x="306" y="66" rx="2" ry="2"/><rect class="c" x="306" y="82" rx="2" ry="2"/><rect class="c" x="306" y="98" rx="2" ry="2"/><rect class="c" x="322" y="2" rx="2" ry="2"/><rect class="c" x="322" y="18" rx="2" ry="2"/><rect class="c" x="322" y="34" rx="2" ry="2"/><rect class="c c18" x="322" y="50" rx="2" ry="2"/><rect class="c c19" x="322" y="66" rx="2" ry="2"/><rect class="c" x="322" y="82" rx="2" ry="2"/><rect class="c" x="322" y="98" rx="2" ry="2"/><rect class="c c1a" x="338" y="2" rx="2" ry="2"/><rect class="c c1b" x="338" y="18" rx="2" ry="2"/><rect class="c c1c" x="338" y="34" rx="2" ry="2"/><rect class="c" x="338" y="50" rx="2" ry="2"/><rect class="c" x="338" y="66" rx="2" ry="2"/><rect class="c" x="338" y="82" rx="2" ry="2"/><rect class="c" x="338" y="98" rx="2" ry="2"/><rect class="c" x="354" y="2" rx="2" ry="2"/><rect class="c c1d" x="354" y="18" rx="2" ry="2"/><rect class="c" x="354" y="34" rx="2" ry="2"/><rect class="c" x="354" y="50" rx="2" ry="2"/><rect class="c" x="354" y="66" rx="2" ry="2"/><rect class="c" x="354" y="82" rx="2" ry="2"/><rect class="c" x="354" y="98" rx="2" ry="2"/><rect class="c" x="370" y="2" rx="2" ry="2"/><rect class="c" x="370" y="18" rx="2" ry="2"/><rect class="c" x="370" y="34" rx="2" ry="2"/><rect class="c" x="370" y="50" rx="2" ry="2"/><rect class="c" x="370" y="66" rx="2" ry="2"/><rect class="c c1e" x="370" y="82" rx="2" ry="2"/><rect class="c c1f" x="370" y="98" rx="2" ry="2"/><rect class="c" x="386" y="2" rx="2" ry="2"/><rect class="c" x="386" y="18" rx="2" ry="2"/><rect class="c" x="386" y="34" rx="2" ry="2"/><rect class="c" x="386" y="50" rx="2" ry="2"/><rect class="c" x="386" y="66" rx="2" ry="2"/><rect class="c c1g" x="386" y="82" rx="2" ry="2"/><rect class="c c1h" x="386" y="98" rx="2" ry="2"/><rect class="c" x="402" y="2" rx="2" ry="2"/><rect class="c" x="402" y="18" rx="2" ry="2"/><rect class="c" x="402" y="34" rx="2" ry="2"/><rect class="c" x="402" y="50" rx="2" ry="2"/><rect class="c" x="402" y="66" rx="2" ry="2"/><rect class="c c1i" x="402" y="82" rx="2" ry="2"/><rect class="c c1j" x="402" y="98" rx="2" ry="2"/><rect class="c" x="418" y="2" rx="2" ry="2"/><rect class="c" x="418" y="18" rx="2" ry="2"/><rect class="c c1k" x="418" y="34" rx="2" ry="2"/><rect class="c" x="418" y="50" rx="2" ry="2"/><rect class="c" x="418" y="66" rx="2" ry="2"/><rect class="c" x="418" y="82" rx="2" ry="2"/><rect class="c" x="418" y="98" rx="2" ry="2"/><rect class="c c1l" x="434" y="2" rx="2" ry="2"/><rect class="c c1m" x="434" y="18" rx="2" ry="2"/><rect class="c" x="434" y="34" rx="2" ry="2"/><rect class="c" x="434" y="50" rx="2" ry="2"/><rect class="c" x="434" y="66" rx="2" ry="2"/><rect class="c" x="434" y="82" rx="2" ry="2"/><rect class="c" x="434" y="98" rx="2" ry="2"/><rect class="c c1n" x="450" y="2" rx="2" ry="2"/><rect class="c c1o" x="450" y="18" rx="2" ry="2"/><rect class="c c1p" x="450" y="34" rx="2" ry="2"/><rect class="c c1q" x="450" y="50" rx="2" ry="2"/><rect class="c c1r" x="450" y="66" rx="2" ry="2"/><rect class="c c1s" x="450" y="82" rx="2" ry="2"/><rect class="c" x="450" y="98" rx="2" ry="2"/><rect class="c" x="466" y="2" rx="2" ry="2"/><rect class="c" x="466" y="18" rx="2" ry="2"/><rect class="c" x="466" y="34" rx="2" ry="2"/><rect class="c c1t" x="466" y="50" rx="2" ry="2"/><rect class="c c1u" x="466" y="66" rx="2" ry="2"/><rect class="c c1v" x="466" y="82" rx="2" ry="2"/><rect class="c" x="466" y="98" rx="2" ry="2"/><rect class="c" x="482" y="2" rx="2" ry="2"/><rect class="c" x="482" y="18" rx="2" ry="2"/><rect class="c" x="482" y="34" rx="2" ry="2"/><rect class="c" x="482" y="50" rx="2" ry="2"/><rect class="c" x="482" y="66" rx="2" ry="2"/><rect class="c" x="482" y="82" rx="2" ry="2"/><rect class="c c1w" x="482" y="98" rx="2" ry="2"/><rect class="c c1x" x="498" y="2" rx="2" ry="2"/><rect class="c c1y" x="498" y="18" rx="2" ry="2"/><rect class="c c1z" x="498" y="34" rx="2" ry="2"/><rect class="c" x="498" y="50" rx="2" ry="2"/><rect class="c" x="498" y="66" rx="2" ry="2"/><rect class="c c20" x="498" y="82" rx="2" ry="2"/><rect class="c" x="498" y="98" rx="2" ry="2"/><rect class="c" x="514" y="2" rx="2" ry="2"/><rect class="c c21" x="514" y="18" rx="2" ry="2"/><rect class="c c22" x="514" y="34" rx="2" ry="2"/><rect class="c" x="514" y="50" rx="2" ry="2"/><rect class="c" x="514" y="66" rx="2" ry="2"/><rect class="c" x="514" y="82" rx="2" ry="2"/><rect class="c" x="514" y="98" rx="2" ry="2"/><rect class="c" x="530" y="2" rx="2" ry="2"/><rect class="c" x="530" y="18" rx="2" ry="2"/><rect class="c" x="530" y="34" rx="2" ry="2"/><rect class="c" x="530" y="50" rx="2" ry="2"/><rect class="c" x="530" y="66" rx="2" ry="2"/><rect class="c c23" x="530" y="82" rx="2" ry="2"/><rect class="c" x="530" y="98" rx="2" ry="2"/><rect class="c" x="546" y="2" rx="2" ry="2"/><rect class="c" x="546" y="18" rx="2" ry="2"/><rect class="c" x="546" y="34" rx="2" ry="2"/><rect class="c" x="546" y="50" rx="2" ry="2"/><rect class="c c24" x="546" y="66" rx="2" ry="2"/><rect class="c" x="546" y="82" rx="2" ry="2"/><rect class="c" x="546" y="98" rx="2" ry="2"/><rect class="c" x="562" y="2" rx="2" ry="2"/><rect class="c" x="562" y="18" rx="2" ry="2"/><rect class="c" x="562" y="34" rx="2" ry="2"/><rect class="c" x="562" y="50" rx="2" ry="2"/><rect class="c" x="562" y="66" rx="2" ry="2"/><rect class="c" x="562" y="82" rx="2" ry="2"/><rect class="c" x="562" y="98" rx="2" ry="2"/><rect class="c" x="578" y="2" rx="2" ry="2"/><rect class="c" x="578" y="18" rx="2" ry="2"/><rect class="c" x="578" y="34" rx="2" ry="2"/><rect class="c" x="578" y="50" rx="2" ry="2"/><rect class="c" x="578" y="66" rx="2" ry="2"/><rect class="c c25" x="578" y="82" rx="2" ry="2"/><rect class="c" x="578" y="98" rx="2" ry="2"/><rect class="c" x="594" y="2" rx="2" ry="2"/><rect class="c" x="594" y="18" rx="2" ry="2"/><rect class="c" x="594" y="34" rx="2" ry="2"/><rect class="c" x="594" y="50" rx="2" ry="2"/><rect class="c c26" x="594" y="66" rx="2" ry="2"/><rect class="c" x="594" y="82" rx="2" ry="2"/><rect class="c" x="594" y="98" rx="2" ry="2"/><rect class="c" x="610" y="2" rx="2" ry="2"/><rect class="c" x="610" y="18" rx="2" ry="2"/><rect class="c" x="610" y="34" rx="2" ry="2"/><rect class="c" x="610" y="50" rx="2" ry="2"/><rect class="c" x="610" y="66" rx="2" ry="2"/><rect class="c c27" x="610" y="82" rx="2" ry="2"/><rect class="c c28" x="610" y="98" rx="2" ry="2"/><rect class="c" x="626" y="2" rx="2" ry="2"/><rect class="c c29" x="626" y="18" rx="2" ry="2"/><rect class="c c2a" x="626" y="34" rx="2" ry="2"/><rect class="c c2b" x="626" y="50" rx="2" ry="2"/><rect class="c c2c" x="626" y="66" rx="2" ry="2"/><rect class="c" x="626" y="82" rx="2" ry="2"/><rect class="c" x="626" y="98" rx="2" ry="2"/><rect class="c" x="642" y="2" rx="2" ry="2"/><rect class="c" x="642" y="18" rx="2" ry="2"/><rect class="c" x="642" y="34" rx="2" ry="2"/><rect class="c" x="642" y="50" rx="2" ry="2"/><rect class="c" x="642" y="66" rx="2" ry="2"/><rect class="c" x="642" y="82" rx="2" ry="2"/><rect class="c" x="642" y="98" rx="2" ry="2"/><rect class="c" x="658" y="2" rx="2" ry="2"/><rect class="c c2d" x="658" y="18" rx="2" ry="2"/><rect class="c" x="658" y="34" rx="2" ry="2"/><rect class="c" x="658" y="50" rx="2" ry="2"/><rect class="c" x="658" y="66" rx="2" ry="2"/><rect class="c" x="658" y="82" rx="2" ry="2"/><rect class="c" x="658" y="98" rx="2" ry="2"/><rect class="c" x="674" y="2" rx="2" ry="2"/><rect class="c c2e" x="674" y="18" rx="2" ry="2"/><rect class="c" x="674" y="34" rx="2" ry="2"/><rect class="c" x="674" y="50" rx="2" ry="2"/><rect class="c" x="674" y="66" rx="2" ry="2"/><rect class="c" x="674" y="82" rx="2" ry="2"/><rect class="c c2f" x="674" y="98" rx="2" ry="2"/><rect class="c c2g" x="690" y="2" rx="2" ry="2"/><rect class="c" x="690" y="18" rx="2" ry="2"/><rect class="c" x="690" y="34" rx="2" ry="2"/><rect class="c" x="690" y="50" rx="2" ry="2"/><rect class="c" x="690" y="66" rx="2" ry="2"/><rect class="c" x="690" y="82" rx="2" ry="2"/><rect class="c" x="690" y="98" rx="2" ry="2"/><rect class="c" x="706" y="2" rx="2" ry="2"/><rect class="c" x="706" y="18" rx="2" ry="2"/><rect class="c" x="706" y="34" rx="2" ry="2"/><rect class="c" x="706" y="50" rx="2" ry="2"/><rect class="c" x="706" y="66" rx="2" ry="2"/><rect class="c" x="706" y="82" rx="2" ry="2"/><rect class="c" x="706" y="98" rx="2" ry="2"/><rect class="c" x="722" y="2" rx="2" ry="2"/><rect class="c" x="722" y="18" rx="2" ry="2"/><rect class="c" x="722" y="34" rx="2" ry="2"/><rect class="c" x="722" y="50" rx="2" ry="2"/><rect class="c" x="722" y="66" rx="2" ry="2"/><rect class="c" x="722" y="82" rx="2" ry="2"/><rect class="c" x="722" y="98" rx="2" ry="2"/><rect class="c" x="738" y="2" rx="2" ry="2"/><rect class="c" x="738" y="18" rx="2" ry="2"/><rect class="c" x="738" y="34" rx="2" ry="2"/><rect class="c" x="738" y="50" rx="2" ry="2"/><rect class="c" x="738" y="66" rx="2" ry="2"/><rect class="c" x="738" y="82" rx="2" ry="2"/><rect class="c" x="738" y="98" rx="2" ry="2"/><rect class="c" x="754" y="2" rx="2" ry="2"/><rect class="c" x="754" y="18" rx="2" ry="2"/><rect class="c" x="754" y="34" rx="2" ry="2"/><rect class="c" x="754" y="50" rx="2" ry="2"/><rect class="c" x="754" y="66" rx="2" ry="2"/><rect class="c" x="754" y="82" rx="2" ry="2"/><rect class="c" x="754" y="98" rx="2" ry="2"/><rect class="c" x="770" y="2" rx="2" ry="2"/><rect class="c" x="770" y="18" rx="2" ry="2"/><rect class="c" x="770" y="34" rx="2" ry="2"/><rect class="c" x="770" y="50" rx="2" ry="2"/><rect class="c c2h" x="770" y="66" rx="2" ry="2"/><rect class="c" x="770" y="82" rx="2" ry="2"/><rect class="c" x="770" y="98" rx="2" ry="2"/><rect class="c" x="786" y="2" rx="2" ry="2"/><rect class="c c2i" x="786" y="18" rx="2" ry="2"/><rect class="c c2j" x="786" y="34" rx="2" ry="2"/><rect class="c" x="786" y="50" rx="2" ry="2"/><rect class="c c2k" x="786" y="66" rx="2" ry="2"/><rect class="c" x="786" y="82" rx="2" ry="2"/><rect class="c" x="786" y="98" rx="2" ry="2"/><rect class="c" x="802" y="2" rx="2" ry="2"/><rect class="c" x="802" y="18" rx="2" ry="2"/><rect class="c" x="802" y="34" rx="2" ry="2"/><rect class="c" x="802" y="50" rx="2" ry="2"/><rect class="c" x="802" y="66" rx="2" ry="2"/><rect class="c" x="802" y="82" rx="2" ry="2"/><rect class="c" x="802" y="98" rx="2" ry="2"/><rect class="c c2l" x="818" y="2" rx="2" ry="2"/><rect class="c" x="818" y="18" rx="2" ry="2"/><rect class="c c2m" x="818" y="34" rx="2" ry="2"/><rect class="c c2n" x="818" y="50" rx="2" ry="2"/><rect class="c c2o" x="818" y="66" rx="2" ry="2"/><rect class="c c2p" x="818" y="82" rx="2" ry="2"/><rect class="c c2q" x="818" y="98" rx="2" ry="2"/><rect class="c c2r" x="834" y="2" rx="2" ry="2"/><rect class="u u0" height="12" width="704.4" x="0.0" y="144"/><rect class="u u1" height="12" width="60.0" x="703.8" y="144"/><rect class="u u2" height="12" width="43.0" x="763.2" y="144"/><rect class="u u3" height="12" width="43.0" x="805.6" y="144"/><rect class="s s0" x="0.8" y="0.8" width="14.4" height="14.4" rx="4.5" ry="4.5"/><rect class="s s1" x="1.8" y="1.8" width="12.3" height="12.3" rx="4.1" ry="4.1"/><rect class="s s2" x="2.6" y="2.6" width="10.8" height="10.8" rx="3.6" ry="3.6"/><rect class="s s3" x="3.0" y="3.0" width="9.9" height="9.9" rx="3.3" ry="3.3"/></svg>