<svg viewBox="-16 -32 880 192" width="880" height="192" xmlns="http://www.w3.org/2000/svg"><desc>Generated with https://github.com/Platane/snk</desc><style>:root{--cb:#1b1f230a;--cs:purple;--ce:#ebedf0;--c0:#ebedf0;--c1:#9be9a8;--c2:#40c463;--c3:#30a14e;--c4:#216e39}.c{shape-rendering:geometricPrecision;fill:var(--ce);stroke-width:1px;stroke:var(--cb);animation:none 38900ms linear infinite;width:12px;height:12px}@keyframes c0{0.76%{fill:var(--c1)}0.78%,100%{fill:var(--ce)}}.c.c0{fill:var(--c1);animation-name:c0}@keyframes c1{3.59%{fill:var(--c1)}3.61%,100%{fill:var(--ce)}}.c.c1{fill:var(--c1);animation-name:c1}@keyframes c2{2.56%{fill:var(--c1)}2.58%,100%{fill:var(--ce)}}.c.c2{fill:var(--c1);animation-name:c2}@keyframes c3{3.33%{fill:var(--c1)}3.35%,100%{fill:var(--ce)}}.c.c3{fill:var(--c1);animation-name:c3}@keyframes c4{2.05%{fill:var(--c1)}2.07%,100%{fill:var(--ce)}}.c.c4{fill:var(--c1);animation-name:c4}@keyframes c5{19.78%{fill:var(--c1)}19.8%,100%{fill:var(--ce)}}.c.c5{fill:var(--c1);animation-name:c5}@keyframes c6{5.39%{fill:var(--c1)}5.41%,100%{fill:var(--ce)}}.c.c6{fill:var(--c1);animation-name:c6}@keyframes c7{5.13%{fill:var(--c1)}5.15%,100%{fill:var(--ce)}}.c.c7{fill:var(--c1);animation-name:c7}@keyframes c8{19.53%{fill:var(--c1)}19.55%,100%{fill:var(--ce)}}.c.c8{fill:var(--c1);animation-name:c8}@keyframes c9{20.3%{fill:var(--c1)}20.32%,100%{fill:var(--ce)}}.c.c9{fill:var(--c1);animation-name:c9}@keyframes ca{60.14%{fill:var(--c2)}60.16%,100%{fill:var(--ce)}}.c.ca{fill:var(--c2);animation-name:ca}@keyframes cb{19.27%{fill:var(--c1)}19.29%,100%{fill:var(--ce)}}.c.cb{fill:var(--c1);animation-name:cb}@keyframes cc{6.42%{fill:var(--c1)}6.44%,100%{fill:var(--ce)}}.c.cc{fill:var(--c1);animation-name:cc}@keyframes cd{6.16%{fill:var(--c1)}6.18%,100%{fill:var(--ce)}}.c.cd{fill:var(--c1);animation-name:cd}@keyframes ce{5.9%{fill:var(--c1)}5.92%,100%{fill:var(--ce)}}.c.ce{fill:var(--c1);animation-name:ce}@keyframes cf{17.98%{fill:var(--c1)}18%,100%{fill:var(--ce)}}.c.cf{fill:var(--c1);animation-name:cf}@keyframes cg{17.73%{fill:var(--c1)}17.75%,100%{fill:var(--ce)}}.c.cg{fill:var(--c1);animation-name:cg}@keyframes ch{6.67%{fill:var(--c1)}6.69%,100%{fill:var(--ce)}}.c.ch{fill:var(--c1);animation-name:ch}@keyframes ci{16.96%{fill:var(--c1)}16.98%,100%{fill:var(--ce)}}.c.ci{fill:var(--c1);animation-name:ci}@keyframes cj{17.21%{fill:var(--c1)}17.23%,100%{fill:var(--ce)}}.c.cj{fill:var(--c1);animation-name:cj}@keyframes ck{7.7%{fill:var(--c1)}7.72%,100%{fill:var(--ce)}}.c.ck{fill:var(--c1);animation-name:ck}@keyframes cl{7.45%{fill:var(--c1)}7.47%,100%{fill:var(--ce)}}.c.cl{fill:var(--c1);animation-name:cl}@keyframes cm{7.19%{fill:var(--c1)}7.21%,100%{fill:var(--ce)}}.c.cm{fill:var(--c1);animation-name:cm}@keyframes cn{16.19%{fill:var(--c1)}16.21%,100%{fill:var(--ce)}}.c.cn{fill:var(--c1);animation-name:cn}@keyframes co{16.44%{fill:var(--c1)}16.46%,100%{fill:var(--ce)}}.c.co{fill:var(--c1);animation-name:co}@keyframes cp{8.47%{fill:var(--c1)}8.49%,100%{fill:var(--ce)}}.c.cp{fill:var(--c1);animation-name:cp}@keyframes cq{15.67%{fill:var(--c1)}15.69%,100%{fill:var(--ce)}}.c.cq{fill:var(--c1);animation-name:cq}@keyframes cr{15.41%{fill:var(--c1)}15.43%,100%{fill:var(--ce)}}.c.cr{fill:var(--c1);animation-name:cr}@keyframes cs{22.87%{fill:var(--c1)}22.89%,100%{fill:var(--ce)}}.c.cs{fill:var(--c1);animation-name:cs}@keyframes ct{57.57%{fill:var(--c2)}57.59%,100%{fill:var(--ce)}}.c.ct{fill:var(--c2);animation-name:ct}@keyframes cu{23.9%{fill:var(--c1)}23.92%,100%{fill:var(--ce)}}.c.cu{fill:var(--c1);animation-name:cu}@keyframes cv{9.24%{fill:var(--c1)}9.26%,100%{fill:var(--ce)}}.c.cv{fill:var(--c1);animation-name:cv}@keyframes cw{8.99%{fill:var(--c1)}9.01%,100%{fill:var(--ce)}}.c.cw{fill:var(--c1);animation-name:cw}@keyframes cx{14.9%{fill:var(--c1)}14.92%,100%{fill:var(--ce)}}.c.cx{fill:var(--c1);animation-name:cx}@keyframes cy{15.16%{fill:var(--c1)}15.18%,100%{fill:var(--ce)}}.c.cy{fill:var(--c1);animation-name:cy}@keyframes cz{23.13%{fill:var(--c1)}23.15%,100%{fill:var(--ce)}}.c.cz{fill:var(--c1);animation-name:cz}@keyframes c10{23.38%{fill:var(--c1)}23.4%,100%{fill:var(--ce)}}.c.c10{fill:var(--c1);animation-name:c10}@keyframes c11{23.64%{fill:var(--c1)}23.66%,100%{fill:var(--ce)}}.c.c11{fill:var(--c1);animation-name:c11}@keyframes c12{9.76%{fill:var(--c1)}9.78%,100%{fill:var(--ce)}}.c.c12{fill:var(--c1);animation-name:c12}@keyframes c13{10.27%{fill:var(--c1)}10.29%,100%{fill:var(--ce)}}.c.c13{fill:var(--c1);animation-name:c13}@keyframes c14{10.53%{fill:var(--c1)}10.55%,100%{fill:var(--ce)}}.c.c14{fill:var(--c1);animation-name:c14}@keyframes c15{10.79%{fill:var(--c1)}10.81%,100%{fill:var(--ce)}}.c.c15{fill:var(--c1);animation-name:c15}@keyframes c16{25.18%{fill:var(--c1)}25.2%,100%{fill:var(--ce)}}.c.c16{fill:var(--c1);animation-name:c16}@keyframes c17{11.04%{fill:var(--c1)}11.06%,100%{fill:var(--ce)}}.c.c17{fill:var(--c1);animation-name:c17}@keyframes c18{11.56%{fill:var(--c1)}11.58%,100%{fill:var(--ce)}}.c.c18{fill:var(--c1);animation-name:c18}@keyframes c19{11.3%{fill:var(--c1)}11.32%,100%{fill:var(--ce)}}.c.c19{fill:var(--c1);animation-name:c19}@keyframes c1a{13.1%{fill:var(--c1)}13.12%,100%{fill:var(--ce)}}.c.c1a{fill:var(--c1);animation-name:c1a}@keyframes c1b{12.33%{fill:var(--c1)}12.35%,100%{fill:var(--ce)}}.c.c1b{fill:var(--c1);animation-name:c1b}@keyframes c1c{55.26%{fill:var(--c2)}55.28%,100%{fill:var(--ce)}}.c.c1c{fill:var(--c2);animation-name:c1c}@keyframes c1d{12.59%{fill:var(--c1)}12.61%,100%{fill:var(--ce)}}.c.c1d{fill:var(--c1);animation-name:c1d}@keyframes c1e{27.75%{fill:var(--c1)}27.77%,100%{fill:var(--ce)}}.c.c1e{fill:var(--c1);animation-name:c1e}@keyframes c1f{26.47%{fill:var(--c1)}26.49%,100%{fill:var(--ce)}}.c.c1f{fill:var(--c1);animation-name:c1f}@keyframes c1g{27.5%{fill:var(--c1)}27.52%,100%{fill:var(--ce)}}.c.c1g{fill:var(--c1);animation-name:c1g}@keyframes c1h{26.73%{fill:var(--c1)}26.75%,100%{fill:var(--ce)}}.c.c1h{fill:var(--c1);animation-name:c1h}@keyframes c1i{27.24%{fill:var(--c1)}27.26%,100%{fill:var(--ce)}}.c.c1i{fill:var(--c1);animation-name:c1i}@keyframes c1j{26.98%{fill:var(--c1)}27%,100%{fill:var(--ce)}}.c.c1j{fill:var(--c1);animation-name:c1j}@keyframes c1k{33.41%{fill:var(--c1)}33.43%,100%{fill:var(--ce)}}.c.c1k{fill:var(--c1);animation-name:c1k}@keyframes c1l{32.64%{fill:var(--c1)}32.66%,100%{fill:var(--ce)}}.c.c1l{fill:var(--c1);animation-name:c1l}@keyframes c1m{31.87%{fill:var(--c1)}31.89%,100%{fill:var(--ce)}}.c.c1m{fill:var(--c1);animation-name:c1m}@keyframes c1n{32.38%{fill:var(--c1)}32.4%,100%{fill:var(--ce)}}.c.c1n{fill:var(--c1);animation-name:c1n}@keyframes c1o{32.12%{fill:var(--c1)}32.14%,100%{fill:var(--ce)}}.c.c1o{fill:var(--c1);animation-name:c1o}@keyframes c1p{53.46%{fill:var(--c2)}53.48%,100%{fill:var(--ce)}}.c.c1p{fill:var(--c2);animation-name:c1p}@keyframes c1q{30.07%{fill:var(--c1)}30.09%,100%{fill:var(--ce)}}.c.c1q{fill:var(--c1);animation-name:c1q}@keyframes c1r{29.3%{fill:var(--c1)}29.32%,100%{fill:var(--ce)}}.c.c1r{fill:var(--c1);animation-name:c1r}@keyframes c1s{30.58%{fill:var(--c1)}30.6%,100%{fill:var(--ce)}}.c.c1s{fill:var(--c1);animation-name:c1s}@keyframes c1t{29.81%{fill:var(--c1)}29.83%,100%{fill:var(--ce)}}.c.c1t{fill:var(--c1);animation-name:c1t}@keyframes c1u{29.55%{fill:var(--c1)}29.57%,100%{fill:var(--ce)}}.c.c1u{fill:var(--c1);animation-name:c1u}@keyframes c1v{78.65%{fill:var(--c3)}78.67%,100%{fill:var(--ce)}}.c.c1v{fill:var(--c3);animation-name:c1v}@keyframes c1w{79.17%{fill:var(--c3)}79.19%,100%{fill:var(--ce)}}.c.c1w{fill:var(--c3);animation-name:c1w}@keyframes c1x{52.18%{fill:var(--c2)}52.2%,100%{fill:var(--ce)}}.c.c1x{fill:var(--c2);animation-name:c1x}@keyframes c1y{34.95%{fill:var(--c1)}34.97%,100%{fill:var(--ce)}}.c.c1y{fill:var(--c1);animation-name:c1y}@keyframes c1z{38.29%{fill:var(--c1)}38.31%,100%{fill:var(--ce)}}.c.c1z{fill:var(--c1);animation-name:c1z}@keyframes c20{37.52%{fill:var(--c1)}37.54%,100%{fill:var(--ce)}}.c.c20{fill:var(--c1);animation-name:c20}@keyframes c21{35.21%{fill:var(--c1)}35.23%,100%{fill:var(--ce)}}.c.c21{fill:var(--c1);animation-name:c21}@keyframes c22{80.71%{fill:var(--c4)}80.73%,100%{fill:var(--ce)}}.c.c22{fill:var(--c4);animation-name:c22}@keyframes c23{37.01%{fill:var(--c1)}37.03%,100%{fill:var(--ce)}}.c.c23{fill:var(--c1);animation-name:c23}@keyframes c24{36.49%{fill:var(--c1)}36.51%,100%{fill:var(--ce)}}.c.c24{fill:var(--c1);animation-name:c24}@keyframes c25{49.6%{fill:var(--c1)}49.62%,100%{fill:var(--ce)}}.c.c25{fill:var(--c1);animation-name:c25}@keyframes c26{49.09%{fill:var(--c1)}49.11%,100%{fill:var(--ce)}}.c.c26{fill:var(--c1);animation-name:c26}@keyframes c27{48.06%{fill:var(--c1)}48.08%,100%{fill:var(--ce)}}.c.c27{fill:var(--c1);animation-name:c27}@keyframes c28{47.8%{fill:var(--c1)}47.82%,100%{fill:var(--ce)}}.c.c28{fill:var(--c1);animation-name:c28}@keyframes c29{40.61%{fill:var(--c1)}40.63%,100%{fill:var(--ce)}}.c.c29{fill:var(--c1);animation-name:c29}@keyframes c2a{75.31%{fill:var(--c3)}75.33%,100%{fill:var(--ce)}}.c.c2a{fill:var(--c3);animation-name:c2a}@keyframes c2b{75.57%{fill:var(--c3)}75.59%,100%{fill:var(--ce)}}.c.c2b{fill:var(--c3);animation-name:c2b}@keyframes c2c{48.58%{fill:var(--c1)}48.6%,100%{fill:var(--ce)}}.c.c2c{fill:var(--c1);animation-name:c2c}@keyframes c2d{41.12%{fill:var(--c1)}41.14%,100%{fill:var(--ce)}}.c.c2d{fill:var(--c1);animation-name:c2d}@keyframes c2e{41.38%{fill:var(--c1)}41.4%,100%{fill:var(--ce)}}.c.c2e{fill:var(--c1);animation-name:c2e}@keyframes c2f{46.78%{fill:var(--c1)}46.8%,100%{fill:var(--ce)}}.c.c2f{fill:var(--c1);animation-name:c2f}@keyframes c2g{41.89%{fill:var(--c1)}41.91%,100%{fill:var(--ce)}}.c.c2g{fill:var(--c1);animation-name:c2g}@keyframes c2h{44.72%{fill:var(--c1)}44.74%,100%{fill:var(--ce)}}.c.c2h{fill:var(--c1);animation-name:c2h}@keyframes c2i{43.69%{fill:var(--c1)}43.71%,100%{fill:var(--ce)}}.c.c2i{fill:var(--c1);animation-name:c2i}@keyframes c2j{43.95%{fill:var(--c1)}43.97%,100%{fill:var(--ce)}}.c.c2j{fill:var(--c1);animation-name:c2j}@keyframes c2k{44.46%{fill:var(--c1)}44.48%,100%{fill:var(--ce)}}.c.c2k{fill:var(--c1);animation-name:c2k}@keyframes c2l{71.71%{fill:var(--c2)}71.73%,100%{fill:var(--ce)}}.c.c2l{fill:var(--c2);animation-name:c2l}@keyframes c2m{85.59%{fill:var(--c4)}85.61%,100%{fill:var(--ce)}}.c.c2m{fill:var(--c4);animation-name:c2m}.u{transform-origin:0 0;transform:scale(0,1);animation:none linear 38900ms infinite}@keyframes u0{0.76%{transform:scale(0.000,1)}0.78%,2.05%{transform:scale(0.012,1)}2.07%,2.56%{transform:scale(0.024,1)}2.58%,3.33%{transform:scale(0.036,1)}3.35%,3.59%{transform:scale(0.048,1)}3.61%,5.13%{transform:scale(0.060,1)}5.15%,5.39%{transform:scale(0.072,1)}5.41%,5.9%{transform:scale(0.084,1)}5.92%,6.16%{transform:scale(0.096,1)}6.18%,6.42%{transform:scale(0.108,1)}6.44%,6.67%{transform:scale(0.120,1)}6.69%,7.19%{transform:scale(0.133,1)}7.21%,7.45%{transform:scale(0.145,1)}7.47%,7.7%{transform:scale(0.157,1)}7.72%,8.47%{transform:scale(0.169,1)}8.49%,8.99%{transform:scale(0.181,1)}9.01%,9.24%{transform:scale(0.193,1)}9.26%,9.76%{transform:scale(0.205,1)}9.78%,10.27%{transform:scale(0.217,1)}10.29%,10.53%{transform:scale(0.229,1)}10.55%,10.79%{transform:scale(0.241,1)}10.81%,11.04%{transform:scale(0.253,1)}11.06%,11.3%{transform:scale(0.265,1)}11.32%,11.56%{transform:scale(0.277,1)}11.58%,12.33%{transform:scale(0.289,1)}12.35%,12.59%{transform:scale(0.301,1)}12.61%,13.1%{transform:scale(0.313,1)}13.12%,14.9%{transform:scale(0.325,1)}14.92%,15.16%{transform:scale(0.337,1)}15.18%,15.41%{transform:scale(0.349,1)}15.43%,15.67%{transform:scale(0.361,1)}15.69%,16.19%{transform:scale(0.373,1)}16.21%,16.44%{transform:scale(0.386,1)}16.46%,16.96%{transform:scale(0.398,1)}16.98%,17.21%{transform:scale(0.410,1)}17.23%,17.73%{transform:scale(0.422,1)}17.75%,17.98%{transform:scale(0.434,1)}18%,19.27%{transform:scale(0.446,1)}19.29%,19.53%{transform:scale(0.458,1)}19.55%,19.78%{transform:scale(0.470,1)}19.8%,20.3%{transform:scale(0.482,1)}20.32%,22.87%{transform:scale(0.494,1)}22.89%,23.13%{transform:scale(0.506,1)}23.15%,23.38%{transform:scale(0.518,1)}23.4%,23.64%{transform:scale(0.530,1)}23.66%,23.9%{transform:scale(0.542,1)}23.92%,25.18%{transform:scale(0.554,1)}25.2%,26.47%{transform:scale(0.566,1)}26.49%,26.73%{transform:scale(0.578,1)}26.75%,26.98%{transform:scale(0.590,1)}27%,27.24%{transform:scale(0.602,1)}27.26%,27.5%{transform:scale(0.614,1)}27.52%,27.75%{transform:scale(0.627,1)}27.77%,29.3%{transform:scale(0.639,1)}29.32%,29.55%{transform:scale(0.651,1)}29.57%,29.81%{transform:scale(0.663,1)}29.83%,30.07%{transform:scale(0.675,1)}30.09%,30.58%{transform:scale(0.687,1)}30.6%,31.87%{transform:scale(0.699,1)}31.89%,32.12%{transform:scale(0.711,1)}32.14%,32.38%{transform:scale(0.723,1)}32.4%,32.64%{transform:scale(0.735,1)}32.66%,33.41%{transform:scale(0.747,1)}33.43%,34.95%{transform:scale(0.759,1)}34.97%,35.21%{transform:scale(0.771,1)}35.23%,36.49%{transform:scale(0.783,1)}36.51%,37.01%{transform:scale(0.795,1)}37.03%,37.52%{transform:scale(0.807,1)}37.54%,38.29%{transform:scale(0.819,1)}38.31%,40.61%{transform:scale(0.831,1)}40.63%,41.12%{transform:scale(0.843,1)}41.14%,41.38%{transform:scale(0.855,1)}41.4%,41.89%{transform:scale(0.867,1)}41.91%,43.69%{transform:scale(0.880,1)}43.71%,43.95%{transform:scale(0.892,1)}43.97%,44.46%{transform:scale(0.904,1)}44.48%,44.72%{transform:scale(0.916,1)}44.74%,46.78%{transform:scale(0.928,1)}46.8%,47.8%{transform:scale(0.940,1)}47.82%,48.06%{transform:scale(0.952,1)}48.08%,48.58%{transform:scale(0.964,1)}48.6%,49.09%{transform:scale(0.976,1)}49.11%,49.6%{transform:scale(0.988,1)}49.62%,100%{transform:scale(1.000,1)}}.u.u0{fill:var(--c1);animation-name:u0;transform-origin:0.0px 0}@keyframes u1{52.18%{transform:scale(0.000,1)}52.2%,53.46%{transform:scale(0.167,1)}53.48%,55.26%{transform:scale(0.333,1)}55.28%,57.57%{transform:scale(0.500,1)}57.59%,60.14%{transform:scale(0.667,1)}60.16%,71.71%{transform:scale(0.833,1)}71.73%,100%{transform:scale(1.000,1)}}.u.u1{fill:var(--c2);animation-name:u1;transform-origin:740.9px 0}@keyframes u2{75.31%{transform:scale(0.000,1)}75.33%,75.57%{transform:scale(0.250,1)}75.59%,78.65%{transform:scale(0.500,1)}78.67%,79.17%{transform:scale(0.750,1)}79.19%,100%{transform:scale(1.000,1)}}.u.u2{fill:var(--c3);animation-name:u2;transform-origin:794.4px 0}@keyframes u3{80.71%{transform:scale(0.000,1)}80.73%,85.59%{transform:scale(0.500,1)}85.61%,100%{transform:scale(1.000,1)}}.u.u3{fill:var(--c4);animation-name:u3;transform-origin:830.1px 0}.s{shape-rendering:geometricPrecision;fill:var(--cs);animation:none linear 38900ms infinite}@keyframes s0{0%,99.74%{transform:translate(0px,-16px)}0.26%{transform:translate(0px,0px)}0.51%{transform:translate(16px,0px)}0.77%{transform:translate(16px,16px)}1.8%,97.94%{transform:translate(80px,16px)}2.06%{transform:translate(80px,32px)}2.31%{transform:translate(64px,32px)}3.34%{transform:translate(64px,96px)}3.6%{transform:translate(48px,96px)}3.86%{transform:translate(48px,80px)}5.14%{transform:translate(128px,80px)}5.4%{transform:translate(128px,64px)}5.91%{transform:translate(160px,64px)}6.43%{transform:translate(160px,32px)}7.2%{transform:translate(208px,32px)}7.71%{transform:translate(208px,0px)}8.23%{transform:translate(240px,0px)}8.48%{transform:translate(240px,16px)}9%{transform:translate(272px,16px)}9.25%,14.4%{transform:translate(272px,0px)}9.77%{transform:translate(304px,0px)}10.8%{transform:translate(304px,64px)}11.31%{transform:translate(336px,64px)}12.08%{transform:translate(336px,16px)}12.6%{transform:translate(368px,16px)}12.85%{transform:translate(368px,0px)}15.17%{transform:translate(272px,48px)}16.2%{transform:translate(208px,48px)}16.45%{transform:translate(208px,64px)}16.71%{transform:translate(192px,64px)}17.22%{transform:translate(192px,96px)}17.74%{transform:translate(160px,96px)}19.28%{transform:translate(160px,0px)}19.79%{transform:translate(128px,0px)}20.05%{transform:translate(128px,16px)}22.11%{transform:translate(256px,16px)}22.88%{transform:translate(256px,64px)}23.14%{transform:translate(272px,64px)}23.65%{transform:translate(272px,96px)}23.91%{transform:translate(256px,96px)}24.16%{transform:translate(256px,112px)}24.94%{transform:translate(304px,112px)}25.19%{transform:translate(304px,96px)}26.99%{transform:translate(416px,96px)}27.25%{transform:translate(416px,80px)}27.76%{transform:translate(384px,80px)}28.02%{transform:translate(384px,64px)}29.56%{transform:translate(480px,64px)}29.82%,78.15%{transform:translate(480px,48px)}30.08%{transform:translate(464px,48px)}30.59%{transform:translate(464px,80px)}30.85%{transform:translate(448px,80px)}31.88%,33.93%{transform:translate(448px,16px)}32.13%{transform:translate(464px,16px)}32.39%,52.96%{transform:translate(464px,0px)}32.9%{transform:translate(432px,0px)}33.42%{transform:translate(432px,32px)}33.68%{transform:translate(448px,32px)}35.73%{transform:translate(560px,16px)}36.5%{transform:translate(560px,64px)}36.76%{transform:translate(544px,64px)}37.02%{transform:translate(544px,80px)}37.53%{transform:translate(512px,80px)}38.56%{transform:translate(512px,16px)}41.65%{transform:translate(704px,16px)}41.9%{transform:translate(704px,0px)}43.44%{transform:translate(800px,0px)}44.47%{transform:translate(800px,64px)}46.27%{transform:translate(688px,64px)}46.79%{transform:translate(688px,96px)}47.81%{transform:translate(624px,96px)}48.07%{transform:translate(624px,80px)}48.33%{transform:translate(640px,80px)}48.59%{transform:translate(640px,64px)}49.36%{transform:translate(592px,64px)}49.61%{transform:translate(592px,80px)}49.87%{transform:translate(576px,80px)}51.16%{transform:translate(576px,0px)}53.47%{transform:translate(464px,32px)}56.81%{transform:translate(256px,32px)}57.58%{transform:translate(256px,80px)}57.84%{transform:translate(240px,80px)}58.61%{transform:translate(240px,32px)}60.15%{transform:translate(144px,32px)}60.41%{transform:translate(144px,16px)}71.47%,85.86%{transform:translate(832px,16px)}71.72%{transform:translate(832px,0px)}74.81%{transform:translate(640px,0px)}75.58%{transform:translate(640px,48px)}78.66%{transform:translate(480px,80px)}78.92%{transform:translate(496px,80px)}79.18%{transform:translate(496px,96px)}79.69%{transform:translate(528px,96px)}80.72%{transform:translate(528px,32px)}85.6%{transform:translate(832px,32px)}98.2%{transform:translate(80px,0px)}98.46%{transform:translate(64px,0px)}98.71%{transform:translate(64px,-16px)}}.s.s0{transform:translate(0px,-16px);animation-name:s0}@keyframes s1{0%,99.74%{transform:translate(16px,-16px)}0.26%{transform:translate(0px,-16px)}0.51%{transform:translate(0px,0px)}0.77%{transform:translate(16px,0px)}1.03%{transform:translate(16px,16px)}2.06%,98.2%{transform:translate(80px,16px)}2.31%{transform:translate(80px,32px)}2.57%{transform:translate(64px,32px)}3.6%{transform:translate(64px,96px)}3.86%{transform:translate(48px,96px)}4.11%{transform:translate(48px,80px)}5.4%{transform:translate(128px,80px)}5.66%{transform:translate(128px,64px)}6.17%{transform:translate(160px,64px)}6.68%{transform:translate(160px,32px)}7.46%{transform:translate(208px,32px)}7.97%{transform:translate(208px,0px)}8.48%{transform:translate(240px,0px)}8.74%{transform:translate(240px,16px)}9.25%{transform:translate(272px,16px)}9.51%,14.65%{transform:translate(272px,0px)}10.03%{transform:translate(304px,0px)}11.05%{transform:translate(304px,64px)}11.57%{transform:translate(336px,64px)}12.34%{transform:translate(336px,16px)}12.85%{transform:translate(368px,16px)}13.11%{transform:translate(368px,0px)}15.42%{transform:translate(272px,48px)}16.45%{transform:translate(208px,48px)}16.71%{transform:translate(208px,64px)}16.97%{transform:translate(192px,64px)}17.48%{transform:translate(192px,96px)}17.99%{transform:translate(160px,96px)}19.54%{transform:translate(160px,0px)}20.05%{transform:translate(128px,0px)}20.31%{transform:translate(128px,16px)}22.37%{transform:translate(256px,16px)}23.14%{transform:translate(256px,64px)}23.39%{transform:translate(272px,64px)}23.91%{transform:translate(272px,96px)}24.16%{transform:translate(256px,96px)}24.42%{transform:translate(256px,112px)}25.19%{transform:translate(304px,112px)}25.45%{transform:translate(304px,96px)}27.25%{transform:translate(416px,96px)}27.51%{transform:translate(416px,80px)}28.02%{transform:translate(384px,80px)}28.28%{transform:translate(384px,64px)}29.82%{transform:translate(480px,64px)}30.08%,78.41%{transform:translate(480px,48px)}30.33%{transform:translate(464px,48px)}30.85%{transform:translate(464px,80px)}31.11%{transform:translate(448px,80px)}32.13%,34.19%{transform:translate(448px,16px)}32.39%{transform:translate(464px,16px)}32.65%,53.21%{transform:translate(464px,0px)}33.16%{transform:translate(432px,0px)}33.68%{transform:translate(432px,32px)}33.93%{transform:translate(448px,32px)}35.99%{transform:translate(560px,16px)}36.76%{transform:translate(560px,64px)}37.02%{transform:translate(544px,64px)}37.28%{transform:translate(544px,80px)}37.79%{transform:translate(512px,80px)}38.82%{transform:translate(512px,16px)}41.9%{transform:translate(704px,16px)}42.16%{transform:translate(704px,0px)}43.7%{transform:translate(800px,0px)}44.73%{transform:translate(800px,64px)}46.53%{transform:translate(688px,64px)}47.04%{transform:translate(688px,96px)}48.07%{transform:translate(624px,96px)}48.33%{transform:translate(624px,80px)}48.59%{transform:translate(640px,80px)}48.84%{transform:translate(640px,64px)}49.61%{transform:translate(592px,64px)}49.87%{transform:translate(592px,80px)}50.13%{transform:translate(576px,80px)}51.41%{transform:translate(576px,0px)}53.73%{transform:translate(464px,32px)}57.07%{transform:translate(256px,32px)}57.84%{transform:translate(256px,80px)}58.1%{transform:translate(240px,80px)}58.87%{transform:translate(240px,32px)}60.41%{transform:translate(144px,32px)}60.67%{transform:translate(144px,16px)}71.72%,86.12%{transform:translate(832px,16px)}71.98%{transform:translate(832px,0px)}75.06%{transform:translate(640px,0px)}75.84%{transform:translate(640px,48px)}78.92%{transform:translate(480px,80px)}79.18%{transform:translate(496px,80px)}79.43%{transform:translate(496px,96px)}79.95%{transform:translate(528px,96px)}80.98%{transform:translate(528px,32px)}85.86%{transform:translate(832px,32px)}98.46%{transform:translate(80px,0px)}98.71%{transform:translate(64px,0px)}98.97%{transform:translate(64px,-16px)}}.s.s1{transform:translate(16px,-16px);animation-name:s1}@keyframes s2{0%,99.74%{transform:translate(32px,-16px)}0.51%{transform:translate(0px,-16px)}0.77%{transform:translate(0px,0px)}1.03%{transform:translate(16px,0px)}1.29%{transform:translate(16px,16px)}2.31%,98.46%{transform:translate(80px,16px)}2.57%{transform:translate(80px,32px)}2.83%{transform:translate(64px,32px)}3.86%{transform:translate(64px,96px)}4.11%{transform:translate(48px,96px)}4.37%{transform:translate(48px,80px)}5.66%{transform:translate(128px,80px)}5.91%{transform:translate(128px,64px)}6.43%{transform:translate(160px,64px)}6.94%{transform:translate(160px,32px)}7.71%{transform:translate(208px,32px)}8.23%{transform:translate(208px,0px)}8.74%{transform:translate(240px,0px)}9%{transform:translate(240px,16px)}9.51%{transform:translate(272px,16px)}9.77%,14.91%{transform:translate(272px,0px)}10.28%{transform:translate(304px,0px)}11.31%{transform:translate(304px,64px)}11.83%{transform:translate(336px,64px)}12.6%{transform:translate(336px,16px)}13.11%{transform:translate(368px,16px)}13.37%{transform:translate(368px,0px)}15.68%{transform:translate(272px,48px)}16.71%{transform:translate(208px,48px)}16.97%{transform:translate(208px,64px)}17.22%{transform:translate(192px,64px)}17.74%{transform:translate(192px,96px)}18.25%{transform:translate(160px,96px)}19.79%{transform:translate(160px,0px)}20.31%{transform:translate(128px,0px)}20.57%{transform:translate(128px,16px)}22.62%{transform:translate(256px,16px)}23.39%{transform:translate(256px,64px)}23.65%{transform:translate(272px,64px)}24.16%{transform:translate(272px,96px)}24.42%{transform:translate(256px,96px)}24.68%{transform:translate(256px,112px)}25.45%{transform:translate(304px,112px)}25.71%{transform:translate(304px,96px)}27.51%{transform:translate(416px,96px)}27.76%{transform:translate(416px,80px)}28.28%{transform:translate(384px,80px)}28.53%{transform:translate(384px,64px)}30.08%{transform:translate(480px,64px)}30.33%,78.66%{transform:translate(480px,48px)}30.59%{transform:translate(464px,48px)}31.11%{transform:translate(464px,80px)}31.36%{transform:translate(448px,80px)}32.39%,34.45%{transform:translate(448px,16px)}32.65%{transform:translate(464px,16px)}32.9%,53.47%{transform:translate(464px,0px)}33.42%{transform:translate(432px,0px)}33.93%{transform:translate(432px,32px)}34.19%{transform:translate(448px,32px)}36.25%{transform:translate(560px,16px)}37.02%{transform:translate(560px,64px)}37.28%{transform:translate(544px,64px)}37.53%{transform:translate(544px,80px)}38.05%{transform:translate(512px,80px)}39.07%{transform:translate(512px,16px)}42.16%{transform:translate(704px,16px)}42.42%{transform:translate(704px,0px)}43.96%{transform:translate(800px,0px)}44.99%{transform:translate(800px,64px)}46.79%{transform:translate(688px,64px)}47.3%{transform:translate(688px,96px)}48.33%{transform:translate(624px,96px)}48.59%{transform:translate(624px,80px)}48.84%{transform:translate(640px,80px)}49.1%{transform:translate(640px,64px)}49.87%{transform:translate(592px,64px)}50.13%{transform:translate(592px,80px)}50.39%{transform:translate(576px,80px)}51.67%{transform:translate(576px,0px)}53.98%{transform:translate(464px,32px)}57.33%{transform:translate(256px,32px)}58.1%{transform:translate(256px,80px)}58.35%{transform:translate(240px,80px)}59.13%{transform:translate(240px,32px)}60.67%{transform:translate(144px,32px)}60.93%{transform:translate(144px,16px)}71.98%,86.38%{transform:translate(832px,16px)}72.24%{transform:translate(832px,0px)}75.32%{transform:translate(640px,0px)}76.09%{transform:translate(640px,48px)}79.18%{transform:translate(480px,80px)}79.43%{transform:translate(496px,80px)}79.69%{transform:translate(496px,96px)}80.21%{transform:translate(528px,96px)}81.23%{transform:translate(528px,32px)}86.12%{transform:translate(832px,32px)}98.71%{transform:translate(80px,0px)}98.97%{transform:translate(64px,0px)}99.23%{transform:translate(64px,-16px)}}.s.s2{transform:translate(32px,-16px);animation-name:s2}@keyframes s3{0%,99.74%{transform:translate(48px,-16px)}0.77%{transform:translate(0px,-16px)}1.03%{transform:translate(0px,0px)}1.29%{transform:translate(16px,0px)}1.54%{transform:translate(16px,16px)}2.57%,98.71%{transform:translate(80px,16px)}2.83%{transform:translate(80px,32px)}3.08%{transform:translate(64px,32px)}4.11%{transform:translate(64px,96px)}4.37%{transform:translate(48px,96px)}4.63%{transform:translate(48px,80px)}5.91%{transform:translate(128px,80px)}6.17%{transform:translate(128px,64px)}6.68%{transform:translate(160px,64px)}7.2%{transform:translate(160px,32px)}7.97%{transform:translate(208px,32px)}8.48%{transform:translate(208px,0px)}9%{transform:translate(240px,0px)}9.25%{transform:translate(240px,16px)}9.77%{transform:translate(272px,16px)}10.03%,15.17%{transform:translate(272px,0px)}10.54%{transform:translate(304px,0px)}11.57%{transform:translate(304px,64px)}12.08%{transform:translate(336px,64px)}12.85%{transform:translate(336px,16px)}13.37%{transform:translate(368px,16px)}13.62%{transform:translate(368px,0px)}15.94%{transform:translate(272px,48px)}16.97%{transform:translate(208px,48px)}17.22%{transform:translate(208px,64px)}17.48%{transform:translate(192px,64px)}17.99%{transform:translate(192px,96px)}18.51%{transform:translate(160px,96px)}20.05%{transform:translate(160px,0px)}20.57%{transform:translate(128px,0px)}20.82%{transform:translate(128px,16px)}22.88%{transform:translate(256px,16px)}23.65%{transform:translate(256px,64px)}23.91%{transform:translate(272px,64px)}24.42%{transform:translate(272px,96px)}24.68%{transform:translate(256px,96px)}24.94%{transform:translate(256px,112px)}25.71%{transform:translate(304px,112px)}25.96%{transform:translate(304px,96px)}27.76%{transform:translate(416px,96px)}28.02%{transform:translate(416px,80px)}28.53%{transform:translate(384px,80px)}28.79%{transform:translate(384px,64px)}30.33%{transform:translate(480px,64px)}30.59%,78.92%{transform:translate(480px,48px)}30.85%{transform:translate(464px,48px)}31.36%{transform:translate(464px,80px)}31.62%{transform:translate(448px,80px)}32.65%,34.7%{transform:translate(448px,16px)}32.9%{transform:translate(464px,16px)}33.16%,53.73%{transform:translate(464px,0px)}33.68%{transform:translate(432px,0px)}34.19%{transform:translate(432px,32px)}34.45%{transform:translate(448px,32px)}36.5%{transform:translate(560px,16px)}37.28%{transform:translate(560px,64px)}37.53%{transform:translate(544px,64px)}37.79%{transform:translate(544px,80px)}38.3%{transform:translate(512px,80px)}39.33%{transform:translate(512px,16px)}42.42%{transform:translate(704px,16px)}42.67%{transform:translate(704px,0px)}44.22%{transform:translate(800px,0px)}45.24%{transform:translate(800px,64px)}47.04%{transform:translate(688px,64px)}47.56%{transform:translate(688px,96px)}48.59%{transform:translate(624px,96px)}48.84%{transform:translate(624px,80px)}49.1%{transform:translate(640px,80px)}49.36%{transform:translate(640px,64px)}50.13%{transform:translate(592px,64px)}50.39%{transform:translate(592px,80px)}50.64%{transform:translate(576px,80px)}51.93%{transform:translate(576px,0px)}54.24%{transform:translate(464px,32px)}57.58%{transform:translate(256px,32px)}58.35%{transform:translate(256px,80px)}58.61%{transform:translate(240px,80px)}59.38%{transform:translate(240px,32px)}60.93%{transform:translate(144px,32px)}61.18%{transform:translate(144px,16px)}72.24%,86.63%{transform:translate(832px,16px)}72.49%{transform:translate(832px,0px)}75.58%{transform:translate(640px,0px)}76.35%{transform:translate(640px,48px)}79.43%{transform:translate(480px,80px)}79.69%{transform:translate(496px,80px)}79.95%{transform:translate(496px,96px)}80.46%{transform:translate(528px,96px)}81.49%{transform:translate(528px,32px)}86.38%{transform:translate(832px,32px)}98.97%{transform:translate(80px,0px)}99.23%{transform:translate(64px,0px)}99.49%{transform:translate(64px,-16px)}}.s.s3{transform:translate(48px,-16px);animation-name:s3}</style><rect class="c" x="2" y="2" rx="2" ry="2"/><rect class="c" x="2" y="18" rx="2" ry="2"/><rect class="c" x="2" y="34" rx="2" ry="2"/><rect class="c" x="2" y="50" rx="2" ry="2"/><rect class="c" x="2" y="66" rx="2" ry="2"/><rect class="c" x="2" y="82" rx="2" ry="2"/><rect class="c" x="2" y="98" rx="2" ry="2"/><rect class="c" x="18" y="2" rx="2" ry="2"/><rect class="c c0" x="18" y="18" rx="2" ry="2"/><rect class="c" x="18" y="34" rx="2" ry="2"/><rect class="c" x="18" y="50" rx="2" ry="2"/><rect class="c" x="18" y="66" rx="2" ry="2"/><rect class="c" x="18" y="82" rx="2" ry="2"/><rect class="c" x="18" y="98" rx="2" ry="2"/><rect class="c" x="34" y="2" rx="2" ry="2"/><rect class="c" x="34" y="18" rx="2" ry="2"/><rect class="c" x="34" y="34" rx="2" ry="2"/><rect class="c" x="34" y="50" rx="2" ry="2"/><rect class="c" x="34" y="66" rx="2" ry="2"/><rect class="c" x="34" y="82" rx="2" ry="2"/><rect class="c" x="34" y="98" rx="2" ry="2"/><rect class="c" x="50" y="2" rx="2" ry="2"/><rect class="c" x="50" y="18" rx="2" ry="2"/><rect class="c" x="50" y="34" rx="2" ry="2"/><rect class="c" x="50" y="50" rx="2" ry="2"/><rect class="c" x="50" y="66" rx="2" ry="2"/><rect class="c" x="50" y="82" rx="2" ry="2"/><rect class="c c1" x="50" y="98" rx="2" ry="2"/><rect class="c" x="66" y="2" rx="2" ry="2"/><rect class="c" x="66" y="18" rx="2" ry="2"/><rect class="c" x="66" y="34" rx="2" ry="2"/><rect class="c c2" x="66" y="50" rx="2" ry="2"/><rect class="c" x="66" y="66" rx="2" ry="2"/><rect class="c" x="66" y="82" rx="2" ry="2"/><rect class="c c3" x="66" y="98" rx="2" ry="2"/><rect class="c" x="82" y="2" rx="2" ry="2"/><rect class="c" x="82" y="18" rx="2" ry="2"/><rect class="c c4" x="82" y="34" rx="2" ry="2"/><rect class="c" x="82" y="50" rx="2" ry="2"/><rect class="c" x="82" y="66" rx="2" ry="2"/><rect class="c" x="82" y="82" rx="2" ry="2"/><rect class="c" x="82" y="98" rx="2" ry="2"/><rect class="c" x="98" y="2" rx="2" ry="2"/><rect class="c" x="98" y="18" rx="2" ry="2"/><rect class="c" x="98" y="34" rx="2" ry="2"/><rect class="c" x="98" y="50" rx="2" ry="2"/><rect class="c" x="98" y="66" rx="2" ry="2"/><rect class="c" x="98" y="82" rx="2" ry="2"/><rect class="c" x="98" y="98" rx="2" ry="2"/><rect class="c" x="114" y="2" rx="2" ry="2"/><rect class="c" x="114" y="18" rx="2" ry="2"/><rect class="c" x="114" y="34" rx="2" ry="2"/><rect class="c" x="114" y="50" rx="2" ry="2"/><rect class="c" x="114" y="66" rx="2" ry="2"/><rect class="c" x="114" y="82" rx="2" ry="2"/><rect class="c" x="114" y="98" rx="2" ry="2"/><rect class="c c5" x="130" y="2" rx="2" ry="2"/><rect class="c" x="130" y="18" rx="2" ry="2"/><rect class="c" x="130" y="34" rx="2" ry="2"/><rect class="c" x="130" y="50" rx="2" ry="2"/><rect class="c c6" x="130" y="66" rx="2" ry="2"/><rect class="c c7" x="130" y="82" rx="2" ry="2"/><rect class="c" x="130" y="98" rx="2" ry="2"/><rect class="c c8" x="146" y="2" rx="2" ry="2"/><rect class="c c9" x="146" y="18" rx="2" ry="2"/><rect class="c ca" x="146" y="34" rx="2" ry="2"/><rect class="c" x="146" y="50" rx="2" ry="2"/><rect class="c" x="146" y="66" rx="2" ry="2"/><rect class="c" x="146" y="82" rx="2" ry="2"/><rect class="c" x="146" y="98" rx="2" ry="2"/><rect class="c cb" x="162" y="2" rx="2" ry="2"/><rect class="c" x="162" y="18" rx="2" ry="2"/><rect class="c cc" x="162" y="34" rx="2" ry="2"/><rect class="c cd" x="162" y="50" rx="2" ry="2"/><rect class="c ce" x="162" y="66" rx="2" ry="2"/><rect class="c cf" x="162" y="82" rx="2" ry="2"/><rect class="c cg" x="162" y="98" rx="2" ry="2"/><rect class="c" x="178" y="2" rx="2" ry="2"/><rect class="c" x="178" y="18" rx="2" ry="2"/><rect class="c ch" x="178" y="34" rx="2" ry="2"/><rect class="c" x="178" y="50" rx="2" ry="2"/><rect class="c" x="178" y="66" rx="2" ry="2"/><rect class="c" x="178" y="82" rx="2" ry="2"/><rect class="c" x="178" y="98" rx="2" ry="2"/><rect class="c" x="194" y="2" rx="2" ry="2"/><rect class="c" x="194" y="18" rx="2" ry="2"/><rect class="c" x="194" y="34" rx="2" ry="2"/><rect class="c" x="194" y="50" rx="2" ry="2"/><rect class="c" x="194" y="66" rx="2" ry="2"/><rect class="c ci" x="194" y="82" rx="2" ry="2"/><rect class="c cj" x="194" y="98" rx="2" ry="2"/><rect class="c ck" x="210" y="2" rx="2" ry="2"/><rect class="c cl" x="210" y="18" rx="2" ry="2"/><rect class="c cm" x="210" y="34" rx="2" ry="2"/><rect class="c cn" x="210" y="50" rx="2" ry="2"/><rect class="c co" x="210" y="66" rx="2" ry="2"/><rect class="c" x="210" y="82" rx="2" ry="2"/><rect class="c" x="210" y="98" rx="2" ry="2"/><rect class="c" x="226" y="2" rx="2" ry="2"/><rect class="c" x="226" y="18" rx="2" ry="2"/><rect class="c" x="226" y="34" rx="2" ry="2"/><rect class="c" x="226" y="50" rx="2" ry="2"/><rect class="c" x="226" y="66" rx="2" ry="2"/><rect class="c" x="226" y="82" rx="2" ry="2"/><rect class="c" x="226" y="98" rx="2" ry="2"/><rect class="c" x="242" y="2" rx="2" ry="2"/><rect class="c cp" x="242" y="18" rx="2" ry="2"/><rect class="c" x="242" y="34" rx="2" ry="2"/><rect class="c cq" x="242" y="50" rx="2" ry="2"/><rect class="c" x="242" y="66" rx="2" ry="2"/><rect class="c" x="242" y="82" rx="2" ry="2"/><rect class="c" x="242" y="98" rx="2" ry="2"/><rect class="c" x="258" y="2" rx="2" ry="2"/><rect class="c" x="258" y="18" rx="2" ry="2"/><rect class="c" x="258" y="34" rx="2" ry="2"/><rect class="c cr" x="258" y="50" rx="2" ry="2"/><rect class="c cs" x="258" y="66" rx="2" ry="2"/><rect class="c ct" x="258" y="82" rx="2" ry="2"/><rect class="c cu" x="258" y="98" rx="2" ry="2"/><rect class="c cv" x="274" y="2" rx="2" ry="2"/><rect class="c cw" x="274" y="18" rx="2" ry="2"/><rect class="c cx" x="274" y="34" rx="2" ry="2"/><rect class="c cy" x="274" y="50" rx="2" ry="2"/><rect class="c cz" x="274" y="66" rx="2" ry="2"/><rect class="c c10" x="274" y="82" rx="2" ry="2"/><rect class="c c11" x="274" y="98" rx="2" ry="2"/><rect class="c" x="290" y="2" rx="2" ry="2"/><rect class="c" x="290" y="18" rx="2" ry="2"/><rect class="c" x="290" y="34" rx="2" ry="2"/><rect class="c" x="290" y="50" rx="2" ry="2"/><rect class="c" x="290" y="66" rx="2" ry="2"/><rect class="c" x="290" y="82" rx="2" ry="2"/><rect class="c" x="290" y="98" rx="2" ry="2"/><rect class="c c12" x="306" y="2" rx="2" ry="2"/><rect class="c" x="306" y="18" rx="2" ry="2"/><rect class="c c13" x="306" y="34" rx="2" ry="2"/><rect class="c c14" x="306" y="50" rx="2" ry="2"/><rect class="c c15" x="306" y="66" rx="2" ry="2"/><rect class="c" x="306" y="82" rx="2" ry="2"/><rect class="c c16" x="306" y="98" rx="2" ry="2"/><rect class="c" x="322" y="2" rx="2" ry="2"/><rect class="c" x="322" y="18" rx="2" ry="2"/><rect class="c" x="322" y="34" rx="2" ry="2"/><rect class="c" x="322" y="50" rx="2" ry="2"/><rect class="c c17" x="322" y="66" rx="2" ry="2"/><rect class="c" x="322" y="82" rx="2" ry="2"/><rect class="c" x="322" y="98" rx="2" ry="2"/><rect class="c" x="338" y="2" rx="2" ry="2"/><rect class="c" x="338" y="18" rx="2" ry="2"/><rect class="c" x="338" y="34" rx="2" ry="2"/><rect class="c c18" x="338" y="50" rx="2" ry="2"/><rect class="c c19" x="338" y="66" rx="2" ry="2"/><rect class="c" x="338" y="82" rx="2" ry="2"/><rect class="c" x="338" y="98" rx="2" ry="2"/><rect class="c c1a" x="354" y="2" rx="2" ry="2"/><rect class="c c1b" x="354" y="18" rx="2" ry="2"/><rect class="c c1c" x="354" y="34" rx="2" ry="2"/><rect class="c" x="354" y="50" rx="2" ry="2"/><rect class="c" x="354" y="66" rx="2" ry="2"/><rect class="c" x="354" y="82" rx="2" ry="2"/><rect class="c" x="354" y="98" rx="2" ry="2"/><rect class="c" x="370" y="2" rx="2" ry="2"/><rect class="c c1d" x="370" y="18" rx="2" ry="2"/><rect class="c" x="370" y="34" rx="2" ry="2"/><rect class="c" x="370" y="50" rx="2" ry="2"/><rect class="c" x="370" y="66" rx="2" ry="2"/><rect class="c" x="370" y="82" rx="2" ry="2"/><rect class="c" x="370" y="98" rx="2" ry="2"/><rect class="c" x="386" y="2" rx="2" ry="2"/><rect class="c" x="386" y="18" rx="2" ry="2"/><rect class="c" x="386" y="34" rx="2" ry="2"/><rect class="c" x="386" y="50" rx="2" ry="2"/><rect class="c" x="386" y="66" rx="2" ry="2"/><rect class="c c1e" x="386" y="82" rx="2" ry="2"/><rect class="c c1f" x="386" y="98" rx="2" ry="2"/><rect class="c" x="402" y="2" rx="2" ry="2"/><rect class="c" x="402" y="18" rx="2" ry="2"/><rect class="c" x="402" y="34" rx="2" ry="2"/><rect class="c" x="402" y="50" rx="2" ry="2"/><rect class="c" x="402" y="66" rx="2" ry="2"/><rect class="c c1g" x="402" y="82" rx="2" ry="2"/><rect class="c c1h" x="402" y="98" rx="2" ry="2"/><rect class="c" x="418" y="2" rx="2" ry="2"/><rect class="c" x="418" y="18" rx="2" ry="2"/><rect class="c" x="418" y="34" rx="2" ry="2"/><rect class="c" x="418" y="50" rx="2" ry="2"/><rect class="c" x="418" y="66" rx="2" ry="2"/><rect class="c c1i" x="418" y="82" rx="2" ry="2"/><rect class="c c1j" x="418" y="98" rx="2" ry="2"/><rect class="c" x="434" y="2" rx="2" ry="2"/><rect class="c" x="434" y="18" rx="2" ry="2"/><rect class="c c1k" x="434" y="34" rx="2" ry="2"/><rect class="c" x="434" y="50" rx="2" ry="2"/><rect class="c" x="434" y="66" rx="2" ry="2"/><rect class="c" x="434" y="82" rx="2" ry="2"/><rect class="c" x="434" y="98" rx="2" ry="2"/><rect class="c c1l" x="450" y="2" rx="2" ry="2"/><rect class="c c1m" x="450" y="18" rx="2" ry="2"/><rect class="c" x="450" y="34" rx="2" ry="2"/><rect class="c" x="450" y="50" rx="2" ry="2"/><rect class="c" x="450" y="66" rx="2" ry="2"/><rect class="c" x="450" y="82" rx="2" ry="2"/><rect class="c" x="450" y="98" rx="2" ry="2"/><rect class="c c1n" x="466" y="2" rx="2" ry="2"/><rect class="c c1o" x="466" y="18" rx="2" ry="2"/><rect class="c c1p" x="466" y="34" rx="2" ry="2"/><rect class="c c1q" x="466" y="50" rx="2" ry="2"/><rect class="c c1r" x="466" y="66" rx="2" ry="2"/><rect class="c c1s" x="466" y="82" rx="2" ry="2"/><rect class="c" x="466" y="98" rx="2" ry="2"/><rect class="c" x="482" y="2" rx="2" ry="2"/><rect class="c" x="482" y="18" rx="2" ry="2"/><rect class="c" x="482" y="34" rx="2" ry="2"/><rect class="c c1t" x="482" y="50" rx="2" ry="2"/><rect class="c c1u" x="482" y="66" rx="2" ry="2"/><rect class="c c1v" x="482" y="82" rx="2" ry="2"/><rect class="c" x="482" y="98" rx="2" ry="2"/><rect class="c" x="498" y="2" rx="2" ry="2"/><rect class="c" x="498" y="18" rx="2" ry="2"/><rect class="c" x="498" y="34" rx="2" ry="2"/><rect class="c" x="498" y="50" rx="2" ry="2"/><rect class="c" x="498" y="66" rx="2" ry="2"/><rect class="c" x="498" y="82" rx="2" ry="2"/><rect class="c c1w" x="498" y="98" rx="2" ry="2"/><rect class="c c1x" x="514" y="2" rx="2" ry="2"/><rect class="c c1y" x="514" y="18" rx="2" ry="2"/><rect class="c c1z" x="514" y="34" rx="2" ry="2"/><rect class="c" x="514" y="50" rx="2" ry="2"/><rect class="c" x="514" y="66" rx="2" ry="2"/><rect class="c c20" x="514" y="82" rx="2" ry="2"/><rect class="c" x="514" y="98" rx="2" ry="2"/><rect class="c" x="530" y="2" rx="2" ry="2"/><rect class="c c21" x="530" y="18" rx="2" ry="2"/><rect class="c c22" x="530" y="34" rx="2" ry="2"/><rect class="c" x="530" y="50" rx="2" ry="2"/><rect class="c" x="530" y="66" rx="2" ry="2"/><rect class="c" x="530" y="82" rx="2" ry="2"/><rect class="c" x="530" y="98" rx="2" ry="2"/><rect class="c" x="546" y="2" rx="2" ry="2"/><rect class="c" x="546" y="18" rx="2" ry="2"/><rect class="c" x="546" y="34" rx="2" ry="2"/><rect class="c" x="546" y="50" rx="2" ry="2"/><rect class="c" x="546" y="66" rx="2" ry="2"/><rect class="c c23" x="546" y="82" rx="2" ry="2"/><rect class="c" x="546" y="98" rx="2" ry="2"/><rect class="c" x="562" y="2" rx="2" ry="2"/><rect class="c" x="562" y="18" rx="2" ry="2"/><rect class="c" x="562" y="34" rx="2" ry="2"/><rect class="c" x="562" y="50" rx="2" ry="2"/><rect class="c c24" x="562" y="66" rx="2" ry="2"/><rect class="c" x="562" y="82" rx="2" ry="2"/><rect class="c" x="562" y="98" rx="2" ry="2"/><rect class="c" x="578" y="2" rx="2" ry="2"/><rect class="c" x="578" y="18" rx="2" ry="2"/><rect class="c" x="578" y="34" rx="2" ry="2"/><rect class="c" x="578" y="50" rx="2" ry="2"/><rect class="c" x="578" y="66" rx="2" ry="2"/><rect class="c" x="578" y="82" rx="2" ry="2"/><rect class="c" x="578" y="98" rx="2" ry="2"/><rect class="c" x="594" y="2" rx="2" ry="2"/><rect class="c" x="594" y="18" rx="2" ry="2"/><rect class="c" x="594" y="34" rx="2" ry="2"/><rect class="c" x="594" y="50" rx="2" ry="2"/><rect class="c" x="594" y="66" rx="2" ry="2"/><rect class="c c25" x="594" y="82" rx="2" ry="2"/><rect class="c" x="594" y="98" rx="2" ry="2"/><rect class="c" x="610" y="2" rx="2" ry="2"/><rect class="c" x="610" y="18" rx="2" ry="2"/><rect class="c" x="610" y="34" rx="2" ry="2"/><rect class="c" x="610" y="50" rx="2" ry="2"/><rect class="c c26" x="610" y="66" rx="2" ry="2"/><rect class="c" x="610" y="82" rx="2" ry="2"/><rect class="c" x="610" y="98" rx="2" ry="2"/><rect class="c" x="626" y="2" rx="2" ry="2"/><rect class="c" x="626" y="18" rx="2" ry="2"/><rect class="c" x="626" y="34" rx="2" ry="2"/><rect class="c" x="626" y="50" rx="2" ry="2"/><rect class="c" x="626" y="66" rx="2" ry="2"/><rect class="c c27" x="626" y="82" rx="2" ry="2"/><rect class="c c28" x="626" y="98" rx="2" ry="2"/><rect class="c" x="642" y="2" rx="2" ry="2"/><rect class="c c29" x="642" y="18" rx="2" ry="2"/><rect class="c c2a" x="642" y="34" rx="2" ry="2"/><rect class="c c2b" x="642" y="50" rx="2" ry="2"/><rect class="c c2c" x="642" y="66" rx="2" ry="2"/><rect class="c" x="642" y="82" rx="2" ry="2"/><rect class="c" x="642" y="98" rx="2" ry="2"/><rect class="c" x="658" y="2" rx="2" ry="2"/><rect class="c" x="658" y="18" rx="2" ry="2"/><rect class="c" x="658" y="34" rx="2" ry="2"/><rect class="c" x="658" y="50" rx="2" ry="2"/><rect class="c" x="658" y="66" rx="2" ry="2"/><rect class="c" x="658" y="82" rx="2" ry="2"/><rect class="c" x="658" y="98" rx="2" ry="2"/><rect class="c" x="674" y="2" rx="2" ry="2"/><rect class="c c2d" x="674" y="18" rx="2" ry="2"/><rect class="c" x="674" y="34" rx="2" ry="2"/><rect class="c" x="674" y="50" rx="2" ry="2"/><rect class="c" x="674" y="66" rx="2" ry="2"/><rect class="c" x="674" y="82" rx="2" ry="2"/><rect class="c" x="674" y="98" rx="2" ry="2"/><rect class="c" x="690" y="2" rx="2" ry="2"/><rect class="c c2e" x="690" y="18" rx="2" ry="2"/><rect class="c" x="690" y="34" rx="2" ry="2"/><rect class="c" x="690" y="50" rx="2" ry="2"/><rect class="c" x="690" y="66" rx="2" ry="2"/><rect class="c" x="690" y="82" rx="2" ry="2"/><rect class="c c2f" x="690" y="98" rx="2" ry="2"/><rect class="c c2g" x="706" y="2" rx="2" ry="2"/><rect class="c" x="706" y="18" rx="2" ry="2"/><rect class="c" x="706" y="34" rx="2" ry="2"/><rect class="c" x="706" y="50" rx="2" ry="2"/><rect class="c" x="706" y="66" rx="2" ry="2"/><rect class="c" x="706" y="82" rx="2" ry="2"/><rect class="c" x="706" y="98" rx="2" ry="2"/><rect class="c" x="722" y="2" rx="2" ry="2"/><rect class="c" x="722" y="18" rx="2" ry="2"/><rect class="c" x="722" y="34" rx="2" ry="2"/><rect class="c" x="722" y="50" rx="2" ry="2"/><rect class="c" x="722" y="66" rx="2" ry="2"/><rect class="c" x="722" y="82" rx="2" ry="2"/><rect class="c" x="722" y="98" rx="2" ry="2"/><rect class="c" x="738" y="2" rx="2" ry="2"/><rect class="c" x="738" y="18" rx="2" ry="2"/><rect class="c" x="738" y="34" rx="2" ry="2"/><rect class="c" x="738" y="50" rx="2" ry="2"/><rect class="c" x="738" y="66" rx="2" ry="2"/><rect class="c" x="738" y="82" rx="2" ry="2"/><rect class="c" x="738" y="98" rx="2" ry="2"/><rect class="c" x="754" y="2" rx="2" ry="2"/><rect class="c" x="754" y="18" rx="2" ry="2"/><rect class="c" x="754" y="34" rx="2" ry="2"/><rect class="c" x="754" y="50" rx="2" ry="2"/><rect class="c" x="754" y="66" rx="2" ry="2"/><rect class="c" x="754" y="82" rx="2" ry="2"/><rect class="c" x="754" y="98" rx="2" ry="2"/><rect class="c" x="770" y="2" rx="2" ry="2"/><rect class="c" x="770" y="18" rx="2" ry="2"/><rect class="c" x="770" y="34" rx="2" ry="2"/><rect class="c" x="770" y="50" rx="2" ry="2"/><rect class="c" x="770" y="66" rx="2" ry="2"/><rect class="c" x="770" y="82" rx="2" ry="2"/><rect class="c" x="770" y="98" rx="2" ry="2"/><rect class="c" x="786" y="2" rx="2" ry="2"/><rect class="c" x="786" y="18" rx="2" ry="2"/><rect class="c" x="786" y="34" rx="2" ry="2"/><rect class="c" x="786" y="50" rx="2" ry="2"/><rect class="c c2h" x="786" y="66" rx="2" ry="2"/><rect class="c" x="786" y="82" rx="2" ry="2"/><rect class="c" x="786" y="98" rx="2" ry="2"/><rect class="c" x="802" y="2" rx="2" ry="2"/><rect class="c c2i" x="802" y="18" rx="2" ry="2"/><rect class="c c2j" x="802" y="34" rx="2" ry="2"/><rect class="c" x="802" y="50" rx="2" ry="2"/><rect class="c c2k" x="802" y="66" rx="2" ry="2"/><rect class="c" x="802" y="82" rx="2" ry="2"/><rect class="c" x="802" y="98" rx="2" ry="2"/><rect class="c" x="818" y="2" rx="2" ry="2"/><rect class="c" x="818" y="18" rx="2" ry="2"/><rect class="c" x="818" y="34" rx="2" ry="2"/><rect class="c" x="818" y="50" rx="2" ry="2"/><rect class="c" x="818" y="66" rx="2" ry="2"/><rect class="c" x="818" y="82" rx="2" ry="2"/><rect class="c" x="818" y="98" rx="2" ry="2"/><rect class="c c2l" x="834" y="2" rx="2" ry="2"/><rect class="c" x="834" y="18" rx="2" ry="2"/><rect class="c c2m" x="834" y="34" rx="2" ry="2"/><rect class="u u0" height="12" width="741.5" x="0.0" y="144"/><rect class="u u1" height="12" width="54.2" x="740.9" y="144"/><rect class="u u2" height="12" width="36.3" x="794.4" y="144"/><rect class="u u3" height="12" width="18.5" x="830.1" y="144"/><rect class="s s0" x="0.8" y="0.8" width="14.4" height="14.4" rx="4.5" ry="4.5"/><rect class="s s1" x="1.8" y="1.8" width="12.3" height="12.3" rx="4.1" ry="4.1"/><rect class="s s2" x="2.6" y="2.6" width="10.8" height="10.8" rx="3.6" ry="3.6"/><rect class="s s3" x="3.0" y="3.0" width="9.9" height="9.9" rx="3.3" ry="3.3"/></svg>