<svg viewBox="-16 -32 880 192" width="880" height="192" xmlns="http://www.w3.org/2000/svg"><desc>Generated with https://github.com/Platane/snk</desc><style>:root{--cb:#1b1f230a;--cs:purple;--ce:#ebedf0;--c0:#ebedf0;--c1:#9be9a8;--c2:#40c463;--c3:#30a14e;--c4:#216e39}.c{shape-rendering:geometricPrecision;fill:var(--ce);stroke-width:1px;stroke:var(--cb);animation:none 37300ms linear infinite;width:12px;height:12px}@keyframes c0{0.79%{fill:var(--c1)}0.81%,100%{fill:var(--ce)}}.c.c0{fill:var(--c1);animation-name:c0}@keyframes c1{3.74%{fill:var(--c1)}3.76%,100%{fill:var(--ce)}}.c.c1{fill:var(--c1);animation-name:c1}@keyframes c2{2.67%{fill:var(--c1)}2.69%,100%{fill:var(--ce)}}.c.c2{fill:var(--c1);animation-name:c2}@keyframes c3{3.48%{fill:var(--c1)}3.5%,100%{fill:var(--ce)}}.c.c3{fill:var(--c1);animation-name:c3}@keyframes c4{2.13%{fill:var(--c1)}2.15%,100%{fill:var(--ce)}}.c.c4{fill:var(--c1);animation-name:c4}@keyframes c5{21.71%{fill:var(--c1)}21.73%,100%{fill:var(--ce)}}.c.c5{fill:var(--c1);animation-name:c5}@keyframes c6{5.62%{fill:var(--c1)}5.64%,100%{fill:var(--ce)}}.c.c6{fill:var(--c1);animation-name:c6}@keyframes c7{5.35%{fill:var(--c1)}5.37%,100%{fill:var(--ce)}}.c.c7{fill:var(--c1);animation-name:c7}@keyframes c8{20.37%{fill:var(--c1)}20.39%,100%{fill:var(--ce)}}.c.c8{fill:var(--c1);animation-name:c8}@keyframes c9{20.1%{fill:var(--c1)}20.12%,100%{fill:var(--ce)}}.c.c9{fill:var(--c1);animation-name:c9}@keyframes ca{19.83%{fill:var(--c1)}19.85%,100%{fill:var(--ce)}}.c.ca{fill:var(--c1);animation-name:ca}@keyframes cb{20.63%{fill:var(--c1)}20.65%,100%{fill:var(--ce)}}.c.cb{fill:var(--c1);animation-name:cb}@keyframes cc{6.69%{fill:var(--c1)}6.71%,100%{fill:var(--ce)}}.c.cc{fill:var(--c1);animation-name:cc}@keyframes cd{6.42%{fill:var(--c1)}6.44%,100%{fill:var(--ce)}}.c.cd{fill:var(--c1);animation-name:cd}@keyframes ce{6.16%{fill:var(--c1)}6.18%,100%{fill:var(--ce)}}.c.ce{fill:var(--c1);animation-name:ce}@keyframes cf{18.76%{fill:var(--c1)}18.78%,100%{fill:var(--ce)}}.c.cf{fill:var(--c1);animation-name:cf}@keyframes cg{18.49%{fill:var(--c1)}18.51%,100%{fill:var(--ce)}}.c.cg{fill:var(--c1);animation-name:cg}@keyframes ch{6.96%{fill:var(--c1)}6.98%,100%{fill:var(--ce)}}.c.ch{fill:var(--c1);animation-name:ch}@keyframes ci{17.68%{fill:var(--c1)}17.7%,100%{fill:var(--ce)}}.c.ci{fill:var(--c1);animation-name:ci}@keyframes cj{17.95%{fill:var(--c1)}17.97%,100%{fill:var(--ce)}}.c.cj{fill:var(--c1);animation-name:cj}@keyframes ck{8.03%{fill:var(--c1)}8.05%,100%{fill:var(--ce)}}.c.ck{fill:var(--c1);animation-name:ck}@keyframes cl{7.76%{fill:var(--c1)}7.78%,100%{fill:var(--ce)}}.c.cl{fill:var(--c1);animation-name:cl}@keyframes cm{7.5%{fill:var(--c1)}7.52%,100%{fill:var(--ce)}}.c.cm{fill:var(--c1);animation-name:cm}@keyframes cn{16.88%{fill:var(--c1)}16.9%,100%{fill:var(--ce)}}.c.cn{fill:var(--c1);animation-name:cn}@keyframes co{17.15%{fill:var(--c1)}17.17%,100%{fill:var(--ce)}}.c.co{fill:var(--c1);animation-name:co}@keyframes cp{8.84%{fill:var(--c1)}8.86%,100%{fill:var(--ce)}}.c.cp{fill:var(--c1);animation-name:cp}@keyframes cq{16.34%{fill:var(--c1)}16.36%,100%{fill:var(--ce)}}.c.cq{fill:var(--c1);animation-name:cq}@keyframes cr{16.08%{fill:var(--c1)}16.1%,100%{fill:var(--ce)}}.c.cr{fill:var(--c1);animation-name:cr}@keyframes cs{24.92%{fill:var(--c1)}24.94%,100%{fill:var(--ce)}}.c.cs{fill:var(--c1);animation-name:cs}@keyframes ct{62.72%{fill:var(--c2)}62.74%,100%{fill:var(--ce)}}.c.ct{fill:var(--c2);animation-name:ct}@keyframes cu{26%{fill:var(--c1)}26.02%,100%{fill:var(--ce)}}.c.cu{fill:var(--c1);animation-name:cu}@keyframes cv{9.64%{fill:var(--c1)}9.66%,100%{fill:var(--ce)}}.c.cv{fill:var(--c1);animation-name:cv}@keyframes cw{9.37%{fill:var(--c1)}9.39%,100%{fill:var(--ce)}}.c.cw{fill:var(--c1);animation-name:cw}@keyframes cx{15.54%{fill:var(--c1)}15.56%,100%{fill:var(--ce)}}.c.cx{fill:var(--c1);animation-name:cx}@keyframes cy{15.81%{fill:var(--c1)}15.83%,100%{fill:var(--ce)}}.c.cy{fill:var(--c1);animation-name:cy}@keyframes cz{25.19%{fill:var(--c1)}25.21%,100%{fill:var(--ce)}}.c.cz{fill:var(--c1);animation-name:cz}@keyframes c10{25.46%{fill:var(--c1)}25.48%,100%{fill:var(--ce)}}.c.c10{fill:var(--c1);animation-name:c10}@keyframes c11{25.73%{fill:var(--c1)}25.75%,100%{fill:var(--ce)}}.c.c11{fill:var(--c1);animation-name:c11}@keyframes c12{10.18%{fill:var(--c1)}10.2%,100%{fill:var(--ce)}}.c.c12{fill:var(--c1);animation-name:c12}@keyframes c13{10.71%{fill:var(--c1)}10.73%,100%{fill:var(--ce)}}.c.c13{fill:var(--c1);animation-name:c13}@keyframes c14{10.98%{fill:var(--c1)}11%,100%{fill:var(--ce)}}.c.c14{fill:var(--c1);animation-name:c14}@keyframes c15{11.25%{fill:var(--c1)}11.27%,100%{fill:var(--ce)}}.c.c15{fill:var(--c1);animation-name:c15}@keyframes c16{27.34%{fill:var(--c1)}27.36%,100%{fill:var(--ce)}}.c.c16{fill:var(--c1);animation-name:c16}@keyframes c17{11.52%{fill:var(--c1)}11.54%,100%{fill:var(--ce)}}.c.c17{fill:var(--c1);animation-name:c17}@keyframes c18{12.05%{fill:var(--c1)}12.07%,100%{fill:var(--ce)}}.c.c18{fill:var(--c1);animation-name:c18}@keyframes c19{11.79%{fill:var(--c1)}11.81%,100%{fill:var(--ce)}}.c.c19{fill:var(--c1);animation-name:c19}@keyframes c1a{13.66%{fill:var(--c1)}13.68%,100%{fill:var(--ce)}}.c.c1a{fill:var(--c1);animation-name:c1a}@keyframes c1b{12.86%{fill:var(--c1)}12.88%,100%{fill:var(--ce)}}.c.c1b{fill:var(--c1);animation-name:c1b}@keyframes c1c{12.59%{fill:var(--c1)}12.61%,100%{fill:var(--ce)}}.c.c1c{fill:var(--c1);animation-name:c1c}@keyframes c1d{13.13%{fill:var(--c1)}13.15%,100%{fill:var(--ce)}}.c.c1d{fill:var(--c1);animation-name:c1d}@keyframes c1e{30.02%{fill:var(--c1)}30.04%,100%{fill:var(--ce)}}.c.c1e{fill:var(--c1);animation-name:c1e}@keyframes c1f{28.68%{fill:var(--c1)}28.7%,100%{fill:var(--ce)}}.c.c1f{fill:var(--c1);animation-name:c1f}@keyframes c1g{29.75%{fill:var(--c1)}29.77%,100%{fill:var(--ce)}}.c.c1g{fill:var(--c1);animation-name:c1g}@keyframes c1h{28.94%{fill:var(--c1)}28.96%,100%{fill:var(--ce)}}.c.c1h{fill:var(--c1);animation-name:c1h}@keyframes c1i{29.48%{fill:var(--c1)}29.5%,100%{fill:var(--ce)}}.c.c1i{fill:var(--c1);animation-name:c1i}@keyframes c1j{29.21%{fill:var(--c1)}29.23%,100%{fill:var(--ce)}}.c.c1j{fill:var(--c1);animation-name:c1j}@keyframes c1k{35.91%{fill:var(--c1)}35.93%,100%{fill:var(--ce)}}.c.c1k{fill:var(--c1);animation-name:c1k}@keyframes c1l{35.11%{fill:var(--c1)}35.13%,100%{fill:var(--ce)}}.c.c1l{fill:var(--c1);animation-name:c1l}@keyframes c1m{34.31%{fill:var(--c1)}34.33%,100%{fill:var(--ce)}}.c.c1m{fill:var(--c1);animation-name:c1m}@keyframes c1n{34.84%{fill:var(--c1)}34.86%,100%{fill:var(--ce)}}.c.c1n{fill:var(--c1);animation-name:c1n}@keyframes c1o{34.57%{fill:var(--c1)}34.59%,100%{fill:var(--ce)}}.c.c1o{fill:var(--c1);animation-name:c1o}@keyframes c1p{56.83%{fill:var(--c2)}56.85%,100%{fill:var(--ce)}}.c.c1p{fill:var(--c2);animation-name:c1p}@keyframes c1q{32.43%{fill:var(--c1)}32.45%,100%{fill:var(--ce)}}.c.c1q{fill:var(--c1);animation-name:c1q}@keyframes c1r{31.63%{fill:var(--c1)}31.65%,100%{fill:var(--ce)}}.c.c1r{fill:var(--c1);animation-name:c1r}@keyframes c1s{32.97%{fill:var(--c1)}32.99%,100%{fill:var(--ce)}}.c.c1s{fill:var(--c1);animation-name:c1s}@keyframes c1t{32.16%{fill:var(--c1)}32.18%,100%{fill:var(--ce)}}.c.c1t{fill:var(--c1);animation-name:c1t}@keyframes c1u{31.89%{fill:var(--c1)}31.91%,100%{fill:var(--ce)}}.c.c1u{fill:var(--c1);animation-name:c1u}@keyframes c1v{57.9%{fill:var(--c2)}57.92%,100%{fill:var(--ce)}}.c.c1v{fill:var(--c2);animation-name:c1v}@keyframes c1w{58.44%{fill:var(--c2)}58.46%,100%{fill:var(--ce)}}.c.c1w{fill:var(--c2);animation-name:c1w}@keyframes c1x{38.33%{fill:var(--c1)}38.35%,100%{fill:var(--ce)}}.c.c1x{fill:var(--c1);animation-name:c1x}@keyframes c1y{37.52%{fill:var(--c1)}37.54%,100%{fill:var(--ce)}}.c.c1y{fill:var(--c1);animation-name:c1y}@keyframes c1z{38.86%{fill:var(--c1)}38.88%,100%{fill:var(--ce)}}.c.c1z{fill:var(--c1);animation-name:c1z}@keyframes c20{39.67%{fill:var(--c1)}39.69%,100%{fill:var(--ce)}}.c.c20{fill:var(--c1);animation-name:c20}@keyframes c21{37.79%{fill:var(--c1)}37.81%,100%{fill:var(--ce)}}.c.c21{fill:var(--c1);animation-name:c21}@keyframes c22{79.35%{fill:var(--c3)}79.37%,100%{fill:var(--ce)}}.c.c22{fill:var(--c3);animation-name:c22}@keyframes c23{40.2%{fill:var(--c1)}40.22%,100%{fill:var(--ce)}}.c.c23{fill:var(--c1);animation-name:c23}@keyframes c24{40.74%{fill:var(--c1)}40.76%,100%{fill:var(--ce)}}.c.c24{fill:var(--c1);animation-name:c24}@keyframes c25{43.69%{fill:var(--c1)}43.71%,100%{fill:var(--ce)}}.c.c25{fill:var(--c1);animation-name:c25}@keyframes c26{41.54%{fill:var(--c1)}41.56%,100%{fill:var(--ce)}}.c.c26{fill:var(--c1);animation-name:c26}@keyframes c27{42.62%{fill:var(--c1)}42.64%,100%{fill:var(--ce)}}.c.c27{fill:var(--c1);animation-name:c27}@keyframes c28{42.89%{fill:var(--c1)}42.91%,100%{fill:var(--ce)}}.c.c28{fill:var(--c1);animation-name:c28}@keyframes c29{45.57%{fill:var(--c1)}45.59%,100%{fill:var(--ce)}}.c.c29{fill:var(--c1);animation-name:c29}@keyframes c2a{77.47%{fill:var(--c3)}77.49%,100%{fill:var(--ce)}}.c.c2a{fill:var(--c3);animation-name:c2a}@keyframes c2b{53.61%{fill:var(--c2)}53.63%,100%{fill:var(--ce)}}.c.c2b{fill:var(--c2);animation-name:c2b}@keyframes c2c{42.08%{fill:var(--c1)}42.1%,100%{fill:var(--ce)}}.c.c2c{fill:var(--c1);animation-name:c2c}@keyframes c2d{46.1%{fill:var(--c1)}46.12%,100%{fill:var(--ce)}}.c.c2d{fill:var(--c1);animation-name:c2d}@keyframes c2e{46.37%{fill:var(--c1)}46.39%,100%{fill:var(--ce)}}.c.c2e{fill:var(--c1);animation-name:c2e}@keyframes c2f{52%{fill:var(--c1)}52.02%,100%{fill:var(--ce)}}.c.c2f{fill:var(--c1);animation-name:c2f}@keyframes c2g{46.91%{fill:var(--c1)}46.93%,100%{fill:var(--ce)}}.c.c2g{fill:var(--c1);animation-name:c2g}@keyframes c2h{49.86%{fill:var(--c1)}49.88%,100%{fill:var(--ce)}}.c.c2h{fill:var(--c1);animation-name:c2h}@keyframes c2i{48.78%{fill:var(--c1)}48.8%,100%{fill:var(--ce)}}.c.c2i{fill:var(--c1);animation-name:c2i}@keyframes c2j{49.05%{fill:var(--c1)}49.07%,100%{fill:var(--ce)}}.c.c2j{fill:var(--c1);animation-name:c2j}@keyframes c2k{49.59%{fill:var(--c1)}49.61%,100%{fill:var(--ce)}}.c.c2k{fill:var(--c1);animation-name:c2k}@keyframes c2l{73.72%{fill:var(--c2)}73.74%,100%{fill:var(--ce)}}.c.c2l{fill:var(--c2);animation-name:c2l}@keyframes c2m{84.98%{fill:var(--c4)}85%,100%{fill:var(--ce)}}.c.c2m{fill:var(--c4);animation-name:c2m}.u{transform-origin:0 0;transform:scale(0,1);animation:none linear 37300ms infinite}@keyframes u0{0.79%{transform:scale(0.000,1)}0.81%,2.13%{transform:scale(0.012,1)}2.15%,2.67%{transform:scale(0.023,1)}2.69%,3.48%{transform:scale(0.035,1)}3.5%,3.74%{transform:scale(0.047,1)}3.76%,5.35%{transform:scale(0.058,1)}5.37%,5.62%{transform:scale(0.070,1)}5.64%,6.16%{transform:scale(0.081,1)}6.18%,6.42%{transform:scale(0.093,1)}6.44%,6.69%{transform:scale(0.105,1)}6.71%,6.96%{transform:scale(0.116,1)}6.98%,7.5%{transform:scale(0.128,1)}7.52%,7.76%{transform:scale(0.140,1)}7.78%,8.03%{transform:scale(0.151,1)}8.05%,8.84%{transform:scale(0.163,1)}8.86%,9.37%{transform:scale(0.174,1)}9.39%,9.64%{transform:scale(0.186,1)}9.66%,10.18%{transform:scale(0.198,1)}10.2%,10.71%{transform:scale(0.209,1)}10.73%,10.98%{transform:scale(0.221,1)}11%,11.25%{transform:scale(0.233,1)}11.27%,11.52%{transform:scale(0.244,1)}11.54%,11.79%{transform:scale(0.256,1)}11.81%,12.05%{transform:scale(0.267,1)}12.07%,12.59%{transform:scale(0.279,1)}12.61%,12.86%{transform:scale(0.291,1)}12.88%,13.13%{transform:scale(0.302,1)}13.15%,13.66%{transform:scale(0.314,1)}13.68%,15.54%{transform:scale(0.326,1)}15.56%,15.81%{transform:scale(0.337,1)}15.83%,16.08%{transform:scale(0.349,1)}16.1%,16.34%{transform:scale(0.360,1)}16.36%,16.88%{transform:scale(0.372,1)}16.9%,17.15%{transform:scale(0.384,1)}17.17%,17.68%{transform:scale(0.395,1)}17.7%,17.95%{transform:scale(0.407,1)}17.97%,18.49%{transform:scale(0.419,1)}18.51%,18.76%{transform:scale(0.430,1)}18.78%,19.83%{transform:scale(0.442,1)}19.85%,20.1%{transform:scale(0.453,1)}20.12%,20.37%{transform:scale(0.465,1)}20.39%,20.63%{transform:scale(0.477,1)}20.65%,21.71%{transform:scale(0.488,1)}21.73%,24.92%{transform:scale(0.500,1)}24.94%,25.19%{transform:scale(0.512,1)}25.21%,25.46%{transform:scale(0.523,1)}25.48%,25.73%{transform:scale(0.535,1)}25.75%,26%{transform:scale(0.547,1)}26.02%,27.34%{transform:scale(0.558,1)}27.36%,28.68%{transform:scale(0.570,1)}28.7%,28.94%{transform:scale(0.581,1)}28.96%,29.21%{transform:scale(0.593,1)}29.23%,29.48%{transform:scale(0.605,1)}29.5%,29.75%{transform:scale(0.616,1)}29.77%,30.02%{transform:scale(0.628,1)}30.04%,31.63%{transform:scale(0.640,1)}31.65%,31.89%{transform:scale(0.651,1)}31.91%,32.16%{transform:scale(0.663,1)}32.18%,32.43%{transform:scale(0.674,1)}32.45%,32.97%{transform:scale(0.686,1)}32.99%,34.31%{transform:scale(0.698,1)}34.33%,34.57%{transform:scale(0.709,1)}34.59%,34.84%{transform:scale(0.721,1)}34.86%,35.11%{transform:scale(0.733,1)}35.13%,35.91%{transform:scale(0.744,1)}35.93%,37.52%{transform:scale(0.756,1)}37.54%,37.79%{transform:scale(0.767,1)}37.81%,38.33%{transform:scale(0.779,1)}38.35%,38.86%{transform:scale(0.791,1)}38.88%,39.67%{transform:scale(0.802,1)}39.69%,40.2%{transform:scale(0.814,1)}40.22%,40.74%{transform:scale(0.826,1)}40.76%,41.54%{transform:scale(0.837,1)}41.56%,42.08%{transform:scale(0.849,1)}42.1%,42.62%{transform:scale(0.860,1)}42.64%,42.89%{transform:scale(0.872,1)}42.91%,43.69%{transform:scale(0.884,1)}43.71%,45.57%{transform:scale(0.895,1)}45.59%,46.1%{transform:scale(0.907,1)}46.12%,46.37%{transform:scale(0.919,1)}46.39%,46.91%{transform:scale(0.930,1)}46.93%,48.78%{transform:scale(0.942,1)}48.8%,49.05%{transform:scale(0.953,1)}49.07%,49.59%{transform:scale(0.965,1)}49.61%,49.86%{transform:scale(0.977,1)}49.88%,52%{transform:scale(0.988,1)}52.02%,100%{transform:scale(1.000,1)}}.u.u0{fill:var(--c1);animation-name:u0;transform-origin:0.0px 0}@keyframes u1{53.61%{transform:scale(0.000,1)}53.63%,56.83%{transform:scale(0.167,1)}56.85%,57.9%{transform:scale(0.333,1)}57.92%,58.44%{transform:scale(0.500,1)}58.46%,62.72%{transform:scale(0.667,1)}62.74%,73.72%{transform:scale(0.833,1)}73.74%,100%{transform:scale(1.000,1)}}.u.u1{fill:var(--c2);animation-name:u1;transform-origin:767.7px 0}@keyframes u2{77.47%{transform:scale(0.000,1)}77.49%,79.35%{transform:scale(0.500,1)}79.37%,100%{transform:scale(1.000,1)}}.u.u2{fill:var(--c3);animation-name:u2;transform-origin:821.2px 0}@keyframes u3{84.98%{transform:scale(0.000,1)}85%,100%{transform:scale(1.000,1)}}.u.u3{fill:var(--c4);animation-name:u3;transform-origin:839.1px 0}.s{shape-rendering:geometricPrecision;fill:var(--cs);animation:none linear 37300ms infinite}@keyframes s0{0%,99.73%{transform:translate(0px,-16px)}0.27%{transform:translate(0px,0px)}0.54%{transform:translate(16px,0px)}0.8%{transform:translate(16px,16px)}1.88%,97.86%{transform:translate(80px,16px)}2.14%{transform:translate(80px,32px)}2.41%{transform:translate(64px,32px)}3.49%{transform:translate(64px,96px)}3.75%{transform:translate(48px,96px)}4.02%{transform:translate(48px,80px)}5.36%{transform:translate(128px,80px)}5.63%{transform:translate(128px,64px)}6.17%{transform:translate(160px,64px)}6.7%,19.57%,96.25%{transform:translate(160px,32px)}7.51%{transform:translate(208px,32px)}8.04%{transform:translate(208px,0px)}8.58%{transform:translate(240px,0px)}8.85%{transform:translate(240px,16px)}9.38%{transform:translate(272px,16px)}9.65%,15.01%{transform:translate(272px,0px)}10.19%{transform:translate(304px,0px)}11.26%{transform:translate(304px,64px)}11.8%{transform:translate(336px,64px)}12.06%{transform:translate(336px,48px)}12.33%{transform:translate(352px,48px)}12.87%{transform:translate(352px,16px)}13.14%{transform:translate(368px,16px)}13.4%{transform:translate(368px,0px)}15.82%{transform:translate(272px,48px)}16.89%{transform:translate(208px,48px)}17.16%{transform:translate(208px,64px)}17.43%{transform:translate(192px,64px)}17.96%{transform:translate(192px,96px)}18.5%{transform:translate(160px,96px)}19.84%{transform:translate(144px,32px)}20.38%{transform:translate(144px,0px)}20.64%{transform:translate(160px,0px)}20.91%{transform:translate(160px,-16px)}21.45%{transform:translate(128px,-16px)}21.72%{transform:translate(128px,0px)}23.86%{transform:translate(256px,0px)}24.93%,63%{transform:translate(256px,64px)}25.2%{transform:translate(272px,64px)}25.74%{transform:translate(272px,96px)}26.01%{transform:translate(256px,96px)}26.27%{transform:translate(256px,112px)}27.08%{transform:translate(304px,112px)}27.35%{transform:translate(304px,96px)}29.22%{transform:translate(416px,96px)}29.49%{transform:translate(416px,80px)}30.03%{transform:translate(384px,80px)}30.29%{transform:translate(384px,64px)}31.9%{transform:translate(480px,64px)}32.17%,57.37%{transform:translate(480px,48px)}32.44%,57.1%{transform:translate(464px,48px)}32.98%{transform:translate(464px,80px)}33.24%{transform:translate(448px,80px)}34.32%,36.46%{transform:translate(448px,16px)}34.58%{transform:translate(464px,16px)}34.85%{transform:translate(464px,0px)}35.39%{transform:translate(432px,0px)}35.92%{transform:translate(432px,32px)}36.19%{transform:translate(448px,32px)}37.8%,79.62%{transform:translate(528px,16px)}38.07%{transform:translate(528px,0px)}38.34%{transform:translate(512px,0px)}39.68%{transform:translate(512px,80px)}40.48%{transform:translate(560px,80px)}40.75%{transform:translate(560px,64px)}42.09%{transform:translate(640px,64px)}42.36%{transform:translate(640px,80px)}42.63%{transform:translate(624px,80px)}42.9%{transform:translate(624px,96px)}43.16%{transform:translate(608px,96px)}43.43%{transform:translate(608px,80px)}43.7%{transform:translate(592px,80px)}43.97%{transform:translate(592px,64px)}44.5%{transform:translate(624px,64px)}45.31%{transform:translate(624px,16px)}46.65%{transform:translate(704px,16px)}46.92%{transform:translate(704px,0px)}48.53%{transform:translate(800px,0px)}49.6%{transform:translate(800px,64px)}51.47%{transform:translate(688px,64px)}52.01%{transform:translate(688px,96px)}52.28%{transform:translate(672px,96px)}53.08%{transform:translate(672px,48px)}55.76%{transform:translate(512px,48px)}56.03%{transform:translate(512px,32px)}56.84%{transform:translate(464px,32px)}57.91%,58.98%{transform:translate(480px,80px)}58.18%{transform:translate(496px,80px)}58.45%{transform:translate(496px,96px)}58.71%{transform:translate(480px,96px)}62.73%{transform:translate(256px,80px)}72.39%{transform:translate(816px,64px)}73.19%{transform:translate(816px,16px)}73.46%,84.72%{transform:translate(832px,16px)}73.73%{transform:translate(832px,0px)}76.94%{transform:translate(640px,0px)}77.48%{transform:translate(640px,32px)}79.36%{transform:translate(528px,32px)}84.99%{transform:translate(832px,32px)}96.51%{transform:translate(160px,16px)}98.12%{transform:translate(80px,0px)}98.39%{transform:translate(64px,0px)}98.66%{transform:translate(64px,-16px)}}.s.s0{transform:translate(0px,-16px);animation-name:s0}@keyframes s1{0%,99.73%{transform:translate(16px,-16px)}0.27%{transform:translate(0px,-16px)}0.54%{transform:translate(0px,0px)}0.8%{transform:translate(16px,0px)}1.07%{transform:translate(16px,16px)}2.14%,98.12%{transform:translate(80px,16px)}2.41%{transform:translate(80px,32px)}2.68%{transform:translate(64px,32px)}3.75%{transform:translate(64px,96px)}4.02%{transform:translate(48px,96px)}4.29%{transform:translate(48px,80px)}5.63%{transform:translate(128px,80px)}5.9%{transform:translate(128px,64px)}6.43%{transform:translate(160px,64px)}6.97%,19.84%,96.51%{transform:translate(160px,32px)}7.77%{transform:translate(208px,32px)}8.31%{transform:translate(208px,0px)}8.85%{transform:translate(240px,0px)}9.12%{transform:translate(240px,16px)}9.65%{transform:translate(272px,16px)}9.92%,15.28%{transform:translate(272px,0px)}10.46%{transform:translate(304px,0px)}11.53%{transform:translate(304px,64px)}12.06%{transform:translate(336px,64px)}12.33%{transform:translate(336px,48px)}12.6%{transform:translate(352px,48px)}13.14%{transform:translate(352px,16px)}13.4%{transform:translate(368px,16px)}13.67%{transform:translate(368px,0px)}16.09%{transform:translate(272px,48px)}17.16%{transform:translate(208px,48px)}17.43%{transform:translate(208px,64px)}17.69%{transform:translate(192px,64px)}18.23%{transform:translate(192px,96px)}18.77%{transform:translate(160px,96px)}20.11%{transform:translate(144px,32px)}20.64%{transform:translate(144px,0px)}20.91%{transform:translate(160px,0px)}21.18%{transform:translate(160px,-16px)}21.72%{transform:translate(128px,-16px)}21.98%{transform:translate(128px,0px)}24.13%{transform:translate(256px,0px)}25.2%,63.27%{transform:translate(256px,64px)}25.47%{transform:translate(272px,64px)}26.01%{transform:translate(272px,96px)}26.27%{transform:translate(256px,96px)}26.54%{transform:translate(256px,112px)}27.35%{transform:translate(304px,112px)}27.61%{transform:translate(304px,96px)}29.49%{transform:translate(416px,96px)}29.76%{transform:translate(416px,80px)}30.29%{transform:translate(384px,80px)}30.56%{transform:translate(384px,64px)}32.17%{transform:translate(480px,64px)}32.44%,57.64%{transform:translate(480px,48px)}32.71%,57.37%{transform:translate(464px,48px)}33.24%{transform:translate(464px,80px)}33.51%{transform:translate(448px,80px)}34.58%,36.73%{transform:translate(448px,16px)}34.85%{transform:translate(464px,16px)}35.12%{transform:translate(464px,0px)}35.66%{transform:translate(432px,0px)}36.19%{transform:translate(432px,32px)}36.46%{transform:translate(448px,32px)}38.07%,79.89%{transform:translate(528px,16px)}38.34%{transform:translate(528px,0px)}38.61%{transform:translate(512px,0px)}39.95%{transform:translate(512px,80px)}40.75%{transform:translate(560px,80px)}41.02%{transform:translate(560px,64px)}42.36%{transform:translate(640px,64px)}42.63%{transform:translate(640px,80px)}42.9%{transform:translate(624px,80px)}43.16%{transform:translate(624px,96px)}43.43%{transform:translate(608px,96px)}43.7%{transform:translate(608px,80px)}43.97%{transform:translate(592px,80px)}44.24%{transform:translate(592px,64px)}44.77%{transform:translate(624px,64px)}45.58%{transform:translate(624px,16px)}46.92%{transform:translate(704px,16px)}47.18%{transform:translate(704px,0px)}48.79%{transform:translate(800px,0px)}49.87%{transform:translate(800px,64px)}51.74%{transform:translate(688px,64px)}52.28%{transform:translate(688px,96px)}52.55%{transform:translate(672px,96px)}53.35%{transform:translate(672px,48px)}56.03%{transform:translate(512px,48px)}56.3%{transform:translate(512px,32px)}57.1%{transform:translate(464px,32px)}58.18%,59.25%{transform:translate(480px,80px)}58.45%{transform:translate(496px,80px)}58.71%{transform:translate(496px,96px)}58.98%{transform:translate(480px,96px)}63%{transform:translate(256px,80px)}72.65%{transform:translate(816px,64px)}73.46%{transform:translate(816px,16px)}73.73%,84.99%{transform:translate(832px,16px)}73.99%{transform:translate(832px,0px)}77.21%{transform:translate(640px,0px)}77.75%{transform:translate(640px,32px)}79.62%{transform:translate(528px,32px)}85.25%{transform:translate(832px,32px)}96.78%{transform:translate(160px,16px)}98.39%{transform:translate(80px,0px)}98.66%{transform:translate(64px,0px)}98.93%{transform:translate(64px,-16px)}}.s.s1{transform:translate(16px,-16px);animation-name:s1}@keyframes s2{0%,99.73%{transform:translate(32px,-16px)}0.54%{transform:translate(0px,-16px)}0.8%{transform:translate(0px,0px)}1.07%{transform:translate(16px,0px)}1.34%{transform:translate(16px,16px)}2.41%,98.39%{transform:translate(80px,16px)}2.68%{transform:translate(80px,32px)}2.95%{transform:translate(64px,32px)}4.02%{transform:translate(64px,96px)}4.29%{transform:translate(48px,96px)}4.56%{transform:translate(48px,80px)}5.9%{transform:translate(128px,80px)}6.17%{transform:translate(128px,64px)}6.7%{transform:translate(160px,64px)}7.24%,20.11%,96.78%{transform:translate(160px,32px)}8.04%{transform:translate(208px,32px)}8.58%{transform:translate(208px,0px)}9.12%{transform:translate(240px,0px)}9.38%{transform:translate(240px,16px)}9.92%{transform:translate(272px,16px)}10.19%,15.55%{transform:translate(272px,0px)}10.72%{transform:translate(304px,0px)}11.8%{transform:translate(304px,64px)}12.33%{transform:translate(336px,64px)}12.6%{transform:translate(336px,48px)}12.87%{transform:translate(352px,48px)}13.4%{transform:translate(352px,16px)}13.67%{transform:translate(368px,16px)}13.94%{transform:translate(368px,0px)}16.35%{transform:translate(272px,48px)}17.43%{transform:translate(208px,48px)}17.69%{transform:translate(208px,64px)}17.96%{transform:translate(192px,64px)}18.5%{transform:translate(192px,96px)}19.03%{transform:translate(160px,96px)}20.38%{transform:translate(144px,32px)}20.91%{transform:translate(144px,0px)}21.18%{transform:translate(160px,0px)}21.45%{transform:translate(160px,-16px)}21.98%{transform:translate(128px,-16px)}22.25%{transform:translate(128px,0px)}24.4%{transform:translate(256px,0px)}25.47%,63.54%{transform:translate(256px,64px)}25.74%{transform:translate(272px,64px)}26.27%{transform:translate(272px,96px)}26.54%{transform:translate(256px,96px)}26.81%{transform:translate(256px,112px)}27.61%{transform:translate(304px,112px)}27.88%{transform:translate(304px,96px)}29.76%{transform:translate(416px,96px)}30.03%{transform:translate(416px,80px)}30.56%{transform:translate(384px,80px)}30.83%{transform:translate(384px,64px)}32.44%{transform:translate(480px,64px)}32.71%,57.91%{transform:translate(480px,48px)}32.98%,57.64%{transform:translate(464px,48px)}33.51%{transform:translate(464px,80px)}33.78%{transform:translate(448px,80px)}34.85%,37%{transform:translate(448px,16px)}35.12%{transform:translate(464px,16px)}35.39%{transform:translate(464px,0px)}35.92%{transform:translate(432px,0px)}36.46%{transform:translate(432px,32px)}36.73%{transform:translate(448px,32px)}38.34%,80.16%{transform:translate(528px,16px)}38.61%{transform:translate(528px,0px)}38.87%{transform:translate(512px,0px)}40.21%{transform:translate(512px,80px)}41.02%{transform:translate(560px,80px)}41.29%{transform:translate(560px,64px)}42.63%{transform:translate(640px,64px)}42.9%{transform:translate(640px,80px)}43.16%{transform:translate(624px,80px)}43.43%{transform:translate(624px,96px)}43.7%{transform:translate(608px,96px)}43.97%{transform:translate(608px,80px)}44.24%{transform:translate(592px,80px)}44.5%{transform:translate(592px,64px)}45.04%{transform:translate(624px,64px)}45.84%{transform:translate(624px,16px)}47.18%{transform:translate(704px,16px)}47.45%{transform:translate(704px,0px)}49.06%{transform:translate(800px,0px)}50.13%{transform:translate(800px,64px)}52.01%{transform:translate(688px,64px)}52.55%{transform:translate(688px,96px)}52.82%{transform:translate(672px,96px)}53.62%{transform:translate(672px,48px)}56.3%{transform:translate(512px,48px)}56.57%{transform:translate(512px,32px)}57.37%{transform:translate(464px,32px)}58.45%,59.52%{transform:translate(480px,80px)}58.71%{transform:translate(496px,80px)}58.98%{transform:translate(496px,96px)}59.25%{transform:translate(480px,96px)}63.27%{transform:translate(256px,80px)}72.92%{transform:translate(816px,64px)}73.73%{transform:translate(816px,16px)}73.99%,85.25%{transform:translate(832px,16px)}74.26%{transform:translate(832px,0px)}77.48%{transform:translate(640px,0px)}78.02%{transform:translate(640px,32px)}79.89%{transform:translate(528px,32px)}85.52%{transform:translate(832px,32px)}97.05%{transform:translate(160px,16px)}98.66%{transform:translate(80px,0px)}98.93%{transform:translate(64px,0px)}99.2%{transform:translate(64px,-16px)}}.s.s2{transform:translate(32px,-16px);animation-name:s2}@keyframes s3{0%,99.73%{transform:translate(48px,-16px)}0.8%{transform:translate(0px,-16px)}1.07%{transform:translate(0px,0px)}1.34%{transform:translate(16px,0px)}1.61%{transform:translate(16px,16px)}2.68%,98.66%{transform:translate(80px,16px)}2.95%{transform:translate(80px,32px)}3.22%{transform:translate(64px,32px)}4.29%{transform:translate(64px,96px)}4.56%{transform:translate(48px,96px)}4.83%{transform:translate(48px,80px)}6.17%{transform:translate(128px,80px)}6.43%{transform:translate(128px,64px)}6.97%{transform:translate(160px,64px)}7.51%,20.38%,97.05%{transform:translate(160px,32px)}8.31%{transform:translate(208px,32px)}8.85%{transform:translate(208px,0px)}9.38%{transform:translate(240px,0px)}9.65%{transform:translate(240px,16px)}10.19%{transform:translate(272px,16px)}10.46%,15.82%{transform:translate(272px,0px)}10.99%{transform:translate(304px,0px)}12.06%{transform:translate(304px,64px)}12.6%{transform:translate(336px,64px)}12.87%{transform:translate(336px,48px)}13.14%{transform:translate(352px,48px)}13.67%{transform:translate(352px,16px)}13.94%{transform:translate(368px,16px)}14.21%{transform:translate(368px,0px)}16.62%{transform:translate(272px,48px)}17.69%{transform:translate(208px,48px)}17.96%{transform:translate(208px,64px)}18.23%{transform:translate(192px,64px)}18.77%{transform:translate(192px,96px)}19.3%{transform:translate(160px,96px)}20.64%{transform:translate(144px,32px)}21.18%{transform:translate(144px,0px)}21.45%{transform:translate(160px,0px)}21.72%{transform:translate(160px,-16px)}22.25%{transform:translate(128px,-16px)}22.52%{transform:translate(128px,0px)}24.66%{transform:translate(256px,0px)}25.74%,63.81%{transform:translate(256px,64px)}26.01%{transform:translate(272px,64px)}26.54%{transform:translate(272px,96px)}26.81%{transform:translate(256px,96px)}27.08%{transform:translate(256px,112px)}27.88%{transform:translate(304px,112px)}28.15%{transform:translate(304px,96px)}30.03%{transform:translate(416px,96px)}30.29%{transform:translate(416px,80px)}30.83%{transform:translate(384px,80px)}31.1%{transform:translate(384px,64px)}32.71%{transform:translate(480px,64px)}32.98%,58.18%{transform:translate(480px,48px)}33.24%,57.91%{transform:translate(464px,48px)}33.78%{transform:translate(464px,80px)}34.05%{transform:translate(448px,80px)}35.12%,37.27%{transform:translate(448px,16px)}35.39%{transform:translate(464px,16px)}35.66%{transform:translate(464px,0px)}36.19%{transform:translate(432px,0px)}36.73%{transform:translate(432px,32px)}37%{transform:translate(448px,32px)}38.61%,80.43%{transform:translate(528px,16px)}38.87%{transform:translate(528px,0px)}39.14%{transform:translate(512px,0px)}40.48%{transform:translate(512px,80px)}41.29%{transform:translate(560px,80px)}41.55%{transform:translate(560px,64px)}42.9%{transform:translate(640px,64px)}43.16%{transform:translate(640px,80px)}43.43%{transform:translate(624px,80px)}43.7%{transform:translate(624px,96px)}43.97%{transform:translate(608px,96px)}44.24%{transform:translate(608px,80px)}44.5%{transform:translate(592px,80px)}44.77%{transform:translate(592px,64px)}45.31%{transform:translate(624px,64px)}46.11%{transform:translate(624px,16px)}47.45%{transform:translate(704px,16px)}47.72%{transform:translate(704px,0px)}49.33%{transform:translate(800px,0px)}50.4%{transform:translate(800px,64px)}52.28%{transform:translate(688px,64px)}52.82%{transform:translate(688px,96px)}53.08%{transform:translate(672px,96px)}53.89%{transform:translate(672px,48px)}56.57%{transform:translate(512px,48px)}56.84%{transform:translate(512px,32px)}57.64%{transform:translate(464px,32px)}58.71%,59.79%{transform:translate(480px,80px)}58.98%{transform:translate(496px,80px)}59.25%{transform:translate(496px,96px)}59.52%{transform:translate(480px,96px)}63.54%{transform:translate(256px,80px)}73.19%{transform:translate(816px,64px)}73.99%{transform:translate(816px,16px)}74.26%,85.52%{transform:translate(832px,16px)}74.53%{transform:translate(832px,0px)}77.75%{transform:translate(640px,0px)}78.28%{transform:translate(640px,32px)}80.16%{transform:translate(528px,32px)}85.79%{transform:translate(832px,32px)}97.32%{transform:translate(160px,16px)}98.93%{transform:translate(80px,0px)}99.2%{transform:translate(64px,0px)}99.46%{transform:translate(64px,-16px)}}.s.s3{transform:translate(48px,-16px);animation-name:s3}</style><rect class="c" x="2" y="2" rx="2" ry="2"/><rect class="c" x="2" y="18" rx="2" ry="2"/><rect class="c" x="2" y="34" rx="2" ry="2"/><rect class="c" x="2" y="50" rx="2" ry="2"/><rect class="c" x="2" y="66" rx="2" ry="2"/><rect class="c" x="2" y="82" rx="2" ry="2"/><rect class="c" x="2" y="98" rx="2" ry="2"/><rect class="c" x="18" y="2" rx="2" ry="2"/><rect class="c c0" x="18" y="18" rx="2" ry="2"/><rect class="c" x="18" y="34" rx="2" ry="2"/><rect class="c" x="18" y="50" rx="2" ry="2"/><rect class="c" x="18" y="66" rx="2" ry="2"/><rect class="c" x="18" y="82" rx="2" ry="2"/><rect class="c" x="18" y="98" rx="2" ry="2"/><rect class="c" x="34" y="2" rx="2" ry="2"/><rect class="c" x="34" y="18" rx="2" ry="2"/><rect class="c" x="34" y="34" rx="2" ry="2"/><rect class="c" x="34" y="50" rx="2" ry="2"/><rect class="c" x="34" y="66" rx="2" ry="2"/><rect class="c" x="34" y="82" rx="2" ry="2"/><rect class="c" x="34" y="98" rx="2" ry="2"/><rect class="c" x="50" y="2" rx="2" ry="2"/><rect class="c" x="50" y="18" rx="2" ry="2"/><rect class="c" x="50" y="34" rx="2" ry="2"/><rect class="c" x="50" y="50" rx="2" ry="2"/><rect class="c" x="50" y="66" rx="2" ry="2"/><rect class="c" x="50" y="82" rx="2" ry="2"/><rect class="c c1" x="50" y="98" rx="2" ry="2"/><rect class="c" x="66" y="2" rx="2" ry="2"/><rect class="c" x="66" y="18" rx="2" ry="2"/><rect class="c" x="66" y="34" rx="2" ry="2"/><rect class="c c2" x="66" y="50" rx="2" ry="2"/><rect class="c" x="66" y="66" rx="2" ry="2"/><rect class="c" x="66" y="82" rx="2" ry="2"/><rect class="c c3" x="66" y="98" rx="2" ry="2"/><rect class="c" x="82" y="2" rx="2" ry="2"/><rect class="c" x="82" y="18" rx="2" ry="2"/><rect class="c c4" x="82" y="34" rx="2" ry="2"/><rect class="c" x="82" y="50" rx="2" ry="2"/><rect class="c" x="82" y="66" rx="2" ry="2"/><rect class="c" x="82" y="82" rx="2" ry="2"/><rect class="c" x="82" y="98" rx="2" ry="2"/><rect class="c" x="98" y="2" rx="2" ry="2"/><rect class="c" x="98" y="18" rx="2" ry="2"/><rect class="c" x="98" y="34" rx="2" ry="2"/><rect class="c" x="98" y="50" rx="2" ry="2"/><rect class="c" x="98" y="66" rx="2" ry="2"/><rect class="c" x="98" y="82" rx="2" ry="2"/><rect class="c" x="98" y="98" rx="2" ry="2"/><rect class="c" x="114" y="2" rx="2" ry="2"/><rect class="c" x="114" y="18" rx="2" ry="2"/><rect class="c" x="114" y="34" rx="2" ry="2"/><rect class="c" x="114" y="50" rx="2" ry="2"/><rect class="c" x="114" y="66" rx="2" ry="2"/><rect class="c" x="114" y="82" rx="2" ry="2"/><rect class="c" x="114" y="98" rx="2" ry="2"/><rect class="c c5" x="130" y="2" rx="2" ry="2"/><rect class="c" x="130" y="18" rx="2" ry="2"/><rect class="c" x="130" y="34" rx="2" ry="2"/><rect class="c" x="130" y="50" rx="2" ry="2"/><rect class="c c6" x="130" y="66" rx="2" ry="2"/><rect class="c c7" x="130" y="82" rx="2" ry="2"/><rect class="c" x="130" y="98" rx="2" ry="2"/><rect class="c c8" x="146" y="2" rx="2" ry="2"/><rect class="c c9" x="146" y="18" rx="2" ry="2"/><rect class="c ca" x="146" y="34" rx="2" ry="2"/><rect class="c" x="146" y="50" rx="2" ry="2"/><rect class="c" x="146" y="66" rx="2" ry="2"/><rect class="c" x="146" y="82" rx="2" ry="2"/><rect class="c" x="146" y="98" rx="2" ry="2"/><rect class="c cb" x="162" y="2" rx="2" ry="2"/><rect class="c" x="162" y="18" rx="2" ry="2"/><rect class="c cc" x="162" y="34" rx="2" ry="2"/><rect class="c cd" x="162" y="50" rx="2" ry="2"/><rect class="c ce" x="162" y="66" rx="2" ry="2"/><rect class="c cf" x="162" y="82" rx="2" ry="2"/><rect class="c cg" x="162" y="98" rx="2" ry="2"/><rect class="c" x="178" y="2" rx="2" ry="2"/><rect class="c" x="178" y="18" rx="2" ry="2"/><rect class="c ch" x="178" y="34" rx="2" ry="2"/><rect class="c" x="178" y="50" rx="2" ry="2"/><rect class="c" x="178" y="66" rx="2" ry="2"/><rect class="c" x="178" y="82" rx="2" ry="2"/><rect class="c" x="178" y="98" rx="2" ry="2"/><rect class="c" x="194" y="2" rx="2" ry="2"/><rect class="c" x="194" y="18" rx="2" ry="2"/><rect class="c" x="194" y="34" rx="2" ry="2"/><rect class="c" x="194" y="50" rx="2" ry="2"/><rect class="c" x="194" y="66" rx="2" ry="2"/><rect class="c ci" x="194" y="82" rx="2" ry="2"/><rect class="c cj" x="194" y="98" rx="2" ry="2"/><rect class="c ck" x="210" y="2" rx="2" ry="2"/><rect class="c cl" x="210" y="18" rx="2" ry="2"/><rect class="c cm" x="210" y="34" rx="2" ry="2"/><rect class="c cn" x="210" y="50" rx="2" ry="2"/><rect class="c co" x="210" y="66" rx="2" ry="2"/><rect class="c" x="210" y="82" rx="2" ry="2"/><rect class="c" x="210" y="98" rx="2" ry="2"/><rect class="c" x="226" y="2" rx="2" ry="2"/><rect class="c" x="226" y="18" rx="2" ry="2"/><rect class="c" x="226" y="34" rx="2" ry="2"/><rect class="c" x="226" y="50" rx="2" ry="2"/><rect class="c" x="226" y="66" rx="2" ry="2"/><rect class="c" x="226" y="82" rx="2" ry="2"/><rect class="c" x="226" y="98" rx="2" ry="2"/><rect class="c" x="242" y="2" rx="2" ry="2"/><rect class="c cp" x="242" y="18" rx="2" ry="2"/><rect class="c" x="242" y="34" rx="2" ry="2"/><rect class="c cq" x="242" y="50" rx="2" ry="2"/><rect class="c" x="242" y="66" rx="2" ry="2"/><rect class="c" x="242" y="82" rx="2" ry="2"/><rect class="c" x="242" y="98" rx="2" ry="2"/><rect class="c" x="258" y="2" rx="2" ry="2"/><rect class="c" x="258" y="18" rx="2" ry="2"/><rect class="c" x="258" y="34" rx="2" ry="2"/><rect class="c cr" x="258" y="50" rx="2" ry="2"/><rect class="c cs" x="258" y="66" rx="2" ry="2"/><rect class="c ct" x="258" y="82" rx="2" ry="2"/><rect class="c cu" x="258" y="98" rx="2" ry="2"/><rect class="c cv" x="274" y="2" rx="2" ry="2"/><rect class="c cw" x="274" y="18" rx="2" ry="2"/><rect class="c cx" x="274" y="34" rx="2" ry="2"/><rect class="c cy" x="274" y="50" rx="2" ry="2"/><rect class="c cz" x="274" y="66" rx="2" ry="2"/><rect class="c c10" x="274" y="82" rx="2" ry="2"/><rect class="c c11" x="274" y="98" rx="2" ry="2"/><rect class="c" x="290" y="2" rx="2" ry="2"/><rect class="c" x="290" y="18" rx="2" ry="2"/><rect class="c" x="290" y="34" rx="2" ry="2"/><rect class="c" x="290" y="50" rx="2" ry="2"/><rect class="c" x="290" y="66" rx="2" ry="2"/><rect class="c" x="290" y="82" rx="2" ry="2"/><rect class="c" x="290" y="98" rx="2" ry="2"/><rect class="c c12" x="306" y="2" rx="2" ry="2"/><rect class="c" x="306" y="18" rx="2" ry="2"/><rect class="c c13" x="306" y="34" rx="2" ry="2"/><rect class="c c14" x="306" y="50" rx="2" ry="2"/><rect class="c c15" x="306" y="66" rx="2" ry="2"/><rect class="c" x="306" y="82" rx="2" ry="2"/><rect class="c c16" x="306" y="98" rx="2" ry="2"/><rect class="c" x="322" y="2" rx="2" ry="2"/><rect class="c" x="322" y="18" rx="2" ry="2"/><rect class="c" x="322" y="34" rx="2" ry="2"/><rect class="c" x="322" y="50" rx="2" ry="2"/><rect class="c c17" x="322" y="66" rx="2" ry="2"/><rect class="c" x="322" y="82" rx="2" ry="2"/><rect class="c" x="322" y="98" rx="2" ry="2"/><rect class="c" x="338" y="2" rx="2" ry="2"/><rect class="c" x="338" y="18" rx="2" ry="2"/><rect class="c" x="338" y="34" rx="2" ry="2"/><rect class="c c18" x="338" y="50" rx="2" ry="2"/><rect class="c c19" x="338" y="66" rx="2" ry="2"/><rect class="c" x="338" y="82" rx="2" ry="2"/><rect class="c" x="338" y="98" rx="2" ry="2"/><rect class="c c1a" x="354" y="2" rx="2" ry="2"/><rect class="c c1b" x="354" y="18" rx="2" ry="2"/><rect class="c c1c" x="354" y="34" rx="2" ry="2"/><rect class="c" x="354" y="50" rx="2" ry="2"/><rect class="c" x="354" y="66" rx="2" ry="2"/><rect class="c" x="354" y="82" rx="2" ry="2"/><rect class="c" x="354" y="98" rx="2" ry="2"/><rect class="c" x="370" y="2" rx="2" ry="2"/><rect class="c c1d" x="370" y="18" rx="2" ry="2"/><rect class="c" x="370" y="34" rx="2" ry="2"/><rect class="c" x="370" y="50" rx="2" ry="2"/><rect class="c" x="370" y="66" rx="2" ry="2"/><rect class="c" x="370" y="82" rx="2" ry="2"/><rect class="c" x="370" y="98" rx="2" ry="2"/><rect class="c" x="386" y="2" rx="2" ry="2"/><rect class="c" x="386" y="18" rx="2" ry="2"/><rect class="c" x="386" y="34" rx="2" ry="2"/><rect class="c" x="386" y="50" rx="2" ry="2"/><rect class="c" x="386" y="66" rx="2" ry="2"/><rect class="c c1e" x="386" y="82" rx="2" ry="2"/><rect class="c c1f" x="386" y="98" rx="2" ry="2"/><rect class="c" x="402" y="2" rx="2" ry="2"/><rect class="c" x="402" y="18" rx="2" ry="2"/><rect class="c" x="402" y="34" rx="2" ry="2"/><rect class="c" x="402" y="50" rx="2" ry="2"/><rect class="c" x="402" y="66" rx="2" ry="2"/><rect class="c c1g" x="402" y="82" rx="2" ry="2"/><rect class="c c1h" x="402" y="98" rx="2" ry="2"/><rect class="c" x="418" y="2" rx="2" ry="2"/><rect class="c" x="418" y="18" rx="2" ry="2"/><rect class="c" x="418" y="34" rx="2" ry="2"/><rect class="c" x="418" y="50" rx="2" ry="2"/><rect class="c" x="418" y="66" rx="2" ry="2"/><rect class="c c1i" x="418" y="82" rx="2" ry="2"/><rect class="c c1j" x="418" y="98" rx="2" ry="2"/><rect class="c" x="434" y="2" rx="2" ry="2"/><rect class="c" x="434" y="18" rx="2" ry="2"/><rect class="c c1k" x="434" y="34" rx="2" ry="2"/><rect class="c" x="434" y="50" rx="2" ry="2"/><rect class="c" x="434" y="66" rx="2" ry="2"/><rect class="c" x="434" y="82" rx="2" ry="2"/><rect class="c" x="434" y="98" rx="2" ry="2"/><rect class="c c1l" x="450" y="2" rx="2" ry="2"/><rect class="c c1m" x="450" y="18" rx="2" ry="2"/><rect class="c" x="450" y="34" rx="2" ry="2"/><rect class="c" x="450" y="50" rx="2" ry="2"/><rect class="c" x="450" y="66" rx="2" ry="2"/><rect class="c" x="450" y="82" rx="2" ry="2"/><rect class="c" x="450" y="98" rx="2" ry="2"/><rect class="c c1n" x="466" y="2" rx="2" ry="2"/><rect class="c c1o" x="466" y="18" rx="2" ry="2"/><rect class="c c1p" x="466" y="34" rx="2" ry="2"/><rect class="c c1q" x="466" y="50" rx="2" ry="2"/><rect class="c c1r" x="466" y="66" rx="2" ry="2"/><rect class="c c1s" x="466" y="82" rx="2" ry="2"/><rect class="c" x="466" y="98" rx="2" ry="2"/><rect class="c" x="482" y="2" rx="2" ry="2"/><rect class="c" x="482" y="18" rx="2" ry="2"/><rect class="c" x="482" y="34" rx="2" ry="2"/><rect class="c c1t" x="482" y="50" rx="2" ry="2"/><rect class="c c1u" x="482" y="66" rx="2" ry="2"/><rect class="c c1v" x="482" y="82" rx="2" ry="2"/><rect class="c" x="482" y="98" rx="2" ry="2"/><rect class="c" x="498" y="2" rx="2" ry="2"/><rect class="c" x="498" y="18" rx="2" ry="2"/><rect class="c" x="498" y="34" rx="2" ry="2"/><rect class="c" x="498" y="50" rx="2" ry="2"/><rect class="c" x="498" y="66" rx="2" ry="2"/><rect class="c" x="498" y="82" rx="2" ry="2"/><rect class="c c1w" x="498" y="98" rx="2" ry="2"/><rect class="c c1x" x="514" y="2" rx="2" ry="2"/><rect class="c c1y" x="514" y="18" rx="2" ry="2"/><rect class="c c1z" x="514" y="34" rx="2" ry="2"/><rect class="c" x="514" y="50" rx="2" ry="2"/><rect class="c" x="514" y="66" rx="2" ry="2"/><rect class="c c20" x="514" y="82" rx="2" ry="2"/><rect class="c" x="514" y="98" rx="2" ry="2"/><rect class="c" x="530" y="2" rx="2" ry="2"/><rect class="c c21" x="530" y="18" rx="2" ry="2"/><rect class="c c22" x="530" y="34" rx="2" ry="2"/><rect class="c" x="530" y="50" rx="2" ry="2"/><rect class="c" x="530" y="66" rx="2" ry="2"/><rect class="c" x="530" y="82" rx="2" ry="2"/><rect class="c" x="530" y="98" rx="2" ry="2"/><rect class="c" x="546" y="2" rx="2" ry="2"/><rect class="c" x="546" y="18" rx="2" ry="2"/><rect class="c" x="546" y="34" rx="2" ry="2"/><rect class="c" x="546" y="50" rx="2" ry="2"/><rect class="c" x="546" y="66" rx="2" ry="2"/><rect class="c c23" x="546" y="82" rx="2" ry="2"/><rect class="c" x="546" y="98" rx="2" ry="2"/><rect class="c" x="562" y="2" rx="2" ry="2"/><rect class="c" x="562" y="18" rx="2" ry="2"/><rect class="c" x="562" y="34" rx="2" ry="2"/><rect class="c" x="562" y="50" rx="2" ry="2"/><rect class="c c24" x="562" y="66" rx="2" ry="2"/><rect class="c" x="562" y="82" rx="2" ry="2"/><rect class="c" x="562" y="98" rx="2" ry="2"/><rect class="c" x="578" y="2" rx="2" ry="2"/><rect class="c" x="578" y="18" rx="2" ry="2"/><rect class="c" x="578" y="34" rx="2" ry="2"/><rect class="c" x="578" y="50" rx="2" ry="2"/><rect class="c" x="578" y="66" rx="2" ry="2"/><rect class="c" x="578" y="82" rx="2" ry="2"/><rect class="c" x="578" y="98" rx="2" ry="2"/><rect class="c" x="594" y="2" rx="2" ry="2"/><rect class="c" x="594" y="18" rx="2" ry="2"/><rect class="c" x="594" y="34" rx="2" ry="2"/><rect class="c" x="594" y="50" rx="2" ry="2"/><rect class="c" x="594" y="66" rx="2" ry="2"/><rect class="c c25" x="594" y="82" rx="2" ry="2"/><rect class="c" x="594" y="98" rx="2" ry="2"/><rect class="c" x="610" y="2" rx="2" ry="2"/><rect class="c" x="610" y="18" rx="2" ry="2"/><rect class="c" x="610" y="34" rx="2" ry="2"/><rect class="c" x="610" y="50" rx="2" ry="2"/><rect class="c c26" x="610" y="66" rx="2" ry="2"/><rect class="c" x="610" y="82" rx="2" ry="2"/><rect class="c" x="610" y="98" rx="2" ry="2"/><rect class="c" x="626" y="2" rx="2" ry="2"/><rect class="c" x="626" y="18" rx="2" ry="2"/><rect class="c" x="626" y="34" rx="2" ry="2"/><rect class="c" x="626" y="50" rx="2" ry="2"/><rect class="c" x="626" y="66" rx="2" ry="2"/><rect class="c c27" x="626" y="82" rx="2" ry="2"/><rect class="c c28" x="626" y="98" rx="2" ry="2"/><rect class="c" x="642" y="2" rx="2" ry="2"/><rect class="c c29" x="642" y="18" rx="2" ry="2"/><rect class="c c2a" x="642" y="34" rx="2" ry="2"/><rect class="c c2b" x="642" y="50" rx="2" ry="2"/><rect class="c c2c" x="642" y="66" rx="2" ry="2"/><rect class="c" x="642" y="82" rx="2" ry="2"/><rect class="c" x="642" y="98" rx="2" ry="2"/><rect class="c" x="658" y="2" rx="2" ry="2"/><rect class="c" x="658" y="18" rx="2" ry="2"/><rect class="c" x="658" y="34" rx="2" ry="2"/><rect class="c" x="658" y="50" rx="2" ry="2"/><rect class="c" x="658" y="66" rx="2" ry="2"/><rect class="c" x="658" y="82" rx="2" ry="2"/><rect class="c" x="658" y="98" rx="2" ry="2"/><rect class="c" x="674" y="2" rx="2" ry="2"/><rect class="c c2d" x="674" y="18" rx="2" ry="2"/><rect class="c" x="674" y="34" rx="2" ry="2"/><rect class="c" x="674" y="50" rx="2" ry="2"/><rect class="c" x="674" y="66" rx="2" ry="2"/><rect class="c" x="674" y="82" rx="2" ry="2"/><rect class="c" x="674" y="98" rx="2" ry="2"/><rect class="c" x="690" y="2" rx="2" ry="2"/><rect class="c c2e" x="690" y="18" rx="2" ry="2"/><rect class="c" x="690" y="34" rx="2" ry="2"/><rect class="c" x="690" y="50" rx="2" ry="2"/><rect class="c" x="690" y="66" rx="2" ry="2"/><rect class="c" x="690" y="82" rx="2" ry="2"/><rect class="c c2f" x="690" y="98" rx="2" ry="2"/><rect class="c c2g" x="706" y="2" rx="2" ry="2"/><rect class="c" x="706" y="18" rx="2" ry="2"/><rect class="c" x="706" y="34" rx="2" ry="2"/><rect class="c" x="706" y="50" rx="2" ry="2"/><rect class="c" x="706" y="66" rx="2" ry="2"/><rect class="c" x="706" y="82" rx="2" ry="2"/><rect class="c" x="706" y="98" rx="2" ry="2"/><rect class="c" x="722" y="2" rx="2" ry="2"/><rect class="c" x="722" y="18" rx="2" ry="2"/><rect class="c" x="722" y="34" rx="2" ry="2"/><rect class="c" x="722" y="50" rx="2" ry="2"/><rect class="c" x="722" y="66" rx="2" ry="2"/><rect class="c" x="722" y="82" rx="2" ry="2"/><rect class="c" x="722" y="98" rx="2" ry="2"/><rect class="c" x="738" y="2" rx="2" ry="2"/><rect class="c" x="738" y="18" rx="2" ry="2"/><rect class="c" x="738" y="34" rx="2" ry="2"/><rect class="c" x="738" y="50" rx="2" ry="2"/><rect class="c" x="738" y="66" rx="2" ry="2"/><rect class="c" x="738" y="82" rx="2" ry="2"/><rect class="c" x="738" y="98" rx="2" ry="2"/><rect class="c" x="754" y="2" rx="2" ry="2"/><rect class="c" x="754" y="18" rx="2" ry="2"/><rect class="c" x="754" y="34" rx="2" ry="2"/><rect class="c" x="754" y="50" rx="2" ry="2"/><rect class="c" x="754" y="66" rx="2" ry="2"/><rect class="c" x="754" y="82" rx="2" ry="2"/><rect class="c" x="754" y="98" rx="2" ry="2"/><rect class="c" x="770" y="2" rx="2" ry="2"/><rect class="c" x="770" y="18" rx="2" ry="2"/><rect class="c" x="770" y="34" rx="2" ry="2"/><rect class="c" x="770" y="50" rx="2" ry="2"/><rect class="c" x="770" y="66" rx="2" ry="2"/><rect class="c" x="770" y="82" rx="2" ry="2"/><rect class="c" x="770" y="98" rx="2" ry="2"/><rect class="c" x="786" y="2" rx="2" ry="2"/><rect class="c" x="786" y="18" rx="2" ry="2"/><rect class="c" x="786" y="34" rx="2" ry="2"/><rect class="c" x="786" y="50" rx="2" ry="2"/><rect class="c c2h" x="786" y="66" rx="2" ry="2"/><rect class="c" x="786" y="82" rx="2" ry="2"/><rect class="c" x="786" y="98" rx="2" ry="2"/><rect class="c" x="802" y="2" rx="2" ry="2"/><rect class="c c2i" x="802" y="18" rx="2" ry="2"/><rect class="c c2j" x="802" y="34" rx="2" ry="2"/><rect class="c" x="802" y="50" rx="2" ry="2"/><rect class="c c2k" x="802" y="66" rx="2" ry="2"/><rect class="c" x="802" y="82" rx="2" ry="2"/><rect class="c" x="802" y="98" rx="2" ry="2"/><rect class="c" x="818" y="2" rx="2" ry="2"/><rect class="c" x="818" y="18" rx="2" ry="2"/><rect class="c" x="818" y="34" rx="2" ry="2"/><rect class="c" x="818" y="50" rx="2" ry="2"/><rect class="c" x="818" y="66" rx="2" ry="2"/><rect class="c" x="818" y="82" rx="2" ry="2"/><rect class="c" x="818" y="98" rx="2" ry="2"/><rect class="c c2l" x="834" y="2" rx="2" ry="2"/><rect class="c" x="834" y="18" rx="2" ry="2"/><rect class="c c2m" x="834" y="34" rx="2" ry="2"/><rect class="u u0" height="12" width="768.3" x="0.0" y="144"/><rect class="u u1" height="12" width="54.2" x="767.7" y="144"/><rect class="u u2" height="12" width="18.5" x="821.2" y="144"/><rect class="u u3" height="12" width="9.5" x="839.1" y="144"/><rect class="s s0" x="0.8" y="0.8" width="14.4" height="14.4" rx="4.5" ry="4.5"/><rect class="s s1" x="1.8" y="1.8" width="12.3" height="12.3" rx="4.1" ry="4.1"/><rect class="s s2" x="2.6" y="2.6" width="10.8" height="10.8" rx="3.6" ry="3.6"/><rect class="s s3" x="3.0" y="3.0" width="9.9" height="9.9" rx="3.3" ry="3.3"/></svg>