<svg viewBox="-16 -32 880 192" width="880" height="192" xmlns="http://www.w3.org/2000/svg"><desc>Generated with https://github.com/Platane/snk</desc><style>:root{--cb:#1b1f230a;--cs:purple;--ce:#ebedf0;--c0:#ebedf0;--c1:#9be9a8;--c2:#40c463;--c3:#30a14e;--c4:#216e39}.c{shape-rendering:geometricPrecision;fill:var(--ce);stroke-width:1px;stroke:var(--cb);animation:none 30900ms linear infinite;width:12px;height:12px}@keyframes c0{0.96%{fill:var(--c1)}0.98%,100%{fill:var(--ce)}}.c.c0{fill:var(--c1);animation-name:c0}@keyframes c1{4.52%{fill:var(--c1)}4.54%,100%{fill:var(--ce)}}.c.c1{fill:var(--c1);animation-name:c1}@keyframes c2{3.23%{fill:var(--c1)}3.25%,100%{fill:var(--ce)}}.c.c2{fill:var(--c1);animation-name:c2}@keyframes c3{4.2%{fill:var(--c1)}4.22%,100%{fill:var(--ce)}}.c.c3{fill:var(--c1);animation-name:c3}@keyframes c4{2.58%{fill:var(--c1)}2.6%,100%{fill:var(--ce)}}.c.c4{fill:var(--c1);animation-name:c4}@keyframes c5{26.2%{fill:var(--c1)}26.22%,100%{fill:var(--ce)}}.c.c5{fill:var(--c1);animation-name:c5}@keyframes c6{6.79%{fill:var(--c1)}6.81%,100%{fill:var(--ce)}}.c.c6{fill:var(--c1);animation-name:c6}@keyframes c7{6.46%{fill:var(--c1)}6.48%,100%{fill:var(--ce)}}.c.c7{fill:var(--c1);animation-name:c7}@keyframes c8{24.59%{fill:var(--c1)}24.61%,100%{fill:var(--ce)}}.c.c8{fill:var(--c1);animation-name:c8}@keyframes c9{24.26%{fill:var(--c1)}24.28%,100%{fill:var(--ce)}}.c.c9{fill:var(--c1);animation-name:c9}@keyframes ca{23.94%{fill:var(--c1)}23.96%,100%{fill:var(--ce)}}.c.ca{fill:var(--c1);animation-name:ca}@keyframes cb{24.91%{fill:var(--c1)}24.93%,100%{fill:var(--ce)}}.c.cb{fill:var(--c1);animation-name:cb}@keyframes cc{8.08%{fill:var(--c1)}8.1%,100%{fill:var(--ce)}}.c.cc{fill:var(--c1);animation-name:cc}@keyframes cd{7.76%{fill:var(--c1)}7.78%,100%{fill:var(--ce)}}.c.cd{fill:var(--c1);animation-name:cd}@keyframes ce{7.43%{fill:var(--c1)}7.45%,100%{fill:var(--ce)}}.c.ce{fill:var(--c1);animation-name:ce}@keyframes cf{22.64%{fill:var(--c1)}22.66%,100%{fill:var(--ce)}}.c.cf{fill:var(--c1);animation-name:cf}@keyframes cg{22.32%{fill:var(--c1)}22.34%,100%{fill:var(--ce)}}.c.cg{fill:var(--c1);animation-name:cg}@keyframes ch{8.4%{fill:var(--c1)}8.42%,100%{fill:var(--ce)}}.c.ch{fill:var(--c1);animation-name:ch}@keyframes ci{21.35%{fill:var(--c1)}21.37%,100%{fill:var(--ce)}}.c.ci{fill:var(--c1);animation-name:ci}@keyframes cj{21.67%{fill:var(--c1)}21.69%,100%{fill:var(--ce)}}.c.cj{fill:var(--c1);animation-name:cj}@keyframes ck{9.7%{fill:var(--c1)}9.72%,100%{fill:var(--ce)}}.c.ck{fill:var(--c1);animation-name:ck}@keyframes cl{9.38%{fill:var(--c1)}9.4%,100%{fill:var(--ce)}}.c.cl{fill:var(--c1);animation-name:cl}@keyframes cm{9.05%{fill:var(--c1)}9.07%,100%{fill:var(--ce)}}.c.cm{fill:var(--c1);animation-name:cm}@keyframes cn{20.38%{fill:var(--c1)}20.4%,100%{fill:var(--ce)}}.c.cn{fill:var(--c1);animation-name:cn}@keyframes co{20.7%{fill:var(--c1)}20.72%,100%{fill:var(--ce)}}.c.co{fill:var(--c1);animation-name:co}@keyframes cp{10.67%{fill:var(--c1)}10.69%,100%{fill:var(--ce)}}.c.cp{fill:var(--c1);animation-name:cp}@keyframes cq{19.73%{fill:var(--c1)}19.75%,100%{fill:var(--ce)}}.c.cq{fill:var(--c1);animation-name:cq}@keyframes cr{19.41%{fill:var(--c1)}19.43%,100%{fill:var(--ce)}}.c.cr{fill:var(--c1);animation-name:cr}@keyframes cs{30.09%{fill:var(--c1)}30.11%,100%{fill:var(--ce)}}.c.cs{fill:var(--c1);animation-name:cs}@keyframes ct{31.06%{fill:var(--c1)}31.08%,100%{fill:var(--ce)}}.c.ct{fill:var(--c1);animation-name:ct}@keyframes cu{31.38%{fill:var(--c1)}31.4%,100%{fill:var(--ce)}}.c.cu{fill:var(--c1);animation-name:cu}@keyframes cv{11.64%{fill:var(--c1)}11.66%,100%{fill:var(--ce)}}.c.cv{fill:var(--c1);animation-name:cv}@keyframes cw{11.32%{fill:var(--c1)}11.34%,100%{fill:var(--ce)}}.c.cw{fill:var(--c1);animation-name:cw}@keyframes cx{18.76%{fill:var(--c1)}18.78%,100%{fill:var(--ce)}}.c.cx{fill:var(--c1);animation-name:cx}@keyframes cy{19.08%{fill:var(--c1)}19.1%,100%{fill:var(--ce)}}.c.cy{fill:var(--c1);animation-name:cy}@keyframes cz{30.41%{fill:var(--c1)}30.43%,100%{fill:var(--ce)}}.c.cz{fill:var(--c1);animation-name:cz}@keyframes c10{30.73%{fill:var(--c1)}30.75%,100%{fill:var(--ce)}}.c.c10{fill:var(--c1);animation-name:c10}@keyframes c11{31.71%{fill:var(--c1)}31.73%,100%{fill:var(--ce)}}.c.c11{fill:var(--c1);animation-name:c11}@keyframes c12{12.29%{fill:var(--c1)}12.31%,100%{fill:var(--ce)}}.c.c12{fill:var(--c1);animation-name:c12}@keyframes c13{12.93%{fill:var(--c1)}12.95%,100%{fill:var(--ce)}}.c.c13{fill:var(--c1);animation-name:c13}@keyframes c14{13.26%{fill:var(--c1)}13.28%,100%{fill:var(--ce)}}.c.c14{fill:var(--c1);animation-name:c14}@keyframes c15{13.58%{fill:var(--c1)}13.6%,100%{fill:var(--ce)}}.c.c15{fill:var(--c1);animation-name:c15}@keyframes c16{32.35%{fill:var(--c1)}32.37%,100%{fill:var(--ce)}}.c.c16{fill:var(--c1);animation-name:c16}@keyframes c17{13.91%{fill:var(--c1)}13.93%,100%{fill:var(--ce)}}.c.c17{fill:var(--c1);animation-name:c17}@keyframes c18{14.55%{fill:var(--c1)}14.57%,100%{fill:var(--ce)}}.c.c18{fill:var(--c1);animation-name:c18}@keyframes c19{14.23%{fill:var(--c1)}14.25%,100%{fill:var(--ce)}}.c.c19{fill:var(--c1);animation-name:c19}@keyframes c1a{16.49%{fill:var(--c1)}16.51%,100%{fill:var(--ce)}}.c.c1a{fill:var(--c1);animation-name:c1a}@keyframes c1b{15.52%{fill:var(--c1)}15.54%,100%{fill:var(--ce)}}.c.c1b{fill:var(--c1);animation-name:c1b}@keyframes c1c{15.2%{fill:var(--c1)}15.22%,100%{fill:var(--ce)}}.c.c1c{fill:var(--c1);animation-name:c1c}@keyframes c1d{15.85%{fill:var(--c1)}15.87%,100%{fill:var(--ce)}}.c.c1d{fill:var(--c1);animation-name:c1d}@keyframes c1e{35.59%{fill:var(--c1)}35.61%,100%{fill:var(--ce)}}.c.c1e{fill:var(--c1);animation-name:c1e}@keyframes c1f{33.97%{fill:var(--c1)}33.99%,100%{fill:var(--ce)}}.c.c1f{fill:var(--c1);animation-name:c1f}@keyframes c1g{35.27%{fill:var(--c1)}35.29%,100%{fill:var(--ce)}}.c.c1g{fill:var(--c1);animation-name:c1g}@keyframes c1h{34.29%{fill:var(--c1)}34.31%,100%{fill:var(--ce)}}.c.c1h{fill:var(--c1);animation-name:c1h}@keyframes c1i{34.94%{fill:var(--c1)}34.96%,100%{fill:var(--ce)}}.c.c1i{fill:var(--c1);animation-name:c1i}@keyframes c1j{34.62%{fill:var(--c1)}34.64%,100%{fill:var(--ce)}}.c.c1j{fill:var(--c1);animation-name:c1j}@keyframes c1k{40.77%{fill:var(--c1)}40.79%,100%{fill:var(--ce)}}.c.c1k{fill:var(--c1);animation-name:c1k}@keyframes c1l{39.8%{fill:var(--c1)}39.82%,100%{fill:var(--ce)}}.c.c1l{fill:var(--c1);animation-name:c1l}@keyframes c1m{40.12%{fill:var(--c1)}40.14%,100%{fill:var(--ce)}}.c.c1m{fill:var(--c1);animation-name:c1m}@keyframes c1n{39.47%{fill:var(--c1)}39.49%,100%{fill:var(--ce)}}.c.c1n{fill:var(--c1);animation-name:c1n}@keyframes c1o{39.15%{fill:var(--c1)}39.17%,100%{fill:var(--ce)}}.c.c1o{fill:var(--c1);animation-name:c1o}@keyframes c1p{38.82%{fill:var(--c1)}38.84%,100%{fill:var(--ce)}}.c.c1p{fill:var(--c1);animation-name:c1p}@keyframes c1q{38.5%{fill:var(--c1)}38.52%,100%{fill:var(--ce)}}.c.c1q{fill:var(--c1);animation-name:c1q}@keyframes c1r{37.53%{fill:var(--c1)}37.55%,100%{fill:var(--ce)}}.c.c1r{fill:var(--c1);animation-name:c1r}@keyframes c1s{70.22%{fill:var(--c1)}70.24%,100%{fill:var(--ce)}}.c.c1s{fill:var(--c1);animation-name:c1s}@keyframes c1t{38.18%{fill:var(--c1)}38.2%,100%{fill:var(--ce)}}.c.c1t{fill:var(--c1);animation-name:c1t}@keyframes c1u{37.85%{fill:var(--c1)}37.87%,100%{fill:var(--ce)}}.c.c1u{fill:var(--c1);animation-name:c1u}@keyframes c1v{70.54%{fill:var(--c2)}70.56%,100%{fill:var(--ce)}}.c.c1v{fill:var(--c2);animation-name:c1v}@keyframes c1w{71.19%{fill:var(--c2)}71.21%,100%{fill:var(--ce)}}.c.c1w{fill:var(--c2);animation-name:c1w}@keyframes c1x{43.68%{fill:var(--c1)}43.7%,100%{fill:var(--ce)}}.c.c1x{fill:var(--c1);animation-name:c1x}@keyframes c1y{42.71%{fill:var(--c1)}42.73%,100%{fill:var(--ce)}}.c.c1y{fill:var(--c1);animation-name:c1y}@keyframes c1z{42.38%{fill:var(--c1)}42.4%,100%{fill:var(--ce)}}.c.c1z{fill:var(--c1);animation-name:c1z}@keyframes c20{45.3%{fill:var(--c1)}45.32%,100%{fill:var(--ce)}}.c.c20{fill:var(--c1);animation-name:c20}@keyframes c21{43.03%{fill:var(--c1)}43.05%,100%{fill:var(--ce)}}.c.c21{fill:var(--c1);animation-name:c21}@keyframes c22{73.13%{fill:var(--c2)}73.15%,100%{fill:var(--ce)}}.c.c22{fill:var(--c2);animation-name:c22}@keyframes c23{45.94%{fill:var(--c1)}45.96%,100%{fill:var(--ce)}}.c.c23{fill:var(--c1);animation-name:c23}@keyframes c24{46.59%{fill:var(--c1)}46.61%,100%{fill:var(--ce)}}.c.c24{fill:var(--c1);animation-name:c24}@keyframes c25{50.15%{fill:var(--c1)}50.17%,100%{fill:var(--ce)}}.c.c25{fill:var(--c1);animation-name:c25}@keyframes c26{47.56%{fill:var(--c1)}47.58%,100%{fill:var(--ce)}}.c.c26{fill:var(--c1);animation-name:c26}@keyframes c27{48.86%{fill:var(--c1)}48.88%,100%{fill:var(--ce)}}.c.c27{fill:var(--c1);animation-name:c27}@keyframes c28{49.18%{fill:var(--c1)}49.2%,100%{fill:var(--ce)}}.c.c28{fill:var(--c1);animation-name:c28}@keyframes c29{52.42%{fill:var(--c1)}52.44%,100%{fill:var(--ce)}}.c.c29{fill:var(--c1);animation-name:c29}@keyframes c2a{75.39%{fill:var(--c2)}75.41%,100%{fill:var(--ce)}}.c.c2a{fill:var(--c2);animation-name:c2a}@keyframes c2b{75.72%{fill:var(--c2)}75.74%,100%{fill:var(--ce)}}.c.c2b{fill:var(--c2);animation-name:c2b}@keyframes c2c{48.21%{fill:var(--c1)}48.23%,100%{fill:var(--ce)}}.c.c2c{fill:var(--c1);animation-name:c2c}@keyframes c2d{53.06%{fill:var(--c1)}53.08%,100%{fill:var(--ce)}}.c.c2d{fill:var(--c1);animation-name:c2d}@keyframes c2e{53.39%{fill:var(--c1)}53.41%,100%{fill:var(--ce)}}.c.c2e{fill:var(--c1);animation-name:c2e}@keyframes c2f{64.71%{fill:var(--c1)}64.73%,100%{fill:var(--ce)}}.c.c2f{fill:var(--c1);animation-name:c2f}@keyframes c2g{54.04%{fill:var(--c1)}54.06%,100%{fill:var(--ce)}}.c.c2g{fill:var(--c1);animation-name:c2g}@keyframes c2h{57.6%{fill:var(--c1)}57.62%,100%{fill:var(--ce)}}.c.c2h{fill:var(--c1);animation-name:c2h}@keyframes c2i{56.3%{fill:var(--c1)}56.32%,100%{fill:var(--ce)}}.c.c2i{fill:var(--c1);animation-name:c2i}@keyframes c2j{56.62%{fill:var(--c1)}56.64%,100%{fill:var(--ce)}}.c.c2j{fill:var(--c1);animation-name:c2j}@keyframes c2k{57.27%{fill:var(--c1)}57.29%,100%{fill:var(--ce)}}.c.c2k{fill:var(--c1);animation-name:c2k}@keyframes c2l{59.86%{fill:var(--c1)}59.88%,100%{fill:var(--ce)}}.c.c2l{fill:var(--c1);animation-name:c2l}@keyframes c2m{79.93%{fill:var(--c4)}79.95%,100%{fill:var(--ce)}}.c.c2m{fill:var(--c4);animation-name:c2m}@keyframes c2n{79.6%{fill:var(--c4)}79.62%,100%{fill:var(--ce)}}.c.c2n{fill:var(--c4);animation-name:c2n}@keyframes c2o{81.22%{fill:var(--c4)}81.24%,100%{fill:var(--ce)}}.c.c2o{fill:var(--c4);animation-name:c2o}.u{transform-origin:0 0;transform:scale(0,1);animation:none linear 30900ms infinite}@keyframes u0{0.96%{transform:scale(0.000,1)}0.98%,2.58%{transform:scale(0.011,1)}2.6%,3.23%{transform:scale(0.022,1)}3.25%,4.2%{transform:scale(0.034,1)}4.22%,4.52%{transform:scale(0.045,1)}4.54%,6.46%{transform:scale(0.056,1)}6.48%,6.79%{transform:scale(0.067,1)}6.81%,7.43%{transform:scale(0.079,1)}7.45%,7.76%{transform:scale(0.090,1)}7.78%,8.08%{transform:scale(0.101,1)}8.1%,8.4%{transform:scale(0.112,1)}8.42%,9.05%{transform:scale(0.124,1)}9.07%,9.38%{transform:scale(0.135,1)}9.4%,9.7%{transform:scale(0.146,1)}9.72%,10.67%{transform:scale(0.157,1)}10.69%,11.32%{transform:scale(0.169,1)}11.34%,11.64%{transform:scale(0.180,1)}11.66%,12.29%{transform:scale(0.191,1)}12.31%,12.93%{transform:scale(0.202,1)}12.95%,13.26%{transform:scale(0.213,1)}13.28%,13.58%{transform:scale(0.225,1)}13.6%,13.91%{transform:scale(0.236,1)}13.93%,14.23%{transform:scale(0.247,1)}14.25%,14.55%{transform:scale(0.258,1)}14.57%,15.2%{transform:scale(0.270,1)}15.22%,15.52%{transform:scale(0.281,1)}15.54%,15.85%{transform:scale(0.292,1)}15.87%,16.49%{transform:scale(0.303,1)}16.51%,18.76%{transform:scale(0.315,1)}18.78%,19.08%{transform:scale(0.326,1)}19.1%,19.41%{transform:scale(0.337,1)}19.43%,19.73%{transform:scale(0.348,1)}19.75%,20.38%{transform:scale(0.360,1)}20.4%,20.7%{transform:scale(0.371,1)}20.72%,21.35%{transform:scale(0.382,1)}21.37%,21.67%{transform:scale(0.393,1)}21.69%,22.32%{transform:scale(0.404,1)}22.34%,22.64%{transform:scale(0.416,1)}22.66%,23.94%{transform:scale(0.427,1)}23.96%,24.26%{transform:scale(0.438,1)}24.28%,24.59%{transform:scale(0.449,1)}24.61%,24.91%{transform:scale(0.461,1)}24.93%,26.2%{transform:scale(0.472,1)}26.22%,30.09%{transform:scale(0.483,1)}30.11%,30.41%{transform:scale(0.494,1)}30.43%,30.73%{transform:scale(0.506,1)}30.75%,31.06%{transform:scale(0.517,1)}31.08%,31.38%{transform:scale(0.528,1)}31.4%,31.71%{transform:scale(0.539,1)}31.73%,32.35%{transform:scale(0.551,1)}32.37%,33.97%{transform:scale(0.562,1)}33.99%,34.29%{transform:scale(0.573,1)}34.31%,34.62%{transform:scale(0.584,1)}34.64%,34.94%{transform:scale(0.596,1)}34.96%,35.27%{transform:scale(0.607,1)}35.29%,35.59%{transform:scale(0.618,1)}35.61%,37.53%{transform:scale(0.629,1)}37.55%,37.85%{transform:scale(0.640,1)}37.87%,38.18%{transform:scale(0.652,1)}38.2%,38.5%{transform:scale(0.663,1)}38.52%,38.82%{transform:scale(0.674,1)}38.84%,39.15%{transform:scale(0.685,1)}39.17%,39.47%{transform:scale(0.697,1)}39.49%,39.8%{transform:scale(0.708,1)}39.82%,40.12%{transform:scale(0.719,1)}40.14%,40.77%{transform:scale(0.730,1)}40.79%,42.38%{transform:scale(0.742,1)}42.4%,42.71%{transform:scale(0.753,1)}42.73%,43.03%{transform:scale(0.764,1)}43.05%,43.68%{transform:scale(0.775,1)}43.7%,45.3%{transform:scale(0.787,1)}45.32%,45.94%{transform:scale(0.798,1)}45.96%,46.59%{transform:scale(0.809,1)}46.61%,47.56%{transform:scale(0.820,1)}47.58%,48.21%{transform:scale(0.831,1)}48.23%,48.86%{transform:scale(0.843,1)}48.88%,49.18%{transform:scale(0.854,1)}49.2%,50.15%{transform:scale(0.865,1)}50.17%,52.42%{transform:scale(0.876,1)}52.44%,53.06%{transform:scale(0.888,1)}53.08%,53.39%{transform:scale(0.899,1)}53.41%,54.04%{transform:scale(0.910,1)}54.06%,56.3%{transform:scale(0.921,1)}56.32%,56.62%{transform:scale(0.933,1)}56.64%,57.27%{transform:scale(0.944,1)}57.29%,57.6%{transform:scale(0.955,1)}57.62%,59.86%{transform:scale(0.966,1)}59.88%,64.71%{transform:scale(0.978,1)}64.73%,70.22%{transform:scale(0.989,1)}70.24%,100%{transform:scale(1.000,1)}}.u.u0{fill:var(--c1);animation-name:u0;transform-origin:0.0px 0}@keyframes u1{70.54%{transform:scale(0.000,1)}70.56%,71.19%{transform:scale(0.200,1)}71.21%,73.13%{transform:scale(0.400,1)}73.15%,75.39%{transform:scale(0.600,1)}75.41%,75.72%{transform:scale(0.800,1)}75.74%,100%{transform:scale(1.000,1)}}.u.u1{fill:var(--c2);animation-name:u1;transform-origin:778.1px 0}@keyframes u2{79.6%{transform:scale(0.000,1)}79.62%,79.93%{transform:scale(0.333,1)}79.95%,81.22%{transform:scale(0.667,1)}81.24%,100%{transform:scale(1.000,1)}}.u.u2{fill:var(--c4);animation-name:u2;transform-origin:821.8px 0}.s{shape-rendering:geometricPrecision;fill:var(--cs);animation:none linear 30900ms infinite}@keyframes s0{0%,99.68%{transform:translate(0px,-16px)}0.32%{transform:translate(0px,0px)}0.65%{transform:translate(16px,0px)}0.97%{transform:translate(16px,16px)}2.27%{transform:translate(80px,16px)}2.59%{transform:translate(80px,32px)}2.91%{transform:translate(64px,32px)}4.21%{transform:translate(64px,96px)}4.53%{transform:translate(48px,96px)}4.85%{transform:translate(48px,80px)}6.47%{transform:translate(128px,80px)}6.8%{transform:translate(128px,64px)}7.44%{transform:translate(160px,64px)}8.09%,23.62%{transform:translate(160px,32px)}9.06%{transform:translate(208px,32px)}9.71%{transform:translate(208px,0px)}10.36%{transform:translate(240px,0px)}10.68%{transform:translate(240px,16px)}11.33%{transform:translate(272px,16px)}11.65%,18.12%{transform:translate(272px,0px)}12.3%{transform:translate(304px,0px)}13.59%{transform:translate(304px,64px)}14.24%{transform:translate(336px,64px)}14.56%{transform:translate(336px,48px)}14.89%{transform:translate(352px,48px)}15.53%{transform:translate(352px,16px)}15.86%{transform:translate(368px,16px)}16.18%{transform:translate(368px,0px)}19.09%{transform:translate(272px,48px)}20.39%{transform:translate(208px,48px)}20.71%{transform:translate(208px,64px)}21.04%{transform:translate(192px,64px)}21.68%{transform:translate(192px,96px)}22.33%{transform:translate(160px,96px)}23.95%{transform:translate(144px,32px)}24.6%{transform:translate(144px,0px)}24.92%{transform:translate(160px,0px)}25.24%{transform:translate(160px,-16px)}25.89%{transform:translate(128px,-16px)}26.21%{transform:translate(128px,0px)}28.8%{transform:translate(256px,0px)}30.1%{transform:translate(256px,64px)}30.42%{transform:translate(272px,64px)}30.74%{transform:translate(272px,80px)}31.07%{transform:translate(256px,80px)}31.39%{transform:translate(256px,96px)}34.63%{transform:translate(416px,96px)}34.95%{transform:translate(416px,80px)}35.6%{transform:translate(384px,80px)}35.92%{transform:translate(384px,64px)}37.86%{transform:translate(480px,64px)}38.19%{transform:translate(480px,48px)}38.51%{transform:translate(464px,48px)}39.48%{transform:translate(464px,0px)}39.81%{transform:translate(448px,0px)}40.13%{transform:translate(448px,16px)}40.45%{transform:translate(432px,16px)}40.78%{transform:translate(432px,32px)}42.39%{transform:translate(512px,32px)}42.72%{transform:translate(512px,16px)}43.04%{transform:translate(528px,16px)}43.37%{transform:translate(528px,0px)}43.69%{transform:translate(512px,0px)}45.31%{transform:translate(512px,80px)}46.28%{transform:translate(560px,80px)}46.6%{transform:translate(560px,64px)}48.22%{transform:translate(640px,64px)}48.54%{transform:translate(640px,80px)}48.87%{transform:translate(624px,80px)}49.19%{transform:translate(624px,96px)}49.51%{transform:translate(608px,96px)}49.84%{transform:translate(608px,80px)}50.16%{transform:translate(592px,80px)}50.49%{transform:translate(592px,64px)}51.13%{transform:translate(624px,64px)}52.1%{transform:translate(624px,16px)}53.72%{transform:translate(704px,16px)}54.05%{transform:translate(704px,0px)}55.99%{transform:translate(800px,0px)}57.28%{transform:translate(800px,64px)}57.61%{transform:translate(784px,64px)}57.93%{transform:translate(784px,48px)}58.58%{transform:translate(816px,48px)}59.22%{transform:translate(816px,16px)}59.55%{transform:translate(832px,16px)}59.87%{transform:translate(832px,0px)}62.78%{transform:translate(688px,0px)}64.72%{transform:translate(688px,96px)}65.05%{transform:translate(672px,96px)}65.7%{transform:translate(672px,64px)}69.9%{transform:translate(464px,64px)}70.23%{transform:translate(464px,80px)}70.87%{transform:translate(496px,80px)}71.2%{transform:translate(496px,96px)}71.84%{transform:translate(528px,96px)}73.14%{transform:translate(528px,32px)}75.4%{transform:translate(640px,32px)}75.73%{transform:translate(640px,48px)}79.61%,80.91%{transform:translate(832px,48px)}79.94%{transform:translate(832px,32px)}80.26%{transform:translate(848px,32px)}80.58%{transform:translate(848px,48px)}81.23%{transform:translate(832px,64px)}95.79%{transform:translate(112px,64px)}96.44%{transform:translate(112px,32px)}97.73%{transform:translate(48px,32px)}98.71%{transform:translate(48px,-16px)}}.s.s0{transform:translate(0px,-16px);animation-name:s0}@keyframes s1{0%,99.68%{transform:translate(16px,-16px)}0.32%{transform:translate(0px,-16px)}0.65%{transform:translate(0px,0px)}0.97%{transform:translate(16px,0px)}1.29%{transform:translate(16px,16px)}2.59%{transform:translate(80px,16px)}2.91%{transform:translate(80px,32px)}3.24%{transform:translate(64px,32px)}4.53%{transform:translate(64px,96px)}4.85%{transform:translate(48px,96px)}5.18%{transform:translate(48px,80px)}6.8%{transform:translate(128px,80px)}7.12%{transform:translate(128px,64px)}7.77%{transform:translate(160px,64px)}8.41%,23.95%{transform:translate(160px,32px)}9.39%{transform:translate(208px,32px)}10.03%{transform:translate(208px,0px)}10.68%{transform:translate(240px,0px)}11%{transform:translate(240px,16px)}11.65%{transform:translate(272px,16px)}11.97%,18.45%{transform:translate(272px,0px)}12.62%{transform:translate(304px,0px)}13.92%{transform:translate(304px,64px)}14.56%{transform:translate(336px,64px)}14.89%{transform:translate(336px,48px)}15.21%{transform:translate(352px,48px)}15.86%{transform:translate(352px,16px)}16.18%{transform:translate(368px,16px)}16.5%{transform:translate(368px,0px)}19.42%{transform:translate(272px,48px)}20.71%{transform:translate(208px,48px)}21.04%{transform:translate(208px,64px)}21.36%{transform:translate(192px,64px)}22.01%{transform:translate(192px,96px)}22.65%{transform:translate(160px,96px)}24.27%{transform:translate(144px,32px)}24.92%{transform:translate(144px,0px)}25.24%{transform:translate(160px,0px)}25.57%{transform:translate(160px,-16px)}26.21%{transform:translate(128px,-16px)}26.54%{transform:translate(128px,0px)}29.13%{transform:translate(256px,0px)}30.42%{transform:translate(256px,64px)}30.74%{transform:translate(272px,64px)}31.07%{transform:translate(272px,80px)}31.39%{transform:translate(256px,80px)}31.72%{transform:translate(256px,96px)}34.95%{transform:translate(416px,96px)}35.28%{transform:translate(416px,80px)}35.92%{transform:translate(384px,80px)}36.25%{transform:translate(384px,64px)}38.19%{transform:translate(480px,64px)}38.51%{transform:translate(480px,48px)}38.83%{transform:translate(464px,48px)}39.81%{transform:translate(464px,0px)}40.13%{transform:translate(448px,0px)}40.45%{transform:translate(448px,16px)}40.78%{transform:translate(432px,16px)}41.1%{transform:translate(432px,32px)}42.72%{transform:translate(512px,32px)}43.04%{transform:translate(512px,16px)}43.37%{transform:translate(528px,16px)}43.69%{transform:translate(528px,0px)}44.01%{transform:translate(512px,0px)}45.63%{transform:translate(512px,80px)}46.6%{transform:translate(560px,80px)}46.93%{transform:translate(560px,64px)}48.54%{transform:translate(640px,64px)}48.87%{transform:translate(640px,80px)}49.19%{transform:translate(624px,80px)}49.51%{transform:translate(624px,96px)}49.84%{transform:translate(608px,96px)}50.16%{transform:translate(608px,80px)}50.49%{transform:translate(592px,80px)}50.81%{transform:translate(592px,64px)}51.46%{transform:translate(624px,64px)}52.43%{transform:translate(624px,16px)}54.05%{transform:translate(704px,16px)}54.37%{transform:translate(704px,0px)}56.31%{transform:translate(800px,0px)}57.61%{transform:translate(800px,64px)}57.93%{transform:translate(784px,64px)}58.25%{transform:translate(784px,48px)}58.9%{transform:translate(816px,48px)}59.55%{transform:translate(816px,16px)}59.87%{transform:translate(832px,16px)}60.19%{transform:translate(832px,0px)}63.11%{transform:translate(688px,0px)}65.05%{transform:translate(688px,96px)}65.37%{transform:translate(672px,96px)}66.02%{transform:translate(672px,64px)}70.23%{transform:translate(464px,64px)}70.55%{transform:translate(464px,80px)}71.2%{transform:translate(496px,80px)}71.52%{transform:translate(496px,96px)}72.17%{transform:translate(528px,96px)}73.46%{transform:translate(528px,32px)}75.73%{transform:translate(640px,32px)}76.05%{transform:translate(640px,48px)}79.94%,81.23%{transform:translate(832px,48px)}80.26%{transform:translate(832px,32px)}80.58%{transform:translate(848px,32px)}80.91%{transform:translate(848px,48px)}81.55%{transform:translate(832px,64px)}96.12%{transform:translate(112px,64px)}96.76%{transform:translate(112px,32px)}98.06%{transform:translate(48px,32px)}99.03%{transform:translate(48px,-16px)}}.s.s1{transform:translate(16px,-16px);animation-name:s1}@keyframes s2{0%,99.68%{transform:translate(32px,-16px)}0.65%{transform:translate(0px,-16px)}0.97%{transform:translate(0px,0px)}1.29%{transform:translate(16px,0px)}1.62%{transform:translate(16px,16px)}2.91%{transform:translate(80px,16px)}3.24%{transform:translate(80px,32px)}3.56%{transform:translate(64px,32px)}4.85%{transform:translate(64px,96px)}5.18%{transform:translate(48px,96px)}5.5%{transform:translate(48px,80px)}7.12%{transform:translate(128px,80px)}7.44%{transform:translate(128px,64px)}8.09%{transform:translate(160px,64px)}8.74%,24.27%{transform:translate(160px,32px)}9.71%{transform:translate(208px,32px)}10.36%{transform:translate(208px,0px)}11%{transform:translate(240px,0px)}11.33%{transform:translate(240px,16px)}11.97%{transform:translate(272px,16px)}12.3%,18.77%{transform:translate(272px,0px)}12.94%{transform:translate(304px,0px)}14.24%{transform:translate(304px,64px)}14.89%{transform:translate(336px,64px)}15.21%{transform:translate(336px,48px)}15.53%{transform:translate(352px,48px)}16.18%{transform:translate(352px,16px)}16.5%{transform:translate(368px,16px)}16.83%{transform:translate(368px,0px)}19.74%{transform:translate(272px,48px)}21.04%{transform:translate(208px,48px)}21.36%{transform:translate(208px,64px)}21.68%{transform:translate(192px,64px)}22.33%{transform:translate(192px,96px)}22.98%{transform:translate(160px,96px)}24.6%{transform:translate(144px,32px)}25.24%{transform:translate(144px,0px)}25.57%{transform:translate(160px,0px)}25.89%{transform:translate(160px,-16px)}26.54%{transform:translate(128px,-16px)}26.86%{transform:translate(128px,0px)}29.45%{transform:translate(256px,0px)}30.74%{transform:translate(256px,64px)}31.07%{transform:translate(272px,64px)}31.39%{transform:translate(272px,80px)}31.72%{transform:translate(256px,80px)}32.04%{transform:translate(256px,96px)}35.28%{transform:translate(416px,96px)}35.6%{transform:translate(416px,80px)}36.25%{transform:translate(384px,80px)}36.57%{transform:translate(384px,64px)}38.51%{transform:translate(480px,64px)}38.83%{transform:translate(480px,48px)}39.16%{transform:translate(464px,48px)}40.13%{transform:translate(464px,0px)}40.45%{transform:translate(448px,0px)}40.78%{transform:translate(448px,16px)}41.1%{transform:translate(432px,16px)}41.42%{transform:translate(432px,32px)}43.04%{transform:translate(512px,32px)}43.37%{transform:translate(512px,16px)}43.69%{transform:translate(528px,16px)}44.01%{transform:translate(528px,0px)}44.34%{transform:translate(512px,0px)}45.95%{transform:translate(512px,80px)}46.93%{transform:translate(560px,80px)}47.25%{transform:translate(560px,64px)}48.87%{transform:translate(640px,64px)}49.19%{transform:translate(640px,80px)}49.51%{transform:translate(624px,80px)}49.84%{transform:translate(624px,96px)}50.16%{transform:translate(608px,96px)}50.49%{transform:translate(608px,80px)}50.81%{transform:translate(592px,80px)}51.13%{transform:translate(592px,64px)}51.78%{transform:translate(624px,64px)}52.75%{transform:translate(624px,16px)}54.37%{transform:translate(704px,16px)}54.69%{transform:translate(704px,0px)}56.63%{transform:translate(800px,0px)}57.93%{transform:translate(800px,64px)}58.25%{transform:translate(784px,64px)}58.58%{transform:translate(784px,48px)}59.22%{transform:translate(816px,48px)}59.87%{transform:translate(816px,16px)}60.19%{transform:translate(832px,16px)}60.52%{transform:translate(832px,0px)}63.43%{transform:translate(688px,0px)}65.37%{transform:translate(688px,96px)}65.7%{transform:translate(672px,96px)}66.34%{transform:translate(672px,64px)}70.55%{transform:translate(464px,64px)}70.87%{transform:translate(464px,80px)}71.52%{transform:translate(496px,80px)}71.84%{transform:translate(496px,96px)}72.49%{transform:translate(528px,96px)}73.79%{transform:translate(528px,32px)}76.05%{transform:translate(640px,32px)}76.38%{transform:translate(640px,48px)}80.26%,81.55%{transform:translate(832px,48px)}80.58%{transform:translate(832px,32px)}80.91%{transform:translate(848px,32px)}81.23%{transform:translate(848px,48px)}81.88%{transform:translate(832px,64px)}96.44%{transform:translate(112px,64px)}97.09%{transform:translate(112px,32px)}98.38%{transform:translate(48px,32px)}99.35%{transform:translate(48px,-16px)}}.s.s2{transform:translate(32px,-16px);animation-name:s2}@keyframes s3{0%,99.68%{transform:translate(48px,-16px)}0.97%{transform:translate(0px,-16px)}1.29%{transform:translate(0px,0px)}1.62%{transform:translate(16px,0px)}1.94%{transform:translate(16px,16px)}3.24%{transform:translate(80px,16px)}3.56%{transform:translate(80px,32px)}3.88%{transform:translate(64px,32px)}5.18%{transform:translate(64px,96px)}5.5%{transform:translate(48px,96px)}5.83%{transform:translate(48px,80px)}7.44%{transform:translate(128px,80px)}7.77%{transform:translate(128px,64px)}8.41%{transform:translate(160px,64px)}9.06%,24.6%{transform:translate(160px,32px)}10.03%{transform:translate(208px,32px)}10.68%{transform:translate(208px,0px)}11.33%{transform:translate(240px,0px)}11.65%{transform:translate(240px,16px)}12.3%{transform:translate(272px,16px)}12.62%,19.09%{transform:translate(272px,0px)}13.27%{transform:translate(304px,0px)}14.56%{transform:translate(304px,64px)}15.21%{transform:translate(336px,64px)}15.53%{transform:translate(336px,48px)}15.86%{transform:translate(352px,48px)}16.5%{transform:translate(352px,16px)}16.83%{transform:translate(368px,16px)}17.15%{transform:translate(368px,0px)}20.06%{transform:translate(272px,48px)}21.36%{transform:translate(208px,48px)}21.68%{transform:translate(208px,64px)}22.01%{transform:translate(192px,64px)}22.65%{transform:translate(192px,96px)}23.3%{transform:translate(160px,96px)}24.92%{transform:translate(144px,32px)}25.57%{transform:translate(144px,0px)}25.89%{transform:translate(160px,0px)}26.21%{transform:translate(160px,-16px)}26.86%{transform:translate(128px,-16px)}27.18%{transform:translate(128px,0px)}29.77%{transform:translate(256px,0px)}31.07%{transform:translate(256px,64px)}31.39%{transform:translate(272px,64px)}31.72%{transform:translate(272px,80px)}32.04%{transform:translate(256px,80px)}32.36%{transform:translate(256px,96px)}35.6%{transform:translate(416px,96px)}35.92%{transform:translate(416px,80px)}36.57%{transform:translate(384px,80px)}36.89%{transform:translate(384px,64px)}38.83%{transform:translate(480px,64px)}39.16%{transform:translate(480px,48px)}39.48%{transform:translate(464px,48px)}40.45%{transform:translate(464px,0px)}40.78%{transform:translate(448px,0px)}41.1%{transform:translate(448px,16px)}41.42%{transform:translate(432px,16px)}41.75%{transform:translate(432px,32px)}43.37%{transform:translate(512px,32px)}43.69%{transform:translate(512px,16px)}44.01%{transform:translate(528px,16px)}44.34%{transform:translate(528px,0px)}44.66%{transform:translate(512px,0px)}46.28%{transform:translate(512px,80px)}47.25%{transform:translate(560px,80px)}47.57%{transform:translate(560px,64px)}49.19%{transform:translate(640px,64px)}49.51%{transform:translate(640px,80px)}49.84%{transform:translate(624px,80px)}50.16%{transform:translate(624px,96px)}50.49%{transform:translate(608px,96px)}50.81%{transform:translate(608px,80px)}51.13%{transform:translate(592px,80px)}51.46%{transform:translate(592px,64px)}52.1%{transform:translate(624px,64px)}53.07%{transform:translate(624px,16px)}54.69%{transform:translate(704px,16px)}55.02%{transform:translate(704px,0px)}56.96%{transform:translate(800px,0px)}58.25%{transform:translate(800px,64px)}58.58%{transform:translate(784px,64px)}58.9%{transform:translate(784px,48px)}59.55%{transform:translate(816px,48px)}60.19%{transform:translate(816px,16px)}60.52%{transform:translate(832px,16px)}60.84%{transform:translate(832px,0px)}63.75%{transform:translate(688px,0px)}65.7%{transform:translate(688px,96px)}66.02%{transform:translate(672px,96px)}66.67%{transform:translate(672px,64px)}70.87%{transform:translate(464px,64px)}71.2%{transform:translate(464px,80px)}71.84%{transform:translate(496px,80px)}72.17%{transform:translate(496px,96px)}72.82%{transform:translate(528px,96px)}74.11%{transform:translate(528px,32px)}76.38%{transform:translate(640px,32px)}76.7%{transform:translate(640px,48px)}80.58%,81.88%{transform:translate(832px,48px)}80.91%{transform:translate(832px,32px)}81.23%{transform:translate(848px,32px)}81.55%{transform:translate(848px,48px)}82.2%{transform:translate(832px,64px)}96.76%{transform:translate(112px,64px)}97.41%{transform:translate(112px,32px)}98.71%{transform:translate(48px,32px)}}.s.s3{transform:translate(48px,-16px);animation-name:s3}</style><rect class="c" x="2" y="2" rx="2" ry="2"/><rect class="c" x="2" y="18" rx="2" ry="2"/><rect class="c" x="2" y="34" rx="2" ry="2"/><rect class="c" x="2" y="50" rx="2" ry="2"/><rect class="c" x="2" y="66" rx="2" ry="2"/><rect class="c" x="2" y="82" rx="2" ry="2"/><rect class="c" x="2" y="98" rx="2" ry="2"/><rect class="c" x="18" y="2" rx="2" ry="2"/><rect class="c c0" x="18" y="18" rx="2" ry="2"/><rect class="c" x="18" y="34" rx="2" ry="2"/><rect class="c" x="18" y="50" rx="2" ry="2"/><rect class="c" x="18" y="66" rx="2" ry="2"/><rect class="c" x="18" y="82" rx="2" ry="2"/><rect class="c" x="18" y="98" rx="2" ry="2"/><rect class="c" x="34" y="2" rx="2" ry="2"/><rect class="c" x="34" y="18" rx="2" ry="2"/><rect class="c" x="34" y="34" rx="2" ry="2"/><rect class="c" x="34" y="50" rx="2" ry="2"/><rect class="c" x="34" y="66" rx="2" ry="2"/><rect class="c" x="34" y="82" rx="2" ry="2"/><rect class="c" x="34" y="98" rx="2" ry="2"/><rect class="c" x="50" y="2" rx="2" ry="2"/><rect class="c" x="50" y="18" rx="2" ry="2"/><rect class="c" x="50" y="34" rx="2" ry="2"/><rect class="c" x="50" y="50" rx="2" ry="2"/><rect class="c" x="50" y="66" rx="2" ry="2"/><rect class="c" x="50" y="82" rx="2" ry="2"/><rect class="c c1" x="50" y="98" rx="2" ry="2"/><rect class="c" x="66" y="2" rx="2" ry="2"/><rect class="c" x="66" y="18" rx="2" ry="2"/><rect class="c" x="66" y="34" rx="2" ry="2"/><rect class="c c2" x="66" y="50" rx="2" ry="2"/><rect class="c" x="66" y="66" rx="2" ry="2"/><rect class="c" x="66" y="82" rx="2" ry="2"/><rect class="c c3" x="66" y="98" rx="2" ry="2"/><rect class="c" x="82" y="2" rx="2" ry="2"/><rect class="c" x="82" y="18" rx="2" ry="2"/><rect class="c c4" x="82" y="34" rx="2" ry="2"/><rect class="c" x="82" y="50" rx="2" ry="2"/><rect class="c" x="82" y="66" rx="2" ry="2"/><rect class="c" x="82" y="82" rx="2" ry="2"/><rect class="c" x="82" y="98" rx="2" ry="2"/><rect class="c" x="98" y="2" rx="2" ry="2"/><rect class="c" x="98" y="18" rx="2" ry="2"/><rect class="c" x="98" y="34" rx="2" ry="2"/><rect class="c" x="98" y="50" rx="2" ry="2"/><rect class="c" x="98" y="66" rx="2" ry="2"/><rect class="c" x="98" y="82" rx="2" ry="2"/><rect class="c" x="98" y="98" rx="2" ry="2"/><rect class="c" x="114" y="2" rx="2" ry="2"/><rect class="c" x="114" y="18" rx="2" ry="2"/><rect class="c" x="114" y="34" rx="2" ry="2"/><rect class="c" x="114" y="50" rx="2" ry="2"/><rect class="c" x="114" y="66" rx="2" ry="2"/><rect class="c" x="114" y="82" rx="2" ry="2"/><rect class="c" x="114" y="98" rx="2" ry="2"/><rect class="c c5" x="130" y="2" rx="2" ry="2"/><rect class="c" x="130" y="18" rx="2" ry="2"/><rect class="c" x="130" y="34" rx="2" ry="2"/><rect class="c" x="130" y="50" rx="2" ry="2"/><rect class="c c6" x="130" y="66" rx="2" ry="2"/><rect class="c c7" x="130" y="82" rx="2" ry="2"/><rect class="c" x="130" y="98" rx="2" ry="2"/><rect class="c c8" x="146" y="2" rx="2" ry="2"/><rect class="c c9" x="146" y="18" rx="2" ry="2"/><rect class="c ca" x="146" y="34" rx="2" ry="2"/><rect class="c" x="146" y="50" rx="2" ry="2"/><rect class="c" x="146" y="66" rx="2" ry="2"/><rect class="c" x="146" y="82" rx="2" ry="2"/><rect class="c" x="146" y="98" rx="2" ry="2"/><rect class="c cb" x="162" y="2" rx="2" ry="2"/><rect class="c" x="162" y="18" rx="2" ry="2"/><rect class="c cc" x="162" y="34" rx="2" ry="2"/><rect class="c cd" x="162" y="50" rx="2" ry="2"/><rect class="c ce" x="162" y="66" rx="2" ry="2"/><rect class="c cf" x="162" y="82" rx="2" ry="2"/><rect class="c cg" x="162" y="98" rx="2" ry="2"/><rect class="c" x="178" y="2" rx="2" ry="2"/><rect class="c" x="178" y="18" rx="2" ry="2"/><rect class="c ch" x="178" y="34" rx="2" ry="2"/><rect class="c" x="178" y="50" rx="2" ry="2"/><rect class="c" x="178" y="66" rx="2" ry="2"/><rect class="c" x="178" y="82" rx="2" ry="2"/><rect class="c" x="178" y="98" rx="2" ry="2"/><rect class="c" x="194" y="2" rx="2" ry="2"/><rect class="c" x="194" y="18" rx="2" ry="2"/><rect class="c" x="194" y="34" rx="2" ry="2"/><rect class="c" x="194" y="50" rx="2" ry="2"/><rect class="c" x="194" y="66" rx="2" ry="2"/><rect class="c ci" x="194" y="82" rx="2" ry="2"/><rect class="c cj" x="194" y="98" rx="2" ry="2"/><rect class="c ck" x="210" y="2" rx="2" ry="2"/><rect class="c cl" x="210" y="18" rx="2" ry="2"/><rect class="c cm" x="210" y="34" rx="2" ry="2"/><rect class="c cn" x="210" y="50" rx="2" ry="2"/><rect class="c co" x="210" y="66" rx="2" ry="2"/><rect class="c" x="210" y="82" rx="2" ry="2"/><rect class="c" x="210" y="98" rx="2" ry="2"/><rect class="c" x="226" y="2" rx="2" ry="2"/><rect class="c" x="226" y="18" rx="2" ry="2"/><rect class="c" x="226" y="34" rx="2" ry="2"/><rect class="c" x="226" y="50" rx="2" ry="2"/><rect class="c" x="226" y="66" rx="2" ry="2"/><rect class="c" x="226" y="82" rx="2" ry="2"/><rect class="c" x="226" y="98" rx="2" ry="2"/><rect class="c" x="242" y="2" rx="2" ry="2"/><rect class="c cp" x="242" y="18" rx="2" ry="2"/><rect class="c" x="242" y="34" rx="2" ry="2"/><rect class="c cq" x="242" y="50" rx="2" ry="2"/><rect class="c" x="242" y="66" rx="2" ry="2"/><rect class="c" x="242" y="82" rx="2" ry="2"/><rect class="c" x="242" y="98" rx="2" ry="2"/><rect class="c" x="258" y="2" rx="2" ry="2"/><rect class="c" x="258" y="18" rx="2" ry="2"/><rect class="c" x="258" y="34" rx="2" ry="2"/><rect class="c cr" x="258" y="50" rx="2" ry="2"/><rect class="c cs" x="258" y="66" rx="2" ry="2"/><rect class="c ct" x="258" y="82" rx="2" ry="2"/><rect class="c cu" x="258" y="98" rx="2" ry="2"/><rect class="c cv" x="274" y="2" rx="2" ry="2"/><rect class="c cw" x="274" y="18" rx="2" ry="2"/><rect class="c cx" x="274" y="34" rx="2" ry="2"/><rect class="c cy" x="274" y="50" rx="2" ry="2"/><rect class="c cz" x="274" y="66" rx="2" ry="2"/><rect class="c c10" x="274" y="82" rx="2" ry="2"/><rect class="c c11" x="274" y="98" rx="2" ry="2"/><rect class="c" x="290" y="2" rx="2" ry="2"/><rect class="c" x="290" y="18" rx="2" ry="2"/><rect class="c" x="290" y="34" rx="2" ry="2"/><rect class="c" x="290" y="50" rx="2" ry="2"/><rect class="c" x="290" y="66" rx="2" ry="2"/><rect class="c" x="290" y="82" rx="2" ry="2"/><rect class="c" x="290" y="98" rx="2" ry="2"/><rect class="c c12" x="306" y="2" rx="2" ry="2"/><rect class="c" x="306" y="18" rx="2" ry="2"/><rect class="c c13" x="306" y="34" rx="2" ry="2"/><rect class="c c14" x="306" y="50" rx="2" ry="2"/><rect class="c c15" x="306" y="66" rx="2" ry="2"/><rect class="c" x="306" y="82" rx="2" ry="2"/><rect class="c c16" x="306" y="98" rx="2" ry="2"/><rect class="c" x="322" y="2" rx="2" ry="2"/><rect class="c" x="322" y="18" rx="2" ry="2"/><rect class="c" x="322" y="34" rx="2" ry="2"/><rect class="c" x="322" y="50" rx="2" ry="2"/><rect class="c c17" x="322" y="66" rx="2" ry="2"/><rect class="c" x="322" y="82" rx="2" ry="2"/><rect class="c" x="322" y="98" rx="2" ry="2"/><rect class="c" x="338" y="2" rx="2" ry="2"/><rect class="c" x="338" y="18" rx="2" ry="2"/><rect class="c" x="338" y="34" rx="2" ry="2"/><rect class="c c18" x="338" y="50" rx="2" ry="2"/><rect class="c c19" x="338" y="66" rx="2" ry="2"/><rect class="c" x="338" y="82" rx="2" ry="2"/><rect class="c" x="338" y="98" rx="2" ry="2"/><rect class="c c1a" x="354" y="2" rx="2" ry="2"/><rect class="c c1b" x="354" y="18" rx="2" ry="2"/><rect class="c c1c" x="354" y="34" rx="2" ry="2"/><rect class="c" x="354" y="50" rx="2" ry="2"/><rect class="c" x="354" y="66" rx="2" ry="2"/><rect class="c" x="354" y="82" rx="2" ry="2"/><rect class="c" x="354" y="98" rx="2" ry="2"/><rect class="c" x="370" y="2" rx="2" ry="2"/><rect class="c c1d" x="370" y="18" rx="2" ry="2"/><rect class="c" x="370" y="34" rx="2" ry="2"/><rect class="c" x="370" y="50" rx="2" ry="2"/><rect class="c" x="370" y="66" rx="2" ry="2"/><rect class="c" x="370" y="82" rx="2" ry="2"/><rect class="c" x="370" y="98" rx="2" ry="2"/><rect class="c" x="386" y="2" rx="2" ry="2"/><rect class="c" x="386" y="18" rx="2" ry="2"/><rect class="c" x="386" y="34" rx="2" ry="2"/><rect class="c" x="386" y="50" rx="2" ry="2"/><rect class="c" x="386" y="66" rx="2" ry="2"/><rect class="c c1e" x="386" y="82" rx="2" ry="2"/><rect class="c c1f" x="386" y="98" rx="2" ry="2"/><rect class="c" x="402" y="2" rx="2" ry="2"/><rect class="c" x="402" y="18" rx="2" ry="2"/><rect class="c" x="402" y="34" rx="2" ry="2"/><rect class="c" x="402" y="50" rx="2" ry="2"/><rect class="c" x="402" y="66" rx="2" ry="2"/><rect class="c c1g" x="402" y="82" rx="2" ry="2"/><rect class="c c1h" x="402" y="98" rx="2" ry="2"/><rect class="c" x="418" y="2" rx="2" ry="2"/><rect class="c" x="418" y="18" rx="2" ry="2"/><rect class="c" x="418" y="34" rx="2" ry="2"/><rect class="c" x="418" y="50" rx="2" ry="2"/><rect class="c" x="418" y="66" rx="2" ry="2"/><rect class="c c1i" x="418" y="82" rx="2" ry="2"/><rect class="c c1j" x="418" y="98" rx="2" ry="2"/><rect class="c" x="434" y="2" rx="2" ry="2"/><rect class="c" x="434" y="18" rx="2" ry="2"/><rect class="c c1k" x="434" y="34" rx="2" ry="2"/><rect class="c" x="434" y="50" rx="2" ry="2"/><rect class="c" x="434" y="66" rx="2" ry="2"/><rect class="c" x="434" y="82" rx="2" ry="2"/><rect class="c" x="434" y="98" rx="2" ry="2"/><rect class="c c1l" x="450" y="2" rx="2" ry="2"/><rect class="c c1m" x="450" y="18" rx="2" ry="2"/><rect class="c" x="450" y="34" rx="2" ry="2"/><rect class="c" x="450" y="50" rx="2" ry="2"/><rect class="c" x="450" y="66" rx="2" ry="2"/><rect class="c" x="450" y="82" rx="2" ry="2"/><rect class="c" x="450" y="98" rx="2" ry="2"/><rect class="c c1n" x="466" y="2" rx="2" ry="2"/><rect class="c c1o" x="466" y="18" rx="2" ry="2"/><rect class="c c1p" x="466" y="34" rx="2" ry="2"/><rect class="c c1q" x="466" y="50" rx="2" ry="2"/><rect class="c c1r" x="466" y="66" rx="2" ry="2"/><rect class="c c1s" x="466" y="82" rx="2" ry="2"/><rect class="c" x="466" y="98" rx="2" ry="2"/><rect class="c" x="482" y="2" rx="2" ry="2"/><rect class="c" x="482" y="18" rx="2" ry="2"/><rect class="c" x="482" y="34" rx="2" ry="2"/><rect class="c c1t" x="482" y="50" rx="2" ry="2"/><rect class="c c1u" x="482" y="66" rx="2" ry="2"/><rect class="c c1v" x="482" y="82" rx="2" ry="2"/><rect class="c" x="482" y="98" rx="2" ry="2"/><rect class="c" x="498" y="2" rx="2" ry="2"/><rect class="c" x="498" y="18" rx="2" ry="2"/><rect class="c" x="498" y="34" rx="2" ry="2"/><rect class="c" x="498" y="50" rx="2" ry="2"/><rect class="c" x="498" y="66" rx="2" ry="2"/><rect class="c" x="498" y="82" rx="2" ry="2"/><rect class="c c1w" x="498" y="98" rx="2" ry="2"/><rect class="c c1x" x="514" y="2" rx="2" ry="2"/><rect class="c c1y" x="514" y="18" rx="2" ry="2"/><rect class="c c1z" x="514" y="34" rx="2" ry="2"/><rect class="c" x="514" y="50" rx="2" ry="2"/><rect class="c" x="514" y="66" rx="2" ry="2"/><rect class="c c20" x="514" y="82" rx="2" ry="2"/><rect class="c" x="514" y="98" rx="2" ry="2"/><rect class="c" x="530" y="2" rx="2" ry="2"/><rect class="c c21" x="530" y="18" rx="2" ry="2"/><rect class="c c22" x="530" y="34" rx="2" ry="2"/><rect class="c" x="530" y="50" rx="2" ry="2"/><rect class="c" x="530" y="66" rx="2" ry="2"/><rect class="c" x="530" y="82" rx="2" ry="2"/><rect class="c" x="530" y="98" rx="2" ry="2"/><rect class="c" x="546" y="2" rx="2" ry="2"/><rect class="c" x="546" y="18" rx="2" ry="2"/><rect class="c" x="546" y="34" rx="2" ry="2"/><rect class="c" x="546" y="50" rx="2" ry="2"/><rect class="c" x="546" y="66" rx="2" ry="2"/><rect class="c c23" x="546" y="82" rx="2" ry="2"/><rect class="c" x="546" y="98" rx="2" ry="2"/><rect class="c" x="562" y="2" rx="2" ry="2"/><rect class="c" x="562" y="18" rx="2" ry="2"/><rect class="c" x="562" y="34" rx="2" ry="2"/><rect class="c" x="562" y="50" rx="2" ry="2"/><rect class="c c24" x="562" y="66" rx="2" ry="2"/><rect class="c" x="562" y="82" rx="2" ry="2"/><rect class="c" x="562" y="98" rx="2" ry="2"/><rect class="c" x="578" y="2" rx="2" ry="2"/><rect class="c" x="578" y="18" rx="2" ry="2"/><rect class="c" x="578" y="34" rx="2" ry="2"/><rect class="c" x="578" y="50" rx="2" ry="2"/><rect class="c" x="578" y="66" rx="2" ry="2"/><rect class="c" x="578" y="82" rx="2" ry="2"/><rect class="c" x="578" y="98" rx="2" ry="2"/><rect class="c" x="594" y="2" rx="2" ry="2"/><rect class="c" x="594" y="18" rx="2" ry="2"/><rect class="c" x="594" y="34" rx="2" ry="2"/><rect class="c" x="594" y="50" rx="2" ry="2"/><rect class="c" x="594" y="66" rx="2" ry="2"/><rect class="c c25" x="594" y="82" rx="2" ry="2"/><rect class="c" x="594" y="98" rx="2" ry="2"/><rect class="c" x="610" y="2" rx="2" ry="2"/><rect class="c" x="610" y="18" rx="2" ry="2"/><rect class="c" x="610" y="34" rx="2" ry="2"/><rect class="c" x="610" y="50" rx="2" ry="2"/><rect class="c c26" x="610" y="66" rx="2" ry="2"/><rect class="c" x="610" y="82" rx="2" ry="2"/><rect class="c" x="610" y="98" rx="2" ry="2"/><rect class="c" x="626" y="2" rx="2" ry="2"/><rect class="c" x="626" y="18" rx="2" ry="2"/><rect class="c" x="626" y="34" rx="2" ry="2"/><rect class="c" x="626" y="50" rx="2" ry="2"/><rect class="c" x="626" y="66" rx="2" ry="2"/><rect class="c c27" x="626" y="82" rx="2" ry="2"/><rect class="c c28" x="626" y="98" rx="2" ry="2"/><rect class="c" x="642" y="2" rx="2" ry="2"/><rect class="c c29" x="642" y="18" rx="2" ry="2"/><rect class="c c2a" x="642" y="34" rx="2" ry="2"/><rect class="c c2b" x="642" y="50" rx="2" ry="2"/><rect class="c c2c" x="642" y="66" rx="2" ry="2"/><rect class="c" x="642" y="82" rx="2" ry="2"/><rect class="c" x="642" y="98" rx="2" ry="2"/><rect class="c" x="658" y="2" rx="2" ry="2"/><rect class="c" x="658" y="18" rx="2" ry="2"/><rect class="c" x="658" y="34" rx="2" ry="2"/><rect class="c" x="658" y="50" rx="2" ry="2"/><rect class="c" x="658" y="66" rx="2" ry="2"/><rect class="c" x="658" y="82" rx="2" ry="2"/><rect class="c" x="658" y="98" rx="2" ry="2"/><rect class="c" x="674" y="2" rx="2" ry="2"/><rect class="c c2d" x="674" y="18" rx="2" ry="2"/><rect class="c" x="674" y="34" rx="2" ry="2"/><rect class="c" x="674" y="50" rx="2" ry="2"/><rect class="c" x="674" y="66" rx="2" ry="2"/><rect class="c" x="674" y="82" rx="2" ry="2"/><rect class="c" x="674" y="98" rx="2" ry="2"/><rect class="c" x="690" y="2" rx="2" ry="2"/><rect class="c c2e" x="690" y="18" rx="2" ry="2"/><rect class="c" x="690" y="34" rx="2" ry="2"/><rect class="c" x="690" y="50" rx="2" ry="2"/><rect class="c" x="690" y="66" rx="2" ry="2"/><rect class="c" x="690" y="82" rx="2" ry="2"/><rect class="c c2f" x="690" y="98" rx="2" ry="2"/><rect class="c c2g" x="706" y="2" rx="2" ry="2"/><rect class="c" x="706" y="18" rx="2" ry="2"/><rect class="c" x="706" y="34" rx="2" ry="2"/><rect class="c" x="706" y="50" rx="2" ry="2"/><rect class="c" x="706" y="66" rx="2" ry="2"/><rect class="c" x="706" y="82" rx="2" ry="2"/><rect class="c" x="706" y="98" rx="2" ry="2"/><rect class="c" x="722" y="2" rx="2" ry="2"/><rect class="c" x="722" y="18" rx="2" ry="2"/><rect class="c" x="722" y="34" rx="2" ry="2"/><rect class="c" x="722" y="50" rx="2" ry="2"/><rect class="c" x="722" y="66" rx="2" ry="2"/><rect class="c" x="722" y="82" rx="2" ry="2"/><rect class="c" x="722" y="98" rx="2" ry="2"/><rect class="c" x="738" y="2" rx="2" ry="2"/><rect class="c" x="738" y="18" rx="2" ry="2"/><rect class="c" x="738" y="34" rx="2" ry="2"/><rect class="c" x="738" y="50" rx="2" ry="2"/><rect class="c" x="738" y="66" rx="2" ry="2"/><rect class="c" x="738" y="82" rx="2" ry="2"/><rect class="c" x="738" y="98" rx="2" ry="2"/><rect class="c" x="754" y="2" rx="2" ry="2"/><rect class="c" x="754" y="18" rx="2" ry="2"/><rect class="c" x="754" y="34" rx="2" ry="2"/><rect class="c" x="754" y="50" rx="2" ry="2"/><rect class="c" x="754" y="66" rx="2" ry="2"/><rect class="c" x="754" y="82" rx="2" ry="2"/><rect class="c" x="754" y="98" rx="2" ry="2"/><rect class="c" x="770" y="2" rx="2" ry="2"/><rect class="c" x="770" y="18" rx="2" ry="2"/><rect class="c" x="770" y="34" rx="2" ry="2"/><rect class="c" x="770" y="50" rx="2" ry="2"/><rect class="c" x="770" y="66" rx="2" ry="2"/><rect class="c" x="770" y="82" rx="2" ry="2"/><rect class="c" x="770" y="98" rx="2" ry="2"/><rect class="c" x="786" y="2" rx="2" ry="2"/><rect class="c" x="786" y="18" rx="2" ry="2"/><rect class="c" x="786" y="34" rx="2" ry="2"/><rect class="c" x="786" y="50" rx="2" ry="2"/><rect class="c c2h" x="786" y="66" rx="2" ry="2"/><rect class="c" x="786" y="82" rx="2" ry="2"/><rect class="c" x="786" y="98" rx="2" ry="2"/><rect class="c" x="802" y="2" rx="2" ry="2"/><rect class="c c2i" x="802" y="18" rx="2" ry="2"/><rect class="c c2j" x="802" y="34" rx="2" ry="2"/><rect class="c" x="802" y="50" rx="2" ry="2"/><rect class="c c2k" x="802" y="66" rx="2" ry="2"/><rect class="c" x="802" y="82" rx="2" ry="2"/><rect class="c" x="802" y="98" rx="2" ry="2"/><rect class="c" x="818" y="2" rx="2" ry="2"/><rect class="c" x="818" y="18" rx="2" ry="2"/><rect class="c" x="818" y="34" rx="2" ry="2"/><rect class="c" x="818" y="50" rx="2" ry="2"/><rect class="c" x="818" y="66" rx="2" ry="2"/><rect class="c" x="818" y="82" rx="2" ry="2"/><rect class="c" x="818" y="98" rx="2" ry="2"/><rect class="c c2l" x="834" y="2" rx="2" ry="2"/><rect class="c" x="834" y="18" rx="2" ry="2"/><rect class="c c2m" x="834" y="34" rx="2" ry="2"/><rect class="c c2n" x="834" y="50" rx="2" ry="2"/><rect class="c c2o" x="834" y="66" rx="2" ry="2"/><rect class="u u0" height="12" width="778.7" x="0.0" y="144"/><rect class="u u1" height="12" width="44.3" x="778.1" y="144"/><rect class="u u2" height="12" width="26.8" x="821.8" y="144"/><rect class="s s0" x="0.8" y="0.8" width="14.4" height="14.4" rx="4.5" ry="4.5"/><rect class="s s1" x="1.8" y="1.8" width="12.3" height="12.3" rx="4.1" ry="4.1"/><rect class="s s2" x="2.6" y="2.6" width="10.8" height="10.8" rx="3.6" ry="3.6"/><rect class="s s3" x="3.0" y="3.0" width="9.9" height="9.9" rx="3.3" ry="3.3"/></svg>