<svg viewBox="-16 -32 880 192" width="880" height="192" xmlns="http://www.w3.org/2000/svg"><desc>Generated with https://github.com/Platane/snk</desc><style>:root{--cb:#1b1f230a;--cs:purple;--ce:#ebedf0;--c0:#ebedf0;--c1:#9be9a8;--c2:#40c463;--c3:#30a14e;--c4:#216e39}.c{shape-rendering:geometricPrecision;fill:var(--ce);stroke-width:1px;stroke:var(--cb);animation:none 41900ms linear infinite;width:12px;height:12px}@keyframes c0{0.71%{fill:var(--c1)}0.73%,100%{fill:var(--ce)}}.c.c0{fill:var(--c1);animation-name:c0}@keyframes c1{58.7%{fill:var(--c2)}58.72%,100%{fill:var(--ce)}}.c.c1{fill:var(--c2);animation-name:c1}@keyframes c2{2.38%{fill:var(--c1)}2.4%,100%{fill:var(--ce)}}.c.c2{fill:var(--c1);animation-name:c2}@keyframes c3{3.09%{fill:var(--c1)}3.11%,100%{fill:var(--ce)}}.c.c3{fill:var(--c1);animation-name:c3}@keyframes c4{1.9%{fill:var(--c1)}1.92%,100%{fill:var(--ce)}}.c.c4{fill:var(--c1);animation-name:c4}@keyframes c5{17.89%{fill:var(--c1)}17.91%,100%{fill:var(--ce)}}.c.c5{fill:var(--c1);animation-name:c5}@keyframes c6{4.52%{fill:var(--c1)}4.54%,100%{fill:var(--ce)}}.c.c6{fill:var(--c1);animation-name:c6}@keyframes c7{4.29%{fill:var(--c1)}4.31%,100%{fill:var(--ce)}}.c.c7{fill:var(--c1);animation-name:c7}@keyframes c8{17.65%{fill:var(--c1)}17.67%,100%{fill:var(--ce)}}.c.c8{fill:var(--c1);animation-name:c8}@keyframes c9{18.37%{fill:var(--c1)}18.39%,100%{fill:var(--ce)}}.c.c9{fill:var(--c1);animation-name:c9}@keyframes ca{56.31%{fill:var(--c2)}56.33%,100%{fill:var(--ce)}}.c.ca{fill:var(--c2);animation-name:ca}@keyframes cb{17.41%{fill:var(--c1)}17.43%,100%{fill:var(--ce)}}.c.cb{fill:var(--c1);animation-name:cb}@keyframes cc{5.48%{fill:var(--c1)}5.5%,100%{fill:var(--ce)}}.c.cc{fill:var(--c1);animation-name:cc}@keyframes cd{5.24%{fill:var(--c1)}5.26%,100%{fill:var(--ce)}}.c.cd{fill:var(--c1);animation-name:cd}@keyframes ce{5%{fill:var(--c1)}5.02%,100%{fill:var(--ce)}}.c.ce{fill:var(--c1);animation-name:ce}@keyframes cf{16.22%{fill:var(--c1)}16.24%,100%{fill:var(--ce)}}.c.cf{fill:var(--c1);animation-name:cf}@keyframes cg{15.98%{fill:var(--c1)}16%,100%{fill:var(--ce)}}.c.cg{fill:var(--c1);animation-name:cg}@keyframes ch{5.72%{fill:var(--c1)}5.74%,100%{fill:var(--ce)}}.c.ch{fill:var(--c1);animation-name:ch}@keyframes ci{15.26%{fill:var(--c1)}15.28%,100%{fill:var(--ce)}}.c.ci{fill:var(--c1);animation-name:ci}@keyframes cj{15.5%{fill:var(--c1)}15.52%,100%{fill:var(--ce)}}.c.cj{fill:var(--c1);animation-name:cj}@keyframes ck{6.67%{fill:var(--c1)}6.69%,100%{fill:var(--ce)}}.c.ck{fill:var(--c1);animation-name:ck}@keyframes cl{6.43%{fill:var(--c1)}6.45%,100%{fill:var(--ce)}}.c.cl{fill:var(--c1);animation-name:cl}@keyframes cm{6.2%{fill:var(--c1)}6.22%,100%{fill:var(--ce)}}.c.cm{fill:var(--c1);animation-name:cm}@keyframes cn{14.55%{fill:var(--c1)}14.57%,100%{fill:var(--ce)}}.c.cn{fill:var(--c1);animation-name:cn}@keyframes co{14.79%{fill:var(--c1)}14.81%,100%{fill:var(--ce)}}.c.co{fill:var(--c1);animation-name:co}@keyframes cp{7.39%{fill:var(--c1)}7.41%,100%{fill:var(--ce)}}.c.cp{fill:var(--c1);animation-name:cp}@keyframes cq{14.07%{fill:var(--c1)}14.09%,100%{fill:var(--ce)}}.c.cq{fill:var(--c1);animation-name:cq}@keyframes cr{13.83%{fill:var(--c1)}13.85%,100%{fill:var(--ce)}}.c.cr{fill:var(--c1);animation-name:cr}@keyframes cs{20.75%{fill:var(--c1)}20.77%,100%{fill:var(--ce)}}.c.cs{fill:var(--c1);animation-name:cs}@keyframes ct{53.93%{fill:var(--c2)}53.95%,100%{fill:var(--ce)}}.c.ct{fill:var(--c2);animation-name:ct}@keyframes cu{21.71%{fill:var(--c1)}21.73%,100%{fill:var(--ce)}}.c.cu{fill:var(--c1);animation-name:cu}@keyframes cv{8.1%{fill:var(--c1)}8.12%,100%{fill:var(--ce)}}.c.cv{fill:var(--c1);animation-name:cv}@keyframes cw{7.87%{fill:var(--c1)}7.89%,100%{fill:var(--ce)}}.c.cw{fill:var(--c1);animation-name:cw}@keyframes cx{13.36%{fill:var(--c1)}13.38%,100%{fill:var(--ce)}}.c.cx{fill:var(--c1);animation-name:cx}@keyframes cy{13.59%{fill:var(--c1)}13.61%,100%{fill:var(--ce)}}.c.cy{fill:var(--c1);animation-name:cy}@keyframes cz{20.99%{fill:var(--c1)}21.01%,100%{fill:var(--ce)}}.c.cz{fill:var(--c1);animation-name:cz}@keyframes c10{21.23%{fill:var(--c1)}21.25%,100%{fill:var(--ce)}}.c.c10{fill:var(--c1);animation-name:c10}@keyframes c11{21.47%{fill:var(--c1)}21.49%,100%{fill:var(--ce)}}.c.c11{fill:var(--c1);animation-name:c11}@keyframes c12{8.58%{fill:var(--c1)}8.6%,100%{fill:var(--ce)}}.c.c12{fill:var(--c1);animation-name:c12}@keyframes c13{9.06%{fill:var(--c1)}9.08%,100%{fill:var(--ce)}}.c.c13{fill:var(--c1);animation-name:c13}@keyframes c14{9.3%{fill:var(--c1)}9.32%,100%{fill:var(--ce)}}.c.c14{fill:var(--c1);animation-name:c14}@keyframes c15{9.54%{fill:var(--c1)}9.56%,100%{fill:var(--ce)}}.c.c15{fill:var(--c1);animation-name:c15}@keyframes c16{22.9%{fill:var(--c1)}22.92%,100%{fill:var(--ce)}}.c.c16{fill:var(--c1);animation-name:c16}@keyframes c17{9.78%{fill:var(--c1)}9.8%,100%{fill:var(--ce)}}.c.c17{fill:var(--c1);animation-name:c17}@keyframes c18{10.25%{fill:var(--c1)}10.27%,100%{fill:var(--ce)}}.c.c18{fill:var(--c1);animation-name:c18}@keyframes c19{10.01%{fill:var(--c1)}10.03%,100%{fill:var(--ce)}}.c.c19{fill:var(--c1);animation-name:c19}@keyframes c1a{11.68%{fill:var(--c1)}11.7%,100%{fill:var(--ce)}}.c.c1a{fill:var(--c1);animation-name:c1a}@keyframes c1b{10.97%{fill:var(--c1)}10.99%,100%{fill:var(--ce)}}.c.c1b{fill:var(--c1);animation-name:c1b}@keyframes c1c{51.78%{fill:var(--c2)}51.8%,100%{fill:var(--ce)}}.c.c1c{fill:var(--c2);animation-name:c1c}@keyframes c1d{11.21%{fill:var(--c1)}11.23%,100%{fill:var(--ce)}}.c.c1d{fill:var(--c1);animation-name:c1d}@keyframes c1e{25.29%{fill:var(--c1)}25.31%,100%{fill:var(--ce)}}.c.c1e{fill:var(--c1);animation-name:c1e}@keyframes c1f{24.1%{fill:var(--c1)}24.12%,100%{fill:var(--ce)}}.c.c1f{fill:var(--c1);animation-name:c1f}@keyframes c1g{25.05%{fill:var(--c1)}25.07%,100%{fill:var(--ce)}}.c.c1g{fill:var(--c1);animation-name:c1g}@keyframes c1h{24.33%{fill:var(--c1)}24.35%,100%{fill:var(--ce)}}.c.c1h{fill:var(--c1);animation-name:c1h}@keyframes c1i{24.81%{fill:var(--c1)}24.83%,100%{fill:var(--ce)}}.c.c1i{fill:var(--c1);animation-name:c1i}@keyframes c1j{24.57%{fill:var(--c1)}24.59%,100%{fill:var(--ce)}}.c.c1j{fill:var(--c1);animation-name:c1j}@keyframes c1k{29.58%{fill:var(--c1)}29.6%,100%{fill:var(--ce)}}.c.c1k{fill:var(--c1);animation-name:c1k}@keyframes c1l{28.87%{fill:var(--c1)}28.89%,100%{fill:var(--ce)}}.c.c1l{fill:var(--c1);animation-name:c1l}@keyframes c1m{28.15%{fill:var(--c1)}28.17%,100%{fill:var(--ce)}}.c.c1m{fill:var(--c1);animation-name:c1m}@keyframes c1n{28.63%{fill:var(--c1)}28.65%,100%{fill:var(--ce)}}.c.c1n{fill:var(--c1);animation-name:c1n}@keyframes c1o{28.39%{fill:var(--c1)}28.41%,100%{fill:var(--ce)}}.c.c1o{fill:var(--c1);animation-name:c1o}@keyframes c1p{48.68%{fill:var(--c2)}48.7%,100%{fill:var(--ce)}}.c.c1p{fill:var(--c2);animation-name:c1p}@keyframes c1q{27.44%{fill:var(--c1)}27.46%,100%{fill:var(--ce)}}.c.c1q{fill:var(--c1);animation-name:c1q}@keyframes c1r{26.72%{fill:var(--c1)}26.74%,100%{fill:var(--ce)}}.c.c1r{fill:var(--c1);animation-name:c1r}@keyframes c1s{49.39%{fill:var(--c2)}49.41%,100%{fill:var(--ce)}}.c.c1s{fill:var(--c2);animation-name:c1s}@keyframes c1t{27.2%{fill:var(--c1)}27.22%,100%{fill:var(--ce)}}.c.c1t{fill:var(--c1);animation-name:c1t}@keyframes c1u{26.96%{fill:var(--c1)}26.98%,100%{fill:var(--ce)}}.c.c1u{fill:var(--c1);animation-name:c1u}@keyframes c1v{78.75%{fill:var(--c4)}78.77%,100%{fill:var(--ce)}}.c.c1v{fill:var(--c4);animation-name:c1v}@keyframes c1w{78.27%{fill:var(--c3)}78.29%,100%{fill:var(--ce)}}.c.c1w{fill:var(--c3);animation-name:c1w}@keyframes c1x{47.48%{fill:var(--c2)}47.5%,100%{fill:var(--ce)}}.c.c1x{fill:var(--c2);animation-name:c1x}@keyframes c1y{31.02%{fill:var(--c1)}31.04%,100%{fill:var(--ce)}}.c.c1y{fill:var(--c1);animation-name:c1y}@keyframes c1z{34.12%{fill:var(--c1)}34.14%,100%{fill:var(--ce)}}.c.c1z{fill:var(--c1);animation-name:c1z}@keyframes c20{33.4%{fill:var(--c1)}33.42%,100%{fill:var(--ce)}}.c.c20{fill:var(--c1);animation-name:c20}@keyframes c21{31.25%{fill:var(--c1)}31.27%,100%{fill:var(--ce)}}.c.c21{fill:var(--c1);animation-name:c21}@keyframes c22{80.18%{fill:var(--c4)}80.2%,100%{fill:var(--ce)}}.c.c22{fill:var(--c4);animation-name:c22}@keyframes c23{32.93%{fill:var(--c1)}32.95%,100%{fill:var(--ce)}}.c.c23{fill:var(--c1);animation-name:c23}@keyframes c24{32.45%{fill:var(--c1)}32.47%,100%{fill:var(--ce)}}.c.c24{fill:var(--c1);animation-name:c24}@keyframes c25{45.1%{fill:var(--c1)}45.12%,100%{fill:var(--ce)}}.c.c25{fill:var(--c1);animation-name:c25}@keyframes c26{44.62%{fill:var(--c1)}44.64%,100%{fill:var(--ce)}}.c.c26{fill:var(--c1);animation-name:c26}@keyframes c27{43.67%{fill:var(--c1)}43.69%,100%{fill:var(--ce)}}.c.c27{fill:var(--c1);animation-name:c27}@keyframes c28{43.43%{fill:var(--c1)}43.45%,100%{fill:var(--ce)}}.c.c28{fill:var(--c1);animation-name:c28}@keyframes c29{36.27%{fill:var(--c1)}36.29%,100%{fill:var(--ce)}}.c.c29{fill:var(--c1);animation-name:c29}@keyframes c2a{81.85%{fill:var(--c4)}81.87%,100%{fill:var(--ce)}}.c.c2a{fill:var(--c4);animation-name:c2a}@keyframes c2b{82.09%{fill:var(--c4)}82.11%,100%{fill:var(--ce)}}.c.c2b{fill:var(--c4);animation-name:c2b}@keyframes c2c{44.14%{fill:var(--c1)}44.16%,100%{fill:var(--ce)}}.c.c2c{fill:var(--c1);animation-name:c2c}@keyframes c2d{36.74%{fill:var(--c1)}36.76%,100%{fill:var(--ce)}}.c.c2d{fill:var(--c1);animation-name:c2d}@keyframes c2e{36.98%{fill:var(--c1)}37%,100%{fill:var(--ce)}}.c.c2e{fill:var(--c1);animation-name:c2e}@keyframes c2f{42.47%{fill:var(--c1)}42.49%,100%{fill:var(--ce)}}.c.c2f{fill:var(--c1);animation-name:c2f}@keyframes c2g{37.46%{fill:var(--c1)}37.48%,100%{fill:var(--ce)}}.c.c2g{fill:var(--c1);animation-name:c2g}@keyframes c2h{40.09%{fill:var(--c1)}40.11%,100%{fill:var(--ce)}}.c.c2h{fill:var(--c1);animation-name:c2h}@keyframes c2i{39.13%{fill:var(--c1)}39.15%,100%{fill:var(--ce)}}.c.c2i{fill:var(--c1);animation-name:c2i}@keyframes c2j{70.87%{fill:var(--c2)}70.89%,100%{fill:var(--ce)}}.c.c2j{fill:var(--c2);animation-name:c2j}@keyframes c2k{40.32%{fill:var(--c1)}40.34%,100%{fill:var(--ce)}}.c.c2k{fill:var(--c1);animation-name:c2k}@keyframes c2l{71.83%{fill:var(--c2)}71.85%,100%{fill:var(--ce)}}.c.c2l{fill:var(--c2);animation-name:c2l}@keyframes c2m{85.19%{fill:var(--c4)}85.21%,100%{fill:var(--ce)}}.c.c2m{fill:var(--c4);animation-name:c2m}@keyframes c2n{84.95%{fill:var(--c4)}84.97%,100%{fill:var(--ce)}}.c.c2n{fill:var(--c4);animation-name:c2n}@keyframes c2o{86.15%{fill:var(--c4)}86.17%,100%{fill:var(--ce)}}.c.c2o{fill:var(--c4);animation-name:c2o}.u{transform-origin:0 0;transform:scale(0,1);animation:none linear 41900ms infinite}@keyframes u0{0.71%{transform:scale(0.000,1)}0.73%,1.9%{transform:scale(0.013,1)}1.92%,2.38%{transform:scale(0.025,1)}2.4%,3.09%{transform:scale(0.037,1)}3.11%,4.29%{transform:scale(0.050,1)}4.31%,4.52%{transform:scale(0.063,1)}4.54%,5%{transform:scale(0.075,1)}5.02%,5.24%{transform:scale(0.087,1)}5.26%,5.48%{transform:scale(0.100,1)}5.5%,5.72%{transform:scale(0.113,1)}5.74%,6.2%{transform:scale(0.125,1)}6.22%,6.43%{transform:scale(0.138,1)}6.45%,6.67%{transform:scale(0.150,1)}6.69%,7.39%{transform:scale(0.163,1)}7.41%,7.87%{transform:scale(0.175,1)}7.89%,8.1%{transform:scale(0.188,1)}8.12%,8.58%{transform:scale(0.200,1)}8.6%,9.06%{transform:scale(0.212,1)}9.08%,9.3%{transform:scale(0.225,1)}9.32%,9.54%{transform:scale(0.237,1)}9.56%,9.78%{transform:scale(0.250,1)}9.8%,10.01%{transform:scale(0.263,1)}10.03%,10.25%{transform:scale(0.275,1)}10.27%,10.97%{transform:scale(0.287,1)}10.99%,11.21%{transform:scale(0.300,1)}11.23%,11.68%{transform:scale(0.313,1)}11.7%,13.36%{transform:scale(0.325,1)}13.38%,13.59%{transform:scale(0.338,1)}13.61%,13.83%{transform:scale(0.350,1)}13.85%,14.07%{transform:scale(0.362,1)}14.09%,14.55%{transform:scale(0.375,1)}14.57%,14.79%{transform:scale(0.388,1)}14.81%,15.26%{transform:scale(0.400,1)}15.28%,15.5%{transform:scale(0.412,1)}15.52%,15.98%{transform:scale(0.425,1)}16%,16.22%{transform:scale(0.438,1)}16.24%,17.41%{transform:scale(0.450,1)}17.43%,17.65%{transform:scale(0.463,1)}17.67%,17.89%{transform:scale(0.475,1)}17.91%,18.37%{transform:scale(0.487,1)}18.39%,20.75%{transform:scale(0.500,1)}20.77%,20.99%{transform:scale(0.512,1)}21.01%,21.23%{transform:scale(0.525,1)}21.25%,21.47%{transform:scale(0.537,1)}21.49%,21.71%{transform:scale(0.550,1)}21.73%,22.9%{transform:scale(0.563,1)}22.92%,24.1%{transform:scale(0.575,1)}24.12%,24.33%{transform:scale(0.588,1)}24.35%,24.57%{transform:scale(0.600,1)}24.59%,24.81%{transform:scale(0.613,1)}24.83%,25.05%{transform:scale(0.625,1)}25.07%,25.29%{transform:scale(0.637,1)}25.31%,26.72%{transform:scale(0.650,1)}26.74%,26.96%{transform:scale(0.662,1)}26.98%,27.2%{transform:scale(0.675,1)}27.22%,27.44%{transform:scale(0.688,1)}27.46%,28.15%{transform:scale(0.700,1)}28.17%,28.39%{transform:scale(0.713,1)}28.41%,28.63%{transform:scale(0.725,1)}28.65%,28.87%{transform:scale(0.738,1)}28.89%,29.58%{transform:scale(0.750,1)}29.6%,31.02%{transform:scale(0.762,1)}31.04%,31.25%{transform:scale(0.775,1)}31.27%,32.45%{transform:scale(0.787,1)}32.47%,32.93%{transform:scale(0.800,1)}32.95%,33.4%{transform:scale(0.813,1)}33.42%,34.12%{transform:scale(0.825,1)}34.14%,36.27%{transform:scale(0.838,1)}36.29%,36.74%{transform:scale(0.850,1)}36.76%,36.98%{transform:scale(0.863,1)}37%,37.46%{transform:scale(0.875,1)}37.48%,39.13%{transform:scale(0.887,1)}39.15%,40.09%{transform:scale(0.900,1)}40.11%,40.32%{transform:scale(0.912,1)}40.34%,42.47%{transform:scale(0.925,1)}42.49%,43.43%{transform:scale(0.938,1)}43.45%,43.67%{transform:scale(0.950,1)}43.69%,44.14%{transform:scale(0.963,1)}44.16%,44.62%{transform:scale(0.975,1)}44.64%,45.1%{transform:scale(0.988,1)}45.12%,100%{transform:scale(1.000,1)}}.u.u0{fill:var(--c1);animation-name:u0;transform-origin:0.0px 0}@keyframes u1{47.48%{transform:scale(0.000,1)}47.5%,48.68%{transform:scale(0.111,1)}48.7%,49.39%{transform:scale(0.222,1)}49.41%,51.78%{transform:scale(0.333,1)}51.8%,53.93%{transform:scale(0.444,1)}53.95%,56.31%{transform:scale(0.556,1)}56.33%,58.7%{transform:scale(0.667,1)}58.72%,70.87%{transform:scale(0.778,1)}70.89%,71.83%{transform:scale(0.889,1)}71.85%,100%{transform:scale(1.000,1)}}.u.u1{fill:var(--c2);animation-name:u1;transform-origin:699.4px 0}@keyframes u2{78.27%{transform:scale(0.000,1)}78.29%,100%{transform:scale(1.000,1)}}.u.u2{fill:var(--c3);animation-name:u2;transform-origin:778.1px 0}@keyframes u3{78.75%{transform:scale(0.000,1)}78.77%,80.18%{transform:scale(0.143,1)}80.2%,81.85%{transform:scale(0.286,1)}81.87%,82.09%{transform:scale(0.429,1)}82.11%,84.95%{transform:scale(0.571,1)}84.97%,85.19%{transform:scale(0.714,1)}85.21%,86.15%{transform:scale(0.857,1)}86.17%,100%{transform:scale(1.000,1)}}.u.u3{fill:var(--c4);animation-name:u3;transform-origin:786.8px 0}.s{shape-rendering:geometricPrecision;fill:var(--cs);animation:none linear 41900ms infinite}@keyframes s0{0%,99.76%{transform:translate(0px,-16px)}0.24%{transform:translate(0px,0px)}0.48%{transform:translate(16px,0px)}0.72%{transform:translate(16px,16px)}1.67%{transform:translate(80px,16px)}1.91%{transform:translate(80px,32px)}2.15%{transform:translate(64px,32px)}3.1%{transform:translate(64px,96px)}4.06%{transform:translate(128px,96px)}4.53%{transform:translate(128px,64px)}5.01%{transform:translate(160px,64px)}5.49%{transform:translate(160px,32px)}6.21%{transform:translate(208px,32px)}6.68%{transform:translate(208px,0px)}7.16%{transform:translate(240px,0px)}7.4%{transform:translate(240px,16px)}7.88%{transform:translate(272px,16px)}8.11%,12.89%{transform:translate(272px,0px)}8.59%{transform:translate(304px,0px)}9.55%{transform:translate(304px,64px)}10.02%{transform:translate(336px,64px)}10.74%{transform:translate(336px,16px)}11.22%{transform:translate(368px,16px)}11.46%{transform:translate(368px,0px)}13.6%{transform:translate(272px,48px)}14.56%{transform:translate(208px,48px)}14.8%{transform:translate(208px,64px)}15.04%{transform:translate(192px,64px)}15.51%{transform:translate(192px,96px)}15.99%{transform:translate(160px,96px)}17.42%{transform:translate(160px,0px)}17.9%{transform:translate(128px,0px)}18.14%{transform:translate(128px,16px)}20.05%{transform:translate(256px,16px)}20.76%{transform:translate(256px,64px)}21%{transform:translate(272px,64px)}21.48%{transform:translate(272px,96px)}21.72%{transform:translate(256px,96px)}21.96%{transform:translate(256px,112px)}22.67%{transform:translate(304px,112px)}22.91%{transform:translate(304px,96px)}24.58%{transform:translate(416px,96px)}24.82%{transform:translate(416px,80px)}25.3%{transform:translate(384px,80px)}25.54%{transform:translate(384px,64px)}26.97%{transform:translate(480px,64px)}27.21%{transform:translate(480px,48px)}27.68%{transform:translate(448px,48px)}28.16%,30.07%{transform:translate(448px,16px)}28.4%{transform:translate(464px,16px)}28.64%,48.21%{transform:translate(464px,0px)}29.12%{transform:translate(432px,0px)}29.59%{transform:translate(432px,32px)}29.83%,50.36%{transform:translate(448px,32px)}31.74%{transform:translate(560px,16px)}32.46%{transform:translate(560px,64px)}32.7%{transform:translate(544px,64px)}32.94%{transform:translate(544px,80px)}33.41%{transform:translate(512px,80px)}34.37%{transform:translate(512px,16px)}37.23%{transform:translate(704px,16px)}37.47%{transform:translate(704px,0px)}38.9%{transform:translate(800px,0px)}39.14%{transform:translate(800px,16px)}39.38%{transform:translate(784px,16px)}40.1%{transform:translate(784px,64px)}40.33%,70.41%{transform:translate(800px,64px)}40.57%{transform:translate(800px,80px)}42.24%{transform:translate(688px,80px)}42.48%{transform:translate(688px,96px)}43.44%{transform:translate(624px,96px)}43.68%{transform:translate(624px,80px)}43.91%{transform:translate(640px,80px)}44.15%{transform:translate(640px,64px)}44.87%{transform:translate(592px,64px)}45.11%{transform:translate(592px,80px)}45.35%{transform:translate(576px,80px)}46.54%{transform:translate(576px,0px)}49.4%{transform:translate(464px,80px)}49.64%{transform:translate(448px,80px)}53.22%{transform:translate(256px,32px)}53.94%{transform:translate(256px,80px)}54.18%{transform:translate(240px,80px)}54.89%{transform:translate(240px,32px)}57.76%,98.33%{transform:translate(48px,32px)}58.71%{transform:translate(48px,96px)}64.92%{transform:translate(464px,96px)}65.39%{transform:translate(464px,64px)}70.88%{transform:translate(800px,32px)}71.12%{transform:translate(816px,32px)}71.36%{transform:translate(816px,16px)}71.6%{transform:translate(832px,16px)}71.84%{transform:translate(832px,0px)}76.85%{transform:translate(496px,0px)}78.28%{transform:translate(496px,96px)}78.52%{transform:translate(480px,96px)}78.76%{transform:translate(480px,80px)}79.47%{transform:translate(528px,80px)}80.19%{transform:translate(528px,32px)}81.86%{transform:translate(640px,32px)}82.1%{transform:translate(640px,48px)}84.96%,85.92%{transform:translate(832px,48px)}85.2%{transform:translate(832px,32px)}85.44%{transform:translate(848px,32px)}85.68%{transform:translate(848px,48px)}86.16%{transform:translate(832px,64px)}96.9%{transform:translate(112px,64px)}97.37%{transform:translate(112px,32px)}99.05%{transform:translate(48px,-16px)}}.s.s0{transform:translate(0px,-16px);animation-name:s0}@keyframes s1{0%,99.76%{transform:translate(16px,-16px)}0.24%{transform:translate(0px,-16px)}0.48%{transform:translate(0px,0px)}0.72%{transform:translate(16px,0px)}0.95%{transform:translate(16px,16px)}1.91%{transform:translate(80px,16px)}2.15%{transform:translate(80px,32px)}2.39%{transform:translate(64px,32px)}3.34%{transform:translate(64px,96px)}4.3%{transform:translate(128px,96px)}4.77%{transform:translate(128px,64px)}5.25%{transform:translate(160px,64px)}5.73%{transform:translate(160px,32px)}6.44%{transform:translate(208px,32px)}6.92%{transform:translate(208px,0px)}7.4%{transform:translate(240px,0px)}7.64%{transform:translate(240px,16px)}8.11%{transform:translate(272px,16px)}8.35%,13.13%{transform:translate(272px,0px)}8.83%{transform:translate(304px,0px)}9.79%{transform:translate(304px,64px)}10.26%{transform:translate(336px,64px)}10.98%{transform:translate(336px,16px)}11.46%{transform:translate(368px,16px)}11.69%{transform:translate(368px,0px)}13.84%{transform:translate(272px,48px)}14.8%{transform:translate(208px,48px)}15.04%{transform:translate(208px,64px)}15.27%{transform:translate(192px,64px)}15.75%{transform:translate(192px,96px)}16.23%{transform:translate(160px,96px)}17.66%{transform:translate(160px,0px)}18.14%{transform:translate(128px,0px)}18.38%{transform:translate(128px,16px)}20.29%{transform:translate(256px,16px)}21%{transform:translate(256px,64px)}21.24%{transform:translate(272px,64px)}21.72%{transform:translate(272px,96px)}21.96%{transform:translate(256px,96px)}22.2%{transform:translate(256px,112px)}22.91%{transform:translate(304px,112px)}23.15%{transform:translate(304px,96px)}24.82%{transform:translate(416px,96px)}25.06%{transform:translate(416px,80px)}25.54%{transform:translate(384px,80px)}25.78%{transform:translate(384px,64px)}27.21%{transform:translate(480px,64px)}27.45%{transform:translate(480px,48px)}27.92%{transform:translate(448px,48px)}28.4%,30.31%{transform:translate(448px,16px)}28.64%{transform:translate(464px,16px)}28.88%,48.45%{transform:translate(464px,0px)}29.36%{transform:translate(432px,0px)}29.83%{transform:translate(432px,32px)}30.07%,50.6%{transform:translate(448px,32px)}31.98%{transform:translate(560px,16px)}32.7%{transform:translate(560px,64px)}32.94%{transform:translate(544px,64px)}33.17%{transform:translate(544px,80px)}33.65%{transform:translate(512px,80px)}34.61%{transform:translate(512px,16px)}37.47%{transform:translate(704px,16px)}37.71%{transform:translate(704px,0px)}39.14%{transform:translate(800px,0px)}39.38%{transform:translate(800px,16px)}39.62%{transform:translate(784px,16px)}40.33%{transform:translate(784px,64px)}40.57%,70.64%{transform:translate(800px,64px)}40.81%{transform:translate(800px,80px)}42.48%{transform:translate(688px,80px)}42.72%{transform:translate(688px,96px)}43.68%{transform:translate(624px,96px)}43.91%{transform:translate(624px,80px)}44.15%{transform:translate(640px,80px)}44.39%{transform:translate(640px,64px)}45.11%{transform:translate(592px,64px)}45.35%{transform:translate(592px,80px)}45.58%{transform:translate(576px,80px)}46.78%{transform:translate(576px,0px)}49.64%{transform:translate(464px,80px)}49.88%{transform:translate(448px,80px)}53.46%{transform:translate(256px,32px)}54.18%{transform:translate(256px,80px)}54.42%{transform:translate(240px,80px)}55.13%{transform:translate(240px,32px)}58%,98.57%{transform:translate(48px,32px)}58.95%{transform:translate(48px,96px)}65.16%{transform:translate(464px,96px)}65.63%{transform:translate(464px,64px)}71.12%{transform:translate(800px,32px)}71.36%{transform:translate(816px,32px)}71.6%{transform:translate(816px,16px)}71.84%{transform:translate(832px,16px)}72.08%{transform:translate(832px,0px)}77.09%{transform:translate(496px,0px)}78.52%{transform:translate(496px,96px)}78.76%{transform:translate(480px,96px)}79%{transform:translate(480px,80px)}79.71%{transform:translate(528px,80px)}80.43%{transform:translate(528px,32px)}82.1%{transform:translate(640px,32px)}82.34%{transform:translate(640px,48px)}85.2%,86.16%{transform:translate(832px,48px)}85.44%{transform:translate(832px,32px)}85.68%{transform:translate(848px,32px)}85.92%{transform:translate(848px,48px)}86.4%{transform:translate(832px,64px)}97.14%{transform:translate(112px,64px)}97.61%{transform:translate(112px,32px)}99.28%{transform:translate(48px,-16px)}}.s.s1{transform:translate(16px,-16px);animation-name:s1}@keyframes s2{0%,99.76%{transform:translate(32px,-16px)}0.48%{transform:translate(0px,-16px)}0.72%{transform:translate(0px,0px)}0.95%{transform:translate(16px,0px)}1.19%{transform:translate(16px,16px)}2.15%{transform:translate(80px,16px)}2.39%{transform:translate(80px,32px)}2.63%{transform:translate(64px,32px)}3.58%{transform:translate(64px,96px)}4.53%{transform:translate(128px,96px)}5.01%{transform:translate(128px,64px)}5.49%{transform:translate(160px,64px)}5.97%{transform:translate(160px,32px)}6.68%{transform:translate(208px,32px)}7.16%{transform:translate(208px,0px)}7.64%{transform:translate(240px,0px)}7.88%{transform:translate(240px,16px)}8.35%{transform:translate(272px,16px)}8.59%,13.37%{transform:translate(272px,0px)}9.07%{transform:translate(304px,0px)}10.02%{transform:translate(304px,64px)}10.5%{transform:translate(336px,64px)}11.22%{transform:translate(336px,16px)}11.69%{transform:translate(368px,16px)}11.93%{transform:translate(368px,0px)}14.08%{transform:translate(272px,48px)}15.04%{transform:translate(208px,48px)}15.27%{transform:translate(208px,64px)}15.51%{transform:translate(192px,64px)}15.99%{transform:translate(192px,96px)}16.47%{transform:translate(160px,96px)}17.9%{transform:translate(160px,0px)}18.38%{transform:translate(128px,0px)}18.62%{transform:translate(128px,16px)}20.53%{transform:translate(256px,16px)}21.24%{transform:translate(256px,64px)}21.48%{transform:translate(272px,64px)}21.96%{transform:translate(272px,96px)}22.2%{transform:translate(256px,96px)}22.43%{transform:translate(256px,112px)}23.15%{transform:translate(304px,112px)}23.39%{transform:translate(304px,96px)}25.06%{transform:translate(416px,96px)}25.3%{transform:translate(416px,80px)}25.78%{transform:translate(384px,80px)}26.01%{transform:translate(384px,64px)}27.45%{transform:translate(480px,64px)}27.68%{transform:translate(480px,48px)}28.16%{transform:translate(448px,48px)}28.64%,30.55%{transform:translate(448px,16px)}28.88%{transform:translate(464px,16px)}29.12%,48.69%{transform:translate(464px,0px)}29.59%{transform:translate(432px,0px)}30.07%{transform:translate(432px,32px)}30.31%,50.84%{transform:translate(448px,32px)}32.22%{transform:translate(560px,16px)}32.94%{transform:translate(560px,64px)}33.17%{transform:translate(544px,64px)}33.41%{transform:translate(544px,80px)}33.89%{transform:translate(512px,80px)}34.84%{transform:translate(512px,16px)}37.71%{transform:translate(704px,16px)}37.95%{transform:translate(704px,0px)}39.38%{transform:translate(800px,0px)}39.62%{transform:translate(800px,16px)}39.86%{transform:translate(784px,16px)}40.57%{transform:translate(784px,64px)}40.81%,70.88%{transform:translate(800px,64px)}41.05%{transform:translate(800px,80px)}42.72%{transform:translate(688px,80px)}42.96%{transform:translate(688px,96px)}43.91%{transform:translate(624px,96px)}44.15%{transform:translate(624px,80px)}44.39%{transform:translate(640px,80px)}44.63%{transform:translate(640px,64px)}45.35%{transform:translate(592px,64px)}45.58%{transform:translate(592px,80px)}45.82%{transform:translate(576px,80px)}47.02%{transform:translate(576px,0px)}49.88%{transform:translate(464px,80px)}50.12%{transform:translate(448px,80px)}53.7%{transform:translate(256px,32px)}54.42%{transform:translate(256px,80px)}54.65%{transform:translate(240px,80px)}55.37%{transform:translate(240px,32px)}58.23%,98.81%{transform:translate(48px,32px)}59.19%{transform:translate(48px,96px)}65.39%{transform:translate(464px,96px)}65.87%{transform:translate(464px,64px)}71.36%{transform:translate(800px,32px)}71.6%{transform:translate(816px,32px)}71.84%{transform:translate(816px,16px)}72.08%{transform:translate(832px,16px)}72.32%{transform:translate(832px,0px)}77.33%{transform:translate(496px,0px)}78.76%{transform:translate(496px,96px)}79%{transform:translate(480px,96px)}79.24%{transform:translate(480px,80px)}79.95%{transform:translate(528px,80px)}80.67%{transform:translate(528px,32px)}82.34%{transform:translate(640px,32px)}82.58%{transform:translate(640px,48px)}85.44%,86.4%{transform:translate(832px,48px)}85.68%{transform:translate(832px,32px)}85.92%{transform:translate(848px,32px)}86.16%{transform:translate(848px,48px)}86.63%{transform:translate(832px,64px)}97.37%{transform:translate(112px,64px)}97.85%{transform:translate(112px,32px)}99.52%{transform:translate(48px,-16px)}}.s.s2{transform:translate(32px,-16px);animation-name:s2}@keyframes s3{0%,99.76%{transform:translate(48px,-16px)}0.72%{transform:translate(0px,-16px)}0.95%{transform:translate(0px,0px)}1.19%{transform:translate(16px,0px)}1.43%{transform:translate(16px,16px)}2.39%{transform:translate(80px,16px)}2.63%{transform:translate(80px,32px)}2.86%{transform:translate(64px,32px)}3.82%{transform:translate(64px,96px)}4.77%{transform:translate(128px,96px)}5.25%{transform:translate(128px,64px)}5.73%{transform:translate(160px,64px)}6.21%{transform:translate(160px,32px)}6.92%{transform:translate(208px,32px)}7.4%{transform:translate(208px,0px)}7.88%{transform:translate(240px,0px)}8.11%{transform:translate(240px,16px)}8.59%{transform:translate(272px,16px)}8.83%,13.6%{transform:translate(272px,0px)}9.31%{transform:translate(304px,0px)}10.26%{transform:translate(304px,64px)}10.74%{transform:translate(336px,64px)}11.46%{transform:translate(336px,16px)}11.93%{transform:translate(368px,16px)}12.17%{transform:translate(368px,0px)}14.32%{transform:translate(272px,48px)}15.27%{transform:translate(208px,48px)}15.51%{transform:translate(208px,64px)}15.75%{transform:translate(192px,64px)}16.23%{transform:translate(192px,96px)}16.71%{transform:translate(160px,96px)}18.14%{transform:translate(160px,0px)}18.62%{transform:translate(128px,0px)}18.85%{transform:translate(128px,16px)}20.76%{transform:translate(256px,16px)}21.48%{transform:translate(256px,64px)}21.72%{transform:translate(272px,64px)}22.2%{transform:translate(272px,96px)}22.43%{transform:translate(256px,96px)}22.67%{transform:translate(256px,112px)}23.39%{transform:translate(304px,112px)}23.63%{transform:translate(304px,96px)}25.3%{transform:translate(416px,96px)}25.54%{transform:translate(416px,80px)}26.01%{transform:translate(384px,80px)}26.25%{transform:translate(384px,64px)}27.68%{transform:translate(480px,64px)}27.92%{transform:translate(480px,48px)}28.4%{transform:translate(448px,48px)}28.88%,30.79%{transform:translate(448px,16px)}29.12%{transform:translate(464px,16px)}29.36%,48.93%{transform:translate(464px,0px)}29.83%{transform:translate(432px,0px)}30.31%{transform:translate(432px,32px)}30.55%,51.07%{transform:translate(448px,32px)}32.46%{transform:translate(560px,16px)}33.17%{transform:translate(560px,64px)}33.41%{transform:translate(544px,64px)}33.65%{transform:translate(544px,80px)}34.13%{transform:translate(512px,80px)}35.08%{transform:translate(512px,16px)}37.95%{transform:translate(704px,16px)}38.19%{transform:translate(704px,0px)}39.62%{transform:translate(800px,0px)}39.86%{transform:translate(800px,16px)}40.1%{transform:translate(784px,16px)}40.81%{transform:translate(784px,64px)}41.05%,71.12%{transform:translate(800px,64px)}41.29%{transform:translate(800px,80px)}42.96%{transform:translate(688px,80px)}43.2%{transform:translate(688px,96px)}44.15%{transform:translate(624px,96px)}44.39%{transform:translate(624px,80px)}44.63%{transform:translate(640px,80px)}44.87%{transform:translate(640px,64px)}45.58%{transform:translate(592px,64px)}45.82%{transform:translate(592px,80px)}46.06%{transform:translate(576px,80px)}47.26%{transform:translate(576px,0px)}50.12%{transform:translate(464px,80px)}50.36%{transform:translate(448px,80px)}53.94%{transform:translate(256px,32px)}54.65%{transform:translate(256px,80px)}54.89%{transform:translate(240px,80px)}55.61%{transform:translate(240px,32px)}58.47%,99.05%{transform:translate(48px,32px)}59.43%{transform:translate(48px,96px)}65.63%{transform:translate(464px,96px)}66.11%{transform:translate(464px,64px)}71.6%{transform:translate(800px,32px)}71.84%{transform:translate(816px,32px)}72.08%{transform:translate(816px,16px)}72.32%{transform:translate(832px,16px)}72.55%{transform:translate(832px,0px)}77.57%{transform:translate(496px,0px)}79%{transform:translate(496px,96px)}79.24%{transform:translate(480px,96px)}79.47%{transform:translate(480px,80px)}80.19%{transform:translate(528px,80px)}80.91%{transform:translate(528px,32px)}82.58%{transform:translate(640px,32px)}82.82%{transform:translate(640px,48px)}85.68%,86.63%{transform:translate(832px,48px)}85.92%{transform:translate(832px,32px)}86.16%{transform:translate(848px,32px)}86.4%{transform:translate(848px,48px)}86.87%{transform:translate(832px,64px)}97.61%{transform:translate(112px,64px)}98.09%{transform:translate(112px,32px)}}.s.s3{transform:translate(48px,-16px);animation-name:s3}</style><rect class="c" x="2" y="2" rx="2" ry="2"/><rect class="c" x="2" y="18" rx="2" ry="2"/><rect class="c" x="2" y="34" rx="2" ry="2"/><rect class="c" x="2" y="50" rx="2" ry="2"/><rect class="c" x="2" y="66" rx="2" ry="2"/><rect class="c" x="2" y="82" rx="2" ry="2"/><rect class="c" x="2" y="98" rx="2" ry="2"/><rect class="c" x="18" y="2" rx="2" ry="2"/><rect class="c c0" x="18" y="18" rx="2" ry="2"/><rect class="c" x="18" y="34" rx="2" ry="2"/><rect class="c" x="18" y="50" rx="2" ry="2"/><rect class="c" x="18" y="66" rx="2" ry="2"/><rect class="c" x="18" y="82" rx="2" ry="2"/><rect class="c" x="18" y="98" rx="2" ry="2"/><rect class="c" x="34" y="2" rx="2" ry="2"/><rect class="c" x="34" y="18" rx="2" ry="2"/><rect class="c" x="34" y="34" rx="2" ry="2"/><rect class="c" x="34" y="50" rx="2" ry="2"/><rect class="c" x="34" y="66" rx="2" ry="2"/><rect class="c" x="34" y="82" rx="2" ry="2"/><rect class="c" x="34" y="98" rx="2" ry="2"/><rect class="c" x="50" y="2" rx="2" ry="2"/><rect class="c" x="50" y="18" rx="2" ry="2"/><rect class="c" x="50" y="34" rx="2" ry="2"/><rect class="c" x="50" y="50" rx="2" ry="2"/><rect class="c" x="50" y="66" rx="2" ry="2"/><rect class="c" x="50" y="82" rx="2" ry="2"/><rect class="c c1" x="50" y="98" rx="2" ry="2"/><rect class="c" x="66" y="2" rx="2" ry="2"/><rect class="c" x="66" y="18" rx="2" ry="2"/><rect class="c" x="66" y="34" rx="2" ry="2"/><rect class="c c2" x="66" y="50" rx="2" ry="2"/><rect class="c" x="66" y="66" rx="2" ry="2"/><rect class="c" x="66" y="82" rx="2" ry="2"/><rect class="c c3" x="66" y="98" rx="2" ry="2"/><rect class="c" x="82" y="2" rx="2" ry="2"/><rect class="c" x="82" y="18" rx="2" ry="2"/><rect class="c c4" x="82" y="34" rx="2" ry="2"/><rect class="c" x="82" y="50" rx="2" ry="2"/><rect class="c" x="82" y="66" rx="2" ry="2"/><rect class="c" x="82" y="82" rx="2" ry="2"/><rect class="c" x="82" y="98" rx="2" ry="2"/><rect class="c" x="98" y="2" rx="2" ry="2"/><rect class="c" x="98" y="18" rx="2" ry="2"/><rect class="c" x="98" y="34" rx="2" ry="2"/><rect class="c" x="98" y="50" rx="2" ry="2"/><rect class="c" x="98" y="66" rx="2" ry="2"/><rect class="c" x="98" y="82" rx="2" ry="2"/><rect class="c" x="98" y="98" rx="2" ry="2"/><rect class="c" x="114" y="2" rx="2" ry="2"/><rect class="c" x="114" y="18" rx="2" ry="2"/><rect class="c" x="114" y="34" rx="2" ry="2"/><rect class="c" x="114" y="50" rx="2" ry="2"/><rect class="c" x="114" y="66" rx="2" ry="2"/><rect class="c" x="114" y="82" rx="2" ry="2"/><rect class="c" x="114" y="98" rx="2" ry="2"/><rect class="c c5" x="130" y="2" rx="2" ry="2"/><rect class="c" x="130" y="18" rx="2" ry="2"/><rect class="c" x="130" y="34" rx="2" ry="2"/><rect class="c" x="130" y="50" rx="2" ry="2"/><rect class="c c6" x="130" y="66" rx="2" ry="2"/><rect class="c c7" x="130" y="82" rx="2" ry="2"/><rect class="c" x="130" y="98" rx="2" ry="2"/><rect class="c c8" x="146" y="2" rx="2" ry="2"/><rect class="c c9" x="146" y="18" rx="2" ry="2"/><rect class="c ca" x="146" y="34" rx="2" ry="2"/><rect class="c" x="146" y="50" rx="2" ry="2"/><rect class="c" x="146" y="66" rx="2" ry="2"/><rect class="c" x="146" y="82" rx="2" ry="2"/><rect class="c" x="146" y="98" rx="2" ry="2"/><rect class="c cb" x="162" y="2" rx="2" ry="2"/><rect class="c" x="162" y="18" rx="2" ry="2"/><rect class="c cc" x="162" y="34" rx="2" ry="2"/><rect class="c cd" x="162" y="50" rx="2" ry="2"/><rect class="c ce" x="162" y="66" rx="2" ry="2"/><rect class="c cf" x="162" y="82" rx="2" ry="2"/><rect class="c cg" x="162" y="98" rx="2" ry="2"/><rect class="c" x="178" y="2" rx="2" ry="2"/><rect class="c" x="178" y="18" rx="2" ry="2"/><rect class="c ch" x="178" y="34" rx="2" ry="2"/><rect class="c" x="178" y="50" rx="2" ry="2"/><rect class="c" x="178" y="66" rx="2" ry="2"/><rect class="c" x="178" y="82" rx="2" ry="2"/><rect class="c" x="178" y="98" rx="2" ry="2"/><rect class="c" x="194" y="2" rx="2" ry="2"/><rect class="c" x="194" y="18" rx="2" ry="2"/><rect class="c" x="194" y="34" rx="2" ry="2"/><rect class="c" x="194" y="50" rx="2" ry="2"/><rect class="c" x="194" y="66" rx="2" ry="2"/><rect class="c ci" x="194" y="82" rx="2" ry="2"/><rect class="c cj" x="194" y="98" rx="2" ry="2"/><rect class="c ck" x="210" y="2" rx="2" ry="2"/><rect class="c cl" x="210" y="18" rx="2" ry="2"/><rect class="c cm" x="210" y="34" rx="2" ry="2"/><rect class="c cn" x="210" y="50" rx="2" ry="2"/><rect class="c co" x="210" y="66" rx="2" ry="2"/><rect class="c" x="210" y="82" rx="2" ry="2"/><rect class="c" x="210" y="98" rx="2" ry="2"/><rect class="c" x="226" y="2" rx="2" ry="2"/><rect class="c" x="226" y="18" rx="2" ry="2"/><rect class="c" x="226" y="34" rx="2" ry="2"/><rect class="c" x="226" y="50" rx="2" ry="2"/><rect class="c" x="226" y="66" rx="2" ry="2"/><rect class="c" x="226" y="82" rx="2" ry="2"/><rect class="c" x="226" y="98" rx="2" ry="2"/><rect class="c" x="242" y="2" rx="2" ry="2"/><rect class="c cp" x="242" y="18" rx="2" ry="2"/><rect class="c" x="242" y="34" rx="2" ry="2"/><rect class="c cq" x="242" y="50" rx="2" ry="2"/><rect class="c" x="242" y="66" rx="2" ry="2"/><rect class="c" x="242" y="82" rx="2" ry="2"/><rect class="c" x="242" y="98" rx="2" ry="2"/><rect class="c" x="258" y="2" rx="2" ry="2"/><rect class="c" x="258" y="18" rx="2" ry="2"/><rect class="c" x="258" y="34" rx="2" ry="2"/><rect class="c cr" x="258" y="50" rx="2" ry="2"/><rect class="c cs" x="258" y="66" rx="2" ry="2"/><rect class="c ct" x="258" y="82" rx="2" ry="2"/><rect class="c cu" x="258" y="98" rx="2" ry="2"/><rect class="c cv" x="274" y="2" rx="2" ry="2"/><rect class="c cw" x="274" y="18" rx="2" ry="2"/><rect class="c cx" x="274" y="34" rx="2" ry="2"/><rect class="c cy" x="274" y="50" rx="2" ry="2"/><rect class="c cz" x="274" y="66" rx="2" ry="2"/><rect class="c c10" x="274" y="82" rx="2" ry="2"/><rect class="c c11" x="274" y="98" rx="2" ry="2"/><rect class="c" x="290" y="2" rx="2" ry="2"/><rect class="c" x="290" y="18" rx="2" ry="2"/><rect class="c" x="290" y="34" rx="2" ry="2"/><rect class="c" x="290" y="50" rx="2" ry="2"/><rect class="c" x="290" y="66" rx="2" ry="2"/><rect class="c" x="290" y="82" rx="2" ry="2"/><rect class="c" x="290" y="98" rx="2" ry="2"/><rect class="c c12" x="306" y="2" rx="2" ry="2"/><rect class="c" x="306" y="18" rx="2" ry="2"/><rect class="c c13" x="306" y="34" rx="2" ry="2"/><rect class="c c14" x="306" y="50" rx="2" ry="2"/><rect class="c c15" x="306" y="66" rx="2" ry="2"/><rect class="c" x="306" y="82" rx="2" ry="2"/><rect class="c c16" x="306" y="98" rx="2" ry="2"/><rect class="c" x="322" y="2" rx="2" ry="2"/><rect class="c" x="322" y="18" rx="2" ry="2"/><rect class="c" x="322" y="34" rx="2" ry="2"/><rect class="c" x="322" y="50" rx="2" ry="2"/><rect class="c c17" x="322" y="66" rx="2" ry="2"/><rect class="c" x="322" y="82" rx="2" ry="2"/><rect class="c" x="322" y="98" rx="2" ry="2"/><rect class="c" x="338" y="2" rx="2" ry="2"/><rect class="c" x="338" y="18" rx="2" ry="2"/><rect class="c" x="338" y="34" rx="2" ry="2"/><rect class="c c18" x="338" y="50" rx="2" ry="2"/><rect class="c c19" x="338" y="66" rx="2" ry="2"/><rect class="c" x="338" y="82" rx="2" ry="2"/><rect class="c" x="338" y="98" rx="2" ry="2"/><rect class="c c1a" x="354" y="2" rx="2" ry="2"/><rect class="c c1b" x="354" y="18" rx="2" ry="2"/><rect class="c c1c" x="354" y="34" rx="2" ry="2"/><rect class="c" x="354" y="50" rx="2" ry="2"/><rect class="c" x="354" y="66" rx="2" ry="2"/><rect class="c" x="354" y="82" rx="2" ry="2"/><rect class="c" x="354" y="98" rx="2" ry="2"/><rect class="c" x="370" y="2" rx="2" ry="2"/><rect class="c c1d" x="370" y="18" rx="2" ry="2"/><rect class="c" x="370" y="34" rx="2" ry="2"/><rect class="c" x="370" y="50" rx="2" ry="2"/><rect class="c" x="370" y="66" rx="2" ry="2"/><rect class="c" x="370" y="82" rx="2" ry="2"/><rect class="c" x="370" y="98" rx="2" ry="2"/><rect class="c" x="386" y="2" rx="2" ry="2"/><rect class="c" x="386" y="18" rx="2" ry="2"/><rect class="c" x="386" y="34" rx="2" ry="2"/><rect class="c" x="386" y="50" rx="2" ry="2"/><rect class="c" x="386" y="66" rx="2" ry="2"/><rect class="c c1e" x="386" y="82" rx="2" ry="2"/><rect class="c c1f" x="386" y="98" rx="2" ry="2"/><rect class="c" x="402" y="2" rx="2" ry="2"/><rect class="c" x="402" y="18" rx="2" ry="2"/><rect class="c" x="402" y="34" rx="2" ry="2"/><rect class="c" x="402" y="50" rx="2" ry="2"/><rect class="c" x="402" y="66" rx="2" ry="2"/><rect class="c c1g" x="402" y="82" rx="2" ry="2"/><rect class="c c1h" x="402" y="98" rx="2" ry="2"/><rect class="c" x="418" y="2" rx="2" ry="2"/><rect class="c" x="418" y="18" rx="2" ry="2"/><rect class="c" x="418" y="34" rx="2" ry="2"/><rect class="c" x="418" y="50" rx="2" ry="2"/><rect class="c" x="418" y="66" rx="2" ry="2"/><rect class="c c1i" x="418" y="82" rx="2" ry="2"/><rect class="c c1j" x="418" y="98" rx="2" ry="2"/><rect class="c" x="434" y="2" rx="2" ry="2"/><rect class="c" x="434" y="18" rx="2" ry="2"/><rect class="c c1k" x="434" y="34" rx="2" ry="2"/><rect class="c" x="434" y="50" rx="2" ry="2"/><rect class="c" x="434" y="66" rx="2" ry="2"/><rect class="c" x="434" y="82" rx="2" ry="2"/><rect class="c" x="434" y="98" rx="2" ry="2"/><rect class="c c1l" x="450" y="2" rx="2" ry="2"/><rect class="c c1m" x="450" y="18" rx="2" ry="2"/><rect class="c" x="450" y="34" rx="2" ry="2"/><rect class="c" x="450" y="50" rx="2" ry="2"/><rect class="c" x="450" y="66" rx="2" ry="2"/><rect class="c" x="450" y="82" rx="2" ry="2"/><rect class="c" x="450" y="98" rx="2" ry="2"/><rect class="c c1n" x="466" y="2" rx="2" ry="2"/><rect class="c c1o" x="466" y="18" rx="2" ry="2"/><rect class="c c1p" x="466" y="34" rx="2" ry="2"/><rect class="c c1q" x="466" y="50" rx="2" ry="2"/><rect class="c c1r" x="466" y="66" rx="2" ry="2"/><rect class="c c1s" x="466" y="82" rx="2" ry="2"/><rect class="c" x="466" y="98" rx="2" ry="2"/><rect class="c" x="482" y="2" rx="2" ry="2"/><rect class="c" x="482" y="18" rx="2" ry="2"/><rect class="c" x="482" y="34" rx="2" ry="2"/><rect class="c c1t" x="482" y="50" rx="2" ry="2"/><rect class="c c1u" x="482" y="66" rx="2" ry="2"/><rect class="c c1v" x="482" y="82" rx="2" ry="2"/><rect class="c" x="482" y="98" rx="2" ry="2"/><rect class="c" x="498" y="2" rx="2" ry="2"/><rect class="c" x="498" y="18" rx="2" ry="2"/><rect class="c" x="498" y="34" rx="2" ry="2"/><rect class="c" x="498" y="50" rx="2" ry="2"/><rect class="c" x="498" y="66" rx="2" ry="2"/><rect class="c" x="498" y="82" rx="2" ry="2"/><rect class="c c1w" x="498" y="98" rx="2" ry="2"/><rect class="c c1x" x="514" y="2" rx="2" ry="2"/><rect class="c c1y" x="514" y="18" rx="2" ry="2"/><rect class="c c1z" x="514" y="34" rx="2" ry="2"/><rect class="c" x="514" y="50" rx="2" ry="2"/><rect class="c" x="514" y="66" rx="2" ry="2"/><rect class="c c20" x="514" y="82" rx="2" ry="2"/><rect class="c" x="514" y="98" rx="2" ry="2"/><rect class="c" x="530" y="2" rx="2" ry="2"/><rect class="c c21" x="530" y="18" rx="2" ry="2"/><rect class="c c22" x="530" y="34" rx="2" ry="2"/><rect class="c" x="530" y="50" rx="2" ry="2"/><rect class="c" x="530" y="66" rx="2" ry="2"/><rect class="c" x="530" y="82" rx="2" ry="2"/><rect class="c" x="530" y="98" rx="2" ry="2"/><rect class="c" x="546" y="2" rx="2" ry="2"/><rect class="c" x="546" y="18" rx="2" ry="2"/><rect class="c" x="546" y="34" rx="2" ry="2"/><rect class="c" x="546" y="50" rx="2" ry="2"/><rect class="c" x="546" y="66" rx="2" ry="2"/><rect class="c c23" x="546" y="82" rx="2" ry="2"/><rect class="c" x="546" y="98" rx="2" ry="2"/><rect class="c" x="562" y="2" rx="2" ry="2"/><rect class="c" x="562" y="18" rx="2" ry="2"/><rect class="c" x="562" y="34" rx="2" ry="2"/><rect class="c" x="562" y="50" rx="2" ry="2"/><rect class="c c24" x="562" y="66" rx="2" ry="2"/><rect class="c" x="562" y="82" rx="2" ry="2"/><rect class="c" x="562" y="98" rx="2" ry="2"/><rect class="c" x="578" y="2" rx="2" ry="2"/><rect class="c" x="578" y="18" rx="2" ry="2"/><rect class="c" x="578" y="34" rx="2" ry="2"/><rect class="c" x="578" y="50" rx="2" ry="2"/><rect class="c" x="578" y="66" rx="2" ry="2"/><rect class="c" x="578" y="82" rx="2" ry="2"/><rect class="c" x="578" y="98" rx="2" ry="2"/><rect class="c" x="594" y="2" rx="2" ry="2"/><rect class="c" x="594" y="18" rx="2" ry="2"/><rect class="c" x="594" y="34" rx="2" ry="2"/><rect class="c" x="594" y="50" rx="2" ry="2"/><rect class="c" x="594" y="66" rx="2" ry="2"/><rect class="c c25" x="594" y="82" rx="2" ry="2"/><rect class="c" x="594" y="98" rx="2" ry="2"/><rect class="c" x="610" y="2" rx="2" ry="2"/><rect class="c" x="610" y="18" rx="2" ry="2"/><rect class="c" x="610" y="34" rx="2" ry="2"/><rect class="c" x="610" y="50" rx="2" ry="2"/><rect class="c c26" x="610" y="66" rx="2" ry="2"/><rect class="c" x="610" y="82" rx="2" ry="2"/><rect class="c" x="610" y="98" rx="2" ry="2"/><rect class="c" x="626" y="2" rx="2" ry="2"/><rect class="c" x="626" y="18" rx="2" ry="2"/><rect class="c" x="626" y="34" rx="2" ry="2"/><rect class="c" x="626" y="50" rx="2" ry="2"/><rect class="c" x="626" y="66" rx="2" ry="2"/><rect class="c c27" x="626" y="82" rx="2" ry="2"/><rect class="c c28" x="626" y="98" rx="2" ry="2"/><rect class="c" x="642" y="2" rx="2" ry="2"/><rect class="c c29" x="642" y="18" rx="2" ry="2"/><rect class="c c2a" x="642" y="34" rx="2" ry="2"/><rect class="c c2b" x="642" y="50" rx="2" ry="2"/><rect class="c c2c" x="642" y="66" rx="2" ry="2"/><rect class="c" x="642" y="82" rx="2" ry="2"/><rect class="c" x="642" y="98" rx="2" ry="2"/><rect class="c" x="658" y="2" rx="2" ry="2"/><rect class="c" x="658" y="18" rx="2" ry="2"/><rect class="c" x="658" y="34" rx="2" ry="2"/><rect class="c" x="658" y="50" rx="2" ry="2"/><rect class="c" x="658" y="66" rx="2" ry="2"/><rect class="c" x="658" y="82" rx="2" ry="2"/><rect class="c" x="658" y="98" rx="2" ry="2"/><rect class="c" x="674" y="2" rx="2" ry="2"/><rect class="c c2d" x="674" y="18" rx="2" ry="2"/><rect class="c" x="674" y="34" rx="2" ry="2"/><rect class="c" x="674" y="50" rx="2" ry="2"/><rect class="c" x="674" y="66" rx="2" ry="2"/><rect class="c" x="674" y="82" rx="2" ry="2"/><rect class="c" x="674" y="98" rx="2" ry="2"/><rect class="c" x="690" y="2" rx="2" ry="2"/><rect class="c c2e" x="690" y="18" rx="2" ry="2"/><rect class="c" x="690" y="34" rx="2" ry="2"/><rect class="c" x="690" y="50" rx="2" ry="2"/><rect class="c" x="690" y="66" rx="2" ry="2"/><rect class="c" x="690" y="82" rx="2" ry="2"/><rect class="c c2f" x="690" y="98" rx="2" ry="2"/><rect class="c c2g" x="706" y="2" rx="2" ry="2"/><rect class="c" x="706" y="18" rx="2" ry="2"/><rect class="c" x="706" y="34" rx="2" ry="2"/><rect class="c" x="706" y="50" rx="2" ry="2"/><rect class="c" x="706" y="66" rx="2" ry="2"/><rect class="c" x="706" y="82" rx="2" ry="2"/><rect class="c" x="706" y="98" rx="2" ry="2"/><rect class="c" x="722" y="2" rx="2" ry="2"/><rect class="c" x="722" y="18" rx="2" ry="2"/><rect class="c" x="722" y="34" rx="2" ry="2"/><rect class="c" x="722" y="50" rx="2" ry="2"/><rect class="c" x="722" y="66" rx="2" ry="2"/><rect class="c" x="722" y="82" rx="2" ry="2"/><rect class="c" x="722" y="98" rx="2" ry="2"/><rect class="c" x="738" y="2" rx="2" ry="2"/><rect class="c" x="738" y="18" rx="2" ry="2"/><rect class="c" x="738" y="34" rx="2" ry="2"/><rect class="c" x="738" y="50" rx="2" ry="2"/><rect class="c" x="738" y="66" rx="2" ry="2"/><rect class="c" x="738" y="82" rx="2" ry="2"/><rect class="c" x="738" y="98" rx="2" ry="2"/><rect class="c" x="754" y="2" rx="2" ry="2"/><rect class="c" x="754" y="18" rx="2" ry="2"/><rect class="c" x="754" y="34" rx="2" ry="2"/><rect class="c" x="754" y="50" rx="2" ry="2"/><rect class="c" x="754" y="66" rx="2" ry="2"/><rect class="c" x="754" y="82" rx="2" ry="2"/><rect class="c" x="754" y="98" rx="2" ry="2"/><rect class="c" x="770" y="2" rx="2" ry="2"/><rect class="c" x="770" y="18" rx="2" ry="2"/><rect class="c" x="770" y="34" rx="2" ry="2"/><rect class="c" x="770" y="50" rx="2" ry="2"/><rect class="c" x="770" y="66" rx="2" ry="2"/><rect class="c" x="770" y="82" rx="2" ry="2"/><rect class="c" x="770" y="98" rx="2" ry="2"/><rect class="c" x="786" y="2" rx="2" ry="2"/><rect class="c" x="786" y="18" rx="2" ry="2"/><rect class="c" x="786" y="34" rx="2" ry="2"/><rect class="c" x="786" y="50" rx="2" ry="2"/><rect class="c c2h" x="786" y="66" rx="2" ry="2"/><rect class="c" x="786" y="82" rx="2" ry="2"/><rect class="c" x="786" y="98" rx="2" ry="2"/><rect class="c" x="802" y="2" rx="2" ry="2"/><rect class="c c2i" x="802" y="18" rx="2" ry="2"/><rect class="c c2j" x="802" y="34" rx="2" ry="2"/><rect class="c" x="802" y="50" rx="2" ry="2"/><rect class="c c2k" x="802" y="66" rx="2" ry="2"/><rect class="c" x="802" y="82" rx="2" ry="2"/><rect class="c" x="802" y="98" rx="2" ry="2"/><rect class="c" x="818" y="2" rx="2" ry="2"/><rect class="c" x="818" y="18" rx="2" ry="2"/><rect class="c" x="818" y="34" rx="2" ry="2"/><rect class="c" x="818" y="50" rx="2" ry="2"/><rect class="c" x="818" y="66" rx="2" ry="2"/><rect class="c" x="818" y="82" rx="2" ry="2"/><rect class="c" x="818" y="98" rx="2" ry="2"/><rect class="c c2l" x="834" y="2" rx="2" ry="2"/><rect class="c" x="834" y="18" rx="2" ry="2"/><rect class="c c2m" x="834" y="34" rx="2" ry="2"/><rect class="c c2n" x="834" y="50" rx="2" ry="2"/><rect class="c c2o" x="834" y="66" rx="2" ry="2"/><rect class="u u0" height="12" width="700.0" x="0.0" y="144"/><rect class="u u1" height="12" width="79.3" x="699.4" y="144"/><rect class="u u2" height="12" width="9.3" x="778.1" y="144"/><rect class="u u3" height="12" width="61.8" x="786.8" y="144"/><rect class="s s0" x="0.8" y="0.8" width="14.4" height="14.4" rx="4.5" ry="4.5"/><rect class="s s1" x="1.8" y="1.8" width="12.3" height="12.3" rx="4.1" ry="4.1"/><rect class="s s2" x="2.6" y="2.6" width="10.8" height="10.8" rx="3.6" ry="3.6"/><rect class="s s3" x="3.0" y="3.0" width="9.9" height="9.9" rx="3.3" ry="3.3"/></svg>