<svg viewBox="-16 -32 880 192" width="880" height="192" xmlns="http://www.w3.org/2000/svg"><desc>Generated with https://github.com/Platane/snk</desc><style>:root{--cb:#1b1f230a;--cs:purple;--ce:#ebedf0;--c0:#ebedf0;--c1:#9be9a8;--c2:#40c463;--c3:#30a14e;--c4:#216e39}.c{shape-rendering:geometricPrecision;fill:var(--ce);stroke-width:1px;stroke:var(--cb);animation:none 41300ms linear infinite;width:12px;height:12px}@keyframes c0{0.72%{fill:var(--c1)}0.74%,100%{fill:var(--ce)}}.c.c0{fill:var(--c1);animation-name:c0}@keyframes c1{59.55%{fill:var(--c2)}59.57%,100%{fill:var(--ce)}}.c.c1{fill:var(--c2);animation-name:c1}@keyframes c2{2.41%{fill:var(--c1)}2.43%,100%{fill:var(--ce)}}.c.c2{fill:var(--c1);animation-name:c2}@keyframes c3{3.14%{fill:var(--c1)}3.16%,100%{fill:var(--ce)}}.c.c3{fill:var(--c1);animation-name:c3}@keyframes c4{1.93%{fill:var(--c1)}1.95%,100%{fill:var(--ce)}}.c.c4{fill:var(--c1);animation-name:c4}@keyframes c5{18.15%{fill:var(--c1)}18.17%,100%{fill:var(--ce)}}.c.c5{fill:var(--c1);animation-name:c5}@keyframes c6{4.59%{fill:var(--c1)}4.61%,100%{fill:var(--ce)}}.c.c6{fill:var(--c1);animation-name:c6}@keyframes c7{4.35%{fill:var(--c1)}4.37%,100%{fill:var(--ce)}}.c.c7{fill:var(--c1);animation-name:c7}@keyframes c8{17.91%{fill:var(--c1)}17.93%,100%{fill:var(--ce)}}.c.c8{fill:var(--c1);animation-name:c8}@keyframes c9{18.63%{fill:var(--c1)}18.65%,100%{fill:var(--ce)}}.c.c9{fill:var(--c1);animation-name:c9}@keyframes ca{57.13%{fill:var(--c2)}57.15%,100%{fill:var(--ce)}}.c.ca{fill:var(--c2);animation-name:ca}@keyframes cb{17.67%{fill:var(--c1)}17.69%,100%{fill:var(--ce)}}.c.cb{fill:var(--c1);animation-name:cb}@keyframes cc{5.56%{fill:var(--c1)}5.58%,100%{fill:var(--ce)}}.c.cc{fill:var(--c1);animation-name:cc}@keyframes cd{5.32%{fill:var(--c1)}5.34%,100%{fill:var(--ce)}}.c.cd{fill:var(--c1);animation-name:cd}@keyframes ce{5.07%{fill:var(--c1)}5.09%,100%{fill:var(--ce)}}.c.ce{fill:var(--c1);animation-name:ce}@keyframes cf{16.45%{fill:var(--c1)}16.47%,100%{fill:var(--ce)}}.c.cf{fill:var(--c1);animation-name:cf}@keyframes cg{16.21%{fill:var(--c1)}16.23%,100%{fill:var(--ce)}}.c.cg{fill:var(--c1);animation-name:cg}@keyframes ch{5.8%{fill:var(--c1)}5.82%,100%{fill:var(--ce)}}.c.ch{fill:var(--c1);animation-name:ch}@keyframes ci{15.49%{fill:var(--c1)}15.51%,100%{fill:var(--ce)}}.c.ci{fill:var(--c1);animation-name:ci}@keyframes cj{15.73%{fill:var(--c1)}15.75%,100%{fill:var(--ce)}}.c.cj{fill:var(--c1);animation-name:cj}@keyframes ck{6.77%{fill:var(--c1)}6.79%,100%{fill:var(--ce)}}.c.ck{fill:var(--c1);animation-name:ck}@keyframes cl{6.53%{fill:var(--c1)}6.55%,100%{fill:var(--ce)}}.c.cl{fill:var(--c1);animation-name:cl}@keyframes cm{6.29%{fill:var(--c1)}6.31%,100%{fill:var(--ce)}}.c.cm{fill:var(--c1);animation-name:cm}@keyframes cn{14.76%{fill:var(--c1)}14.78%,100%{fill:var(--ce)}}.c.cn{fill:var(--c1);animation-name:cn}@keyframes co{15%{fill:var(--c1)}15.02%,100%{fill:var(--ce)}}.c.co{fill:var(--c1);animation-name:co}@keyframes cp{7.5%{fill:var(--c1)}7.52%,100%{fill:var(--ce)}}.c.cp{fill:var(--c1);animation-name:cp}@keyframes cq{14.28%{fill:var(--c1)}14.3%,100%{fill:var(--ce)}}.c.cq{fill:var(--c1);animation-name:cq}@keyframes cr{14.03%{fill:var(--c1)}14.05%,100%{fill:var(--ce)}}.c.cr{fill:var(--c1);animation-name:cr}@keyframes cs{21.06%{fill:var(--c1)}21.08%,100%{fill:var(--ce)}}.c.cs{fill:var(--c1);animation-name:cs}@keyframes ct{54.71%{fill:var(--c2)}54.73%,100%{fill:var(--ce)}}.c.ct{fill:var(--c2);animation-name:ct}@keyframes cu{22.02%{fill:var(--c1)}22.04%,100%{fill:var(--ce)}}.c.cu{fill:var(--c1);animation-name:cu}@keyframes cv{8.22%{fill:var(--c1)}8.24%,100%{fill:var(--ce)}}.c.cv{fill:var(--c1);animation-name:cv}@keyframes cw{7.98%{fill:var(--c1)}8%,100%{fill:var(--ce)}}.c.cw{fill:var(--c1);animation-name:cw}@keyframes cx{13.55%{fill:var(--c1)}13.57%,100%{fill:var(--ce)}}.c.cx{fill:var(--c1);animation-name:cx}@keyframes cy{13.79%{fill:var(--c1)}13.81%,100%{fill:var(--ce)}}.c.cy{fill:var(--c1);animation-name:cy}@keyframes cz{21.3%{fill:var(--c1)}21.32%,100%{fill:var(--ce)}}.c.cz{fill:var(--c1);animation-name:cz}@keyframes c10{21.54%{fill:var(--c1)}21.56%,100%{fill:var(--ce)}}.c.c10{fill:var(--c1);animation-name:c10}@keyframes c11{21.78%{fill:var(--c1)}21.8%,100%{fill:var(--ce)}}.c.c11{fill:var(--c1);animation-name:c11}@keyframes c12{8.71%{fill:var(--c1)}8.73%,100%{fill:var(--ce)}}.c.c12{fill:var(--c1);animation-name:c12}@keyframes c13{9.19%{fill:var(--c1)}9.21%,100%{fill:var(--ce)}}.c.c13{fill:var(--c1);animation-name:c13}@keyframes c14{9.43%{fill:var(--c1)}9.45%,100%{fill:var(--ce)}}.c.c14{fill:var(--c1);animation-name:c14}@keyframes c15{9.68%{fill:var(--c1)}9.7%,100%{fill:var(--ce)}}.c.c15{fill:var(--c1);animation-name:c15}@keyframes c16{23.23%{fill:var(--c1)}23.25%,100%{fill:var(--ce)}}.c.c16{fill:var(--c1);animation-name:c16}@keyframes c17{9.92%{fill:var(--c1)}9.94%,100%{fill:var(--ce)}}.c.c17{fill:var(--c1);animation-name:c17}@keyframes c18{10.4%{fill:var(--c1)}10.42%,100%{fill:var(--ce)}}.c.c18{fill:var(--c1);animation-name:c18}@keyframes c19{10.16%{fill:var(--c1)}10.18%,100%{fill:var(--ce)}}.c.c19{fill:var(--c1);animation-name:c19}@keyframes c1a{11.85%{fill:var(--c1)}11.87%,100%{fill:var(--ce)}}.c.c1a{fill:var(--c1);animation-name:c1a}@keyframes c1b{11.13%{fill:var(--c1)}11.15%,100%{fill:var(--ce)}}.c.c1b{fill:var(--c1);animation-name:c1b}@keyframes c1c{52.53%{fill:var(--c2)}52.55%,100%{fill:var(--ce)}}.c.c1c{fill:var(--c2);animation-name:c1c}@keyframes c1d{11.37%{fill:var(--c1)}11.39%,100%{fill:var(--ce)}}.c.c1d{fill:var(--c1);animation-name:c1d}@keyframes c1e{25.66%{fill:var(--c1)}25.68%,100%{fill:var(--ce)}}.c.c1e{fill:var(--c1);animation-name:c1e}@keyframes c1f{24.45%{fill:var(--c1)}24.47%,100%{fill:var(--ce)}}.c.c1f{fill:var(--c1);animation-name:c1f}@keyframes c1g{25.41%{fill:var(--c1)}25.43%,100%{fill:var(--ce)}}.c.c1g{fill:var(--c1);animation-name:c1g}@keyframes c1h{24.69%{fill:var(--c1)}24.71%,100%{fill:var(--ce)}}.c.c1h{fill:var(--c1);animation-name:c1h}@keyframes c1i{25.17%{fill:var(--c1)}25.19%,100%{fill:var(--ce)}}.c.c1i{fill:var(--c1);animation-name:c1i}@keyframes c1j{24.93%{fill:var(--c1)}24.95%,100%{fill:var(--ce)}}.c.c1j{fill:var(--c1);animation-name:c1j}@keyframes c1k{30.01%{fill:var(--c1)}30.03%,100%{fill:var(--ce)}}.c.c1k{fill:var(--c1);animation-name:c1k}@keyframes c1l{29.29%{fill:var(--c1)}29.31%,100%{fill:var(--ce)}}.c.c1l{fill:var(--c1);animation-name:c1l}@keyframes c1m{28.56%{fill:var(--c1)}28.58%,100%{fill:var(--ce)}}.c.c1m{fill:var(--c1);animation-name:c1m}@keyframes c1n{29.05%{fill:var(--c1)}29.07%,100%{fill:var(--ce)}}.c.c1n{fill:var(--c1);animation-name:c1n}@keyframes c1o{28.8%{fill:var(--c1)}28.82%,100%{fill:var(--ce)}}.c.c1o{fill:var(--c1);animation-name:c1o}@keyframes c1p{49.38%{fill:var(--c2)}49.4%,100%{fill:var(--ce)}}.c.c1p{fill:var(--c2);animation-name:c1p}@keyframes c1q{27.84%{fill:var(--c1)}27.86%,100%{fill:var(--ce)}}.c.c1q{fill:var(--c1);animation-name:c1q}@keyframes c1r{27.11%{fill:var(--c1)}27.13%,100%{fill:var(--ce)}}.c.c1r{fill:var(--c1);animation-name:c1r}@keyframes c1s{50.11%{fill:var(--c2)}50.13%,100%{fill:var(--ce)}}.c.c1s{fill:var(--c2);animation-name:c1s}@keyframes c1t{27.59%{fill:var(--c1)}27.61%,100%{fill:var(--ce)}}.c.c1t{fill:var(--c1);animation-name:c1t}@keyframes c1u{27.35%{fill:var(--c1)}27.37%,100%{fill:var(--ce)}}.c.c1u{fill:var(--c1);animation-name:c1u}@keyframes c1v{79.89%{fill:var(--c4)}79.91%,100%{fill:var(--ce)}}.c.c1v{fill:var(--c4);animation-name:c1v}@keyframes c1w{79.41%{fill:var(--c3)}79.43%,100%{fill:var(--ce)}}.c.c1w{fill:var(--c3);animation-name:c1w}@keyframes c1x{48.17%{fill:var(--c2)}48.19%,100%{fill:var(--ce)}}.c.c1x{fill:var(--c2);animation-name:c1x}@keyframes c1y{31.47%{fill:var(--c1)}31.49%,100%{fill:var(--ce)}}.c.c1y{fill:var(--c1);animation-name:c1y}@keyframes c1z{34.61%{fill:var(--c1)}34.63%,100%{fill:var(--ce)}}.c.c1z{fill:var(--c1);animation-name:c1z}@keyframes c20{33.89%{fill:var(--c1)}33.91%,100%{fill:var(--ce)}}.c.c20{fill:var(--c1);animation-name:c20}@keyframes c21{31.71%{fill:var(--c1)}31.73%,100%{fill:var(--ce)}}.c.c21{fill:var(--c1);animation-name:c21}@keyframes c22{81.35%{fill:var(--c4)}81.37%,100%{fill:var(--ce)}}.c.c22{fill:var(--c4);animation-name:c22}@keyframes c23{33.4%{fill:var(--c1)}33.42%,100%{fill:var(--ce)}}.c.c23{fill:var(--c1);animation-name:c23}@keyframes c24{32.92%{fill:var(--c1)}32.94%,100%{fill:var(--ce)}}.c.c24{fill:var(--c1);animation-name:c24}@keyframes c25{45.75%{fill:var(--c1)}45.77%,100%{fill:var(--ce)}}.c.c25{fill:var(--c1);animation-name:c25}@keyframes c26{45.27%{fill:var(--c1)}45.29%,100%{fill:var(--ce)}}.c.c26{fill:var(--c1);animation-name:c26}@keyframes c27{44.3%{fill:var(--c1)}44.32%,100%{fill:var(--ce)}}.c.c27{fill:var(--c1);animation-name:c27}@keyframes c28{44.06%{fill:var(--c1)}44.08%,100%{fill:var(--ce)}}.c.c28{fill:var(--c1);animation-name:c28}@keyframes c29{36.79%{fill:var(--c1)}36.81%,100%{fill:var(--ce)}}.c.c29{fill:var(--c1);animation-name:c29}@keyframes c2a{83.04%{fill:var(--c4)}83.06%,100%{fill:var(--ce)}}.c.c2a{fill:var(--c4);animation-name:c2a}@keyframes c2b{83.28%{fill:var(--c4)}83.3%,100%{fill:var(--ce)}}.c.c2b{fill:var(--c4);animation-name:c2b}@keyframes c2c{44.78%{fill:var(--c1)}44.8%,100%{fill:var(--ce)}}.c.c2c{fill:var(--c1);animation-name:c2c}@keyframes c2d{37.28%{fill:var(--c1)}37.3%,100%{fill:var(--ce)}}.c.c2d{fill:var(--c1);animation-name:c2d}@keyframes c2e{37.52%{fill:var(--c1)}37.54%,100%{fill:var(--ce)}}.c.c2e{fill:var(--c1);animation-name:c2e}@keyframes c2f{43.09%{fill:var(--c1)}43.11%,100%{fill:var(--ce)}}.c.c2f{fill:var(--c1);animation-name:c2f}@keyframes c2g{38%{fill:var(--c1)}38.02%,100%{fill:var(--ce)}}.c.c2g{fill:var(--c1);animation-name:c2g}@keyframes c2h{40.67%{fill:var(--c1)}40.69%,100%{fill:var(--ce)}}.c.c2h{fill:var(--c1);animation-name:c2h}@keyframes c2i{39.7%{fill:var(--c1)}39.72%,100%{fill:var(--ce)}}.c.c2i{fill:var(--c1);animation-name:c2i}@keyframes c2j{71.9%{fill:var(--c2)}71.92%,100%{fill:var(--ce)}}.c.c2j{fill:var(--c2);animation-name:c2j}@keyframes c2k{40.91%{fill:var(--c1)}40.93%,100%{fill:var(--ce)}}.c.c2k{fill:var(--c1);animation-name:c2k}@keyframes c2l{72.87%{fill:var(--c2)}72.89%,100%{fill:var(--ce)}}.c.c2l{fill:var(--c2);animation-name:c2l}@keyframes c2m{86.43%{fill:var(--c4)}86.45%,100%{fill:var(--ce)}}.c.c2m{fill:var(--c4);animation-name:c2m}.u{transform-origin:0 0;transform:scale(0,1);animation:none linear 41300ms infinite}@keyframes u0{0.72%{transform:scale(0.000,1)}0.74%,1.93%{transform:scale(0.013,1)}1.95%,2.41%{transform:scale(0.025,1)}2.43%,3.14%{transform:scale(0.037,1)}3.16%,4.35%{transform:scale(0.050,1)}4.37%,4.59%{transform:scale(0.063,1)}4.61%,5.07%{transform:scale(0.075,1)}5.09%,5.32%{transform:scale(0.087,1)}5.34%,5.56%{transform:scale(0.100,1)}5.58%,5.8%{transform:scale(0.113,1)}5.82%,6.29%{transform:scale(0.125,1)}6.31%,6.53%{transform:scale(0.138,1)}6.55%,6.77%{transform:scale(0.150,1)}6.79%,7.5%{transform:scale(0.163,1)}7.52%,7.98%{transform:scale(0.175,1)}8%,8.22%{transform:scale(0.188,1)}8.24%,8.71%{transform:scale(0.200,1)}8.73%,9.19%{transform:scale(0.212,1)}9.21%,9.43%{transform:scale(0.225,1)}9.45%,9.68%{transform:scale(0.237,1)}9.7%,9.92%{transform:scale(0.250,1)}9.94%,10.16%{transform:scale(0.263,1)}10.18%,10.4%{transform:scale(0.275,1)}10.42%,11.13%{transform:scale(0.287,1)}11.15%,11.37%{transform:scale(0.300,1)}11.39%,11.85%{transform:scale(0.313,1)}11.87%,13.55%{transform:scale(0.325,1)}13.57%,13.79%{transform:scale(0.338,1)}13.81%,14.03%{transform:scale(0.350,1)}14.05%,14.28%{transform:scale(0.362,1)}14.3%,14.76%{transform:scale(0.375,1)}14.78%,15%{transform:scale(0.388,1)}15.02%,15.49%{transform:scale(0.400,1)}15.51%,15.73%{transform:scale(0.412,1)}15.75%,16.21%{transform:scale(0.425,1)}16.23%,16.45%{transform:scale(0.438,1)}16.47%,17.67%{transform:scale(0.450,1)}17.69%,17.91%{transform:scale(0.463,1)}17.93%,18.15%{transform:scale(0.475,1)}18.17%,18.63%{transform:scale(0.487,1)}18.65%,21.06%{transform:scale(0.500,1)}21.08%,21.3%{transform:scale(0.512,1)}21.32%,21.54%{transform:scale(0.525,1)}21.56%,21.78%{transform:scale(0.537,1)}21.8%,22.02%{transform:scale(0.550,1)}22.04%,23.23%{transform:scale(0.563,1)}23.25%,24.45%{transform:scale(0.575,1)}24.47%,24.69%{transform:scale(0.588,1)}24.71%,24.93%{transform:scale(0.600,1)}24.95%,25.17%{transform:scale(0.613,1)}25.19%,25.41%{transform:scale(0.625,1)}25.43%,25.66%{transform:scale(0.637,1)}25.68%,27.11%{transform:scale(0.650,1)}27.13%,27.35%{transform:scale(0.662,1)}27.37%,27.59%{transform:scale(0.675,1)}27.61%,27.84%{transform:scale(0.688,1)}27.86%,28.56%{transform:scale(0.700,1)}28.58%,28.8%{transform:scale(0.713,1)}28.82%,29.05%{transform:scale(0.725,1)}29.07%,29.29%{transform:scale(0.738,1)}29.31%,30.01%{transform:scale(0.750,1)}30.03%,31.47%{transform:scale(0.762,1)}31.49%,31.71%{transform:scale(0.775,1)}31.73%,32.92%{transform:scale(0.787,1)}32.94%,33.4%{transform:scale(0.800,1)}33.42%,33.89%{transform:scale(0.813,1)}33.91%,34.61%{transform:scale(0.825,1)}34.63%,36.79%{transform:scale(0.838,1)}36.81%,37.28%{transform:scale(0.850,1)}37.3%,37.52%{transform:scale(0.863,1)}37.54%,38%{transform:scale(0.875,1)}38.02%,39.7%{transform:scale(0.887,1)}39.72%,40.67%{transform:scale(0.900,1)}40.69%,40.91%{transform:scale(0.912,1)}40.93%,43.09%{transform:scale(0.925,1)}43.11%,44.06%{transform:scale(0.938,1)}44.08%,44.3%{transform:scale(0.950,1)}44.32%,44.78%{transform:scale(0.963,1)}44.8%,45.27%{transform:scale(0.975,1)}45.29%,45.75%{transform:scale(0.988,1)}45.77%,100%{transform:scale(1.000,1)}}.u.u0{fill:var(--c1);animation-name:u0;transform-origin:0.0px 0}@keyframes u1{48.17%{transform:scale(0.000,1)}48.19%,49.38%{transform:scale(0.111,1)}49.4%,50.11%{transform:scale(0.222,1)}50.13%,52.53%{transform:scale(0.333,1)}52.55%,54.71%{transform:scale(0.444,1)}54.73%,57.13%{transform:scale(0.556,1)}57.15%,59.55%{transform:scale(0.667,1)}59.57%,71.9%{transform:scale(0.778,1)}71.92%,72.87%{transform:scale(0.889,1)}72.89%,100%{transform:scale(1.000,1)}}.u.u1{fill:var(--c2);animation-name:u1;transform-origin:714.1px 0}@keyframes u2{79.41%{transform:scale(0.000,1)}79.43%,100%{transform:scale(1.000,1)}}.u.u2{fill:var(--c3);animation-name:u2;transform-origin:794.4px 0}@keyframes u3{79.89%{transform:scale(0.000,1)}79.91%,81.35%{transform:scale(0.200,1)}81.37%,83.04%{transform:scale(0.400,1)}83.06%,83.28%{transform:scale(0.600,1)}83.3%,86.43%{transform:scale(0.800,1)}86.45%,100%{transform:scale(1.000,1)}}.u.u3{fill:var(--c4);animation-name:u3;transform-origin:803.4px 0}.s{shape-rendering:geometricPrecision;fill:var(--cs);animation:none linear 41300ms infinite}@keyframes s0{0%,99.76%{transform:translate(0px,-16px)}0.24%{transform:translate(0px,0px)}0.48%{transform:translate(16px,0px)}0.73%{transform:translate(16px,16px)}1.69%{transform:translate(80px,16px)}1.94%{transform:translate(80px,32px)}2.18%{transform:translate(64px,32px)}3.15%{transform:translate(64px,96px)}4.12%{transform:translate(128px,96px)}4.6%{transform:translate(128px,64px)}5.08%{transform:translate(160px,64px)}5.57%{transform:translate(160px,32px)}6.3%{transform:translate(208px,32px)}6.78%{transform:translate(208px,0px)}7.26%{transform:translate(240px,0px)}7.51%{transform:translate(240px,16px)}7.99%{transform:translate(272px,16px)}8.23%,13.08%{transform:translate(272px,0px)}8.72%{transform:translate(304px,0px)}9.69%{transform:translate(304px,64px)}10.17%{transform:translate(336px,64px)}10.9%{transform:translate(336px,16px)}11.38%{transform:translate(368px,16px)}11.62%{transform:translate(368px,0px)}13.8%{transform:translate(272px,48px)}14.77%{transform:translate(208px,48px)}15.01%{transform:translate(208px,64px)}15.25%{transform:translate(192px,64px)}15.74%{transform:translate(192px,96px)}16.22%{transform:translate(160px,96px)}17.68%{transform:translate(160px,0px)}18.16%{transform:translate(128px,0px)}18.4%{transform:translate(128px,16px)}20.34%{transform:translate(256px,16px)}21.07%{transform:translate(256px,64px)}21.31%{transform:translate(272px,64px)}21.79%{transform:translate(272px,96px)}22.03%{transform:translate(256px,96px)}22.28%{transform:translate(256px,112px)}23%{transform:translate(304px,112px)}23.24%{transform:translate(304px,96px)}24.94%{transform:translate(416px,96px)}25.18%{transform:translate(416px,80px)}25.67%{transform:translate(384px,80px)}25.91%{transform:translate(384px,64px)}27.36%{transform:translate(480px,64px)}27.6%{transform:translate(480px,48px)}28.09%{transform:translate(448px,48px)}28.57%,30.51%{transform:translate(448px,16px)}28.81%{transform:translate(464px,16px)}29.06%,48.91%{transform:translate(464px,0px)}29.54%{transform:translate(432px,0px)}30.02%{transform:translate(432px,32px)}30.27%,51.09%{transform:translate(448px,32px)}32.2%{transform:translate(560px,16px)}32.93%{transform:translate(560px,64px)}33.17%{transform:translate(544px,64px)}33.41%{transform:translate(544px,80px)}33.9%{transform:translate(512px,80px)}34.87%{transform:translate(512px,16px)}37.77%{transform:translate(704px,16px)}38.01%{transform:translate(704px,0px)}39.47%{transform:translate(800px,0px)}39.71%{transform:translate(800px,16px)}39.95%{transform:translate(784px,16px)}40.68%{transform:translate(784px,64px)}40.92%,71.43%{transform:translate(800px,64px)}41.16%{transform:translate(800px,80px)}42.86%{transform:translate(688px,80px)}43.1%{transform:translate(688px,96px)}44.07%{transform:translate(624px,96px)}44.31%{transform:translate(624px,80px)}44.55%{transform:translate(640px,80px)}44.79%{transform:translate(640px,64px)}45.52%{transform:translate(592px,64px)}45.76%{transform:translate(592px,80px)}46%{transform:translate(576px,80px)}47.22%{transform:translate(576px,0px)}50.12%{transform:translate(464px,80px)}50.36%{transform:translate(448px,80px)}54%{transform:translate(256px,32px)}54.72%{transform:translate(256px,80px)}54.96%{transform:translate(240px,80px)}55.69%{transform:translate(240px,32px)}58.6%,98.31%{transform:translate(48px,32px)}59.56%{transform:translate(48px,96px)}65.86%{transform:translate(464px,96px)}66.34%{transform:translate(464px,64px)}71.91%{transform:translate(800px,32px)}72.15%{transform:translate(816px,32px)}72.4%{transform:translate(816px,16px)}72.64%{transform:translate(832px,16px)}72.88%{transform:translate(832px,0px)}77.97%{transform:translate(496px,0px)}79.42%{transform:translate(496px,96px)}79.66%{transform:translate(480px,96px)}79.9%{transform:translate(480px,80px)}80.63%{transform:translate(528px,80px)}81.36%{transform:translate(528px,32px)}83.05%{transform:translate(640px,32px)}83.29%{transform:translate(640px,48px)}86.2%{transform:translate(832px,48px)}86.44%{transform:translate(832px,32px)}99.03%{transform:translate(48px,-16px)}}.s.s0{transform:translate(0px,-16px);animation-name:s0}@keyframes s1{0%,99.76%{transform:translate(16px,-16px)}0.24%{transform:translate(0px,-16px)}0.48%{transform:translate(0px,0px)}0.73%{transform:translate(16px,0px)}0.97%{transform:translate(16px,16px)}1.94%{transform:translate(80px,16px)}2.18%{transform:translate(80px,32px)}2.42%{transform:translate(64px,32px)}3.39%{transform:translate(64px,96px)}4.36%{transform:translate(128px,96px)}4.84%{transform:translate(128px,64px)}5.33%{transform:translate(160px,64px)}5.81%{transform:translate(160px,32px)}6.54%{transform:translate(208px,32px)}7.02%{transform:translate(208px,0px)}7.51%{transform:translate(240px,0px)}7.75%{transform:translate(240px,16px)}8.23%{transform:translate(272px,16px)}8.47%,13.32%{transform:translate(272px,0px)}8.96%{transform:translate(304px,0px)}9.93%{transform:translate(304px,64px)}10.41%{transform:translate(336px,64px)}11.14%{transform:translate(336px,16px)}11.62%{transform:translate(368px,16px)}11.86%{transform:translate(368px,0px)}14.04%{transform:translate(272px,48px)}15.01%{transform:translate(208px,48px)}15.25%{transform:translate(208px,64px)}15.5%{transform:translate(192px,64px)}15.98%{transform:translate(192px,96px)}16.46%{transform:translate(160px,96px)}17.92%{transform:translate(160px,0px)}18.4%{transform:translate(128px,0px)}18.64%{transform:translate(128px,16px)}20.58%{transform:translate(256px,16px)}21.31%{transform:translate(256px,64px)}21.55%{transform:translate(272px,64px)}22.03%{transform:translate(272px,96px)}22.28%{transform:translate(256px,96px)}22.52%{transform:translate(256px,112px)}23.24%{transform:translate(304px,112px)}23.49%{transform:translate(304px,96px)}25.18%{transform:translate(416px,96px)}25.42%{transform:translate(416px,80px)}25.91%{transform:translate(384px,80px)}26.15%{transform:translate(384px,64px)}27.6%{transform:translate(480px,64px)}27.85%{transform:translate(480px,48px)}28.33%{transform:translate(448px,48px)}28.81%,30.75%{transform:translate(448px,16px)}29.06%{transform:translate(464px,16px)}29.3%,49.15%{transform:translate(464px,0px)}29.78%{transform:translate(432px,0px)}30.27%{transform:translate(432px,32px)}30.51%,51.33%{transform:translate(448px,32px)}32.45%{transform:translate(560px,16px)}33.17%{transform:translate(560px,64px)}33.41%{transform:translate(544px,64px)}33.66%{transform:translate(544px,80px)}34.14%{transform:translate(512px,80px)}35.11%{transform:translate(512px,16px)}38.01%{transform:translate(704px,16px)}38.26%{transform:translate(704px,0px)}39.71%{transform:translate(800px,0px)}39.95%{transform:translate(800px,16px)}40.19%{transform:translate(784px,16px)}40.92%{transform:translate(784px,64px)}41.16%,71.67%{transform:translate(800px,64px)}41.4%{transform:translate(800px,80px)}43.1%{transform:translate(688px,80px)}43.34%{transform:translate(688px,96px)}44.31%{transform:translate(624px,96px)}44.55%{transform:translate(624px,80px)}44.79%{transform:translate(640px,80px)}45.04%{transform:translate(640px,64px)}45.76%{transform:translate(592px,64px)}46%{transform:translate(592px,80px)}46.25%{transform:translate(576px,80px)}47.46%{transform:translate(576px,0px)}50.36%{transform:translate(464px,80px)}50.61%{transform:translate(448px,80px)}54.24%{transform:translate(256px,32px)}54.96%{transform:translate(256px,80px)}55.21%{transform:translate(240px,80px)}55.93%{transform:translate(240px,32px)}58.84%,98.55%{transform:translate(48px,32px)}59.81%{transform:translate(48px,96px)}66.1%{transform:translate(464px,96px)}66.59%{transform:translate(464px,64px)}72.15%{transform:translate(800px,32px)}72.4%{transform:translate(816px,32px)}72.64%{transform:translate(816px,16px)}72.88%{transform:translate(832px,16px)}73.12%{transform:translate(832px,0px)}78.21%{transform:translate(496px,0px)}79.66%{transform:translate(496px,96px)}79.9%{transform:translate(480px,96px)}80.15%{transform:translate(480px,80px)}80.87%{transform:translate(528px,80px)}81.6%{transform:translate(528px,32px)}83.29%{transform:translate(640px,32px)}83.54%{transform:translate(640px,48px)}86.44%{transform:translate(832px,48px)}86.68%{transform:translate(832px,32px)}99.27%{transform:translate(48px,-16px)}}.s.s1{transform:translate(16px,-16px);animation-name:s1}@keyframes s2{0%,99.76%{transform:translate(32px,-16px)}0.48%{transform:translate(0px,-16px)}0.73%{transform:translate(0px,0px)}0.97%{transform:translate(16px,0px)}1.21%{transform:translate(16px,16px)}2.18%{transform:translate(80px,16px)}2.42%{transform:translate(80px,32px)}2.66%{transform:translate(64px,32px)}3.63%{transform:translate(64px,96px)}4.6%{transform:translate(128px,96px)}5.08%{transform:translate(128px,64px)}5.57%{transform:translate(160px,64px)}6.05%{transform:translate(160px,32px)}6.78%{transform:translate(208px,32px)}7.26%{transform:translate(208px,0px)}7.75%{transform:translate(240px,0px)}7.99%{transform:translate(240px,16px)}8.47%{transform:translate(272px,16px)}8.72%,13.56%{transform:translate(272px,0px)}9.2%{transform:translate(304px,0px)}10.17%{transform:translate(304px,64px)}10.65%{transform:translate(336px,64px)}11.38%{transform:translate(336px,16px)}11.86%{transform:translate(368px,16px)}12.11%{transform:translate(368px,0px)}14.29%{transform:translate(272px,48px)}15.25%{transform:translate(208px,48px)}15.5%{transform:translate(208px,64px)}15.74%{transform:translate(192px,64px)}16.22%{transform:translate(192px,96px)}16.71%{transform:translate(160px,96px)}18.16%{transform:translate(160px,0px)}18.64%{transform:translate(128px,0px)}18.89%{transform:translate(128px,16px)}20.82%{transform:translate(256px,16px)}21.55%{transform:translate(256px,64px)}21.79%{transform:translate(272px,64px)}22.28%{transform:translate(272px,96px)}22.52%{transform:translate(256px,96px)}22.76%{transform:translate(256px,112px)}23.49%{transform:translate(304px,112px)}23.73%{transform:translate(304px,96px)}25.42%{transform:translate(416px,96px)}25.67%{transform:translate(416px,80px)}26.15%{transform:translate(384px,80px)}26.39%{transform:translate(384px,64px)}27.85%{transform:translate(480px,64px)}28.09%{transform:translate(480px,48px)}28.57%{transform:translate(448px,48px)}29.06%,30.99%{transform:translate(448px,16px)}29.3%{transform:translate(464px,16px)}29.54%,49.39%{transform:translate(464px,0px)}30.02%{transform:translate(432px,0px)}30.51%{transform:translate(432px,32px)}30.75%,51.57%{transform:translate(448px,32px)}32.69%{transform:translate(560px,16px)}33.41%{transform:translate(560px,64px)}33.66%{transform:translate(544px,64px)}33.9%{transform:translate(544px,80px)}34.38%{transform:translate(512px,80px)}35.35%{transform:translate(512px,16px)}38.26%{transform:translate(704px,16px)}38.5%{transform:translate(704px,0px)}39.95%{transform:translate(800px,0px)}40.19%{transform:translate(800px,16px)}40.44%{transform:translate(784px,16px)}41.16%{transform:translate(784px,64px)}41.4%,71.91%{transform:translate(800px,64px)}41.65%{transform:translate(800px,80px)}43.34%{transform:translate(688px,80px)}43.58%{transform:translate(688px,96px)}44.55%{transform:translate(624px,96px)}44.79%{transform:translate(624px,80px)}45.04%{transform:translate(640px,80px)}45.28%{transform:translate(640px,64px)}46%{transform:translate(592px,64px)}46.25%{transform:translate(592px,80px)}46.49%{transform:translate(576px,80px)}47.7%{transform:translate(576px,0px)}50.61%{transform:translate(464px,80px)}50.85%{transform:translate(448px,80px)}54.48%{transform:translate(256px,32px)}55.21%{transform:translate(256px,80px)}55.45%{transform:translate(240px,80px)}56.17%{transform:translate(240px,32px)}59.08%,98.79%{transform:translate(48px,32px)}60.05%{transform:translate(48px,96px)}66.34%{transform:translate(464px,96px)}66.83%{transform:translate(464px,64px)}72.4%{transform:translate(800px,32px)}72.64%{transform:translate(816px,32px)}72.88%{transform:translate(816px,16px)}73.12%{transform:translate(832px,16px)}73.37%{transform:translate(832px,0px)}78.45%{transform:translate(496px,0px)}79.9%{transform:translate(496px,96px)}80.15%{transform:translate(480px,96px)}80.39%{transform:translate(480px,80px)}81.11%{transform:translate(528px,80px)}81.84%{transform:translate(528px,32px)}83.54%{transform:translate(640px,32px)}83.78%{transform:translate(640px,48px)}86.68%{transform:translate(832px,48px)}86.92%{transform:translate(832px,32px)}99.52%{transform:translate(48px,-16px)}}.s.s2{transform:translate(32px,-16px);animation-name:s2}@keyframes s3{0%,99.76%{transform:translate(48px,-16px)}0.73%{transform:translate(0px,-16px)}0.97%{transform:translate(0px,0px)}1.21%{transform:translate(16px,0px)}1.45%{transform:translate(16px,16px)}2.42%{transform:translate(80px,16px)}2.66%{transform:translate(80px,32px)}2.91%{transform:translate(64px,32px)}3.87%{transform:translate(64px,96px)}4.84%{transform:translate(128px,96px)}5.33%{transform:translate(128px,64px)}5.81%{transform:translate(160px,64px)}6.3%{transform:translate(160px,32px)}7.02%{transform:translate(208px,32px)}7.51%{transform:translate(208px,0px)}7.99%{transform:translate(240px,0px)}8.23%{transform:translate(240px,16px)}8.72%{transform:translate(272px,16px)}8.96%,13.8%{transform:translate(272px,0px)}9.44%{transform:translate(304px,0px)}10.41%{transform:translate(304px,64px)}10.9%{transform:translate(336px,64px)}11.62%{transform:translate(336px,16px)}12.11%{transform:translate(368px,16px)}12.35%{transform:translate(368px,0px)}14.53%{transform:translate(272px,48px)}15.5%{transform:translate(208px,48px)}15.74%{transform:translate(208px,64px)}15.98%{transform:translate(192px,64px)}16.46%{transform:translate(192px,96px)}16.95%{transform:translate(160px,96px)}18.4%{transform:translate(160px,0px)}18.89%{transform:translate(128px,0px)}19.13%{transform:translate(128px,16px)}21.07%{transform:translate(256px,16px)}21.79%{transform:translate(256px,64px)}22.03%{transform:translate(272px,64px)}22.52%{transform:translate(272px,96px)}22.76%{transform:translate(256px,96px)}23%{transform:translate(256px,112px)}23.73%{transform:translate(304px,112px)}23.97%{transform:translate(304px,96px)}25.67%{transform:translate(416px,96px)}25.91%{transform:translate(416px,80px)}26.39%{transform:translate(384px,80px)}26.63%{transform:translate(384px,64px)}28.09%{transform:translate(480px,64px)}28.33%{transform:translate(480px,48px)}28.81%{transform:translate(448px,48px)}29.3%,31.23%{transform:translate(448px,16px)}29.54%{transform:translate(464px,16px)}29.78%,49.64%{transform:translate(464px,0px)}30.27%{transform:translate(432px,0px)}30.75%{transform:translate(432px,32px)}30.99%,51.82%{transform:translate(448px,32px)}32.93%{transform:translate(560px,16px)}33.66%{transform:translate(560px,64px)}33.9%{transform:translate(544px,64px)}34.14%{transform:translate(544px,80px)}34.62%{transform:translate(512px,80px)}35.59%{transform:translate(512px,16px)}38.5%{transform:translate(704px,16px)}38.74%{transform:translate(704px,0px)}40.19%{transform:translate(800px,0px)}40.44%{transform:translate(800px,16px)}40.68%{transform:translate(784px,16px)}41.4%{transform:translate(784px,64px)}41.65%,72.15%{transform:translate(800px,64px)}41.89%{transform:translate(800px,80px)}43.58%{transform:translate(688px,80px)}43.83%{transform:translate(688px,96px)}44.79%{transform:translate(624px,96px)}45.04%{transform:translate(624px,80px)}45.28%{transform:translate(640px,80px)}45.52%{transform:translate(640px,64px)}46.25%{transform:translate(592px,64px)}46.49%{transform:translate(592px,80px)}46.73%{transform:translate(576px,80px)}47.94%{transform:translate(576px,0px)}50.85%{transform:translate(464px,80px)}51.09%{transform:translate(448px,80px)}54.72%{transform:translate(256px,32px)}55.45%{transform:translate(256px,80px)}55.69%{transform:translate(240px,80px)}56.42%{transform:translate(240px,32px)}59.32%,99.03%{transform:translate(48px,32px)}60.29%{transform:translate(48px,96px)}66.59%{transform:translate(464px,96px)}67.07%{transform:translate(464px,64px)}72.64%{transform:translate(800px,32px)}72.88%{transform:translate(816px,32px)}73.12%{transform:translate(816px,16px)}73.37%{transform:translate(832px,16px)}73.61%{transform:translate(832px,0px)}78.69%{transform:translate(496px,0px)}80.15%{transform:translate(496px,96px)}80.39%{transform:translate(480px,96px)}80.63%{transform:translate(480px,80px)}81.36%{transform:translate(528px,80px)}82.08%{transform:translate(528px,32px)}83.78%{transform:translate(640px,32px)}84.02%{transform:translate(640px,48px)}86.92%{transform:translate(832px,48px)}87.17%{transform:translate(832px,32px)}}.s.s3{transform:translate(48px,-16px);animation-name:s3}</style><rect class="c" x="2" y="2" rx="2" ry="2"/><rect class="c" x="2" y="18" rx="2" ry="2"/><rect class="c" x="2" y="34" rx="2" ry="2"/><rect class="c" x="2" y="50" rx="2" ry="2"/><rect class="c" x="2" y="66" rx="2" ry="2"/><rect class="c" x="2" y="82" rx="2" ry="2"/><rect class="c" x="2" y="98" rx="2" ry="2"/><rect class="c" x="18" y="2" rx="2" ry="2"/><rect class="c c0" x="18" y="18" rx="2" ry="2"/><rect class="c" x="18" y="34" rx="2" ry="2"/><rect class="c" x="18" y="50" rx="2" ry="2"/><rect class="c" x="18" y="66" rx="2" ry="2"/><rect class="c" x="18" y="82" rx="2" ry="2"/><rect class="c" x="18" y="98" rx="2" ry="2"/><rect class="c" x="34" y="2" rx="2" ry="2"/><rect class="c" x="34" y="18" rx="2" ry="2"/><rect class="c" x="34" y="34" rx="2" ry="2"/><rect class="c" x="34" y="50" rx="2" ry="2"/><rect class="c" x="34" y="66" rx="2" ry="2"/><rect class="c" x="34" y="82" rx="2" ry="2"/><rect class="c" x="34" y="98" rx="2" ry="2"/><rect class="c" x="50" y="2" rx="2" ry="2"/><rect class="c" x="50" y="18" rx="2" ry="2"/><rect class="c" x="50" y="34" rx="2" ry="2"/><rect class="c" x="50" y="50" rx="2" ry="2"/><rect class="c" x="50" y="66" rx="2" ry="2"/><rect class="c" x="50" y="82" rx="2" ry="2"/><rect class="c c1" x="50" y="98" rx="2" ry="2"/><rect class="c" x="66" y="2" rx="2" ry="2"/><rect class="c" x="66" y="18" rx="2" ry="2"/><rect class="c" x="66" y="34" rx="2" ry="2"/><rect class="c c2" x="66" y="50" rx="2" ry="2"/><rect class="c" x="66" y="66" rx="2" ry="2"/><rect class="c" x="66" y="82" rx="2" ry="2"/><rect class="c c3" x="66" y="98" rx="2" ry="2"/><rect class="c" x="82" y="2" rx="2" ry="2"/><rect class="c" x="82" y="18" rx="2" ry="2"/><rect class="c c4" x="82" y="34" rx="2" ry="2"/><rect class="c" x="82" y="50" rx="2" ry="2"/><rect class="c" x="82" y="66" rx="2" ry="2"/><rect class="c" x="82" y="82" rx="2" ry="2"/><rect class="c" x="82" y="98" rx="2" ry="2"/><rect class="c" x="98" y="2" rx="2" ry="2"/><rect class="c" x="98" y="18" rx="2" ry="2"/><rect class="c" x="98" y="34" rx="2" ry="2"/><rect class="c" x="98" y="50" rx="2" ry="2"/><rect class="c" x="98" y="66" rx="2" ry="2"/><rect class="c" x="98" y="82" rx="2" ry="2"/><rect class="c" x="98" y="98" rx="2" ry="2"/><rect class="c" x="114" y="2" rx="2" ry="2"/><rect class="c" x="114" y="18" rx="2" ry="2"/><rect class="c" x="114" y="34" rx="2" ry="2"/><rect class="c" x="114" y="50" rx="2" ry="2"/><rect class="c" x="114" y="66" rx="2" ry="2"/><rect class="c" x="114" y="82" rx="2" ry="2"/><rect class="c" x="114" y="98" rx="2" ry="2"/><rect class="c c5" x="130" y="2" rx="2" ry="2"/><rect class="c" x="130" y="18" rx="2" ry="2"/><rect class="c" x="130" y="34" rx="2" ry="2"/><rect class="c" x="130" y="50" rx="2" ry="2"/><rect class="c c6" x="130" y="66" rx="2" ry="2"/><rect class="c c7" x="130" y="82" rx="2" ry="2"/><rect class="c" x="130" y="98" rx="2" ry="2"/><rect class="c c8" x="146" y="2" rx="2" ry="2"/><rect class="c c9" x="146" y="18" rx="2" ry="2"/><rect class="c ca" x="146" y="34" rx="2" ry="2"/><rect class="c" x="146" y="50" rx="2" ry="2"/><rect class="c" x="146" y="66" rx="2" ry="2"/><rect class="c" x="146" y="82" rx="2" ry="2"/><rect class="c" x="146" y="98" rx="2" ry="2"/><rect class="c cb" x="162" y="2" rx="2" ry="2"/><rect class="c" x="162" y="18" rx="2" ry="2"/><rect class="c cc" x="162" y="34" rx="2" ry="2"/><rect class="c cd" x="162" y="50" rx="2" ry="2"/><rect class="c ce" x="162" y="66" rx="2" ry="2"/><rect class="c cf" x="162" y="82" rx="2" ry="2"/><rect class="c cg" x="162" y="98" rx="2" ry="2"/><rect class="c" x="178" y="2" rx="2" ry="2"/><rect class="c" x="178" y="18" rx="2" ry="2"/><rect class="c ch" x="178" y="34" rx="2" ry="2"/><rect class="c" x="178" y="50" rx="2" ry="2"/><rect class="c" x="178" y="66" rx="2" ry="2"/><rect class="c" x="178" y="82" rx="2" ry="2"/><rect class="c" x="178" y="98" rx="2" ry="2"/><rect class="c" x="194" y="2" rx="2" ry="2"/><rect class="c" x="194" y="18" rx="2" ry="2"/><rect class="c" x="194" y="34" rx="2" ry="2"/><rect class="c" x="194" y="50" rx="2" ry="2"/><rect class="c" x="194" y="66" rx="2" ry="2"/><rect class="c ci" x="194" y="82" rx="2" ry="2"/><rect class="c cj" x="194" y="98" rx="2" ry="2"/><rect class="c ck" x="210" y="2" rx="2" ry="2"/><rect class="c cl" x="210" y="18" rx="2" ry="2"/><rect class="c cm" x="210" y="34" rx="2" ry="2"/><rect class="c cn" x="210" y="50" rx="2" ry="2"/><rect class="c co" x="210" y="66" rx="2" ry="2"/><rect class="c" x="210" y="82" rx="2" ry="2"/><rect class="c" x="210" y="98" rx="2" ry="2"/><rect class="c" x="226" y="2" rx="2" ry="2"/><rect class="c" x="226" y="18" rx="2" ry="2"/><rect class="c" x="226" y="34" rx="2" ry="2"/><rect class="c" x="226" y="50" rx="2" ry="2"/><rect class="c" x="226" y="66" rx="2" ry="2"/><rect class="c" x="226" y="82" rx="2" ry="2"/><rect class="c" x="226" y="98" rx="2" ry="2"/><rect class="c" x="242" y="2" rx="2" ry="2"/><rect class="c cp" x="242" y="18" rx="2" ry="2"/><rect class="c" x="242" y="34" rx="2" ry="2"/><rect class="c cq" x="242" y="50" rx="2" ry="2"/><rect class="c" x="242" y="66" rx="2" ry="2"/><rect class="c" x="242" y="82" rx="2" ry="2"/><rect class="c" x="242" y="98" rx="2" ry="2"/><rect class="c" x="258" y="2" rx="2" ry="2"/><rect class="c" x="258" y="18" rx="2" ry="2"/><rect class="c" x="258" y="34" rx="2" ry="2"/><rect class="c cr" x="258" y="50" rx="2" ry="2"/><rect class="c cs" x="258" y="66" rx="2" ry="2"/><rect class="c ct" x="258" y="82" rx="2" ry="2"/><rect class="c cu" x="258" y="98" rx="2" ry="2"/><rect class="c cv" x="274" y="2" rx="2" ry="2"/><rect class="c cw" x="274" y="18" rx="2" ry="2"/><rect class="c cx" x="274" y="34" rx="2" ry="2"/><rect class="c cy" x="274" y="50" rx="2" ry="2"/><rect class="c cz" x="274" y="66" rx="2" ry="2"/><rect class="c c10" x="274" y="82" rx="2" ry="2"/><rect class="c c11" x="274" y="98" rx="2" ry="2"/><rect class="c" x="290" y="2" rx="2" ry="2"/><rect class="c" x="290" y="18" rx="2" ry="2"/><rect class="c" x="290" y="34" rx="2" ry="2"/><rect class="c" x="290" y="50" rx="2" ry="2"/><rect class="c" x="290" y="66" rx="2" ry="2"/><rect class="c" x="290" y="82" rx="2" ry="2"/><rect class="c" x="290" y="98" rx="2" ry="2"/><rect class="c c12" x="306" y="2" rx="2" ry="2"/><rect class="c" x="306" y="18" rx="2" ry="2"/><rect class="c c13" x="306" y="34" rx="2" ry="2"/><rect class="c c14" x="306" y="50" rx="2" ry="2"/><rect class="c c15" x="306" y="66" rx="2" ry="2"/><rect class="c" x="306" y="82" rx="2" ry="2"/><rect class="c c16" x="306" y="98" rx="2" ry="2"/><rect class="c" x="322" y="2" rx="2" ry="2"/><rect class="c" x="322" y="18" rx="2" ry="2"/><rect class="c" x="322" y="34" rx="2" ry="2"/><rect class="c" x="322" y="50" rx="2" ry="2"/><rect class="c c17" x="322" y="66" rx="2" ry="2"/><rect class="c" x="322" y="82" rx="2" ry="2"/><rect class="c" x="322" y="98" rx="2" ry="2"/><rect class="c" x="338" y="2" rx="2" ry="2"/><rect class="c" x="338" y="18" rx="2" ry="2"/><rect class="c" x="338" y="34" rx="2" ry="2"/><rect class="c c18" x="338" y="50" rx="2" ry="2"/><rect class="c c19" x="338" y="66" rx="2" ry="2"/><rect class="c" x="338" y="82" rx="2" ry="2"/><rect class="c" x="338" y="98" rx="2" ry="2"/><rect class="c c1a" x="354" y="2" rx="2" ry="2"/><rect class="c c1b" x="354" y="18" rx="2" ry="2"/><rect class="c c1c" x="354" y="34" rx="2" ry="2"/><rect class="c" x="354" y="50" rx="2" ry="2"/><rect class="c" x="354" y="66" rx="2" ry="2"/><rect class="c" x="354" y="82" rx="2" ry="2"/><rect class="c" x="354" y="98" rx="2" ry="2"/><rect class="c" x="370" y="2" rx="2" ry="2"/><rect class="c c1d" x="370" y="18" rx="2" ry="2"/><rect class="c" x="370" y="34" rx="2" ry="2"/><rect class="c" x="370" y="50" rx="2" ry="2"/><rect class="c" x="370" y="66" rx="2" ry="2"/><rect class="c" x="370" y="82" rx="2" ry="2"/><rect class="c" x="370" y="98" rx="2" ry="2"/><rect class="c" x="386" y="2" rx="2" ry="2"/><rect class="c" x="386" y="18" rx="2" ry="2"/><rect class="c" x="386" y="34" rx="2" ry="2"/><rect class="c" x="386" y="50" rx="2" ry="2"/><rect class="c" x="386" y="66" rx="2" ry="2"/><rect class="c c1e" x="386" y="82" rx="2" ry="2"/><rect class="c c1f" x="386" y="98" rx="2" ry="2"/><rect class="c" x="402" y="2" rx="2" ry="2"/><rect class="c" x="402" y="18" rx="2" ry="2"/><rect class="c" x="402" y="34" rx="2" ry="2"/><rect class="c" x="402" y="50" rx="2" ry="2"/><rect class="c" x="402" y="66" rx="2" ry="2"/><rect class="c c1g" x="402" y="82" rx="2" ry="2"/><rect class="c c1h" x="402" y="98" rx="2" ry="2"/><rect class="c" x="418" y="2" rx="2" ry="2"/><rect class="c" x="418" y="18" rx="2" ry="2"/><rect class="c" x="418" y="34" rx="2" ry="2"/><rect class="c" x="418" y="50" rx="2" ry="2"/><rect class="c" x="418" y="66" rx="2" ry="2"/><rect class="c c1i" x="418" y="82" rx="2" ry="2"/><rect class="c c1j" x="418" y="98" rx="2" ry="2"/><rect class="c" x="434" y="2" rx="2" ry="2"/><rect class="c" x="434" y="18" rx="2" ry="2"/><rect class="c c1k" x="434" y="34" rx="2" ry="2"/><rect class="c" x="434" y="50" rx="2" ry="2"/><rect class="c" x="434" y="66" rx="2" ry="2"/><rect class="c" x="434" y="82" rx="2" ry="2"/><rect class="c" x="434" y="98" rx="2" ry="2"/><rect class="c c1l" x="450" y="2" rx="2" ry="2"/><rect class="c c1m" x="450" y="18" rx="2" ry="2"/><rect class="c" x="450" y="34" rx="2" ry="2"/><rect class="c" x="450" y="50" rx="2" ry="2"/><rect class="c" x="450" y="66" rx="2" ry="2"/><rect class="c" x="450" y="82" rx="2" ry="2"/><rect class="c" x="450" y="98" rx="2" ry="2"/><rect class="c c1n" x="466" y="2" rx="2" ry="2"/><rect class="c c1o" x="466" y="18" rx="2" ry="2"/><rect class="c c1p" x="466" y="34" rx="2" ry="2"/><rect class="c c1q" x="466" y="50" rx="2" ry="2"/><rect class="c c1r" x="466" y="66" rx="2" ry="2"/><rect class="c c1s" x="466" y="82" rx="2" ry="2"/><rect class="c" x="466" y="98" rx="2" ry="2"/><rect class="c" x="482" y="2" rx="2" ry="2"/><rect class="c" x="482" y="18" rx="2" ry="2"/><rect class="c" x="482" y="34" rx="2" ry="2"/><rect class="c c1t" x="482" y="50" rx="2" ry="2"/><rect class="c c1u" x="482" y="66" rx="2" ry="2"/><rect class="c c1v" x="482" y="82" rx="2" ry="2"/><rect class="c" x="482" y="98" rx="2" ry="2"/><rect class="c" x="498" y="2" rx="2" ry="2"/><rect class="c" x="498" y="18" rx="2" ry="2"/><rect class="c" x="498" y="34" rx="2" ry="2"/><rect class="c" x="498" y="50" rx="2" ry="2"/><rect class="c" x="498" y="66" rx="2" ry="2"/><rect class="c" x="498" y="82" rx="2" ry="2"/><rect class="c c1w" x="498" y="98" rx="2" ry="2"/><rect class="c c1x" x="514" y="2" rx="2" ry="2"/><rect class="c c1y" x="514" y="18" rx="2" ry="2"/><rect class="c c1z" x="514" y="34" rx="2" ry="2"/><rect class="c" x="514" y="50" rx="2" ry="2"/><rect class="c" x="514" y="66" rx="2" ry="2"/><rect class="c c20" x="514" y="82" rx="2" ry="2"/><rect class="c" x="514" y="98" rx="2" ry="2"/><rect class="c" x="530" y="2" rx="2" ry="2"/><rect class="c c21" x="530" y="18" rx="2" ry="2"/><rect class="c c22" x="530" y="34" rx="2" ry="2"/><rect class="c" x="530" y="50" rx="2" ry="2"/><rect class="c" x="530" y="66" rx="2" ry="2"/><rect class="c" x="530" y="82" rx="2" ry="2"/><rect class="c" x="530" y="98" rx="2" ry="2"/><rect class="c" x="546" y="2" rx="2" ry="2"/><rect class="c" x="546" y="18" rx="2" ry="2"/><rect class="c" x="546" y="34" rx="2" ry="2"/><rect class="c" x="546" y="50" rx="2" ry="2"/><rect class="c" x="546" y="66" rx="2" ry="2"/><rect class="c c23" x="546" y="82" rx="2" ry="2"/><rect class="c" x="546" y="98" rx="2" ry="2"/><rect class="c" x="562" y="2" rx="2" ry="2"/><rect class="c" x="562" y="18" rx="2" ry="2"/><rect class="c" x="562" y="34" rx="2" ry="2"/><rect class="c" x="562" y="50" rx="2" ry="2"/><rect class="c c24" x="562" y="66" rx="2" ry="2"/><rect class="c" x="562" y="82" rx="2" ry="2"/><rect class="c" x="562" y="98" rx="2" ry="2"/><rect class="c" x="578" y="2" rx="2" ry="2"/><rect class="c" x="578" y="18" rx="2" ry="2"/><rect class="c" x="578" y="34" rx="2" ry="2"/><rect class="c" x="578" y="50" rx="2" ry="2"/><rect class="c" x="578" y="66" rx="2" ry="2"/><rect class="c" x="578" y="82" rx="2" ry="2"/><rect class="c" x="578" y="98" rx="2" ry="2"/><rect class="c" x="594" y="2" rx="2" ry="2"/><rect class="c" x="594" y="18" rx="2" ry="2"/><rect class="c" x="594" y="34" rx="2" ry="2"/><rect class="c" x="594" y="50" rx="2" ry="2"/><rect class="c" x="594" y="66" rx="2" ry="2"/><rect class="c c25" x="594" y="82" rx="2" ry="2"/><rect class="c" x="594" y="98" rx="2" ry="2"/><rect class="c" x="610" y="2" rx="2" ry="2"/><rect class="c" x="610" y="18" rx="2" ry="2"/><rect class="c" x="610" y="34" rx="2" ry="2"/><rect class="c" x="610" y="50" rx="2" ry="2"/><rect class="c c26" x="610" y="66" rx="2" ry="2"/><rect class="c" x="610" y="82" rx="2" ry="2"/><rect class="c" x="610" y="98" rx="2" ry="2"/><rect class="c" x="626" y="2" rx="2" ry="2"/><rect class="c" x="626" y="18" rx="2" ry="2"/><rect class="c" x="626" y="34" rx="2" ry="2"/><rect class="c" x="626" y="50" rx="2" ry="2"/><rect class="c" x="626" y="66" rx="2" ry="2"/><rect class="c c27" x="626" y="82" rx="2" ry="2"/><rect class="c c28" x="626" y="98" rx="2" ry="2"/><rect class="c" x="642" y="2" rx="2" ry="2"/><rect class="c c29" x="642" y="18" rx="2" ry="2"/><rect class="c c2a" x="642" y="34" rx="2" ry="2"/><rect class="c c2b" x="642" y="50" rx="2" ry="2"/><rect class="c c2c" x="642" y="66" rx="2" ry="2"/><rect class="c" x="642" y="82" rx="2" ry="2"/><rect class="c" x="642" y="98" rx="2" ry="2"/><rect class="c" x="658" y="2" rx="2" ry="2"/><rect class="c" x="658" y="18" rx="2" ry="2"/><rect class="c" x="658" y="34" rx="2" ry="2"/><rect class="c" x="658" y="50" rx="2" ry="2"/><rect class="c" x="658" y="66" rx="2" ry="2"/><rect class="c" x="658" y="82" rx="2" ry="2"/><rect class="c" x="658" y="98" rx="2" ry="2"/><rect class="c" x="674" y="2" rx="2" ry="2"/><rect class="c c2d" x="674" y="18" rx="2" ry="2"/><rect class="c" x="674" y="34" rx="2" ry="2"/><rect class="c" x="674" y="50" rx="2" ry="2"/><rect class="c" x="674" y="66" rx="2" ry="2"/><rect class="c" x="674" y="82" rx="2" ry="2"/><rect class="c" x="674" y="98" rx="2" ry="2"/><rect class="c" x="690" y="2" rx="2" ry="2"/><rect class="c c2e" x="690" y="18" rx="2" ry="2"/><rect class="c" x="690" y="34" rx="2" ry="2"/><rect class="c" x="690" y="50" rx="2" ry="2"/><rect class="c" x="690" y="66" rx="2" ry="2"/><rect class="c" x="690" y="82" rx="2" ry="2"/><rect class="c c2f" x="690" y="98" rx="2" ry="2"/><rect class="c c2g" x="706" y="2" rx="2" ry="2"/><rect class="c" x="706" y="18" rx="2" ry="2"/><rect class="c" x="706" y="34" rx="2" ry="2"/><rect class="c" x="706" y="50" rx="2" ry="2"/><rect class="c" x="706" y="66" rx="2" ry="2"/><rect class="c" x="706" y="82" rx="2" ry="2"/><rect class="c" x="706" y="98" rx="2" ry="2"/><rect class="c" x="722" y="2" rx="2" ry="2"/><rect class="c" x="722" y="18" rx="2" ry="2"/><rect class="c" x="722" y="34" rx="2" ry="2"/><rect class="c" x="722" y="50" rx="2" ry="2"/><rect class="c" x="722" y="66" rx="2" ry="2"/><rect class="c" x="722" y="82" rx="2" ry="2"/><rect class="c" x="722" y="98" rx="2" ry="2"/><rect class="c" x="738" y="2" rx="2" ry="2"/><rect class="c" x="738" y="18" rx="2" ry="2"/><rect class="c" x="738" y="34" rx="2" ry="2"/><rect class="c" x="738" y="50" rx="2" ry="2"/><rect class="c" x="738" y="66" rx="2" ry="2"/><rect class="c" x="738" y="82" rx="2" ry="2"/><rect class="c" x="738" y="98" rx="2" ry="2"/><rect class="c" x="754" y="2" rx="2" ry="2"/><rect class="c" x="754" y="18" rx="2" ry="2"/><rect class="c" x="754" y="34" rx="2" ry="2"/><rect class="c" x="754" y="50" rx="2" ry="2"/><rect class="c" x="754" y="66" rx="2" ry="2"/><rect class="c" x="754" y="82" rx="2" ry="2"/><rect class="c" x="754" y="98" rx="2" ry="2"/><rect class="c" x="770" y="2" rx="2" ry="2"/><rect class="c" x="770" y="18" rx="2" ry="2"/><rect class="c" x="770" y="34" rx="2" ry="2"/><rect class="c" x="770" y="50" rx="2" ry="2"/><rect class="c" x="770" y="66" rx="2" ry="2"/><rect class="c" x="770" y="82" rx="2" ry="2"/><rect class="c" x="770" y="98" rx="2" ry="2"/><rect class="c" x="786" y="2" rx="2" ry="2"/><rect class="c" x="786" y="18" rx="2" ry="2"/><rect class="c" x="786" y="34" rx="2" ry="2"/><rect class="c" x="786" y="50" rx="2" ry="2"/><rect class="c c2h" x="786" y="66" rx="2" ry="2"/><rect class="c" x="786" y="82" rx="2" ry="2"/><rect class="c" x="786" y="98" rx="2" ry="2"/><rect class="c" x="802" y="2" rx="2" ry="2"/><rect class="c c2i" x="802" y="18" rx="2" ry="2"/><rect class="c c2j" x="802" y="34" rx="2" ry="2"/><rect class="c" x="802" y="50" rx="2" ry="2"/><rect class="c c2k" x="802" y="66" rx="2" ry="2"/><rect class="c" x="802" y="82" rx="2" ry="2"/><rect class="c" x="802" y="98" rx="2" ry="2"/><rect class="c" x="818" y="2" rx="2" ry="2"/><rect class="c" x="818" y="18" rx="2" ry="2"/><rect class="c" x="818" y="34" rx="2" ry="2"/><rect class="c" x="818" y="50" rx="2" ry="2"/><rect class="c" x="818" y="66" rx="2" ry="2"/><rect class="c" x="818" y="82" rx="2" ry="2"/><rect class="c" x="818" y="98" rx="2" ry="2"/><rect class="c c2l" x="834" y="2" rx="2" ry="2"/><rect class="c" x="834" y="18" rx="2" ry="2"/><rect class="c c2m" x="834" y="34" rx="2" ry="2"/><rect class="u u0" height="12" width="714.7" x="0.0" y="144"/><rect class="u u1" height="12" width="80.9" x="714.1" y="144"/><rect class="u u2" height="12" width="9.5" x="794.4" y="144"/><rect class="u u3" height="12" width="45.2" x="803.4" y="144"/><rect class="s s0" x="0.8" y="0.8" width="14.4" height="14.4" rx="4.5" ry="4.5"/><rect class="s s1" x="1.8" y="1.8" width="12.3" height="12.3" rx="4.1" ry="4.1"/><rect class="s s2" x="2.6" y="2.6" width="10.8" height="10.8" rx="3.6" ry="3.6"/><rect class="s s3" x="3.0" y="3.0" width="9.9" height="9.9" rx="3.3" ry="3.3"/></svg>