<svg viewBox="-16 -32 880 192" width="880" height="192" xmlns="http://www.w3.org/2000/svg"><desc>Generated with https://github.com/Platane/snk</desc><style>:root{--cb:#1b1f230a;--cs:purple;--ce:#ebedf0;--c0:#ebedf0;--c1:#9be9a8;--c2:#40c463;--c3:#30a14e;--c4:#216e39}.c{shape-rendering:geometricPrecision;fill:var(--ce);stroke-width:1px;stroke:var(--cb);animation:none 30300ms linear infinite;width:12px;height:12px}@keyframes c0{0.98%{fill:var(--c1)}1%,100%{fill:var(--ce)}}.c.c0{fill:var(--c1);animation-name:c0}@keyframes c1{4.61%{fill:var(--c1)}4.63%,100%{fill:var(--ce)}}.c.c1{fill:var(--c1);animation-name:c1}@keyframes c2{3.29%{fill:var(--c1)}3.31%,100%{fill:var(--ce)}}.c.c2{fill:var(--c1);animation-name:c2}@keyframes c3{4.28%{fill:var(--c1)}4.3%,100%{fill:var(--ce)}}.c.c3{fill:var(--c1);animation-name:c3}@keyframes c4{2.63%{fill:var(--c1)}2.65%,100%{fill:var(--ce)}}.c.c4{fill:var(--c1);animation-name:c4}@keyframes c5{26.72%{fill:var(--c1)}26.74%,100%{fill:var(--ce)}}.c.c5{fill:var(--c1);animation-name:c5}@keyframes c6{6.92%{fill:var(--c1)}6.94%,100%{fill:var(--ce)}}.c.c6{fill:var(--c1);animation-name:c6}@keyframes c7{6.59%{fill:var(--c1)}6.61%,100%{fill:var(--ce)}}.c.c7{fill:var(--c1);animation-name:c7}@keyframes c8{25.07%{fill:var(--c1)}25.09%,100%{fill:var(--ce)}}.c.c8{fill:var(--c1);animation-name:c8}@keyframes c9{24.74%{fill:var(--c1)}24.76%,100%{fill:var(--ce)}}.c.c9{fill:var(--c1);animation-name:c9}@keyframes ca{24.41%{fill:var(--c1)}24.43%,100%{fill:var(--ce)}}.c.ca{fill:var(--c1);animation-name:ca}@keyframes cb{25.4%{fill:var(--c1)}25.42%,100%{fill:var(--ce)}}.c.cb{fill:var(--c1);animation-name:cb}@keyframes cc{8.24%{fill:var(--c1)}8.26%,100%{fill:var(--ce)}}.c.cc{fill:var(--c1);animation-name:cc}@keyframes cd{7.91%{fill:var(--c1)}7.93%,100%{fill:var(--ce)}}.c.cd{fill:var(--c1);animation-name:cd}@keyframes ce{7.58%{fill:var(--c1)}7.6%,100%{fill:var(--ce)}}.c.ce{fill:var(--c1);animation-name:ce}@keyframes cf{23.09%{fill:var(--c1)}23.11%,100%{fill:var(--ce)}}.c.cf{fill:var(--c1);animation-name:cf}@keyframes cg{22.76%{fill:var(--c1)}22.78%,100%{fill:var(--ce)}}.c.cg{fill:var(--c1);animation-name:cg}@keyframes ch{8.57%{fill:var(--c1)}8.59%,100%{fill:var(--ce)}}.c.ch{fill:var(--c1);animation-name:ch}@keyframes ci{21.77%{fill:var(--c1)}21.79%,100%{fill:var(--ce)}}.c.ci{fill:var(--c1);animation-name:ci}@keyframes cj{22.1%{fill:var(--c1)}22.12%,100%{fill:var(--ce)}}.c.cj{fill:var(--c1);animation-name:cj}@keyframes ck{9.89%{fill:var(--c1)}9.91%,100%{fill:var(--ce)}}.c.ck{fill:var(--c1);animation-name:ck}@keyframes cl{9.56%{fill:var(--c1)}9.58%,100%{fill:var(--ce)}}.c.cl{fill:var(--c1);animation-name:cl}@keyframes cm{9.23%{fill:var(--c1)}9.25%,100%{fill:var(--ce)}}.c.cm{fill:var(--c1);animation-name:cm}@keyframes cn{20.78%{fill:var(--c1)}20.8%,100%{fill:var(--ce)}}.c.cn{fill:var(--c1);animation-name:cn}@keyframes co{21.11%{fill:var(--c1)}21.13%,100%{fill:var(--ce)}}.c.co{fill:var(--c1);animation-name:co}@keyframes cp{10.88%{fill:var(--c1)}10.9%,100%{fill:var(--ce)}}.c.cp{fill:var(--c1);animation-name:cp}@keyframes cq{20.12%{fill:var(--c1)}20.14%,100%{fill:var(--ce)}}.c.cq{fill:var(--c1);animation-name:cq}@keyframes cr{19.79%{fill:var(--c1)}19.81%,100%{fill:var(--ce)}}.c.cr{fill:var(--c1);animation-name:cr}@keyframes cs{30.68%{fill:var(--c1)}30.7%,100%{fill:var(--ce)}}.c.cs{fill:var(--c1);animation-name:cs}@keyframes ct{31.67%{fill:var(--c1)}31.69%,100%{fill:var(--ce)}}.c.ct{fill:var(--c1);animation-name:ct}@keyframes cu{32%{fill:var(--c1)}32.02%,100%{fill:var(--ce)}}.c.cu{fill:var(--c1);animation-name:cu}@keyframes cv{11.87%{fill:var(--c1)}11.89%,100%{fill:var(--ce)}}.c.cv{fill:var(--c1);animation-name:cv}@keyframes cw{11.54%{fill:var(--c1)}11.56%,100%{fill:var(--ce)}}.c.cw{fill:var(--c1);animation-name:cw}@keyframes cx{19.13%{fill:var(--c1)}19.15%,100%{fill:var(--ce)}}.c.cx{fill:var(--c1);animation-name:cx}@keyframes cy{19.46%{fill:var(--c1)}19.48%,100%{fill:var(--ce)}}.c.cy{fill:var(--c1);animation-name:cy}@keyframes cz{31.01%{fill:var(--c1)}31.03%,100%{fill:var(--ce)}}.c.cz{fill:var(--c1);animation-name:cz}@keyframes c10{31.34%{fill:var(--c1)}31.36%,100%{fill:var(--ce)}}.c.c10{fill:var(--c1);animation-name:c10}@keyframes c11{32.33%{fill:var(--c1)}32.35%,100%{fill:var(--ce)}}.c.c11{fill:var(--c1);animation-name:c11}@keyframes c12{12.53%{fill:var(--c1)}12.55%,100%{fill:var(--ce)}}.c.c12{fill:var(--c1);animation-name:c12}@keyframes c13{13.19%{fill:var(--c1)}13.21%,100%{fill:var(--ce)}}.c.c13{fill:var(--c1);animation-name:c13}@keyframes c14{13.52%{fill:var(--c1)}13.54%,100%{fill:var(--ce)}}.c.c14{fill:var(--c1);animation-name:c14}@keyframes c15{13.85%{fill:var(--c1)}13.87%,100%{fill:var(--ce)}}.c.c15{fill:var(--c1);animation-name:c15}@keyframes c16{32.99%{fill:var(--c1)}33.01%,100%{fill:var(--ce)}}.c.c16{fill:var(--c1);animation-name:c16}@keyframes c17{14.18%{fill:var(--c1)}14.2%,100%{fill:var(--ce)}}.c.c17{fill:var(--c1);animation-name:c17}@keyframes c18{14.84%{fill:var(--c1)}14.86%,100%{fill:var(--ce)}}.c.c18{fill:var(--c1);animation-name:c18}@keyframes c19{14.51%{fill:var(--c1)}14.53%,100%{fill:var(--ce)}}.c.c19{fill:var(--c1);animation-name:c19}@keyframes c1a{16.82%{fill:var(--c1)}16.84%,100%{fill:var(--ce)}}.c.c1a{fill:var(--c1);animation-name:c1a}@keyframes c1b{15.83%{fill:var(--c1)}15.85%,100%{fill:var(--ce)}}.c.c1b{fill:var(--c1);animation-name:c1b}@keyframes c1c{15.5%{fill:var(--c1)}15.52%,100%{fill:var(--ce)}}.c.c1c{fill:var(--c1);animation-name:c1c}@keyframes c1d{16.16%{fill:var(--c1)}16.18%,100%{fill:var(--ce)}}.c.c1d{fill:var(--c1);animation-name:c1d}@keyframes c1e{36.29%{fill:var(--c1)}36.31%,100%{fill:var(--ce)}}.c.c1e{fill:var(--c1);animation-name:c1e}@keyframes c1f{34.64%{fill:var(--c1)}34.66%,100%{fill:var(--ce)}}.c.c1f{fill:var(--c1);animation-name:c1f}@keyframes c1g{35.96%{fill:var(--c1)}35.98%,100%{fill:var(--ce)}}.c.c1g{fill:var(--c1);animation-name:c1g}@keyframes c1h{34.97%{fill:var(--c1)}34.99%,100%{fill:var(--ce)}}.c.c1h{fill:var(--c1);animation-name:c1h}@keyframes c1i{35.63%{fill:var(--c1)}35.65%,100%{fill:var(--ce)}}.c.c1i{fill:var(--c1);animation-name:c1i}@keyframes c1j{35.3%{fill:var(--c1)}35.32%,100%{fill:var(--ce)}}.c.c1j{fill:var(--c1);animation-name:c1j}@keyframes c1k{41.57%{fill:var(--c1)}41.59%,100%{fill:var(--ce)}}.c.c1k{fill:var(--c1);animation-name:c1k}@keyframes c1l{40.58%{fill:var(--c1)}40.6%,100%{fill:var(--ce)}}.c.c1l{fill:var(--c1);animation-name:c1l}@keyframes c1m{40.91%{fill:var(--c1)}40.93%,100%{fill:var(--ce)}}.c.c1m{fill:var(--c1);animation-name:c1m}@keyframes c1n{40.25%{fill:var(--c1)}40.27%,100%{fill:var(--ce)}}.c.c1n{fill:var(--c1);animation-name:c1n}@keyframes c1o{39.92%{fill:var(--c1)}39.94%,100%{fill:var(--ce)}}.c.c1o{fill:var(--c1);animation-name:c1o}@keyframes c1p{39.59%{fill:var(--c1)}39.61%,100%{fill:var(--ce)}}.c.c1p{fill:var(--c1);animation-name:c1p}@keyframes c1q{39.26%{fill:var(--c1)}39.28%,100%{fill:var(--ce)}}.c.c1q{fill:var(--c1);animation-name:c1q}@keyframes c1r{38.27%{fill:var(--c1)}38.29%,100%{fill:var(--ce)}}.c.c1r{fill:var(--c1);animation-name:c1r}@keyframes c1s{71.61%{fill:var(--c1)}71.63%,100%{fill:var(--ce)}}.c.c1s{fill:var(--c1);animation-name:c1s}@keyframes c1t{38.93%{fill:var(--c1)}38.95%,100%{fill:var(--ce)}}.c.c1t{fill:var(--c1);animation-name:c1t}@keyframes c1u{38.6%{fill:var(--c1)}38.62%,100%{fill:var(--ce)}}.c.c1u{fill:var(--c1);animation-name:c1u}@keyframes c1v{71.94%{fill:var(--c2)}71.96%,100%{fill:var(--ce)}}.c.c1v{fill:var(--c2);animation-name:c1v}@keyframes c1w{72.6%{fill:var(--c2)}72.62%,100%{fill:var(--ce)}}.c.c1w{fill:var(--c2);animation-name:c1w}@keyframes c1x{44.54%{fill:var(--c1)}44.56%,100%{fill:var(--ce)}}.c.c1x{fill:var(--c1);animation-name:c1x}@keyframes c1y{43.55%{fill:var(--c1)}43.57%,100%{fill:var(--ce)}}.c.c1y{fill:var(--c1);animation-name:c1y}@keyframes c1z{43.22%{fill:var(--c1)}43.24%,100%{fill:var(--ce)}}.c.c1z{fill:var(--c1);animation-name:c1z}@keyframes c20{46.19%{fill:var(--c1)}46.21%,100%{fill:var(--ce)}}.c.c20{fill:var(--c1);animation-name:c20}@keyframes c21{43.88%{fill:var(--c1)}43.9%,100%{fill:var(--ce)}}.c.c21{fill:var(--c1);animation-name:c21}@keyframes c22{74.58%{fill:var(--c2)}74.6%,100%{fill:var(--ce)}}.c.c22{fill:var(--c2);animation-name:c22}@keyframes c23{46.85%{fill:var(--c1)}46.87%,100%{fill:var(--ce)}}.c.c23{fill:var(--c1);animation-name:c23}@keyframes c24{47.51%{fill:var(--c1)}47.53%,100%{fill:var(--ce)}}.c.c24{fill:var(--c1);animation-name:c24}@keyframes c25{51.15%{fill:var(--c1)}51.17%,100%{fill:var(--ce)}}.c.c25{fill:var(--c1);animation-name:c25}@keyframes c26{48.5%{fill:var(--c1)}48.52%,100%{fill:var(--ce)}}.c.c26{fill:var(--c1);animation-name:c26}@keyframes c27{49.82%{fill:var(--c1)}49.84%,100%{fill:var(--ce)}}.c.c27{fill:var(--c1);animation-name:c27}@keyframes c28{50.16%{fill:var(--c1)}50.18%,100%{fill:var(--ce)}}.c.c28{fill:var(--c1);animation-name:c28}@keyframes c29{53.46%{fill:var(--c1)}53.48%,100%{fill:var(--ce)}}.c.c29{fill:var(--c1);animation-name:c29}@keyframes c2a{76.89%{fill:var(--c2)}76.91%,100%{fill:var(--ce)}}.c.c2a{fill:var(--c2);animation-name:c2a}@keyframes c2b{77.22%{fill:var(--c2)}77.24%,100%{fill:var(--ce)}}.c.c2b{fill:var(--c2);animation-name:c2b}@keyframes c2c{49.16%{fill:var(--c1)}49.18%,100%{fill:var(--ce)}}.c.c2c{fill:var(--c1);animation-name:c2c}@keyframes c2d{54.12%{fill:var(--c1)}54.14%,100%{fill:var(--ce)}}.c.c2d{fill:var(--c1);animation-name:c2d}@keyframes c2e{54.45%{fill:var(--c1)}54.47%,100%{fill:var(--ce)}}.c.c2e{fill:var(--c1);animation-name:c2e}@keyframes c2f{66%{fill:var(--c1)}66.02%,100%{fill:var(--ce)}}.c.c2f{fill:var(--c1);animation-name:c2f}@keyframes c2g{55.11%{fill:var(--c1)}55.13%,100%{fill:var(--ce)}}.c.c2g{fill:var(--c1);animation-name:c2g}@keyframes c2h{58.74%{fill:var(--c1)}58.76%,100%{fill:var(--ce)}}.c.c2h{fill:var(--c1);animation-name:c2h}@keyframes c2i{57.42%{fill:var(--c1)}57.44%,100%{fill:var(--ce)}}.c.c2i{fill:var(--c1);animation-name:c2i}@keyframes c2j{57.75%{fill:var(--c1)}57.77%,100%{fill:var(--ce)}}.c.c2j{fill:var(--c1);animation-name:c2j}@keyframes c2k{58.41%{fill:var(--c1)}58.43%,100%{fill:var(--ce)}}.c.c2k{fill:var(--c1);animation-name:c2k}@keyframes c2l{61.05%{fill:var(--c1)}61.07%,100%{fill:var(--ce)}}.c.c2l{fill:var(--c1);animation-name:c2l}@keyframes c2m{81.51%{fill:var(--c4)}81.53%,100%{fill:var(--ce)}}.c.c2m{fill:var(--c4);animation-name:c2m}.u{transform-origin:0 0;transform:scale(0,1);animation:none linear 30300ms infinite}@keyframes u0{0.98%{transform:scale(0.000,1)}1%,2.63%{transform:scale(0.011,1)}2.65%,3.29%{transform:scale(0.022,1)}3.31%,4.28%{transform:scale(0.034,1)}4.3%,4.61%{transform:scale(0.045,1)}4.63%,6.59%{transform:scale(0.056,1)}6.61%,6.92%{transform:scale(0.067,1)}6.94%,7.58%{transform:scale(0.079,1)}7.6%,7.91%{transform:scale(0.090,1)}7.93%,8.24%{transform:scale(0.101,1)}8.26%,8.57%{transform:scale(0.112,1)}8.59%,9.23%{transform:scale(0.124,1)}9.25%,9.56%{transform:scale(0.135,1)}9.58%,9.89%{transform:scale(0.146,1)}9.91%,10.88%{transform:scale(0.157,1)}10.9%,11.54%{transform:scale(0.169,1)}11.56%,11.87%{transform:scale(0.180,1)}11.89%,12.53%{transform:scale(0.191,1)}12.55%,13.19%{transform:scale(0.202,1)}13.21%,13.52%{transform:scale(0.213,1)}13.54%,13.85%{transform:scale(0.225,1)}13.87%,14.18%{transform:scale(0.236,1)}14.2%,14.51%{transform:scale(0.247,1)}14.53%,14.84%{transform:scale(0.258,1)}14.86%,15.5%{transform:scale(0.270,1)}15.52%,15.83%{transform:scale(0.281,1)}15.85%,16.16%{transform:scale(0.292,1)}16.18%,16.82%{transform:scale(0.303,1)}16.84%,19.13%{transform:scale(0.315,1)}19.15%,19.46%{transform:scale(0.326,1)}19.48%,19.79%{transform:scale(0.337,1)}19.81%,20.12%{transform:scale(0.348,1)}20.14%,20.78%{transform:scale(0.360,1)}20.8%,21.11%{transform:scale(0.371,1)}21.13%,21.77%{transform:scale(0.382,1)}21.79%,22.1%{transform:scale(0.393,1)}22.12%,22.76%{transform:scale(0.404,1)}22.78%,23.09%{transform:scale(0.416,1)}23.11%,24.41%{transform:scale(0.427,1)}24.43%,24.74%{transform:scale(0.438,1)}24.76%,25.07%{transform:scale(0.449,1)}25.09%,25.4%{transform:scale(0.461,1)}25.42%,26.72%{transform:scale(0.472,1)}26.74%,30.68%{transform:scale(0.483,1)}30.7%,31.01%{transform:scale(0.494,1)}31.03%,31.34%{transform:scale(0.506,1)}31.36%,31.67%{transform:scale(0.517,1)}31.69%,32%{transform:scale(0.528,1)}32.02%,32.33%{transform:scale(0.539,1)}32.35%,32.99%{transform:scale(0.551,1)}33.01%,34.64%{transform:scale(0.562,1)}34.66%,34.97%{transform:scale(0.573,1)}34.99%,35.3%{transform:scale(0.584,1)}35.32%,35.63%{transform:scale(0.596,1)}35.65%,35.96%{transform:scale(0.607,1)}35.98%,36.29%{transform:scale(0.618,1)}36.31%,38.27%{transform:scale(0.629,1)}38.29%,38.6%{transform:scale(0.640,1)}38.62%,38.93%{transform:scale(0.652,1)}38.95%,39.26%{transform:scale(0.663,1)}39.28%,39.59%{transform:scale(0.674,1)}39.61%,39.92%{transform:scale(0.685,1)}39.94%,40.25%{transform:scale(0.697,1)}40.27%,40.58%{transform:scale(0.708,1)}40.6%,40.91%{transform:scale(0.719,1)}40.93%,41.57%{transform:scale(0.730,1)}41.59%,43.22%{transform:scale(0.742,1)}43.24%,43.55%{transform:scale(0.753,1)}43.57%,43.88%{transform:scale(0.764,1)}43.9%,44.54%{transform:scale(0.775,1)}44.56%,46.19%{transform:scale(0.787,1)}46.21%,46.85%{transform:scale(0.798,1)}46.87%,47.51%{transform:scale(0.809,1)}47.53%,48.5%{transform:scale(0.820,1)}48.52%,49.16%{transform:scale(0.831,1)}49.18%,49.82%{transform:scale(0.843,1)}49.84%,50.16%{transform:scale(0.854,1)}50.18%,51.15%{transform:scale(0.865,1)}51.17%,53.46%{transform:scale(0.876,1)}53.48%,54.12%{transform:scale(0.888,1)}54.14%,54.45%{transform:scale(0.899,1)}54.47%,55.11%{transform:scale(0.910,1)}55.13%,57.42%{transform:scale(0.921,1)}57.44%,57.75%{transform:scale(0.933,1)}57.77%,58.41%{transform:scale(0.944,1)}58.43%,58.74%{transform:scale(0.955,1)}58.76%,61.05%{transform:scale(0.966,1)}61.07%,66%{transform:scale(0.978,1)}66.02%,71.61%{transform:scale(0.989,1)}71.63%,100%{transform:scale(1.000,1)}}.u.u0{fill:var(--c1);animation-name:u0;transform-origin:0.0px 0}@keyframes u1{71.94%{transform:scale(0.000,1)}71.96%,72.6%{transform:scale(0.200,1)}72.62%,74.58%{transform:scale(0.400,1)}74.6%,76.89%{transform:scale(0.600,1)}76.91%,77.22%{transform:scale(0.800,1)}77.24%,100%{transform:scale(1.000,1)}}.u.u1{fill:var(--c2);animation-name:u1;transform-origin:794.4px 0}@keyframes u2{81.51%{transform:scale(0.000,1)}81.53%,100%{transform:scale(1.000,1)}}.u.u2{fill:var(--c4);animation-name:u2;transform-origin:839.1px 0}.s{shape-rendering:geometricPrecision;fill:var(--cs);animation:none linear 30300ms infinite}@keyframes s0{0%,99.67%{transform:translate(0px,-16px)}0.33%{transform:translate(0px,0px)}0.66%{transform:translate(16px,0px)}0.99%{transform:translate(16px,16px)}2.31%{transform:translate(80px,16px)}2.64%{transform:translate(80px,32px)}2.97%{transform:translate(64px,32px)}4.29%{transform:translate(64px,96px)}4.62%{transform:translate(48px,96px)}4.95%{transform:translate(48px,80px)}6.6%{transform:translate(128px,80px)}6.93%{transform:translate(128px,64px)}7.59%{transform:translate(160px,64px)}8.25%,24.09%{transform:translate(160px,32px)}9.24%{transform:translate(208px,32px)}9.9%{transform:translate(208px,0px)}10.56%{transform:translate(240px,0px)}10.89%{transform:translate(240px,16px)}11.55%{transform:translate(272px,16px)}11.88%,18.48%{transform:translate(272px,0px)}12.54%{transform:translate(304px,0px)}13.86%{transform:translate(304px,64px)}14.52%{transform:translate(336px,64px)}14.85%{transform:translate(336px,48px)}15.18%{transform:translate(352px,48px)}15.84%{transform:translate(352px,16px)}16.17%{transform:translate(368px,16px)}16.5%{transform:translate(368px,0px)}19.47%{transform:translate(272px,48px)}20.79%{transform:translate(208px,48px)}21.12%{transform:translate(208px,64px)}21.45%{transform:translate(192px,64px)}22.11%{transform:translate(192px,96px)}22.77%{transform:translate(160px,96px)}24.42%{transform:translate(144px,32px)}25.08%{transform:translate(144px,0px)}25.41%{transform:translate(160px,0px)}25.74%{transform:translate(160px,-16px)}26.4%{transform:translate(128px,-16px)}26.73%{transform:translate(128px,0px)}29.37%{transform:translate(256px,0px)}30.69%{transform:translate(256px,64px)}31.02%{transform:translate(272px,64px)}31.35%{transform:translate(272px,80px)}31.68%{transform:translate(256px,80px)}32.01%{transform:translate(256px,96px)}35.31%{transform:translate(416px,96px)}35.64%{transform:translate(416px,80px)}36.3%{transform:translate(384px,80px)}36.63%{transform:translate(384px,64px)}38.61%{transform:translate(480px,64px)}38.94%{transform:translate(480px,48px)}39.27%{transform:translate(464px,48px)}40.26%{transform:translate(464px,0px)}40.59%{transform:translate(448px,0px)}40.92%{transform:translate(448px,16px)}41.25%{transform:translate(432px,16px)}41.58%{transform:translate(432px,32px)}43.23%{transform:translate(512px,32px)}43.56%{transform:translate(512px,16px)}43.89%{transform:translate(528px,16px)}44.22%{transform:translate(528px,0px)}44.55%{transform:translate(512px,0px)}46.2%{transform:translate(512px,80px)}47.19%{transform:translate(560px,80px)}47.52%{transform:translate(560px,64px)}49.17%{transform:translate(640px,64px)}49.5%{transform:translate(640px,80px)}49.83%{transform:translate(624px,80px)}50.17%{transform:translate(624px,96px)}50.5%{transform:translate(608px,96px)}50.83%{transform:translate(608px,80px)}51.16%{transform:translate(592px,80px)}51.49%{transform:translate(592px,64px)}52.15%{transform:translate(624px,64px)}53.14%{transform:translate(624px,16px)}54.79%{transform:translate(704px,16px)}55.12%{transform:translate(704px,0px)}57.1%{transform:translate(800px,0px)}58.42%{transform:translate(800px,64px)}58.75%{transform:translate(784px,64px)}59.08%{transform:translate(784px,48px)}59.74%{transform:translate(816px,48px)}60.4%{transform:translate(816px,16px)}60.73%{transform:translate(832px,16px)}61.06%{transform:translate(832px,0px)}64.03%{transform:translate(688px,0px)}66.01%{transform:translate(688px,96px)}66.34%{transform:translate(672px,96px)}67%{transform:translate(672px,64px)}71.29%{transform:translate(464px,64px)}71.62%{transform:translate(464px,80px)}72.28%{transform:translate(496px,80px)}72.61%{transform:translate(496px,96px)}73.27%{transform:translate(528px,96px)}74.59%{transform:translate(528px,32px)}76.9%{transform:translate(640px,32px)}77.23%{transform:translate(640px,48px)}81.19%{transform:translate(832px,48px)}81.52%{transform:translate(832px,32px)}97.69%{transform:translate(48px,32px)}98.68%{transform:translate(48px,-16px)}}.s.s0{transform:translate(0px,-16px);animation-name:s0}@keyframes s1{0%,99.67%{transform:translate(16px,-16px)}0.33%{transform:translate(0px,-16px)}0.66%{transform:translate(0px,0px)}0.99%{transform:translate(16px,0px)}1.32%{transform:translate(16px,16px)}2.64%{transform:translate(80px,16px)}2.97%{transform:translate(80px,32px)}3.3%{transform:translate(64px,32px)}4.62%{transform:translate(64px,96px)}4.95%{transform:translate(48px,96px)}5.28%{transform:translate(48px,80px)}6.93%{transform:translate(128px,80px)}7.26%{transform:translate(128px,64px)}7.92%{transform:translate(160px,64px)}8.58%,24.42%{transform:translate(160px,32px)}9.57%{transform:translate(208px,32px)}10.23%{transform:translate(208px,0px)}10.89%{transform:translate(240px,0px)}11.22%{transform:translate(240px,16px)}11.88%{transform:translate(272px,16px)}12.21%,18.81%{transform:translate(272px,0px)}12.87%{transform:translate(304px,0px)}14.19%{transform:translate(304px,64px)}14.85%{transform:translate(336px,64px)}15.18%{transform:translate(336px,48px)}15.51%{transform:translate(352px,48px)}16.17%{transform:translate(352px,16px)}16.5%{transform:translate(368px,16px)}16.83%{transform:translate(368px,0px)}19.8%{transform:translate(272px,48px)}21.12%{transform:translate(208px,48px)}21.45%{transform:translate(208px,64px)}21.78%{transform:translate(192px,64px)}22.44%{transform:translate(192px,96px)}23.1%{transform:translate(160px,96px)}24.75%{transform:translate(144px,32px)}25.41%{transform:translate(144px,0px)}25.74%{transform:translate(160px,0px)}26.07%{transform:translate(160px,-16px)}26.73%{transform:translate(128px,-16px)}27.06%{transform:translate(128px,0px)}29.7%{transform:translate(256px,0px)}31.02%{transform:translate(256px,64px)}31.35%{transform:translate(272px,64px)}31.68%{transform:translate(272px,80px)}32.01%{transform:translate(256px,80px)}32.34%{transform:translate(256px,96px)}35.64%{transform:translate(416px,96px)}35.97%{transform:translate(416px,80px)}36.63%{transform:translate(384px,80px)}36.96%{transform:translate(384px,64px)}38.94%{transform:translate(480px,64px)}39.27%{transform:translate(480px,48px)}39.6%{transform:translate(464px,48px)}40.59%{transform:translate(464px,0px)}40.92%{transform:translate(448px,0px)}41.25%{transform:translate(448px,16px)}41.58%{transform:translate(432px,16px)}41.91%{transform:translate(432px,32px)}43.56%{transform:translate(512px,32px)}43.89%{transform:translate(512px,16px)}44.22%{transform:translate(528px,16px)}44.55%{transform:translate(528px,0px)}44.88%{transform:translate(512px,0px)}46.53%{transform:translate(512px,80px)}47.52%{transform:translate(560px,80px)}47.85%{transform:translate(560px,64px)}49.5%{transform:translate(640px,64px)}49.83%{transform:translate(640px,80px)}50.17%{transform:translate(624px,80px)}50.5%{transform:translate(624px,96px)}50.83%{transform:translate(608px,96px)}51.16%{transform:translate(608px,80px)}51.49%{transform:translate(592px,80px)}51.82%{transform:translate(592px,64px)}52.48%{transform:translate(624px,64px)}53.47%{transform:translate(624px,16px)}55.12%{transform:translate(704px,16px)}55.45%{transform:translate(704px,0px)}57.43%{transform:translate(800px,0px)}58.75%{transform:translate(800px,64px)}59.08%{transform:translate(784px,64px)}59.41%{transform:translate(784px,48px)}60.07%{transform:translate(816px,48px)}60.73%{transform:translate(816px,16px)}61.06%{transform:translate(832px,16px)}61.39%{transform:translate(832px,0px)}64.36%{transform:translate(688px,0px)}66.34%{transform:translate(688px,96px)}66.67%{transform:translate(672px,96px)}67.33%{transform:translate(672px,64px)}71.62%{transform:translate(464px,64px)}71.95%{transform:translate(464px,80px)}72.61%{transform:translate(496px,80px)}72.94%{transform:translate(496px,96px)}73.6%{transform:translate(528px,96px)}74.92%{transform:translate(528px,32px)}77.23%{transform:translate(640px,32px)}77.56%{transform:translate(640px,48px)}81.52%{transform:translate(832px,48px)}81.85%{transform:translate(832px,32px)}98.02%{transform:translate(48px,32px)}99.01%{transform:translate(48px,-16px)}}.s.s1{transform:translate(16px,-16px);animation-name:s1}@keyframes s2{0%,99.67%{transform:translate(32px,-16px)}0.66%{transform:translate(0px,-16px)}0.99%{transform:translate(0px,0px)}1.32%{transform:translate(16px,0px)}1.65%{transform:translate(16px,16px)}2.97%{transform:translate(80px,16px)}3.3%{transform:translate(80px,32px)}3.63%{transform:translate(64px,32px)}4.95%{transform:translate(64px,96px)}5.28%{transform:translate(48px,96px)}5.61%{transform:translate(48px,80px)}7.26%{transform:translate(128px,80px)}7.59%{transform:translate(128px,64px)}8.25%{transform:translate(160px,64px)}8.91%,24.75%{transform:translate(160px,32px)}9.9%{transform:translate(208px,32px)}10.56%{transform:translate(208px,0px)}11.22%{transform:translate(240px,0px)}11.55%{transform:translate(240px,16px)}12.21%{transform:translate(272px,16px)}12.54%,19.14%{transform:translate(272px,0px)}13.2%{transform:translate(304px,0px)}14.52%{transform:translate(304px,64px)}15.18%{transform:translate(336px,64px)}15.51%{transform:translate(336px,48px)}15.84%{transform:translate(352px,48px)}16.5%{transform:translate(352px,16px)}16.83%{transform:translate(368px,16px)}17.16%{transform:translate(368px,0px)}20.13%{transform:translate(272px,48px)}21.45%{transform:translate(208px,48px)}21.78%{transform:translate(208px,64px)}22.11%{transform:translate(192px,64px)}22.77%{transform:translate(192px,96px)}23.43%{transform:translate(160px,96px)}25.08%{transform:translate(144px,32px)}25.74%{transform:translate(144px,0px)}26.07%{transform:translate(160px,0px)}26.4%{transform:translate(160px,-16px)}27.06%{transform:translate(128px,-16px)}27.39%{transform:translate(128px,0px)}30.03%{transform:translate(256px,0px)}31.35%{transform:translate(256px,64px)}31.68%{transform:translate(272px,64px)}32.01%{transform:translate(272px,80px)}32.34%{transform:translate(256px,80px)}32.67%{transform:translate(256px,96px)}35.97%{transform:translate(416px,96px)}36.3%{transform:translate(416px,80px)}36.96%{transform:translate(384px,80px)}37.29%{transform:translate(384px,64px)}39.27%{transform:translate(480px,64px)}39.6%{transform:translate(480px,48px)}39.93%{transform:translate(464px,48px)}40.92%{transform:translate(464px,0px)}41.25%{transform:translate(448px,0px)}41.58%{transform:translate(448px,16px)}41.91%{transform:translate(432px,16px)}42.24%{transform:translate(432px,32px)}43.89%{transform:translate(512px,32px)}44.22%{transform:translate(512px,16px)}44.55%{transform:translate(528px,16px)}44.88%{transform:translate(528px,0px)}45.21%{transform:translate(512px,0px)}46.86%{transform:translate(512px,80px)}47.85%{transform:translate(560px,80px)}48.18%{transform:translate(560px,64px)}49.83%{transform:translate(640px,64px)}50.17%{transform:translate(640px,80px)}50.5%{transform:translate(624px,80px)}50.83%{transform:translate(624px,96px)}51.16%{transform:translate(608px,96px)}51.49%{transform:translate(608px,80px)}51.82%{transform:translate(592px,80px)}52.15%{transform:translate(592px,64px)}52.81%{transform:translate(624px,64px)}53.8%{transform:translate(624px,16px)}55.45%{transform:translate(704px,16px)}55.78%{transform:translate(704px,0px)}57.76%{transform:translate(800px,0px)}59.08%{transform:translate(800px,64px)}59.41%{transform:translate(784px,64px)}59.74%{transform:translate(784px,48px)}60.4%{transform:translate(816px,48px)}61.06%{transform:translate(816px,16px)}61.39%{transform:translate(832px,16px)}61.72%{transform:translate(832px,0px)}64.69%{transform:translate(688px,0px)}66.67%{transform:translate(688px,96px)}67%{transform:translate(672px,96px)}67.66%{transform:translate(672px,64px)}71.95%{transform:translate(464px,64px)}72.28%{transform:translate(464px,80px)}72.94%{transform:translate(496px,80px)}73.27%{transform:translate(496px,96px)}73.93%{transform:translate(528px,96px)}75.25%{transform:translate(528px,32px)}77.56%{transform:translate(640px,32px)}77.89%{transform:translate(640px,48px)}81.85%{transform:translate(832px,48px)}82.18%{transform:translate(832px,32px)}98.35%{transform:translate(48px,32px)}99.34%{transform:translate(48px,-16px)}}.s.s2{transform:translate(32px,-16px);animation-name:s2}@keyframes s3{0%,99.67%{transform:translate(48px,-16px)}0.99%{transform:translate(0px,-16px)}1.32%{transform:translate(0px,0px)}1.65%{transform:translate(16px,0px)}1.98%{transform:translate(16px,16px)}3.3%{transform:translate(80px,16px)}3.63%{transform:translate(80px,32px)}3.96%{transform:translate(64px,32px)}5.28%{transform:translate(64px,96px)}5.61%{transform:translate(48px,96px)}5.94%{transform:translate(48px,80px)}7.59%{transform:translate(128px,80px)}7.92%{transform:translate(128px,64px)}8.58%{transform:translate(160px,64px)}9.24%,25.08%{transform:translate(160px,32px)}10.23%{transform:translate(208px,32px)}10.89%{transform:translate(208px,0px)}11.55%{transform:translate(240px,0px)}11.88%{transform:translate(240px,16px)}12.54%{transform:translate(272px,16px)}12.87%,19.47%{transform:translate(272px,0px)}13.53%{transform:translate(304px,0px)}14.85%{transform:translate(304px,64px)}15.51%{transform:translate(336px,64px)}15.84%{transform:translate(336px,48px)}16.17%{transform:translate(352px,48px)}16.83%{transform:translate(352px,16px)}17.16%{transform:translate(368px,16px)}17.49%{transform:translate(368px,0px)}20.46%{transform:translate(272px,48px)}21.78%{transform:translate(208px,48px)}22.11%{transform:translate(208px,64px)}22.44%{transform:translate(192px,64px)}23.1%{transform:translate(192px,96px)}23.76%{transform:translate(160px,96px)}25.41%{transform:translate(144px,32px)}26.07%{transform:translate(144px,0px)}26.4%{transform:translate(160px,0px)}26.73%{transform:translate(160px,-16px)}27.39%{transform:translate(128px,-16px)}27.72%{transform:translate(128px,0px)}30.36%{transform:translate(256px,0px)}31.68%{transform:translate(256px,64px)}32.01%{transform:translate(272px,64px)}32.34%{transform:translate(272px,80px)}32.67%{transform:translate(256px,80px)}33%{transform:translate(256px,96px)}36.3%{transform:translate(416px,96px)}36.63%{transform:translate(416px,80px)}37.29%{transform:translate(384px,80px)}37.62%{transform:translate(384px,64px)}39.6%{transform:translate(480px,64px)}39.93%{transform:translate(480px,48px)}40.26%{transform:translate(464px,48px)}41.25%{transform:translate(464px,0px)}41.58%{transform:translate(448px,0px)}41.91%{transform:translate(448px,16px)}42.24%{transform:translate(432px,16px)}42.57%{transform:translate(432px,32px)}44.22%{transform:translate(512px,32px)}44.55%{transform:translate(512px,16px)}44.88%{transform:translate(528px,16px)}45.21%{transform:translate(528px,0px)}45.54%{transform:translate(512px,0px)}47.19%{transform:translate(512px,80px)}48.18%{transform:translate(560px,80px)}48.51%{transform:translate(560px,64px)}50.17%{transform:translate(640px,64px)}50.5%{transform:translate(640px,80px)}50.83%{transform:translate(624px,80px)}51.16%{transform:translate(624px,96px)}51.49%{transform:translate(608px,96px)}51.82%{transform:translate(608px,80px)}52.15%{transform:translate(592px,80px)}52.48%{transform:translate(592px,64px)}53.14%{transform:translate(624px,64px)}54.13%{transform:translate(624px,16px)}55.78%{transform:translate(704px,16px)}56.11%{transform:translate(704px,0px)}58.09%{transform:translate(800px,0px)}59.41%{transform:translate(800px,64px)}59.74%{transform:translate(784px,64px)}60.07%{transform:translate(784px,48px)}60.73%{transform:translate(816px,48px)}61.39%{transform:translate(816px,16px)}61.72%{transform:translate(832px,16px)}62.05%{transform:translate(832px,0px)}65.02%{transform:translate(688px,0px)}67%{transform:translate(688px,96px)}67.33%{transform:translate(672px,96px)}67.99%{transform:translate(672px,64px)}72.28%{transform:translate(464px,64px)}72.61%{transform:translate(464px,80px)}73.27%{transform:translate(496px,80px)}73.6%{transform:translate(496px,96px)}74.26%{transform:translate(528px,96px)}75.58%{transform:translate(528px,32px)}77.89%{transform:translate(640px,32px)}78.22%{transform:translate(640px,48px)}82.18%{transform:translate(832px,48px)}82.51%{transform:translate(832px,32px)}98.68%{transform:translate(48px,32px)}}.s.s3{transform:translate(48px,-16px);animation-name:s3}</style><rect class="c" x="2" y="2" rx="2" ry="2"/><rect class="c" x="2" y="18" rx="2" ry="2"/><rect class="c" x="2" y="34" rx="2" ry="2"/><rect class="c" x="2" y="50" rx="2" ry="2"/><rect class="c" x="2" y="66" rx="2" ry="2"/><rect class="c" x="2" y="82" rx="2" ry="2"/><rect class="c" x="2" y="98" rx="2" ry="2"/><rect class="c" x="18" y="2" rx="2" ry="2"/><rect class="c c0" x="18" y="18" rx="2" ry="2"/><rect class="c" x="18" y="34" rx="2" ry="2"/><rect class="c" x="18" y="50" rx="2" ry="2"/><rect class="c" x="18" y="66" rx="2" ry="2"/><rect class="c" x="18" y="82" rx="2" ry="2"/><rect class="c" x="18" y="98" rx="2" ry="2"/><rect class="c" x="34" y="2" rx="2" ry="2"/><rect class="c" x="34" y="18" rx="2" ry="2"/><rect class="c" x="34" y="34" rx="2" ry="2"/><rect class="c" x="34" y="50" rx="2" ry="2"/><rect class="c" x="34" y="66" rx="2" ry="2"/><rect class="c" x="34" y="82" rx="2" ry="2"/><rect class="c" x="34" y="98" rx="2" ry="2"/><rect class="c" x="50" y="2" rx="2" ry="2"/><rect class="c" x="50" y="18" rx="2" ry="2"/><rect class="c" x="50" y="34" rx="2" ry="2"/><rect class="c" x="50" y="50" rx="2" ry="2"/><rect class="c" x="50" y="66" rx="2" ry="2"/><rect class="c" x="50" y="82" rx="2" ry="2"/><rect class="c c1" x="50" y="98" rx="2" ry="2"/><rect class="c" x="66" y="2" rx="2" ry="2"/><rect class="c" x="66" y="18" rx="2" ry="2"/><rect class="c" x="66" y="34" rx="2" ry="2"/><rect class="c c2" x="66" y="50" rx="2" ry="2"/><rect class="c" x="66" y="66" rx="2" ry="2"/><rect class="c" x="66" y="82" rx="2" ry="2"/><rect class="c c3" x="66" y="98" rx="2" ry="2"/><rect class="c" x="82" y="2" rx="2" ry="2"/><rect class="c" x="82" y="18" rx="2" ry="2"/><rect class="c c4" x="82" y="34" rx="2" ry="2"/><rect class="c" x="82" y="50" rx="2" ry="2"/><rect class="c" x="82" y="66" rx="2" ry="2"/><rect class="c" x="82" y="82" rx="2" ry="2"/><rect class="c" x="82" y="98" rx="2" ry="2"/><rect class="c" x="98" y="2" rx="2" ry="2"/><rect class="c" x="98" y="18" rx="2" ry="2"/><rect class="c" x="98" y="34" rx="2" ry="2"/><rect class="c" x="98" y="50" rx="2" ry="2"/><rect class="c" x="98" y="66" rx="2" ry="2"/><rect class="c" x="98" y="82" rx="2" ry="2"/><rect class="c" x="98" y="98" rx="2" ry="2"/><rect class="c" x="114" y="2" rx="2" ry="2"/><rect class="c" x="114" y="18" rx="2" ry="2"/><rect class="c" x="114" y="34" rx="2" ry="2"/><rect class="c" x="114" y="50" rx="2" ry="2"/><rect class="c" x="114" y="66" rx="2" ry="2"/><rect class="c" x="114" y="82" rx="2" ry="2"/><rect class="c" x="114" y="98" rx="2" ry="2"/><rect class="c c5" x="130" y="2" rx="2" ry="2"/><rect class="c" x="130" y="18" rx="2" ry="2"/><rect class="c" x="130" y="34" rx="2" ry="2"/><rect class="c" x="130" y="50" rx="2" ry="2"/><rect class="c c6" x="130" y="66" rx="2" ry="2"/><rect class="c c7" x="130" y="82" rx="2" ry="2"/><rect class="c" x="130" y="98" rx="2" ry="2"/><rect class="c c8" x="146" y="2" rx="2" ry="2"/><rect class="c c9" x="146" y="18" rx="2" ry="2"/><rect class="c ca" x="146" y="34" rx="2" ry="2"/><rect class="c" x="146" y="50" rx="2" ry="2"/><rect class="c" x="146" y="66" rx="2" ry="2"/><rect class="c" x="146" y="82" rx="2" ry="2"/><rect class="c" x="146" y="98" rx="2" ry="2"/><rect class="c cb" x="162" y="2" rx="2" ry="2"/><rect class="c" x="162" y="18" rx="2" ry="2"/><rect class="c cc" x="162" y="34" rx="2" ry="2"/><rect class="c cd" x="162" y="50" rx="2" ry="2"/><rect class="c ce" x="162" y="66" rx="2" ry="2"/><rect class="c cf" x="162" y="82" rx="2" ry="2"/><rect class="c cg" x="162" y="98" rx="2" ry="2"/><rect class="c" x="178" y="2" rx="2" ry="2"/><rect class="c" x="178" y="18" rx="2" ry="2"/><rect class="c ch" x="178" y="34" rx="2" ry="2"/><rect class="c" x="178" y="50" rx="2" ry="2"/><rect class="c" x="178" y="66" rx="2" ry="2"/><rect class="c" x="178" y="82" rx="2" ry="2"/><rect class="c" x="178" y="98" rx="2" ry="2"/><rect class="c" x="194" y="2" rx="2" ry="2"/><rect class="c" x="194" y="18" rx="2" ry="2"/><rect class="c" x="194" y="34" rx="2" ry="2"/><rect class="c" x="194" y="50" rx="2" ry="2"/><rect class="c" x="194" y="66" rx="2" ry="2"/><rect class="c ci" x="194" y="82" rx="2" ry="2"/><rect class="c cj" x="194" y="98" rx="2" ry="2"/><rect class="c ck" x="210" y="2" rx="2" ry="2"/><rect class="c cl" x="210" y="18" rx="2" ry="2"/><rect class="c cm" x="210" y="34" rx="2" ry="2"/><rect class="c cn" x="210" y="50" rx="2" ry="2"/><rect class="c co" x="210" y="66" rx="2" ry="2"/><rect class="c" x="210" y="82" rx="2" ry="2"/><rect class="c" x="210" y="98" rx="2" ry="2"/><rect class="c" x="226" y="2" rx="2" ry="2"/><rect class="c" x="226" y="18" rx="2" ry="2"/><rect class="c" x="226" y="34" rx="2" ry="2"/><rect class="c" x="226" y="50" rx="2" ry="2"/><rect class="c" x="226" y="66" rx="2" ry="2"/><rect class="c" x="226" y="82" rx="2" ry="2"/><rect class="c" x="226" y="98" rx="2" ry="2"/><rect class="c" x="242" y="2" rx="2" ry="2"/><rect class="c cp" x="242" y="18" rx="2" ry="2"/><rect class="c" x="242" y="34" rx="2" ry="2"/><rect class="c cq" x="242" y="50" rx="2" ry="2"/><rect class="c" x="242" y="66" rx="2" ry="2"/><rect class="c" x="242" y="82" rx="2" ry="2"/><rect class="c" x="242" y="98" rx="2" ry="2"/><rect class="c" x="258" y="2" rx="2" ry="2"/><rect class="c" x="258" y="18" rx="2" ry="2"/><rect class="c" x="258" y="34" rx="2" ry="2"/><rect class="c cr" x="258" y="50" rx="2" ry="2"/><rect class="c cs" x="258" y="66" rx="2" ry="2"/><rect class="c ct" x="258" y="82" rx="2" ry="2"/><rect class="c cu" x="258" y="98" rx="2" ry="2"/><rect class="c cv" x="274" y="2" rx="2" ry="2"/><rect class="c cw" x="274" y="18" rx="2" ry="2"/><rect class="c cx" x="274" y="34" rx="2" ry="2"/><rect class="c cy" x="274" y="50" rx="2" ry="2"/><rect class="c cz" x="274" y="66" rx="2" ry="2"/><rect class="c c10" x="274" y="82" rx="2" ry="2"/><rect class="c c11" x="274" y="98" rx="2" ry="2"/><rect class="c" x="290" y="2" rx="2" ry="2"/><rect class="c" x="290" y="18" rx="2" ry="2"/><rect class="c" x="290" y="34" rx="2" ry="2"/><rect class="c" x="290" y="50" rx="2" ry="2"/><rect class="c" x="290" y="66" rx="2" ry="2"/><rect class="c" x="290" y="82" rx="2" ry="2"/><rect class="c" x="290" y="98" rx="2" ry="2"/><rect class="c c12" x="306" y="2" rx="2" ry="2"/><rect class="c" x="306" y="18" rx="2" ry="2"/><rect class="c c13" x="306" y="34" rx="2" ry="2"/><rect class="c c14" x="306" y="50" rx="2" ry="2"/><rect class="c c15" x="306" y="66" rx="2" ry="2"/><rect class="c" x="306" y="82" rx="2" ry="2"/><rect class="c c16" x="306" y="98" rx="2" ry="2"/><rect class="c" x="322" y="2" rx="2" ry="2"/><rect class="c" x="322" y="18" rx="2" ry="2"/><rect class="c" x="322" y="34" rx="2" ry="2"/><rect class="c" x="322" y="50" rx="2" ry="2"/><rect class="c c17" x="322" y="66" rx="2" ry="2"/><rect class="c" x="322" y="82" rx="2" ry="2"/><rect class="c" x="322" y="98" rx="2" ry="2"/><rect class="c" x="338" y="2" rx="2" ry="2"/><rect class="c" x="338" y="18" rx="2" ry="2"/><rect class="c" x="338" y="34" rx="2" ry="2"/><rect class="c c18" x="338" y="50" rx="2" ry="2"/><rect class="c c19" x="338" y="66" rx="2" ry="2"/><rect class="c" x="338" y="82" rx="2" ry="2"/><rect class="c" x="338" y="98" rx="2" ry="2"/><rect class="c c1a" x="354" y="2" rx="2" ry="2"/><rect class="c c1b" x="354" y="18" rx="2" ry="2"/><rect class="c c1c" x="354" y="34" rx="2" ry="2"/><rect class="c" x="354" y="50" rx="2" ry="2"/><rect class="c" x="354" y="66" rx="2" ry="2"/><rect class="c" x="354" y="82" rx="2" ry="2"/><rect class="c" x="354" y="98" rx="2" ry="2"/><rect class="c" x="370" y="2" rx="2" ry="2"/><rect class="c c1d" x="370" y="18" rx="2" ry="2"/><rect class="c" x="370" y="34" rx="2" ry="2"/><rect class="c" x="370" y="50" rx="2" ry="2"/><rect class="c" x="370" y="66" rx="2" ry="2"/><rect class="c" x="370" y="82" rx="2" ry="2"/><rect class="c" x="370" y="98" rx="2" ry="2"/><rect class="c" x="386" y="2" rx="2" ry="2"/><rect class="c" x="386" y="18" rx="2" ry="2"/><rect class="c" x="386" y="34" rx="2" ry="2"/><rect class="c" x="386" y="50" rx="2" ry="2"/><rect class="c" x="386" y="66" rx="2" ry="2"/><rect class="c c1e" x="386" y="82" rx="2" ry="2"/><rect class="c c1f" x="386" y="98" rx="2" ry="2"/><rect class="c" x="402" y="2" rx="2" ry="2"/><rect class="c" x="402" y="18" rx="2" ry="2"/><rect class="c" x="402" y="34" rx="2" ry="2"/><rect class="c" x="402" y="50" rx="2" ry="2"/><rect class="c" x="402" y="66" rx="2" ry="2"/><rect class="c c1g" x="402" y="82" rx="2" ry="2"/><rect class="c c1h" x="402" y="98" rx="2" ry="2"/><rect class="c" x="418" y="2" rx="2" ry="2"/><rect class="c" x="418" y="18" rx="2" ry="2"/><rect class="c" x="418" y="34" rx="2" ry="2"/><rect class="c" x="418" y="50" rx="2" ry="2"/><rect class="c" x="418" y="66" rx="2" ry="2"/><rect class="c c1i" x="418" y="82" rx="2" ry="2"/><rect class="c c1j" x="418" y="98" rx="2" ry="2"/><rect class="c" x="434" y="2" rx="2" ry="2"/><rect class="c" x="434" y="18" rx="2" ry="2"/><rect class="c c1k" x="434" y="34" rx="2" ry="2"/><rect class="c" x="434" y="50" rx="2" ry="2"/><rect class="c" x="434" y="66" rx="2" ry="2"/><rect class="c" x="434" y="82" rx="2" ry="2"/><rect class="c" x="434" y="98" rx="2" ry="2"/><rect class="c c1l" x="450" y="2" rx="2" ry="2"/><rect class="c c1m" x="450" y="18" rx="2" ry="2"/><rect class="c" x="450" y="34" rx="2" ry="2"/><rect class="c" x="450" y="50" rx="2" ry="2"/><rect class="c" x="450" y="66" rx="2" ry="2"/><rect class="c" x="450" y="82" rx="2" ry="2"/><rect class="c" x="450" y="98" rx="2" ry="2"/><rect class="c c1n" x="466" y="2" rx="2" ry="2"/><rect class="c c1o" x="466" y="18" rx="2" ry="2"/><rect class="c c1p" x="466" y="34" rx="2" ry="2"/><rect class="c c1q" x="466" y="50" rx="2" ry="2"/><rect class="c c1r" x="466" y="66" rx="2" ry="2"/><rect class="c c1s" x="466" y="82" rx="2" ry="2"/><rect class="c" x="466" y="98" rx="2" ry="2"/><rect class="c" x="482" y="2" rx="2" ry="2"/><rect class="c" x="482" y="18" rx="2" ry="2"/><rect class="c" x="482" y="34" rx="2" ry="2"/><rect class="c c1t" x="482" y="50" rx="2" ry="2"/><rect class="c c1u" x="482" y="66" rx="2" ry="2"/><rect class="c c1v" x="482" y="82" rx="2" ry="2"/><rect class="c" x="482" y="98" rx="2" ry="2"/><rect class="c" x="498" y="2" rx="2" ry="2"/><rect class="c" x="498" y="18" rx="2" ry="2"/><rect class="c" x="498" y="34" rx="2" ry="2"/><rect class="c" x="498" y="50" rx="2" ry="2"/><rect class="c" x="498" y="66" rx="2" ry="2"/><rect class="c" x="498" y="82" rx="2" ry="2"/><rect class="c c1w" x="498" y="98" rx="2" ry="2"/><rect class="c c1x" x="514" y="2" rx="2" ry="2"/><rect class="c c1y" x="514" y="18" rx="2" ry="2"/><rect class="c c1z" x="514" y="34" rx="2" ry="2"/><rect class="c" x="514" y="50" rx="2" ry="2"/><rect class="c" x="514" y="66" rx="2" ry="2"/><rect class="c c20" x="514" y="82" rx="2" ry="2"/><rect class="c" x="514" y="98" rx="2" ry="2"/><rect class="c" x="530" y="2" rx="2" ry="2"/><rect class="c c21" x="530" y="18" rx="2" ry="2"/><rect class="c c22" x="530" y="34" rx="2" ry="2"/><rect class="c" x="530" y="50" rx="2" ry="2"/><rect class="c" x="530" y="66" rx="2" ry="2"/><rect class="c" x="530" y="82" rx="2" ry="2"/><rect class="c" x="530" y="98" rx="2" ry="2"/><rect class="c" x="546" y="2" rx="2" ry="2"/><rect class="c" x="546" y="18" rx="2" ry="2"/><rect class="c" x="546" y="34" rx="2" ry="2"/><rect class="c" x="546" y="50" rx="2" ry="2"/><rect class="c" x="546" y="66" rx="2" ry="2"/><rect class="c c23" x="546" y="82" rx="2" ry="2"/><rect class="c" x="546" y="98" rx="2" ry="2"/><rect class="c" x="562" y="2" rx="2" ry="2"/><rect class="c" x="562" y="18" rx="2" ry="2"/><rect class="c" x="562" y="34" rx="2" ry="2"/><rect class="c" x="562" y="50" rx="2" ry="2"/><rect class="c c24" x="562" y="66" rx="2" ry="2"/><rect class="c" x="562" y="82" rx="2" ry="2"/><rect class="c" x="562" y="98" rx="2" ry="2"/><rect class="c" x="578" y="2" rx="2" ry="2"/><rect class="c" x="578" y="18" rx="2" ry="2"/><rect class="c" x="578" y="34" rx="2" ry="2"/><rect class="c" x="578" y="50" rx="2" ry="2"/><rect class="c" x="578" y="66" rx="2" ry="2"/><rect class="c" x="578" y="82" rx="2" ry="2"/><rect class="c" x="578" y="98" rx="2" ry="2"/><rect class="c" x="594" y="2" rx="2" ry="2"/><rect class="c" x="594" y="18" rx="2" ry="2"/><rect class="c" x="594" y="34" rx="2" ry="2"/><rect class="c" x="594" y="50" rx="2" ry="2"/><rect class="c" x="594" y="66" rx="2" ry="2"/><rect class="c c25" x="594" y="82" rx="2" ry="2"/><rect class="c" x="594" y="98" rx="2" ry="2"/><rect class="c" x="610" y="2" rx="2" ry="2"/><rect class="c" x="610" y="18" rx="2" ry="2"/><rect class="c" x="610" y="34" rx="2" ry="2"/><rect class="c" x="610" y="50" rx="2" ry="2"/><rect class="c c26" x="610" y="66" rx="2" ry="2"/><rect class="c" x="610" y="82" rx="2" ry="2"/><rect class="c" x="610" y="98" rx="2" ry="2"/><rect class="c" x="626" y="2" rx="2" ry="2"/><rect class="c" x="626" y="18" rx="2" ry="2"/><rect class="c" x="626" y="34" rx="2" ry="2"/><rect class="c" x="626" y="50" rx="2" ry="2"/><rect class="c" x="626" y="66" rx="2" ry="2"/><rect class="c c27" x="626" y="82" rx="2" ry="2"/><rect class="c c28" x="626" y="98" rx="2" ry="2"/><rect class="c" x="642" y="2" rx="2" ry="2"/><rect class="c c29" x="642" y="18" rx="2" ry="2"/><rect class="c c2a" x="642" y="34" rx="2" ry="2"/><rect class="c c2b" x="642" y="50" rx="2" ry="2"/><rect class="c c2c" x="642" y="66" rx="2" ry="2"/><rect class="c" x="642" y="82" rx="2" ry="2"/><rect class="c" x="642" y="98" rx="2" ry="2"/><rect class="c" x="658" y="2" rx="2" ry="2"/><rect class="c" x="658" y="18" rx="2" ry="2"/><rect class="c" x="658" y="34" rx="2" ry="2"/><rect class="c" x="658" y="50" rx="2" ry="2"/><rect class="c" x="658" y="66" rx="2" ry="2"/><rect class="c" x="658" y="82" rx="2" ry="2"/><rect class="c" x="658" y="98" rx="2" ry="2"/><rect class="c" x="674" y="2" rx="2" ry="2"/><rect class="c c2d" x="674" y="18" rx="2" ry="2"/><rect class="c" x="674" y="34" rx="2" ry="2"/><rect class="c" x="674" y="50" rx="2" ry="2"/><rect class="c" x="674" y="66" rx="2" ry="2"/><rect class="c" x="674" y="82" rx="2" ry="2"/><rect class="c" x="674" y="98" rx="2" ry="2"/><rect class="c" x="690" y="2" rx="2" ry="2"/><rect class="c c2e" x="690" y="18" rx="2" ry="2"/><rect class="c" x="690" y="34" rx="2" ry="2"/><rect class="c" x="690" y="50" rx="2" ry="2"/><rect class="c" x="690" y="66" rx="2" ry="2"/><rect class="c" x="690" y="82" rx="2" ry="2"/><rect class="c c2f" x="690" y="98" rx="2" ry="2"/><rect class="c c2g" x="706" y="2" rx="2" ry="2"/><rect class="c" x="706" y="18" rx="2" ry="2"/><rect class="c" x="706" y="34" rx="2" ry="2"/><rect class="c" x="706" y="50" rx="2" ry="2"/><rect class="c" x="706" y="66" rx="2" ry="2"/><rect class="c" x="706" y="82" rx="2" ry="2"/><rect class="c" x="706" y="98" rx="2" ry="2"/><rect class="c" x="722" y="2" rx="2" ry="2"/><rect class="c" x="722" y="18" rx="2" ry="2"/><rect class="c" x="722" y="34" rx="2" ry="2"/><rect class="c" x="722" y="50" rx="2" ry="2"/><rect class="c" x="722" y="66" rx="2" ry="2"/><rect class="c" x="722" y="82" rx="2" ry="2"/><rect class="c" x="722" y="98" rx="2" ry="2"/><rect class="c" x="738" y="2" rx="2" ry="2"/><rect class="c" x="738" y="18" rx="2" ry="2"/><rect class="c" x="738" y="34" rx="2" ry="2"/><rect class="c" x="738" y="50" rx="2" ry="2"/><rect class="c" x="738" y="66" rx="2" ry="2"/><rect class="c" x="738" y="82" rx="2" ry="2"/><rect class="c" x="738" y="98" rx="2" ry="2"/><rect class="c" x="754" y="2" rx="2" ry="2"/><rect class="c" x="754" y="18" rx="2" ry="2"/><rect class="c" x="754" y="34" rx="2" ry="2"/><rect class="c" x="754" y="50" rx="2" ry="2"/><rect class="c" x="754" y="66" rx="2" ry="2"/><rect class="c" x="754" y="82" rx="2" ry="2"/><rect class="c" x="754" y="98" rx="2" ry="2"/><rect class="c" x="770" y="2" rx="2" ry="2"/><rect class="c" x="770" y="18" rx="2" ry="2"/><rect class="c" x="770" y="34" rx="2" ry="2"/><rect class="c" x="770" y="50" rx="2" ry="2"/><rect class="c" x="770" y="66" rx="2" ry="2"/><rect class="c" x="770" y="82" rx="2" ry="2"/><rect class="c" x="770" y="98" rx="2" ry="2"/><rect class="c" x="786" y="2" rx="2" ry="2"/><rect class="c" x="786" y="18" rx="2" ry="2"/><rect class="c" x="786" y="34" rx="2" ry="2"/><rect class="c" x="786" y="50" rx="2" ry="2"/><rect class="c c2h" x="786" y="66" rx="2" ry="2"/><rect class="c" x="786" y="82" rx="2" ry="2"/><rect class="c" x="786" y="98" rx="2" ry="2"/><rect class="c" x="802" y="2" rx="2" ry="2"/><rect class="c c2i" x="802" y="18" rx="2" ry="2"/><rect class="c c2j" x="802" y="34" rx="2" ry="2"/><rect class="c" x="802" y="50" rx="2" ry="2"/><rect class="c c2k" x="802" y="66" rx="2" ry="2"/><rect class="c" x="802" y="82" rx="2" ry="2"/><rect class="c" x="802" y="98" rx="2" ry="2"/><rect class="c" x="818" y="2" rx="2" ry="2"/><rect class="c" x="818" y="18" rx="2" ry="2"/><rect class="c" x="818" y="34" rx="2" ry="2"/><rect class="c" x="818" y="50" rx="2" ry="2"/><rect class="c" x="818" y="66" rx="2" ry="2"/><rect class="c" x="818" y="82" rx="2" ry="2"/><rect class="c" x="818" y="98" rx="2" ry="2"/><rect class="c c2l" x="834" y="2" rx="2" ry="2"/><rect class="c" x="834" y="18" rx="2" ry="2"/><rect class="c c2m" x="834" y="34" rx="2" ry="2"/><rect class="u u0" height="12" width="795.0" x="0.0" y="144"/><rect class="u u1" height="12" width="45.2" x="794.4" y="144"/><rect class="u u2" height="12" width="9.5" x="839.1" y="144"/><rect class="s s0" x="0.8" y="0.8" width="14.4" height="14.4" rx="4.5" ry="4.5"/><rect class="s s1" x="1.8" y="1.8" width="12.3" height="12.3" rx="4.1" ry="4.1"/><rect class="s s2" x="2.6" y="2.6" width="10.8" height="10.8" rx="3.6" ry="3.6"/><rect class="s s3" x="3.0" y="3.0" width="9.9" height="9.9" rx="3.3" ry="3.3"/></svg>