<svg viewBox="-16 -32 880 192" width="880" height="192" xmlns="http://www.w3.org/2000/svg"><desc>Generated with https://github.com/Platane/snk</desc><style>:root{--cb:#1b1f230a;--cs:purple;--ce:#ebedf0;--c0:#ebedf0;--c1:#9be9a8;--c2:#40c463;--c3:#30a14e;--c4:#216e39}.c{shape-rendering:geometricPrecision;fill:var(--ce);stroke-width:1px;stroke:var(--cb);animation:none 29900ms linear infinite;width:12px;height:12px}@keyframes c0{0.99%{fill:var(--c1)}1.01%,100%{fill:var(--ce)}}.c.c0{fill:var(--c1);animation-name:c0}@keyframes c1{4.67%{fill:var(--c1)}4.69%,100%{fill:var(--ce)}}.c.c1{fill:var(--c1);animation-name:c1}@keyframes c2{3.33%{fill:var(--c1)}3.35%,100%{fill:var(--ce)}}.c.c2{fill:var(--c1);animation-name:c2}@keyframes c3{4.34%{fill:var(--c1)}4.36%,100%{fill:var(--ce)}}.c.c3{fill:var(--c1);animation-name:c3}@keyframes c4{2.67%{fill:var(--c1)}2.69%,100%{fill:var(--ce)}}.c.c4{fill:var(--c1);animation-name:c4}@keyframes c5{27.08%{fill:var(--c1)}27.1%,100%{fill:var(--ce)}}.c.c5{fill:var(--c1);animation-name:c5}@keyframes c6{7.01%{fill:var(--c1)}7.03%,100%{fill:var(--ce)}}.c.c6{fill:var(--c1);animation-name:c6}@keyframes c7{6.68%{fill:var(--c1)}6.7%,100%{fill:var(--ce)}}.c.c7{fill:var(--c1);animation-name:c7}@keyframes c8{25.41%{fill:var(--c1)}25.43%,100%{fill:var(--ce)}}.c.c8{fill:var(--c1);animation-name:c8}@keyframes c9{25.07%{fill:var(--c1)}25.09%,100%{fill:var(--ce)}}.c.c9{fill:var(--c1);animation-name:c9}@keyframes ca{24.74%{fill:var(--c1)}24.76%,100%{fill:var(--ce)}}.c.ca{fill:var(--c1);animation-name:ca}@keyframes cb{25.74%{fill:var(--c1)}25.76%,100%{fill:var(--ce)}}.c.cb{fill:var(--c1);animation-name:cb}@keyframes cc{8.35%{fill:var(--c1)}8.37%,100%{fill:var(--ce)}}.c.cc{fill:var(--c1);animation-name:cc}@keyframes cd{8.02%{fill:var(--c1)}8.04%,100%{fill:var(--ce)}}.c.cd{fill:var(--c1);animation-name:cd}@keyframes ce{7.68%{fill:var(--c1)}7.7%,100%{fill:var(--ce)}}.c.ce{fill:var(--c1);animation-name:ce}@keyframes cf{23.4%{fill:var(--c1)}23.42%,100%{fill:var(--ce)}}.c.cf{fill:var(--c1);animation-name:cf}@keyframes cg{23.07%{fill:var(--c1)}23.09%,100%{fill:var(--ce)}}.c.cg{fill:var(--c1);animation-name:cg}@keyframes ch{8.69%{fill:var(--c1)}8.71%,100%{fill:var(--ce)}}.c.ch{fill:var(--c1);animation-name:ch}@keyframes ci{22.06%{fill:var(--c1)}22.08%,100%{fill:var(--ce)}}.c.ci{fill:var(--c1);animation-name:ci}@keyframes cj{22.4%{fill:var(--c1)}22.42%,100%{fill:var(--ce)}}.c.cj{fill:var(--c1);animation-name:cj}@keyframes ck{10.02%{fill:var(--c1)}10.04%,100%{fill:var(--ce)}}.c.ck{fill:var(--c1);animation-name:ck}@keyframes cl{9.69%{fill:var(--c1)}9.71%,100%{fill:var(--ce)}}.c.cl{fill:var(--c1);animation-name:cl}@keyframes cm{9.35%{fill:var(--c1)}9.37%,100%{fill:var(--ce)}}.c.cm{fill:var(--c1);animation-name:cm}@keyframes cn{21.06%{fill:var(--c1)}21.08%,100%{fill:var(--ce)}}.c.cn{fill:var(--c1);animation-name:cn}@keyframes co{21.39%{fill:var(--c1)}21.41%,100%{fill:var(--ce)}}.c.co{fill:var(--c1);animation-name:co}@keyframes cp{11.03%{fill:var(--c1)}11.05%,100%{fill:var(--ce)}}.c.cp{fill:var(--c1);animation-name:cp}@keyframes cq{20.39%{fill:var(--c1)}20.41%,100%{fill:var(--ce)}}.c.cq{fill:var(--c1);animation-name:cq}@keyframes cr{20.06%{fill:var(--c1)}20.08%,100%{fill:var(--ce)}}.c.cr{fill:var(--c1);animation-name:cr}@keyframes cs{31.09%{fill:var(--c1)}31.11%,100%{fill:var(--ce)}}.c.cs{fill:var(--c1);animation-name:cs}@keyframes ct{32.1%{fill:var(--c1)}32.12%,100%{fill:var(--ce)}}.c.ct{fill:var(--c1);animation-name:ct}@keyframes cu{32.43%{fill:var(--c1)}32.45%,100%{fill:var(--ce)}}.c.cu{fill:var(--c1);animation-name:cu}@keyframes cv{12.03%{fill:var(--c1)}12.05%,100%{fill:var(--ce)}}.c.cv{fill:var(--c1);animation-name:cv}@keyframes cw{11.7%{fill:var(--c1)}11.72%,100%{fill:var(--ce)}}.c.cw{fill:var(--c1);animation-name:cw}@keyframes cx{19.39%{fill:var(--c1)}19.41%,100%{fill:var(--ce)}}.c.cx{fill:var(--c1);animation-name:cx}@keyframes cy{19.72%{fill:var(--c1)}19.74%,100%{fill:var(--ce)}}.c.cy{fill:var(--c1);animation-name:cy}@keyframes cz{31.43%{fill:var(--c1)}31.45%,100%{fill:var(--ce)}}.c.cz{fill:var(--c1);animation-name:cz}@keyframes c10{31.76%{fill:var(--c1)}31.78%,100%{fill:var(--ce)}}.c.c10{fill:var(--c1);animation-name:c10}@keyframes c11{32.77%{fill:var(--c1)}32.79%,100%{fill:var(--ce)}}.c.c11{fill:var(--c1);animation-name:c11}@keyframes c12{12.7%{fill:var(--c1)}12.72%,100%{fill:var(--ce)}}.c.c12{fill:var(--c1);animation-name:c12}@keyframes c13{13.37%{fill:var(--c1)}13.39%,100%{fill:var(--ce)}}.c.c13{fill:var(--c1);animation-name:c13}@keyframes c14{13.7%{fill:var(--c1)}13.72%,100%{fill:var(--ce)}}.c.c14{fill:var(--c1);animation-name:c14}@keyframes c15{14.04%{fill:var(--c1)}14.06%,100%{fill:var(--ce)}}.c.c15{fill:var(--c1);animation-name:c15}@keyframes c16{33.43%{fill:var(--c1)}33.45%,100%{fill:var(--ce)}}.c.c16{fill:var(--c1);animation-name:c16}@keyframes c17{14.37%{fill:var(--c1)}14.39%,100%{fill:var(--ce)}}.c.c17{fill:var(--c1);animation-name:c17}@keyframes c18{15.04%{fill:var(--c1)}15.06%,100%{fill:var(--ce)}}.c.c18{fill:var(--c1);animation-name:c18}@keyframes c19{14.71%{fill:var(--c1)}14.73%,100%{fill:var(--ce)}}.c.c19{fill:var(--c1);animation-name:c19}@keyframes c1a{17.05%{fill:var(--c1)}17.07%,100%{fill:var(--ce)}}.c.c1a{fill:var(--c1);animation-name:c1a}@keyframes c1b{16.04%{fill:var(--c1)}16.06%,100%{fill:var(--ce)}}.c.c1b{fill:var(--c1);animation-name:c1b}@keyframes c1c{15.71%{fill:var(--c1)}15.73%,100%{fill:var(--ce)}}.c.c1c{fill:var(--c1);animation-name:c1c}@keyframes c1d{16.38%{fill:var(--c1)}16.4%,100%{fill:var(--ce)}}.c.c1d{fill:var(--c1);animation-name:c1d}@keyframes c1e{36.78%{fill:var(--c1)}36.8%,100%{fill:var(--ce)}}.c.c1e{fill:var(--c1);animation-name:c1e}@keyframes c1f{35.11%{fill:var(--c1)}35.13%,100%{fill:var(--ce)}}.c.c1f{fill:var(--c1);animation-name:c1f}@keyframes c1g{36.44%{fill:var(--c1)}36.46%,100%{fill:var(--ce)}}.c.c1g{fill:var(--c1);animation-name:c1g}@keyframes c1h{35.44%{fill:var(--c1)}35.46%,100%{fill:var(--ce)}}.c.c1h{fill:var(--c1);animation-name:c1h}@keyframes c1i{36.11%{fill:var(--c1)}36.13%,100%{fill:var(--ce)}}.c.c1i{fill:var(--c1);animation-name:c1i}@keyframes c1j{35.78%{fill:var(--c1)}35.8%,100%{fill:var(--ce)}}.c.c1j{fill:var(--c1);animation-name:c1j}@keyframes c1k{42.13%{fill:var(--c1)}42.15%,100%{fill:var(--ce)}}.c.c1k{fill:var(--c1);animation-name:c1k}@keyframes c1l{41.13%{fill:var(--c1)}41.15%,100%{fill:var(--ce)}}.c.c1l{fill:var(--c1);animation-name:c1l}@keyframes c1m{41.46%{fill:var(--c1)}41.48%,100%{fill:var(--ce)}}.c.c1m{fill:var(--c1);animation-name:c1m}@keyframes c1n{40.79%{fill:var(--c1)}40.81%,100%{fill:var(--ce)}}.c.c1n{fill:var(--c1);animation-name:c1n}@keyframes c1o{40.46%{fill:var(--c1)}40.48%,100%{fill:var(--ce)}}.c.c1o{fill:var(--c1);animation-name:c1o}@keyframes c1p{40.12%{fill:var(--c1)}40.14%,100%{fill:var(--ce)}}.c.c1p{fill:var(--c1);animation-name:c1p}@keyframes c1q{39.79%{fill:var(--c1)}39.81%,100%{fill:var(--ce)}}.c.c1q{fill:var(--c1);animation-name:c1q}@keyframes c1r{38.79%{fill:var(--c1)}38.81%,100%{fill:var(--ce)}}.c.c1r{fill:var(--c1);animation-name:c1r}@keyframes c1s{72.57%{fill:var(--c1)}72.59%,100%{fill:var(--ce)}}.c.c1s{fill:var(--c1);animation-name:c1s}@keyframes c1t{39.45%{fill:var(--c1)}39.47%,100%{fill:var(--ce)}}.c.c1t{fill:var(--c1);animation-name:c1t}@keyframes c1u{39.12%{fill:var(--c1)}39.14%,100%{fill:var(--ce)}}.c.c1u{fill:var(--c1);animation-name:c1u}@keyframes c1v{72.9%{fill:var(--c2)}72.92%,100%{fill:var(--ce)}}.c.c1v{fill:var(--c2);animation-name:c1v}@keyframes c1w{71.56%{fill:var(--c1)}71.58%,100%{fill:var(--ce)}}.c.c1w{fill:var(--c1);animation-name:c1w}@keyframes c1x{45.14%{fill:var(--c1)}45.16%,100%{fill:var(--ce)}}.c.c1x{fill:var(--c1);animation-name:c1x}@keyframes c1y{44.14%{fill:var(--c1)}44.16%,100%{fill:var(--ce)}}.c.c1y{fill:var(--c1);animation-name:c1y}@keyframes c1z{43.8%{fill:var(--c1)}43.82%,100%{fill:var(--ce)}}.c.c1z{fill:var(--c1);animation-name:c1z}@keyframes c20{46.81%{fill:var(--c1)}46.83%,100%{fill:var(--ce)}}.c.c20{fill:var(--c1);animation-name:c20}@keyframes c21{44.47%{fill:var(--c1)}44.49%,100%{fill:var(--ce)}}.c.c21{fill:var(--c1);animation-name:c21}@keyframes c22{74.91%{fill:var(--c2)}74.93%,100%{fill:var(--ce)}}.c.c22{fill:var(--c2);animation-name:c22}@keyframes c23{47.48%{fill:var(--c1)}47.5%,100%{fill:var(--ce)}}.c.c23{fill:var(--c1);animation-name:c23}@keyframes c24{48.15%{fill:var(--c1)}48.17%,100%{fill:var(--ce)}}.c.c24{fill:var(--c1);animation-name:c24}@keyframes c25{52.5%{fill:var(--c1)}52.52%,100%{fill:var(--ce)}}.c.c25{fill:var(--c1);animation-name:c25}@keyframes c26{49.15%{fill:var(--c1)}49.17%,100%{fill:var(--ce)}}.c.c26{fill:var(--c1);animation-name:c26}@keyframes c27{51.16%{fill:var(--c1)}51.18%,100%{fill:var(--ce)}}.c.c27{fill:var(--c1);animation-name:c27}@keyframes c28{51.5%{fill:var(--c1)}51.52%,100%{fill:var(--ce)}}.c.c28{fill:var(--c1);animation-name:c28}@keyframes c29{54.84%{fill:var(--c1)}54.86%,100%{fill:var(--ce)}}.c.c29{fill:var(--c1);animation-name:c29}@keyframes c2a{77.25%{fill:var(--c2)}77.27%,100%{fill:var(--ce)}}.c.c2a{fill:var(--c2);animation-name:c2a}@keyframes c2b{50.16%{fill:var(--c1)}50.18%,100%{fill:var(--ce)}}.c.c2b{fill:var(--c1);animation-name:c2b}@keyframes c2c{49.82%{fill:var(--c1)}49.84%,100%{fill:var(--ce)}}.c.c2c{fill:var(--c1);animation-name:c2c}@keyframes c2d{55.51%{fill:var(--c1)}55.53%,100%{fill:var(--ce)}}.c.c2d{fill:var(--c1);animation-name:c2d}@keyframes c2e{55.84%{fill:var(--c1)}55.86%,100%{fill:var(--ce)}}.c.c2e{fill:var(--c1);animation-name:c2e}@keyframes c2f{67.55%{fill:var(--c1)}67.57%,100%{fill:var(--ce)}}.c.c2f{fill:var(--c1);animation-name:c2f}@keyframes c2g{56.51%{fill:var(--c1)}56.53%,100%{fill:var(--ce)}}.c.c2g{fill:var(--c1);animation-name:c2g}@keyframes c2h{60.19%{fill:var(--c1)}60.21%,100%{fill:var(--ce)}}.c.c2h{fill:var(--c1);animation-name:c2h}@keyframes c2i{58.85%{fill:var(--c1)}58.87%,100%{fill:var(--ce)}}.c.c2i{fill:var(--c1);animation-name:c2i}@keyframes c2j{59.19%{fill:var(--c1)}59.21%,100%{fill:var(--ce)}}.c.c2j{fill:var(--c1);animation-name:c2j}@keyframes c2k{59.86%{fill:var(--c1)}59.88%,100%{fill:var(--ce)}}.c.c2k{fill:var(--c1);animation-name:c2k}@keyframes c2l{62.53%{fill:var(--c1)}62.55%,100%{fill:var(--ce)}}.c.c2l{fill:var(--c1);animation-name:c2l}@keyframes c2m{81.26%{fill:var(--c4)}81.28%,100%{fill:var(--ce)}}.c.c2m{fill:var(--c4);animation-name:c2m}.u{transform-origin:0 0;transform:scale(0,1);animation:none linear 29900ms infinite}@keyframes u0{0.99%{transform:scale(0.000,1)}1.01%,2.67%{transform:scale(0.011,1)}2.69%,3.33%{transform:scale(0.022,1)}3.35%,4.34%{transform:scale(0.033,1)}4.36%,4.67%{transform:scale(0.044,1)}4.69%,6.68%{transform:scale(0.055,1)}6.7%,7.01%{transform:scale(0.066,1)}7.03%,7.68%{transform:scale(0.077,1)}7.7%,8.02%{transform:scale(0.088,1)}8.04%,8.35%{transform:scale(0.099,1)}8.37%,8.69%{transform:scale(0.110,1)}8.71%,9.35%{transform:scale(0.121,1)}9.37%,9.69%{transform:scale(0.132,1)}9.71%,10.02%{transform:scale(0.143,1)}10.04%,11.03%{transform:scale(0.154,1)}11.05%,11.7%{transform:scale(0.165,1)}11.72%,12.03%{transform:scale(0.176,1)}12.05%,12.7%{transform:scale(0.187,1)}12.72%,13.37%{transform:scale(0.198,1)}13.39%,13.7%{transform:scale(0.209,1)}13.72%,14.04%{transform:scale(0.220,1)}14.06%,14.37%{transform:scale(0.231,1)}14.39%,14.71%{transform:scale(0.242,1)}14.73%,15.04%{transform:scale(0.253,1)}15.06%,15.71%{transform:scale(0.264,1)}15.73%,16.04%{transform:scale(0.275,1)}16.06%,16.38%{transform:scale(0.286,1)}16.4%,17.05%{transform:scale(0.297,1)}17.07%,19.39%{transform:scale(0.308,1)}19.41%,19.72%{transform:scale(0.319,1)}19.74%,20.06%{transform:scale(0.330,1)}20.08%,20.39%{transform:scale(0.341,1)}20.41%,21.06%{transform:scale(0.352,1)}21.08%,21.39%{transform:scale(0.363,1)}21.41%,22.06%{transform:scale(0.374,1)}22.08%,22.4%{transform:scale(0.385,1)}22.42%,23.07%{transform:scale(0.396,1)}23.09%,23.4%{transform:scale(0.407,1)}23.42%,24.74%{transform:scale(0.418,1)}24.76%,25.07%{transform:scale(0.429,1)}25.09%,25.41%{transform:scale(0.440,1)}25.43%,25.74%{transform:scale(0.451,1)}25.76%,27.08%{transform:scale(0.462,1)}27.1%,31.09%{transform:scale(0.473,1)}31.11%,31.43%{transform:scale(0.484,1)}31.45%,31.76%{transform:scale(0.495,1)}31.78%,32.1%{transform:scale(0.505,1)}32.12%,32.43%{transform:scale(0.516,1)}32.45%,32.77%{transform:scale(0.527,1)}32.79%,33.43%{transform:scale(0.538,1)}33.45%,35.11%{transform:scale(0.549,1)}35.13%,35.44%{transform:scale(0.560,1)}35.46%,35.78%{transform:scale(0.571,1)}35.8%,36.11%{transform:scale(0.582,1)}36.13%,36.44%{transform:scale(0.593,1)}36.46%,36.78%{transform:scale(0.604,1)}36.8%,38.79%{transform:scale(0.615,1)}38.81%,39.12%{transform:scale(0.626,1)}39.14%,39.45%{transform:scale(0.637,1)}39.47%,39.79%{transform:scale(0.648,1)}39.81%,40.12%{transform:scale(0.659,1)}40.14%,40.46%{transform:scale(0.670,1)}40.48%,40.79%{transform:scale(0.681,1)}40.81%,41.13%{transform:scale(0.692,1)}41.15%,41.46%{transform:scale(0.703,1)}41.48%,42.13%{transform:scale(0.714,1)}42.15%,43.8%{transform:scale(0.725,1)}43.82%,44.14%{transform:scale(0.736,1)}44.16%,44.47%{transform:scale(0.747,1)}44.49%,45.14%{transform:scale(0.758,1)}45.16%,46.81%{transform:scale(0.769,1)}46.83%,47.48%{transform:scale(0.780,1)}47.5%,48.15%{transform:scale(0.791,1)}48.17%,49.15%{transform:scale(0.802,1)}49.17%,49.82%{transform:scale(0.813,1)}49.84%,50.16%{transform:scale(0.824,1)}50.18%,51.16%{transform:scale(0.835,1)}51.18%,51.5%{transform:scale(0.846,1)}51.52%,52.5%{transform:scale(0.857,1)}52.52%,54.84%{transform:scale(0.868,1)}54.86%,55.51%{transform:scale(0.879,1)}55.53%,55.84%{transform:scale(0.890,1)}55.86%,56.51%{transform:scale(0.901,1)}56.53%,58.85%{transform:scale(0.912,1)}58.87%,59.19%{transform:scale(0.923,1)}59.21%,59.86%{transform:scale(0.934,1)}59.88%,60.19%{transform:scale(0.945,1)}60.21%,62.53%{transform:scale(0.956,1)}62.55%,67.55%{transform:scale(0.967,1)}67.57%,71.56%{transform:scale(0.978,1)}71.58%,72.57%{transform:scale(0.989,1)}72.59%,100%{transform:scale(1.000,1)}}.u.u0{fill:var(--c1);animation-name:u0;transform-origin:0.0px 0}@keyframes u1{72.9%{transform:scale(0.000,1)}72.92%,74.91%{transform:scale(0.333,1)}74.93%,77.25%{transform:scale(0.667,1)}77.27%,100%{transform:scale(1.000,1)}}.u.u1{fill:var(--c2);animation-name:u1;transform-origin:812.3px 0}@keyframes u2{81.26%{transform:scale(0.000,1)}81.28%,100%{transform:scale(1.000,1)}}.u.u2{fill:var(--c4);animation-name:u2;transform-origin:839.1px 0}.s{shape-rendering:geometricPrecision;fill:var(--cs);animation:none linear 29900ms infinite}@keyframes s0{0%,99.67%{transform:translate(0px,-16px)}0.33%{transform:translate(0px,0px)}0.67%{transform:translate(16px,0px)}1%{transform:translate(16px,16px)}2.34%,97.32%{transform:translate(80px,16px)}2.68%{transform:translate(80px,32px)}3.01%{transform:translate(64px,32px)}4.35%{transform:translate(64px,96px)}4.68%{transform:translate(48px,96px)}5.02%{transform:translate(48px,80px)}6.69%{transform:translate(128px,80px)}7.02%{transform:translate(128px,64px)}7.69%{transform:translate(160px,64px)}8.36%,24.41%{transform:translate(160px,32px)}9.36%{transform:translate(208px,32px)}10.03%{transform:translate(208px,0px)}10.7%{transform:translate(240px,0px)}11.04%{transform:translate(240px,16px)}11.71%{transform:translate(272px,16px)}12.04%,18.73%{transform:translate(272px,0px)}12.71%{transform:translate(304px,0px)}14.05%{transform:translate(304px,64px)}14.72%{transform:translate(336px,64px)}15.05%{transform:translate(336px,48px)}15.38%{transform:translate(352px,48px)}16.05%{transform:translate(352px,16px)}16.39%{transform:translate(368px,16px)}16.72%{transform:translate(368px,0px)}19.73%{transform:translate(272px,48px)}21.07%{transform:translate(208px,48px)}21.4%{transform:translate(208px,64px)}21.74%{transform:translate(192px,64px)}22.41%{transform:translate(192px,96px)}23.08%{transform:translate(160px,96px)}24.75%{transform:translate(144px,32px)}25.42%{transform:translate(144px,0px)}25.75%{transform:translate(160px,0px)}26.09%{transform:translate(160px,-16px)}26.76%{transform:translate(128px,-16px)}27.09%{transform:translate(128px,0px)}29.77%{transform:translate(256px,0px)}31.1%{transform:translate(256px,64px)}31.44%{transform:translate(272px,64px)}31.77%{transform:translate(272px,80px)}32.11%{transform:translate(256px,80px)}32.44%{transform:translate(256px,96px)}35.79%{transform:translate(416px,96px)}36.12%{transform:translate(416px,80px)}36.79%{transform:translate(384px,80px)}37.12%{transform:translate(384px,64px)}39.13%{transform:translate(480px,64px)}39.46%{transform:translate(480px,48px)}39.8%{transform:translate(464px,48px)}40.8%{transform:translate(464px,0px)}41.14%{transform:translate(448px,0px)}41.47%{transform:translate(448px,16px)}41.81%{transform:translate(432px,16px)}42.14%{transform:translate(432px,32px)}43.81%{transform:translate(512px,32px)}44.15%{transform:translate(512px,16px)}44.48%{transform:translate(528px,16px)}44.82%{transform:translate(528px,0px)}45.15%{transform:translate(512px,0px)}46.82%{transform:translate(512px,80px)}47.83%{transform:translate(560px,80px)}48.16%{transform:translate(560px,64px)}49.83%{transform:translate(640px,64px)}50.17%{transform:translate(640px,48px)}50.5%{transform:translate(624px,48px)}51.51%{transform:translate(624px,96px)}51.84%{transform:translate(608px,96px)}52.17%{transform:translate(608px,80px)}52.51%{transform:translate(592px,80px)}52.84%{transform:translate(592px,64px)}53.51%{transform:translate(624px,64px)}54.52%{transform:translate(624px,16px)}56.19%{transform:translate(704px,16px)}56.52%{transform:translate(704px,0px)}58.53%{transform:translate(800px,0px)}59.87%{transform:translate(800px,64px)}60.2%{transform:translate(784px,64px)}60.54%{transform:translate(784px,48px)}61.2%{transform:translate(816px,48px)}61.87%{transform:translate(816px,16px)}62.21%,81.61%{transform:translate(832px,16px)}62.54%{transform:translate(832px,0px)}65.55%{transform:translate(688px,0px)}67.56%{transform:translate(688px,96px)}72.24%{transform:translate(464px,96px)}72.58%{transform:translate(464px,80px)}73.91%{transform:translate(528px,80px)}74.92%{transform:translate(528px,32px)}81.27%{transform:translate(832px,32px)}97.66%{transform:translate(80px,0px)}97.99%{transform:translate(64px,0px)}98.33%{transform:translate(64px,-16px)}}.s.s0{transform:translate(0px,-16px);animation-name:s0}@keyframes s1{0%,99.67%{transform:translate(16px,-16px)}0.33%{transform:translate(0px,-16px)}0.67%{transform:translate(0px,0px)}1%{transform:translate(16px,0px)}1.34%{transform:translate(16px,16px)}2.68%,97.66%{transform:translate(80px,16px)}3.01%{transform:translate(80px,32px)}3.34%{transform:translate(64px,32px)}4.68%{transform:translate(64px,96px)}5.02%{transform:translate(48px,96px)}5.35%{transform:translate(48px,80px)}7.02%{transform:translate(128px,80px)}7.36%{transform:translate(128px,64px)}8.03%{transform:translate(160px,64px)}8.7%,24.75%{transform:translate(160px,32px)}9.7%{transform:translate(208px,32px)}10.37%{transform:translate(208px,0px)}11.04%{transform:translate(240px,0px)}11.37%{transform:translate(240px,16px)}12.04%{transform:translate(272px,16px)}12.37%,19.06%{transform:translate(272px,0px)}13.04%{transform:translate(304px,0px)}14.38%{transform:translate(304px,64px)}15.05%{transform:translate(336px,64px)}15.38%{transform:translate(336px,48px)}15.72%{transform:translate(352px,48px)}16.39%{transform:translate(352px,16px)}16.72%{transform:translate(368px,16px)}17.06%{transform:translate(368px,0px)}20.07%{transform:translate(272px,48px)}21.4%{transform:translate(208px,48px)}21.74%{transform:translate(208px,64px)}22.07%{transform:translate(192px,64px)}22.74%{transform:translate(192px,96px)}23.41%{transform:translate(160px,96px)}25.08%{transform:translate(144px,32px)}25.75%{transform:translate(144px,0px)}26.09%{transform:translate(160px,0px)}26.42%{transform:translate(160px,-16px)}27.09%{transform:translate(128px,-16px)}27.42%{transform:translate(128px,0px)}30.1%{transform:translate(256px,0px)}31.44%{transform:translate(256px,64px)}31.77%{transform:translate(272px,64px)}32.11%{transform:translate(272px,80px)}32.44%{transform:translate(256px,80px)}32.78%{transform:translate(256px,96px)}36.12%{transform:translate(416px,96px)}36.45%{transform:translate(416px,80px)}37.12%{transform:translate(384px,80px)}37.46%{transform:translate(384px,64px)}39.46%{transform:translate(480px,64px)}39.8%{transform:translate(480px,48px)}40.13%{transform:translate(464px,48px)}41.14%{transform:translate(464px,0px)}41.47%{transform:translate(448px,0px)}41.81%{transform:translate(448px,16px)}42.14%{transform:translate(432px,16px)}42.47%{transform:translate(432px,32px)}44.15%{transform:translate(512px,32px)}44.48%{transform:translate(512px,16px)}44.82%{transform:translate(528px,16px)}45.15%{transform:translate(528px,0px)}45.48%{transform:translate(512px,0px)}47.16%{transform:translate(512px,80px)}48.16%{transform:translate(560px,80px)}48.49%{transform:translate(560px,64px)}50.17%{transform:translate(640px,64px)}50.5%{transform:translate(640px,48px)}50.84%{transform:translate(624px,48px)}51.84%{transform:translate(624px,96px)}52.17%{transform:translate(608px,96px)}52.51%{transform:translate(608px,80px)}52.84%{transform:translate(592px,80px)}53.18%{transform:translate(592px,64px)}53.85%{transform:translate(624px,64px)}54.85%{transform:translate(624px,16px)}56.52%{transform:translate(704px,16px)}56.86%{transform:translate(704px,0px)}58.86%{transform:translate(800px,0px)}60.2%{transform:translate(800px,64px)}60.54%{transform:translate(784px,64px)}60.87%{transform:translate(784px,48px)}61.54%{transform:translate(816px,48px)}62.21%{transform:translate(816px,16px)}62.54%,81.94%{transform:translate(832px,16px)}62.88%{transform:translate(832px,0px)}65.89%{transform:translate(688px,0px)}67.89%{transform:translate(688px,96px)}72.58%{transform:translate(464px,96px)}72.91%{transform:translate(464px,80px)}74.25%{transform:translate(528px,80px)}75.25%{transform:translate(528px,32px)}81.61%{transform:translate(832px,32px)}97.99%{transform:translate(80px,0px)}98.33%{transform:translate(64px,0px)}98.66%{transform:translate(64px,-16px)}}.s.s1{transform:translate(16px,-16px);animation-name:s1}@keyframes s2{0%,99.67%{transform:translate(32px,-16px)}0.67%{transform:translate(0px,-16px)}1%{transform:translate(0px,0px)}1.34%{transform:translate(16px,0px)}1.67%{transform:translate(16px,16px)}3.01%,97.99%{transform:translate(80px,16px)}3.34%{transform:translate(80px,32px)}3.68%{transform:translate(64px,32px)}5.02%{transform:translate(64px,96px)}5.35%{transform:translate(48px,96px)}5.69%{transform:translate(48px,80px)}7.36%{transform:translate(128px,80px)}7.69%{transform:translate(128px,64px)}8.36%{transform:translate(160px,64px)}9.03%,25.08%{transform:translate(160px,32px)}10.03%{transform:translate(208px,32px)}10.7%{transform:translate(208px,0px)}11.37%{transform:translate(240px,0px)}11.71%{transform:translate(240px,16px)}12.37%{transform:translate(272px,16px)}12.71%,19.4%{transform:translate(272px,0px)}13.38%{transform:translate(304px,0px)}14.72%{transform:translate(304px,64px)}15.38%{transform:translate(336px,64px)}15.72%{transform:translate(336px,48px)}16.05%{transform:translate(352px,48px)}16.72%{transform:translate(352px,16px)}17.06%{transform:translate(368px,16px)}17.39%{transform:translate(368px,0px)}20.4%{transform:translate(272px,48px)}21.74%{transform:translate(208px,48px)}22.07%{transform:translate(208px,64px)}22.41%{transform:translate(192px,64px)}23.08%{transform:translate(192px,96px)}23.75%{transform:translate(160px,96px)}25.42%{transform:translate(144px,32px)}26.09%{transform:translate(144px,0px)}26.42%{transform:translate(160px,0px)}26.76%{transform:translate(160px,-16px)}27.42%{transform:translate(128px,-16px)}27.76%{transform:translate(128px,0px)}30.43%{transform:translate(256px,0px)}31.77%{transform:translate(256px,64px)}32.11%{transform:translate(272px,64px)}32.44%{transform:translate(272px,80px)}32.78%{transform:translate(256px,80px)}33.11%{transform:translate(256px,96px)}36.45%{transform:translate(416px,96px)}36.79%{transform:translate(416px,80px)}37.46%{transform:translate(384px,80px)}37.79%{transform:translate(384px,64px)}39.8%{transform:translate(480px,64px)}40.13%{transform:translate(480px,48px)}40.47%{transform:translate(464px,48px)}41.47%{transform:translate(464px,0px)}41.81%{transform:translate(448px,0px)}42.14%{transform:translate(448px,16px)}42.47%{transform:translate(432px,16px)}42.81%{transform:translate(432px,32px)}44.48%{transform:translate(512px,32px)}44.82%{transform:translate(512px,16px)}45.15%{transform:translate(528px,16px)}45.48%{transform:translate(528px,0px)}45.82%{transform:translate(512px,0px)}47.49%{transform:translate(512px,80px)}48.49%{transform:translate(560px,80px)}48.83%{transform:translate(560px,64px)}50.5%{transform:translate(640px,64px)}50.84%{transform:translate(640px,48px)}51.17%{transform:translate(624px,48px)}52.17%{transform:translate(624px,96px)}52.51%{transform:translate(608px,96px)}52.84%{transform:translate(608px,80px)}53.18%{transform:translate(592px,80px)}53.51%{transform:translate(592px,64px)}54.18%{transform:translate(624px,64px)}55.18%{transform:translate(624px,16px)}56.86%{transform:translate(704px,16px)}57.19%{transform:translate(704px,0px)}59.2%{transform:translate(800px,0px)}60.54%{transform:translate(800px,64px)}60.87%{transform:translate(784px,64px)}61.2%{transform:translate(784px,48px)}61.87%{transform:translate(816px,48px)}62.54%{transform:translate(816px,16px)}62.88%,82.27%{transform:translate(832px,16px)}63.21%{transform:translate(832px,0px)}66.22%{transform:translate(688px,0px)}68.23%{transform:translate(688px,96px)}72.91%{transform:translate(464px,96px)}73.24%{transform:translate(464px,80px)}74.58%{transform:translate(528px,80px)}75.59%{transform:translate(528px,32px)}81.94%{transform:translate(832px,32px)}98.33%{transform:translate(80px,0px)}98.66%{transform:translate(64px,0px)}99%{transform:translate(64px,-16px)}}.s.s2{transform:translate(32px,-16px);animation-name:s2}@keyframes s3{0%,99.67%{transform:translate(48px,-16px)}1%{transform:translate(0px,-16px)}1.34%{transform:translate(0px,0px)}1.67%{transform:translate(16px,0px)}2.01%{transform:translate(16px,16px)}3.34%,98.33%{transform:translate(80px,16px)}3.68%{transform:translate(80px,32px)}4.01%{transform:translate(64px,32px)}5.35%{transform:translate(64px,96px)}5.69%{transform:translate(48px,96px)}6.02%{transform:translate(48px,80px)}7.69%{transform:translate(128px,80px)}8.03%{transform:translate(128px,64px)}8.7%{transform:translate(160px,64px)}9.36%,25.42%{transform:translate(160px,32px)}10.37%{transform:translate(208px,32px)}11.04%{transform:translate(208px,0px)}11.71%{transform:translate(240px,0px)}12.04%{transform:translate(240px,16px)}12.71%{transform:translate(272px,16px)}13.04%,19.73%{transform:translate(272px,0px)}13.71%{transform:translate(304px,0px)}15.05%{transform:translate(304px,64px)}15.72%{transform:translate(336px,64px)}16.05%{transform:translate(336px,48px)}16.39%{transform:translate(352px,48px)}17.06%{transform:translate(352px,16px)}17.39%{transform:translate(368px,16px)}17.73%{transform:translate(368px,0px)}20.74%{transform:translate(272px,48px)}22.07%{transform:translate(208px,48px)}22.41%{transform:translate(208px,64px)}22.74%{transform:translate(192px,64px)}23.41%{transform:translate(192px,96px)}24.08%{transform:translate(160px,96px)}25.75%{transform:translate(144px,32px)}26.42%{transform:translate(144px,0px)}26.76%{transform:translate(160px,0px)}27.09%{transform:translate(160px,-16px)}27.76%{transform:translate(128px,-16px)}28.09%{transform:translate(128px,0px)}30.77%{transform:translate(256px,0px)}32.11%{transform:translate(256px,64px)}32.44%{transform:translate(272px,64px)}32.78%{transform:translate(272px,80px)}33.11%{transform:translate(256px,80px)}33.44%{transform:translate(256px,96px)}36.79%{transform:translate(416px,96px)}37.12%{transform:translate(416px,80px)}37.79%{transform:translate(384px,80px)}38.13%{transform:translate(384px,64px)}40.13%{transform:translate(480px,64px)}40.47%{transform:translate(480px,48px)}40.8%{transform:translate(464px,48px)}41.81%{transform:translate(464px,0px)}42.14%{transform:translate(448px,0px)}42.47%{transform:translate(448px,16px)}42.81%{transform:translate(432px,16px)}43.14%{transform:translate(432px,32px)}44.82%{transform:translate(512px,32px)}45.15%{transform:translate(512px,16px)}45.48%{transform:translate(528px,16px)}45.82%{transform:translate(528px,0px)}46.15%{transform:translate(512px,0px)}47.83%{transform:translate(512px,80px)}48.83%{transform:translate(560px,80px)}49.16%{transform:translate(560px,64px)}50.84%{transform:translate(640px,64px)}51.17%{transform:translate(640px,48px)}51.51%{transform:translate(624px,48px)}52.51%{transform:translate(624px,96px)}52.84%{transform:translate(608px,96px)}53.18%{transform:translate(608px,80px)}53.51%{transform:translate(592px,80px)}53.85%{transform:translate(592px,64px)}54.52%{transform:translate(624px,64px)}55.52%{transform:translate(624px,16px)}57.19%{transform:translate(704px,16px)}57.53%{transform:translate(704px,0px)}59.53%{transform:translate(800px,0px)}60.87%{transform:translate(800px,64px)}61.2%{transform:translate(784px,64px)}61.54%{transform:translate(784px,48px)}62.21%{transform:translate(816px,48px)}62.88%{transform:translate(816px,16px)}63.21%,82.61%{transform:translate(832px,16px)}63.55%{transform:translate(832px,0px)}66.56%{transform:translate(688px,0px)}68.56%{transform:translate(688px,96px)}73.24%{transform:translate(464px,96px)}73.58%{transform:translate(464px,80px)}74.92%{transform:translate(528px,80px)}75.92%{transform:translate(528px,32px)}82.27%{transform:translate(832px,32px)}98.66%{transform:translate(80px,0px)}99%{transform:translate(64px,0px)}99.33%{transform:translate(64px,-16px)}}.s.s3{transform:translate(48px,-16px);animation-name:s3}</style><rect class="c" x="2" y="2" rx="2" ry="2"/><rect class="c" x="2" y="18" rx="2" ry="2"/><rect class="c" x="2" y="34" rx="2" ry="2"/><rect class="c" x="2" y="50" rx="2" ry="2"/><rect class="c" x="2" y="66" rx="2" ry="2"/><rect class="c" x="2" y="82" rx="2" ry="2"/><rect class="c" x="2" y="98" rx="2" ry="2"/><rect class="c" x="18" y="2" rx="2" ry="2"/><rect class="c c0" x="18" y="18" rx="2" ry="2"/><rect class="c" x="18" y="34" rx="2" ry="2"/><rect class="c" x="18" y="50" rx="2" ry="2"/><rect class="c" x="18" y="66" rx="2" ry="2"/><rect class="c" x="18" y="82" rx="2" ry="2"/><rect class="c" x="18" y="98" rx="2" ry="2"/><rect class="c" x="34" y="2" rx="2" ry="2"/><rect class="c" x="34" y="18" rx="2" ry="2"/><rect class="c" x="34" y="34" rx="2" ry="2"/><rect class="c" x="34" y="50" rx="2" ry="2"/><rect class="c" x="34" y="66" rx="2" ry="2"/><rect class="c" x="34" y="82" rx="2" ry="2"/><rect class="c" x="34" y="98" rx="2" ry="2"/><rect class="c" x="50" y="2" rx="2" ry="2"/><rect class="c" x="50" y="18" rx="2" ry="2"/><rect class="c" x="50" y="34" rx="2" ry="2"/><rect class="c" x="50" y="50" rx="2" ry="2"/><rect class="c" x="50" y="66" rx="2" ry="2"/><rect class="c" x="50" y="82" rx="2" ry="2"/><rect class="c c1" x="50" y="98" rx="2" ry="2"/><rect class="c" x="66" y="2" rx="2" ry="2"/><rect class="c" x="66" y="18" rx="2" ry="2"/><rect class="c" x="66" y="34" rx="2" ry="2"/><rect class="c c2" x="66" y="50" rx="2" ry="2"/><rect class="c" x="66" y="66" rx="2" ry="2"/><rect class="c" x="66" y="82" rx="2" ry="2"/><rect class="c c3" x="66" y="98" rx="2" ry="2"/><rect class="c" x="82" y="2" rx="2" ry="2"/><rect class="c" x="82" y="18" rx="2" ry="2"/><rect class="c c4" x="82" y="34" rx="2" ry="2"/><rect class="c" x="82" y="50" rx="2" ry="2"/><rect class="c" x="82" y="66" rx="2" ry="2"/><rect class="c" x="82" y="82" rx="2" ry="2"/><rect class="c" x="82" y="98" rx="2" ry="2"/><rect class="c" x="98" y="2" rx="2" ry="2"/><rect class="c" x="98" y="18" rx="2" ry="2"/><rect class="c" x="98" y="34" rx="2" ry="2"/><rect class="c" x="98" y="50" rx="2" ry="2"/><rect class="c" x="98" y="66" rx="2" ry="2"/><rect class="c" x="98" y="82" rx="2" ry="2"/><rect class="c" x="98" y="98" rx="2" ry="2"/><rect class="c" x="114" y="2" rx="2" ry="2"/><rect class="c" x="114" y="18" rx="2" ry="2"/><rect class="c" x="114" y="34" rx="2" ry="2"/><rect class="c" x="114" y="50" rx="2" ry="2"/><rect class="c" x="114" y="66" rx="2" ry="2"/><rect class="c" x="114" y="82" rx="2" ry="2"/><rect class="c" x="114" y="98" rx="2" ry="2"/><rect class="c c5" x="130" y="2" rx="2" ry="2"/><rect class="c" x="130" y="18" rx="2" ry="2"/><rect class="c" x="130" y="34" rx="2" ry="2"/><rect class="c" x="130" y="50" rx="2" ry="2"/><rect class="c c6" x="130" y="66" rx="2" ry="2"/><rect class="c c7" x="130" y="82" rx="2" ry="2"/><rect class="c" x="130" y="98" rx="2" ry="2"/><rect class="c c8" x="146" y="2" rx="2" ry="2"/><rect class="c c9" x="146" y="18" rx="2" ry="2"/><rect class="c ca" x="146" y="34" rx="2" ry="2"/><rect class="c" x="146" y="50" rx="2" ry="2"/><rect class="c" x="146" y="66" rx="2" ry="2"/><rect class="c" x="146" y="82" rx="2" ry="2"/><rect class="c" x="146" y="98" rx="2" ry="2"/><rect class="c cb" x="162" y="2" rx="2" ry="2"/><rect class="c" x="162" y="18" rx="2" ry="2"/><rect class="c cc" x="162" y="34" rx="2" ry="2"/><rect class="c cd" x="162" y="50" rx="2" ry="2"/><rect class="c ce" x="162" y="66" rx="2" ry="2"/><rect class="c cf" x="162" y="82" rx="2" ry="2"/><rect class="c cg" x="162" y="98" rx="2" ry="2"/><rect class="c" x="178" y="2" rx="2" ry="2"/><rect class="c" x="178" y="18" rx="2" ry="2"/><rect class="c ch" x="178" y="34" rx="2" ry="2"/><rect class="c" x="178" y="50" rx="2" ry="2"/><rect class="c" x="178" y="66" rx="2" ry="2"/><rect class="c" x="178" y="82" rx="2" ry="2"/><rect class="c" x="178" y="98" rx="2" ry="2"/><rect class="c" x="194" y="2" rx="2" ry="2"/><rect class="c" x="194" y="18" rx="2" ry="2"/><rect class="c" x="194" y="34" rx="2" ry="2"/><rect class="c" x="194" y="50" rx="2" ry="2"/><rect class="c" x="194" y="66" rx="2" ry="2"/><rect class="c ci" x="194" y="82" rx="2" ry="2"/><rect class="c cj" x="194" y="98" rx="2" ry="2"/><rect class="c ck" x="210" y="2" rx="2" ry="2"/><rect class="c cl" x="210" y="18" rx="2" ry="2"/><rect class="c cm" x="210" y="34" rx="2" ry="2"/><rect class="c cn" x="210" y="50" rx="2" ry="2"/><rect class="c co" x="210" y="66" rx="2" ry="2"/><rect class="c" x="210" y="82" rx="2" ry="2"/><rect class="c" x="210" y="98" rx="2" ry="2"/><rect class="c" x="226" y="2" rx="2" ry="2"/><rect class="c" x="226" y="18" rx="2" ry="2"/><rect class="c" x="226" y="34" rx="2" ry="2"/><rect class="c" x="226" y="50" rx="2" ry="2"/><rect class="c" x="226" y="66" rx="2" ry="2"/><rect class="c" x="226" y="82" rx="2" ry="2"/><rect class="c" x="226" y="98" rx="2" ry="2"/><rect class="c" x="242" y="2" rx="2" ry="2"/><rect class="c cp" x="242" y="18" rx="2" ry="2"/><rect class="c" x="242" y="34" rx="2" ry="2"/><rect class="c cq" x="242" y="50" rx="2" ry="2"/><rect class="c" x="242" y="66" rx="2" ry="2"/><rect class="c" x="242" y="82" rx="2" ry="2"/><rect class="c" x="242" y="98" rx="2" ry="2"/><rect class="c" x="258" y="2" rx="2" ry="2"/><rect class="c" x="258" y="18" rx="2" ry="2"/><rect class="c" x="258" y="34" rx="2" ry="2"/><rect class="c cr" x="258" y="50" rx="2" ry="2"/><rect class="c cs" x="258" y="66" rx="2" ry="2"/><rect class="c ct" x="258" y="82" rx="2" ry="2"/><rect class="c cu" x="258" y="98" rx="2" ry="2"/><rect class="c cv" x="274" y="2" rx="2" ry="2"/><rect class="c cw" x="274" y="18" rx="2" ry="2"/><rect class="c cx" x="274" y="34" rx="2" ry="2"/><rect class="c cy" x="274" y="50" rx="2" ry="2"/><rect class="c cz" x="274" y="66" rx="2" ry="2"/><rect class="c c10" x="274" y="82" rx="2" ry="2"/><rect class="c c11" x="274" y="98" rx="2" ry="2"/><rect class="c" x="290" y="2" rx="2" ry="2"/><rect class="c" x="290" y="18" rx="2" ry="2"/><rect class="c" x="290" y="34" rx="2" ry="2"/><rect class="c" x="290" y="50" rx="2" ry="2"/><rect class="c" x="290" y="66" rx="2" ry="2"/><rect class="c" x="290" y="82" rx="2" ry="2"/><rect class="c" x="290" y="98" rx="2" ry="2"/><rect class="c c12" x="306" y="2" rx="2" ry="2"/><rect class="c" x="306" y="18" rx="2" ry="2"/><rect class="c c13" x="306" y="34" rx="2" ry="2"/><rect class="c c14" x="306" y="50" rx="2" ry="2"/><rect class="c c15" x="306" y="66" rx="2" ry="2"/><rect class="c" x="306" y="82" rx="2" ry="2"/><rect class="c c16" x="306" y="98" rx="2" ry="2"/><rect class="c" x="322" y="2" rx="2" ry="2"/><rect class="c" x="322" y="18" rx="2" ry="2"/><rect class="c" x="322" y="34" rx="2" ry="2"/><rect class="c" x="322" y="50" rx="2" ry="2"/><rect class="c c17" x="322" y="66" rx="2" ry="2"/><rect class="c" x="322" y="82" rx="2" ry="2"/><rect class="c" x="322" y="98" rx="2" ry="2"/><rect class="c" x="338" y="2" rx="2" ry="2"/><rect class="c" x="338" y="18" rx="2" ry="2"/><rect class="c" x="338" y="34" rx="2" ry="2"/><rect class="c c18" x="338" y="50" rx="2" ry="2"/><rect class="c c19" x="338" y="66" rx="2" ry="2"/><rect class="c" x="338" y="82" rx="2" ry="2"/><rect class="c" x="338" y="98" rx="2" ry="2"/><rect class="c c1a" x="354" y="2" rx="2" ry="2"/><rect class="c c1b" x="354" y="18" rx="2" ry="2"/><rect class="c c1c" x="354" y="34" rx="2" ry="2"/><rect class="c" x="354" y="50" rx="2" ry="2"/><rect class="c" x="354" y="66" rx="2" ry="2"/><rect class="c" x="354" y="82" rx="2" ry="2"/><rect class="c" x="354" y="98" rx="2" ry="2"/><rect class="c" x="370" y="2" rx="2" ry="2"/><rect class="c c1d" x="370" y="18" rx="2" ry="2"/><rect class="c" x="370" y="34" rx="2" ry="2"/><rect class="c" x="370" y="50" rx="2" ry="2"/><rect class="c" x="370" y="66" rx="2" ry="2"/><rect class="c" x="370" y="82" rx="2" ry="2"/><rect class="c" x="370" y="98" rx="2" ry="2"/><rect class="c" x="386" y="2" rx="2" ry="2"/><rect class="c" x="386" y="18" rx="2" ry="2"/><rect class="c" x="386" y="34" rx="2" ry="2"/><rect class="c" x="386" y="50" rx="2" ry="2"/><rect class="c" x="386" y="66" rx="2" ry="2"/><rect class="c c1e" x="386" y="82" rx="2" ry="2"/><rect class="c c1f" x="386" y="98" rx="2" ry="2"/><rect class="c" x="402" y="2" rx="2" ry="2"/><rect class="c" x="402" y="18" rx="2" ry="2"/><rect class="c" x="402" y="34" rx="2" ry="2"/><rect class="c" x="402" y="50" rx="2" ry="2"/><rect class="c" x="402" y="66" rx="2" ry="2"/><rect class="c c1g" x="402" y="82" rx="2" ry="2"/><rect class="c c1h" x="402" y="98" rx="2" ry="2"/><rect class="c" x="418" y="2" rx="2" ry="2"/><rect class="c" x="418" y="18" rx="2" ry="2"/><rect class="c" x="418" y="34" rx="2" ry="2"/><rect class="c" x="418" y="50" rx="2" ry="2"/><rect class="c" x="418" y="66" rx="2" ry="2"/><rect class="c c1i" x="418" y="82" rx="2" ry="2"/><rect class="c c1j" x="418" y="98" rx="2" ry="2"/><rect class="c" x="434" y="2" rx="2" ry="2"/><rect class="c" x="434" y="18" rx="2" ry="2"/><rect class="c c1k" x="434" y="34" rx="2" ry="2"/><rect class="c" x="434" y="50" rx="2" ry="2"/><rect class="c" x="434" y="66" rx="2" ry="2"/><rect class="c" x="434" y="82" rx="2" ry="2"/><rect class="c" x="434" y="98" rx="2" ry="2"/><rect class="c c1l" x="450" y="2" rx="2" ry="2"/><rect class="c c1m" x="450" y="18" rx="2" ry="2"/><rect class="c" x="450" y="34" rx="2" ry="2"/><rect class="c" x="450" y="50" rx="2" ry="2"/><rect class="c" x="450" y="66" rx="2" ry="2"/><rect class="c" x="450" y="82" rx="2" ry="2"/><rect class="c" x="450" y="98" rx="2" ry="2"/><rect class="c c1n" x="466" y="2" rx="2" ry="2"/><rect class="c c1o" x="466" y="18" rx="2" ry="2"/><rect class="c c1p" x="466" y="34" rx="2" ry="2"/><rect class="c c1q" x="466" y="50" rx="2" ry="2"/><rect class="c c1r" x="466" y="66" rx="2" ry="2"/><rect class="c c1s" x="466" y="82" rx="2" ry="2"/><rect class="c" x="466" y="98" rx="2" ry="2"/><rect class="c" x="482" y="2" rx="2" ry="2"/><rect class="c" x="482" y="18" rx="2" ry="2"/><rect class="c" x="482" y="34" rx="2" ry="2"/><rect class="c c1t" x="482" y="50" rx="2" ry="2"/><rect class="c c1u" x="482" y="66" rx="2" ry="2"/><rect class="c c1v" x="482" y="82" rx="2" ry="2"/><rect class="c" x="482" y="98" rx="2" ry="2"/><rect class="c" x="498" y="2" rx="2" ry="2"/><rect class="c" x="498" y="18" rx="2" ry="2"/><rect class="c" x="498" y="34" rx="2" ry="2"/><rect class="c" x="498" y="50" rx="2" ry="2"/><rect class="c" x="498" y="66" rx="2" ry="2"/><rect class="c" x="498" y="82" rx="2" ry="2"/><rect class="c c1w" x="498" y="98" rx="2" ry="2"/><rect class="c c1x" x="514" y="2" rx="2" ry="2"/><rect class="c c1y" x="514" y="18" rx="2" ry="2"/><rect class="c c1z" x="514" y="34" rx="2" ry="2"/><rect class="c" x="514" y="50" rx="2" ry="2"/><rect class="c" x="514" y="66" rx="2" ry="2"/><rect class="c c20" x="514" y="82" rx="2" ry="2"/><rect class="c" x="514" y="98" rx="2" ry="2"/><rect class="c" x="530" y="2" rx="2" ry="2"/><rect class="c c21" x="530" y="18" rx="2" ry="2"/><rect class="c c22" x="530" y="34" rx="2" ry="2"/><rect class="c" x="530" y="50" rx="2" ry="2"/><rect class="c" x="530" y="66" rx="2" ry="2"/><rect class="c" x="530" y="82" rx="2" ry="2"/><rect class="c" x="530" y="98" rx="2" ry="2"/><rect class="c" x="546" y="2" rx="2" ry="2"/><rect class="c" x="546" y="18" rx="2" ry="2"/><rect class="c" x="546" y="34" rx="2" ry="2"/><rect class="c" x="546" y="50" rx="2" ry="2"/><rect class="c" x="546" y="66" rx="2" ry="2"/><rect class="c c23" x="546" y="82" rx="2" ry="2"/><rect class="c" x="546" y="98" rx="2" ry="2"/><rect class="c" x="562" y="2" rx="2" ry="2"/><rect class="c" x="562" y="18" rx="2" ry="2"/><rect class="c" x="562" y="34" rx="2" ry="2"/><rect class="c" x="562" y="50" rx="2" ry="2"/><rect class="c c24" x="562" y="66" rx="2" ry="2"/><rect class="c" x="562" y="82" rx="2" ry="2"/><rect class="c" x="562" y="98" rx="2" ry="2"/><rect class="c" x="578" y="2" rx="2" ry="2"/><rect class="c" x="578" y="18" rx="2" ry="2"/><rect class="c" x="578" y="34" rx="2" ry="2"/><rect class="c" x="578" y="50" rx="2" ry="2"/><rect class="c" x="578" y="66" rx="2" ry="2"/><rect class="c" x="578" y="82" rx="2" ry="2"/><rect class="c" x="578" y="98" rx="2" ry="2"/><rect class="c" x="594" y="2" rx="2" ry="2"/><rect class="c" x="594" y="18" rx="2" ry="2"/><rect class="c" x="594" y="34" rx="2" ry="2"/><rect class="c" x="594" y="50" rx="2" ry="2"/><rect class="c" x="594" y="66" rx="2" ry="2"/><rect class="c c25" x="594" y="82" rx="2" ry="2"/><rect class="c" x="594" y="98" rx="2" ry="2"/><rect class="c" x="610" y="2" rx="2" ry="2"/><rect class="c" x="610" y="18" rx="2" ry="2"/><rect class="c" x="610" y="34" rx="2" ry="2"/><rect class="c" x="610" y="50" rx="2" ry="2"/><rect class="c c26" x="610" y="66" rx="2" ry="2"/><rect class="c" x="610" y="82" rx="2" ry="2"/><rect class="c" x="610" y="98" rx="2" ry="2"/><rect class="c" x="626" y="2" rx="2" ry="2"/><rect class="c" x="626" y="18" rx="2" ry="2"/><rect class="c" x="626" y="34" rx="2" ry="2"/><rect class="c" x="626" y="50" rx="2" ry="2"/><rect class="c" x="626" y="66" rx="2" ry="2"/><rect class="c c27" x="626" y="82" rx="2" ry="2"/><rect class="c c28" x="626" y="98" rx="2" ry="2"/><rect class="c" x="642" y="2" rx="2" ry="2"/><rect class="c c29" x="642" y="18" rx="2" ry="2"/><rect class="c c2a" x="642" y="34" rx="2" ry="2"/><rect class="c c2b" x="642" y="50" rx="2" ry="2"/><rect class="c c2c" x="642" y="66" rx="2" ry="2"/><rect class="c" x="642" y="82" rx="2" ry="2"/><rect class="c" x="642" y="98" rx="2" ry="2"/><rect class="c" x="658" y="2" rx="2" ry="2"/><rect class="c" x="658" y="18" rx="2" ry="2"/><rect class="c" x="658" y="34" rx="2" ry="2"/><rect class="c" x="658" y="50" rx="2" ry="2"/><rect class="c" x="658" y="66" rx="2" ry="2"/><rect class="c" x="658" y="82" rx="2" ry="2"/><rect class="c" x="658" y="98" rx="2" ry="2"/><rect class="c" x="674" y="2" rx="2" ry="2"/><rect class="c c2d" x="674" y="18" rx="2" ry="2"/><rect class="c" x="674" y="34" rx="2" ry="2"/><rect class="c" x="674" y="50" rx="2" ry="2"/><rect class="c" x="674" y="66" rx="2" ry="2"/><rect class="c" x="674" y="82" rx="2" ry="2"/><rect class="c" x="674" y="98" rx="2" ry="2"/><rect class="c" x="690" y="2" rx="2" ry="2"/><rect class="c c2e" x="690" y="18" rx="2" ry="2"/><rect class="c" x="690" y="34" rx="2" ry="2"/><rect class="c" x="690" y="50" rx="2" ry="2"/><rect class="c" x="690" y="66" rx="2" ry="2"/><rect class="c" x="690" y="82" rx="2" ry="2"/><rect class="c c2f" x="690" y="98" rx="2" ry="2"/><rect class="c c2g" x="706" y="2" rx="2" ry="2"/><rect class="c" x="706" y="18" rx="2" ry="2"/><rect class="c" x="706" y="34" rx="2" ry="2"/><rect class="c" x="706" y="50" rx="2" ry="2"/><rect class="c" x="706" y="66" rx="2" ry="2"/><rect class="c" x="706" y="82" rx="2" ry="2"/><rect class="c" x="706" y="98" rx="2" ry="2"/><rect class="c" x="722" y="2" rx="2" ry="2"/><rect class="c" x="722" y="18" rx="2" ry="2"/><rect class="c" x="722" y="34" rx="2" ry="2"/><rect class="c" x="722" y="50" rx="2" ry="2"/><rect class="c" x="722" y="66" rx="2" ry="2"/><rect class="c" x="722" y="82" rx="2" ry="2"/><rect class="c" x="722" y="98" rx="2" ry="2"/><rect class="c" x="738" y="2" rx="2" ry="2"/><rect class="c" x="738" y="18" rx="2" ry="2"/><rect class="c" x="738" y="34" rx="2" ry="2"/><rect class="c" x="738" y="50" rx="2" ry="2"/><rect class="c" x="738" y="66" rx="2" ry="2"/><rect class="c" x="738" y="82" rx="2" ry="2"/><rect class="c" x="738" y="98" rx="2" ry="2"/><rect class="c" x="754" y="2" rx="2" ry="2"/><rect class="c" x="754" y="18" rx="2" ry="2"/><rect class="c" x="754" y="34" rx="2" ry="2"/><rect class="c" x="754" y="50" rx="2" ry="2"/><rect class="c" x="754" y="66" rx="2" ry="2"/><rect class="c" x="754" y="82" rx="2" ry="2"/><rect class="c" x="754" y="98" rx="2" ry="2"/><rect class="c" x="770" y="2" rx="2" ry="2"/><rect class="c" x="770" y="18" rx="2" ry="2"/><rect class="c" x="770" y="34" rx="2" ry="2"/><rect class="c" x="770" y="50" rx="2" ry="2"/><rect class="c" x="770" y="66" rx="2" ry="2"/><rect class="c" x="770" y="82" rx="2" ry="2"/><rect class="c" x="770" y="98" rx="2" ry="2"/><rect class="c" x="786" y="2" rx="2" ry="2"/><rect class="c" x="786" y="18" rx="2" ry="2"/><rect class="c" x="786" y="34" rx="2" ry="2"/><rect class="c" x="786" y="50" rx="2" ry="2"/><rect class="c c2h" x="786" y="66" rx="2" ry="2"/><rect class="c" x="786" y="82" rx="2" ry="2"/><rect class="c" x="786" y="98" rx="2" ry="2"/><rect class="c" x="802" y="2" rx="2" ry="2"/><rect class="c c2i" x="802" y="18" rx="2" ry="2"/><rect class="c c2j" x="802" y="34" rx="2" ry="2"/><rect class="c" x="802" y="50" rx="2" ry="2"/><rect class="c c2k" x="802" y="66" rx="2" ry="2"/><rect class="c" x="802" y="82" rx="2" ry="2"/><rect class="c" x="802" y="98" rx="2" ry="2"/><rect class="c" x="818" y="2" rx="2" ry="2"/><rect class="c" x="818" y="18" rx="2" ry="2"/><rect class="c" x="818" y="34" rx="2" ry="2"/><rect class="c" x="818" y="50" rx="2" ry="2"/><rect class="c" x="818" y="66" rx="2" ry="2"/><rect class="c" x="818" y="82" rx="2" ry="2"/><rect class="c" x="818" y="98" rx="2" ry="2"/><rect class="c c2l" x="834" y="2" rx="2" ry="2"/><rect class="c" x="834" y="18" rx="2" ry="2"/><rect class="c c2m" x="834" y="34" rx="2" ry="2"/><rect class="c" x="834" y="50" rx="2" ry="2"/><rect class="u u0" height="12" width="812.9" x="0.0" y="144"/><rect class="u u1" height="12" width="27.4" x="812.3" y="144"/><rect class="u u2" height="12" width="9.5" x="839.1" y="144"/><rect class="s s0" x="0.8" y="0.8" width="14.4" height="14.4" rx="4.5" ry="4.5"/><rect class="s s1" x="1.8" y="1.8" width="12.3" height="12.3" rx="4.1" ry="4.1"/><rect class="s s2" x="2.6" y="2.6" width="10.8" height="10.8" rx="3.6" ry="3.6"/><rect class="s s3" x="3.0" y="3.0" width="9.9" height="9.9" rx="3.3" ry="3.3"/></svg>