<svg viewBox="-16 -32 880 192" width="880" height="192" xmlns="http://www.w3.org/2000/svg"><desc>Generated with https://github.com/Platane/snk</desc><style>:root{--cb:#1b1f230a;--cs:purple;--ce:#ebedf0;--c0:#ebedf0;--c1:#9be9a8;--c2:#40c463;--c3:#30a14e;--c4:#216e39}.c{shape-rendering:geometricPrecision;fill:var(--ce);stroke-width:1px;stroke:var(--cb);animation:none 31700ms linear infinite;width:12px;height:12px}@keyframes c0{0.94%{fill:var(--c1)}0.96%,100%{fill:var(--ce)}}.c.c0{fill:var(--c1);animation-name:c0}@keyframes c1{4.41%{fill:var(--c1)}4.43%,100%{fill:var(--ce)}}.c.c1{fill:var(--c1);animation-name:c1}@keyframes c2{3.14%{fill:var(--c1)}3.16%,100%{fill:var(--ce)}}.c.c2{fill:var(--c1);animation-name:c2}@keyframes c3{4.09%{fill:var(--c1)}4.11%,100%{fill:var(--ce)}}.c.c3{fill:var(--c1);animation-name:c3}@keyframes c4{2.51%{fill:var(--c1)}2.53%,100%{fill:var(--ce)}}.c.c4{fill:var(--c1);animation-name:c4}@keyframes c5{25.54%{fill:var(--c1)}25.56%,100%{fill:var(--ce)}}.c.c5{fill:var(--c1);animation-name:c5}@keyframes c6{6.61%{fill:var(--c1)}6.63%,100%{fill:var(--ce)}}.c.c6{fill:var(--c1);animation-name:c6}@keyframes c7{6.3%{fill:var(--c1)}6.32%,100%{fill:var(--ce)}}.c.c7{fill:var(--c1);animation-name:c7}@keyframes c8{23.96%{fill:var(--c1)}23.98%,100%{fill:var(--ce)}}.c.c8{fill:var(--c1);animation-name:c8}@keyframes c9{23.65%{fill:var(--c1)}23.67%,100%{fill:var(--ce)}}.c.c9{fill:var(--c1);animation-name:c9}@keyframes ca{23.33%{fill:var(--c1)}23.35%,100%{fill:var(--ce)}}.c.ca{fill:var(--c1);animation-name:ca}@keyframes cb{24.28%{fill:var(--c1)}24.3%,100%{fill:var(--ce)}}.c.cb{fill:var(--c1);animation-name:cb}@keyframes cc{7.88%{fill:var(--c1)}7.9%,100%{fill:var(--ce)}}.c.cc{fill:var(--c1);animation-name:cc}@keyframes cd{7.56%{fill:var(--c1)}7.58%,100%{fill:var(--ce)}}.c.cd{fill:var(--c1);animation-name:cd}@keyframes ce{7.25%{fill:var(--c1)}7.27%,100%{fill:var(--ce)}}.c.ce{fill:var(--c1);animation-name:ce}@keyframes cf{22.07%{fill:var(--c1)}22.09%,100%{fill:var(--ce)}}.c.cf{fill:var(--c1);animation-name:cf}@keyframes cg{21.76%{fill:var(--c1)}21.78%,100%{fill:var(--ce)}}.c.cg{fill:var(--c1);animation-name:cg}@keyframes ch{8.19%{fill:var(--c1)}8.21%,100%{fill:var(--ce)}}.c.ch{fill:var(--c1);animation-name:ch}@keyframes ci{20.81%{fill:var(--c1)}20.83%,100%{fill:var(--ce)}}.c.ci{fill:var(--c1);animation-name:ci}@keyframes cj{21.13%{fill:var(--c1)}21.15%,100%{fill:var(--ce)}}.c.cj{fill:var(--c1);animation-name:cj}@keyframes ck{9.45%{fill:var(--c1)}9.47%,100%{fill:var(--ce)}}.c.ck{fill:var(--c1);animation-name:ck}@keyframes cl{9.14%{fill:var(--c1)}9.16%,100%{fill:var(--ce)}}.c.cl{fill:var(--c1);animation-name:cl}@keyframes cm{8.82%{fill:var(--c1)}8.84%,100%{fill:var(--ce)}}.c.cm{fill:var(--c1);animation-name:cm}@keyframes cn{19.86%{fill:var(--c1)}19.88%,100%{fill:var(--ce)}}.c.cn{fill:var(--c1);animation-name:cn}@keyframes co{20.18%{fill:var(--c1)}20.2%,100%{fill:var(--ce)}}.c.co{fill:var(--c1);animation-name:co}@keyframes cp{10.4%{fill:var(--c1)}10.42%,100%{fill:var(--ce)}}.c.cp{fill:var(--c1);animation-name:cp}@keyframes cq{19.23%{fill:var(--c1)}19.25%,100%{fill:var(--ce)}}.c.cq{fill:var(--c1);animation-name:cq}@keyframes cr{18.92%{fill:var(--c1)}18.94%,100%{fill:var(--ce)}}.c.cr{fill:var(--c1);animation-name:cr}@keyframes cs{29.33%{fill:var(--c1)}29.35%,100%{fill:var(--ce)}}.c.cs{fill:var(--c1);animation-name:cs}@keyframes ct{30.27%{fill:var(--c1)}30.29%,100%{fill:var(--ce)}}.c.ct{fill:var(--c1);animation-name:ct}@keyframes cu{30.59%{fill:var(--c1)}30.61%,100%{fill:var(--ce)}}.c.cu{fill:var(--c1);animation-name:cu}@keyframes cv{11.35%{fill:var(--c1)}11.37%,100%{fill:var(--ce)}}.c.cv{fill:var(--c1);animation-name:cv}@keyframes cw{11.03%{fill:var(--c1)}11.05%,100%{fill:var(--ce)}}.c.cw{fill:var(--c1);animation-name:cw}@keyframes cx{18.29%{fill:var(--c1)}18.31%,100%{fill:var(--ce)}}.c.cx{fill:var(--c1);animation-name:cx}@keyframes cy{18.6%{fill:var(--c1)}18.62%,100%{fill:var(--ce)}}.c.cy{fill:var(--c1);animation-name:cy}@keyframes cz{29.64%{fill:var(--c1)}29.66%,100%{fill:var(--ce)}}.c.cz{fill:var(--c1);animation-name:cz}@keyframes c10{29.96%{fill:var(--c1)}29.98%,100%{fill:var(--ce)}}.c.c10{fill:var(--c1);animation-name:c10}@keyframes c11{30.9%{fill:var(--c1)}30.92%,100%{fill:var(--ce)}}.c.c11{fill:var(--c1);animation-name:c11}@keyframes c12{11.98%{fill:var(--c1)}12%,100%{fill:var(--ce)}}.c.c12{fill:var(--c1);animation-name:c12}@keyframes c13{12.61%{fill:var(--c1)}12.63%,100%{fill:var(--ce)}}.c.c13{fill:var(--c1);animation-name:c13}@keyframes c14{12.92%{fill:var(--c1)}12.94%,100%{fill:var(--ce)}}.c.c14{fill:var(--c1);animation-name:c14}@keyframes c15{13.24%{fill:var(--c1)}13.26%,100%{fill:var(--ce)}}.c.c15{fill:var(--c1);animation-name:c15}@keyframes c16{31.54%{fill:var(--c1)}31.56%,100%{fill:var(--ce)}}.c.c16{fill:var(--c1);animation-name:c16}@keyframes c17{13.55%{fill:var(--c1)}13.57%,100%{fill:var(--ce)}}.c.c17{fill:var(--c1);animation-name:c17}@keyframes c18{14.19%{fill:var(--c1)}14.21%,100%{fill:var(--ce)}}.c.c18{fill:var(--c1);animation-name:c18}@keyframes c19{13.87%{fill:var(--c1)}13.89%,100%{fill:var(--ce)}}.c.c19{fill:var(--c1);animation-name:c19}@keyframes c1a{16.08%{fill:var(--c1)}16.1%,100%{fill:var(--ce)}}.c.c1a{fill:var(--c1);animation-name:c1a}@keyframes c1b{15.13%{fill:var(--c1)}15.15%,100%{fill:var(--ce)}}.c.c1b{fill:var(--c1);animation-name:c1b}@keyframes c1c{14.82%{fill:var(--c1)}14.84%,100%{fill:var(--ce)}}.c.c1c{fill:var(--c1);animation-name:c1c}@keyframes c1d{15.45%{fill:var(--c1)}15.47%,100%{fill:var(--ce)}}.c.c1d{fill:var(--c1);animation-name:c1d}@keyframes c1e{34.69%{fill:var(--c1)}34.71%,100%{fill:var(--ce)}}.c.c1e{fill:var(--c1);animation-name:c1e}@keyframes c1f{33.11%{fill:var(--c1)}33.13%,100%{fill:var(--ce)}}.c.c1f{fill:var(--c1);animation-name:c1f}@keyframes c1g{34.37%{fill:var(--c1)}34.39%,100%{fill:var(--ce)}}.c.c1g{fill:var(--c1);animation-name:c1g}@keyframes c1h{33.43%{fill:var(--c1)}33.45%,100%{fill:var(--ce)}}.c.c1h{fill:var(--c1);animation-name:c1h}@keyframes c1i{34.06%{fill:var(--c1)}34.08%,100%{fill:var(--ce)}}.c.c1i{fill:var(--c1);animation-name:c1i}@keyframes c1j{33.74%{fill:var(--c1)}33.76%,100%{fill:var(--ce)}}.c.c1j{fill:var(--c1);animation-name:c1j}@keyframes c1k{39.74%{fill:var(--c1)}39.76%,100%{fill:var(--ce)}}.c.c1k{fill:var(--c1);animation-name:c1k}@keyframes c1l{38.79%{fill:var(--c1)}38.81%,100%{fill:var(--ce)}}.c.c1l{fill:var(--c1);animation-name:c1l}@keyframes c1m{39.11%{fill:var(--c1)}39.13%,100%{fill:var(--ce)}}.c.c1m{fill:var(--c1);animation-name:c1m}@keyframes c1n{38.48%{fill:var(--c1)}38.5%,100%{fill:var(--ce)}}.c.c1n{fill:var(--c1);animation-name:c1n}@keyframes c1o{38.16%{fill:var(--c1)}38.18%,100%{fill:var(--ce)}}.c.c1o{fill:var(--c1);animation-name:c1o}@keyframes c1p{37.84%{fill:var(--c1)}37.86%,100%{fill:var(--ce)}}.c.c1p{fill:var(--c1);animation-name:c1p}@keyframes c1q{37.53%{fill:var(--c1)}37.55%,100%{fill:var(--ce)}}.c.c1q{fill:var(--c1);animation-name:c1q}@keyframes c1r{36.58%{fill:var(--c1)}36.6%,100%{fill:var(--ce)}}.c.c1r{fill:var(--c1);animation-name:c1r}@keyframes c1s{68.44%{fill:var(--c1)}68.46%,100%{fill:var(--ce)}}.c.c1s{fill:var(--c1);animation-name:c1s}@keyframes c1t{37.21%{fill:var(--c1)}37.23%,100%{fill:var(--ce)}}.c.c1t{fill:var(--c1);animation-name:c1t}@keyframes c1u{36.9%{fill:var(--c1)}36.92%,100%{fill:var(--ce)}}.c.c1u{fill:var(--c1);animation-name:c1u}@keyframes c1v{68.76%{fill:var(--c2)}68.78%,100%{fill:var(--ce)}}.c.c1v{fill:var(--c2);animation-name:c1v}@keyframes c1w{69.39%{fill:var(--c2)}69.41%,100%{fill:var(--ce)}}.c.c1w{fill:var(--c2);animation-name:c1w}@keyframes c1x{42.58%{fill:var(--c1)}42.6%,100%{fill:var(--ce)}}.c.c1x{fill:var(--c1);animation-name:c1x}@keyframes c1y{41.63%{fill:var(--c1)}41.65%,100%{fill:var(--ce)}}.c.c1y{fill:var(--c1);animation-name:c1y}@keyframes c1z{41.31%{fill:var(--c1)}41.33%,100%{fill:var(--ce)}}.c.c1z{fill:var(--c1);animation-name:c1z}@keyframes c20{44.15%{fill:var(--c1)}44.17%,100%{fill:var(--ce)}}.c.c20{fill:var(--c1);animation-name:c20}@keyframes c21{41.95%{fill:var(--c1)}41.97%,100%{fill:var(--ce)}}.c.c21{fill:var(--c1);animation-name:c21}@keyframes c22{75.7%{fill:var(--c3)}75.72%,100%{fill:var(--ce)}}.c.c22{fill:var(--c3);animation-name:c22}@keyframes c23{44.78%{fill:var(--c1)}44.8%,100%{fill:var(--ce)}}.c.c23{fill:var(--c1);animation-name:c23}@keyframes c24{45.42%{fill:var(--c1)}45.44%,100%{fill:var(--ce)}}.c.c24{fill:var(--c1);animation-name:c24}@keyframes c25{48.89%{fill:var(--c1)}48.91%,100%{fill:var(--ce)}}.c.c25{fill:var(--c1);animation-name:c25}@keyframes c26{46.36%{fill:var(--c1)}46.38%,100%{fill:var(--ce)}}.c.c26{fill:var(--c1);animation-name:c26}@keyframes c27{47.62%{fill:var(--c1)}47.64%,100%{fill:var(--ce)}}.c.c27{fill:var(--c1);animation-name:c27}@keyframes c28{47.94%{fill:var(--c1)}47.96%,100%{fill:var(--ce)}}.c.c28{fill:var(--c1);animation-name:c28}@keyframes c29{51.09%{fill:var(--c1)}51.11%,100%{fill:var(--ce)}}.c.c29{fill:var(--c1);animation-name:c29}@keyframes c2a{73.49%{fill:var(--c2)}73.51%,100%{fill:var(--ce)}}.c.c2a{fill:var(--c2);animation-name:c2a}@keyframes c2b{73.18%{fill:var(--c2)}73.2%,100%{fill:var(--ce)}}.c.c2b{fill:var(--c2);animation-name:c2b}@keyframes c2c{46.99%{fill:var(--c1)}47.01%,100%{fill:var(--ce)}}.c.c2c{fill:var(--c1);animation-name:c2c}@keyframes c2d{51.73%{fill:var(--c1)}51.75%,100%{fill:var(--ce)}}.c.c2d{fill:var(--c1);animation-name:c2d}@keyframes c2e{52.04%{fill:var(--c1)}52.06%,100%{fill:var(--ce)}}.c.c2e{fill:var(--c1);animation-name:c2e}@keyframes c2f{63.08%{fill:var(--c1)}63.1%,100%{fill:var(--ce)}}.c.c2f{fill:var(--c1);animation-name:c2f}@keyframes c2g{52.67%{fill:var(--c1)}52.69%,100%{fill:var(--ce)}}.c.c2g{fill:var(--c1);animation-name:c2g}@keyframes c2h{56.14%{fill:var(--c1)}56.16%,100%{fill:var(--ce)}}.c.c2h{fill:var(--c1);animation-name:c2h}@keyframes c2i{54.88%{fill:var(--c1)}54.9%,100%{fill:var(--ce)}}.c.c2i{fill:var(--c1);animation-name:c2i}@keyframes c2j{55.2%{fill:var(--c1)}55.22%,100%{fill:var(--ce)}}.c.c2j{fill:var(--c1);animation-name:c2j}@keyframes c2k{55.83%{fill:var(--c1)}55.85%,100%{fill:var(--ce)}}.c.c2k{fill:var(--c1);animation-name:c2k}@keyframes c2l{58.35%{fill:var(--c1)}58.37%,100%{fill:var(--ce)}}.c.c2l{fill:var(--c1);animation-name:c2l}@keyframes c2m{82.32%{fill:var(--c4)}82.34%,100%{fill:var(--ce)}}.c.c2m{fill:var(--c4);animation-name:c2m}.u{transform-origin:0 0;transform:scale(0,1);animation:none linear 31700ms infinite}@keyframes u0{0.94%{transform:scale(0.000,1)}0.96%,2.51%{transform:scale(0.011,1)}2.53%,3.14%{transform:scale(0.022,1)}3.16%,4.09%{transform:scale(0.034,1)}4.11%,4.41%{transform:scale(0.045,1)}4.43%,6.3%{transform:scale(0.056,1)}6.32%,6.61%{transform:scale(0.067,1)}6.63%,7.25%{transform:scale(0.079,1)}7.27%,7.56%{transform:scale(0.090,1)}7.58%,7.88%{transform:scale(0.101,1)}7.9%,8.19%{transform:scale(0.112,1)}8.21%,8.82%{transform:scale(0.124,1)}8.84%,9.14%{transform:scale(0.135,1)}9.16%,9.45%{transform:scale(0.146,1)}9.47%,10.4%{transform:scale(0.157,1)}10.42%,11.03%{transform:scale(0.169,1)}11.05%,11.35%{transform:scale(0.180,1)}11.37%,11.98%{transform:scale(0.191,1)}12%,12.61%{transform:scale(0.202,1)}12.63%,12.92%{transform:scale(0.213,1)}12.94%,13.24%{transform:scale(0.225,1)}13.26%,13.55%{transform:scale(0.236,1)}13.57%,13.87%{transform:scale(0.247,1)}13.89%,14.19%{transform:scale(0.258,1)}14.21%,14.82%{transform:scale(0.270,1)}14.84%,15.13%{transform:scale(0.281,1)}15.15%,15.45%{transform:scale(0.292,1)}15.47%,16.08%{transform:scale(0.303,1)}16.1%,18.29%{transform:scale(0.315,1)}18.31%,18.6%{transform:scale(0.326,1)}18.62%,18.92%{transform:scale(0.337,1)}18.94%,19.23%{transform:scale(0.348,1)}19.25%,19.86%{transform:scale(0.360,1)}19.88%,20.18%{transform:scale(0.371,1)}20.2%,20.81%{transform:scale(0.382,1)}20.83%,21.13%{transform:scale(0.393,1)}21.15%,21.76%{transform:scale(0.404,1)}21.78%,22.07%{transform:scale(0.416,1)}22.09%,23.33%{transform:scale(0.427,1)}23.35%,23.65%{transform:scale(0.438,1)}23.67%,23.96%{transform:scale(0.449,1)}23.98%,24.28%{transform:scale(0.461,1)}24.3%,25.54%{transform:scale(0.472,1)}25.56%,29.33%{transform:scale(0.483,1)}29.35%,29.64%{transform:scale(0.494,1)}29.66%,29.96%{transform:scale(0.506,1)}29.98%,30.27%{transform:scale(0.517,1)}30.29%,30.59%{transform:scale(0.528,1)}30.61%,30.9%{transform:scale(0.539,1)}30.92%,31.54%{transform:scale(0.551,1)}31.56%,33.11%{transform:scale(0.562,1)}33.13%,33.43%{transform:scale(0.573,1)}33.45%,33.74%{transform:scale(0.584,1)}33.76%,34.06%{transform:scale(0.596,1)}34.08%,34.37%{transform:scale(0.607,1)}34.39%,34.69%{transform:scale(0.618,1)}34.71%,36.58%{transform:scale(0.629,1)}36.6%,36.9%{transform:scale(0.640,1)}36.92%,37.21%{transform:scale(0.652,1)}37.23%,37.53%{transform:scale(0.663,1)}37.55%,37.84%{transform:scale(0.674,1)}37.86%,38.16%{transform:scale(0.685,1)}38.18%,38.48%{transform:scale(0.697,1)}38.5%,38.79%{transform:scale(0.708,1)}38.81%,39.11%{transform:scale(0.719,1)}39.13%,39.74%{transform:scale(0.730,1)}39.76%,41.31%{transform:scale(0.742,1)}41.33%,41.63%{transform:scale(0.753,1)}41.65%,41.95%{transform:scale(0.764,1)}41.97%,42.58%{transform:scale(0.775,1)}42.6%,44.15%{transform:scale(0.787,1)}44.17%,44.78%{transform:scale(0.798,1)}44.8%,45.42%{transform:scale(0.809,1)}45.44%,46.36%{transform:scale(0.820,1)}46.38%,46.99%{transform:scale(0.831,1)}47.01%,47.62%{transform:scale(0.843,1)}47.64%,47.94%{transform:scale(0.854,1)}47.96%,48.89%{transform:scale(0.865,1)}48.91%,51.09%{transform:scale(0.876,1)}51.11%,51.73%{transform:scale(0.888,1)}51.75%,52.04%{transform:scale(0.899,1)}52.06%,52.67%{transform:scale(0.910,1)}52.69%,54.88%{transform:scale(0.921,1)}54.9%,55.2%{transform:scale(0.933,1)}55.22%,55.83%{transform:scale(0.944,1)}55.85%,56.14%{transform:scale(0.955,1)}56.16%,58.35%{transform:scale(0.966,1)}58.37%,63.08%{transform:scale(0.978,1)}63.1%,68.44%{transform:scale(0.989,1)}68.46%,100%{transform:scale(1.000,1)}}.u.u0{fill:var(--c1);animation-name:u0;transform-origin:0.0px 0}@keyframes u1{68.76%{transform:scale(0.000,1)}68.78%,69.39%{transform:scale(0.250,1)}69.41%,73.18%{transform:scale(0.500,1)}73.2%,73.49%{transform:scale(0.750,1)}73.51%,100%{transform:scale(1.000,1)}}.u.u1{fill:var(--c2);animation-name:u1;transform-origin:794.4px 0}@keyframes u2{75.7%{transform:scale(0.000,1)}75.72%,100%{transform:scale(1.000,1)}}.u.u2{fill:var(--c3);animation-name:u2;transform-origin:830.1px 0}@keyframes u3{82.32%{transform:scale(0.000,1)}82.34%,100%{transform:scale(1.000,1)}}.u.u3{fill:var(--c4);animation-name:u3;transform-origin:839.1px 0}.s{shape-rendering:geometricPrecision;fill:var(--cs);animation:none linear 31700ms infinite}@keyframes s0{0%,99.68%{transform:translate(0px,-16px)}0.32%{transform:translate(0px,0px)}0.63%{transform:translate(16px,0px)}0.95%{transform:translate(16px,16px)}2.21%,97.48%{transform:translate(80px,16px)}2.52%{transform:translate(80px,32px)}2.84%{transform:translate(64px,32px)}4.1%{transform:translate(64px,96px)}4.42%{transform:translate(48px,96px)}4.73%{transform:translate(48px,80px)}6.31%{transform:translate(128px,80px)}6.62%{transform:translate(128px,64px)}7.26%{transform:translate(160px,64px)}7.89%,23.03%,95.58%{transform:translate(160px,32px)}8.83%{transform:translate(208px,32px)}9.46%{transform:translate(208px,0px)}10.09%{transform:translate(240px,0px)}10.41%{transform:translate(240px,16px)}11.04%{transform:translate(272px,16px)}11.36%,17.67%{transform:translate(272px,0px)}11.99%{transform:translate(304px,0px)}13.25%{transform:translate(304px,64px)}13.88%{transform:translate(336px,64px)}14.2%{transform:translate(336px,48px)}14.51%{transform:translate(352px,48px)}15.14%{transform:translate(352px,16px)}15.46%{transform:translate(368px,16px)}15.77%{transform:translate(368px,0px)}18.61%{transform:translate(272px,48px)}19.87%{transform:translate(208px,48px)}20.19%{transform:translate(208px,64px)}20.5%{transform:translate(192px,64px)}21.14%{transform:translate(192px,96px)}21.77%{transform:translate(160px,96px)}23.34%{transform:translate(144px,32px)}23.97%{transform:translate(144px,0px)}24.29%{transform:translate(160px,0px)}24.61%{transform:translate(160px,-16px)}25.24%{transform:translate(128px,-16px)}25.55%{transform:translate(128px,0px)}28.08%{transform:translate(256px,0px)}29.34%{transform:translate(256px,64px)}29.65%{transform:translate(272px,64px)}29.97%{transform:translate(272px,80px)}30.28%{transform:translate(256px,80px)}30.6%{transform:translate(256px,96px)}33.75%{transform:translate(416px,96px)}34.07%{transform:translate(416px,80px)}34.7%{transform:translate(384px,80px)}35.02%{transform:translate(384px,64px)}36.91%{transform:translate(480px,64px)}37.22%{transform:translate(480px,48px)}37.54%{transform:translate(464px,48px)}38.49%{transform:translate(464px,0px)}38.8%{transform:translate(448px,0px)}39.12%{transform:translate(448px,16px)}39.43%{transform:translate(432px,16px)}39.75%{transform:translate(432px,32px)}41.32%{transform:translate(512px,32px)}41.64%{transform:translate(512px,16px)}41.96%,76.03%{transform:translate(528px,16px)}42.27%{transform:translate(528px,0px)}42.59%{transform:translate(512px,0px)}44.16%{transform:translate(512px,80px)}45.11%{transform:translate(560px,80px)}45.43%{transform:translate(560px,64px)}47%{transform:translate(640px,64px)}47.32%{transform:translate(640px,80px)}47.63%{transform:translate(624px,80px)}47.95%{transform:translate(624px,96px)}48.26%{transform:translate(608px,96px)}48.58%{transform:translate(608px,80px)}48.9%{transform:translate(592px,80px)}49.21%{transform:translate(592px,64px)}49.84%{transform:translate(624px,64px)}50.79%{transform:translate(624px,16px)}52.37%{transform:translate(704px,16px)}52.68%{transform:translate(704px,0px)}54.57%{transform:translate(800px,0px)}55.84%{transform:translate(800px,64px)}56.15%{transform:translate(784px,64px)}56.47%{transform:translate(784px,48px)}57.1%{transform:translate(816px,48px)}57.73%{transform:translate(816px,16px)}58.04%,82.02%{transform:translate(832px,16px)}58.36%{transform:translate(832px,0px)}61.2%{transform:translate(688px,0px)}63.09%{transform:translate(688px,96px)}63.41%{transform:translate(672px,96px)}64.04%{transform:translate(672px,64px)}68.14%{transform:translate(464px,64px)}68.45%{transform:translate(464px,80px)}69.09%{transform:translate(496px,80px)}69.4%{transform:translate(496px,96px)}72.24%{transform:translate(640px,96px)}73.5%{transform:translate(640px,32px)}75.71%{transform:translate(528px,32px)}82.33%{transform:translate(832px,32px)}95.9%{transform:translate(160px,16px)}97.79%{transform:translate(80px,0px)}98.11%{transform:translate(64px,0px)}98.42%{transform:translate(64px,-16px)}}.s.s0{transform:translate(0px,-16px);animation-name:s0}@keyframes s1{0%,99.68%{transform:translate(16px,-16px)}0.32%{transform:translate(0px,-16px)}0.63%{transform:translate(0px,0px)}0.95%{transform:translate(16px,0px)}1.26%{transform:translate(16px,16px)}2.52%,97.79%{transform:translate(80px,16px)}2.84%{transform:translate(80px,32px)}3.15%{transform:translate(64px,32px)}4.42%{transform:translate(64px,96px)}4.73%{transform:translate(48px,96px)}5.05%{transform:translate(48px,80px)}6.62%{transform:translate(128px,80px)}6.94%{transform:translate(128px,64px)}7.57%{transform:translate(160px,64px)}8.2%,23.34%,95.9%{transform:translate(160px,32px)}9.15%{transform:translate(208px,32px)}9.78%{transform:translate(208px,0px)}10.41%{transform:translate(240px,0px)}10.73%{transform:translate(240px,16px)}11.36%{transform:translate(272px,16px)}11.67%,17.98%{transform:translate(272px,0px)}12.3%{transform:translate(304px,0px)}13.56%{transform:translate(304px,64px)}14.2%{transform:translate(336px,64px)}14.51%{transform:translate(336px,48px)}14.83%{transform:translate(352px,48px)}15.46%{transform:translate(352px,16px)}15.77%{transform:translate(368px,16px)}16.09%{transform:translate(368px,0px)}18.93%{transform:translate(272px,48px)}20.19%{transform:translate(208px,48px)}20.5%{transform:translate(208px,64px)}20.82%{transform:translate(192px,64px)}21.45%{transform:translate(192px,96px)}22.08%{transform:translate(160px,96px)}23.66%{transform:translate(144px,32px)}24.29%{transform:translate(144px,0px)}24.61%{transform:translate(160px,0px)}24.92%{transform:translate(160px,-16px)}25.55%{transform:translate(128px,-16px)}25.87%{transform:translate(128px,0px)}28.39%{transform:translate(256px,0px)}29.65%{transform:translate(256px,64px)}29.97%{transform:translate(272px,64px)}30.28%{transform:translate(272px,80px)}30.6%{transform:translate(256px,80px)}30.91%{transform:translate(256px,96px)}34.07%{transform:translate(416px,96px)}34.38%{transform:translate(416px,80px)}35.02%{transform:translate(384px,80px)}35.33%{transform:translate(384px,64px)}37.22%{transform:translate(480px,64px)}37.54%{transform:translate(480px,48px)}37.85%{transform:translate(464px,48px)}38.8%{transform:translate(464px,0px)}39.12%{transform:translate(448px,0px)}39.43%{transform:translate(448px,16px)}39.75%{transform:translate(432px,16px)}40.06%{transform:translate(432px,32px)}41.64%{transform:translate(512px,32px)}41.96%{transform:translate(512px,16px)}42.27%,76.34%{transform:translate(528px,16px)}42.59%{transform:translate(528px,0px)}42.9%{transform:translate(512px,0px)}44.48%{transform:translate(512px,80px)}45.43%{transform:translate(560px,80px)}45.74%{transform:translate(560px,64px)}47.32%{transform:translate(640px,64px)}47.63%{transform:translate(640px,80px)}47.95%{transform:translate(624px,80px)}48.26%{transform:translate(624px,96px)}48.58%{transform:translate(608px,96px)}48.9%{transform:translate(608px,80px)}49.21%{transform:translate(592px,80px)}49.53%{transform:translate(592px,64px)}50.16%{transform:translate(624px,64px)}51.1%{transform:translate(624px,16px)}52.68%{transform:translate(704px,16px)}53%{transform:translate(704px,0px)}54.89%{transform:translate(800px,0px)}56.15%{transform:translate(800px,64px)}56.47%{transform:translate(784px,64px)}56.78%{transform:translate(784px,48px)}57.41%{transform:translate(816px,48px)}58.04%{transform:translate(816px,16px)}58.36%,82.33%{transform:translate(832px,16px)}58.68%{transform:translate(832px,0px)}61.51%{transform:translate(688px,0px)}63.41%{transform:translate(688px,96px)}63.72%{transform:translate(672px,96px)}64.35%{transform:translate(672px,64px)}68.45%{transform:translate(464px,64px)}68.77%{transform:translate(464px,80px)}69.4%{transform:translate(496px,80px)}69.72%{transform:translate(496px,96px)}72.56%{transform:translate(640px,96px)}73.82%{transform:translate(640px,32px)}76.03%{transform:translate(528px,32px)}82.65%{transform:translate(832px,32px)}96.21%{transform:translate(160px,16px)}98.11%{transform:translate(80px,0px)}98.42%{transform:translate(64px,0px)}98.74%{transform:translate(64px,-16px)}}.s.s1{transform:translate(16px,-16px);animation-name:s1}@keyframes s2{0%,99.68%{transform:translate(32px,-16px)}0.63%{transform:translate(0px,-16px)}0.95%{transform:translate(0px,0px)}1.26%{transform:translate(16px,0px)}1.58%{transform:translate(16px,16px)}2.84%,98.11%{transform:translate(80px,16px)}3.15%{transform:translate(80px,32px)}3.47%{transform:translate(64px,32px)}4.73%{transform:translate(64px,96px)}5.05%{transform:translate(48px,96px)}5.36%{transform:translate(48px,80px)}6.94%{transform:translate(128px,80px)}7.26%{transform:translate(128px,64px)}7.89%{transform:translate(160px,64px)}8.52%,23.66%,96.21%{transform:translate(160px,32px)}9.46%{transform:translate(208px,32px)}10.09%{transform:translate(208px,0px)}10.73%{transform:translate(240px,0px)}11.04%{transform:translate(240px,16px)}11.67%{transform:translate(272px,16px)}11.99%,18.3%{transform:translate(272px,0px)}12.62%{transform:translate(304px,0px)}13.88%{transform:translate(304px,64px)}14.51%{transform:translate(336px,64px)}14.83%{transform:translate(336px,48px)}15.14%{transform:translate(352px,48px)}15.77%{transform:translate(352px,16px)}16.09%{transform:translate(368px,16px)}16.4%{transform:translate(368px,0px)}19.24%{transform:translate(272px,48px)}20.5%{transform:translate(208px,48px)}20.82%{transform:translate(208px,64px)}21.14%{transform:translate(192px,64px)}21.77%{transform:translate(192px,96px)}22.4%{transform:translate(160px,96px)}23.97%{transform:translate(144px,32px)}24.61%{transform:translate(144px,0px)}24.92%{transform:translate(160px,0px)}25.24%{transform:translate(160px,-16px)}25.87%{transform:translate(128px,-16px)}26.18%{transform:translate(128px,0px)}28.71%{transform:translate(256px,0px)}29.97%{transform:translate(256px,64px)}30.28%{transform:translate(272px,64px)}30.6%{transform:translate(272px,80px)}30.91%{transform:translate(256px,80px)}31.23%{transform:translate(256px,96px)}34.38%{transform:translate(416px,96px)}34.7%{transform:translate(416px,80px)}35.33%{transform:translate(384px,80px)}35.65%{transform:translate(384px,64px)}37.54%{transform:translate(480px,64px)}37.85%{transform:translate(480px,48px)}38.17%{transform:translate(464px,48px)}39.12%{transform:translate(464px,0px)}39.43%{transform:translate(448px,0px)}39.75%{transform:translate(448px,16px)}40.06%{transform:translate(432px,16px)}40.38%{transform:translate(432px,32px)}41.96%{transform:translate(512px,32px)}42.27%{transform:translate(512px,16px)}42.59%,76.66%{transform:translate(528px,16px)}42.9%{transform:translate(528px,0px)}43.22%{transform:translate(512px,0px)}44.79%{transform:translate(512px,80px)}45.74%{transform:translate(560px,80px)}46.06%{transform:translate(560px,64px)}47.63%{transform:translate(640px,64px)}47.95%{transform:translate(640px,80px)}48.26%{transform:translate(624px,80px)}48.58%{transform:translate(624px,96px)}48.9%{transform:translate(608px,96px)}49.21%{transform:translate(608px,80px)}49.53%{transform:translate(592px,80px)}49.84%{transform:translate(592px,64px)}50.47%{transform:translate(624px,64px)}51.42%{transform:translate(624px,16px)}53%{transform:translate(704px,16px)}53.31%{transform:translate(704px,0px)}55.21%{transform:translate(800px,0px)}56.47%{transform:translate(800px,64px)}56.78%{transform:translate(784px,64px)}57.1%{transform:translate(784px,48px)}57.73%{transform:translate(816px,48px)}58.36%{transform:translate(816px,16px)}58.68%,82.65%{transform:translate(832px,16px)}58.99%{transform:translate(832px,0px)}61.83%{transform:translate(688px,0px)}63.72%{transform:translate(688px,96px)}64.04%{transform:translate(672px,96px)}64.67%{transform:translate(672px,64px)}68.77%{transform:translate(464px,64px)}69.09%{transform:translate(464px,80px)}69.72%{transform:translate(496px,80px)}70.03%{transform:translate(496px,96px)}72.87%{transform:translate(640px,96px)}74.13%{transform:translate(640px,32px)}76.34%{transform:translate(528px,32px)}82.97%{transform:translate(832px,32px)}96.53%{transform:translate(160px,16px)}98.42%{transform:translate(80px,0px)}98.74%{transform:translate(64px,0px)}99.05%{transform:translate(64px,-16px)}}.s.s2{transform:translate(32px,-16px);animation-name:s2}@keyframes s3{0%,99.68%{transform:translate(48px,-16px)}0.95%{transform:translate(0px,-16px)}1.26%{transform:translate(0px,0px)}1.58%{transform:translate(16px,0px)}1.89%{transform:translate(16px,16px)}3.15%,98.42%{transform:translate(80px,16px)}3.47%{transform:translate(80px,32px)}3.79%{transform:translate(64px,32px)}5.05%{transform:translate(64px,96px)}5.36%{transform:translate(48px,96px)}5.68%{transform:translate(48px,80px)}7.26%{transform:translate(128px,80px)}7.57%{transform:translate(128px,64px)}8.2%{transform:translate(160px,64px)}8.83%,23.97%,96.53%{transform:translate(160px,32px)}9.78%{transform:translate(208px,32px)}10.41%{transform:translate(208px,0px)}11.04%{transform:translate(240px,0px)}11.36%{transform:translate(240px,16px)}11.99%{transform:translate(272px,16px)}12.3%,18.61%{transform:translate(272px,0px)}12.93%{transform:translate(304px,0px)}14.2%{transform:translate(304px,64px)}14.83%{transform:translate(336px,64px)}15.14%{transform:translate(336px,48px)}15.46%{transform:translate(352px,48px)}16.09%{transform:translate(352px,16px)}16.4%{transform:translate(368px,16px)}16.72%{transform:translate(368px,0px)}19.56%{transform:translate(272px,48px)}20.82%{transform:translate(208px,48px)}21.14%{transform:translate(208px,64px)}21.45%{transform:translate(192px,64px)}22.08%{transform:translate(192px,96px)}22.71%{transform:translate(160px,96px)}24.29%{transform:translate(144px,32px)}24.92%{transform:translate(144px,0px)}25.24%{transform:translate(160px,0px)}25.55%{transform:translate(160px,-16px)}26.18%{transform:translate(128px,-16px)}26.5%{transform:translate(128px,0px)}29.02%{transform:translate(256px,0px)}30.28%{transform:translate(256px,64px)}30.6%{transform:translate(272px,64px)}30.91%{transform:translate(272px,80px)}31.23%{transform:translate(256px,80px)}31.55%{transform:translate(256px,96px)}34.7%{transform:translate(416px,96px)}35.02%{transform:translate(416px,80px)}35.65%{transform:translate(384px,80px)}35.96%{transform:translate(384px,64px)}37.85%{transform:translate(480px,64px)}38.17%{transform:translate(480px,48px)}38.49%{transform:translate(464px,48px)}39.43%{transform:translate(464px,0px)}39.75%{transform:translate(448px,0px)}40.06%{transform:translate(448px,16px)}40.38%{transform:translate(432px,16px)}40.69%{transform:translate(432px,32px)}42.27%{transform:translate(512px,32px)}42.59%{transform:translate(512px,16px)}42.9%,76.97%{transform:translate(528px,16px)}43.22%{transform:translate(528px,0px)}43.53%{transform:translate(512px,0px)}45.11%{transform:translate(512px,80px)}46.06%{transform:translate(560px,80px)}46.37%{transform:translate(560px,64px)}47.95%{transform:translate(640px,64px)}48.26%{transform:translate(640px,80px)}48.58%{transform:translate(624px,80px)}48.9%{transform:translate(624px,96px)}49.21%{transform:translate(608px,96px)}49.53%{transform:translate(608px,80px)}49.84%{transform:translate(592px,80px)}50.16%{transform:translate(592px,64px)}50.79%{transform:translate(624px,64px)}51.74%{transform:translate(624px,16px)}53.31%{transform:translate(704px,16px)}53.63%{transform:translate(704px,0px)}55.52%{transform:translate(800px,0px)}56.78%{transform:translate(800px,64px)}57.1%{transform:translate(784px,64px)}57.41%{transform:translate(784px,48px)}58.04%{transform:translate(816px,48px)}58.68%{transform:translate(816px,16px)}58.99%,82.97%{transform:translate(832px,16px)}59.31%{transform:translate(832px,0px)}62.15%{transform:translate(688px,0px)}64.04%{transform:translate(688px,96px)}64.35%{transform:translate(672px,96px)}64.98%{transform:translate(672px,64px)}69.09%{transform:translate(464px,64px)}69.4%{transform:translate(464px,80px)}70.03%{transform:translate(496px,80px)}70.35%{transform:translate(496px,96px)}73.19%{transform:translate(640px,96px)}74.45%{transform:translate(640px,32px)}76.66%{transform:translate(528px,32px)}83.28%{transform:translate(832px,32px)}96.85%{transform:translate(160px,16px)}98.74%{transform:translate(80px,0px)}99.05%{transform:translate(64px,0px)}99.37%{transform:translate(64px,-16px)}}.s.s3{transform:translate(48px,-16px);animation-name:s3}</style><rect class="c" x="2" y="2" rx="2" ry="2"/><rect class="c" x="2" y="18" rx="2" ry="2"/><rect class="c" x="2" y="34" rx="2" ry="2"/><rect class="c" x="2" y="50" rx="2" ry="2"/><rect class="c" x="2" y="66" rx="2" ry="2"/><rect class="c" x="2" y="82" rx="2" ry="2"/><rect class="c" x="2" y="98" rx="2" ry="2"/><rect class="c" x="18" y="2" rx="2" ry="2"/><rect class="c c0" x="18" y="18" rx="2" ry="2"/><rect class="c" x="18" y="34" rx="2" ry="2"/><rect class="c" x="18" y="50" rx="2" ry="2"/><rect class="c" x="18" y="66" rx="2" ry="2"/><rect class="c" x="18" y="82" rx="2" ry="2"/><rect class="c" x="18" y="98" rx="2" ry="2"/><rect class="c" x="34" y="2" rx="2" ry="2"/><rect class="c" x="34" y="18" rx="2" ry="2"/><rect class="c" x="34" y="34" rx="2" ry="2"/><rect class="c" x="34" y="50" rx="2" ry="2"/><rect class="c" x="34" y="66" rx="2" ry="2"/><rect class="c" x="34" y="82" rx="2" ry="2"/><rect class="c" x="34" y="98" rx="2" ry="2"/><rect class="c" x="50" y="2" rx="2" ry="2"/><rect class="c" x="50" y="18" rx="2" ry="2"/><rect class="c" x="50" y="34" rx="2" ry="2"/><rect class="c" x="50" y="50" rx="2" ry="2"/><rect class="c" x="50" y="66" rx="2" ry="2"/><rect class="c" x="50" y="82" rx="2" ry="2"/><rect class="c c1" x="50" y="98" rx="2" ry="2"/><rect class="c" x="66" y="2" rx="2" ry="2"/><rect class="c" x="66" y="18" rx="2" ry="2"/><rect class="c" x="66" y="34" rx="2" ry="2"/><rect class="c c2" x="66" y="50" rx="2" ry="2"/><rect class="c" x="66" y="66" rx="2" ry="2"/><rect class="c" x="66" y="82" rx="2" ry="2"/><rect class="c c3" x="66" y="98" rx="2" ry="2"/><rect class="c" x="82" y="2" rx="2" ry="2"/><rect class="c" x="82" y="18" rx="2" ry="2"/><rect class="c c4" x="82" y="34" rx="2" ry="2"/><rect class="c" x="82" y="50" rx="2" ry="2"/><rect class="c" x="82" y="66" rx="2" ry="2"/><rect class="c" x="82" y="82" rx="2" ry="2"/><rect class="c" x="82" y="98" rx="2" ry="2"/><rect class="c" x="98" y="2" rx="2" ry="2"/><rect class="c" x="98" y="18" rx="2" ry="2"/><rect class="c" x="98" y="34" rx="2" ry="2"/><rect class="c" x="98" y="50" rx="2" ry="2"/><rect class="c" x="98" y="66" rx="2" ry="2"/><rect class="c" x="98" y="82" rx="2" ry="2"/><rect class="c" x="98" y="98" rx="2" ry="2"/><rect class="c" x="114" y="2" rx="2" ry="2"/><rect class="c" x="114" y="18" rx="2" ry="2"/><rect class="c" x="114" y="34" rx="2" ry="2"/><rect class="c" x="114" y="50" rx="2" ry="2"/><rect class="c" x="114" y="66" rx="2" ry="2"/><rect class="c" x="114" y="82" rx="2" ry="2"/><rect class="c" x="114" y="98" rx="2" ry="2"/><rect class="c c5" x="130" y="2" rx="2" ry="2"/><rect class="c" x="130" y="18" rx="2" ry="2"/><rect class="c" x="130" y="34" rx="2" ry="2"/><rect class="c" x="130" y="50" rx="2" ry="2"/><rect class="c c6" x="130" y="66" rx="2" ry="2"/><rect class="c c7" x="130" y="82" rx="2" ry="2"/><rect class="c" x="130" y="98" rx="2" ry="2"/><rect class="c c8" x="146" y="2" rx="2" ry="2"/><rect class="c c9" x="146" y="18" rx="2" ry="2"/><rect class="c ca" x="146" y="34" rx="2" ry="2"/><rect class="c" x="146" y="50" rx="2" ry="2"/><rect class="c" x="146" y="66" rx="2" ry="2"/><rect class="c" x="146" y="82" rx="2" ry="2"/><rect class="c" x="146" y="98" rx="2" ry="2"/><rect class="c cb" x="162" y="2" rx="2" ry="2"/><rect class="c" x="162" y="18" rx="2" ry="2"/><rect class="c cc" x="162" y="34" rx="2" ry="2"/><rect class="c cd" x="162" y="50" rx="2" ry="2"/><rect class="c ce" x="162" y="66" rx="2" ry="2"/><rect class="c cf" x="162" y="82" rx="2" ry="2"/><rect class="c cg" x="162" y="98" rx="2" ry="2"/><rect class="c" x="178" y="2" rx="2" ry="2"/><rect class="c" x="178" y="18" rx="2" ry="2"/><rect class="c ch" x="178" y="34" rx="2" ry="2"/><rect class="c" x="178" y="50" rx="2" ry="2"/><rect class="c" x="178" y="66" rx="2" ry="2"/><rect class="c" x="178" y="82" rx="2" ry="2"/><rect class="c" x="178" y="98" rx="2" ry="2"/><rect class="c" x="194" y="2" rx="2" ry="2"/><rect class="c" x="194" y="18" rx="2" ry="2"/><rect class="c" x="194" y="34" rx="2" ry="2"/><rect class="c" x="194" y="50" rx="2" ry="2"/><rect class="c" x="194" y="66" rx="2" ry="2"/><rect class="c ci" x="194" y="82" rx="2" ry="2"/><rect class="c cj" x="194" y="98" rx="2" ry="2"/><rect class="c ck" x="210" y="2" rx="2" ry="2"/><rect class="c cl" x="210" y="18" rx="2" ry="2"/><rect class="c cm" x="210" y="34" rx="2" ry="2"/><rect class="c cn" x="210" y="50" rx="2" ry="2"/><rect class="c co" x="210" y="66" rx="2" ry="2"/><rect class="c" x="210" y="82" rx="2" ry="2"/><rect class="c" x="210" y="98" rx="2" ry="2"/><rect class="c" x="226" y="2" rx="2" ry="2"/><rect class="c" x="226" y="18" rx="2" ry="2"/><rect class="c" x="226" y="34" rx="2" ry="2"/><rect class="c" x="226" y="50" rx="2" ry="2"/><rect class="c" x="226" y="66" rx="2" ry="2"/><rect class="c" x="226" y="82" rx="2" ry="2"/><rect class="c" x="226" y="98" rx="2" ry="2"/><rect class="c" x="242" y="2" rx="2" ry="2"/><rect class="c cp" x="242" y="18" rx="2" ry="2"/><rect class="c" x="242" y="34" rx="2" ry="2"/><rect class="c cq" x="242" y="50" rx="2" ry="2"/><rect class="c" x="242" y="66" rx="2" ry="2"/><rect class="c" x="242" y="82" rx="2" ry="2"/><rect class="c" x="242" y="98" rx="2" ry="2"/><rect class="c" x="258" y="2" rx="2" ry="2"/><rect class="c" x="258" y="18" rx="2" ry="2"/><rect class="c" x="258" y="34" rx="2" ry="2"/><rect class="c cr" x="258" y="50" rx="2" ry="2"/><rect class="c cs" x="258" y="66" rx="2" ry="2"/><rect class="c ct" x="258" y="82" rx="2" ry="2"/><rect class="c cu" x="258" y="98" rx="2" ry="2"/><rect class="c cv" x="274" y="2" rx="2" ry="2"/><rect class="c cw" x="274" y="18" rx="2" ry="2"/><rect class="c cx" x="274" y="34" rx="2" ry="2"/><rect class="c cy" x="274" y="50" rx="2" ry="2"/><rect class="c cz" x="274" y="66" rx="2" ry="2"/><rect class="c c10" x="274" y="82" rx="2" ry="2"/><rect class="c c11" x="274" y="98" rx="2" ry="2"/><rect class="c" x="290" y="2" rx="2" ry="2"/><rect class="c" x="290" y="18" rx="2" ry="2"/><rect class="c" x="290" y="34" rx="2" ry="2"/><rect class="c" x="290" y="50" rx="2" ry="2"/><rect class="c" x="290" y="66" rx="2" ry="2"/><rect class="c" x="290" y="82" rx="2" ry="2"/><rect class="c" x="290" y="98" rx="2" ry="2"/><rect class="c c12" x="306" y="2" rx="2" ry="2"/><rect class="c" x="306" y="18" rx="2" ry="2"/><rect class="c c13" x="306" y="34" rx="2" ry="2"/><rect class="c c14" x="306" y="50" rx="2" ry="2"/><rect class="c c15" x="306" y="66" rx="2" ry="2"/><rect class="c" x="306" y="82" rx="2" ry="2"/><rect class="c c16" x="306" y="98" rx="2" ry="2"/><rect class="c" x="322" y="2" rx="2" ry="2"/><rect class="c" x="322" y="18" rx="2" ry="2"/><rect class="c" x="322" y="34" rx="2" ry="2"/><rect class="c" x="322" y="50" rx="2" ry="2"/><rect class="c c17" x="322" y="66" rx="2" ry="2"/><rect class="c" x="322" y="82" rx="2" ry="2"/><rect class="c" x="322" y="98" rx="2" ry="2"/><rect class="c" x="338" y="2" rx="2" ry="2"/><rect class="c" x="338" y="18" rx="2" ry="2"/><rect class="c" x="338" y="34" rx="2" ry="2"/><rect class="c c18" x="338" y="50" rx="2" ry="2"/><rect class="c c19" x="338" y="66" rx="2" ry="2"/><rect class="c" x="338" y="82" rx="2" ry="2"/><rect class="c" x="338" y="98" rx="2" ry="2"/><rect class="c c1a" x="354" y="2" rx="2" ry="2"/><rect class="c c1b" x="354" y="18" rx="2" ry="2"/><rect class="c c1c" x="354" y="34" rx="2" ry="2"/><rect class="c" x="354" y="50" rx="2" ry="2"/><rect class="c" x="354" y="66" rx="2" ry="2"/><rect class="c" x="354" y="82" rx="2" ry="2"/><rect class="c" x="354" y="98" rx="2" ry="2"/><rect class="c" x="370" y="2" rx="2" ry="2"/><rect class="c c1d" x="370" y="18" rx="2" ry="2"/><rect class="c" x="370" y="34" rx="2" ry="2"/><rect class="c" x="370" y="50" rx="2" ry="2"/><rect class="c" x="370" y="66" rx="2" ry="2"/><rect class="c" x="370" y="82" rx="2" ry="2"/><rect class="c" x="370" y="98" rx="2" ry="2"/><rect class="c" x="386" y="2" rx="2" ry="2"/><rect class="c" x="386" y="18" rx="2" ry="2"/><rect class="c" x="386" y="34" rx="2" ry="2"/><rect class="c" x="386" y="50" rx="2" ry="2"/><rect class="c" x="386" y="66" rx="2" ry="2"/><rect class="c c1e" x="386" y="82" rx="2" ry="2"/><rect class="c c1f" x="386" y="98" rx="2" ry="2"/><rect class="c" x="402" y="2" rx="2" ry="2"/><rect class="c" x="402" y="18" rx="2" ry="2"/><rect class="c" x="402" y="34" rx="2" ry="2"/><rect class="c" x="402" y="50" rx="2" ry="2"/><rect class="c" x="402" y="66" rx="2" ry="2"/><rect class="c c1g" x="402" y="82" rx="2" ry="2"/><rect class="c c1h" x="402" y="98" rx="2" ry="2"/><rect class="c" x="418" y="2" rx="2" ry="2"/><rect class="c" x="418" y="18" rx="2" ry="2"/><rect class="c" x="418" y="34" rx="2" ry="2"/><rect class="c" x="418" y="50" rx="2" ry="2"/><rect class="c" x="418" y="66" rx="2" ry="2"/><rect class="c c1i" x="418" y="82" rx="2" ry="2"/><rect class="c c1j" x="418" y="98" rx="2" ry="2"/><rect class="c" x="434" y="2" rx="2" ry="2"/><rect class="c" x="434" y="18" rx="2" ry="2"/><rect class="c c1k" x="434" y="34" rx="2" ry="2"/><rect class="c" x="434" y="50" rx="2" ry="2"/><rect class="c" x="434" y="66" rx="2" ry="2"/><rect class="c" x="434" y="82" rx="2" ry="2"/><rect class="c" x="434" y="98" rx="2" ry="2"/><rect class="c c1l" x="450" y="2" rx="2" ry="2"/><rect class="c c1m" x="450" y="18" rx="2" ry="2"/><rect class="c" x="450" y="34" rx="2" ry="2"/><rect class="c" x="450" y="50" rx="2" ry="2"/><rect class="c" x="450" y="66" rx="2" ry="2"/><rect class="c" x="450" y="82" rx="2" ry="2"/><rect class="c" x="450" y="98" rx="2" ry="2"/><rect class="c c1n" x="466" y="2" rx="2" ry="2"/><rect class="c c1o" x="466" y="18" rx="2" ry="2"/><rect class="c c1p" x="466" y="34" rx="2" ry="2"/><rect class="c c1q" x="466" y="50" rx="2" ry="2"/><rect class="c c1r" x="466" y="66" rx="2" ry="2"/><rect class="c c1s" x="466" y="82" rx="2" ry="2"/><rect class="c" x="466" y="98" rx="2" ry="2"/><rect class="c" x="482" y="2" rx="2" ry="2"/><rect class="c" x="482" y="18" rx="2" ry="2"/><rect class="c" x="482" y="34" rx="2" ry="2"/><rect class="c c1t" x="482" y="50" rx="2" ry="2"/><rect class="c c1u" x="482" y="66" rx="2" ry="2"/><rect class="c c1v" x="482" y="82" rx="2" ry="2"/><rect class="c" x="482" y="98" rx="2" ry="2"/><rect class="c" x="498" y="2" rx="2" ry="2"/><rect class="c" x="498" y="18" rx="2" ry="2"/><rect class="c" x="498" y="34" rx="2" ry="2"/><rect class="c" x="498" y="50" rx="2" ry="2"/><rect class="c" x="498" y="66" rx="2" ry="2"/><rect class="c" x="498" y="82" rx="2" ry="2"/><rect class="c c1w" x="498" y="98" rx="2" ry="2"/><rect class="c c1x" x="514" y="2" rx="2" ry="2"/><rect class="c c1y" x="514" y="18" rx="2" ry="2"/><rect class="c c1z" x="514" y="34" rx="2" ry="2"/><rect class="c" x="514" y="50" rx="2" ry="2"/><rect class="c" x="514" y="66" rx="2" ry="2"/><rect class="c c20" x="514" y="82" rx="2" ry="2"/><rect class="c" x="514" y="98" rx="2" ry="2"/><rect class="c" x="530" y="2" rx="2" ry="2"/><rect class="c c21" x="530" y="18" rx="2" ry="2"/><rect class="c c22" x="530" y="34" rx="2" ry="2"/><rect class="c" x="530" y="50" rx="2" ry="2"/><rect class="c" x="530" y="66" rx="2" ry="2"/><rect class="c" x="530" y="82" rx="2" ry="2"/><rect class="c" x="530" y="98" rx="2" ry="2"/><rect class="c" x="546" y="2" rx="2" ry="2"/><rect class="c" x="546" y="18" rx="2" ry="2"/><rect class="c" x="546" y="34" rx="2" ry="2"/><rect class="c" x="546" y="50" rx="2" ry="2"/><rect class="c" x="546" y="66" rx="2" ry="2"/><rect class="c c23" x="546" y="82" rx="2" ry="2"/><rect class="c" x="546" y="98" rx="2" ry="2"/><rect class="c" x="562" y="2" rx="2" ry="2"/><rect class="c" x="562" y="18" rx="2" ry="2"/><rect class="c" x="562" y="34" rx="2" ry="2"/><rect class="c" x="562" y="50" rx="2" ry="2"/><rect class="c c24" x="562" y="66" rx="2" ry="2"/><rect class="c" x="562" y="82" rx="2" ry="2"/><rect class="c" x="562" y="98" rx="2" ry="2"/><rect class="c" x="578" y="2" rx="2" ry="2"/><rect class="c" x="578" y="18" rx="2" ry="2"/><rect class="c" x="578" y="34" rx="2" ry="2"/><rect class="c" x="578" y="50" rx="2" ry="2"/><rect class="c" x="578" y="66" rx="2" ry="2"/><rect class="c" x="578" y="82" rx="2" ry="2"/><rect class="c" x="578" y="98" rx="2" ry="2"/><rect class="c" x="594" y="2" rx="2" ry="2"/><rect class="c" x="594" y="18" rx="2" ry="2"/><rect class="c" x="594" y="34" rx="2" ry="2"/><rect class="c" x="594" y="50" rx="2" ry="2"/><rect class="c" x="594" y="66" rx="2" ry="2"/><rect class="c c25" x="594" y="82" rx="2" ry="2"/><rect class="c" x="594" y="98" rx="2" ry="2"/><rect class="c" x="610" y="2" rx="2" ry="2"/><rect class="c" x="610" y="18" rx="2" ry="2"/><rect class="c" x="610" y="34" rx="2" ry="2"/><rect class="c" x="610" y="50" rx="2" ry="2"/><rect class="c c26" x="610" y="66" rx="2" ry="2"/><rect class="c" x="610" y="82" rx="2" ry="2"/><rect class="c" x="610" y="98" rx="2" ry="2"/><rect class="c" x="626" y="2" rx="2" ry="2"/><rect class="c" x="626" y="18" rx="2" ry="2"/><rect class="c" x="626" y="34" rx="2" ry="2"/><rect class="c" x="626" y="50" rx="2" ry="2"/><rect class="c" x="626" y="66" rx="2" ry="2"/><rect class="c c27" x="626" y="82" rx="2" ry="2"/><rect class="c c28" x="626" y="98" rx="2" ry="2"/><rect class="c" x="642" y="2" rx="2" ry="2"/><rect class="c c29" x="642" y="18" rx="2" ry="2"/><rect class="c c2a" x="642" y="34" rx="2" ry="2"/><rect class="c c2b" x="642" y="50" rx="2" ry="2"/><rect class="c c2c" x="642" y="66" rx="2" ry="2"/><rect class="c" x="642" y="82" rx="2" ry="2"/><rect class="c" x="642" y="98" rx="2" ry="2"/><rect class="c" x="658" y="2" rx="2" ry="2"/><rect class="c" x="658" y="18" rx="2" ry="2"/><rect class="c" x="658" y="34" rx="2" ry="2"/><rect class="c" x="658" y="50" rx="2" ry="2"/><rect class="c" x="658" y="66" rx="2" ry="2"/><rect class="c" x="658" y="82" rx="2" ry="2"/><rect class="c" x="658" y="98" rx="2" ry="2"/><rect class="c" x="674" y="2" rx="2" ry="2"/><rect class="c c2d" x="674" y="18" rx="2" ry="2"/><rect class="c" x="674" y="34" rx="2" ry="2"/><rect class="c" x="674" y="50" rx="2" ry="2"/><rect class="c" x="674" y="66" rx="2" ry="2"/><rect class="c" x="674" y="82" rx="2" ry="2"/><rect class="c" x="674" y="98" rx="2" ry="2"/><rect class="c" x="690" y="2" rx="2" ry="2"/><rect class="c c2e" x="690" y="18" rx="2" ry="2"/><rect class="c" x="690" y="34" rx="2" ry="2"/><rect class="c" x="690" y="50" rx="2" ry="2"/><rect class="c" x="690" y="66" rx="2" ry="2"/><rect class="c" x="690" y="82" rx="2" ry="2"/><rect class="c c2f" x="690" y="98" rx="2" ry="2"/><rect class="c c2g" x="706" y="2" rx="2" ry="2"/><rect class="c" x="706" y="18" rx="2" ry="2"/><rect class="c" x="706" y="34" rx="2" ry="2"/><rect class="c" x="706" y="50" rx="2" ry="2"/><rect class="c" x="706" y="66" rx="2" ry="2"/><rect class="c" x="706" y="82" rx="2" ry="2"/><rect class="c" x="706" y="98" rx="2" ry="2"/><rect class="c" x="722" y="2" rx="2" ry="2"/><rect class="c" x="722" y="18" rx="2" ry="2"/><rect class="c" x="722" y="34" rx="2" ry="2"/><rect class="c" x="722" y="50" rx="2" ry="2"/><rect class="c" x="722" y="66" rx="2" ry="2"/><rect class="c" x="722" y="82" rx="2" ry="2"/><rect class="c" x="722" y="98" rx="2" ry="2"/><rect class="c" x="738" y="2" rx="2" ry="2"/><rect class="c" x="738" y="18" rx="2" ry="2"/><rect class="c" x="738" y="34" rx="2" ry="2"/><rect class="c" x="738" y="50" rx="2" ry="2"/><rect class="c" x="738" y="66" rx="2" ry="2"/><rect class="c" x="738" y="82" rx="2" ry="2"/><rect class="c" x="738" y="98" rx="2" ry="2"/><rect class="c" x="754" y="2" rx="2" ry="2"/><rect class="c" x="754" y="18" rx="2" ry="2"/><rect class="c" x="754" y="34" rx="2" ry="2"/><rect class="c" x="754" y="50" rx="2" ry="2"/><rect class="c" x="754" y="66" rx="2" ry="2"/><rect class="c" x="754" y="82" rx="2" ry="2"/><rect class="c" x="754" y="98" rx="2" ry="2"/><rect class="c" x="770" y="2" rx="2" ry="2"/><rect class="c" x="770" y="18" rx="2" ry="2"/><rect class="c" x="770" y="34" rx="2" ry="2"/><rect class="c" x="770" y="50" rx="2" ry="2"/><rect class="c" x="770" y="66" rx="2" ry="2"/><rect class="c" x="770" y="82" rx="2" ry="2"/><rect class="c" x="770" y="98" rx="2" ry="2"/><rect class="c" x="786" y="2" rx="2" ry="2"/><rect class="c" x="786" y="18" rx="2" ry="2"/><rect class="c" x="786" y="34" rx="2" ry="2"/><rect class="c" x="786" y="50" rx="2" ry="2"/><rect class="c c2h" x="786" y="66" rx="2" ry="2"/><rect class="c" x="786" y="82" rx="2" ry="2"/><rect class="c" x="786" y="98" rx="2" ry="2"/><rect class="c" x="802" y="2" rx="2" ry="2"/><rect class="c c2i" x="802" y="18" rx="2" ry="2"/><rect class="c c2j" x="802" y="34" rx="2" ry="2"/><rect class="c" x="802" y="50" rx="2" ry="2"/><rect class="c c2k" x="802" y="66" rx="2" ry="2"/><rect class="c" x="802" y="82" rx="2" ry="2"/><rect class="c" x="802" y="98" rx="2" ry="2"/><rect class="c" x="818" y="2" rx="2" ry="2"/><rect class="c" x="818" y="18" rx="2" ry="2"/><rect class="c" x="818" y="34" rx="2" ry="2"/><rect class="c" x="818" y="50" rx="2" ry="2"/><rect class="c" x="818" y="66" rx="2" ry="2"/><rect class="c" x="818" y="82" rx="2" ry="2"/><rect class="c" x="818" y="98" rx="2" ry="2"/><rect class="c c2l" x="834" y="2" rx="2" ry="2"/><rect class="c" x="834" y="18" rx="2" ry="2"/><rect class="c c2m" x="834" y="34" rx="2" ry="2"/><rect class="u u0" height="12" width="795.0" x="0.0" y="144"/><rect class="u u1" height="12" width="36.3" x="794.4" y="144"/><rect class="u u2" height="12" width="9.5" x="830.1" y="144"/><rect class="u u3" height="12" width="9.5" x="839.1" y="144"/><rect class="s s0" x="0.8" y="0.8" width="14.4" height="14.4" rx="4.5" ry="4.5"/><rect class="s s1" x="1.8" y="1.8" width="12.3" height="12.3" rx="4.1" ry="4.1"/><rect class="s s2" x="2.6" y="2.6" width="10.8" height="10.8" rx="3.6" ry="3.6"/><rect class="s s3" x="3.0" y="3.0" width="9.9" height="9.9" rx="3.3" ry="3.3"/></svg>