<svg viewBox="-16 -32 880 192" width="880" height="192" xmlns="http://www.w3.org/2000/svg"><desc>Generated with https://github.com/Platane/snk</desc><style>:root{--cb:#1b1f230a;--cs:purple;--ce:#ebedf0;--c0:#ebedf0;--c1:#9be9a8;--c2:#40c463;--c3:#30a14e;--c4:#216e39}.c{shape-rendering:geometricPrecision;fill:var(--ce);stroke-width:1px;stroke:var(--cb);animation:none 30100ms linear infinite;width:12px;height:12px}@keyframes c0{0.99%{fill:var(--c1)}1.01%,100%{fill:var(--ce)}}.c.c0{fill:var(--c1);animation-name:c0}@keyframes c1{4.64%{fill:var(--c1)}4.66%,100%{fill:var(--ce)}}.c.c1{fill:var(--c1);animation-name:c1}@keyframes c2{3.31%{fill:var(--c1)}3.33%,100%{fill:var(--ce)}}.c.c2{fill:var(--c1);animation-name:c2}@keyframes c3{4.31%{fill:var(--c1)}4.33%,100%{fill:var(--ce)}}.c.c3{fill:var(--c1);animation-name:c3}@keyframes c4{2.65%{fill:var(--c1)}2.67%,100%{fill:var(--ce)}}.c.c4{fill:var(--c1);animation-name:c4}@keyframes c5{26.9%{fill:var(--c1)}26.92%,100%{fill:var(--ce)}}.c.c5{fill:var(--c1);animation-name:c5}@keyframes c6{6.97%{fill:var(--c1)}6.99%,100%{fill:var(--ce)}}.c.c6{fill:var(--c1);animation-name:c6}@keyframes c7{6.63%{fill:var(--c1)}6.65%,100%{fill:var(--ce)}}.c.c7{fill:var(--c1);animation-name:c7}@keyframes c8{25.24%{fill:var(--c1)}25.26%,100%{fill:var(--ce)}}.c.c8{fill:var(--c1);animation-name:c8}@keyframes c9{24.91%{fill:var(--c1)}24.93%,100%{fill:var(--ce)}}.c.c9{fill:var(--c1);animation-name:c9}@keyframes ca{24.57%{fill:var(--c1)}24.59%,100%{fill:var(--ce)}}.c.ca{fill:var(--c1);animation-name:ca}@keyframes cb{25.57%{fill:var(--c1)}25.59%,100%{fill:var(--ce)}}.c.cb{fill:var(--c1);animation-name:cb}@keyframes cc{8.3%{fill:var(--c1)}8.32%,100%{fill:var(--ce)}}.c.cc{fill:var(--c1);animation-name:cc}@keyframes cd{7.96%{fill:var(--c1)}7.98%,100%{fill:var(--ce)}}.c.cd{fill:var(--c1);animation-name:cd}@keyframes ce{7.63%{fill:var(--c1)}7.65%,100%{fill:var(--ce)}}.c.ce{fill:var(--c1);animation-name:ce}@keyframes cf{23.25%{fill:var(--c1)}23.27%,100%{fill:var(--ce)}}.c.cf{fill:var(--c1);animation-name:cf}@keyframes cg{22.91%{fill:var(--c1)}22.93%,100%{fill:var(--ce)}}.c.cg{fill:var(--c1);animation-name:cg}@keyframes ch{8.63%{fill:var(--c1)}8.65%,100%{fill:var(--ce)}}.c.ch{fill:var(--c1);animation-name:ch}@keyframes ci{21.92%{fill:var(--c1)}21.94%,100%{fill:var(--ce)}}.c.ci{fill:var(--c1);animation-name:ci}@keyframes cj{22.25%{fill:var(--c1)}22.27%,100%{fill:var(--ce)}}.c.cj{fill:var(--c1);animation-name:cj}@keyframes ck{9.96%{fill:var(--c1)}9.98%,100%{fill:var(--ce)}}.c.ck{fill:var(--c1);animation-name:ck}@keyframes cl{9.62%{fill:var(--c1)}9.64%,100%{fill:var(--ce)}}.c.cl{fill:var(--c1);animation-name:cl}@keyframes cm{9.29%{fill:var(--c1)}9.31%,100%{fill:var(--ce)}}.c.cm{fill:var(--c1);animation-name:cm}@keyframes cn{20.92%{fill:var(--c1)}20.94%,100%{fill:var(--ce)}}.c.cn{fill:var(--c1);animation-name:cn}@keyframes co{21.25%{fill:var(--c1)}21.27%,100%{fill:var(--ce)}}.c.co{fill:var(--c1);animation-name:co}@keyframes cp{10.95%{fill:var(--c1)}10.97%,100%{fill:var(--ce)}}.c.cp{fill:var(--c1);animation-name:cp}@keyframes cq{20.26%{fill:var(--c1)}20.28%,100%{fill:var(--ce)}}.c.cq{fill:var(--c1);animation-name:cq}@keyframes cr{19.92%{fill:var(--c1)}19.94%,100%{fill:var(--ce)}}.c.cr{fill:var(--c1);animation-name:cr}@keyframes cs{30.89%{fill:var(--c1)}30.91%,100%{fill:var(--ce)}}.c.cs{fill:var(--c1);animation-name:cs}@keyframes ct{31.88%{fill:var(--c1)}31.9%,100%{fill:var(--ce)}}.c.ct{fill:var(--c1);animation-name:ct}@keyframes cu{32.22%{fill:var(--c1)}32.24%,100%{fill:var(--ce)}}.c.cu{fill:var(--c1);animation-name:cu}@keyframes cv{11.95%{fill:var(--c1)}11.97%,100%{fill:var(--ce)}}.c.cv{fill:var(--c1);animation-name:cv}@keyframes cw{11.62%{fill:var(--c1)}11.64%,100%{fill:var(--ce)}}.c.cw{fill:var(--c1);animation-name:cw}@keyframes cx{19.26%{fill:var(--c1)}19.28%,100%{fill:var(--ce)}}.c.cx{fill:var(--c1);animation-name:cx}@keyframes cy{19.59%{fill:var(--c1)}19.61%,100%{fill:var(--ce)}}.c.cy{fill:var(--c1);animation-name:cy}@keyframes cz{31.22%{fill:var(--c1)}31.24%,100%{fill:var(--ce)}}.c.cz{fill:var(--c1);animation-name:cz}@keyframes c10{31.55%{fill:var(--c1)}31.57%,100%{fill:var(--ce)}}.c.c10{fill:var(--c1);animation-name:c10}@keyframes c11{32.55%{fill:var(--c1)}32.57%,100%{fill:var(--ce)}}.c.c11{fill:var(--c1);animation-name:c11}@keyframes c12{12.61%{fill:var(--c1)}12.63%,100%{fill:var(--ce)}}.c.c12{fill:var(--c1);animation-name:c12}@keyframes c13{13.28%{fill:var(--c1)}13.3%,100%{fill:var(--ce)}}.c.c13{fill:var(--c1);animation-name:c13}@keyframes c14{13.61%{fill:var(--c1)}13.63%,100%{fill:var(--ce)}}.c.c14{fill:var(--c1);animation-name:c14}@keyframes c15{13.94%{fill:var(--c1)}13.96%,100%{fill:var(--ce)}}.c.c15{fill:var(--c1);animation-name:c15}@keyframes c16{33.21%{fill:var(--c1)}33.23%,100%{fill:var(--ce)}}.c.c16{fill:var(--c1);animation-name:c16}@keyframes c17{14.28%{fill:var(--c1)}14.3%,100%{fill:var(--ce)}}.c.c17{fill:var(--c1);animation-name:c17}@keyframes c18{14.94%{fill:var(--c1)}14.96%,100%{fill:var(--ce)}}.c.c18{fill:var(--c1);animation-name:c18}@keyframes c19{14.61%{fill:var(--c1)}14.63%,100%{fill:var(--ce)}}.c.c19{fill:var(--c1);animation-name:c19}@keyframes c1a{16.93%{fill:var(--c1)}16.95%,100%{fill:var(--ce)}}.c.c1a{fill:var(--c1);animation-name:c1a}@keyframes c1b{15.94%{fill:var(--c1)}15.96%,100%{fill:var(--ce)}}.c.c1b{fill:var(--c1);animation-name:c1b}@keyframes c1c{15.6%{fill:var(--c1)}15.62%,100%{fill:var(--ce)}}.c.c1c{fill:var(--c1);animation-name:c1c}@keyframes c1d{16.27%{fill:var(--c1)}16.29%,100%{fill:var(--ce)}}.c.c1d{fill:var(--c1);animation-name:c1d}@keyframes c1e{36.53%{fill:var(--c1)}36.55%,100%{fill:var(--ce)}}.c.c1e{fill:var(--c1);animation-name:c1e}@keyframes c1f{34.87%{fill:var(--c1)}34.89%,100%{fill:var(--ce)}}.c.c1f{fill:var(--c1);animation-name:c1f}@keyframes c1g{36.2%{fill:var(--c1)}36.22%,100%{fill:var(--ce)}}.c.c1g{fill:var(--c1);animation-name:c1g}@keyframes c1h{35.21%{fill:var(--c1)}35.23%,100%{fill:var(--ce)}}.c.c1h{fill:var(--c1);animation-name:c1h}@keyframes c1i{35.87%{fill:var(--c1)}35.89%,100%{fill:var(--ce)}}.c.c1i{fill:var(--c1);animation-name:c1i}@keyframes c1j{35.54%{fill:var(--c1)}35.56%,100%{fill:var(--ce)}}.c.c1j{fill:var(--c1);animation-name:c1j}@keyframes c1k{41.85%{fill:var(--c1)}41.87%,100%{fill:var(--ce)}}.c.c1k{fill:var(--c1);animation-name:c1k}@keyframes c1l{40.85%{fill:var(--c1)}40.87%,100%{fill:var(--ce)}}.c.c1l{fill:var(--c1);animation-name:c1l}@keyframes c1m{41.19%{fill:var(--c1)}41.21%,100%{fill:var(--ce)}}.c.c1m{fill:var(--c1);animation-name:c1m}@keyframes c1n{40.52%{fill:var(--c1)}40.54%,100%{fill:var(--ce)}}.c.c1n{fill:var(--c1);animation-name:c1n}@keyframes c1o{40.19%{fill:var(--c1)}40.21%,100%{fill:var(--ce)}}.c.c1o{fill:var(--c1);animation-name:c1o}@keyframes c1p{39.86%{fill:var(--c1)}39.88%,100%{fill:var(--ce)}}.c.c1p{fill:var(--c1);animation-name:c1p}@keyframes c1q{39.52%{fill:var(--c1)}39.54%,100%{fill:var(--ce)}}.c.c1q{fill:var(--c1);animation-name:c1q}@keyframes c1r{38.53%{fill:var(--c1)}38.55%,100%{fill:var(--ce)}}.c.c1r{fill:var(--c1);animation-name:c1r}@keyframes c1s{72.75%{fill:var(--c1)}72.77%,100%{fill:var(--ce)}}.c.c1s{fill:var(--c1);animation-name:c1s}@keyframes c1t{39.19%{fill:var(--c1)}39.21%,100%{fill:var(--ce)}}.c.c1t{fill:var(--c1);animation-name:c1t}@keyframes c1u{38.86%{fill:var(--c1)}38.88%,100%{fill:var(--ce)}}.c.c1u{fill:var(--c1);animation-name:c1u}@keyframes c1v{73.08%{fill:var(--c2)}73.1%,100%{fill:var(--ce)}}.c.c1v{fill:var(--c2);animation-name:c1v}@keyframes c1w{71.75%{fill:var(--c1)}71.77%,100%{fill:var(--ce)}}.c.c1w{fill:var(--c1);animation-name:c1w}@keyframes c1x{44.84%{fill:var(--c1)}44.86%,100%{fill:var(--ce)}}.c.c1x{fill:var(--c1);animation-name:c1x}@keyframes c1y{43.84%{fill:var(--c1)}43.86%,100%{fill:var(--ce)}}.c.c1y{fill:var(--c1);animation-name:c1y}@keyframes c1z{43.51%{fill:var(--c1)}43.53%,100%{fill:var(--ce)}}.c.c1z{fill:var(--c1);animation-name:c1z}@keyframes c20{46.5%{fill:var(--c1)}46.52%,100%{fill:var(--ce)}}.c.c20{fill:var(--c1);animation-name:c20}@keyframes c21{44.18%{fill:var(--c1)}44.2%,100%{fill:var(--ce)}}.c.c21{fill:var(--c1);animation-name:c21}@keyframes c22{75.07%{fill:var(--c2)}75.09%,100%{fill:var(--ce)}}.c.c22{fill:var(--c2);animation-name:c22}@keyframes c23{47.17%{fill:var(--c1)}47.19%,100%{fill:var(--ce)}}.c.c23{fill:var(--c1);animation-name:c23}@keyframes c24{47.83%{fill:var(--c1)}47.85%,100%{fill:var(--ce)}}.c.c24{fill:var(--c1);animation-name:c24}@keyframes c25{52.15%{fill:var(--c1)}52.17%,100%{fill:var(--ce)}}.c.c25{fill:var(--c1);animation-name:c25}@keyframes c26{48.83%{fill:var(--c1)}48.85%,100%{fill:var(--ce)}}.c.c26{fill:var(--c1);animation-name:c26}@keyframes c27{50.82%{fill:var(--c1)}50.84%,100%{fill:var(--ce)}}.c.c27{fill:var(--c1);animation-name:c27}@keyframes c28{51.15%{fill:var(--c1)}51.17%,100%{fill:var(--ce)}}.c.c28{fill:var(--c1);animation-name:c28}@keyframes c29{54.48%{fill:var(--c1)}54.5%,100%{fill:var(--ce)}}.c.c29{fill:var(--c1);animation-name:c29}@keyframes c2a{77.4%{fill:var(--c2)}77.42%,100%{fill:var(--ce)}}.c.c2a{fill:var(--c2);animation-name:c2a}@keyframes c2b{49.82%{fill:var(--c1)}49.84%,100%{fill:var(--ce)}}.c.c2b{fill:var(--c1);animation-name:c2b}@keyframes c2c{49.49%{fill:var(--c1)}49.51%,100%{fill:var(--ce)}}.c.c2c{fill:var(--c1);animation-name:c2c}@keyframes c2d{55.14%{fill:var(--c1)}55.16%,100%{fill:var(--ce)}}.c.c2d{fill:var(--c1);animation-name:c2d}@keyframes c2e{55.47%{fill:var(--c1)}55.49%,100%{fill:var(--ce)}}.c.c2e{fill:var(--c1);animation-name:c2e}@keyframes c2f{67.76%{fill:var(--c1)}67.78%,100%{fill:var(--ce)}}.c.c2f{fill:var(--c1);animation-name:c2f}@keyframes c2g{56.14%{fill:var(--c1)}56.16%,100%{fill:var(--ce)}}.c.c2g{fill:var(--c1);animation-name:c2g}@keyframes c2h{59.79%{fill:var(--c1)}59.81%,100%{fill:var(--ce)}}.c.c2h{fill:var(--c1);animation-name:c2h}@keyframes c2i{58.46%{fill:var(--c1)}58.48%,100%{fill:var(--ce)}}.c.c2i{fill:var(--c1);animation-name:c2i}@keyframes c2j{58.79%{fill:var(--c1)}58.81%,100%{fill:var(--ce)}}.c.c2j{fill:var(--c1);animation-name:c2j}@keyframes c2k{59.46%{fill:var(--c1)}59.48%,100%{fill:var(--ce)}}.c.c2k{fill:var(--c1);animation-name:c2k}@keyframes c2l{62.78%{fill:var(--c1)}62.8%,100%{fill:var(--ce)}}.c.c2l{fill:var(--c1);animation-name:c2l}@keyframes c2m{81.39%{fill:var(--c4)}81.41%,100%{fill:var(--ce)}}.c.c2m{fill:var(--c4);animation-name:c2m}@keyframes c2n{61.12%{fill:var(--c1)}61.14%,100%{fill:var(--ce)}}.c.c2n{fill:var(--c1);animation-name:c2n}.u{transform-origin:0 0;transform:scale(0,1);animation:none linear 30100ms infinite}@keyframes u0{0.99%{transform:scale(0.000,1)}1.01%,2.65%{transform:scale(0.011,1)}2.67%,3.31%{transform:scale(0.022,1)}3.33%,4.31%{transform:scale(0.033,1)}4.33%,4.64%{transform:scale(0.043,1)}4.66%,6.63%{transform:scale(0.054,1)}6.65%,6.97%{transform:scale(0.065,1)}6.99%,7.63%{transform:scale(0.076,1)}7.65%,7.96%{transform:scale(0.087,1)}7.98%,8.3%{transform:scale(0.098,1)}8.32%,8.63%{transform:scale(0.109,1)}8.65%,9.29%{transform:scale(0.120,1)}9.31%,9.62%{transform:scale(0.130,1)}9.64%,9.96%{transform:scale(0.141,1)}9.98%,10.95%{transform:scale(0.152,1)}10.97%,11.62%{transform:scale(0.163,1)}11.64%,11.95%{transform:scale(0.174,1)}11.97%,12.61%{transform:scale(0.185,1)}12.63%,13.28%{transform:scale(0.196,1)}13.3%,13.61%{transform:scale(0.207,1)}13.63%,13.94%{transform:scale(0.217,1)}13.96%,14.28%{transform:scale(0.228,1)}14.3%,14.61%{transform:scale(0.239,1)}14.63%,14.94%{transform:scale(0.250,1)}14.96%,15.6%{transform:scale(0.261,1)}15.62%,15.94%{transform:scale(0.272,1)}15.96%,16.27%{transform:scale(0.283,1)}16.29%,16.93%{transform:scale(0.293,1)}16.95%,19.26%{transform:scale(0.304,1)}19.28%,19.59%{transform:scale(0.315,1)}19.61%,19.92%{transform:scale(0.326,1)}19.94%,20.26%{transform:scale(0.337,1)}20.28%,20.92%{transform:scale(0.348,1)}20.94%,21.25%{transform:scale(0.359,1)}21.27%,21.92%{transform:scale(0.370,1)}21.94%,22.25%{transform:scale(0.380,1)}22.27%,22.91%{transform:scale(0.391,1)}22.93%,23.25%{transform:scale(0.402,1)}23.27%,24.57%{transform:scale(0.413,1)}24.59%,24.91%{transform:scale(0.424,1)}24.93%,25.24%{transform:scale(0.435,1)}25.26%,25.57%{transform:scale(0.446,1)}25.59%,26.9%{transform:scale(0.457,1)}26.92%,30.89%{transform:scale(0.467,1)}30.91%,31.22%{transform:scale(0.478,1)}31.24%,31.55%{transform:scale(0.489,1)}31.57%,31.88%{transform:scale(0.500,1)}31.9%,32.22%{transform:scale(0.511,1)}32.24%,32.55%{transform:scale(0.522,1)}32.57%,33.21%{transform:scale(0.533,1)}33.23%,34.87%{transform:scale(0.543,1)}34.89%,35.21%{transform:scale(0.554,1)}35.23%,35.54%{transform:scale(0.565,1)}35.56%,35.87%{transform:scale(0.576,1)}35.89%,36.2%{transform:scale(0.587,1)}36.22%,36.53%{transform:scale(0.598,1)}36.55%,38.53%{transform:scale(0.609,1)}38.55%,38.86%{transform:scale(0.620,1)}38.88%,39.19%{transform:scale(0.630,1)}39.21%,39.52%{transform:scale(0.641,1)}39.54%,39.86%{transform:scale(0.652,1)}39.88%,40.19%{transform:scale(0.663,1)}40.21%,40.52%{transform:scale(0.674,1)}40.54%,40.85%{transform:scale(0.685,1)}40.87%,41.19%{transform:scale(0.696,1)}41.21%,41.85%{transform:scale(0.707,1)}41.87%,43.51%{transform:scale(0.717,1)}43.53%,43.84%{transform:scale(0.728,1)}43.86%,44.18%{transform:scale(0.739,1)}44.2%,44.84%{transform:scale(0.750,1)}44.86%,46.5%{transform:scale(0.761,1)}46.52%,47.17%{transform:scale(0.772,1)}47.19%,47.83%{transform:scale(0.783,1)}47.85%,48.83%{transform:scale(0.793,1)}48.85%,49.49%{transform:scale(0.804,1)}49.51%,49.82%{transform:scale(0.815,1)}49.84%,50.82%{transform:scale(0.826,1)}50.84%,51.15%{transform:scale(0.837,1)}51.17%,52.15%{transform:scale(0.848,1)}52.17%,54.48%{transform:scale(0.859,1)}54.5%,55.14%{transform:scale(0.870,1)}55.16%,55.47%{transform:scale(0.880,1)}55.49%,56.14%{transform:scale(0.891,1)}56.16%,58.46%{transform:scale(0.902,1)}58.48%,58.79%{transform:scale(0.913,1)}58.81%,59.46%{transform:scale(0.924,1)}59.48%,59.79%{transform:scale(0.935,1)}59.81%,61.12%{transform:scale(0.946,1)}61.14%,62.78%{transform:scale(0.957,1)}62.8%,67.76%{transform:scale(0.967,1)}67.78%,71.75%{transform:scale(0.978,1)}71.77%,72.75%{transform:scale(0.989,1)}72.77%,100%{transform:scale(1.000,1)}}.u.u0{fill:var(--c1);animation-name:u0;transform-origin:0.0px 0}@keyframes u1{73.08%{transform:scale(0.000,1)}73.1%,75.07%{transform:scale(0.333,1)}75.09%,77.4%{transform:scale(0.667,1)}77.42%,100%{transform:scale(1.000,1)}}.u.u1{fill:var(--c2);animation-name:u1;transform-origin:812.7px 0}@keyframes u2{81.39%{transform:scale(0.000,1)}81.41%,100%{transform:scale(1.000,1)}}.u.u2{fill:var(--c4);animation-name:u2;transform-origin:839.2px 0}.s{shape-rendering:geometricPrecision;fill:var(--cs);animation:none linear 30100ms infinite}@keyframes s0{0%,99.67%{transform:translate(0px,-16px)}0.33%{transform:translate(0px,0px)}0.66%{transform:translate(16px,0px)}1%{transform:translate(16px,16px)}2.33%,97.34%{transform:translate(80px,16px)}2.66%{transform:translate(80px,32px)}2.99%{transform:translate(64px,32px)}4.32%{transform:translate(64px,96px)}4.65%{transform:translate(48px,96px)}4.98%{transform:translate(48px,80px)}6.64%{transform:translate(128px,80px)}6.98%{transform:translate(128px,64px)}7.64%{transform:translate(160px,64px)}8.31%,24.25%{transform:translate(160px,32px)}9.3%{transform:translate(208px,32px)}9.97%{transform:translate(208px,0px)}10.63%{transform:translate(240px,0px)}10.96%{transform:translate(240px,16px)}11.63%{transform:translate(272px,16px)}11.96%,18.6%{transform:translate(272px,0px)}12.62%{transform:translate(304px,0px)}13.95%{transform:translate(304px,64px)}14.62%{transform:translate(336px,64px)}14.95%{transform:translate(336px,48px)}15.28%{transform:translate(352px,48px)}15.95%{transform:translate(352px,16px)}16.28%{transform:translate(368px,16px)}16.61%{transform:translate(368px,0px)}19.6%{transform:translate(272px,48px)}20.93%{transform:translate(208px,48px)}21.26%{transform:translate(208px,64px)}21.59%{transform:translate(192px,64px)}22.26%{transform:translate(192px,96px)}22.92%{transform:translate(160px,96px)}24.58%{transform:translate(144px,32px)}25.25%{transform:translate(144px,0px)}25.58%{transform:translate(160px,0px)}25.91%{transform:translate(160px,-16px)}26.58%{transform:translate(128px,-16px)}26.91%{transform:translate(128px,0px)}29.57%{transform:translate(256px,0px)}30.9%{transform:translate(256px,64px)}31.23%{transform:translate(272px,64px)}31.56%{transform:translate(272px,80px)}31.89%{transform:translate(256px,80px)}32.23%{transform:translate(256px,96px)}35.55%{transform:translate(416px,96px)}35.88%{transform:translate(416px,80px)}36.54%{transform:translate(384px,80px)}36.88%{transform:translate(384px,64px)}38.87%{transform:translate(480px,64px)}39.2%{transform:translate(480px,48px)}39.53%{transform:translate(464px,48px)}40.53%{transform:translate(464px,0px)}40.86%{transform:translate(448px,0px)}41.2%{transform:translate(448px,16px)}41.53%{transform:translate(432px,16px)}41.86%{transform:translate(432px,32px)}43.52%{transform:translate(512px,32px)}43.85%{transform:translate(512px,16px)}44.19%{transform:translate(528px,16px)}44.52%{transform:translate(528px,0px)}44.85%{transform:translate(512px,0px)}46.51%{transform:translate(512px,80px)}47.51%{transform:translate(560px,80px)}47.84%{transform:translate(560px,64px)}49.5%{transform:translate(640px,64px)}49.83%{transform:translate(640px,48px)}50.17%{transform:translate(624px,48px)}51.16%{transform:translate(624px,96px)}51.5%{transform:translate(608px,96px)}51.83%{transform:translate(608px,80px)}52.16%{transform:translate(592px,80px)}52.49%{transform:translate(592px,64px)}53.16%{transform:translate(624px,64px)}54.15%{transform:translate(624px,16px)}55.81%{transform:translate(704px,16px)}56.15%{transform:translate(704px,0px)}58.14%{transform:translate(800px,0px)}59.47%{transform:translate(800px,64px)}59.8%{transform:translate(784px,64px)}60.13%{transform:translate(784px,48px)}61.46%{transform:translate(848px,48px)}62.46%{transform:translate(848px,0px)}65.78%{transform:translate(688px,0px)}67.77%{transform:translate(688px,96px)}72.43%{transform:translate(464px,96px)}72.76%{transform:translate(464px,80px)}74.09%{transform:translate(528px,80px)}75.08%{transform:translate(528px,32px)}81.4%{transform:translate(832px,32px)}81.73%{transform:translate(832px,16px)}97.67%{transform:translate(80px,0px)}98.01%{transform:translate(64px,0px)}98.34%{transform:translate(64px,-16px)}}.s.s0{transform:translate(0px,-16px);animation-name:s0}@keyframes s1{0%,99.67%{transform:translate(16px,-16px)}0.33%{transform:translate(0px,-16px)}0.66%{transform:translate(0px,0px)}1%{transform:translate(16px,0px)}1.33%{transform:translate(16px,16px)}2.66%,97.67%{transform:translate(80px,16px)}2.99%{transform:translate(80px,32px)}3.32%{transform:translate(64px,32px)}4.65%{transform:translate(64px,96px)}4.98%{transform:translate(48px,96px)}5.32%{transform:translate(48px,80px)}6.98%{transform:translate(128px,80px)}7.31%{transform:translate(128px,64px)}7.97%{transform:translate(160px,64px)}8.64%,24.58%{transform:translate(160px,32px)}9.63%{transform:translate(208px,32px)}10.3%{transform:translate(208px,0px)}10.96%{transform:translate(240px,0px)}11.3%{transform:translate(240px,16px)}11.96%{transform:translate(272px,16px)}12.29%,18.94%{transform:translate(272px,0px)}12.96%{transform:translate(304px,0px)}14.29%{transform:translate(304px,64px)}14.95%{transform:translate(336px,64px)}15.28%{transform:translate(336px,48px)}15.61%{transform:translate(352px,48px)}16.28%{transform:translate(352px,16px)}16.61%{transform:translate(368px,16px)}16.94%{transform:translate(368px,0px)}19.93%{transform:translate(272px,48px)}21.26%{transform:translate(208px,48px)}21.59%{transform:translate(208px,64px)}21.93%{transform:translate(192px,64px)}22.59%{transform:translate(192px,96px)}23.26%{transform:translate(160px,96px)}24.92%{transform:translate(144px,32px)}25.58%{transform:translate(144px,0px)}25.91%{transform:translate(160px,0px)}26.25%{transform:translate(160px,-16px)}26.91%{transform:translate(128px,-16px)}27.24%{transform:translate(128px,0px)}29.9%{transform:translate(256px,0px)}31.23%{transform:translate(256px,64px)}31.56%{transform:translate(272px,64px)}31.89%{transform:translate(272px,80px)}32.23%{transform:translate(256px,80px)}32.56%{transform:translate(256px,96px)}35.88%{transform:translate(416px,96px)}36.21%{transform:translate(416px,80px)}36.88%{transform:translate(384px,80px)}37.21%{transform:translate(384px,64px)}39.2%{transform:translate(480px,64px)}39.53%{transform:translate(480px,48px)}39.87%{transform:translate(464px,48px)}40.86%{transform:translate(464px,0px)}41.2%{transform:translate(448px,0px)}41.53%{transform:translate(448px,16px)}41.86%{transform:translate(432px,16px)}42.19%{transform:translate(432px,32px)}43.85%{transform:translate(512px,32px)}44.19%{transform:translate(512px,16px)}44.52%{transform:translate(528px,16px)}44.85%{transform:translate(528px,0px)}45.18%{transform:translate(512px,0px)}46.84%{transform:translate(512px,80px)}47.84%{transform:translate(560px,80px)}48.17%{transform:translate(560px,64px)}49.83%{transform:translate(640px,64px)}50.17%{transform:translate(640px,48px)}50.5%{transform:translate(624px,48px)}51.5%{transform:translate(624px,96px)}51.83%{transform:translate(608px,96px)}52.16%{transform:translate(608px,80px)}52.49%{transform:translate(592px,80px)}52.82%{transform:translate(592px,64px)}53.49%{transform:translate(624px,64px)}54.49%{transform:translate(624px,16px)}56.15%{transform:translate(704px,16px)}56.48%{transform:translate(704px,0px)}58.47%{transform:translate(800px,0px)}59.8%{transform:translate(800px,64px)}60.13%{transform:translate(784px,64px)}60.47%{transform:translate(784px,48px)}61.79%{transform:translate(848px,48px)}62.79%{transform:translate(848px,0px)}66.11%{transform:translate(688px,0px)}68.11%{transform:translate(688px,96px)}72.76%{transform:translate(464px,96px)}73.09%{transform:translate(464px,80px)}74.42%{transform:translate(528px,80px)}75.42%{transform:translate(528px,32px)}81.73%{transform:translate(832px,32px)}82.06%{transform:translate(832px,16px)}98.01%{transform:translate(80px,0px)}98.34%{transform:translate(64px,0px)}98.67%{transform:translate(64px,-16px)}}.s.s1{transform:translate(16px,-16px);animation-name:s1}@keyframes s2{0%,99.67%{transform:translate(32px,-16px)}0.66%{transform:translate(0px,-16px)}1%{transform:translate(0px,0px)}1.33%{transform:translate(16px,0px)}1.66%{transform:translate(16px,16px)}2.99%,98.01%{transform:translate(80px,16px)}3.32%{transform:translate(80px,32px)}3.65%{transform:translate(64px,32px)}4.98%{transform:translate(64px,96px)}5.32%{transform:translate(48px,96px)}5.65%{transform:translate(48px,80px)}7.31%{transform:translate(128px,80px)}7.64%{transform:translate(128px,64px)}8.31%{transform:translate(160px,64px)}8.97%,24.92%{transform:translate(160px,32px)}9.97%{transform:translate(208px,32px)}10.63%{transform:translate(208px,0px)}11.3%{transform:translate(240px,0px)}11.63%{transform:translate(240px,16px)}12.29%{transform:translate(272px,16px)}12.62%,19.27%{transform:translate(272px,0px)}13.29%{transform:translate(304px,0px)}14.62%{transform:translate(304px,64px)}15.28%{transform:translate(336px,64px)}15.61%{transform:translate(336px,48px)}15.95%{transform:translate(352px,48px)}16.61%{transform:translate(352px,16px)}16.94%{transform:translate(368px,16px)}17.28%{transform:translate(368px,0px)}20.27%{transform:translate(272px,48px)}21.59%{transform:translate(208px,48px)}21.93%{transform:translate(208px,64px)}22.26%{transform:translate(192px,64px)}22.92%{transform:translate(192px,96px)}23.59%{transform:translate(160px,96px)}25.25%{transform:translate(144px,32px)}25.91%{transform:translate(144px,0px)}26.25%{transform:translate(160px,0px)}26.58%{transform:translate(160px,-16px)}27.24%{transform:translate(128px,-16px)}27.57%{transform:translate(128px,0px)}30.23%{transform:translate(256px,0px)}31.56%{transform:translate(256px,64px)}31.89%{transform:translate(272px,64px)}32.23%{transform:translate(272px,80px)}32.56%{transform:translate(256px,80px)}32.89%{transform:translate(256px,96px)}36.21%{transform:translate(416px,96px)}36.54%{transform:translate(416px,80px)}37.21%{transform:translate(384px,80px)}37.54%{transform:translate(384px,64px)}39.53%{transform:translate(480px,64px)}39.87%{transform:translate(480px,48px)}40.2%{transform:translate(464px,48px)}41.2%{transform:translate(464px,0px)}41.53%{transform:translate(448px,0px)}41.86%{transform:translate(448px,16px)}42.19%{transform:translate(432px,16px)}42.52%{transform:translate(432px,32px)}44.19%{transform:translate(512px,32px)}44.52%{transform:translate(512px,16px)}44.85%{transform:translate(528px,16px)}45.18%{transform:translate(528px,0px)}45.51%{transform:translate(512px,0px)}47.18%{transform:translate(512px,80px)}48.17%{transform:translate(560px,80px)}48.5%{transform:translate(560px,64px)}50.17%{transform:translate(640px,64px)}50.5%{transform:translate(640px,48px)}50.83%{transform:translate(624px,48px)}51.83%{transform:translate(624px,96px)}52.16%{transform:translate(608px,96px)}52.49%{transform:translate(608px,80px)}52.82%{transform:translate(592px,80px)}53.16%{transform:translate(592px,64px)}53.82%{transform:translate(624px,64px)}54.82%{transform:translate(624px,16px)}56.48%{transform:translate(704px,16px)}56.81%{transform:translate(704px,0px)}58.8%{transform:translate(800px,0px)}60.13%{transform:translate(800px,64px)}60.47%{transform:translate(784px,64px)}60.8%{transform:translate(784px,48px)}62.13%{transform:translate(848px,48px)}63.12%{transform:translate(848px,0px)}66.45%{transform:translate(688px,0px)}68.44%{transform:translate(688px,96px)}73.09%{transform:translate(464px,96px)}73.42%{transform:translate(464px,80px)}74.75%{transform:translate(528px,80px)}75.75%{transform:translate(528px,32px)}82.06%{transform:translate(832px,32px)}82.39%{transform:translate(832px,16px)}98.34%{transform:translate(80px,0px)}98.67%{transform:translate(64px,0px)}99%{transform:translate(64px,-16px)}}.s.s2{transform:translate(32px,-16px);animation-name:s2}@keyframes s3{0%,99.67%{transform:translate(48px,-16px)}1%{transform:translate(0px,-16px)}1.33%{transform:translate(0px,0px)}1.66%{transform:translate(16px,0px)}1.99%{transform:translate(16px,16px)}3.32%,98.34%{transform:translate(80px,16px)}3.65%{transform:translate(80px,32px)}3.99%{transform:translate(64px,32px)}5.32%{transform:translate(64px,96px)}5.65%{transform:translate(48px,96px)}5.98%{transform:translate(48px,80px)}7.64%{transform:translate(128px,80px)}7.97%{transform:translate(128px,64px)}8.64%{transform:translate(160px,64px)}9.3%,25.25%{transform:translate(160px,32px)}10.3%{transform:translate(208px,32px)}10.96%{transform:translate(208px,0px)}11.63%{transform:translate(240px,0px)}11.96%{transform:translate(240px,16px)}12.62%{transform:translate(272px,16px)}12.96%,19.6%{transform:translate(272px,0px)}13.62%{transform:translate(304px,0px)}14.95%{transform:translate(304px,64px)}15.61%{transform:translate(336px,64px)}15.95%{transform:translate(336px,48px)}16.28%{transform:translate(352px,48px)}16.94%{transform:translate(352px,16px)}17.28%{transform:translate(368px,16px)}17.61%{transform:translate(368px,0px)}20.6%{transform:translate(272px,48px)}21.93%{transform:translate(208px,48px)}22.26%{transform:translate(208px,64px)}22.59%{transform:translate(192px,64px)}23.26%{transform:translate(192px,96px)}23.92%{transform:translate(160px,96px)}25.58%{transform:translate(144px,32px)}26.25%{transform:translate(144px,0px)}26.58%{transform:translate(160px,0px)}26.91%{transform:translate(160px,-16px)}27.57%{transform:translate(128px,-16px)}27.91%{transform:translate(128px,0px)}30.56%{transform:translate(256px,0px)}31.89%{transform:translate(256px,64px)}32.23%{transform:translate(272px,64px)}32.56%{transform:translate(272px,80px)}32.89%{transform:translate(256px,80px)}33.22%{transform:translate(256px,96px)}36.54%{transform:translate(416px,96px)}36.88%{transform:translate(416px,80px)}37.54%{transform:translate(384px,80px)}37.87%{transform:translate(384px,64px)}39.87%{transform:translate(480px,64px)}40.2%{transform:translate(480px,48px)}40.53%{transform:translate(464px,48px)}41.53%{transform:translate(464px,0px)}41.86%{transform:translate(448px,0px)}42.19%{transform:translate(448px,16px)}42.52%{transform:translate(432px,16px)}42.86%{transform:translate(432px,32px)}44.52%{transform:translate(512px,32px)}44.85%{transform:translate(512px,16px)}45.18%{transform:translate(528px,16px)}45.51%{transform:translate(528px,0px)}45.85%{transform:translate(512px,0px)}47.51%{transform:translate(512px,80px)}48.5%{transform:translate(560px,80px)}48.84%{transform:translate(560px,64px)}50.5%{transform:translate(640px,64px)}50.83%{transform:translate(640px,48px)}51.16%{transform:translate(624px,48px)}52.16%{transform:translate(624px,96px)}52.49%{transform:translate(608px,96px)}52.82%{transform:translate(608px,80px)}53.16%{transform:translate(592px,80px)}53.49%{transform:translate(592px,64px)}54.15%{transform:translate(624px,64px)}55.15%{transform:translate(624px,16px)}56.81%{transform:translate(704px,16px)}57.14%{transform:translate(704px,0px)}59.14%{transform:translate(800px,0px)}60.47%{transform:translate(800px,64px)}60.8%{transform:translate(784px,64px)}61.13%{transform:translate(784px,48px)}62.46%{transform:translate(848px,48px)}63.46%{transform:translate(848px,0px)}66.78%{transform:translate(688px,0px)}68.77%{transform:translate(688px,96px)}73.42%{transform:translate(464px,96px)}73.75%{transform:translate(464px,80px)}75.08%{transform:translate(528px,80px)}76.08%{transform:translate(528px,32px)}82.39%{transform:translate(832px,32px)}82.72%{transform:translate(832px,16px)}98.67%{transform:translate(80px,0px)}99%{transform:translate(64px,0px)}99.34%{transform:translate(64px,-16px)}}.s.s3{transform:translate(48px,-16px);animation-name:s3}</style><rect class="c" x="2" y="2" rx="2" ry="2"/><rect class="c" x="2" y="18" rx="2" ry="2"/><rect class="c" x="2" y="34" rx="2" ry="2"/><rect class="c" x="2" y="50" rx="2" ry="2"/><rect class="c" x="2" y="66" rx="2" ry="2"/><rect class="c" x="2" y="82" rx="2" ry="2"/><rect class="c" x="2" y="98" rx="2" ry="2"/><rect class="c" x="18" y="2" rx="2" ry="2"/><rect class="c c0" x="18" y="18" rx="2" ry="2"/><rect class="c" x="18" y="34" rx="2" ry="2"/><rect class="c" x="18" y="50" rx="2" ry="2"/><rect class="c" x="18" y="66" rx="2" ry="2"/><rect class="c" x="18" y="82" rx="2" ry="2"/><rect class="c" x="18" y="98" rx="2" ry="2"/><rect class="c" x="34" y="2" rx="2" ry="2"/><rect class="c" x="34" y="18" rx="2" ry="2"/><rect class="c" x="34" y="34" rx="2" ry="2"/><rect class="c" x="34" y="50" rx="2" ry="2"/><rect class="c" x="34" y="66" rx="2" ry="2"/><rect class="c" x="34" y="82" rx="2" ry="2"/><rect class="c" x="34" y="98" rx="2" ry="2"/><rect class="c" x="50" y="2" rx="2" ry="2"/><rect class="c" x="50" y="18" rx="2" ry="2"/><rect class="c" x="50" y="34" rx="2" ry="2"/><rect class="c" x="50" y="50" rx="2" ry="2"/><rect class="c" x="50" y="66" rx="2" ry="2"/><rect class="c" x="50" y="82" rx="2" ry="2"/><rect class="c c1" x="50" y="98" rx="2" ry="2"/><rect class="c" x="66" y="2" rx="2" ry="2"/><rect class="c" x="66" y="18" rx="2" ry="2"/><rect class="c" x="66" y="34" rx="2" ry="2"/><rect class="c c2" x="66" y="50" rx="2" ry="2"/><rect class="c" x="66" y="66" rx="2" ry="2"/><rect class="c" x="66" y="82" rx="2" ry="2"/><rect class="c c3" x="66" y="98" rx="2" ry="2"/><rect class="c" x="82" y="2" rx="2" ry="2"/><rect class="c" x="82" y="18" rx="2" ry="2"/><rect class="c c4" x="82" y="34" rx="2" ry="2"/><rect class="c" x="82" y="50" rx="2" ry="2"/><rect class="c" x="82" y="66" rx="2" ry="2"/><rect class="c" x="82" y="82" rx="2" ry="2"/><rect class="c" x="82" y="98" rx="2" ry="2"/><rect class="c" x="98" y="2" rx="2" ry="2"/><rect class="c" x="98" y="18" rx="2" ry="2"/><rect class="c" x="98" y="34" rx="2" ry="2"/><rect class="c" x="98" y="50" rx="2" ry="2"/><rect class="c" x="98" y="66" rx="2" ry="2"/><rect class="c" x="98" y="82" rx="2" ry="2"/><rect class="c" x="98" y="98" rx="2" ry="2"/><rect class="c" x="114" y="2" rx="2" ry="2"/><rect class="c" x="114" y="18" rx="2" ry="2"/><rect class="c" x="114" y="34" rx="2" ry="2"/><rect class="c" x="114" y="50" rx="2" ry="2"/><rect class="c" x="114" y="66" rx="2" ry="2"/><rect class="c" x="114" y="82" rx="2" ry="2"/><rect class="c" x="114" y="98" rx="2" ry="2"/><rect class="c c5" x="130" y="2" rx="2" ry="2"/><rect class="c" x="130" y="18" rx="2" ry="2"/><rect class="c" x="130" y="34" rx="2" ry="2"/><rect class="c" x="130" y="50" rx="2" ry="2"/><rect class="c c6" x="130" y="66" rx="2" ry="2"/><rect class="c c7" x="130" y="82" rx="2" ry="2"/><rect class="c" x="130" y="98" rx="2" ry="2"/><rect class="c c8" x="146" y="2" rx="2" ry="2"/><rect class="c c9" x="146" y="18" rx="2" ry="2"/><rect class="c ca" x="146" y="34" rx="2" ry="2"/><rect class="c" x="146" y="50" rx="2" ry="2"/><rect class="c" x="146" y="66" rx="2" ry="2"/><rect class="c" x="146" y="82" rx="2" ry="2"/><rect class="c" x="146" y="98" rx="2" ry="2"/><rect class="c cb" x="162" y="2" rx="2" ry="2"/><rect class="c" x="162" y="18" rx="2" ry="2"/><rect class="c cc" x="162" y="34" rx="2" ry="2"/><rect class="c cd" x="162" y="50" rx="2" ry="2"/><rect class="c ce" x="162" y="66" rx="2" ry="2"/><rect class="c cf" x="162" y="82" rx="2" ry="2"/><rect class="c cg" x="162" y="98" rx="2" ry="2"/><rect class="c" x="178" y="2" rx="2" ry="2"/><rect class="c" x="178" y="18" rx="2" ry="2"/><rect class="c ch" x="178" y="34" rx="2" ry="2"/><rect class="c" x="178" y="50" rx="2" ry="2"/><rect class="c" x="178" y="66" rx="2" ry="2"/><rect class="c" x="178" y="82" rx="2" ry="2"/><rect class="c" x="178" y="98" rx="2" ry="2"/><rect class="c" x="194" y="2" rx="2" ry="2"/><rect class="c" x="194" y="18" rx="2" ry="2"/><rect class="c" x="194" y="34" rx="2" ry="2"/><rect class="c" x="194" y="50" rx="2" ry="2"/><rect class="c" x="194" y="66" rx="2" ry="2"/><rect class="c ci" x="194" y="82" rx="2" ry="2"/><rect class="c cj" x="194" y="98" rx="2" ry="2"/><rect class="c ck" x="210" y="2" rx="2" ry="2"/><rect class="c cl" x="210" y="18" rx="2" ry="2"/><rect class="c cm" x="210" y="34" rx="2" ry="2"/><rect class="c cn" x="210" y="50" rx="2" ry="2"/><rect class="c co" x="210" y="66" rx="2" ry="2"/><rect class="c" x="210" y="82" rx="2" ry="2"/><rect class="c" x="210" y="98" rx="2" ry="2"/><rect class="c" x="226" y="2" rx="2" ry="2"/><rect class="c" x="226" y="18" rx="2" ry="2"/><rect class="c" x="226" y="34" rx="2" ry="2"/><rect class="c" x="226" y="50" rx="2" ry="2"/><rect class="c" x="226" y="66" rx="2" ry="2"/><rect class="c" x="226" y="82" rx="2" ry="2"/><rect class="c" x="226" y="98" rx="2" ry="2"/><rect class="c" x="242" y="2" rx="2" ry="2"/><rect class="c cp" x="242" y="18" rx="2" ry="2"/><rect class="c" x="242" y="34" rx="2" ry="2"/><rect class="c cq" x="242" y="50" rx="2" ry="2"/><rect class="c" x="242" y="66" rx="2" ry="2"/><rect class="c" x="242" y="82" rx="2" ry="2"/><rect class="c" x="242" y="98" rx="2" ry="2"/><rect class="c" x="258" y="2" rx="2" ry="2"/><rect class="c" x="258" y="18" rx="2" ry="2"/><rect class="c" x="258" y="34" rx="2" ry="2"/><rect class="c cr" x="258" y="50" rx="2" ry="2"/><rect class="c cs" x="258" y="66" rx="2" ry="2"/><rect class="c ct" x="258" y="82" rx="2" ry="2"/><rect class="c cu" x="258" y="98" rx="2" ry="2"/><rect class="c cv" x="274" y="2" rx="2" ry="2"/><rect class="c cw" x="274" y="18" rx="2" ry="2"/><rect class="c cx" x="274" y="34" rx="2" ry="2"/><rect class="c cy" x="274" y="50" rx="2" ry="2"/><rect class="c cz" x="274" y="66" rx="2" ry="2"/><rect class="c c10" x="274" y="82" rx="2" ry="2"/><rect class="c c11" x="274" y="98" rx="2" ry="2"/><rect class="c" x="290" y="2" rx="2" ry="2"/><rect class="c" x="290" y="18" rx="2" ry="2"/><rect class="c" x="290" y="34" rx="2" ry="2"/><rect class="c" x="290" y="50" rx="2" ry="2"/><rect class="c" x="290" y="66" rx="2" ry="2"/><rect class="c" x="290" y="82" rx="2" ry="2"/><rect class="c" x="290" y="98" rx="2" ry="2"/><rect class="c c12" x="306" y="2" rx="2" ry="2"/><rect class="c" x="306" y="18" rx="2" ry="2"/><rect class="c c13" x="306" y="34" rx="2" ry="2"/><rect class="c c14" x="306" y="50" rx="2" ry="2"/><rect class="c c15" x="306" y="66" rx="2" ry="2"/><rect class="c" x="306" y="82" rx="2" ry="2"/><rect class="c c16" x="306" y="98" rx="2" ry="2"/><rect class="c" x="322" y="2" rx="2" ry="2"/><rect class="c" x="322" y="18" rx="2" ry="2"/><rect class="c" x="322" y="34" rx="2" ry="2"/><rect class="c" x="322" y="50" rx="2" ry="2"/><rect class="c c17" x="322" y="66" rx="2" ry="2"/><rect class="c" x="322" y="82" rx="2" ry="2"/><rect class="c" x="322" y="98" rx="2" ry="2"/><rect class="c" x="338" y="2" rx="2" ry="2"/><rect class="c" x="338" y="18" rx="2" ry="2"/><rect class="c" x="338" y="34" rx="2" ry="2"/><rect class="c c18" x="338" y="50" rx="2" ry="2"/><rect class="c c19" x="338" y="66" rx="2" ry="2"/><rect class="c" x="338" y="82" rx="2" ry="2"/><rect class="c" x="338" y="98" rx="2" ry="2"/><rect class="c c1a" x="354" y="2" rx="2" ry="2"/><rect class="c c1b" x="354" y="18" rx="2" ry="2"/><rect class="c c1c" x="354" y="34" rx="2" ry="2"/><rect class="c" x="354" y="50" rx="2" ry="2"/><rect class="c" x="354" y="66" rx="2" ry="2"/><rect class="c" x="354" y="82" rx="2" ry="2"/><rect class="c" x="354" y="98" rx="2" ry="2"/><rect class="c" x="370" y="2" rx="2" ry="2"/><rect class="c c1d" x="370" y="18" rx="2" ry="2"/><rect class="c" x="370" y="34" rx="2" ry="2"/><rect class="c" x="370" y="50" rx="2" ry="2"/><rect class="c" x="370" y="66" rx="2" ry="2"/><rect class="c" x="370" y="82" rx="2" ry="2"/><rect class="c" x="370" y="98" rx="2" ry="2"/><rect class="c" x="386" y="2" rx="2" ry="2"/><rect class="c" x="386" y="18" rx="2" ry="2"/><rect class="c" x="386" y="34" rx="2" ry="2"/><rect class="c" x="386" y="50" rx="2" ry="2"/><rect class="c" x="386" y="66" rx="2" ry="2"/><rect class="c c1e" x="386" y="82" rx="2" ry="2"/><rect class="c c1f" x="386" y="98" rx="2" ry="2"/><rect class="c" x="402" y="2" rx="2" ry="2"/><rect class="c" x="402" y="18" rx="2" ry="2"/><rect class="c" x="402" y="34" rx="2" ry="2"/><rect class="c" x="402" y="50" rx="2" ry="2"/><rect class="c" x="402" y="66" rx="2" ry="2"/><rect class="c c1g" x="402" y="82" rx="2" ry="2"/><rect class="c c1h" x="402" y="98" rx="2" ry="2"/><rect class="c" x="418" y="2" rx="2" ry="2"/><rect class="c" x="418" y="18" rx="2" ry="2"/><rect class="c" x="418" y="34" rx="2" ry="2"/><rect class="c" x="418" y="50" rx="2" ry="2"/><rect class="c" x="418" y="66" rx="2" ry="2"/><rect class="c c1i" x="418" y="82" rx="2" ry="2"/><rect class="c c1j" x="418" y="98" rx="2" ry="2"/><rect class="c" x="434" y="2" rx="2" ry="2"/><rect class="c" x="434" y="18" rx="2" ry="2"/><rect class="c c1k" x="434" y="34" rx="2" ry="2"/><rect class="c" x="434" y="50" rx="2" ry="2"/><rect class="c" x="434" y="66" rx="2" ry="2"/><rect class="c" x="434" y="82" rx="2" ry="2"/><rect class="c" x="434" y="98" rx="2" ry="2"/><rect class="c c1l" x="450" y="2" rx="2" ry="2"/><rect class="c c1m" x="450" y="18" rx="2" ry="2"/><rect class="c" x="450" y="34" rx="2" ry="2"/><rect class="c" x="450" y="50" rx="2" ry="2"/><rect class="c" x="450" y="66" rx="2" ry="2"/><rect class="c" x="450" y="82" rx="2" ry="2"/><rect class="c" x="450" y="98" rx="2" ry="2"/><rect class="c c1n" x="466" y="2" rx="2" ry="2"/><rect class="c c1o" x="466" y="18" rx="2" ry="2"/><rect class="c c1p" x="466" y="34" rx="2" ry="2"/><rect class="c c1q" x="466" y="50" rx="2" ry="2"/><rect class="c c1r" x="466" y="66" rx="2" ry="2"/><rect class="c c1s" x="466" y="82" rx="2" ry="2"/><rect class="c" x="466" y="98" rx="2" ry="2"/><rect class="c" x="482" y="2" rx="2" ry="2"/><rect class="c" x="482" y="18" rx="2" ry="2"/><rect class="c" x="482" y="34" rx="2" ry="2"/><rect class="c c1t" x="482" y="50" rx="2" ry="2"/><rect class="c c1u" x="482" y="66" rx="2" ry="2"/><rect class="c c1v" x="482" y="82" rx="2" ry="2"/><rect class="c" x="482" y="98" rx="2" ry="2"/><rect class="c" x="498" y="2" rx="2" ry="2"/><rect class="c" x="498" y="18" rx="2" ry="2"/><rect class="c" x="498" y="34" rx="2" ry="2"/><rect class="c" x="498" y="50" rx="2" ry="2"/><rect class="c" x="498" y="66" rx="2" ry="2"/><rect class="c" x="498" y="82" rx="2" ry="2"/><rect class="c c1w" x="498" y="98" rx="2" ry="2"/><rect class="c c1x" x="514" y="2" rx="2" ry="2"/><rect class="c c1y" x="514" y="18" rx="2" ry="2"/><rect class="c c1z" x="514" y="34" rx="2" ry="2"/><rect class="c" x="514" y="50" rx="2" ry="2"/><rect class="c" x="514" y="66" rx="2" ry="2"/><rect class="c c20" x="514" y="82" rx="2" ry="2"/><rect class="c" x="514" y="98" rx="2" ry="2"/><rect class="c" x="530" y="2" rx="2" ry="2"/><rect class="c c21" x="530" y="18" rx="2" ry="2"/><rect class="c c22" x="530" y="34" rx="2" ry="2"/><rect class="c" x="530" y="50" rx="2" ry="2"/><rect class="c" x="530" y="66" rx="2" ry="2"/><rect class="c" x="530" y="82" rx="2" ry="2"/><rect class="c" x="530" y="98" rx="2" ry="2"/><rect class="c" x="546" y="2" rx="2" ry="2"/><rect class="c" x="546" y="18" rx="2" ry="2"/><rect class="c" x="546" y="34" rx="2" ry="2"/><rect class="c" x="546" y="50" rx="2" ry="2"/><rect class="c" x="546" y="66" rx="2" ry="2"/><rect class="c c23" x="546" y="82" rx="2" ry="2"/><rect class="c" x="546" y="98" rx="2" ry="2"/><rect class="c" x="562" y="2" rx="2" ry="2"/><rect class="c" x="562" y="18" rx="2" ry="2"/><rect class="c" x="562" y="34" rx="2" ry="2"/><rect class="c" x="562" y="50" rx="2" ry="2"/><rect class="c c24" x="562" y="66" rx="2" ry="2"/><rect class="c" x="562" y="82" rx="2" ry="2"/><rect class="c" x="562" y="98" rx="2" ry="2"/><rect class="c" x="578" y="2" rx="2" ry="2"/><rect class="c" x="578" y="18" rx="2" ry="2"/><rect class="c" x="578" y="34" rx="2" ry="2"/><rect class="c" x="578" y="50" rx="2" ry="2"/><rect class="c" x="578" y="66" rx="2" ry="2"/><rect class="c" x="578" y="82" rx="2" ry="2"/><rect class="c" x="578" y="98" rx="2" ry="2"/><rect class="c" x="594" y="2" rx="2" ry="2"/><rect class="c" x="594" y="18" rx="2" ry="2"/><rect class="c" x="594" y="34" rx="2" ry="2"/><rect class="c" x="594" y="50" rx="2" ry="2"/><rect class="c" x="594" y="66" rx="2" ry="2"/><rect class="c c25" x="594" y="82" rx="2" ry="2"/><rect class="c" x="594" y="98" rx="2" ry="2"/><rect class="c" x="610" y="2" rx="2" ry="2"/><rect class="c" x="610" y="18" rx="2" ry="2"/><rect class="c" x="610" y="34" rx="2" ry="2"/><rect class="c" x="610" y="50" rx="2" ry="2"/><rect class="c c26" x="610" y="66" rx="2" ry="2"/><rect class="c" x="610" y="82" rx="2" ry="2"/><rect class="c" x="610" y="98" rx="2" ry="2"/><rect class="c" x="626" y="2" rx="2" ry="2"/><rect class="c" x="626" y="18" rx="2" ry="2"/><rect class="c" x="626" y="34" rx="2" ry="2"/><rect class="c" x="626" y="50" rx="2" ry="2"/><rect class="c" x="626" y="66" rx="2" ry="2"/><rect class="c c27" x="626" y="82" rx="2" ry="2"/><rect class="c c28" x="626" y="98" rx="2" ry="2"/><rect class="c" x="642" y="2" rx="2" ry="2"/><rect class="c c29" x="642" y="18" rx="2" ry="2"/><rect class="c c2a" x="642" y="34" rx="2" ry="2"/><rect class="c c2b" x="642" y="50" rx="2" ry="2"/><rect class="c c2c" x="642" y="66" rx="2" ry="2"/><rect class="c" x="642" y="82" rx="2" ry="2"/><rect class="c" x="642" y="98" rx="2" ry="2"/><rect class="c" x="658" y="2" rx="2" ry="2"/><rect class="c" x="658" y="18" rx="2" ry="2"/><rect class="c" x="658" y="34" rx="2" ry="2"/><rect class="c" x="658" y="50" rx="2" ry="2"/><rect class="c" x="658" y="66" rx="2" ry="2"/><rect class="c" x="658" y="82" rx="2" ry="2"/><rect class="c" x="658" y="98" rx="2" ry="2"/><rect class="c" x="674" y="2" rx="2" ry="2"/><rect class="c c2d" x="674" y="18" rx="2" ry="2"/><rect class="c" x="674" y="34" rx="2" ry="2"/><rect class="c" x="674" y="50" rx="2" ry="2"/><rect class="c" x="674" y="66" rx="2" ry="2"/><rect class="c" x="674" y="82" rx="2" ry="2"/><rect class="c" x="674" y="98" rx="2" ry="2"/><rect class="c" x="690" y="2" rx="2" ry="2"/><rect class="c c2e" x="690" y="18" rx="2" ry="2"/><rect class="c" x="690" y="34" rx="2" ry="2"/><rect class="c" x="690" y="50" rx="2" ry="2"/><rect class="c" x="690" y="66" rx="2" ry="2"/><rect class="c" x="690" y="82" rx="2" ry="2"/><rect class="c c2f" x="690" y="98" rx="2" ry="2"/><rect class="c c2g" x="706" y="2" rx="2" ry="2"/><rect class="c" x="706" y="18" rx="2" ry="2"/><rect class="c" x="706" y="34" rx="2" ry="2"/><rect class="c" x="706" y="50" rx="2" ry="2"/><rect class="c" x="706" y="66" rx="2" ry="2"/><rect class="c" x="706" y="82" rx="2" ry="2"/><rect class="c" x="706" y="98" rx="2" ry="2"/><rect class="c" x="722" y="2" rx="2" ry="2"/><rect class="c" x="722" y="18" rx="2" ry="2"/><rect class="c" x="722" y="34" rx="2" ry="2"/><rect class="c" x="722" y="50" rx="2" ry="2"/><rect class="c" x="722" y="66" rx="2" ry="2"/><rect class="c" x="722" y="82" rx="2" ry="2"/><rect class="c" x="722" y="98" rx="2" ry="2"/><rect class="c" x="738" y="2" rx="2" ry="2"/><rect class="c" x="738" y="18" rx="2" ry="2"/><rect class="c" x="738" y="34" rx="2" ry="2"/><rect class="c" x="738" y="50" rx="2" ry="2"/><rect class="c" x="738" y="66" rx="2" ry="2"/><rect class="c" x="738" y="82" rx="2" ry="2"/><rect class="c" x="738" y="98" rx="2" ry="2"/><rect class="c" x="754" y="2" rx="2" ry="2"/><rect class="c" x="754" y="18" rx="2" ry="2"/><rect class="c" x="754" y="34" rx="2" ry="2"/><rect class="c" x="754" y="50" rx="2" ry="2"/><rect class="c" x="754" y="66" rx="2" ry="2"/><rect class="c" x="754" y="82" rx="2" ry="2"/><rect class="c" x="754" y="98" rx="2" ry="2"/><rect class="c" x="770" y="2" rx="2" ry="2"/><rect class="c" x="770" y="18" rx="2" ry="2"/><rect class="c" x="770" y="34" rx="2" ry="2"/><rect class="c" x="770" y="50" rx="2" ry="2"/><rect class="c" x="770" y="66" rx="2" ry="2"/><rect class="c" x="770" y="82" rx="2" ry="2"/><rect class="c" x="770" y="98" rx="2" ry="2"/><rect class="c" x="786" y="2" rx="2" ry="2"/><rect class="c" x="786" y="18" rx="2" ry="2"/><rect class="c" x="786" y="34" rx="2" ry="2"/><rect class="c" x="786" y="50" rx="2" ry="2"/><rect class="c c2h" x="786" y="66" rx="2" ry="2"/><rect class="c" x="786" y="82" rx="2" ry="2"/><rect class="c" x="786" y="98" rx="2" ry="2"/><rect class="c" x="802" y="2" rx="2" ry="2"/><rect class="c c2i" x="802" y="18" rx="2" ry="2"/><rect class="c c2j" x="802" y="34" rx="2" ry="2"/><rect class="c" x="802" y="50" rx="2" ry="2"/><rect class="c c2k" x="802" y="66" rx="2" ry="2"/><rect class="c" x="802" y="82" rx="2" ry="2"/><rect class="c" x="802" y="98" rx="2" ry="2"/><rect class="c" x="818" y="2" rx="2" ry="2"/><rect class="c" x="818" y="18" rx="2" ry="2"/><rect class="c" x="818" y="34" rx="2" ry="2"/><rect class="c" x="818" y="50" rx="2" ry="2"/><rect class="c" x="818" y="66" rx="2" ry="2"/><rect class="c" x="818" y="82" rx="2" ry="2"/><rect class="c" x="818" y="98" rx="2" ry="2"/><rect class="c c2l" x="834" y="2" rx="2" ry="2"/><rect class="c" x="834" y="18" rx="2" ry="2"/><rect class="c c2m" x="834" y="34" rx="2" ry="2"/><rect class="c c2n" x="834" y="50" rx="2" ry="2"/><rect class="u u0" height="12" width="813.3" x="0.0" y="144"/><rect class="u u1" height="12" width="27.1" x="812.7" y="144"/><rect class="u u2" height="12" width="9.4" x="839.2" y="144"/><rect class="s s0" x="0.8" y="0.8" width="14.4" height="14.4" rx="4.5" ry="4.5"/><rect class="s s1" x="1.8" y="1.8" width="12.3" height="12.3" rx="4.1" ry="4.1"/><rect class="s s2" x="2.6" y="2.6" width="10.8" height="10.8" rx="3.6" ry="3.6"/><rect class="s s3" x="3.0" y="3.0" width="9.9" height="9.9" rx="3.3" ry="3.3"/></svg>